#VRML V2.0 utf8
# Exportiert mit Blender-WRL-Export (The Smart Assistant)

Shape # Material: Material
{
	geometry IndexedFaceSet {
		coord Coordinate { point [
			5.280000 0.320000 -3.160000,
			5.280000 -0.320000 -3.160000,
			5.280000 0.320000 3.160000,
			5.280000 -0.320000 3.160000,
			-5.280000 0.320000 -3.160000,
			-5.280000 -0.320000 -3.160000,
			-5.280000 0.320000 3.160000,
			-5.280000 -0.320000 3.160000,
			3.691529 0.320000 -2.277054,
			3.855736 0.320000 -2.584264,
			3.781118 0.320000 -2.493341,
			3.725672 0.320000 -2.389609,
			4.162946 0.320000 -2.748471,
			4.050390 0.320000 -2.714327,
			4.509610 0.320000 -2.714327,
			4.397054 0.320000 -2.748471,
			4.280000 0.320000 -2.759999,
			3.946658 0.320000 -2.658881,
			3.680000 0.320000 -2.159999,
			3.691529 0.320000 -2.042945,
			3.855736 0.320000 -1.735735,
			3.781118 0.320000 -1.826657,
			3.725672 0.320000 -1.930389,
			4.162946 0.320000 -1.571528,
			4.050390 0.320000 -1.605672,
			4.397054 0.320000 -1.571528,
			4.280000 0.320000 -1.559999,
			3.946658 0.320000 -1.661118,
			4.613342 0.320000 -1.661118,
			4.613342 0.320000 -2.658881,
			4.589138 0.320000 -2.671819,
			4.704264 0.320000 -1.735735,
			4.704264 0.320000 -2.584264,
			4.880000 0.320000 -2.159999,
			4.868471 0.320000 -2.042945,
			4.868471 0.320000 -2.277054,
			4.834328 0.320000 -1.930389,
			4.834328 0.320000 -2.389609,
			4.778882 0.320000 -1.826657,
			4.778882 0.320000 -2.493341,
			4.509610 0.320000 -1.605672,
			3.680000 -0.320000 -2.159999,
			3.691529 -0.320000 -2.042945,
			3.691529 -0.320000 -2.277054,
			3.781118 -0.320000 -1.826657,
			3.725672 -0.320000 -1.930389,
			3.725672 -0.320000 -2.389609,
			3.781118 -0.320000 -2.493341,
			3.946658 -0.320000 -1.661118,
			3.946658 -0.320000 -2.658881,
			4.162946 -0.320000 -1.571528,
			4.162946 -0.320000 -2.748471,
			4.050390 -0.320000 -1.605672,
			4.050390 -0.320000 -2.714327,
			3.855736 -0.320000 -1.735735,
			3.855736 -0.320000 -2.584264,
			4.397054 -0.320000 -1.571528,
			4.397054 -0.320000 -2.748471,
			4.613342 -0.320000 -1.661118,
			4.613342 -0.320000 -2.658881,
			4.533814 -0.320000 -2.701390,
			4.509610 -0.320000 -1.605672,
			4.509610 -0.320000 -2.714327,
			4.880000 -0.320000 -2.159999,
			4.868471 -0.320000 -2.042945,
			4.868471 -0.320000 -2.277054,
			4.778882 -0.320000 -1.826657,
			4.834328 -0.320000 -1.930389,
			4.834328 -0.320000 -2.389609,
			4.778882 -0.320000 -2.493341,
			4.704264 -0.320000 -1.735735,
			4.704264 -0.320000 -2.584264,
			4.280000 -0.320000 -2.759999,
			4.280000 -0.320000 -1.559999,
			-4.868471 0.320000 -2.042945,
			-4.880000 0.320000 -2.159999,
			-4.834328 0.320000 -1.930389,
			-4.868471 0.320000 -2.277054,
			-4.834328 0.320000 -2.389609,
			-4.778882 0.320000 -2.493341,
			-4.613342 0.320000 -1.661118,
			-4.533814 0.320000 -2.701390,
			-4.613342 0.320000 -2.658881,
			-4.704264 0.320000 -1.735735,
			-4.704264 0.320000 -2.584264,
			-4.778882 0.320000 -1.826657,
			-4.397054 0.320000 -1.571528,
			-4.162946 0.320000 -1.571528,
			-4.050390 0.320000 -1.605672,
			-4.280000 0.320000 -1.559999,
			-3.855736 0.320000 -1.735735,
			-3.680000 0.320000 -2.159999,
			-3.684440 0.320000 -2.205081,
			-3.691529 0.320000 -2.042945,
			-3.781118 0.320000 -1.826657,
			-3.725672 0.320000 -1.930389,
			-3.946658 0.320000 -1.661118,
			-4.509610 0.320000 -1.605672,
			-4.509610 0.320000 -2.714327,
			-4.397054 0.320000 -2.748471,
			-4.050390 0.320000 -2.714327,
			-4.162946 0.320000 -2.748471,
			-4.280000 0.320000 -2.759999,
			-3.781118 0.320000 -2.493341,
			-3.855736 0.320000 -2.584264,
			-3.691529 0.320000 -2.277054,
			-3.725672 0.320000 -2.389609,
			-3.946658 0.320000 -2.658881,
			-4.868471 -0.320000 -2.042945,
			-4.880000 -0.320000 -2.159999,
			-4.834328 -0.320000 -1.930389,
			-4.868471 -0.320000 -2.277054,
			-4.834328 -0.320000 -2.389609,
			-4.589138 -0.320000 -2.671819,
			-4.613342 -0.320000 -2.658881,
			-4.704264 -0.320000 -1.735735,
			-4.704264 -0.320000 -2.584264,
			-4.613342 -0.320000 -1.661118,
			-4.778882 -0.320000 -1.826657,
			-4.778882 -0.320000 -2.493341,
			-4.397054 -0.320000 -1.571528,
			-4.509610 -0.320000 -1.605672,
			-4.050390 -0.320000 -1.605672,
			-4.162946 -0.320000 -1.571528,
			-4.280000 -0.320000 -1.559999,
			-3.855736 -0.320000 -1.735735,
			-3.680000 -0.320000 -2.159999,
			-3.684440 -0.320000 -2.205081,
			-3.725672 -0.320000 -1.930389,
			-3.691529 -0.320000 -2.042945,
			-3.946658 -0.320000 -1.661118,
			-3.781118 -0.320000 -1.826657,
			-4.509610 -0.320000 -2.714327,
			-4.397054 -0.320000 -2.748471,
			-4.050390 -0.320000 -2.714327,
			-4.162946 -0.320000 -2.748471,
			-4.280000 -0.320000 -2.759999,
			-3.781118 -0.320000 -2.493341,
			-3.855736 -0.320000 -2.584264,
			-3.691529 -0.320000 -2.277054,
			-3.725672 -0.320000 -2.389609,
			-3.946658 -0.320000 -2.658881,
		] }
		coordIndex [
			2 0 34 -1,
			22 19 92 -1,
			6 86 97 -1,
			2 7 3 -1,
			6 5 7 -1,
			1 3 64 -1,
			7 121 120 -1,
			44 127 45 -1,
			0 3 1 -1,
			4 1 5 -1,
			15 72 57 -1,
			14 57 62 -1,
			14 62 60 -1,
			29 71 32 -1,
			32 69 39 -1,
			39 68 37 -1,
			37 65 35 -1,
			35 63 33 -1,
			33 64 34 -1,
			34 67 36 -1,
			36 66 38 -1,
			38 70 31 -1,
			31 58 28 -1,
			28 61 40 -1,
			40 56 25 -1,
			25 73 26 -1,
			26 50 23 -1,
			23 52 24 -1,
			24 48 27 -1,
			20 48 54 -1,
			21 54 44 -1,
			22 44 45 -1,
			19 45 42 -1,
			18 42 41 -1,
			8 41 43 -1,
			11 43 46 -1,
			10 46 47 -1,
			9 47 55 -1,
			17 55 49 -1,
			13 49 53 -1,
			12 53 51 -1,
			16 51 72 -1,
			101 136 135 -1,
			100 135 134 -1,
			107 134 141 -1,
			107 138 104 -1,
			104 137 103 -1,
			103 140 106 -1,
			106 139 105 -1,
			92 139 127 -1,
			91 129 93 -1,
			93 128 95 -1,
			95 131 94 -1,
			94 125 90 -1,
			90 130 96 -1,
			96 122 88 -1,
			88 123 87 -1,
			87 124 89 -1,
			89 120 86 -1,
			86 121 97 -1,
			97 117 80 -1,
			83 117 115 -1,
			85 115 118 -1,
			76 118 110 -1,
			74 110 108 -1,
			75 108 109 -1,
			77 109 111 -1,
			78 111 112 -1,
			79 112 119 -1,
			84 119 116 -1,
			82 116 114 -1,
			82 114 113 -1,
			99 132 133 -1,
			102 133 136 -1,
			25 26 2 -1,
			0 30 29 -1,
			0 29 32 -1,
			40 25 2 -1,
			28 40 2 -1,
			0 32 39 -1,
			0 39 37 -1,
			31 28 2 -1,
			38 31 2 -1,
			0 37 35 -1,
			0 35 33 -1,
			36 38 2 -1,
			0 33 34 -1,
			34 36 2 -1,
			14 30 0 -1,
			4 81 98 -1,
			4 98 99 -1,
			15 14 0 -1,
			16 15 0 -1,
			4 99 102 -1,
			4 102 101 -1,
			16 0 12 -1,
			0 4 100 -1,
			12 0 13 -1,
			4 101 100 -1,
			0 100 13 -1,
			13 100 107 -1,
			17 13 107 -1,
			17 107 104 -1,
			9 17 104 -1,
			9 104 103 -1,
			10 9 103 -1,
			10 103 106 -1,
			11 10 106 -1,
			105 92 8 -1,
			92 24 27 -1,
			11 106 105 -1,
			8 11 105 -1,
			92 27 20 -1,
			92 20 21 -1,
			18 8 92 -1,
			19 18 92 -1,
			92 21 22 -1,
			82 81 4 -1,
			6 2 88 -1,
			2 26 23 -1,
			23 24 2 -1,
			24 92 91 -1,
			2 24 88 -1,
			84 82 4 -1,
			79 84 4 -1,
			24 91 93 -1,
			24 93 95 -1,
			78 79 4 -1,
			77 78 4 -1,
			24 95 94 -1,
			24 94 90 -1,
			75 77 4 -1,
			74 75 4 -1,
			24 90 96 -1,
			24 96 88 -1,
			74 4 6 -1,
			76 74 6 -1,
			85 76 6 -1,
			83 85 6 -1,
			6 88 87 -1,
			6 87 89 -1,
			80 83 6 -1,
			97 80 6 -1,
			6 89 86 -1,
			2 6 7 -1,
			6 4 5 -1,
			59 60 1 -1,
			3 73 56 -1,
			3 56 61 -1,
			71 59 1 -1,
			69 71 1 -1,
			3 61 58 -1,
			3 58 70 -1,
			68 69 1 -1,
			65 68 1 -1,
			3 70 66 -1,
			3 66 67 -1,
			63 65 1 -1,
			3 67 64 -1,
			64 63 1 -1,
			127 50 126 -1,
			50 73 3 -1,
			126 50 129 -1,
			3 7 122 -1,
			50 122 130 -1,
			5 113 114 -1,
			5 114 116 -1,
			129 50 128 -1,
			128 50 131 -1,
			5 116 119 -1,
			5 119 112 -1,
			131 50 125 -1,
			125 50 130 -1,
			5 112 111 -1,
			5 111 109 -1,
			122 50 3 -1,
			7 5 108 -1,
			5 109 108 -1,
			7 108 110 -1,
			7 110 118 -1,
			123 122 7 -1,
			124 123 7 -1,
			7 118 115 -1,
			7 115 117 -1,
			120 124 7 -1,
			7 117 121 -1,
			1 60 62 -1,
			1 62 57 -1,
			132 113 5 -1,
			133 132 5 -1,
			1 57 72 -1,
			1 72 51 -1,
			136 133 5 -1,
			135 136 5 -1,
			5 1 53 -1,
			1 51 53 -1,
			134 135 5 -1,
			134 5 53 -1,
			134 53 49 -1,
			141 134 49 -1,
			141 49 55 -1,
			138 141 55 -1,
			138 55 47 -1,
			137 138 47 -1,
			137 47 46 -1,
			140 137 46 -1,
			140 46 43 -1,
			50 127 52 -1,
			127 139 43 -1,
			52 127 48 -1,
			139 140 43 -1,
			43 41 127 -1,
			48 127 54 -1,
			54 127 44 -1,
			41 42 127 -1,
			42 45 127 -1,
			0 2 3 -1,
			4 0 1 -1,
			15 16 72 -1,
			14 15 57 -1,
			60 59 30 -1,
			59 29 30 -1,
			30 14 60 -1,
			29 59 71 -1,
			32 71 69 -1,
			39 69 68 -1,
			37 68 65 -1,
			35 65 63 -1,
			33 63 64 -1,
			34 64 67 -1,
			36 67 66 -1,
			38 66 70 -1,
			31 70 58 -1,
			28 58 61 -1,
			40 61 56 -1,
			25 56 73 -1,
			26 73 50 -1,
			23 50 52 -1,
			24 52 48 -1,
			20 27 48 -1,
			21 20 54 -1,
			22 21 44 -1,
			19 22 45 -1,
			18 19 42 -1,
			8 18 41 -1,
			11 8 43 -1,
			10 11 46 -1,
			9 10 47 -1,
			17 9 55 -1,
			13 17 49 -1,
			12 13 53 -1,
			16 12 51 -1,
			101 102 136 -1,
			100 101 135 -1,
			107 100 134 -1,
			107 141 138 -1,
			104 138 137 -1,
			103 137 140 -1,
			106 140 139 -1,
			126 91 92 -1,
			92 105 139 -1,
			127 126 92 -1,
			91 126 129 -1,
			93 129 128 -1,
			95 128 131 -1,
			94 131 125 -1,
			90 125 130 -1,
			96 130 122 -1,
			88 122 123 -1,
			87 123 124 -1,
			89 124 120 -1,
			86 120 121 -1,
			97 121 117 -1,
			83 80 117 -1,
			85 83 115 -1,
			76 85 118 -1,
			74 76 110 -1,
			75 74 108 -1,
			77 75 109 -1,
			78 77 111 -1,
			79 78 112 -1,
			84 79 119 -1,
			82 84 116 -1,
			113 132 81 -1,
			132 98 81 -1,
			81 82 113 -1,
			99 98 132 -1,
			102 99 133 -1,
		]
		normal Normal { vector [
			0.060203 0.993105 -0.100587,
			0.060198 -0.993105 -0.100590,
			0.060187 0.993108 0.100571,
			0.060190 -0.993108 0.100566,
			-0.060198 0.993105 -0.100590,
			-0.060203 -0.993105 -0.100587,
			-0.060193 0.993107 0.100569,
			-0.060189 -0.993107 0.100575,
			0.057743 0.998264 0.011559,
			0.048861 0.997588 0.049307,
			0.053446 0.997922 0.035988,
			0.056241 0.998142 0.023455,
			0.016902 0.996122 0.086345,
			0.031190 0.996595 0.076331,
			-0.031189 0.996595 0.076329,
			-0.016903 0.996122 0.086347,
			0.000000 0.995928 0.090152,
			0.041730 0.997131 0.063149,
			0.058218 0.998304 -0.000000,
			0.057743 0.998265 -0.011559,
			0.048861 0.997588 -0.049307,
			0.053446 0.997922 -0.035988,
			0.056241 0.998142 -0.023455,
			0.016902 0.996122 -0.086346,
			0.031190 0.996594 -0.076332,
			-0.016902 0.996122 -0.086343,
			0.000000 0.995928 -0.090154,
			0.041729 0.997131 -0.063148,
			-0.041730 0.997131 -0.063149,
			-0.041729 0.997131 0.063147,
			-0.040224 0.996353 0.075253,
			-0.048859 0.997588 -0.049306,
			-0.048861 0.997588 0.049307,
			-0.058217 0.998304 -0.000000,
			-0.057744 0.998264 -0.011559,
			-0.057743 0.998264 0.011559,
			-0.056241 0.998142 -0.023456,
			-0.056241 0.998142 0.023455,
			-0.053445 0.997922 -0.035987,
			-0.053446 0.997922 0.035988,
			-0.031191 0.996594 -0.076332,
			0.058218 -0.998304 0.000000,
			0.057743 -0.998265 -0.011559,
			0.057743 -0.998264 0.011559,
			0.053446 -0.997922 -0.035988,
			0.056241 -0.998142 -0.023455,
			0.056241 -0.998142 0.023455,
			0.053445 -0.997922 0.035988,
			0.041729 -0.997131 -0.063149,
			0.041730 -0.997131 0.063149,
			0.016903 -0.996122 -0.086348,
			0.016902 -0.996122 0.086345,
			0.031190 -0.996595 -0.076330,
			0.031190 -0.996595 0.076332,
			0.048861 -0.997588 -0.049307,
			0.048861 -0.997588 0.049307,
			-0.016902 -0.996122 -0.086343,
			-0.016903 -0.996122 0.086347,
			-0.041730 -0.997131 -0.063149,
			-0.041728 -0.997132 0.063147,
			-0.040224 -0.996353 0.075253,
			-0.031191 -0.996595 -0.076332,
			-0.031189 -0.996595 0.076329,
			-0.058217 -0.998304 0.000000,
			-0.057744 -0.998264 -0.011559,
			-0.057743 -0.998264 0.011559,
			-0.053445 -0.997922 -0.035987,
			-0.056241 -0.998142 -0.023455,
			-0.056241 -0.998142 0.023455,
			-0.053446 -0.997922 0.035988,
			-0.048859 -0.997588 -0.049306,
			-0.048861 -0.997588 0.049307,
			-0.000000 -0.995928 0.090152,
			-0.000000 -0.995928 -0.090154,
			0.057744 0.998264 -0.011559,
			0.058217 0.998304 -0.000000,
			0.056241 0.998142 -0.023456,
			0.057743 0.998264 0.011559,
			0.056241 0.998142 0.023455,
			0.053446 0.997922 0.035988,
			0.041729 0.997131 -0.063149,
			0.040224 0.996353 0.075253,
			0.041728 0.997132 0.063147,
			0.048859 0.997588 -0.049306,
			0.048861 0.997588 0.049307,
			0.053445 0.997922 -0.035987,
			0.016902 0.996122 -0.086343,
			-0.016902 0.996122 -0.086346,
			-0.031189 0.996595 -0.076329,
			0.000000 0.995928 -0.090154,
			-0.048861 0.997588 -0.049307,
			-0.058216 0.998304 -0.000000,
			-0.060391 0.998157 0.005948,
			-0.057745 0.998264 -0.011559,
			-0.053445 0.997922 -0.035987,
			-0.056240 0.998142 -0.023455,
			-0.041730 0.997131 -0.063149,
			0.031191 0.996594 -0.076332,
			0.031189 0.996595 0.076329,
			0.016903 0.996122 0.086347,
			-0.031190 0.996595 0.076331,
			-0.016902 0.996122 0.086345,
			0.000000 0.995928 0.090152,
			-0.053445 0.997922 0.035988,
			-0.048861 0.997588 0.049307,
			-0.057743 0.998265 0.011559,
			-0.056241 0.998142 0.023455,
			-0.041730 0.997131 0.063149,
			0.057744 -0.998264 -0.011559,
			0.058217 -0.998304 0.000000,
			0.056241 -0.998142 -0.023455,
			0.057743 -0.998264 0.011559,
			0.056241 -0.998142 0.023455,
			0.040224 -0.996353 0.075253,
			0.041728 -0.997131 0.063147,
			0.048859 -0.997588 -0.049306,
			0.048861 -0.997588 0.049307,
			0.041730 -0.997131 -0.063149,
			0.053445 -0.997922 -0.035987,
			0.053446 -0.997922 0.035988,
			0.016902 -0.996122 -0.086342,
			0.031191 -0.996594 -0.076332,
			-0.031189 -0.996595 -0.076329,
			-0.016902 -0.996122 -0.086346,
			-0.000000 -0.995928 -0.090154,
			-0.048861 -0.997588 -0.049307,
			-0.058216 -0.998304 0.000000,
			-0.060391 -0.998157 0.005948,
			-0.056241 -0.998142 -0.023455,
			-0.057745 -0.998264 -0.011559,
			-0.041730 -0.997131 -0.063149,
			-0.053445 -0.997922 -0.035987,
			0.031189 -0.996595 0.076329,
			0.016903 -0.996122 0.086347,
			-0.031190 -0.996595 0.076331,
			-0.016902 -0.996122 0.086345,
			-0.000000 -0.995928 0.090152,
			-0.053446 -0.997922 0.035988,
			-0.048861 -0.997588 0.049307,
			-0.057743 -0.998265 0.011559,
			-0.056241 -0.998142 0.023455,
			-0.041729 -0.997131 0.063149,
		] }
		normalPerVertex TRUE
		solid TRUE
	}
	appearance Appearance {
		material Material {
			diffuseColor 0.0103 0.0103 0.0116
			transparency 0.0000
			shininess 0.5000
		}
	}
}

Shape # Material: m20-9990345_color_1.001
{
	geometry IndexedFaceSet {
		coord Coordinate { point [
			-4.870687 1.097257 2.132000,
			-4.970687 1.097257 2.232000,
			-4.689888 1.097257 2.512800,
			-4.970687 1.097257 3.048000,
			-4.689888 1.097257 2.767200,
			-4.870687 1.097257 3.148000,
			-4.254688 1.097257 3.148000,
			-4.435488 1.097257 2.767200,
			-4.154687 1.097257 3.048000,
			-4.154687 1.097257 2.232000,
			-4.435488 1.097257 2.512800,
			-4.254688 1.097257 2.132000,
			-5.070688 0.997257 2.332000,
			-5.070688 0.997257 2.948000,
			-5.070688 0.421257 2.948000,
			-4.870687 0.321257 3.148000,
			-4.970687 0.321257 3.048000,
			-4.254688 0.321257 3.148000,
			-4.254688 0.321257 2.948000,
			-4.870687 0.321257 2.132000,
			-4.870687 0.321257 2.332000,
			-4.254688 0.321257 2.132000,
			-4.254688 0.321257 2.332000,
			-4.870687 0.321257 2.948000,
			-4.970687 0.321257 2.232000,
			-4.689888 0.321257 2.767200,
			-4.435488 0.321257 2.767200,
			-4.435488 0.321257 2.512800,
			-4.689888 0.321257 2.512800,
			-4.154687 0.321257 2.232000,
			-4.154687 0.321257 3.048000,
			-5.070688 0.421257 2.332000,
			-4.054688 0.421257 2.948000,
			-4.054688 0.997257 2.948000,
			-4.054688 0.997257 2.332000,
			-4.054688 0.421257 2.332000,
			-4.512501 0.321257 2.767200,
			-4.435488 0.321257 2.589814,
			-4.512501 0.321257 2.512800,
			-4.689888 0.321257 2.589814,
			-3.854688 1.097257 2.132000,
			-3.954688 1.097257 2.232000,
			-3.673888 1.097257 2.512800,
			-3.954688 1.097257 3.048000,
			-3.673888 1.097257 2.767200,
			-3.854688 1.097257 3.148000,
			-3.238688 1.097257 3.148000,
			-3.419487 1.097257 2.767200,
			-3.138688 1.097257 3.048000,
			-3.138688 1.097257 2.232000,
			-3.419487 1.097257 2.512800,
			-3.238688 1.097257 2.132000,
			-4.054688 0.997257 2.332000,
			-4.054688 0.997257 2.948000,
			-4.054688 0.421257 2.948000,
			-3.854688 0.321257 3.148000,
			-3.954688 0.321257 3.048000,
			-3.238688 0.321257 3.148000,
			-3.238688 0.321257 2.948000,
			-3.854688 0.321257 2.132000,
			-3.854688 0.321257 2.332000,
			-3.238688 0.321257 2.132000,
			-3.238688 0.321257 2.332000,
			-3.854688 0.321257 2.948000,
			-3.954688 0.321257 2.232000,
			-3.673888 0.321257 2.767200,
			-3.419487 0.321257 2.767200,
			-3.419487 0.321257 2.512800,
			-3.673888 0.321257 2.512800,
			-3.138688 0.321257 2.232000,
			-3.138688 0.321257 3.048000,
			-4.054688 0.421257 2.332000,
			-3.038688 0.421257 2.948000,
			-3.038688 0.997257 2.948000,
			-3.038688 0.997257 2.332000,
			-3.038688 0.421257 2.332000,
			-3.496501 0.321257 2.767200,
			-3.419487 0.321257 2.589814,
			-3.496501 0.321257 2.512800,
			-3.673888 0.321257 2.589814,
			-2.838687 1.097257 2.132000,
			-2.938688 1.097257 2.232000,
			-2.657887 1.097257 2.512800,
			-2.938688 1.097257 3.048000,
			-2.657887 1.097257 2.767200,
			-2.838687 1.097257 3.148000,
			-2.222687 1.097257 3.148000,
			-2.403488 1.097257 2.767200,
			-2.122688 1.097257 3.048000,
			-2.122688 1.097257 2.232000,
			-2.403488 1.097257 2.512800,
			-2.222687 1.097257 2.132000,
			-3.038688 0.997257 2.332000,
			-3.038688 0.997257 2.948000,
			-3.038688 0.421257 2.948000,
			-2.838687 0.321257 3.148000,
			-2.938688 0.321257 3.048000,
			-2.222687 0.321257 3.148000,
			-2.222687 0.321257 2.948000,
			-2.838687 0.321257 2.132000,
			-2.838687 0.321257 2.332000,
			-2.222687 0.321257 2.132000,
			-2.222687 0.321257 2.332000,
			-2.838687 0.321257 2.948000,
			-2.938688 0.321257 2.232000,
			-2.657887 0.321257 2.767200,
			-2.403488 0.321257 2.767200,
			-2.403488 0.321257 2.512800,
			-2.657887 0.321257 2.512800,
			-2.122688 0.321257 2.232000,
			-2.122688 0.321257 3.048000,
			-3.038688 0.421257 2.332000,
			-2.022688 0.421257 2.948000,
			-2.022688 0.997257 2.948000,
			-2.022688 0.997257 2.332000,
			-2.022688 0.421257 2.332000,
			-2.480501 0.321257 2.767200,
			-2.403488 0.321257 2.589814,
			-2.480501 0.321257 2.512800,
			-2.657887 0.321257 2.589814,
			-1.822688 1.097257 2.132000,
			-1.922688 1.097257 2.232000,
			-1.641887 1.097257 2.512800,
			-1.922688 1.097257 3.048000,
			-1.641887 1.097257 2.767200,
			-1.822688 1.097257 3.148000,
			-1.206687 1.097257 3.148000,
			-1.387488 1.097257 2.767200,
			-1.106687 1.097257 3.048000,
			-1.106687 1.097257 2.232000,
			-1.387488 1.097257 2.512800,
			-1.206687 1.097257 2.132000,
			-2.022688 0.997257 2.332000,
			-2.022688 0.997257 2.948000,
			-2.022688 0.421257 2.948000,
			-1.822688 0.321257 3.148000,
			-1.922688 0.321257 3.048000,
			-1.206687 0.321257 3.148000,
			-1.206687 0.321257 2.948000,
			-1.822688 0.321257 2.132000,
			-1.822688 0.321257 2.332000,
			-1.206687 0.321257 2.132000,
			-1.206687 0.321257 2.332000,
			-1.822688 0.321257 2.948000,
			-1.922688 0.321257 2.232000,
			-1.641887 0.321257 2.767200,
			-1.387488 0.321257 2.767200,
			-1.387488 0.321257 2.512800,
			-1.641887 0.321257 2.512800,
			-1.106687 0.321257 2.232000,
			-1.106687 0.321257 3.048000,
			-2.022688 0.421257 2.332000,
			-1.006687 0.421257 2.948000,
			-1.006687 0.997257 2.948000,
			-1.006687 0.997257 2.332000,
			-1.006687 0.421257 2.332000,
			-1.464501 0.321257 2.767200,
			-1.387488 0.321257 2.589814,
			-1.464501 0.321257 2.512800,
			-1.641887 0.321257 2.589814,
			-0.806688 1.097257 2.132000,
			-0.906687 1.097257 2.232000,
			-0.625888 1.097257 2.512800,
			-0.906687 1.097257 3.048000,
			-0.625888 1.097257 2.767200,
			-0.806688 1.097257 3.148000,
			-0.190688 1.097257 3.148000,
			-0.371488 1.097257 2.767200,
			-0.090688 1.097257 3.048000,
			-0.090688 1.097257 2.232000,
			-0.371488 1.097257 2.512800,
			-0.190688 1.097257 2.132000,
			-1.006687 0.997257 2.332000,
			-1.006687 0.997257 2.948000,
			-1.006687 0.421257 2.948000,
			-0.806688 0.321257 3.148000,
			-0.906687 0.321257 3.048000,
			-0.190688 0.321257 3.148000,
			-0.190688 0.321257 2.948000,
			-0.806688 0.321257 2.132000,
			-0.806688 0.321257 2.332000,
			-0.190688 0.321257 2.132000,
			-0.190688 0.321257 2.332000,
			-0.806688 0.321257 2.948000,
			-0.906687 0.321257 2.232000,
			-0.625888 0.321257 2.767200,
			-0.371488 0.321257 2.767200,
			-0.371488 0.321257 2.512800,
			-0.625888 0.321257 2.512800,
			-0.090688 0.321257 2.232000,
			-0.090688 0.321257 3.048000,
			-1.006687 0.421257 2.332000,
			0.009312 0.421257 2.948000,
			0.009312 0.997257 2.948000,
			0.009312 0.997257 2.332000,
			0.009312 0.421257 2.332000,
			-0.448501 0.321257 2.767200,
			-0.371488 0.321257 2.589814,
			-0.448501 0.321257 2.512800,
			-0.625888 0.321257 2.589814,
			0.209312 1.097257 2.132000,
			0.109312 1.097257 2.232000,
			0.390112 1.097257 2.512800,
			0.109312 1.097257 3.048000,
			0.390112 1.097257 2.767200,
			0.209312 1.097257 3.148000,
			0.825313 1.097257 3.148000,
			0.644512 1.097257 2.767200,
			0.925313 1.097257 3.048000,
			0.925313 1.097257 2.232000,
			0.644512 1.097257 2.512800,
			0.825313 1.097257 2.132000,
			0.009312 0.997257 2.332000,
			0.009312 0.997257 2.948000,
			0.009312 0.421257 2.948000,
			0.209312 0.321257 3.148000,
			0.109312 0.321257 3.048000,
			0.825313 0.321257 3.148000,
			0.825313 0.321257 2.948000,
			0.209312 0.321257 2.132000,
			0.209312 0.321257 2.332000,
			0.825313 0.321257 2.132000,
			0.825313 0.321257 2.332000,
			0.209312 0.321257 2.948000,
			0.109312 0.321257 2.232000,
			0.390112 0.321257 2.767200,
			0.644512 0.321257 2.767200,
			0.644512 0.321257 2.512800,
			0.390112 0.321257 2.512800,
			0.925313 0.321257 2.232000,
			0.925313 0.321257 3.048000,
			0.009312 0.421257 2.332000,
			1.025312 0.421257 2.948000,
			1.025312 0.997257 2.948000,
			1.025312 0.997257 2.332000,
			1.025312 0.421257 2.332000,
			0.567499 0.321257 2.767200,
			0.644512 0.321257 2.589814,
			0.567499 0.321257 2.512800,
			0.390112 0.321257 2.589814,
			1.225312 1.097257 2.132000,
			1.125313 1.097257 2.232000,
			1.406113 1.097257 2.512800,
			1.125313 1.097257 3.048000,
			1.406113 1.097257 2.767200,
			1.225312 1.097257 3.148000,
			1.841312 1.097257 3.148000,
			1.660512 1.097257 2.767200,
			1.941312 1.097257 3.048000,
			1.941312 1.097257 2.232000,
			1.660512 1.097257 2.512800,
			1.841312 1.097257 2.132000,
			1.025312 0.997257 2.332000,
			1.025312 0.997257 2.948000,
			1.025312 0.421257 2.948000,
			1.225312 0.321257 3.148000,
			1.125313 0.321257 3.048000,
			1.841312 0.321257 3.148000,
			1.841312 0.321257 2.948000,
			1.225312 0.321257 2.132000,
			1.225312 0.321257 2.332000,
			1.841312 0.321257 2.132000,
			1.841312 0.321257 2.332000,
			1.225312 0.321257 2.948000,
			1.125313 0.321257 2.232000,
			1.406113 0.321257 2.767200,
			1.660512 0.321257 2.767200,
			1.660512 0.321257 2.512800,
			1.406113 0.321257 2.512800,
			1.941312 0.321257 2.232000,
			1.941312 0.321257 3.048000,
			1.025312 0.421257 2.332000,
			2.041312 0.421257 2.948000,
			2.041312 0.997257 2.948000,
			2.041312 0.997257 2.332000,
			2.041312 0.421257 2.332000,
			1.583499 0.321257 2.767200,
			1.660512 0.321257 2.589814,
			1.583499 0.321257 2.512800,
			1.406113 0.321257 2.589814,
			2.241312 1.097257 2.132000,
			2.141312 1.097257 2.232000,
			2.422112 1.097257 2.512800,
			2.141312 1.097257 3.048000,
			2.422112 1.097257 2.767200,
			2.241312 1.097257 3.148000,
			2.857312 1.097257 3.148000,
			2.676512 1.097257 2.767200,
			2.957312 1.097257 3.048000,
			2.957312 1.097257 2.232000,
			2.676512 1.097257 2.512800,
			2.857312 1.097257 2.132000,
			2.041312 0.997257 2.332000,
			2.041312 0.997257 2.948000,
			2.041312 0.421257 2.948000,
			2.241312 0.321257 3.148000,
			2.141312 0.321257 3.048000,
			2.857312 0.321257 3.148000,
			2.857312 0.321257 2.948000,
			2.241312 0.321257 2.132000,
			2.241312 0.321257 2.332000,
			2.857312 0.321257 2.132000,
			2.857312 0.321257 2.332000,
			2.241312 0.321257 2.948000,
			2.141312 0.321257 2.232000,
			2.422112 0.321257 2.767200,
			2.676512 0.321257 2.767200,
			2.676512 0.321257 2.512800,
			2.422112 0.321257 2.512800,
			2.957312 0.321257 2.232000,
			2.957312 0.321257 3.048000,
			2.041312 0.421257 2.332000,
			3.057312 0.421257 2.948000,
			3.057312 0.997257 2.948000,
			3.057312 0.997257 2.332000,
			3.057312 0.421257 2.332000,
			2.599499 0.321257 2.767200,
			2.676512 0.321257 2.589814,
			2.599499 0.321257 2.512800,
			2.422112 0.321257 2.589814,
			3.257313 1.097257 2.132000,
			3.157312 1.097257 2.232000,
			3.438112 1.097257 2.512800,
			3.157312 1.097257 3.048000,
			3.438112 1.097257 2.767200,
			3.257313 1.097257 3.148000,
			3.873312 1.097257 3.148000,
			3.692512 1.097257 2.767200,
			3.973312 1.097257 3.048000,
			3.973312 1.097257 2.232000,
			3.692512 1.097257 2.512800,
			3.873312 1.097257 2.132000,
			3.057312 0.997257 2.332000,
			3.057312 0.997257 2.948000,
			3.057312 0.421257 2.948000,
			3.257313 0.321257 3.148000,
			3.157312 0.321257 3.048000,
			3.873312 0.321257 3.148000,
			3.873312 0.321257 2.948000,
			3.257313 0.321257 2.132000,
			3.257313 0.321257 2.332000,
			3.873312 0.321257 2.132000,
			3.873312 0.321257 2.332000,
			3.257313 0.321257 2.948000,
			3.157312 0.321257 2.232000,
			3.438112 0.321257 2.767200,
			3.692512 0.321257 2.767200,
			3.692512 0.321257 2.512800,
			3.438112 0.321257 2.512800,
			3.973312 0.321257 2.232000,
			3.973312 0.321257 3.048000,
			3.057312 0.421257 2.332000,
			4.073312 0.421257 2.948000,
			4.073312 0.997257 2.948000,
			4.073312 0.997257 2.332000,
			4.073312 0.421257 2.332000,
			3.615499 0.321257 2.767200,
			3.692512 0.321257 2.589814,
			3.615499 0.321257 2.512800,
			3.438112 0.321257 2.589814,
			4.273313 1.097257 2.132000,
			4.173313 1.097257 2.232000,
			4.454113 1.097257 2.512800,
			4.173313 1.097257 3.048000,
			4.454113 1.097257 2.767200,
			4.273313 1.097257 3.148000,
			4.889312 1.097257 3.148000,
			4.708513 1.097257 2.767200,
			4.989313 1.097257 3.048000,
			4.989313 1.097257 2.232000,
			4.708513 1.097257 2.512800,
			4.889312 1.097257 2.132000,
			4.073313 0.997257 2.332000,
			4.073313 0.997257 2.948000,
			4.073313 0.421257 2.948000,
			4.273313 0.321257 3.148000,
			4.173313 0.321257 3.048000,
			4.889312 0.321257 3.148000,
			4.889312 0.321257 2.948000,
			4.273313 0.321257 2.132000,
			4.273313 0.321257 2.332000,
			4.889312 0.321257 2.132000,
			4.889312 0.321257 2.332000,
			4.273313 0.321257 2.948000,
			4.173313 0.321257 2.232000,
			4.454113 0.321257 2.767200,
			4.708513 0.321257 2.767200,
			4.708513 0.321257 2.512800,
			4.454113 0.321257 2.512800,
			4.989313 0.321257 2.232000,
			4.989313 0.321257 3.048000,
			4.073313 0.421257 2.332000,
			5.089313 0.421257 2.948000,
			5.089313 0.997257 2.948000,
			5.089313 0.997257 2.332000,
			5.089313 0.421257 2.332000,
			4.631500 0.321257 2.767200,
			4.708513 0.321257 2.589814,
			4.631500 0.321257 2.512800,
			4.454113 0.321257 2.589814,
		] }
		coordIndex [
			0 1 2 -1,
			2 1 3 -1,
			4 3 5 -1,
			4 5 6 -1,
			8 7 6 -1,
			9 7 8 -1,
			11 10 9 -1,
			11 0 2 -1,
			12 13 1 -1,
			1 13 3 -1,
			3 13 5 -1,
			5 13 14 -1,
			5 14 15 -1,
			15 14 16 -1,
			17 6 15 -1,
			15 6 5 -1,
			21 19 11 -1,
			11 19 0 -1,
			15 16 23 -1,
			23 16 24 -1,
			23 24 20 -1,
			20 24 19 -1,
			18 36 26 -1,
			37 18 26 -1,
			22 18 27 -1,
			38 22 27 -1,
			22 28 20 -1,
			39 20 28 -1,
			25 23 20 -1,
			25 18 23 -1,
			21 29 22 -1,
			22 29 30 -1,
			22 30 18 -1,
			18 30 17 -1,
			14 31 16 -1,
			16 31 24 -1,
			31 13 12 -1,
			24 31 19 -1,
			19 31 12 -1,
			19 12 0 -1,
			0 12 1 -1,
			30 32 17 -1,
			17 32 33 -1,
			17 33 6 -1,
			6 33 8 -1,
			9 8 34 -1,
			34 8 33 -1,
			29 21 35 -1,
			35 21 11 -1,
			35 11 34 -1,
			34 11 9 -1,
			35 32 29 -1,
			29 32 30 -1,
			32 35 33 -1,
			33 35 34 -1,
			19 22 20 -1,
			17 23 18 -1,
			3 4 2 -1,
			6 7 4 -1,
			22 7 9 -1,
			11 2 10 -1,
			29 10 9 -1,
			9 10 7 -1,
			40 41 42 -1,
			42 41 43 -1,
			44 43 45 -1,
			44 45 46 -1,
			48 47 46 -1,
			49 47 48 -1,
			51 50 49 -1,
			51 40 42 -1,
			52 53 41 -1,
			41 53 43 -1,
			43 53 45 -1,
			45 53 54 -1,
			45 54 55 -1,
			55 54 56 -1,
			57 46 55 -1,
			55 46 45 -1,
			61 59 51 -1,
			51 59 40 -1,
			55 56 63 -1,
			63 56 64 -1,
			63 64 60 -1,
			60 64 59 -1,
			58 76 66 -1,
			77 58 66 -1,
			62 58 67 -1,
			78 62 67 -1,
			62 68 60 -1,
			79 60 68 -1,
			65 63 60 -1,
			65 58 63 -1,
			61 69 62 -1,
			62 69 70 -1,
			62 70 58 -1,
			58 70 57 -1,
			54 71 56 -1,
			56 71 64 -1,
			71 53 52 -1,
			64 71 59 -1,
			59 71 52 -1,
			59 52 40 -1,
			40 52 41 -1,
			70 72 57 -1,
			57 72 73 -1,
			57 73 46 -1,
			46 73 48 -1,
			49 48 74 -1,
			74 48 73 -1,
			69 61 75 -1,
			75 61 51 -1,
			75 51 74 -1,
			74 51 49 -1,
			75 72 69 -1,
			69 72 70 -1,
			72 75 73 -1,
			73 75 74 -1,
			59 62 60 -1,
			57 63 58 -1,
			43 44 42 -1,
			46 47 44 -1,
			62 49 47 -1,
			51 42 50 -1,
			69 50 49 -1,
			49 50 47 -1,
			80 81 82 -1,
			82 81 83 -1,
			84 83 85 -1,
			84 85 86 -1,
			88 87 86 -1,
			89 87 88 -1,
			91 90 89 -1,
			91 80 82 -1,
			92 93 81 -1,
			81 93 83 -1,
			83 93 85 -1,
			85 93 94 -1,
			85 94 95 -1,
			95 94 96 -1,
			97 86 95 -1,
			95 86 85 -1,
			101 99 91 -1,
			91 99 80 -1,
			95 96 103 -1,
			103 96 104 -1,
			103 104 100 -1,
			100 104 99 -1,
			98 116 106 -1,
			117 98 106 -1,
			102 98 107 -1,
			118 102 107 -1,
			102 108 100 -1,
			119 100 108 -1,
			105 103 100 -1,
			105 98 103 -1,
			101 109 102 -1,
			102 109 110 -1,
			102 110 98 -1,
			98 110 97 -1,
			94 111 96 -1,
			96 111 104 -1,
			111 93 92 -1,
			104 111 99 -1,
			99 111 92 -1,
			99 92 80 -1,
			80 92 81 -1,
			110 112 97 -1,
			97 112 113 -1,
			97 113 86 -1,
			86 113 88 -1,
			89 88 114 -1,
			114 88 113 -1,
			109 101 115 -1,
			115 101 91 -1,
			115 91 114 -1,
			114 91 89 -1,
			115 112 109 -1,
			109 112 110 -1,
			112 115 113 -1,
			113 115 114 -1,
			99 102 100 -1,
			97 103 98 -1,
			83 84 82 -1,
			86 87 84 -1,
			102 89 87 -1,
			91 82 90 -1,
			109 90 89 -1,
			89 90 87 -1,
			120 121 122 -1,
			122 121 123 -1,
			124 123 125 -1,
			124 125 126 -1,
			128 127 126 -1,
			129 127 128 -1,
			131 130 129 -1,
			131 120 122 -1,
			132 133 121 -1,
			121 133 123 -1,
			123 133 125 -1,
			125 133 134 -1,
			125 134 135 -1,
			135 134 136 -1,
			137 126 135 -1,
			135 126 125 -1,
			141 139 131 -1,
			131 139 120 -1,
			135 136 143 -1,
			143 136 144 -1,
			143 144 140 -1,
			140 144 139 -1,
			138 156 146 -1,
			157 138 146 -1,
			142 138 147 -1,
			158 142 147 -1,
			142 148 140 -1,
			159 140 148 -1,
			145 143 140 -1,
			145 138 143 -1,
			141 149 142 -1,
			142 149 150 -1,
			142 150 138 -1,
			138 150 137 -1,
			134 151 136 -1,
			136 151 144 -1,
			151 133 132 -1,
			144 151 139 -1,
			139 151 132 -1,
			139 132 120 -1,
			120 132 121 -1,
			150 152 137 -1,
			137 152 153 -1,
			137 153 126 -1,
			126 153 128 -1,
			129 128 154 -1,
			154 128 153 -1,
			149 141 155 -1,
			155 141 131 -1,
			155 131 154 -1,
			154 131 129 -1,
			155 152 149 -1,
			149 152 150 -1,
			152 155 153 -1,
			153 155 154 -1,
			139 142 140 -1,
			137 143 138 -1,
			123 124 122 -1,
			126 127 124 -1,
			142 127 129 -1,
			131 122 130 -1,
			149 130 129 -1,
			129 130 127 -1,
			160 161 162 -1,
			162 161 163 -1,
			164 163 165 -1,
			164 165 166 -1,
			168 167 166 -1,
			169 167 168 -1,
			171 170 169 -1,
			171 160 162 -1,
			172 173 161 -1,
			161 173 163 -1,
			163 173 165 -1,
			165 173 174 -1,
			165 174 175 -1,
			175 174 176 -1,
			177 166 175 -1,
			175 166 165 -1,
			181 179 171 -1,
			171 179 160 -1,
			175 176 183 -1,
			183 176 184 -1,
			183 184 180 -1,
			180 184 179 -1,
			178 196 186 -1,
			197 178 186 -1,
			182 178 187 -1,
			198 182 187 -1,
			182 188 180 -1,
			199 180 188 -1,
			185 183 180 -1,
			185 178 183 -1,
			181 189 182 -1,
			182 189 190 -1,
			182 190 178 -1,
			178 190 177 -1,
			174 191 176 -1,
			176 191 184 -1,
			191 173 172 -1,
			184 191 179 -1,
			179 191 172 -1,
			179 172 160 -1,
			160 172 161 -1,
			190 192 177 -1,
			177 192 193 -1,
			177 193 166 -1,
			166 193 168 -1,
			169 168 194 -1,
			194 168 193 -1,
			189 181 195 -1,
			195 181 171 -1,
			195 171 194 -1,
			194 171 169 -1,
			195 192 189 -1,
			189 192 190 -1,
			192 195 193 -1,
			193 195 194 -1,
			179 182 180 -1,
			177 183 178 -1,
			163 164 162 -1,
			166 167 164 -1,
			182 167 169 -1,
			171 162 170 -1,
			189 170 169 -1,
			169 170 167 -1,
			200 201 202 -1,
			202 201 203 -1,
			204 203 205 -1,
			204 205 206 -1,
			208 207 206 -1,
			209 207 208 -1,
			211 210 209 -1,
			211 200 202 -1,
			212 213 201 -1,
			201 213 203 -1,
			203 213 205 -1,
			205 213 214 -1,
			205 214 215 -1,
			215 214 216 -1,
			217 206 215 -1,
			215 206 205 -1,
			221 219 211 -1,
			211 219 200 -1,
			215 216 223 -1,
			223 216 224 -1,
			223 224 220 -1,
			220 224 219 -1,
			218 236 226 -1,
			237 218 226 -1,
			222 218 227 -1,
			238 222 227 -1,
			222 228 220 -1,
			239 220 228 -1,
			225 223 220 -1,
			225 218 223 -1,
			221 229 222 -1,
			222 229 230 -1,
			222 230 218 -1,
			218 230 217 -1,
			214 231 216 -1,
			216 231 224 -1,
			231 213 212 -1,
			224 231 219 -1,
			219 231 212 -1,
			219 212 200 -1,
			200 212 201 -1,
			230 232 217 -1,
			217 232 233 -1,
			217 233 206 -1,
			206 233 208 -1,
			209 208 234 -1,
			234 208 233 -1,
			229 221 235 -1,
			235 221 211 -1,
			235 211 234 -1,
			234 211 209 -1,
			235 232 229 -1,
			229 232 230 -1,
			232 235 233 -1,
			233 235 234 -1,
			219 222 220 -1,
			217 223 218 -1,
			203 204 202 -1,
			206 207 204 -1,
			222 209 207 -1,
			211 202 210 -1,
			229 210 209 -1,
			209 210 207 -1,
			240 241 242 -1,
			242 241 243 -1,
			244 243 245 -1,
			244 245 246 -1,
			248 247 246 -1,
			249 247 248 -1,
			251 250 249 -1,
			251 240 242 -1,
			252 253 241 -1,
			241 253 243 -1,
			243 253 245 -1,
			245 253 254 -1,
			245 254 255 -1,
			255 254 256 -1,
			257 246 255 -1,
			255 246 245 -1,
			261 259 251 -1,
			251 259 240 -1,
			255 256 263 -1,
			263 256 264 -1,
			263 264 260 -1,
			260 264 259 -1,
			258 276 266 -1,
			277 258 266 -1,
			262 258 267 -1,
			278 262 267 -1,
			262 268 260 -1,
			279 260 268 -1,
			265 263 260 -1,
			265 258 263 -1,
			261 269 262 -1,
			262 269 270 -1,
			262 270 258 -1,
			258 270 257 -1,
			254 271 256 -1,
			256 271 264 -1,
			271 253 252 -1,
			264 271 259 -1,
			259 271 252 -1,
			259 252 240 -1,
			240 252 241 -1,
			270 272 257 -1,
			257 272 273 -1,
			257 273 246 -1,
			246 273 248 -1,
			249 248 274 -1,
			274 248 273 -1,
			269 261 275 -1,
			275 261 251 -1,
			275 251 274 -1,
			274 251 249 -1,
			275 272 269 -1,
			269 272 270 -1,
			272 275 273 -1,
			273 275 274 -1,
			259 262 260 -1,
			257 263 258 -1,
			243 244 242 -1,
			246 247 244 -1,
			262 247 249 -1,
			251 242 250 -1,
			269 250 249 -1,
			249 250 247 -1,
			280 281 282 -1,
			282 281 283 -1,
			284 283 285 -1,
			284 285 286 -1,
			288 287 286 -1,
			289 287 288 -1,
			291 290 289 -1,
			291 280 282 -1,
			292 293 281 -1,
			281 293 283 -1,
			283 293 285 -1,
			285 293 294 -1,
			285 294 295 -1,
			295 294 296 -1,
			297 286 295 -1,
			295 286 285 -1,
			301 299 291 -1,
			291 299 280 -1,
			295 296 303 -1,
			303 296 304 -1,
			303 304 300 -1,
			300 304 299 -1,
			298 316 306 -1,
			317 298 306 -1,
			302 298 307 -1,
			318 302 307 -1,
			302 308 300 -1,
			319 300 308 -1,
			305 303 300 -1,
			305 298 303 -1,
			301 309 302 -1,
			302 309 310 -1,
			302 310 298 -1,
			298 310 297 -1,
			294 311 296 -1,
			296 311 304 -1,
			311 293 292 -1,
			304 311 299 -1,
			299 311 292 -1,
			299 292 280 -1,
			280 292 281 -1,
			310 312 297 -1,
			297 312 313 -1,
			297 313 286 -1,
			286 313 288 -1,
			289 288 314 -1,
			314 288 313 -1,
			309 301 315 -1,
			315 301 291 -1,
			315 291 314 -1,
			314 291 289 -1,
			315 312 309 -1,
			309 312 310 -1,
			312 315 313 -1,
			313 315 314 -1,
			299 302 300 -1,
			297 303 298 -1,
			283 284 282 -1,
			286 287 284 -1,
			302 287 289 -1,
			291 282 290 -1,
			309 290 289 -1,
			289 290 287 -1,
			320 321 322 -1,
			322 321 323 -1,
			324 323 325 -1,
			324 325 326 -1,
			328 327 326 -1,
			329 327 328 -1,
			331 330 329 -1,
			331 320 322 -1,
			332 333 321 -1,
			321 333 323 -1,
			323 333 325 -1,
			325 333 334 -1,
			325 334 335 -1,
			335 334 336 -1,
			337 326 335 -1,
			335 326 325 -1,
			341 339 331 -1,
			331 339 320 -1,
			335 336 343 -1,
			343 336 344 -1,
			343 344 340 -1,
			340 344 339 -1,
			338 356 346 -1,
			357 338 346 -1,
			342 338 347 -1,
			358 342 347 -1,
			342 348 340 -1,
			359 340 348 -1,
			345 343 340 -1,
			345 338 343 -1,
			341 349 342 -1,
			342 349 350 -1,
			342 350 338 -1,
			338 350 337 -1,
			334 351 336 -1,
			336 351 344 -1,
			351 333 332 -1,
			344 351 339 -1,
			339 351 332 -1,
			339 332 320 -1,
			320 332 321 -1,
			350 352 337 -1,
			337 352 353 -1,
			337 353 326 -1,
			326 353 328 -1,
			329 328 354 -1,
			354 328 353 -1,
			349 341 355 -1,
			355 341 331 -1,
			355 331 354 -1,
			354 331 329 -1,
			355 352 349 -1,
			349 352 350 -1,
			352 355 353 -1,
			353 355 354 -1,
			339 342 340 -1,
			337 343 338 -1,
			323 324 322 -1,
			326 327 324 -1,
			342 329 327 -1,
			331 322 330 -1,
			349 330 329 -1,
			329 330 327 -1,
			360 361 362 -1,
			362 361 363 -1,
			364 363 365 -1,
			364 365 366 -1,
			368 367 366 -1,
			369 367 368 -1,
			371 370 369 -1,
			371 360 362 -1,
			372 373 361 -1,
			361 373 363 -1,
			363 373 365 -1,
			365 373 374 -1,
			365 374 375 -1,
			375 374 376 -1,
			377 366 375 -1,
			375 366 365 -1,
			381 379 371 -1,
			371 379 360 -1,
			375 376 383 -1,
			383 376 384 -1,
			383 384 380 -1,
			380 384 379 -1,
			378 396 386 -1,
			397 378 386 -1,
			382 378 387 -1,
			398 382 387 -1,
			382 388 380 -1,
			399 380 388 -1,
			385 383 380 -1,
			385 378 383 -1,
			381 389 382 -1,
			382 389 390 -1,
			382 390 378 -1,
			378 390 377 -1,
			374 391 376 -1,
			376 391 384 -1,
			391 373 372 -1,
			384 391 379 -1,
			379 391 372 -1,
			379 372 360 -1,
			360 372 361 -1,
			390 392 377 -1,
			377 392 393 -1,
			377 393 366 -1,
			366 393 368 -1,
			369 368 394 -1,
			394 368 393 -1,
			389 381 395 -1,
			395 381 371 -1,
			395 371 394 -1,
			394 371 369 -1,
			395 392 389 -1,
			389 392 390 -1,
			392 395 393 -1,
			393 395 394 -1,
			379 382 380 -1,
			377 383 378 -1,
			363 364 362 -1,
			366 367 364 -1,
			382 367 369 -1,
			371 362 370 -1,
			389 370 369 -1,
			369 370 367 -1,
			18 25 36 -1,
			37 27 18 -1,
			38 28 22 -1,
			39 25 20 -1,
			31 14 13 -1,
			19 21 22 -1,
			17 15 23 -1,
			29 9 7 -1,
			58 65 76 -1,
			77 67 58 -1,
			78 68 62 -1,
			79 65 60 -1,
			71 54 53 -1,
			59 61 62 -1,
			57 55 63 -1,
			69 49 47 -1,
			98 105 116 -1,
			117 107 98 -1,
			118 108 102 -1,
			119 105 100 -1,
			111 94 93 -1,
			99 101 102 -1,
			97 95 103 -1,
			109 89 87 -1,
			138 145 156 -1,
			157 147 138 -1,
			158 148 142 -1,
			159 145 140 -1,
			151 134 133 -1,
			139 141 142 -1,
			137 135 143 -1,
			149 129 127 -1,
			178 185 196 -1,
			197 187 178 -1,
			198 188 182 -1,
			199 185 180 -1,
			191 174 173 -1,
			179 181 182 -1,
			177 175 183 -1,
			189 169 167 -1,
			218 225 236 -1,
			237 227 218 -1,
			238 228 222 -1,
			239 225 220 -1,
			231 214 213 -1,
			219 221 222 -1,
			217 215 223 -1,
			229 209 207 -1,
			258 265 276 -1,
			277 267 258 -1,
			278 268 262 -1,
			279 265 260 -1,
			271 254 253 -1,
			259 261 262 -1,
			257 255 263 -1,
			269 249 247 -1,
			298 305 316 -1,
			317 307 298 -1,
			318 308 302 -1,
			319 305 300 -1,
			311 294 293 -1,
			299 301 302 -1,
			297 295 303 -1,
			309 289 287 -1,
			338 345 356 -1,
			357 347 338 -1,
			358 348 342 -1,
			359 345 340 -1,
			351 334 333 -1,
			339 341 342 -1,
			337 335 343 -1,
			349 329 327 -1,
			378 385 396 -1,
			397 387 378 -1,
			398 388 382 -1,
			399 385 380 -1,
			391 374 373 -1,
			379 381 382 -1,
			377 375 383 -1,
			389 369 367 -1,
		]
		normal Normal { vector [
			-0.297102 0.630259 -0.717289,
			-0.573236 0.705972 -0.415937,
			0.000000 1.000000 -0.000000,
			-0.573246 0.705961 0.415943,
			0.000000 1.000000 -0.000000,
			-0.297109 0.630253 0.717292,
			0.297095 0.630260 0.717291,
			-0.021690 0.999700 -0.011380,
			0.573236 0.705972 0.415937,
			0.337813 0.697430 -0.632039,
			-0.160429 0.973923 -0.160429,
			0.297102 0.630254 -0.717294,
			-0.905411 0.300194 -0.300191,
			-0.905413 0.300189 0.300189,
			-0.905411 -0.300194 0.300191,
			-0.297092 -0.630272 0.717282,
			-0.573236 -0.705972 0.415937,
			0.297106 -0.630260 0.717286,
			0.000000 -1.000000 0.000000,
			-0.297103 -0.630253 -0.717295,
			0.000000 -1.000000 0.000000,
			0.297095 -0.630280 -0.717274,
			-0.100647 -0.993520 -0.052806,
			0.000000 -1.000000 0.000000,
			-0.573241 -0.705967 -0.415939,
			0.000000 -1.000000 0.000000,
			0.000000 -1.000000 0.000000,
			0.000000 -1.000000 0.000000,
			0.000000 -1.000000 0.000000,
			0.609130 -0.680630 -0.407068,
			0.573241 -0.705967 0.415939,
			-0.905413 -0.300189 -0.300189,
			0.905410 -0.300194 0.300194,
			0.905414 0.300190 0.300187,
			0.905410 0.300194 -0.300194,
			0.905414 -0.300190 -0.300187,
			0.000000 -1.000000 0.000000,
			0.000000 -1.000000 0.000000,
			0.000000 -1.000000 0.000000,
			0.000000 -1.000000 0.000000,
			-0.297102 0.630259 -0.717289,
			-0.573236 0.705972 -0.415937,
			0.000000 1.000000 -0.000000,
			-0.573246 0.705961 0.415943,
			0.000000 1.000000 -0.000000,
			-0.297109 0.630253 0.717292,
			0.297095 0.630260 0.717291,
			0.339795 0.923448 0.178278,
			0.573236 0.705972 0.415937,
			0.767528 0.570201 -0.292867,
			-0.160429 0.973922 -0.160429,
			0.297102 0.630254 -0.717294,
			-0.905411 0.300194 -0.300191,
			-0.905413 0.300189 0.300189,
			-0.905411 -0.300194 0.300191,
			-0.297092 -0.630272 0.717282,
			-0.573236 -0.705972 0.415937,
			0.297106 -0.630260 0.717286,
			0.000000 -1.000000 0.000000,
			-0.297103 -0.630253 -0.717295,
			0.000000 -1.000000 0.000000,
			0.297095 -0.630280 -0.717274,
			0.099429 -0.993676 0.052167,
			0.000000 -1.000000 0.000000,
			-0.573241 -0.705967 -0.415939,
			0.000000 -1.000000 0.000000,
			0.000000 -1.000000 0.000000,
			0.000000 -1.000000 0.000000,
			0.000000 -1.000000 0.000000,
			0.609130 -0.680630 -0.407068,
			0.573241 -0.705967 0.415939,
			-0.905413 -0.300189 -0.300189,
			0.905410 -0.300194 0.300194,
			0.905414 0.300190 0.300187,
			0.905410 0.300194 -0.300194,
			0.905414 -0.300190 -0.300187,
			0.000000 -1.000000 0.000000,
			0.000000 -1.000000 0.000000,
			0.000000 -1.000000 0.000000,
			0.000000 -1.000000 0.000000,
			-0.297102 0.630259 -0.717289,
			-0.573236 0.705972 -0.415937,
			0.000000 1.000000 -0.000000,
			-0.573246 0.705961 0.415943,
			0.000000 1.000000 -0.000000,
			-0.297109 0.630253 0.717292,
			0.297095 0.630260 0.717291,
			0.339795 0.923448 0.178278,
			0.573236 0.705972 0.415937,
			0.767528 0.570201 -0.292867,
			-0.160429 0.973922 -0.160429,
			0.297102 0.630254 -0.717294,
			-0.905411 0.300194 -0.300191,
			-0.905413 0.300189 0.300189,
			-0.905411 -0.300194 0.300191,
			-0.297092 -0.630272 0.717282,
			-0.573236 -0.705972 0.415937,
			0.297106 -0.630260 0.717286,
			0.000000 -1.000000 0.000000,
			-0.297103 -0.630253 -0.717295,
			0.000000 -1.000000 0.000000,
			0.297095 -0.630280 -0.717274,
			0.099429 -0.993676 0.052167,
			0.000000 -1.000000 0.000000,
			-0.573241 -0.705967 -0.415939,
			0.000000 -1.000000 0.000000,
			0.000000 -1.000000 0.000000,
			0.000000 -1.000000 0.000000,
			0.000000 -1.000000 0.000000,
			0.609130 -0.680630 -0.407068,
			0.573241 -0.705967 0.415939,
			-0.905413 -0.300189 -0.300189,
			0.905410 -0.300194 0.300194,
			0.905414 0.300190 0.300187,
			0.905410 0.300194 -0.300194,
			0.905414 -0.300190 -0.300187,
			0.000000 -1.000000 0.000000,
			0.000000 -1.000000 0.000000,
			0.000000 -1.000000 0.000000,
			0.000000 -1.000000 0.000000,
			-0.297102 0.630259 -0.717289,
			-0.573236 0.705972 -0.415937,
			0.000000 1.000000 -0.000000,
			-0.573246 0.705961 0.415943,
			0.000000 1.000000 -0.000000,
			-0.297109 0.630253 0.717292,
			0.297095 0.630260 0.717291,
			-0.021690 0.999700 -0.011380,
			0.573236 0.705972 0.415937,
			0.337813 0.697430 -0.632039,
			-0.160429 0.973923 -0.160429,
			0.297102 0.630254 -0.717294,
			-0.905411 0.300194 -0.300191,
			-0.905413 0.300189 0.300189,
			-0.905411 -0.300194 0.300191,
			-0.297092 -0.630272 0.717282,
			-0.573236 -0.705972 0.415937,
			0.297106 -0.630260 0.717286,
			0.000000 -1.000000 0.000000,
			-0.297103 -0.630253 -0.717295,
			0.000000 -1.000000 0.000000,
			0.297095 -0.630280 -0.717274,
			-0.100647 -0.993520 -0.052806,
			0.000000 -1.000000 0.000000,
			-0.573241 -0.705967 -0.415939,
			0.000000 -1.000000 0.000000,
			0.000000 -1.000000 0.000000,
			0.000000 -1.000000 0.000000,
			0.000000 -1.000000 0.000000,
			0.609130 -0.680630 -0.407068,
			0.573241 -0.705967 0.415939,
			-0.905413 -0.300189 -0.300189,
			0.905410 -0.300194 0.300194,
			0.905414 0.300190 0.300187,
			0.905410 0.300194 -0.300194,
			0.905414 -0.300190 -0.300187,
			0.000000 -1.000000 0.000000,
			0.000000 -1.000000 0.000000,
			0.000000 -1.000000 0.000000,
			0.000000 -1.000000 0.000000,
			-0.297102 0.630259 -0.717289,
			-0.573236 0.705973 -0.415935,
			0.000000 1.000000 -0.000000,
			-0.573246 0.705962 0.415941,
			0.000000 1.000000 -0.000000,
			-0.297109 0.630253 0.717292,
			0.297095 0.630260 0.717291,
			-0.021690 0.999700 -0.011380,
			0.573236 0.705972 0.415937,
			0.337813 0.697430 -0.632039,
			-0.160429 0.973922 -0.160429,
			0.297102 0.630254 -0.717294,
			-0.905411 0.300195 -0.300191,
			-0.905413 0.300189 0.300189,
			-0.905411 -0.300195 0.300191,
			-0.297092 -0.630272 0.717282,
			-0.573236 -0.705973 0.415935,
			0.297106 -0.630260 0.717286,
			0.000000 -1.000000 0.000000,
			-0.297103 -0.630252 -0.717295,
			0.000000 -1.000000 0.000000,
			0.297095 -0.630280 -0.717274,
			-0.100647 -0.993520 -0.052806,
			0.000000 -1.000000 0.000000,
			-0.573241 -0.705968 -0.415938,
			0.000000 -1.000000 0.000000,
			0.000000 -1.000000 0.000000,
			0.000000 -1.000000 0.000000,
			0.000000 -1.000000 0.000000,
			0.609130 -0.680630 -0.407067,
			0.573241 -0.705967 0.415939,
			-0.905413 -0.300189 -0.300189,
			0.905410 -0.300194 0.300194,
			0.905414 0.300190 0.300187,
			0.905410 0.300194 -0.300194,
			0.905414 -0.300190 -0.300187,
			0.000000 -1.000000 0.000000,
			0.000000 -1.000000 0.000000,
			0.000000 -1.000000 0.000000,
			0.000000 -1.000000 0.000000,
			-0.297102 0.630259 -0.717289,
			-0.573236 0.705972 -0.415937,
			0.000000 1.000000 -0.000000,
			-0.573246 0.705961 0.415943,
			0.000000 1.000000 -0.000000,
			-0.297109 0.630253 0.717292,
			0.297096 0.630260 0.717291,
			0.339795 0.923448 0.178278,
			0.573236 0.705972 0.415937,
			0.767528 0.570201 -0.292867,
			-0.160429 0.973923 -0.160429,
			0.297102 0.630254 -0.717294,
			-0.905411 0.300194 -0.300191,
			-0.905413 0.300189 0.300189,
			-0.905411 -0.300194 0.300191,
			-0.297092 -0.630272 0.717282,
			-0.573236 -0.705972 0.415937,
			0.297106 -0.630260 0.717286,
			0.000000 -1.000000 0.000000,
			-0.297103 -0.630253 -0.717295,
			0.000000 -1.000000 0.000000,
			0.297095 -0.630280 -0.717274,
			0.099429 -0.993676 0.052167,
			0.000000 -1.000000 0.000000,
			-0.573241 -0.705967 -0.415939,
			0.000000 -1.000000 0.000000,
			0.000000 -1.000000 0.000000,
			0.000000 -1.000000 0.000000,
			0.000000 -1.000000 0.000000,
			0.609130 -0.680630 -0.407068,
			0.573241 -0.705967 0.415939,
			-0.905413 -0.300189 -0.300189,
			0.905410 -0.300194 0.300194,
			0.905414 0.300190 0.300187,
			0.905410 0.300194 -0.300194,
			0.905414 -0.300190 -0.300187,
			0.000000 -1.000000 0.000000,
			0.000000 -1.000000 0.000000,
			0.000000 -1.000000 0.000000,
			0.000000 -1.000000 0.000000,
			-0.297102 0.630259 -0.717289,
			-0.573236 0.705973 -0.415935,
			0.000000 1.000000 -0.000000,
			-0.573246 0.705962 0.415941,
			0.000000 1.000000 -0.000000,
			-0.297109 0.630253 0.717292,
			0.297095 0.630260 0.717291,
			-0.021690 0.999700 -0.011380,
			0.573236 0.705972 0.415937,
			0.337813 0.697430 -0.632039,
			-0.160429 0.973922 -0.160429,
			0.297102 0.630254 -0.717294,
			-0.905411 0.300195 -0.300191,
			-0.905413 0.300189 0.300189,
			-0.905411 -0.300195 0.300191,
			-0.297092 -0.630272 0.717282,
			-0.573236 -0.705973 0.415935,
			0.297106 -0.630260 0.717286,
			0.000000 -1.000000 0.000000,
			-0.297103 -0.630252 -0.717295,
			0.000000 -1.000000 0.000000,
			0.297095 -0.630280 -0.717274,
			-0.100647 -0.993520 -0.052806,
			0.000000 -1.000000 0.000000,
			-0.573241 -0.705968 -0.415938,
			0.000000 -1.000000 0.000000,
			0.000000 -1.000000 0.000000,
			0.000000 -1.000000 0.000000,
			0.000000 -1.000000 0.000000,
			0.609130 -0.680630 -0.407067,
			0.573241 -0.705967 0.415939,
			-0.905413 -0.300189 -0.300189,
			0.905410 -0.300194 0.300194,
			0.905414 0.300190 0.300187,
			0.905410 0.300194 -0.300194,
			0.905414 -0.300190 -0.300187,
			0.000000 -1.000000 0.000000,
			0.000000 -1.000000 0.000000,
			0.000000 -1.000000 0.000000,
			0.000000 -1.000000 0.000000,
			-0.297102 0.630259 -0.717289,
			-0.573236 0.705972 -0.415937,
			0.000000 1.000000 -0.000000,
			-0.573246 0.705961 0.415943,
			0.000000 1.000000 -0.000000,
			-0.297109 0.630253 0.717292,
			0.297095 0.630260 0.717291,
			-0.021690 0.999700 -0.011380,
			0.573236 0.705972 0.415937,
			0.337813 0.697430 -0.632039,
			-0.160429 0.973922 -0.160429,
			0.297102 0.630254 -0.717294,
			-0.905411 0.300194 -0.300191,
			-0.905413 0.300189 0.300189,
			-0.905411 -0.300194 0.300191,
			-0.297092 -0.630272 0.717282,
			-0.573236 -0.705972 0.415937,
			0.297106 -0.630260 0.717286,
			0.000000 -1.000000 0.000000,
			-0.297103 -0.630253 -0.717295,
			0.000000 -1.000000 0.000000,
			0.297095 -0.630280 -0.717274,
			-0.100647 -0.993520 -0.052806,
			0.000000 -1.000000 0.000000,
			-0.573241 -0.705967 -0.415939,
			0.000000 -1.000000 0.000000,
			0.000000 -1.000000 0.000000,
			0.000000 -1.000000 0.000000,
			0.000000 -1.000000 0.000000,
			0.609130 -0.680630 -0.407067,
			0.573241 -0.705967 0.415939,
			-0.905413 -0.300189 -0.300189,
			0.905410 -0.300194 0.300194,
			0.905414 0.300190 0.300187,
			0.905410 0.300194 -0.300194,
			0.905414 -0.300190 -0.300187,
			0.000000 -1.000000 0.000000,
			0.000000 -1.000000 0.000000,
			0.000000 -1.000000 0.000000,
			0.000000 -1.000000 0.000000,
			-0.297102 0.630259 -0.717289,
			-0.573236 0.705972 -0.415937,
			0.000000 1.000000 -0.000000,
			-0.573246 0.705961 0.415943,
			0.000000 1.000000 -0.000000,
			-0.297109 0.630253 0.717292,
			0.297095 0.630260 0.717291,
			0.339795 0.923448 0.178278,
			0.573236 0.705972 0.415937,
			0.767528 0.570201 -0.292868,
			-0.160429 0.973922 -0.160429,
			0.297102 0.630254 -0.717294,
			-0.905411 0.300194 -0.300191,
			-0.905413 0.300189 0.300189,
			-0.905411 -0.300194 0.300191,
			-0.297092 -0.630272 0.717282,
			-0.573236 -0.705972 0.415937,
			0.297106 -0.630260 0.717286,
			0.000000 -1.000000 0.000000,
			-0.297103 -0.630253 -0.717295,
			0.000000 -1.000000 0.000000,
			0.297095 -0.630280 -0.717274,
			0.099429 -0.993676 0.052167,
			0.000000 -1.000000 0.000000,
			-0.573241 -0.705967 -0.415939,
			0.000000 -1.000000 0.000000,
			0.000000 -1.000000 0.000000,
			0.000000 -1.000000 0.000000,
			0.000000 -1.000000 0.000000,
			0.609130 -0.680630 -0.407067,
			0.573241 -0.705967 0.415939,
			-0.905413 -0.300189 -0.300189,
			0.905410 -0.300194 0.300194,
			0.905414 0.300190 0.300187,
			0.905410 0.300194 -0.300194,
			0.905414 -0.300190 -0.300187,
			0.000000 -1.000000 0.000000,
			0.000000 -1.000000 0.000000,
			0.000000 -1.000000 0.000000,
			0.000000 -1.000000 0.000000,
			-0.297102 0.630259 -0.717289,
			-0.573236 0.705972 -0.415937,
			0.000000 1.000000 -0.000000,
			-0.573246 0.705961 0.415943,
			0.000000 1.000000 -0.000000,
			-0.297109 0.630253 0.717292,
			0.297095 0.630260 0.717291,
			-0.021690 0.999700 -0.011380,
			0.573236 0.705972 0.415937,
			0.337813 0.697430 -0.632039,
			-0.160429 0.973922 -0.160429,
			0.297102 0.630254 -0.717294,
			-0.905411 0.300194 -0.300191,
			-0.905413 0.300189 0.300189,
			-0.905411 -0.300194 0.300191,
			-0.297092 -0.630272 0.717282,
			-0.573236 -0.705972 0.415937,
			0.297106 -0.630260 0.717286,
			0.000000 -1.000000 0.000000,
			-0.297103 -0.630253 -0.717295,
			0.000000 -1.000000 0.000000,
			0.297095 -0.630280 -0.717274,
			-0.100647 -0.993520 -0.052806,
			0.000000 -1.000000 0.000000,
			-0.573241 -0.705967 -0.415939,
			0.000000 -1.000000 0.000000,
			0.000000 -1.000000 0.000000,
			0.000000 -1.000000 0.000000,
			0.000000 -1.000000 0.000000,
			0.609130 -0.680630 -0.407067,
			0.573241 -0.705967 0.415939,
			-0.905413 -0.300189 -0.300189,
			0.905410 -0.300194 0.300194,
			0.905414 0.300190 0.300187,
			0.905410 0.300194 -0.300194,
			0.905414 -0.300190 -0.300187,
			0.000000 -1.000000 0.000000,
			0.000000 -1.000000 0.000000,
			0.000000 -1.000000 0.000000,
			0.000000 -1.000000 0.000000,
		] }
		normalPerVertex TRUE
		solid TRUE
	}
	appearance Appearance {
		material Material {
			diffuseColor 0.2980 0.2980 0.2980
			transparency 0.0000
			shininess 0.0000
		}
	}
}

Shape # Material: Gold.001
{
	geometry IndexedFaceSet {
		coord Coordinate { point [
			-4.628687 -1.134743 2.706000,
			-4.628687 -1.134743 2.574000,
			-4.689888 1.097257 2.512800,
			-4.496687 -1.134743 2.706000,
			-4.496687 -1.134743 2.574000,
			-4.689888 1.097257 2.767200,
			-4.689888 -1.029143 2.512800,
			-4.689888 -1.029143 2.767200,
			-4.435487 -1.029143 2.512800,
			-4.435488 1.097257 2.767200,
			-4.435487 -1.029143 2.767200,
			-4.689888 1.384429 4.287200,
			-4.435488 1.384429 4.287200,
			-4.435488 1.097257 2.512800,
			-4.689888 1.638829 4.287200,
			-4.435488 1.638829 4.287200,
			-4.496687 1.577629 4.392800,
			-4.496687 1.445629 4.392800,
			-4.628687 1.577629 4.392800,
			-4.628687 1.445629 4.392800,
			-4.689888 0.321257 2.767200,
			-4.435488 0.321257 2.767200,
			-4.435488 0.321257 2.512800,
			-4.689888 0.321257 2.512800,
			-4.512501 0.321257 2.767200,
			-4.435488 0.321257 2.589814,
			-4.512501 0.321257 2.512800,
			-4.689888 0.321257 2.589814,
			-4.689888 1.638829 2.512800,
			-4.689888 1.638829 2.767200,
			-4.435488 1.638829 2.767200,
			-4.435488 1.638829 2.512800,
			-4.689888 1.386829 2.767200,
			-4.689888 1.386829 2.512800,
			-4.435488 1.386829 2.767200,
			-4.435488 1.386829 2.512800,
			-3.612687 -1.134743 2.706000,
			-3.612687 -1.134743 2.574000,
			-3.673888 1.097257 2.512800,
			-3.480688 -1.134743 2.706000,
			-3.480688 -1.134743 2.574000,
			-3.673888 1.097257 2.767200,
			-3.673888 -1.029143 2.512800,
			-3.673888 -1.029143 2.767200,
			-3.419487 -1.029143 2.512800,
			-3.419487 1.097257 2.767200,
			-3.419487 -1.029143 2.767200,
			-3.673888 1.384429 4.287200,
			-3.419487 1.384429 4.287200,
			-3.419487 1.097257 2.512800,
			-3.673888 1.638829 4.287200,
			-3.419487 1.638829 4.287200,
			-3.480688 1.577629 4.392800,
			-3.480688 1.445629 4.392800,
			-3.612688 1.577629 4.392800,
			-3.612688 1.445629 4.392800,
			-3.673888 0.321257 2.767200,
			-3.419487 0.321257 2.767200,
			-3.419487 0.321257 2.512800,
			-3.673888 0.321257 2.512800,
			-3.496501 0.321257 2.767200,
			-3.419487 0.321257 2.589814,
			-3.496501 0.321257 2.512800,
			-3.673888 0.321257 2.589814,
			-3.673888 1.638829 2.512800,
			-3.673888 1.638829 2.767200,
			-3.419487 1.638829 2.767200,
			-3.419487 1.638829 2.512800,
			-3.673888 1.386829 2.767200,
			-3.673888 1.386829 2.512800,
			-3.419487 1.386829 2.767200,
			-3.419487 1.386829 2.512800,
			-2.596687 -1.134743 2.706000,
			-2.596687 -1.134743 2.574000,
			-2.657887 1.097257 2.512800,
			-2.464688 -1.134743 2.706000,
			-2.464688 -1.134743 2.574000,
			-2.657887 1.097257 2.767200,
			-2.657887 -1.029143 2.512800,
			-2.657887 -1.029143 2.767200,
			-2.403487 -1.029143 2.512800,
			-2.403488 1.097257 2.767200,
			-2.403487 -1.029143 2.767200,
			-2.657887 1.384429 4.287200,
			-2.403488 1.384429 4.287200,
			-2.403488 1.097257 2.512800,
			-2.657887 1.638829 4.287200,
			-2.403488 1.638829 4.287200,
			-2.464688 1.577629 4.392800,
			-2.464688 1.445629 4.392800,
			-2.596688 1.577629 4.392800,
			-2.596688 1.445629 4.392800,
			-2.657887 0.321257 2.767200,
			-2.403488 0.321257 2.767200,
			-2.403488 0.321257 2.512800,
			-2.657887 0.321257 2.512800,
			-2.480501 0.321257 2.767200,
			-2.403488 0.321257 2.589814,
			-2.480501 0.321257 2.512800,
			-2.657887 0.321257 2.589814,
			-2.657887 1.638829 2.512800,
			-2.657887 1.638829 2.767200,
			-2.403488 1.638829 2.767200,
			-2.403488 1.638829 2.512800,
			-2.657887 1.386829 2.767200,
			-2.657887 1.386829 2.512800,
			-2.403488 1.386829 2.767200,
			-2.403488 1.386829 2.512800,
			-1.580687 -1.134743 2.706000,
			-1.580687 -1.134743 2.574000,
			-1.641887 1.097257 2.512800,
			-1.448688 -1.134743 2.706000,
			-1.448688 -1.134743 2.574000,
			-1.641887 1.097257 2.767200,
			-1.641887 -1.029143 2.512800,
			-1.641887 -1.029143 2.767200,
			-1.387487 -1.029143 2.512800,
			-1.387488 1.097257 2.767200,
			-1.387487 -1.029143 2.767200,
			-1.641887 1.384429 4.287200,
			-1.387488 1.384429 4.287200,
			-1.387488 1.097257 2.512800,
			-1.641887 1.638829 4.287200,
			-1.387488 1.638829 4.287200,
			-1.448688 1.577629 4.392800,
			-1.448688 1.445629 4.392800,
			-1.580688 1.577629 4.392800,
			-1.580688 1.445629 4.392800,
			-1.641887 0.321257 2.767200,
			-1.387488 0.321257 2.767200,
			-1.387488 0.321257 2.512800,
			-1.641887 0.321257 2.512800,
			-1.464501 0.321257 2.767200,
			-1.387488 0.321257 2.589814,
			-1.464501 0.321257 2.512800,
			-1.641887 0.321257 2.589814,
			-1.641887 1.638829 2.512800,
			-1.641887 1.638829 2.767200,
			-1.387488 1.638829 2.767200,
			-1.387488 1.638829 2.512800,
			-1.641887 1.386829 2.767200,
			-1.641887 1.386829 2.512800,
			-1.387488 1.386829 2.767200,
			-1.387488 1.386829 2.512800,
			-0.564687 -1.134743 2.706000,
			-0.564687 -1.134743 2.574000,
			-0.625888 1.097257 2.512800,
			-0.432688 -1.134743 2.706000,
			-0.432688 -1.134743 2.574000,
			-0.625888 1.097257 2.767200,
			-0.625888 -1.029143 2.512800,
			-0.625888 -1.029143 2.767200,
			-0.371487 -1.029143 2.512800,
			-0.371488 1.097257 2.767200,
			-0.371487 -1.029143 2.767200,
			-0.625888 1.384429 4.287200,
			-0.371488 1.384429 4.287200,
			-0.371488 1.097257 2.512800,
			-0.625888 1.638829 4.287200,
			-0.371488 1.638829 4.287200,
			-0.432688 1.577629 4.392800,
			-0.432688 1.445629 4.392800,
			-0.564687 1.577629 4.392800,
			-0.564687 1.445629 4.392800,
			-0.625888 0.321257 2.767200,
			-0.371488 0.321257 2.767200,
			-0.371488 0.321257 2.512800,
			-0.625888 0.321257 2.512800,
			-0.448501 0.321257 2.767200,
			-0.371488 0.321257 2.589814,
			-0.448501 0.321257 2.512800,
			-0.625888 0.321257 2.589814,
			-0.625888 1.638829 2.512800,
			-0.625888 1.638829 2.767200,
			-0.371488 1.638829 2.767200,
			-0.371488 1.638829 2.512800,
			-0.625888 1.386829 2.767200,
			-0.625888 1.386829 2.512800,
			-0.371488 1.386829 2.767200,
			-0.371488 1.386829 2.512800,
			0.451313 -1.134743 2.706000,
			0.451313 -1.134743 2.574000,
			0.390112 1.097257 2.512800,
			0.583313 -1.134743 2.706000,
			0.583313 -1.134743 2.574000,
			0.390112 1.097257 2.767200,
			0.390112 -1.029143 2.512800,
			0.390112 -1.029143 2.767200,
			0.644513 -1.029143 2.512800,
			0.644512 1.097257 2.767200,
			0.644513 -1.029143 2.767200,
			0.390112 1.384429 4.287200,
			0.644512 1.384429 4.287200,
			0.644512 1.097257 2.512800,
			0.390112 1.638829 4.287200,
			0.644512 1.638829 4.287200,
			0.583313 1.577629 4.392800,
			0.583313 1.445629 4.392800,
			0.451313 1.577629 4.392800,
			0.451313 1.445629 4.392800,
			0.390112 0.321257 2.767200,
			0.644512 0.321257 2.767200,
			0.644512 0.321257 2.512800,
			0.390112 0.321257 2.512800,
			0.567499 0.321257 2.767200,
			0.644512 0.321257 2.589814,
			0.567499 0.321257 2.512800,
			0.390112 0.321257 2.589814,
			0.390112 1.638829 2.512800,
			0.390112 1.638829 2.767200,
			0.644512 1.638829 2.767200,
			0.644512 1.638829 2.512800,
			0.390112 1.386829 2.767200,
			0.390112 1.386829 2.512800,
			0.644512 1.386829 2.767200,
			0.644512 1.386829 2.512800,
			1.467313 -1.134743 2.706000,
			1.467313 -1.134743 2.574000,
			1.406113 1.097257 2.512800,
			1.599312 -1.134743 2.706000,
			1.599312 -1.134743 2.574000,
			1.406113 1.097257 2.767200,
			1.406113 -1.029143 2.512800,
			1.406113 -1.029143 2.767200,
			1.660513 -1.029143 2.512800,
			1.660512 1.097257 2.767200,
			1.660513 -1.029143 2.767200,
			1.406113 1.384429 4.287200,
			1.660512 1.384429 4.287200,
			1.660512 1.097257 2.512800,
			1.406113 1.638829 4.287200,
			1.660512 1.638829 4.287200,
			1.599312 1.577629 4.392800,
			1.599312 1.445629 4.392800,
			1.467312 1.577629 4.392800,
			1.467312 1.445629 4.392800,
			1.406113 0.321257 2.767200,
			1.660512 0.321257 2.767200,
			1.660512 0.321257 2.512800,
			1.406113 0.321257 2.512800,
			1.583499 0.321257 2.767200,
			1.660512 0.321257 2.589814,
			1.583499 0.321257 2.512800,
			1.406113 0.321257 2.589814,
			1.406113 1.638829 2.512800,
			1.406113 1.638829 2.767200,
			1.660512 1.638829 2.767200,
			1.660512 1.638829 2.512800,
			1.406113 1.386829 2.767200,
			1.406113 1.386829 2.512800,
			1.660512 1.386829 2.767200,
			1.660512 1.386829 2.512800,
			2.483312 -1.134743 2.706000,
			2.483312 -1.134743 2.574000,
			2.422112 1.097257 2.512800,
			2.615312 -1.134743 2.706000,
			2.615312 -1.134743 2.574000,
			2.422112 1.097257 2.767200,
			2.422112 -1.029143 2.512800,
			2.422112 -1.029143 2.767200,
			2.676513 -1.029143 2.512800,
			2.676512 1.097257 2.767200,
			2.676513 -1.029143 2.767200,
			2.422112 1.384429 4.287200,
			2.676512 1.384429 4.287200,
			2.676512 1.097257 2.512800,
			2.422112 1.638829 4.287200,
			2.676512 1.638829 4.287200,
			2.615312 1.577629 4.392800,
			2.615312 1.445629 4.392800,
			2.483312 1.577629 4.392800,
			2.483312 1.445629 4.392800,
			2.422112 0.321257 2.767200,
			2.676512 0.321257 2.767200,
			2.676512 0.321257 2.512800,
			2.422112 0.321257 2.512800,
			2.599499 0.321257 2.767200,
			2.676512 0.321257 2.589814,
			2.599499 0.321257 2.512800,
			2.422112 0.321257 2.589814,
			2.422112 1.638829 2.512800,
			2.422112 1.638829 2.767200,
			2.676512 1.638829 2.767200,
			2.676512 1.638829 2.512800,
			2.422112 1.386829 2.767200,
			2.422112 1.386829 2.512800,
			2.676512 1.386829 2.767200,
			2.676512 1.386829 2.512800,
			3.499313 -1.134743 2.706000,
			3.499313 -1.134743 2.574000,
			3.438112 1.097257 2.512800,
			3.631313 -1.134743 2.706000,
			3.631313 -1.134743 2.574000,
			3.438112 1.097257 2.767200,
			3.438112 -1.029143 2.512800,
			3.438112 -1.029143 2.767200,
			3.692513 -1.029143 2.512800,
			3.692512 1.097257 2.767200,
			3.692513 -1.029143 2.767200,
			3.438112 1.384429 4.287200,
			3.692512 1.384429 4.287200,
			3.692512 1.097257 2.512800,
			3.438112 1.638829 4.287200,
			3.692512 1.638829 4.287200,
			3.631313 1.577629 4.392800,
			3.631313 1.445629 4.392800,
			3.499313 1.577629 4.392800,
			3.499313 1.445629 4.392800,
			3.438112 0.321257 2.767200,
			3.692512 0.321257 2.767200,
			3.692512 0.321257 2.512800,
			3.438112 0.321257 2.512800,
			3.615499 0.321257 2.767200,
			3.692512 0.321257 2.589814,
			3.615499 0.321257 2.512800,
			3.438112 0.321257 2.589814,
			3.438112 1.638829 2.512800,
			3.438112 1.638829 2.767200,
			3.692512 1.638829 2.767200,
			3.692512 1.638829 2.512800,
			3.438112 1.386829 2.767200,
			3.438112 1.386829 2.512800,
			3.692512 1.386829 2.767200,
			3.692512 1.386829 2.512800,
			4.515313 -1.134743 2.706000,
			4.515313 -1.134743 2.574000,
			4.454113 1.097257 2.512800,
			4.647313 -1.134743 2.706000,
			4.647313 -1.134743 2.574000,
			4.454113 1.097257 2.767200,
			4.454113 -1.029143 2.512800,
			4.454113 -1.029143 2.767200,
			4.708514 -1.029143 2.512800,
			4.708513 1.097257 2.767200,
			4.708514 -1.029143 2.767200,
			4.454113 1.384429 4.287200,
			4.708513 1.384429 4.287200,
			4.708513 1.097257 2.512800,
			4.454113 1.638829 4.287200,
			4.708513 1.638829 4.287200,
			4.647313 1.577629 4.392800,
			4.647313 1.445629 4.392800,
			4.515313 1.577629 4.392800,
			4.515313 1.445629 4.392800,
			4.454113 0.321257 2.767200,
			4.708513 0.321257 2.767200,
			4.708513 0.321257 2.512800,
			4.454113 0.321257 2.512800,
			4.631500 0.321257 2.767200,
			4.708513 0.321257 2.589814,
			4.631500 0.321257 2.512800,
			4.454113 0.321257 2.589814,
			4.454113 1.638829 2.512800,
			4.454113 1.638829 2.767200,
			4.708513 1.638829 2.767200,
			4.708513 1.638829 2.512800,
			4.454113 1.386829 2.767200,
			4.454113 1.386829 2.512800,
			4.708513 1.386829 2.767200,
			4.708513 1.386829 2.512800,
		] }
		coordIndex [
			0 1 3 -1,
			3 1 4 -1,
			1 0 6 -1,
			6 0 7 -1,
			4 1 8 -1,
			8 1 6 -1,
			3 4 10 -1,
			10 4 8 -1,
			0 3 7 -1,
			7 3 10 -1,
			7 24 20 -1,
			21 24 10 -1,
			7 27 6 -1,
			27 23 6 -1,
			26 6 23 -1,
			22 8 26 -1,
			10 25 21 -1,
			25 8 22 -1,
			16 17 15 -1,
			15 17 12 -1,
			18 19 16 -1,
			16 19 17 -1,
			19 18 11 -1,
			11 18 14 -1,
			17 19 12 -1,
			12 19 11 -1,
			18 16 14 -1,
			14 16 15 -1,
			32 28 33 -1,
			34 15 12 -1,
			34 35 31 -1,
			33 31 35 -1,
			2 35 13 -1,
			9 13 35 -1,
			9 32 5 -1,
			5 33 2 -1,
			29 15 30 -1,
			32 14 29 -1,
			34 11 32 -1,
			29 30 31 -1,
			36 37 39 -1,
			39 37 40 -1,
			37 36 42 -1,
			42 36 43 -1,
			40 37 44 -1,
			44 37 42 -1,
			39 40 46 -1,
			46 40 44 -1,
			36 39 43 -1,
			43 39 46 -1,
			43 60 56 -1,
			57 60 46 -1,
			43 63 42 -1,
			63 59 42 -1,
			62 42 59 -1,
			58 44 62 -1,
			46 61 57 -1,
			61 44 58 -1,
			52 53 51 -1,
			51 53 48 -1,
			54 55 52 -1,
			52 55 53 -1,
			55 54 47 -1,
			47 54 50 -1,
			53 55 48 -1,
			48 55 47 -1,
			54 52 50 -1,
			50 52 51 -1,
			68 64 69 -1,
			70 51 48 -1,
			70 71 67 -1,
			69 67 71 -1,
			38 71 49 -1,
			45 49 71 -1,
			45 68 41 -1,
			41 69 38 -1,
			65 51 66 -1,
			68 50 65 -1,
			70 47 68 -1,
			65 66 67 -1,
			72 73 75 -1,
			75 73 76 -1,
			73 72 78 -1,
			78 72 79 -1,
			76 73 80 -1,
			80 73 78 -1,
			75 76 82 -1,
			82 76 80 -1,
			72 75 79 -1,
			79 75 82 -1,
			79 96 92 -1,
			93 96 82 -1,
			79 99 78 -1,
			99 95 78 -1,
			98 78 95 -1,
			94 80 98 -1,
			82 97 93 -1,
			97 80 94 -1,
			88 89 87 -1,
			87 89 84 -1,
			90 91 88 -1,
			88 91 89 -1,
			91 90 83 -1,
			83 90 86 -1,
			89 91 84 -1,
			84 91 83 -1,
			90 88 86 -1,
			86 88 87 -1,
			104 100 105 -1,
			106 87 84 -1,
			106 107 103 -1,
			105 103 107 -1,
			74 107 85 -1,
			81 85 107 -1,
			81 104 77 -1,
			77 105 74 -1,
			101 87 102 -1,
			104 86 101 -1,
			106 83 104 -1,
			101 102 103 -1,
			108 109 111 -1,
			111 109 112 -1,
			109 108 114 -1,
			114 108 115 -1,
			112 109 116 -1,
			116 109 114 -1,
			111 112 118 -1,
			118 112 116 -1,
			108 111 115 -1,
			115 111 118 -1,
			115 132 128 -1,
			129 132 118 -1,
			115 135 114 -1,
			135 131 114 -1,
			134 114 131 -1,
			130 116 134 -1,
			118 133 129 -1,
			133 116 130 -1,
			124 125 123 -1,
			123 125 120 -1,
			126 127 124 -1,
			124 127 125 -1,
			127 126 119 -1,
			119 126 122 -1,
			125 127 120 -1,
			120 127 119 -1,
			126 124 122 -1,
			122 124 123 -1,
			140 136 141 -1,
			142 123 120 -1,
			142 143 139 -1,
			141 139 143 -1,
			110 143 121 -1,
			117 121 143 -1,
			117 140 113 -1,
			113 141 110 -1,
			137 123 138 -1,
			140 122 137 -1,
			142 119 140 -1,
			137 138 139 -1,
			144 145 147 -1,
			147 145 148 -1,
			145 144 150 -1,
			150 144 151 -1,
			148 145 152 -1,
			152 145 150 -1,
			147 148 154 -1,
			154 148 152 -1,
			144 147 151 -1,
			151 147 154 -1,
			151 168 164 -1,
			165 168 154 -1,
			151 171 150 -1,
			171 167 150 -1,
			170 150 167 -1,
			166 152 170 -1,
			154 169 165 -1,
			169 152 166 -1,
			160 161 159 -1,
			159 161 156 -1,
			162 163 160 -1,
			160 163 161 -1,
			163 162 155 -1,
			155 162 158 -1,
			161 163 156 -1,
			156 163 155 -1,
			162 160 158 -1,
			158 160 159 -1,
			176 172 177 -1,
			178 159 156 -1,
			178 179 175 -1,
			177 175 179 -1,
			146 179 157 -1,
			153 157 179 -1,
			153 176 149 -1,
			149 177 146 -1,
			173 159 174 -1,
			176 158 173 -1,
			178 155 176 -1,
			173 174 175 -1,
			180 181 183 -1,
			183 181 184 -1,
			181 180 186 -1,
			186 180 187 -1,
			184 181 188 -1,
			188 181 186 -1,
			183 184 190 -1,
			190 184 188 -1,
			180 183 187 -1,
			187 183 190 -1,
			187 204 200 -1,
			201 204 190 -1,
			187 207 186 -1,
			207 203 186 -1,
			206 186 203 -1,
			202 188 206 -1,
			190 205 201 -1,
			205 188 202 -1,
			196 197 195 -1,
			195 197 192 -1,
			198 199 196 -1,
			196 199 197 -1,
			199 198 191 -1,
			191 198 194 -1,
			197 199 192 -1,
			192 199 191 -1,
			198 196 194 -1,
			194 196 195 -1,
			212 208 213 -1,
			214 195 192 -1,
			214 215 211 -1,
			213 211 215 -1,
			182 215 193 -1,
			189 193 215 -1,
			189 212 185 -1,
			185 213 182 -1,
			209 195 210 -1,
			212 194 209 -1,
			214 191 212 -1,
			209 210 211 -1,
			216 217 219 -1,
			219 217 220 -1,
			217 216 222 -1,
			222 216 223 -1,
			220 217 224 -1,
			224 217 222 -1,
			219 220 226 -1,
			226 220 224 -1,
			216 219 223 -1,
			223 219 226 -1,
			223 240 236 -1,
			237 240 226 -1,
			223 243 222 -1,
			243 239 222 -1,
			242 222 239 -1,
			238 224 242 -1,
			226 241 237 -1,
			241 224 238 -1,
			232 233 231 -1,
			231 233 228 -1,
			234 235 232 -1,
			232 235 233 -1,
			235 234 227 -1,
			227 234 230 -1,
			233 235 228 -1,
			228 235 227 -1,
			234 232 230 -1,
			230 232 231 -1,
			248 244 249 -1,
			250 231 228 -1,
			250 251 247 -1,
			249 247 251 -1,
			218 251 229 -1,
			225 229 251 -1,
			225 248 221 -1,
			221 249 218 -1,
			245 231 246 -1,
			248 230 245 -1,
			250 227 248 -1,
			245 246 247 -1,
			252 253 255 -1,
			255 253 256 -1,
			253 252 258 -1,
			258 252 259 -1,
			256 253 260 -1,
			260 253 258 -1,
			255 256 262 -1,
			262 256 260 -1,
			252 255 259 -1,
			259 255 262 -1,
			259 276 272 -1,
			273 276 262 -1,
			259 279 258 -1,
			279 275 258 -1,
			278 258 275 -1,
			274 260 278 -1,
			262 277 273 -1,
			277 260 274 -1,
			268 269 267 -1,
			267 269 264 -1,
			270 271 268 -1,
			268 271 269 -1,
			271 270 263 -1,
			263 270 266 -1,
			269 271 264 -1,
			264 271 263 -1,
			270 268 266 -1,
			266 268 267 -1,
			284 280 285 -1,
			286 267 264 -1,
			286 287 283 -1,
			285 283 287 -1,
			254 287 265 -1,
			261 265 287 -1,
			261 284 257 -1,
			257 285 254 -1,
			281 267 282 -1,
			284 266 281 -1,
			286 263 284 -1,
			281 282 283 -1,
			288 289 291 -1,
			291 289 292 -1,
			289 288 294 -1,
			294 288 295 -1,
			292 289 296 -1,
			296 289 294 -1,
			291 292 298 -1,
			298 292 296 -1,
			288 291 295 -1,
			295 291 298 -1,
			295 312 308 -1,
			309 312 298 -1,
			295 315 294 -1,
			315 311 294 -1,
			314 294 311 -1,
			310 296 314 -1,
			298 313 309 -1,
			313 296 310 -1,
			304 305 303 -1,
			303 305 300 -1,
			306 307 304 -1,
			304 307 305 -1,
			307 306 299 -1,
			299 306 302 -1,
			305 307 300 -1,
			300 307 299 -1,
			306 304 302 -1,
			302 304 303 -1,
			320 316 321 -1,
			322 303 300 -1,
			322 323 319 -1,
			321 319 323 -1,
			290 323 301 -1,
			297 301 323 -1,
			297 320 293 -1,
			293 321 290 -1,
			317 303 318 -1,
			320 302 317 -1,
			322 299 320 -1,
			317 318 319 -1,
			324 325 327 -1,
			327 325 328 -1,
			325 324 330 -1,
			330 324 331 -1,
			328 325 332 -1,
			332 325 330 -1,
			327 328 334 -1,
			334 328 332 -1,
			324 327 331 -1,
			331 327 334 -1,
			331 348 344 -1,
			345 348 334 -1,
			331 351 330 -1,
			351 347 330 -1,
			350 330 347 -1,
			346 332 350 -1,
			334 349 345 -1,
			349 332 346 -1,
			340 341 339 -1,
			339 341 336 -1,
			342 343 340 -1,
			340 343 341 -1,
			343 342 335 -1,
			335 342 338 -1,
			341 343 336 -1,
			336 343 335 -1,
			342 340 338 -1,
			338 340 339 -1,
			356 352 357 -1,
			358 339 336 -1,
			358 359 355 -1,
			357 355 359 -1,
			326 359 337 -1,
			333 337 359 -1,
			333 356 329 -1,
			329 357 326 -1,
			353 339 354 -1,
			356 338 353 -1,
			358 335 356 -1,
			353 354 355 -1,
			7 10 24 -1,
			7 20 27 -1,
			26 8 6 -1,
			10 8 25 -1,
			32 29 28 -1,
			34 30 15 -1,
			34 31 30 -1,
			33 28 31 -1,
			2 33 35 -1,
			9 35 34 -1,
			9 34 32 -1,
			5 32 33 -1,
			29 14 15 -1,
			32 11 14 -1,
			34 12 11 -1,
			29 31 28 -1,
			43 46 60 -1,
			43 56 63 -1,
			62 44 42 -1,
			46 44 61 -1,
			68 65 64 -1,
			70 66 51 -1,
			70 67 66 -1,
			69 64 67 -1,
			38 69 71 -1,
			45 71 70 -1,
			45 70 68 -1,
			41 68 69 -1,
			65 50 51 -1,
			68 47 50 -1,
			70 48 47 -1,
			65 67 64 -1,
			79 82 96 -1,
			79 92 99 -1,
			98 80 78 -1,
			82 80 97 -1,
			104 101 100 -1,
			106 102 87 -1,
			106 103 102 -1,
			105 100 103 -1,
			74 105 107 -1,
			81 107 106 -1,
			81 106 104 -1,
			77 104 105 -1,
			101 86 87 -1,
			104 83 86 -1,
			106 84 83 -1,
			101 103 100 -1,
			115 118 132 -1,
			115 128 135 -1,
			134 116 114 -1,
			118 116 133 -1,
			140 137 136 -1,
			142 138 123 -1,
			142 139 138 -1,
			141 136 139 -1,
			110 141 143 -1,
			117 143 142 -1,
			117 142 140 -1,
			113 140 141 -1,
			137 122 123 -1,
			140 119 122 -1,
			142 120 119 -1,
			137 139 136 -1,
			151 154 168 -1,
			151 164 171 -1,
			170 152 150 -1,
			154 152 169 -1,
			176 173 172 -1,
			178 174 159 -1,
			178 175 174 -1,
			177 172 175 -1,
			146 177 179 -1,
			153 179 178 -1,
			153 178 176 -1,
			149 176 177 -1,
			173 158 159 -1,
			176 155 158 -1,
			178 156 155 -1,
			173 175 172 -1,
			187 190 204 -1,
			187 200 207 -1,
			206 188 186 -1,
			190 188 205 -1,
			212 209 208 -1,
			214 210 195 -1,
			214 211 210 -1,
			213 208 211 -1,
			182 213 215 -1,
			189 215 214 -1,
			189 214 212 -1,
			185 212 213 -1,
			209 194 195 -1,
			212 191 194 -1,
			214 192 191 -1,
			209 211 208 -1,
			223 226 240 -1,
			223 236 243 -1,
			242 224 222 -1,
			226 224 241 -1,
			248 245 244 -1,
			250 246 231 -1,
			250 247 246 -1,
			249 244 247 -1,
			218 249 251 -1,
			225 251 250 -1,
			225 250 248 -1,
			221 248 249 -1,
			245 230 231 -1,
			248 227 230 -1,
			250 228 227 -1,
			245 247 244 -1,
			259 262 276 -1,
			259 272 279 -1,
			278 260 258 -1,
			262 260 277 -1,
			284 281 280 -1,
			286 282 267 -1,
			286 283 282 -1,
			285 280 283 -1,
			254 285 287 -1,
			261 287 286 -1,
			261 286 284 -1,
			257 284 285 -1,
			281 266 267 -1,
			284 263 266 -1,
			286 264 263 -1,
			281 283 280 -1,
			295 298 312 -1,
			295 308 315 -1,
			314 296 294 -1,
			298 296 313 -1,
			320 317 316 -1,
			322 318 303 -1,
			322 319 318 -1,
			321 316 319 -1,
			290 321 323 -1,
			297 323 322 -1,
			297 322 320 -1,
			293 320 321 -1,
			317 302 303 -1,
			320 299 302 -1,
			322 300 299 -1,
			317 319 316 -1,
			331 334 348 -1,
			331 344 351 -1,
			350 332 330 -1,
			334 332 349 -1,
			356 353 352 -1,
			358 354 339 -1,
			358 355 354 -1,
			357 352 355 -1,
			326 357 359 -1,
			333 359 358 -1,
			333 358 356 -1,
			329 356 357 -1,
			353 338 339 -1,
			356 335 338 -1,
			358 336 335 -1,
			353 355 352 -1,
		]
		normal Normal { vector [
			-0.401401 -0.823259 0.401399,
			-0.401390 -0.823266 -0.401396,
			-0.707089 -0.000000 -0.707125,
			0.401390 -0.823266 0.401396,
			0.401401 -0.823260 -0.401399,
			-0.707125 0.000000 0.707089,
			-0.675355 -0.296339 -0.675336,
			-0.675340 -0.296340 0.675351,
			0.675340 -0.296337 -0.675352,
			0.707107 0.000000 0.707107,
			0.675349 -0.296338 0.675342,
			-0.675257 -0.675661 0.295821,
			0.675243 -0.675676 0.295820,
			0.707107 -0.000000 -0.707107,
			-0.675337 0.675353 0.296341,
			0.675351 0.675339 0.296342,
			0.401391 0.401395 0.823266,
			0.401402 -0.401398 0.823260,
			-0.401402 0.401398 0.823260,
			-0.401391 -0.401395 0.823266,
			-0.707107 0.000000 0.707107,
			0.707107 0.000000 0.707107,
			0.707107 0.000000 -0.707107,
			-0.707107 -0.000000 -0.707107,
			0.000000 0.000000 1.000000,
			1.000000 0.000000 -0.000000,
			0.000000 -0.000000 -1.000000,
			-1.000000 0.000000 0.000000,
			-0.577372 0.577339 -0.577339,
			-0.707099 0.707115 -0.000000,
			0.707107 0.707107 -0.000000,
			0.577350 0.577350 -0.577350,
			-0.904717 -0.301466 0.301006,
			-0.707106 -0.000000 -0.707108,
			0.904722 -0.301465 0.300992,
			0.707107 -0.000000 -0.707107,
			-0.401401 -0.823260 0.401399,
			-0.401390 -0.823266 -0.401396,
			-0.707089 -0.000000 -0.707125,
			0.401390 -0.823266 0.401396,
			0.401401 -0.823260 -0.401398,
			-0.707125 0.000000 0.707089,
			-0.675355 -0.296339 -0.675336,
			-0.675340 -0.296340 0.675351,
			0.675340 -0.296337 -0.675352,
			0.707107 0.000000 0.707107,
			0.675349 -0.296338 0.675342,
			-0.675257 -0.675661 0.295821,
			0.675243 -0.675676 0.295820,
			0.707107 -0.000000 -0.707107,
			-0.675337 0.675353 0.296341,
			0.675351 0.675339 0.296342,
			0.401391 0.401395 0.823266,
			0.401402 -0.401398 0.823260,
			-0.401402 0.401398 0.823260,
			-0.401391 -0.401395 0.823266,
			-0.707107 0.000000 0.707107,
			0.707107 0.000000 0.707107,
			0.707107 0.000000 -0.707107,
			-0.707107 -0.000000 -0.707107,
			0.000000 0.000000 1.000000,
			1.000000 0.000000 -0.000000,
			0.000000 -0.000000 -1.000000,
			-1.000000 0.000000 0.000000,
			-0.577372 0.577339 -0.577339,
			-0.707099 0.707115 -0.000000,
			0.707107 0.707107 -0.000000,
			0.577350 0.577350 -0.577350,
			-0.904717 -0.301466 0.301006,
			-0.707106 -0.000000 -0.707108,
			0.904722 -0.301465 0.300993,
			0.707107 -0.000000 -0.707107,
			-0.401402 -0.823259 0.401398,
			-0.401391 -0.823266 -0.401396,
			-0.707089 -0.000000 -0.707125,
			0.401391 -0.823266 0.401396,
			0.401402 -0.823259 -0.401398,
			-0.707125 0.000000 0.707089,
			-0.675355 -0.296338 -0.675336,
			-0.675339 -0.296340 0.675351,
			0.675340 -0.296337 -0.675352,
			0.707107 0.000000 0.707107,
			0.675349 -0.296338 0.675343,
			-0.675257 -0.675661 0.295821,
			0.675243 -0.675676 0.295820,
			0.707107 -0.000000 -0.707107,
			-0.675337 0.675353 0.296341,
			0.675351 0.675339 0.296342,
			0.401391 0.401395 0.823266,
			0.401402 -0.401398 0.823260,
			-0.401402 0.401398 0.823259,
			-0.401391 -0.401395 0.823266,
			-0.707107 0.000000 0.707107,
			0.707107 0.000000 0.707107,
			0.707107 0.000000 -0.707107,
			-0.707107 -0.000000 -0.707107,
			0.000000 0.000000 1.000000,
			1.000000 0.000000 -0.000000,
			0.000000 -0.000000 -1.000000,
			-1.000000 0.000000 0.000000,
			-0.577372 0.577339 -0.577339,
			-0.707099 0.707115 -0.000000,
			0.707107 0.707107 -0.000000,
			0.577350 0.577350 -0.577350,
			-0.904717 -0.301466 0.301006,
			-0.707106 -0.000000 -0.707108,
			0.904722 -0.301465 0.300993,
			0.707107 -0.000000 -0.707107,
			-0.401402 -0.823259 0.401398,
			-0.401391 -0.823266 -0.401396,
			-0.707089 -0.000000 -0.707125,
			0.401391 -0.823266 0.401396,
			0.401402 -0.823259 -0.401398,
			-0.707125 0.000000 0.707089,
			-0.675355 -0.296338 -0.675336,
			-0.675339 -0.296340 0.675351,
			0.675340 -0.296337 -0.675352,
			0.707107 0.000000 0.707107,
			0.675349 -0.296338 0.675343,
			-0.675257 -0.675661 0.295821,
			0.675243 -0.675676 0.295820,
			0.707107 -0.000000 -0.707107,
			-0.675337 0.675353 0.296341,
			0.675351 0.675339 0.296342,
			0.401391 0.401395 0.823266,
			0.401402 -0.401398 0.823260,
			-0.401402 0.401398 0.823259,
			-0.401391 -0.401395 0.823266,
			-0.707107 0.000000 0.707107,
			0.707107 0.000000 0.707107,
			0.707107 0.000000 -0.707107,
			-0.707107 -0.000000 -0.707107,
			0.000000 0.000000 1.000000,
			1.000000 0.000000 -0.000000,
			0.000000 -0.000000 -1.000000,
			-1.000000 0.000000 0.000000,
			-0.577372 0.577339 -0.577339,
			-0.707099 0.707115 -0.000000,
			0.707107 0.707107 -0.000000,
			0.577350 0.577350 -0.577350,
			-0.904717 -0.301466 0.301006,
			-0.707106 -0.000000 -0.707108,
			0.904722 -0.301465 0.300993,
			0.707107 -0.000000 -0.707107,
			-0.401402 -0.823259 0.401398,
			-0.401391 -0.823266 -0.401396,
			-0.707089 -0.000000 -0.707125,
			0.401391 -0.823266 0.401396,
			0.401402 -0.823259 -0.401398,
			-0.707125 0.000000 0.707089,
			-0.675355 -0.296338 -0.675336,
			-0.675339 -0.296340 0.675351,
			0.675340 -0.296337 -0.675352,
			0.707107 0.000000 0.707107,
			0.675349 -0.296338 0.675343,
			-0.675257 -0.675661 0.295821,
			0.675243 -0.675676 0.295820,
			0.707107 -0.000000 -0.707107,
			-0.675337 0.675353 0.296341,
			0.675351 0.675339 0.296342,
			0.401391 0.401395 0.823266,
			0.401402 -0.401398 0.823260,
			-0.401402 0.401398 0.823259,
			-0.401391 -0.401395 0.823266,
			-0.707107 0.000000 0.707107,
			0.707107 0.000000 0.707107,
			0.707107 0.000000 -0.707107,
			-0.707107 -0.000000 -0.707107,
			0.000000 0.000000 1.000000,
			1.000000 0.000000 -0.000000,
			0.000000 -0.000000 -1.000000,
			-1.000000 0.000000 0.000000,
			-0.577372 0.577339 -0.577339,
			-0.707099 0.707115 -0.000000,
			0.707107 0.707107 -0.000000,
			0.577350 0.577350 -0.577350,
			-0.904717 -0.301466 0.301006,
			-0.707106 -0.000000 -0.707108,
			0.904722 -0.301465 0.300993,
			0.707107 -0.000000 -0.707107,
			-0.401402 -0.823259 0.401398,
			-0.401391 -0.823266 -0.401396,
			-0.707089 -0.000000 -0.707125,
			0.401391 -0.823266 0.401396,
			0.401402 -0.823259 -0.401398,
			-0.707125 0.000000 0.707089,
			-0.675355 -0.296338 -0.675336,
			-0.675339 -0.296340 0.675351,
			0.675340 -0.296337 -0.675352,
			0.707107 0.000000 0.707107,
			0.675349 -0.296338 0.675343,
			-0.675257 -0.675661 0.295821,
			0.675243 -0.675676 0.295820,
			0.707107 -0.000000 -0.707107,
			-0.675337 0.675353 0.296341,
			0.675351 0.675339 0.296342,
			0.401391 0.401395 0.823266,
			0.401402 -0.401398 0.823260,
			-0.401402 0.401398 0.823259,
			-0.401391 -0.401395 0.823266,
			-0.707107 0.000000 0.707107,
			0.707107 0.000000 0.707107,
			0.707107 0.000000 -0.707107,
			-0.707107 -0.000000 -0.707107,
			0.000000 0.000000 1.000000,
			1.000000 0.000000 -0.000000,
			0.000000 -0.000000 -1.000000,
			-1.000000 0.000000 0.000000,
			-0.577372 0.577339 -0.577339,
			-0.707099 0.707115 -0.000000,
			0.707107 0.707107 -0.000000,
			0.577350 0.577350 -0.577350,
			-0.904717 -0.301466 0.301006,
			-0.707106 -0.000000 -0.707108,
			0.904722 -0.301465 0.300993,
			0.707107 -0.000000 -0.707107,
			-0.401402 -0.823259 0.401398,
			-0.401391 -0.823266 -0.401396,
			-0.707089 -0.000000 -0.707125,
			0.401391 -0.823266 0.401396,
			0.401402 -0.823259 -0.401398,
			-0.707125 0.000000 0.707089,
			-0.675355 -0.296338 -0.675336,
			-0.675339 -0.296340 0.675351,
			0.675340 -0.296337 -0.675352,
			0.707107 0.000000 0.707107,
			0.675349 -0.296338 0.675343,
			-0.675257 -0.675661 0.295821,
			0.675243 -0.675676 0.295820,
			0.707107 -0.000000 -0.707107,
			-0.675337 0.675353 0.296341,
			0.675351 0.675339 0.296342,
			0.401391 0.401395 0.823266,
			0.401402 -0.401398 0.823260,
			-0.401402 0.401398 0.823259,
			-0.401391 -0.401395 0.823266,
			-0.707107 0.000000 0.707107,
			0.707107 0.000000 0.707107,
			0.707107 0.000000 -0.707107,
			-0.707107 -0.000000 -0.707107,
			0.000000 0.000000 1.000000,
			1.000000 0.000000 -0.000000,
			0.000000 -0.000000 -1.000000,
			-1.000000 0.000000 0.000000,
			-0.577372 0.577339 -0.577339,
			-0.707099 0.707115 -0.000000,
			0.707107 0.707107 -0.000000,
			0.577350 0.577350 -0.577350,
			-0.904717 -0.301466 0.301006,
			-0.707106 -0.000000 -0.707108,
			0.904722 -0.301465 0.300993,
			0.707107 -0.000000 -0.707107,
			-0.401403 -0.823259 0.401398,
			-0.401392 -0.823265 -0.401396,
			-0.707089 -0.000000 -0.707125,
			0.401389 -0.823266 0.401396,
			0.401400 -0.823260 -0.401399,
			-0.707125 0.000000 0.707089,
			-0.675355 -0.296338 -0.675337,
			-0.675339 -0.296339 0.675352,
			0.675340 -0.296338 -0.675352,
			0.707107 0.000000 0.707107,
			0.675349 -0.296339 0.675342,
			-0.675257 -0.675661 0.295821,
			0.675243 -0.675676 0.295820,
			0.707107 -0.000000 -0.707107,
			-0.675337 0.675353 0.296341,
			0.675351 0.675339 0.296342,
			0.401391 0.401395 0.823266,
			0.401402 -0.401398 0.823260,
			-0.401402 0.401398 0.823259,
			-0.401391 -0.401395 0.823266,
			-0.707107 0.000000 0.707107,
			0.707107 0.000000 0.707107,
			0.707107 0.000000 -0.707107,
			-0.707107 -0.000000 -0.707107,
			0.000000 0.000000 1.000000,
			1.000000 0.000001 -0.000000,
			0.000000 -0.000000 -1.000000,
			-1.000000 0.000000 0.000000,
			-0.577372 0.577339 -0.577339,
			-0.707099 0.707115 -0.000000,
			0.707107 0.707107 -0.000000,
			0.577350 0.577350 -0.577350,
			-0.904717 -0.301466 0.301006,
			-0.707106 -0.000000 -0.707108,
			0.904722 -0.301465 0.300993,
			0.707107 -0.000000 -0.707107,
			-0.401403 -0.823259 0.401398,
			-0.401392 -0.823265 -0.401396,
			-0.707089 -0.000000 -0.707125,
			0.401389 -0.823266 0.401396,
			0.401400 -0.823260 -0.401399,
			-0.707125 0.000000 0.707089,
			-0.675355 -0.296338 -0.675337,
			-0.675339 -0.296339 0.675352,
			0.675340 -0.296338 -0.675352,
			0.707107 0.000000 0.707107,
			0.675349 -0.296339 0.675342,
			-0.675257 -0.675661 0.295821,
			0.675243 -0.675676 0.295820,
			0.707107 -0.000000 -0.707107,
			-0.675337 0.675353 0.296341,
			0.675351 0.675339 0.296342,
			0.401391 0.401395 0.823266,
			0.401402 -0.401398 0.823260,
			-0.401402 0.401398 0.823259,
			-0.401391 -0.401395 0.823266,
			-0.707107 0.000000 0.707107,
			0.707107 0.000000 0.707107,
			0.707107 0.000000 -0.707107,
			-0.707107 -0.000000 -0.707107,
			0.000000 0.000000 1.000000,
			1.000000 0.000001 -0.000000,
			0.000000 -0.000000 -1.000000,
			-1.000000 0.000000 0.000000,
			-0.577372 0.577339 -0.577339,
			-0.707099 0.707115 -0.000000,
			0.707107 0.707107 -0.000000,
			0.577350 0.577350 -0.577350,
			-0.904717 -0.301466 0.301006,
			-0.707106 -0.000000 -0.707108,
			0.904722 -0.301465 0.300993,
			0.707107 -0.000000 -0.707107,
			-0.401403 -0.823259 0.401398,
			-0.401392 -0.823265 -0.401396,
			-0.707089 -0.000000 -0.707125,
			0.401389 -0.823266 0.401396,
			0.401400 -0.823260 -0.401399,
			-0.707125 0.000000 0.707089,
			-0.675355 -0.296338 -0.675337,
			-0.675339 -0.296339 0.675352,
			0.675340 -0.296338 -0.675352,
			0.707107 0.000000 0.707107,
			0.675349 -0.296339 0.675342,
			-0.675257 -0.675661 0.295821,
			0.675243 -0.675676 0.295820,
			0.707107 -0.000000 -0.707107,
			-0.675337 0.675353 0.296341,
			0.675351 0.675339 0.296342,
			0.401391 0.401395 0.823266,
			0.401402 -0.401398 0.823260,
			-0.401402 0.401398 0.823259,
			-0.401391 -0.401395 0.823266,
			-0.707107 0.000000 0.707107,
			0.707107 0.000000 0.707107,
			0.707107 0.000000 -0.707107,
			-0.707107 -0.000000 -0.707107,
			0.000000 0.000000 1.000000,
			1.000000 0.000001 -0.000000,
			0.000000 -0.000000 -1.000000,
			-1.000000 0.000000 0.000000,
			-0.577372 0.577339 -0.577339,
			-0.707099 0.707115 -0.000000,
			0.707107 0.707107 -0.000000,
			0.577350 0.577350 -0.577350,
			-0.904717 -0.301466 0.301006,
			-0.707106 -0.000000 -0.707108,
			0.904722 -0.301465 0.300993,
			0.707107 -0.000000 -0.707107,
		] }
		normalPerVertex TRUE
		solid TRUE
	}
	appearance Appearance {
		material Material {
			diffuseColor 0.9714 0.9167 0.4554
			transparency 0.0000
			shininess 0.5000
		}
	}
}

Shape # Material: Material.001
{
	geometry IndexedFaceSet {
		coord Coordinate { point [
			1.751751 0.320001 0.049504,
			1.751751 0.720001 0.049504,
			1.751751 0.320001 -1.166496,
			1.751751 0.720001 -1.166496,
			2.967751 0.320001 0.049504,
			2.967751 0.720001 0.049504,
			2.967751 0.320001 -1.166496,
			2.967751 0.720001 -1.166496,
		] }
		coordIndex [
			1 2 0 -1,
			3 6 2 -1,
			7 4 6 -1,
			5 0 4 -1,
			6 0 2 -1,
			3 5 7 -1,
			1 3 2 -1,
			3 7 6 -1,
			7 5 4 -1,
			5 1 0 -1,
			6 4 0 -1,
			3 1 5 -1,
		]
		normal Normal { vector [
			-0.298238 -0.906696 0.298255,
			-0.298269 0.906687 0.298252,
			-0.298269 -0.906687 -0.298252,
			-0.298238 0.906696 -0.298255,
			0.298269 -0.906687 0.298252,
			0.298238 0.906696 0.298255,
			0.298238 -0.906696 -0.298255,
			0.298269 0.906687 -0.298252,
		] }
		normalPerVertex TRUE
		solid TRUE
	}
	appearance Appearance {
		material Material {
			diffuseColor 0.0612 0.0666 0.0704
			transparency 0.0000
			shininess 0.6000
		}
	}
}

Shape # Material: Material.002
{
	geometry IndexedFaceSet {
		coord Coordinate { point [
			-0.146258 0.320000 -0.003847,
			0.326394 0.320000 -0.003847,
			-0.146258 0.320000 -1.121344,
			0.326394 0.320000 -1.121344,
			-0.146258 0.720000 -0.003847,
			0.326394 0.720000 -0.003847,
			-0.146258 0.720000 -1.121344,
			0.326394 0.720000 -1.121344,
		] }
		coordIndex [
			2 1 0 -1,
			5 6 4 -1,
			2 7 3 -1,
			1 4 0 -1,
			3 5 1 -1,
			0 6 2 -1,
			2 3 1 -1,
			5 7 6 -1,
			2 6 7 -1,
			1 5 4 -1,
			3 7 5 -1,
			0 4 6 -1,
		]
		normal Normal { vector [
			-0.577330 -0.577360 0.577360,
			0.577350 -0.577323 0.577378,
			-0.577350 -0.577323 -0.577378,
			0.577330 -0.577360 -0.577360,
			-0.577341 0.577341 0.577369,
			0.577339 0.577342 0.577369,
			-0.577339 0.577342 -0.577370,
			0.577341 0.577341 -0.577369,
		] }
		normalPerVertex TRUE
		solid TRUE
	}
	appearance Appearance {
		material Material {
			diffuseColor 0.6654 0.4508 0.2582
			transparency 0.0000
			shininess 0.6000
		}
	}
}

Shape # Material: Material.001
{
	geometry IndexedFaceSet {
		coord Coordinate { point [
			-1.886025 0.320000 -0.297331,
			-0.633073 0.320000 -0.297331,
			-1.886025 0.320000 -0.692406,
			-0.633073 0.320000 -0.692406,
			-1.886025 0.720000 -0.297331,
			-0.633073 0.720000 -0.297331,
			-1.886025 0.720000 -0.692406,
			-0.633073 0.720000 -0.692406,
		] }
		coordIndex [
			2 1 0 -1,
			5 6 4 -1,
			3 5 1 -1,
			0 6 2 -1,
			2 7 3 -1,
			1 4 0 -1,
			2 3 1 -1,
			5 7 6 -1,
			3 7 5 -1,
			0 4 6 -1,
			2 6 7 -1,
			1 5 4 -1,
		]
		normal Normal { vector [
			-0.577372 -0.577339 0.577339,
			0.577370 -0.577341 0.577340,
			-0.577370 -0.577341 -0.577340,
			0.577372 -0.577339 -0.577339,
			-0.577360 0.577360 0.577331,
			0.577382 0.577320 0.577349,
			-0.577382 0.577320 -0.577349,
			0.577360 0.577360 -0.577331,
		] }
		normalPerVertex TRUE
		solid TRUE
	}
	appearance Appearance {
		material Material {
			diffuseColor 0.0612 0.0666 0.0704
			transparency 0.0000
			shininess 0.6000
		}
	}
}

Shape # Material: Material.001
{
	geometry IndexedFaceSet {
		coord Coordinate { point [
			-3.274431 0.320000 -0.003847,
			-2.801779 0.320000 -0.003847,
			-3.274431 0.320000 -1.121344,
			-2.801779 0.320000 -1.121344,
			-3.274431 0.720000 -0.003847,
			-2.801779 0.720000 -0.003847,
			-3.274431 0.720000 -1.121344,
			-2.801779 0.720000 -1.121344,
		] }
		coordIndex [
			2 1 0 -1,
			5 6 4 -1,
			2 7 3 -1,
			1 4 0 -1,
			3 5 1 -1,
			0 6 2 -1,
			2 3 1 -1,
			5 7 6 -1,
			2 6 7 -1,
			1 5 4 -1,
			3 7 5 -1,
			0 4 6 -1,
		]
		normal Normal { vector [
			-0.577330 -0.577360 0.577360,
			0.577350 -0.577323 0.577378,
			-0.577350 -0.577323 -0.577378,
			0.577330 -0.577360 -0.577360,
			-0.577341 0.577341 0.577369,
			0.577339 0.577342 0.577369,
			-0.577339 0.577342 -0.577370,
			0.577341 0.577341 -0.577369,
		] }
		normalPerVertex TRUE
		solid TRUE
	}
	appearance Appearance {
		material Material {
			diffuseColor 0.0612 0.0666 0.0704
			transparency 0.0000
			shininess 0.6000
		}
	}
}

Shape # Material: Material.001
{
	geometry IndexedFaceSet {
		coord Coordinate { point [
			-4.154883 0.320000 -0.003847,
			-3.682231 0.320000 -0.003847,
			-4.154883 0.320000 -1.121344,
			-3.682231 0.320000 -1.121344,
			-4.154883 0.720000 -0.003847,
			-3.682231 0.720000 -0.003847,
			-4.154883 0.720000 -1.121344,
			-3.682231 0.720000 -1.121344,
		] }
		coordIndex [
			2 1 0 -1,
			5 6 4 -1,
			2 7 3 -1,
			1 4 0 -1,
			3 5 1 -1,
			0 6 2 -1,
			2 3 1 -1,
			5 7 6 -1,
			2 6 7 -1,
			1 5 4 -1,
			3 7 5 -1,
			0 4 6 -1,
		]
		normal Normal { vector [
			-0.577330 -0.577360 0.577360,
			0.577350 -0.577323 0.577378,
			-0.577350 -0.577323 -0.577378,
			0.577330 -0.577360 -0.577360,
			-0.577341 0.577341 0.577369,
			0.577339 0.577342 0.577369,
			-0.577339 0.577342 -0.577370,
			0.577341 0.577341 -0.577369,
		] }
		normalPerVertex TRUE
		solid TRUE
	}
	appearance Appearance {
		material Material {
			diffuseColor 0.0612 0.0666 0.0704
			transparency 0.0000
			shininess 0.6000
		}
	}
}

Shape # Material: Material.002
{
	geometry IndexedFaceSet {
		coord Coordinate { point [
			-4.990184 0.320000 -0.003847,
			-4.517532 0.320000 -0.003847,
			-4.990184 0.320000 -1.121344,
			-4.517532 0.320000 -1.121344,
			-4.990184 0.720000 -0.003847,
			-4.517532 0.720000 -0.003847,
			-4.990184 0.720000 -1.121344,
			-4.517532 0.720000 -1.121344,
		] }
		coordIndex [
			2 1 0 -1,
			5 6 4 -1,
			2 7 3 -1,
			1 4 0 -1,
			3 5 1 -1,
			0 6 2 -1,
			2 3 1 -1,
			5 7 6 -1,
			2 6 7 -1,
			1 5 4 -1,
			3 7 5 -1,
			0 4 6 -1,
		]
		normal Normal { vector [
			-0.577330 -0.577360 0.577360,
			0.577350 -0.577323 0.577378,
			-0.577350 -0.577323 -0.577378,
			0.577330 -0.577360 -0.577360,
			-0.577341 0.577341 0.577369,
			0.577339 0.577342 0.577369,
			-0.577339 0.577342 -0.577370,
			0.577341 0.577341 -0.577369,
		] }
		normalPerVertex TRUE
		solid TRUE
	}
	appearance Appearance {
		material Material {
			diffuseColor 0.6654 0.4508 0.2582
			transparency 0.0000
			shininess 0.6000
		}
	}
}

