#VRML V2.0 utf8
# Exportiert mit Blender-WRL-Export (The Smart Assistant)

Shape # Material: m20-9990345_color_1.004
{
	geometry IndexedFaceSet {
		coord Coordinate { point [
			-2.850000 -1.080000 2.320000,
			-2.950001 -1.080000 2.220000,
			-2.669200 -1.080000 1.939200,
			-2.950001 -1.080000 1.404000,
			-2.669200 -1.080000 1.684800,
			-2.850000 -1.080000 1.304000,
			-2.234000 -1.080000 1.304000,
			-2.414800 -1.080000 1.684800,
			-2.134001 -1.080000 1.404000,
			-2.134001 -1.080000 2.220000,
			-2.414800 -1.080000 1.939200,
			-2.234000 -1.080000 2.320000,
			-3.050000 -0.980000 2.120000,
			-3.050000 -0.980000 1.504000,
			-3.050000 -0.404000 1.504000,
			-2.850000 -0.304000 1.304000,
			-2.950001 -0.304000 1.404000,
			-2.234000 -0.304000 1.304000,
			-2.234000 -0.304000 1.504000,
			-2.850000 -0.304000 2.320000,
			-2.850000 -0.304000 2.120000,
			-2.234000 -0.304000 2.320000,
			-2.234000 -0.304000 2.120000,
			-2.850000 -0.304000 1.504000,
			-2.950001 -0.304000 2.220000,
			-2.669200 -0.304000 1.684800,
			-2.414800 -0.304000 1.684800,
			-2.414800 -0.304000 1.939200,
			-2.669200 -0.304000 1.939200,
			-2.134001 -0.304000 2.220000,
			-2.134001 -0.304000 1.404000,
			-3.050000 -0.404000 2.120000,
			-2.034000 -0.404000 1.504000,
			-2.034000 -0.980000 1.504000,
			-2.034000 -0.980000 2.120000,
			-2.034000 -0.404000 2.120000,
			-2.669200 -1.080000 1.817931,
			-2.536069 -1.080000 1.684800,
			-2.414800 -1.080000 1.817931,
			-2.536069 -1.080000 1.939200,
			-2.491814 -0.304000 1.684800,
			-2.414800 -0.304000 1.862186,
			-2.491814 -0.304000 1.939200,
			-2.669200 -0.304000 1.862186,
			-1.834000 -1.080000 2.320000,
			-1.934000 -1.080000 2.220000,
			-1.653201 -1.080000 1.939200,
			-1.934000 -1.080000 1.404000,
			-1.653201 -1.080000 1.684800,
			-1.834000 -1.080000 1.304000,
			-1.218001 -1.080000 1.304000,
			-1.398800 -1.080000 1.684800,
			-1.118001 -1.080000 1.404000,
			-1.118001 -1.080000 2.220000,
			-1.398800 -1.080000 1.939200,
			-1.218001 -1.080000 2.320000,
			-2.034000 -0.980000 2.120000,
			-2.034000 -0.980000 1.504000,
			-2.034000 -0.404000 1.504000,
			-1.834000 -0.304000 1.304000,
			-1.934000 -0.304000 1.404000,
			-1.218001 -0.304000 1.304000,
			-1.218001 -0.304000 1.504000,
			-1.834000 -0.304000 2.320000,
			-1.834000 -0.304000 2.120000,
			-1.218001 -0.304000 2.320000,
			-1.218001 -0.304000 2.120000,
			-1.834000 -0.304000 1.504000,
			-1.934000 -0.304000 2.220000,
			-1.653201 -0.304000 1.684800,
			-1.398800 -0.304000 1.684800,
			-1.398800 -0.304000 1.939200,
			-1.653201 -0.304000 1.939200,
			-1.118001 -0.304000 2.220000,
			-1.118001 -0.304000 1.404000,
			-2.034000 -0.404000 2.120000,
			-1.018000 -0.404000 1.504000,
			-1.018000 -0.980000 1.504000,
			-1.018000 -0.980000 2.120000,
			-1.018000 -0.404000 2.120000,
			-1.653201 -1.080000 1.817931,
			-1.520069 -1.080000 1.684800,
			-1.398800 -1.080000 1.817931,
			-1.520069 -1.080000 1.939200,
			-1.475814 -0.304000 1.684800,
			-1.398800 -0.304000 1.862186,
			-1.475814 -0.304000 1.939200,
			-1.653201 -0.304000 1.862186,
			-0.818000 -1.080000 2.320000,
			-0.918000 -1.080000 2.220000,
			-0.637200 -1.080000 1.939200,
			-0.918000 -1.080000 1.404000,
			-0.637200 -1.080000 1.684800,
			-0.818000 -1.080000 1.304000,
			-0.202000 -1.080000 1.304000,
			-0.382801 -1.080000 1.684800,
			-0.102000 -1.080000 1.404000,
			-0.102000 -1.080000 2.220000,
			-0.382801 -1.080000 1.939200,
			-0.202000 -1.080000 2.320000,
			-1.018000 -0.980000 2.120000,
			-1.018000 -0.980000 1.504000,
			-1.018000 -0.404000 1.504000,
			-0.818000 -0.304000 1.304000,
			-0.918000 -0.304000 1.404000,
			-0.202000 -0.304000 1.304000,
			-0.202000 -0.304000 1.504000,
			-0.818000 -0.304000 2.320000,
			-0.818000 -0.304000 2.120000,
			-0.202000 -0.304000 2.320000,
			-0.202000 -0.304000 2.120000,
			-0.818000 -0.304000 1.504000,
			-0.918000 -0.304000 2.220000,
			-0.637200 -0.304000 1.684800,
			-0.382801 -0.304000 1.684800,
			-0.382801 -0.304000 1.939200,
			-0.637200 -0.304000 1.939200,
			-0.102000 -0.304000 2.220000,
			-0.102000 -0.304000 1.404000,
			-1.018000 -0.404000 2.120000,
			-0.002001 -0.404000 1.504000,
			-0.002001 -0.980000 1.504000,
			-0.002001 -0.980000 2.120000,
			-0.002001 -0.404000 2.120000,
			-0.637200 -1.080000 1.817931,
			-0.504069 -1.080000 1.684800,
			-0.382801 -1.080000 1.817931,
			-0.504069 -1.080000 1.939200,
			-0.459814 -0.304000 1.684800,
			-0.382801 -0.304000 1.862186,
			-0.459814 -0.304000 1.939200,
			-0.637200 -0.304000 1.862186,
			0.197999 -1.080000 2.320000,
			0.098000 -1.080000 2.220000,
			0.378800 -1.080000 1.939200,
			0.098000 -1.080000 1.404000,
			0.378800 -1.080000 1.684800,
			0.197999 -1.080000 1.304000,
			0.814000 -1.080000 1.304000,
			0.633199 -1.080000 1.684800,
			0.914000 -1.080000 1.404000,
			0.914000 -1.080000 2.220000,
			0.633199 -1.080000 1.939200,
			0.814000 -1.080000 2.320000,
			-0.002001 -0.980000 2.120000,
			-0.002001 -0.980000 1.504000,
			-0.002001 -0.404000 1.504000,
			0.197999 -0.304000 1.304000,
			0.098000 -0.304000 1.404000,
			0.814000 -0.304000 1.304000,
			0.814000 -0.304000 1.504000,
			0.197999 -0.304000 2.320000,
			0.197999 -0.304000 2.120000,
			0.814000 -0.304000 2.320000,
			0.814000 -0.304000 2.120000,
			0.197999 -0.304000 1.504000,
			0.098000 -0.304000 2.220000,
			0.378800 -0.304000 1.684800,
			0.633199 -0.304000 1.684800,
			0.633199 -0.304000 1.939200,
			0.378800 -0.304000 1.939200,
			0.914000 -0.304000 2.220000,
			0.914000 -0.304000 1.404000,
			-0.002001 -0.404000 2.120000,
			1.014000 -0.404000 1.504000,
			1.014000 -0.980000 1.504000,
			1.014000 -0.980000 2.120000,
			1.014000 -0.404000 2.120000,
			0.378800 -1.080000 1.817931,
			0.511931 -1.080000 1.684800,
			0.633199 -1.080000 1.817931,
			0.511931 -1.080000 1.939200,
			0.556186 -0.304000 1.684800,
			0.633199 -0.304000 1.862186,
			0.556186 -0.304000 1.939200,
			0.378800 -0.304000 1.862186,
			1.213999 -1.080000 2.320000,
			1.114000 -1.080000 2.220000,
			1.394799 -1.080000 1.939200,
			1.114000 -1.080000 1.404000,
			1.394799 -1.080000 1.684800,
			1.213999 -1.080000 1.304000,
			1.829999 -1.080000 1.304000,
			1.649199 -1.080000 1.684800,
			1.929999 -1.080000 1.404000,
			1.929999 -1.080000 2.220000,
			1.649199 -1.080000 1.939200,
			1.829999 -1.080000 2.320000,
			1.014000 -0.980000 2.120000,
			1.014000 -0.980000 1.504000,
			1.014000 -0.404000 1.504000,
			1.213999 -0.304000 1.304000,
			1.114000 -0.304000 1.404000,
			1.829999 -0.304000 1.304000,
			1.829999 -0.304000 1.504000,
			1.213999 -0.304000 2.320000,
			1.213999 -0.304000 2.120000,
			1.829999 -0.304000 2.320000,
			1.829999 -0.304000 2.120000,
			1.213999 -0.304000 1.504000,
			1.114000 -0.304000 2.220000,
			1.394799 -0.304000 1.684800,
			1.649199 -0.304000 1.684800,
			1.649199 -0.304000 1.939200,
			1.394799 -0.304000 1.939200,
			1.929999 -0.304000 2.220000,
			1.929999 -0.304000 1.404000,
			1.014000 -0.404000 2.120000,
			2.029999 -0.404000 1.504000,
			2.029999 -0.980000 1.504000,
			2.029999 -0.980000 2.120000,
			2.029999 -0.404000 2.120000,
			1.394799 -1.080000 1.817931,
			1.527931 -1.080000 1.684800,
			1.649199 -1.080000 1.817931,
			1.527931 -1.080000 1.939200,
			1.572186 -0.304000 1.684800,
			1.649199 -0.304000 1.862186,
			1.572186 -0.304000 1.939200,
			1.394799 -0.304000 1.862186,
			2.230000 -1.080000 2.320000,
			2.129999 -1.080000 2.220000,
			2.410800 -1.080000 1.939200,
			2.129999 -1.080000 1.404000,
			2.410800 -1.080000 1.684800,
			2.230000 -1.080000 1.304000,
			2.846000 -1.080000 1.304000,
			2.665199 -1.080000 1.684800,
			2.946000 -1.080000 1.404000,
			2.946000 -1.080000 2.220000,
			2.665199 -1.080000 1.939200,
			2.846000 -1.080000 2.320000,
			2.029999 -0.980000 2.120000,
			2.029999 -0.980000 1.504000,
			2.029999 -0.404000 1.504000,
			2.230000 -0.304000 1.304000,
			2.129999 -0.304000 1.404000,
			2.846000 -0.304000 1.304000,
			2.846000 -0.304000 1.504000,
			2.230000 -0.304000 2.320000,
			2.230000 -0.304000 2.120000,
			2.846000 -0.304000 2.320000,
			2.846000 -0.304000 2.120000,
			2.230000 -0.304000 1.504000,
			2.129999 -0.304000 2.220000,
			2.410800 -0.304000 1.684800,
			2.665199 -0.304000 1.684800,
			2.665199 -0.304000 1.939200,
			2.410800 -0.304000 1.939200,
			2.946000 -0.304000 2.220000,
			2.946000 -0.304000 1.404000,
			2.029999 -0.404000 2.120000,
			3.046000 -0.404000 1.504000,
			3.046000 -0.980000 1.504000,
			3.046000 -0.980000 2.120000,
			3.046000 -0.404000 2.120000,
			2.410800 -1.080000 1.817931,
			2.543931 -1.080000 1.684800,
			2.665199 -1.080000 1.817931,
			2.543931 -1.080000 1.939200,
			2.588186 -0.304000 1.684800,
			2.665199 -0.304000 1.862186,
			2.588186 -0.304000 1.939200,
			2.410800 -0.304000 1.862186,
		] }
		coordIndex [
			0 1 2 -1,
			2 1 3 -1,
			3 36 2 -1,
			4 3 5 -1,
			4 5 6 -1,
			6 37 4 -1,
			8 7 6 -1,
			9 7 8 -1,
			9 38 7 -1,
			11 10 9 -1,
			11 39 10 -1,
			11 0 2 -1,
			12 13 1 -1,
			1 13 3 -1,
			3 13 5 -1,
			5 13 14 -1,
			5 14 15 -1,
			15 14 16 -1,
			17 6 15 -1,
			15 6 5 -1,
			21 19 11 -1,
			11 19 0 -1,
			15 16 23 -1,
			23 16 24 -1,
			23 24 20 -1,
			20 24 19 -1,
			18 40 26 -1,
			41 18 26 -1,
			22 18 27 -1,
			42 22 27 -1,
			22 28 20 -1,
			43 20 28 -1,
			25 23 20 -1,
			25 18 23 -1,
			21 29 22 -1,
			22 29 30 -1,
			22 30 18 -1,
			18 30 17 -1,
			14 31 16 -1,
			16 31 24 -1,
			31 13 12 -1,
			24 31 19 -1,
			19 31 12 -1,
			19 12 0 -1,
			0 12 1 -1,
			30 32 17 -1,
			17 32 33 -1,
			17 33 6 -1,
			6 33 8 -1,
			9 8 34 -1,
			34 8 33 -1,
			29 21 35 -1,
			35 21 11 -1,
			35 11 34 -1,
			34 11 9 -1,
			35 32 29 -1,
			29 32 30 -1,
			32 35 33 -1,
			33 35 34 -1,
			19 22 20 -1,
			17 23 18 -1,
			44 45 46 -1,
			46 45 47 -1,
			47 80 46 -1,
			48 47 49 -1,
			48 49 50 -1,
			50 81 48 -1,
			52 51 50 -1,
			53 51 52 -1,
			53 82 51 -1,
			55 54 53 -1,
			55 83 54 -1,
			55 44 46 -1,
			56 57 45 -1,
			45 57 47 -1,
			47 57 49 -1,
			49 57 58 -1,
			49 58 59 -1,
			59 58 60 -1,
			61 50 59 -1,
			59 50 49 -1,
			65 63 55 -1,
			55 63 44 -1,
			59 60 67 -1,
			67 60 68 -1,
			67 68 64 -1,
			64 68 63 -1,
			62 84 70 -1,
			85 62 70 -1,
			66 62 71 -1,
			86 66 71 -1,
			66 72 64 -1,
			87 64 72 -1,
			69 67 64 -1,
			69 62 67 -1,
			65 73 66 -1,
			66 73 74 -1,
			66 74 62 -1,
			62 74 61 -1,
			58 75 60 -1,
			60 75 68 -1,
			75 57 56 -1,
			68 75 63 -1,
			63 75 56 -1,
			63 56 44 -1,
			44 56 45 -1,
			74 76 61 -1,
			61 76 77 -1,
			61 77 50 -1,
			50 77 52 -1,
			53 52 78 -1,
			78 52 77 -1,
			73 65 79 -1,
			79 65 55 -1,
			79 55 78 -1,
			78 55 53 -1,
			79 76 73 -1,
			73 76 74 -1,
			76 79 77 -1,
			77 79 78 -1,
			63 66 64 -1,
			61 67 62 -1,
			88 89 90 -1,
			90 89 91 -1,
			91 124 90 -1,
			92 91 93 -1,
			92 93 94 -1,
			94 125 92 -1,
			96 95 94 -1,
			97 95 96 -1,
			97 126 95 -1,
			99 98 97 -1,
			99 127 98 -1,
			99 88 90 -1,
			100 101 89 -1,
			89 101 91 -1,
			91 101 93 -1,
			93 101 102 -1,
			93 102 103 -1,
			103 102 104 -1,
			105 94 103 -1,
			103 94 93 -1,
			109 107 99 -1,
			99 107 88 -1,
			103 104 111 -1,
			111 104 112 -1,
			111 112 108 -1,
			108 112 107 -1,
			106 128 114 -1,
			129 106 114 -1,
			110 106 115 -1,
			130 110 115 -1,
			110 116 108 -1,
			131 108 116 -1,
			113 111 108 -1,
			113 106 111 -1,
			109 117 110 -1,
			110 117 118 -1,
			110 118 106 -1,
			106 118 105 -1,
			102 119 104 -1,
			104 119 112 -1,
			119 101 100 -1,
			112 119 107 -1,
			107 119 100 -1,
			107 100 88 -1,
			88 100 89 -1,
			118 120 105 -1,
			105 120 121 -1,
			105 121 94 -1,
			94 121 96 -1,
			97 96 122 -1,
			122 96 121 -1,
			117 109 123 -1,
			123 109 99 -1,
			123 99 122 -1,
			122 99 97 -1,
			123 120 117 -1,
			117 120 118 -1,
			120 123 121 -1,
			121 123 122 -1,
			107 110 108 -1,
			105 111 106 -1,
			132 133 134 -1,
			134 133 135 -1,
			135 168 134 -1,
			136 135 137 -1,
			136 137 138 -1,
			138 169 136 -1,
			140 139 138 -1,
			141 139 140 -1,
			141 170 139 -1,
			143 142 141 -1,
			143 171 142 -1,
			143 132 134 -1,
			144 145 133 -1,
			133 145 135 -1,
			135 145 137 -1,
			137 145 146 -1,
			137 146 147 -1,
			147 146 148 -1,
			149 138 147 -1,
			147 138 137 -1,
			153 151 143 -1,
			143 151 132 -1,
			147 148 155 -1,
			155 148 156 -1,
			155 156 152 -1,
			152 156 151 -1,
			150 172 158 -1,
			173 150 158 -1,
			154 150 159 -1,
			174 154 159 -1,
			154 160 152 -1,
			175 152 160 -1,
			157 155 152 -1,
			157 150 155 -1,
			153 161 154 -1,
			154 161 162 -1,
			154 162 150 -1,
			150 162 149 -1,
			146 163 148 -1,
			148 163 156 -1,
			163 145 144 -1,
			156 163 151 -1,
			151 163 144 -1,
			151 144 132 -1,
			132 144 133 -1,
			162 164 149 -1,
			149 164 165 -1,
			149 165 138 -1,
			138 165 140 -1,
			141 140 166 -1,
			166 140 165 -1,
			161 153 167 -1,
			167 153 143 -1,
			167 143 166 -1,
			166 143 141 -1,
			167 164 161 -1,
			161 164 162 -1,
			164 167 165 -1,
			165 167 166 -1,
			151 154 152 -1,
			149 155 150 -1,
			176 177 178 -1,
			178 177 179 -1,
			179 212 178 -1,
			180 179 181 -1,
			180 181 182 -1,
			182 213 180 -1,
			184 183 182 -1,
			185 183 184 -1,
			185 214 183 -1,
			187 186 185 -1,
			187 215 186 -1,
			187 176 178 -1,
			188 189 177 -1,
			177 189 179 -1,
			179 189 181 -1,
			181 189 190 -1,
			181 190 191 -1,
			191 190 192 -1,
			193 182 191 -1,
			191 182 181 -1,
			197 195 187 -1,
			187 195 176 -1,
			191 192 199 -1,
			199 192 200 -1,
			199 200 196 -1,
			196 200 195 -1,
			194 216 202 -1,
			217 194 202 -1,
			198 194 203 -1,
			218 198 203 -1,
			198 204 196 -1,
			219 196 204 -1,
			201 199 196 -1,
			201 194 199 -1,
			197 205 198 -1,
			198 205 206 -1,
			198 206 194 -1,
			194 206 193 -1,
			190 207 192 -1,
			192 207 200 -1,
			207 189 188 -1,
			200 207 195 -1,
			195 207 188 -1,
			195 188 176 -1,
			176 188 177 -1,
			206 208 193 -1,
			193 208 209 -1,
			193 209 182 -1,
			182 209 184 -1,
			185 184 210 -1,
			210 184 209 -1,
			205 197 211 -1,
			211 197 187 -1,
			211 187 210 -1,
			210 187 185 -1,
			211 208 205 -1,
			205 208 206 -1,
			208 211 209 -1,
			209 211 210 -1,
			195 198 196 -1,
			193 199 194 -1,
			220 221 222 -1,
			222 221 223 -1,
			223 256 222 -1,
			224 223 225 -1,
			224 225 226 -1,
			226 257 224 -1,
			228 227 226 -1,
			229 227 228 -1,
			229 258 227 -1,
			231 230 229 -1,
			231 259 230 -1,
			231 220 222 -1,
			232 233 221 -1,
			221 233 223 -1,
			223 233 225 -1,
			225 233 234 -1,
			225 234 235 -1,
			235 234 236 -1,
			237 226 235 -1,
			235 226 225 -1,
			241 239 231 -1,
			231 239 220 -1,
			235 236 243 -1,
			243 236 244 -1,
			243 244 240 -1,
			240 244 239 -1,
			238 260 246 -1,
			261 238 246 -1,
			242 238 247 -1,
			262 242 247 -1,
			242 248 240 -1,
			263 240 248 -1,
			245 243 240 -1,
			245 238 243 -1,
			241 249 242 -1,
			242 249 250 -1,
			242 250 238 -1,
			238 250 237 -1,
			234 251 236 -1,
			236 251 244 -1,
			251 233 232 -1,
			244 251 239 -1,
			239 251 232 -1,
			239 232 220 -1,
			220 232 221 -1,
			250 252 237 -1,
			237 252 253 -1,
			237 253 226 -1,
			226 253 228 -1,
			229 228 254 -1,
			254 228 253 -1,
			249 241 255 -1,
			255 241 231 -1,
			255 231 254 -1,
			254 231 229 -1,
			255 252 249 -1,
			249 252 250 -1,
			252 255 253 -1,
			253 255 254 -1,
			239 242 240 -1,
			237 243 238 -1,
			3 4 36 -1,
			6 7 37 -1,
			9 10 38 -1,
			11 2 39 -1,
			18 25 40 -1,
			41 27 18 -1,
			42 28 22 -1,
			43 25 20 -1,
			31 14 13 -1,
			19 21 22 -1,
			17 15 23 -1,
			47 48 80 -1,
			50 51 81 -1,
			53 54 82 -1,
			55 46 83 -1,
			62 69 84 -1,
			85 71 62 -1,
			86 72 66 -1,
			87 69 64 -1,
			75 58 57 -1,
			63 65 66 -1,
			61 59 67 -1,
			91 92 124 -1,
			94 95 125 -1,
			97 98 126 -1,
			99 90 127 -1,
			106 113 128 -1,
			129 115 106 -1,
			130 116 110 -1,
			131 113 108 -1,
			119 102 101 -1,
			107 109 110 -1,
			105 103 111 -1,
			135 136 168 -1,
			138 139 169 -1,
			141 142 170 -1,
			143 134 171 -1,
			150 157 172 -1,
			173 159 150 -1,
			174 160 154 -1,
			175 157 152 -1,
			163 146 145 -1,
			151 153 154 -1,
			149 147 155 -1,
			179 180 212 -1,
			182 183 213 -1,
			185 186 214 -1,
			187 178 215 -1,
			194 201 216 -1,
			217 203 194 -1,
			218 204 198 -1,
			219 201 196 -1,
			207 190 189 -1,
			195 197 198 -1,
			193 191 199 -1,
			223 224 256 -1,
			226 227 257 -1,
			229 230 258 -1,
			231 222 259 -1,
			238 245 260 -1,
			261 247 238 -1,
			262 248 242 -1,
			263 245 240 -1,
			251 234 233 -1,
			239 241 242 -1,
			237 235 243 -1,
		]
		normal Normal { vector [
			-0.297102 -0.630259 0.717289,
			-0.573236 -0.705972 0.415937,
			0.000000 -1.000000 0.000000,
			-0.573248 -0.705958 -0.415944,
			0.000000 -1.000000 0.000000,
			-0.297109 -0.630253 -0.717292,
			0.297098 -0.630251 -0.717298,
			0.000000 -1.000000 0.000000,
			0.573236 -0.705972 -0.415937,
			0.573248 -0.705958 0.415945,
			0.000000 -1.000000 0.000000,
			0.297105 -0.630245 0.717300,
			-0.905411 -0.300194 0.300191,
			-0.905413 -0.300189 -0.300189,
			-0.905411 0.300194 -0.300191,
			-0.297092 0.630272 -0.717282,
			-0.573236 0.705972 -0.415937,
			0.297106 0.630260 -0.717287,
			0.000000 1.000000 -0.000000,
			-0.297103 0.630253 0.717295,
			0.000000 1.000000 -0.000000,
			0.297095 0.630280 0.717274,
			0.000000 1.000000 -0.000000,
			0.000000 1.000000 -0.000000,
			-0.573241 0.705967 0.415939,
			0.000000 1.000000 -0.000000,
			0.000000 1.000000 -0.000000,
			0.000000 1.000000 -0.000000,
			0.000000 1.000000 -0.000000,
			0.573236 0.705972 0.415937,
			0.573241 0.705967 -0.415939,
			-0.905413 0.300189 0.300189,
			0.905410 0.300194 -0.300194,
			0.905414 -0.300190 -0.300187,
			0.905410 -0.300194 0.300194,
			0.905414 0.300190 0.300187,
			0.000000 -1.000000 0.000000,
			0.000000 -1.000000 0.000000,
			0.000000 -1.000000 0.000000,
			0.000000 -1.000000 0.000000,
			0.000000 1.000000 -0.000000,
			0.000000 1.000000 -0.000000,
			0.000000 1.000000 -0.000000,
			0.000000 1.000000 -0.000000,
			-0.297102 -0.630259 0.717289,
			-0.573236 -0.705972 0.415937,
			0.000000 -1.000000 0.000000,
			-0.573248 -0.705958 -0.415944,
			0.000000 -1.000000 0.000000,
			-0.297109 -0.630253 -0.717292,
			0.297098 -0.630251 -0.717298,
			0.000000 -1.000000 0.000000,
			0.573236 -0.705972 -0.415937,
			0.573249 -0.705958 0.415945,
			0.000000 -1.000000 0.000000,
			0.297105 -0.630245 0.717300,
			-0.905411 -0.300194 0.300191,
			-0.905413 -0.300189 -0.300189,
			-0.905411 0.300194 -0.300191,
			-0.297092 0.630272 -0.717282,
			-0.573236 0.705972 -0.415937,
			0.297106 0.630260 -0.717287,
			0.000000 1.000000 -0.000000,
			-0.297103 0.630253 0.717295,
			0.000000 1.000000 -0.000000,
			0.297095 0.630280 0.717274,
			0.000000 1.000000 -0.000000,
			0.000000 1.000000 -0.000000,
			-0.573241 0.705967 0.415939,
			0.000000 1.000000 -0.000000,
			0.000000 1.000000 -0.000000,
			0.000000 1.000000 -0.000000,
			0.000000 1.000000 -0.000000,
			0.573236 0.705972 0.415937,
			0.573241 0.705967 -0.415939,
			-0.905413 0.300189 0.300189,
			0.905410 0.300194 -0.300194,
			0.905414 -0.300190 -0.300187,
			0.905410 -0.300194 0.300194,
			0.905414 0.300190 0.300187,
			0.000000 -1.000000 0.000000,
			0.000000 -1.000000 0.000000,
			0.000000 -1.000000 0.000000,
			0.000000 -1.000000 0.000000,
			0.000000 1.000000 -0.000000,
			0.000000 1.000000 -0.000000,
			0.000000 1.000000 -0.000000,
			0.000000 1.000000 -0.000000,
			-0.297102 -0.630259 0.717289,
			-0.573236 -0.705972 0.415937,
			0.000000 -1.000000 0.000000,
			-0.573248 -0.705958 -0.415944,
			0.000000 -1.000000 0.000000,
			-0.297109 -0.630253 -0.717292,
			0.297098 -0.630251 -0.717298,
			0.000000 -1.000000 0.000000,
			0.573236 -0.705972 -0.415937,
			0.573249 -0.705958 0.415945,
			0.000000 -1.000000 0.000000,
			0.297105 -0.630245 0.717300,
			-0.905411 -0.300194 0.300191,
			-0.905413 -0.300189 -0.300189,
			-0.905411 0.300194 -0.300191,
			-0.297092 0.630272 -0.717282,
			-0.573236 0.705972 -0.415937,
			0.297106 0.630260 -0.717287,
			0.000000 1.000000 -0.000000,
			-0.297103 0.630253 0.717295,
			0.000000 1.000000 -0.000000,
			0.297095 0.630280 0.717274,
			0.000000 1.000000 -0.000000,
			0.000000 1.000000 -0.000000,
			-0.573241 0.705967 0.415939,
			0.000000 1.000000 -0.000000,
			0.000000 1.000000 -0.000000,
			0.000000 1.000000 -0.000000,
			0.000000 1.000000 -0.000000,
			0.573236 0.705972 0.415937,
			0.573241 0.705967 -0.415939,
			-0.905413 0.300189 0.300189,
			0.905410 0.300194 -0.300194,
			0.905414 -0.300190 -0.300187,
			0.905410 -0.300194 0.300194,
			0.905414 0.300190 0.300187,
			0.000000 -1.000000 0.000000,
			0.000000 -1.000000 0.000000,
			0.000000 -1.000000 0.000000,
			0.000000 -1.000000 0.000000,
			0.000000 1.000000 -0.000000,
			0.000000 1.000000 -0.000000,
			0.000000 1.000000 -0.000000,
			0.000000 1.000000 -0.000000,
			-0.297102 -0.630259 0.717289,
			-0.573236 -0.705972 0.415937,
			0.000000 -1.000000 0.000000,
			-0.573248 -0.705958 -0.415944,
			0.000000 -1.000000 0.000000,
			-0.297109 -0.630253 -0.717292,
			0.297098 -0.630251 -0.717298,
			0.000000 -1.000000 0.000000,
			0.573236 -0.705972 -0.415937,
			0.573248 -0.705958 0.415945,
			0.000000 -1.000000 0.000000,
			0.297105 -0.630245 0.717301,
			-0.905411 -0.300194 0.300191,
			-0.905413 -0.300189 -0.300189,
			-0.905411 0.300194 -0.300191,
			-0.297092 0.630272 -0.717282,
			-0.573236 0.705972 -0.415937,
			0.297106 0.630260 -0.717287,
			0.000000 1.000000 -0.000000,
			-0.297103 0.630253 0.717295,
			0.000000 1.000000 -0.000000,
			0.297095 0.630280 0.717274,
			0.000000 1.000000 -0.000000,
			0.000000 1.000000 -0.000000,
			-0.573241 0.705967 0.415939,
			0.000000 1.000000 -0.000000,
			0.000000 1.000000 -0.000000,
			0.000000 1.000000 -0.000000,
			0.000000 1.000000 -0.000000,
			0.573236 0.705972 0.415937,
			0.573241 0.705967 -0.415939,
			-0.905413 0.300189 0.300189,
			0.905410 0.300194 -0.300194,
			0.905414 -0.300190 -0.300187,
			0.905410 -0.300194 0.300194,
			0.905414 0.300190 0.300187,
			0.000000 -1.000000 0.000000,
			0.000000 -1.000000 0.000000,
			0.000000 -1.000000 0.000000,
			0.000000 -1.000000 0.000000,
			0.000000 1.000000 -0.000000,
			0.000000 1.000000 -0.000000,
			0.000000 1.000000 -0.000000,
			0.000000 1.000000 -0.000000,
			-0.297102 -0.630259 0.717289,
			-0.573236 -0.705973 0.415935,
			0.000000 -1.000000 0.000000,
			-0.573248 -0.705959 -0.415943,
			0.000000 -1.000000 0.000000,
			-0.297109 -0.630253 -0.717292,
			0.297098 -0.630251 -0.717298,
			0.000000 -1.000000 0.000000,
			0.573236 -0.705972 -0.415937,
			0.573248 -0.705958 0.415945,
			0.000000 -1.000000 0.000000,
			0.297105 -0.630245 0.717301,
			-0.905411 -0.300194 0.300191,
			-0.905413 -0.300190 -0.300189,
			-0.905411 0.300194 -0.300191,
			-0.297092 0.630272 -0.717282,
			-0.573236 0.705973 -0.415935,
			0.297106 0.630260 -0.717287,
			0.000000 1.000000 -0.000000,
			-0.297103 0.630253 0.717295,
			0.000000 1.000000 -0.000000,
			0.297095 0.630280 0.717274,
			0.000000 1.000000 -0.000000,
			0.000000 1.000000 -0.000000,
			-0.573241 0.705968 0.415937,
			0.000000 1.000000 -0.000000,
			0.000000 1.000000 -0.000000,
			0.000000 1.000000 -0.000000,
			0.000000 1.000000 -0.000000,
			0.573236 0.705972 0.415937,
			0.573241 0.705967 -0.415939,
			-0.905413 0.300190 0.300189,
			0.905410 0.300194 -0.300194,
			0.905414 -0.300190 -0.300187,
			0.905410 -0.300194 0.300194,
			0.905414 0.300190 0.300187,
			0.000000 -1.000000 0.000000,
			0.000000 -1.000000 0.000000,
			0.000000 -1.000000 0.000000,
			0.000000 -1.000000 0.000000,
			0.000000 1.000000 -0.000000,
			0.000000 1.000000 -0.000000,
			0.000000 1.000000 -0.000000,
			0.000000 1.000000 -0.000000,
			-0.297102 -0.630259 0.717289,
			-0.573236 -0.705972 0.415937,
			0.000000 -1.000000 0.000000,
			-0.573248 -0.705958 -0.415944,
			0.000000 -1.000000 0.000000,
			-0.297109 -0.630253 -0.717292,
			0.297098 -0.630251 -0.717298,
			0.000000 -1.000000 0.000000,
			0.573236 -0.705972 -0.415937,
			0.573248 -0.705958 0.415945,
			0.000000 -1.000000 0.000000,
			0.297105 -0.630245 0.717301,
			-0.905411 -0.300194 0.300191,
			-0.905413 -0.300189 -0.300189,
			-0.905411 0.300194 -0.300191,
			-0.297092 0.630272 -0.717282,
			-0.573236 0.705972 -0.415937,
			0.297106 0.630260 -0.717287,
			0.000000 1.000000 -0.000000,
			-0.297103 0.630253 0.717295,
			0.000000 1.000000 -0.000000,
			0.297095 0.630280 0.717274,
			0.000000 1.000000 -0.000000,
			0.000000 1.000000 -0.000000,
			-0.573241 0.705967 0.415939,
			0.000000 1.000000 -0.000000,
			0.000000 1.000000 -0.000000,
			0.000000 1.000000 -0.000000,
			0.000000 1.000000 -0.000000,
			0.573236 0.705972 0.415937,
			0.573241 0.705967 -0.415939,
			-0.905413 0.300189 0.300189,
			0.905410 0.300194 -0.300194,
			0.905414 -0.300190 -0.300187,
			0.905410 -0.300194 0.300194,
			0.905414 0.300190 0.300187,
			0.000000 -1.000000 0.000000,
			0.000000 -1.000000 0.000000,
			0.000000 -1.000000 0.000000,
			0.000000 -1.000000 0.000000,
			0.000000 1.000000 -0.000000,
			0.000000 1.000000 -0.000000,
			0.000000 1.000000 -0.000000,
			0.000000 1.000000 -0.000000,
		] }
		normalPerVertex TRUE
		solid TRUE
	}
	appearance Appearance {
		material Material {
			diffuseColor 0.0102 0.0102 0.0102
			transparency 0.0000
			shininess 0.0000
		}
	}
}

Shape # Material: Gold
{
	geometry IndexedFaceSet {
		coord Coordinate { point [
			-2.608000 1.152000 1.745999,
			-2.608000 1.152000 1.877999,
			-2.669200 -1.080000 1.939200,
			-2.476001 1.152000 1.745999,
			-2.476001 1.152000 1.877999,
			-2.669200 -1.080000 1.684800,
			-2.669200 1.046400 1.939199,
			-2.669200 1.046400 1.684799,
			-2.414800 1.046400 1.939199,
			-2.414800 -1.080000 1.684800,
			-2.414800 1.046400 1.684799,
			-2.669201 -3.414400 1.684800,
			-2.414800 -3.414400 1.684800,
			-2.414800 -1.080000 1.939200,
			-2.669201 -3.414400 1.939200,
			-2.414800 -3.414400 1.939200,
			-2.476001 -3.520000 1.878000,
			-2.476001 -3.520000 1.746000,
			-2.608001 -3.520000 1.878000,
			-2.608001 -3.520000 1.746000,
			-2.669200 -0.304000 1.684800,
			-2.414800 -0.304000 1.684800,
			-2.414800 -0.304000 1.939200,
			-2.669200 -0.304000 1.939200,
			-2.669200 -1.080000 1.817931,
			-2.536069 -1.080000 1.684800,
			-2.414800 -1.080000 1.817931,
			-2.536069 -1.080000 1.939200,
			-2.491814 -0.304000 1.684800,
			-2.414800 -0.304000 1.862186,
			-2.491814 -0.304000 1.939200,
			-2.669200 -0.304000 1.862186,
			-1.592000 1.152000 1.745999,
			-1.592000 1.152000 1.877999,
			-1.653201 -1.080000 1.939200,
			-1.460001 1.152000 1.745999,
			-1.460001 1.152000 1.877999,
			-1.653201 -1.080000 1.684800,
			-1.653201 1.046400 1.939199,
			-1.653201 1.046400 1.684799,
			-1.398800 1.046400 1.939199,
			-1.398800 -1.080000 1.684800,
			-1.398800 1.046400 1.684799,
			-1.653201 -3.414400 1.684800,
			-1.398800 -3.414400 1.684800,
			-1.398800 -1.080000 1.939200,
			-1.653201 -3.414400 1.939200,
			-1.398800 -3.414400 1.939200,
			-1.460001 -3.520000 1.878000,
			-1.460001 -3.520000 1.746000,
			-1.592000 -3.520000 1.878000,
			-1.592000 -3.520000 1.746000,
			-1.653201 -0.304000 1.684800,
			-1.398800 -0.304000 1.684800,
			-1.398800 -0.304000 1.939200,
			-1.653201 -0.304000 1.939200,
			-1.653201 -1.080000 1.817931,
			-1.520069 -1.080000 1.684800,
			-1.398800 -1.080000 1.817931,
			-1.520069 -1.080000 1.939200,
			-1.475814 -0.304000 1.684800,
			-1.398800 -0.304000 1.862186,
			-1.475814 -0.304000 1.939200,
			-1.653201 -0.304000 1.862186,
			-0.576000 1.152000 1.745999,
			-0.576000 1.152000 1.877999,
			-0.637200 -1.080000 1.939200,
			-0.444000 1.152000 1.745999,
			-0.444000 1.152000 1.877999,
			-0.637200 -1.080000 1.684800,
			-0.637200 1.046400 1.939199,
			-0.637200 1.046400 1.684799,
			-0.382800 1.046400 1.939199,
			-0.382801 -1.080000 1.684800,
			-0.382800 1.046400 1.684799,
			-0.637201 -3.414400 1.684800,
			-0.382801 -3.414400 1.684800,
			-0.382801 -1.080000 1.939200,
			-0.637201 -3.414400 1.939200,
			-0.382801 -3.414400 1.939200,
			-0.444001 -3.520000 1.878000,
			-0.444001 -3.520000 1.746000,
			-0.576000 -3.520000 1.878000,
			-0.576000 -3.520000 1.746000,
			-0.637200 -0.304000 1.684800,
			-0.382801 -0.304000 1.684800,
			-0.382801 -0.304000 1.939200,
			-0.637200 -0.304000 1.939200,
			-0.637200 -1.080000 1.817931,
			-0.504069 -1.080000 1.684800,
			-0.382801 -1.080000 1.817931,
			-0.504069 -1.080000 1.939200,
			-0.459814 -0.304000 1.684800,
			-0.382801 -0.304000 1.862186,
			-0.459814 -0.304000 1.939200,
			-0.637200 -0.304000 1.862186,
			0.440000 1.152000 1.745999,
			0.440000 1.152000 1.877999,
			0.378800 -1.080000 1.939200,
			0.572000 1.152000 1.745999,
			0.572000 1.152000 1.877999,
			0.378800 -1.080000 1.684800,
			0.378800 1.046400 1.939199,
			0.378800 1.046400 1.684799,
			0.633200 1.046400 1.939199,
			0.633199 -1.080000 1.684800,
			0.633200 1.046400 1.684799,
			0.378799 -3.414400 1.684800,
			0.633199 -3.414400 1.684800,
			0.633199 -1.080000 1.939200,
			0.378799 -3.414400 1.939200,
			0.633199 -3.414400 1.939200,
			0.571999 -3.520000 1.878000,
			0.571999 -3.520000 1.746000,
			0.440000 -3.520000 1.878000,
			0.440000 -3.520000 1.746000,
			0.378800 -0.304000 1.684800,
			0.633199 -0.304000 1.684800,
			0.633199 -0.304000 1.939200,
			0.378800 -0.304000 1.939200,
			0.378800 -1.080000 1.817931,
			0.511931 -1.080000 1.684800,
			0.633199 -1.080000 1.817931,
			0.511931 -1.080000 1.939200,
			0.556186 -0.304000 1.684800,
			0.633199 -0.304000 1.862186,
			0.556186 -0.304000 1.939200,
			0.378800 -0.304000 1.862186,
			1.456000 1.152000 1.745999,
			1.456000 1.152000 1.877999,
			1.394799 -1.080000 1.939200,
			1.587999 1.152000 1.745999,
			1.587999 1.152000 1.877999,
			1.394799 -1.080000 1.684800,
			1.394799 1.046400 1.939199,
			1.394799 1.046400 1.684799,
			1.649200 1.046400 1.939199,
			1.649199 -1.080000 1.684800,
			1.649200 1.046400 1.684799,
			1.394799 -3.414400 1.684800,
			1.649199 -3.414400 1.684800,
			1.649199 -1.080000 1.939200,
			1.394799 -3.414400 1.939200,
			1.649199 -3.414400 1.939200,
			1.587999 -3.520000 1.878000,
			1.587999 -3.520000 1.746000,
			1.456000 -3.520000 1.878000,
			1.456000 -3.520000 1.746000,
			1.394799 -0.304000 1.684800,
			1.649199 -0.304000 1.684800,
			1.649199 -0.304000 1.939200,
			1.394799 -0.304000 1.939200,
			1.394799 -1.080000 1.817931,
			1.527931 -1.080000 1.684800,
			1.649199 -1.080000 1.817931,
			1.527931 -1.080000 1.939200,
			1.572186 -0.304000 1.684800,
			1.649199 -0.304000 1.862186,
			1.572186 -0.304000 1.939200,
			1.394799 -0.304000 1.862186,
			2.472000 1.152000 1.745999,
			2.472000 1.152000 1.877999,
			2.410800 -1.080000 1.939200,
			2.604000 1.152000 1.745999,
			2.604000 1.152000 1.877999,
			2.410800 -1.080000 1.684800,
			2.410800 1.046400 1.939199,
			2.410800 1.046400 1.684799,
			2.665200 1.046400 1.939199,
			2.665199 -1.080000 1.684800,
			2.665200 1.046400 1.684799,
			2.410799 -3.414400 1.684800,
			2.665199 -3.414400 1.684800,
			2.665199 -1.080000 1.939200,
			2.410799 -3.414400 1.939200,
			2.665199 -3.414400 1.939200,
			2.603999 -3.520000 1.878000,
			2.603999 -3.520000 1.746000,
			2.472000 -3.520000 1.878000,
			2.472000 -3.520000 1.746000,
			2.410800 -0.304000 1.684800,
			2.665199 -0.304000 1.684800,
			2.665199 -0.304000 1.939200,
			2.410800 -0.304000 1.939200,
			2.410800 -1.080000 1.817931,
			2.543931 -1.080000 1.684800,
			2.665199 -1.080000 1.817931,
			2.543931 -1.080000 1.939200,
			2.588186 -0.304000 1.684800,
			2.665199 -0.304000 1.862186,
			2.588186 -0.304000 1.939200,
			2.410800 -0.304000 1.862186,
		] }
		coordIndex [
			0 1 3 -1,
			3 1 4 -1,
			1 0 6 -1,
			6 0 7 -1,
			4 1 8 -1,
			8 1 6 -1,
			3 4 10 -1,
			10 4 8 -1,
			0 3 7 -1,
			7 3 10 -1,
			5 25 11 -1,
			7 28 20 -1,
			21 28 10 -1,
			12 25 9 -1,
			7 31 6 -1,
			24 5 11 -1,
			31 23 6 -1,
			14 24 11 -1,
			2 14 27 -1,
			30 6 23 -1,
			22 8 30 -1,
			27 15 13 -1,
			10 29 21 -1,
			26 12 9 -1,
			29 8 22 -1,
			15 26 13 -1,
			16 17 15 -1,
			15 17 12 -1,
			18 19 16 -1,
			16 19 17 -1,
			19 18 11 -1,
			11 18 14 -1,
			17 19 12 -1,
			12 19 11 -1,
			18 16 14 -1,
			14 16 15 -1,
			32 33 35 -1,
			35 33 36 -1,
			33 32 38 -1,
			38 32 39 -1,
			36 33 40 -1,
			40 33 38 -1,
			35 36 42 -1,
			42 36 40 -1,
			32 35 39 -1,
			39 35 42 -1,
			37 57 43 -1,
			39 60 52 -1,
			53 60 42 -1,
			44 57 41 -1,
			39 63 38 -1,
			56 37 43 -1,
			63 55 38 -1,
			46 56 43 -1,
			34 46 59 -1,
			62 38 55 -1,
			54 40 62 -1,
			59 47 45 -1,
			42 61 53 -1,
			58 44 41 -1,
			61 40 54 -1,
			47 58 45 -1,
			48 49 47 -1,
			47 49 44 -1,
			50 51 48 -1,
			48 51 49 -1,
			51 50 43 -1,
			43 50 46 -1,
			49 51 44 -1,
			44 51 43 -1,
			50 48 46 -1,
			46 48 47 -1,
			64 65 67 -1,
			67 65 68 -1,
			65 64 70 -1,
			70 64 71 -1,
			68 65 72 -1,
			72 65 70 -1,
			67 68 74 -1,
			74 68 72 -1,
			64 67 71 -1,
			71 67 74 -1,
			69 89 75 -1,
			71 92 84 -1,
			85 92 74 -1,
			76 89 73 -1,
			71 95 70 -1,
			88 69 75 -1,
			95 87 70 -1,
			78 88 75 -1,
			66 78 91 -1,
			94 70 87 -1,
			86 72 94 -1,
			91 79 77 -1,
			74 93 85 -1,
			90 76 73 -1,
			93 72 86 -1,
			79 90 77 -1,
			80 81 79 -1,
			79 81 76 -1,
			82 83 80 -1,
			80 83 81 -1,
			83 82 75 -1,
			75 82 78 -1,
			81 83 76 -1,
			76 83 75 -1,
			82 80 78 -1,
			78 80 79 -1,
			96 97 99 -1,
			99 97 100 -1,
			97 96 102 -1,
			102 96 103 -1,
			100 97 104 -1,
			104 97 102 -1,
			99 100 106 -1,
			106 100 104 -1,
			96 99 103 -1,
			103 99 106 -1,
			101 121 107 -1,
			103 124 116 -1,
			117 124 106 -1,
			108 121 105 -1,
			103 127 102 -1,
			120 101 107 -1,
			127 119 102 -1,
			110 120 107 -1,
			98 110 123 -1,
			126 102 119 -1,
			118 104 126 -1,
			123 111 109 -1,
			106 125 117 -1,
			122 108 105 -1,
			125 104 118 -1,
			111 122 109 -1,
			112 113 111 -1,
			111 113 108 -1,
			114 115 112 -1,
			112 115 113 -1,
			115 114 107 -1,
			107 114 110 -1,
			113 115 108 -1,
			108 115 107 -1,
			114 112 110 -1,
			110 112 111 -1,
			128 129 131 -1,
			131 129 132 -1,
			129 128 134 -1,
			134 128 135 -1,
			132 129 136 -1,
			136 129 134 -1,
			131 132 138 -1,
			138 132 136 -1,
			128 131 135 -1,
			135 131 138 -1,
			133 153 139 -1,
			135 156 148 -1,
			149 156 138 -1,
			140 153 137 -1,
			135 159 134 -1,
			152 133 139 -1,
			159 151 134 -1,
			142 152 139 -1,
			130 142 155 -1,
			158 134 151 -1,
			150 136 158 -1,
			155 143 141 -1,
			138 157 149 -1,
			154 140 137 -1,
			157 136 150 -1,
			143 154 141 -1,
			144 145 143 -1,
			143 145 140 -1,
			146 147 144 -1,
			144 147 145 -1,
			147 146 139 -1,
			139 146 142 -1,
			145 147 140 -1,
			140 147 139 -1,
			146 144 142 -1,
			142 144 143 -1,
			160 161 163 -1,
			163 161 164 -1,
			161 160 166 -1,
			166 160 167 -1,
			164 161 168 -1,
			168 161 166 -1,
			163 164 170 -1,
			170 164 168 -1,
			160 163 167 -1,
			167 163 170 -1,
			165 185 171 -1,
			167 188 180 -1,
			181 188 170 -1,
			172 185 169 -1,
			167 191 166 -1,
			184 165 171 -1,
			191 183 166 -1,
			174 184 171 -1,
			162 174 187 -1,
			190 166 183 -1,
			182 168 190 -1,
			187 175 173 -1,
			170 189 181 -1,
			186 172 169 -1,
			189 168 182 -1,
			175 186 173 -1,
			176 177 175 -1,
			175 177 172 -1,
			178 179 176 -1,
			176 179 177 -1,
			179 178 171 -1,
			171 178 174 -1,
			177 179 172 -1,
			172 179 171 -1,
			178 176 174 -1,
			174 176 175 -1,
			7 10 28 -1,
			12 11 25 -1,
			7 20 31 -1,
			14 2 24 -1,
			30 8 6 -1,
			27 14 15 -1,
			10 8 29 -1,
			15 12 26 -1,
			39 42 60 -1,
			44 43 57 -1,
			39 52 63 -1,
			46 34 56 -1,
			62 40 38 -1,
			59 46 47 -1,
			42 40 61 -1,
			47 44 58 -1,
			71 74 92 -1,
			76 75 89 -1,
			71 84 95 -1,
			78 66 88 -1,
			94 72 70 -1,
			91 78 79 -1,
			74 72 93 -1,
			79 76 90 -1,
			103 106 124 -1,
			108 107 121 -1,
			103 116 127 -1,
			110 98 120 -1,
			126 104 102 -1,
			123 110 111 -1,
			106 104 125 -1,
			111 108 122 -1,
			135 138 156 -1,
			140 139 153 -1,
			135 148 159 -1,
			142 130 152 -1,
			158 136 134 -1,
			155 142 143 -1,
			138 136 157 -1,
			143 140 154 -1,
			167 170 188 -1,
			172 171 185 -1,
			167 180 191 -1,
			174 162 184 -1,
			190 168 166 -1,
			187 174 175 -1,
			170 168 189 -1,
			175 172 186 -1,
		]
		normal Normal { vector [
			-0.401401 0.823259 -0.401399,
			-0.401390 0.823266 0.401396,
			-0.707107 0.000000 0.707107,
			0.401390 0.823266 -0.401396,
			0.401401 0.823260 0.401398,
			-0.707107 0.000000 -0.707107,
			-0.675355 0.296339 0.675336,
			-0.675340 0.296340 -0.675351,
			0.675340 0.296337 0.675352,
			0.707107 -0.000000 -0.707107,
			0.675349 0.296338 -0.675343,
			-0.675352 -0.296337 -0.675340,
			0.675340 -0.296337 -0.675352,
			0.707107 0.000000 0.707107,
			-0.675340 -0.296337 0.675352,
			0.675352 -0.296337 0.675340,
			0.401390 -0.823266 0.401396,
			0.401401 -0.823260 -0.401398,
			-0.401401 -0.823259 0.401399,
			-0.401390 -0.823266 -0.401396,
			-0.707107 -0.000000 -0.707107,
			0.707107 -0.000000 -0.707107,
			0.707107 -0.000000 0.707107,
			-0.707107 0.000000 0.707107,
			-1.000000 0.000000 -0.000000,
			0.000000 -0.000000 -1.000000,
			1.000000 0.000000 0.000000,
			0.000000 0.000000 1.000000,
			0.000000 -0.000000 -1.000000,
			1.000000 -0.000000 0.000000,
			0.000000 0.000000 1.000000,
			-1.000000 0.000000 0.000000,
			-0.401401 0.823259 -0.401399,
			-0.401390 0.823266 0.401396,
			-0.707107 0.000000 0.707107,
			0.401390 0.823266 -0.401396,
			0.401401 0.823260 0.401398,
			-0.707107 0.000000 -0.707107,
			-0.675355 0.296339 0.675336,
			-0.675340 0.296340 -0.675351,
			0.675340 0.296337 0.675352,
			0.707107 -0.000000 -0.707107,
			0.675349 0.296338 -0.675343,
			-0.675352 -0.296337 -0.675340,
			0.675340 -0.296337 -0.675352,
			0.707107 0.000000 0.707107,
			-0.675340 -0.296337 0.675352,
			0.675353 -0.296337 0.675339,
			0.401391 -0.823266 0.401396,
			0.401402 -0.823259 -0.401398,
			-0.401401 -0.823259 0.401399,
			-0.401390 -0.823266 -0.401396,
			-0.707107 -0.000000 -0.707107,
			0.707107 -0.000000 -0.707107,
			0.707107 -0.000000 0.707107,
			-0.707107 0.000000 0.707107,
			-1.000000 0.000000 -0.000000,
			0.000000 -0.000000 -1.000000,
			1.000000 0.000000 0.000000,
			0.000000 0.000000 1.000000,
			0.000000 -0.000000 -1.000000,
			1.000000 -0.000000 0.000000,
			0.000000 0.000000 1.000000,
			-1.000000 0.000000 0.000000,
			-0.401402 0.823259 -0.401399,
			-0.401391 0.823266 0.401396,
			-0.707107 0.000000 0.707107,
			0.401391 0.823266 -0.401396,
			0.401402 0.823259 0.401398,
			-0.707107 0.000000 -0.707107,
			-0.675355 0.296339 0.675336,
			-0.675339 0.296340 -0.675351,
			0.675340 0.296337 0.675352,
			0.707107 -0.000000 -0.707107,
			0.675349 0.296338 -0.675343,
			-0.675352 -0.296337 -0.675340,
			0.675340 -0.296337 -0.675352,
			0.707107 0.000000 0.707107,
			-0.675340 -0.296337 0.675352,
			0.675352 -0.296337 0.675340,
			0.401391 -0.823266 0.401396,
			0.401402 -0.823259 -0.401398,
			-0.401402 -0.823259 0.401399,
			-0.401391 -0.823266 -0.401396,
			-0.707107 -0.000000 -0.707107,
			0.707107 -0.000000 -0.707107,
			0.707107 -0.000000 0.707107,
			-0.707107 0.000000 0.707107,
			-1.000000 0.000000 -0.000000,
			0.000000 -0.000000 -1.000000,
			1.000000 0.000000 0.000000,
			0.000000 0.000000 1.000000,
			0.000000 -0.000000 -1.000000,
			1.000000 -0.000000 0.000000,
			0.000000 0.000000 1.000000,
			-1.000000 0.000000 0.000000,
			-0.401402 0.823259 -0.401399,
			-0.401391 0.823266 0.401396,
			-0.707107 0.000000 0.707107,
			0.401391 0.823266 -0.401396,
			0.401402 0.823259 0.401398,
			-0.707107 0.000000 -0.707107,
			-0.675355 0.296339 0.675336,
			-0.675339 0.296340 -0.675351,
			0.675340 0.296337 0.675352,
			0.707107 -0.000000 -0.707107,
			0.675349 0.296338 -0.675343,
			-0.675352 -0.296337 -0.675340,
			0.675340 -0.296337 -0.675352,
			0.707107 0.000000 0.707107,
			-0.675340 -0.296337 0.675352,
			0.675352 -0.296337 0.675340,
			0.401391 -0.823266 0.401396,
			0.401402 -0.823259 -0.401398,
			-0.401402 -0.823259 0.401399,
			-0.401391 -0.823266 -0.401396,
			-0.707107 -0.000000 -0.707107,
			0.707107 -0.000000 -0.707107,
			0.707107 -0.000000 0.707107,
			-0.707107 0.000000 0.707107,
			-1.000000 0.000000 -0.000000,
			0.000000 -0.000000 -1.000000,
			1.000000 0.000000 0.000000,
			0.000000 0.000000 1.000000,
			0.000000 -0.000000 -1.000000,
			1.000000 -0.000000 0.000000,
			0.000000 0.000000 1.000000,
			-1.000000 0.000000 0.000000,
			-0.401402 0.823259 -0.401399,
			-0.401391 0.823266 0.401396,
			-0.707107 0.000000 0.707107,
			0.401391 0.823266 -0.401396,
			0.401402 0.823259 0.401398,
			-0.707107 0.000000 -0.707107,
			-0.675355 0.296339 0.675336,
			-0.675339 0.296340 -0.675351,
			0.675340 0.296337 0.675352,
			0.707107 -0.000000 -0.707107,
			0.675349 0.296338 -0.675343,
			-0.675352 -0.296337 -0.675340,
			0.675340 -0.296337 -0.675352,
			0.707107 0.000000 0.707107,
			-0.675340 -0.296337 0.675352,
			0.675352 -0.296337 0.675340,
			0.401391 -0.823266 0.401396,
			0.401402 -0.823259 -0.401398,
			-0.401402 -0.823259 0.401399,
			-0.401391 -0.823266 -0.401396,
			-0.707107 -0.000000 -0.707107,
			0.707107 -0.000000 -0.707107,
			0.707107 -0.000000 0.707107,
			-0.707107 0.000000 0.707107,
			-1.000000 0.000000 -0.000000,
			0.000000 -0.000000 -1.000000,
			1.000000 0.000000 0.000000,
			0.000000 0.000000 1.000000,
			0.000000 -0.000000 -1.000000,
			1.000000 -0.000000 0.000000,
			0.000000 0.000000 1.000000,
			-1.000000 0.000000 0.000000,
			-0.401402 0.823259 -0.401399,
			-0.401391 0.823266 0.401396,
			-0.707107 0.000000 0.707107,
			0.401391 0.823266 -0.401396,
			0.401402 0.823259 0.401398,
			-0.707107 0.000000 -0.707107,
			-0.675355 0.296339 0.675336,
			-0.675339 0.296340 -0.675351,
			0.675340 0.296337 0.675352,
			0.707107 -0.000000 -0.707107,
			0.675349 0.296338 -0.675343,
			-0.675352 -0.296337 -0.675340,
			0.675340 -0.296337 -0.675352,
			0.707107 0.000000 0.707107,
			-0.675340 -0.296337 0.675352,
			0.675352 -0.296337 0.675340,
			0.401391 -0.823266 0.401396,
			0.401402 -0.823259 -0.401398,
			-0.401402 -0.823259 0.401399,
			-0.401391 -0.823266 -0.401396,
			-0.707107 -0.000000 -0.707107,
			0.707107 -0.000000 -0.707107,
			0.707107 -0.000000 0.707107,
			-0.707107 0.000000 0.707107,
			-1.000000 0.000000 -0.000000,
			0.000000 -0.000000 -1.000000,
			1.000000 0.000000 0.000000,
			0.000000 0.000000 1.000000,
			0.000000 -0.000000 -1.000000,
			1.000000 -0.000000 0.000000,
			0.000000 0.000000 1.000000,
			-1.000000 0.000000 0.000000,
		] }
		normalPerVertex TRUE
		solid TRUE
	}
	appearance Appearance {
		material Material {
			diffuseColor 0.9714 0.9167 0.4554
			transparency 0.0000
			shininess 0.5000
		}
	}
}

Shape # Material: Lila
{
	geometry IndexedFaceSet {
		coord Coordinate { point [
			3.100001 0.300000 -2.320000,
			3.100001 -0.300000 -2.320000,
			3.100001 0.300000 2.320000,
			3.100001 -0.300000 2.320000,
			-3.100001 0.300000 -2.320000,
			-3.100001 -0.300000 -2.320000,
			-3.100001 0.300000 2.320000,
			-3.100001 -0.300000 2.320000,
			-2.700001 0.300000 -1.299999,
			-2.688088 0.300000 -1.179044,
			-2.688088 0.300000 -1.420955,
			-2.595512 0.300000 -0.955546,
			-2.652806 0.300000 -1.537263,
			-2.652806 0.300000 -1.062736,
			-2.595512 0.300000 -1.644453,
			-2.424454 0.300000 -0.784488,
			-2.518407 0.300000 -1.738406,
			-2.200957 0.300000 -1.908086,
			-2.200957 0.300000 -0.691913,
			-2.317265 0.300000 -1.872805,
			-2.317265 0.300000 -0.727194,
			-2.424454 0.300000 -1.815511,
			-2.518407 0.300000 -0.861593,
			-1.959045 0.300000 -0.691913,
			-1.959045 0.300000 -1.908086,
			-1.735547 0.300000 -0.784488,
			-1.735547 0.300000 -1.815511,
			-1.842737 0.300000 -0.727194,
			-1.842737 0.300000 -1.872805,
			-1.564489 0.300000 -0.955546,
			-1.564489 0.300000 -1.644453,
			-1.460001 0.300000 -1.299999,
			-1.471914 0.300000 -1.420955,
			-1.471914 0.300000 -1.179044,
			-1.507195 0.300000 -1.537263,
			-1.507195 0.300000 -1.062736,
			-1.641594 0.300000 -1.738406,
			-1.641594 0.300000 -0.861593,
			-2.080001 0.300000 -0.680000,
			-2.080001 0.300000 -1.919999,
			-2.424454 -0.300000 -1.815511,
			-2.317265 -0.300000 -1.872805,
			-2.200957 -0.300000 -1.908086,
			-2.080001 -0.300000 -1.919999,
			-1.842737 -0.300000 -1.872805,
			-1.959045 -0.300000 -1.908086,
			-1.641594 -0.300000 -1.738406,
			-1.507195 -0.300000 -1.537263,
			-1.564489 -0.300000 -1.644453,
			-1.460001 -0.300000 -1.299999,
			-1.471914 -0.300000 -1.179044,
			-1.471914 -0.300000 -1.420955,
			-1.735547 -0.300000 -1.815511,
			-2.700001 -0.300000 -1.299999,
			-2.652806 -0.300000 -1.062736,
			-2.688088 -0.300000 -1.179044,
			-2.688088 -0.300000 -1.420955,
			-2.518407 -0.300000 -0.861593,
			-2.518407 -0.300000 -1.738406,
			-2.595512 -0.300000 -0.955546,
			-2.595512 -0.300000 -1.644453,
			-2.652806 -0.300000 -1.537263,
			-2.317265 -0.300000 -0.727194,
			-1.959045 -0.300000 -0.691913,
			-2.080001 -0.300000 -0.680000,
			-2.200957 -0.300000 -0.691913,
			-1.735547 -0.300000 -0.784488,
			-1.564489 -0.300000 -0.955546,
			-1.507195 -0.300000 -1.062736,
			-1.842737 -0.300000 -0.727194,
			-1.641594 -0.300000 -0.861593,
			-2.424454 -0.300000 -0.784488,
			1.564489 0.300000 -0.955546,
			1.507195 0.300000 -1.062736,
			1.735546 0.300000 -0.784489,
			1.641594 0.300000 -0.861594,
			1.959044 0.300000 -0.691913,
			2.200956 0.300000 -0.691913,
			2.317264 0.300000 -0.727195,
			2.080000 0.300000 -0.680000,
			1.842736 0.300000 -0.727195,
			2.595511 0.300000 -0.955546,
			2.595511 0.300000 -1.644454,
			2.518406 0.300000 -0.861594,
			2.518406 0.300000 -1.738406,
			2.700000 0.300000 -1.300000,
			2.688087 0.300000 -1.420956,
			2.652805 0.300000 -1.062736,
			2.688087 0.300000 -1.179044,
			2.652805 0.300000 -1.537264,
			2.424454 0.300000 -0.784489,
			1.471913 0.300000 -1.179044,
			1.460000 0.300000 -1.300000,
			1.471913 0.300000 -1.420956,
			1.564489 0.300000 -1.644454,
			1.507195 0.300000 -1.537264,
			1.641594 0.300000 -1.738406,
			1.735546 0.300000 -1.815511,
			1.959044 0.300000 -1.908087,
			1.842736 0.300000 -1.872805,
			2.200956 0.300000 -1.908087,
			2.424454 0.300000 -1.815511,
			2.317264 0.300000 -1.872805,
			2.080000 0.300000 -1.920000,
			1.507195 -0.300000 -1.062736,
			1.735546 -0.300000 -0.784489,
			1.641594 -0.300000 -0.861594,
			1.564489 -0.300000 -0.955546,
			1.959044 -0.300000 -0.691913,
			2.200956 -0.300000 -0.691913,
			2.317264 -0.300000 -0.727195,
			2.080000 -0.300000 -0.680000,
			1.842736 -0.300000 -0.727195,
			2.595511 -0.300000 -0.955546,
			2.595511 -0.300000 -1.644454,
			2.518406 -0.300000 -0.861594,
			2.518406 -0.300000 -1.738406,
			2.700000 -0.300000 -1.300000,
			2.688087 -0.300000 -1.420956,
			2.652805 -0.300000 -1.062736,
			2.688087 -0.300000 -1.179044,
			2.652805 -0.300000 -1.537264,
			2.424454 -0.300000 -0.784489,
			1.471913 -0.300000 -1.179044,
			1.460000 -0.300000 -1.300000,
			1.471913 -0.300000 -1.420956,
			1.507195 -0.300000 -1.537264,
			1.641594 -0.300000 -1.738406,
			1.564489 -0.300000 -1.644454,
			1.959044 -0.300000 -1.908087,
			1.842736 -0.300000 -1.872805,
			2.200956 -0.300000 -1.908087,
			2.424454 -0.300000 -1.815511,
			2.317264 -0.300000 -1.872805,
			2.080000 -0.300000 -1.920000,
			1.735546 -0.300000 -1.815511,
		] }
		coordIndex [
			2 81 83 -1,
			33 35 91 -1,
			4 6 9 -1,
			2 7 3 -1,
			6 5 7 -1,
			123 68 50 -1,
			3 109 110 -1,
			55 54 7 -1,
			0 3 1 -1,
			4 1 5 -1,
			24 43 45 -1,
			28 45 44 -1,
			26 44 52 -1,
			26 46 36 -1,
			36 48 30 -1,
			30 47 34 -1,
			34 51 32 -1,
			32 49 31 -1,
			31 50 33 -1,
			33 68 35 -1,
			35 67 29 -1,
			29 70 37 -1,
			37 66 25 -1,
			25 69 27 -1,
			27 63 23 -1,
			23 64 38 -1,
			38 65 18 -1,
			18 62 20 -1,
			20 71 15 -1,
			22 71 57 -1,
			11 57 59 -1,
			13 59 54 -1,
			9 54 55 -1,
			8 55 53 -1,
			10 53 56 -1,
			12 56 61 -1,
			14 61 60 -1,
			16 60 58 -1,
			21 58 40 -1,
			19 40 41 -1,
			17 41 42 -1,
			39 42 43 -1,
			100 134 131 -1,
			102 131 133 -1,
			101 133 132 -1,
			101 116 84 -1,
			84 114 82 -1,
			82 121 89 -1,
			89 118 86 -1,
			86 117 85 -1,
			85 120 88 -1,
			88 119 87 -1,
			87 113 81 -1,
			81 115 83 -1,
			83 122 90 -1,
			90 110 78 -1,
			78 109 77 -1,
			77 111 79 -1,
			79 108 76 -1,
			76 112 80 -1,
			80 105 74 -1,
			75 105 106 -1,
			72 106 107 -1,
			73 107 104 -1,
			91 104 123 -1,
			92 123 124 -1,
			93 124 125 -1,
			95 125 126 -1,
			94 126 128 -1,
			96 128 127 -1,
			97 127 135 -1,
			99 135 130 -1,
			98 130 129 -1,
			103 129 134 -1,
			73 91 27 -1,
			73 27 72 -1,
			27 23 6 -1,
			72 27 75 -1,
			75 27 74 -1,
			38 18 6 -1,
			23 38 6 -1,
			74 27 80 -1,
			6 2 80 -1,
			0 101 84 -1,
			0 84 82 -1,
			80 27 6 -1,
			0 82 89 -1,
			0 89 86 -1,
			76 80 2 -1,
			2 0 88 -1,
			0 86 85 -1,
			0 85 88 -1,
			79 76 2 -1,
			77 79 2 -1,
			2 88 87 -1,
			78 77 2 -1,
			90 78 2 -1,
			2 87 81 -1,
			83 90 2 -1,
			102 101 0 -1,
			4 21 19 -1,
			4 19 17 -1,
			100 102 0 -1,
			103 100 0 -1,
			4 17 39 -1,
			4 39 24 -1,
			103 0 98 -1,
			0 4 98 -1,
			4 24 98 -1,
			24 28 98 -1,
			99 98 28 -1,
			99 28 97 -1,
			28 26 97 -1,
			97 26 36 -1,
			96 97 36 -1,
			96 36 30 -1,
			94 96 30 -1,
			94 30 34 -1,
			95 94 34 -1,
			95 34 32 -1,
			93 95 32 -1,
			93 32 92 -1,
			32 31 92 -1,
			27 91 25 -1,
			91 92 33 -1,
			25 91 37 -1,
			92 31 33 -1,
			37 91 29 -1,
			29 91 35 -1,
			16 21 4 -1,
			6 18 20 -1,
			6 20 15 -1,
			14 16 4 -1,
			12 14 4 -1,
			6 15 22 -1,
			6 22 11 -1,
			10 12 4 -1,
			8 10 4 -1,
			6 11 13 -1,
			9 8 4 -1,
			6 13 9 -1,
			2 6 7 -1,
			6 4 5 -1,
			41 40 5 -1,
			1 132 133 -1,
			1 133 131 -1,
			42 41 5 -1,
			43 42 5 -1,
			1 131 134 -1,
			1 134 129 -1,
			43 5 45 -1,
			5 1 45 -1,
			1 129 45 -1,
			129 130 45 -1,
			44 45 130 -1,
			44 130 135 -1,
			52 44 135 -1,
			52 135 46 -1,
			135 127 46 -1,
			46 127 48 -1,
			127 128 48 -1,
			48 128 126 -1,
			47 48 126 -1,
			47 126 125 -1,
			51 47 125 -1,
			124 123 50 -1,
			123 66 70 -1,
			51 125 124 -1,
			49 51 124 -1,
			123 70 67 -1,
			123 67 68 -1,
			50 49 124 -1,
			116 132 1 -1,
			3 7 69 -1,
			7 65 64 -1,
			7 64 63 -1,
			114 116 1 -1,
			121 114 1 -1,
			7 63 69 -1,
			69 66 105 -1,
			66 123 104 -1,
			118 121 1 -1,
			117 118 1 -1,
			66 104 107 -1,
			66 107 106 -1,
			117 1 120 -1,
			1 3 120 -1,
			3 69 112 -1,
			66 106 105 -1,
			119 120 3 -1,
			113 119 3 -1,
			69 105 112 -1,
			115 113 3 -1,
			122 115 3 -1,
			3 112 108 -1,
			3 108 111 -1,
			110 122 3 -1,
			3 111 109 -1,
			62 65 7 -1,
			5 40 58 -1,
			5 58 60 -1,
			71 62 7 -1,
			57 71 7 -1,
			5 60 61 -1,
			5 61 56 -1,
			59 57 7 -1,
			54 59 7 -1,
			7 5 55 -1,
			5 56 53 -1,
			5 53 55 -1,
			0 2 3 -1,
			4 0 1 -1,
			24 39 43 -1,
			28 24 45 -1,
			26 28 44 -1,
			26 52 46 -1,
			36 46 48 -1,
			30 48 47 -1,
			34 47 51 -1,
			32 51 49 -1,
			31 49 50 -1,
			33 50 68 -1,
			35 68 67 -1,
			29 67 70 -1,
			37 70 66 -1,
			25 66 69 -1,
			27 69 63 -1,
			23 63 64 -1,
			38 64 65 -1,
			18 65 62 -1,
			20 62 71 -1,
			22 15 71 -1,
			11 22 57 -1,
			13 11 59 -1,
			9 13 54 -1,
			8 9 55 -1,
			10 8 53 -1,
			12 10 56 -1,
			14 12 61 -1,
			16 14 60 -1,
			21 16 58 -1,
			19 21 40 -1,
			17 19 41 -1,
			39 17 42 -1,
			100 103 134 -1,
			102 100 131 -1,
			101 102 133 -1,
			101 132 116 -1,
			84 116 114 -1,
			82 114 121 -1,
			89 121 118 -1,
			86 118 117 -1,
			85 117 120 -1,
			88 120 119 -1,
			87 119 113 -1,
			81 113 115 -1,
			83 115 122 -1,
			90 122 110 -1,
			78 110 109 -1,
			77 109 111 -1,
			79 111 108 -1,
			76 108 112 -1,
			80 112 105 -1,
			75 74 105 -1,
			72 75 106 -1,
			73 72 107 -1,
			91 73 104 -1,
			92 91 123 -1,
			93 92 124 -1,
			95 93 125 -1,
			94 95 126 -1,
			96 94 128 -1,
			97 96 127 -1,
			99 97 135 -1,
			98 99 130 -1,
			103 98 129 -1,
		]
		normal Normal { vector [
			0.095558 0.987202 -0.127679,
			0.095556 -0.987200 -0.127690,
			0.095543 0.987204 0.127672,
			0.095543 -0.987206 0.127658,
			-0.095556 0.987200 -0.127690,
			-0.095559 -0.987201 -0.127679,
			-0.095544 0.987205 0.127659,
			-0.095544 -0.987203 0.127673,
			0.091805 0.995777 -0.000000,
			0.090714 0.995712 -0.018122,
			0.090711 0.995712 0.018121,
			0.081334 0.995189 -0.054613,
			0.087327 0.995517 0.036336,
			0.087327 0.995517 -0.036336,
			0.081337 0.995189 0.054614,
			0.059505 0.994199 -0.089599,
			0.072243 0.994739 0.072635,
			0.022503 0.993230 0.113961,
			0.022504 0.993230 -0.113963,
			0.042803 0.993652 0.104035,
			0.042802 0.993652 -0.104033,
			0.059506 0.994199 0.089599,
			0.072244 0.994739 -0.072637,
			-0.022504 0.993230 -0.113963,
			-0.022504 0.993230 0.113963,
			-0.059504 0.994199 -0.089596,
			-0.059505 0.994199 0.089598,
			-0.042802 0.993652 -0.104035,
			-0.042802 0.993652 0.104033,
			-0.081337 0.995189 -0.054614,
			-0.081336 0.995189 0.054614,
			-0.091808 0.995777 -0.000000,
			-0.090713 0.995712 0.018122,
			-0.090712 0.995712 -0.018122,
			-0.087327 0.995517 0.036336,
			-0.087327 0.995517 -0.036336,
			-0.072245 0.994738 0.072637,
			-0.072244 0.994738 -0.072637,
			0.000000 0.993070 -0.117524,
			0.000000 0.993070 0.117524,
			0.059506 -0.994199 0.089599,
			0.042802 -0.993652 0.104035,
			0.022503 -0.993230 0.113962,
			-0.000000 -0.993070 0.117524,
			-0.042802 -0.993652 0.104033,
			-0.022504 -0.993230 0.113965,
			-0.072245 -0.994738 0.072638,
			-0.087328 -0.995517 0.036336,
			-0.081336 -0.995189 0.054614,
			-0.091808 -0.995777 0.000000,
			-0.090712 -0.995712 -0.018122,
			-0.090712 -0.995712 0.018122,
			-0.059504 -0.994199 0.089597,
			0.091805 -0.995777 0.000000,
			0.087327 -0.995517 -0.036336,
			0.090714 -0.995712 -0.018122,
			0.090712 -0.995712 0.018122,
			0.072244 -0.994739 -0.072636,
			0.072242 -0.994739 0.072635,
			0.081334 -0.995190 -0.054613,
			0.081337 -0.995189 0.054614,
			0.087327 -0.995517 0.036336,
			0.042802 -0.993652 -0.104033,
			-0.022504 -0.993230 -0.113963,
			-0.000000 -0.993070 -0.117524,
			0.022504 -0.993230 -0.113963,
			-0.059505 -0.994199 -0.089598,
			-0.081337 -0.995189 -0.054614,
			-0.087328 -0.995517 -0.036336,
			-0.042802 -0.993652 -0.104033,
			-0.072244 -0.994738 -0.072637,
			0.059506 -0.994199 -0.089600,
			0.081335 0.995189 -0.054613,
			0.087326 0.995517 -0.036336,
			0.059504 0.994199 -0.089597,
			0.072245 0.994738 -0.072638,
			0.022504 0.993230 -0.113963,
			-0.022504 0.993230 -0.113963,
			-0.042802 0.993652 -0.104033,
			0.000000 0.993070 -0.117524,
			0.042802 0.993652 -0.104033,
			-0.081334 0.995189 -0.054613,
			-0.081337 0.995189 0.054614,
			-0.072244 0.994739 -0.072637,
			-0.072243 0.994739 0.072635,
			-0.091805 0.995777 -0.000000,
			-0.090711 0.995712 0.018121,
			-0.087327 0.995517 -0.036336,
			-0.090714 0.995712 -0.018122,
			-0.087327 0.995517 0.036336,
			-0.059506 0.994199 -0.089599,
			0.090714 0.995712 -0.018122,
			0.091807 0.995777 -0.000000,
			0.090711 0.995712 0.018121,
			0.081336 0.995189 0.054614,
			0.087328 0.995517 0.036336,
			0.072245 0.994738 0.072637,
			0.059505 0.994199 0.089597,
			0.022504 0.993230 0.113965,
			0.042802 0.993653 0.104033,
			-0.022503 0.993230 0.113961,
			-0.059506 0.994199 0.089599,
			-0.042802 0.993652 0.104035,
			0.000000 0.993070 0.117524,
			0.087326 -0.995517 -0.036336,
			0.059505 -0.994199 -0.089598,
			0.072245 -0.994738 -0.072637,
			0.081336 -0.995189 -0.054613,
			0.022504 -0.993230 -0.113963,
			-0.022504 -0.993230 -0.113963,
			-0.042802 -0.993652 -0.104033,
			-0.000000 -0.993070 -0.117524,
			0.042801 -0.993653 -0.104031,
			-0.081334 -0.995190 -0.054613,
			-0.081337 -0.995189 0.054614,
			-0.072244 -0.994739 -0.072636,
			-0.072242 -0.994739 0.072635,
			-0.091805 -0.995777 0.000000,
			-0.090711 -0.995712 0.018122,
			-0.087327 -0.995517 -0.036336,
			-0.090714 -0.995712 -0.018122,
			-0.087327 -0.995517 0.036336,
			-0.059506 -0.994199 -0.089599,
			0.090714 -0.995712 -0.018122,
			0.091807 -0.995777 0.000000,
			0.090712 -0.995712 0.018122,
			0.087327 -0.995517 0.036336,
			0.072245 -0.994738 0.072638,
			0.081336 -0.995189 0.054614,
			0.022504 -0.993230 0.113963,
			0.042802 -0.993653 0.104033,
			-0.022503 -0.993230 0.113961,
			-0.059505 -0.994199 0.089599,
			-0.042803 -0.993652 0.104035,
			-0.000000 -0.993070 0.117524,
			0.059505 -0.994199 0.089598,
		] }
		normalPerVertex TRUE
		solid TRUE
	}
	appearance Appearance {
		material Material {
			diffuseColor 0.8003 0.1079 0.7178
			transparency 0.0000
			shininess 0.5000
		}
	}
}

Shape # Material: Silber
{
	geometry IndexedFaceSet {
		coord Coordinate { point [
			-0.500000 0.300000 -0.320000,
			-0.500000 0.600000 -0.320000,
			-0.500000 0.300000 -1.320000,
			-0.500000 0.600000 -1.320000,
			0.500000 0.300000 -0.320000,
			0.500000 0.600000 -0.320000,
			0.500000 0.300000 -1.320000,
			0.500000 0.600000 -1.320000,
		] }
		coordIndex [
			1 2 0 -1,
			3 6 2 -1,
			7 4 6 -1,
			5 0 4 -1,
			6 0 2 -1,
			3 5 7 -1,
			1 3 2 -1,
			3 7 6 -1,
			7 5 4 -1,
			5 1 0 -1,
			6 4 0 -1,
			3 1 5 -1,
		]
		normal Normal { vector [
			-0.276158 -0.920579 0.276174,
			-0.276187 0.920571 0.276171,
			-0.276187 -0.920571 -0.276171,
			-0.276158 0.920579 -0.276174,
			0.276187 -0.920571 0.276171,
			0.276158 0.920579 0.276174,
			0.276158 -0.920579 -0.276174,
			0.276187 0.920571 -0.276171,
		] }
		normalPerVertex TRUE
		solid TRUE
	}
	appearance Appearance {
		material Material {
			diffuseColor 0.2639 0.2639 0.2639
			transparency 0.0000
			shininess 0.6000
		}
	}
}

Shape # Material: Silber
{
	geometry IndexedFaceSet {
		coord Coordinate { point [
			-0.840000 0.300000 0.920000,
			-0.840000 0.620000 0.920000,
			-1.160000 0.300000 0.920000,
			-1.160000 0.620000 0.920000,
			-0.840000 0.300000 0.200000,
			-0.840000 0.620000 0.200000,
			-1.160000 0.300000 0.200000,
			-1.160000 0.620000 0.200000,
			-0.328000 0.300000 0.920000,
			-0.328000 0.620000 0.920000,
			-0.648000 0.300000 0.920000,
			-0.648000 0.620000 0.920000,
			-0.328000 0.300000 0.200000,
			-0.328000 0.620000 0.200000,
			-0.648000 0.300000 0.200000,
			-0.648000 0.620000 0.200000,
			0.184000 0.300000 0.920000,
			0.184000 0.620000 0.920000,
			-0.136000 0.300000 0.920000,
			-0.136000 0.620000 0.920000,
			0.184000 0.300000 0.200000,
			0.184000 0.620000 0.200000,
			-0.136000 0.300000 0.200000,
			-0.136000 0.620000 0.200000,
			0.696000 0.300000 0.920000,
			0.696000 0.620000 0.920000,
			0.376000 0.300000 0.920000,
			0.376000 0.620000 0.920000,
			0.696000 0.300000 0.200000,
			0.696000 0.620000 0.200000,
			0.376000 0.300000 0.200000,
			0.376000 0.620000 0.200000,
			1.208000 0.300000 0.920000,
			1.208000 0.620000 0.920000,
			0.888000 0.300000 0.920000,
			0.888000 0.620000 0.920000,
			1.208000 0.300000 0.200000,
			1.208000 0.620000 0.200000,
			0.888000 0.300000 0.200000,
			0.888000 0.620000 0.200000,
		] }
		coordIndex [
			1 2 0 -1,
			3 6 2 -1,
			7 4 6 -1,
			5 0 4 -1,
			6 0 2 -1,
			3 5 7 -1,
			9 10 8 -1,
			11 14 10 -1,
			15 12 14 -1,
			13 8 12 -1,
			14 8 10 -1,
			11 13 15 -1,
			17 18 16 -1,
			19 22 18 -1,
			23 20 22 -1,
			21 16 20 -1,
			22 16 18 -1,
			19 21 23 -1,
			25 26 24 -1,
			27 30 26 -1,
			31 28 30 -1,
			29 24 28 -1,
			30 24 26 -1,
			27 29 31 -1,
			33 34 32 -1,
			35 38 34 -1,
			39 36 38 -1,
			37 32 36 -1,
			38 32 34 -1,
			35 37 39 -1,
			1 3 2 -1,
			3 7 6 -1,
			7 5 4 -1,
			5 1 0 -1,
			6 4 0 -1,
			3 1 5 -1,
			9 11 10 -1,
			11 15 14 -1,
			15 13 12 -1,
			13 9 8 -1,
			14 12 8 -1,
			11 9 13 -1,
			17 19 18 -1,
			19 23 22 -1,
			23 21 20 -1,
			21 17 16 -1,
			22 20 16 -1,
			19 17 21 -1,
			25 27 26 -1,
			27 31 30 -1,
			31 29 28 -1,
			29 25 24 -1,
			30 28 24 -1,
			27 25 29 -1,
			33 35 34 -1,
			35 39 38 -1,
			39 37 36 -1,
			37 33 32 -1,
			38 36 32 -1,
			35 33 37 -1,
		]
		normal Normal { vector [
			0.299804 -0.674573 0.674588,
			0.299819 0.674592 0.674562,
			-0.299819 -0.674592 0.674563,
			-0.299804 0.674573 0.674588,
			0.299819 -0.674592 -0.674562,
			0.299804 0.674573 -0.674588,
			-0.299804 -0.674573 -0.674588,
			-0.299819 0.674592 -0.674563,
			0.299804 -0.674573 0.674588,
			0.299819 0.674592 0.674562,
			-0.299819 -0.674592 0.674563,
			-0.299804 0.674573 0.674588,
			0.299819 -0.674592 -0.674562,
			0.299804 0.674573 -0.674588,
			-0.299804 -0.674573 -0.674588,
			-0.299819 0.674592 -0.674563,
			0.299804 -0.674573 0.674588,
			0.299819 0.674592 0.674562,
			-0.299819 -0.674592 0.674563,
			-0.299804 0.674573 0.674588,
			0.299819 -0.674592 -0.674562,
			0.299804 0.674573 -0.674588,
			-0.299804 -0.674573 -0.674588,
			-0.299819 0.674592 -0.674563,
			0.299804 -0.674573 0.674588,
			0.299819 0.674592 0.674562,
			-0.299819 -0.674592 0.674563,
			-0.299804 0.674573 0.674588,
			0.299819 -0.674592 -0.674562,
			0.299804 0.674573 -0.674588,
			-0.299804 -0.674573 -0.674588,
			-0.299819 0.674592 -0.674563,
			0.299804 -0.674573 0.674588,
			0.299819 0.674592 0.674562,
			-0.299819 -0.674592 0.674563,
			-0.299804 0.674573 0.674588,
			0.299819 -0.674592 -0.674562,
			0.299804 0.674573 -0.674588,
			-0.299804 -0.674573 -0.674588,
			-0.299819 0.674592 -0.674563,
		] }
		normalPerVertex TRUE
		solid TRUE
	}
	appearance Appearance {
		material Material {
			diffuseColor 0.2639 0.2639 0.2639
			transparency 0.0000
			shininess 0.6000
		}
	}
}

Shape # Material: Silber
{
	geometry IndexedFaceSet {
		coord Coordinate { point [
			-0.360000 0.300000 -1.800001,
			-0.360000 0.620000 -1.800001,
			-0.360000 0.300000 -2.120001,
			-0.360000 0.620000 -2.120001,
			0.360000 0.300000 -1.800001,
			0.360000 0.620000 -1.800001,
			0.360000 0.300000 -2.120001,
			0.360000 0.620000 -2.120001,
		] }
		coordIndex [
			1 2 0 -1,
			3 6 2 -1,
			7 4 6 -1,
			5 0 4 -1,
			6 0 2 -1,
			3 5 7 -1,
			1 3 2 -1,
			3 7 6 -1,
			7 5 4 -1,
			5 1 0 -1,
			6 4 0 -1,
			3 1 5 -1,
		]
		normal Normal { vector [
			-0.299797 -0.674582 0.674582,
			-0.299828 0.674575 0.674575,
			-0.299828 -0.674575 -0.674575,
			-0.299797 0.674582 -0.674582,
			0.299828 -0.674575 0.674575,
			0.299797 0.674582 0.674582,
			0.299797 -0.674582 -0.674582,
			0.299828 0.674575 -0.674575,
		] }
		normalPerVertex TRUE
		solid TRUE
	}
	appearance Appearance {
		material Material {
			diffuseColor 0.2639 0.2639 0.2639
			transparency 0.0000
			shininess 0.6000
		}
	}
}

