#VRML V2.0 utf8
# Exportiert mit Blender-WRL-Export (The Smart Assistant)

Shape # Material: Default
{
	geometry IndexedFaceSet {
		coord Coordinate { point [
			-4.080000 -0.320000 3.550000,
			-4.080000 0.320000 3.550000,
			-4.080000 -0.320000 -3.550000,
			-4.080000 0.320000 -3.550000,
			4.080000 -0.320000 3.550000,
			4.080000 0.320000 3.550000,
			4.080000 -0.320000 -3.550000,
			4.080000 0.320000 -3.550000,
		] }
		coordIndex [
			1 2 0 -1,
			3 6 2 -1,
			7 4 6 -1,
			5 0 4 -1,
			6 0 2 -1,
			3 5 7 -1,
			1 3 2 -1,
			3 7 6 -1,
			7 5 4 -1,
			5 1 0 -1,
			6 4 0 -1,
			3 1 5 -1,
		]
		normal Normal { vector [
			-0.077873 -0.992938 0.089504,
			-0.077882 0.992937 0.089504,
			-0.077882 -0.992937 -0.089504,
			-0.077873 0.992938 -0.089504,
			0.077882 -0.992937 0.089504,
			0.077873 0.992938 0.089504,
			0.077873 -0.992938 -0.089504,
			0.077882 0.992937 -0.089504,
		] }
		normalPerVertex TRUE
		solid TRUE
	}
	appearance Appearance {
		material Material {
			diffuseColor 0.8000 0.8000 0.8000
			transparency 0.0000
			shininess 0.5000
		}
	}
}

Shape # Material: m20-9990345_color_1.001
{
	geometry IndexedFaceSet {
		coord Coordinate { point [
			-3.863999 1.100000 2.197038,
			-3.963999 1.100000 2.297038,
			-3.683199 1.100000 2.577838,
			-3.963999 1.100000 3.113038,
			-3.683199 1.100000 2.832238,
			-3.863999 1.100000 3.213038,
			-3.247999 1.100000 3.213038,
			-3.428799 1.100000 2.832238,
			-3.147999 1.100000 3.113038,
			-3.147999 1.100000 2.297038,
			-3.428799 1.100000 2.577838,
			-3.247999 1.100000 2.197038,
			-4.063999 1.000000 2.397038,
			-4.063999 1.000000 3.013038,
			-4.063999 0.424000 3.013038,
			-3.863999 0.324000 3.213038,
			-3.963999 0.324000 3.113038,
			-3.247999 0.324000 3.213038,
			-3.247999 0.324000 3.013038,
			-3.863999 0.324000 2.197038,
			-3.863999 0.324000 2.397038,
			-3.247999 0.324000 2.197038,
			-3.247999 0.324000 2.397038,
			-3.863999 0.324000 3.013038,
			-3.963999 0.324000 2.297038,
			-3.683199 0.324000 2.832238,
			-3.428799 0.324000 2.832238,
			-3.428799 0.324000 2.577838,
			-3.683199 0.324000 2.577838,
			-3.147999 0.324000 2.297038,
			-3.147999 0.324000 3.113038,
			-4.063999 0.424000 2.397038,
			-3.047999 0.424000 3.013038,
			-3.047999 1.000000 3.013038,
			-3.047999 1.000000 2.397038,
			-3.047999 0.424000 2.397038,
			-3.505812 0.324000 2.832238,
			-3.428799 0.324000 2.654852,
			-3.505812 0.324000 2.577838,
			-3.683199 0.324000 2.654852,
			-2.847999 1.100000 2.197038,
			-2.947999 1.100000 2.297038,
			-2.667199 1.100000 2.577838,
			-2.947999 1.100000 3.113038,
			-2.667199 1.100000 2.832238,
			-2.847999 1.100000 3.213038,
			-2.231999 1.100000 3.213038,
			-2.412799 1.100000 2.832238,
			-2.131999 1.100000 3.113038,
			-2.131999 1.100000 2.297038,
			-2.412799 1.100000 2.577838,
			-2.231999 1.100000 2.197038,
			-3.047999 1.000000 2.397038,
			-3.047999 1.000000 3.013038,
			-3.047999 0.424000 3.013038,
			-2.847999 0.324000 3.213038,
			-2.947999 0.324000 3.113038,
			-2.231999 0.324000 3.213038,
			-2.231999 0.324000 3.013038,
			-2.847999 0.324000 2.197038,
			-2.847999 0.324000 2.397038,
			-2.231999 0.324000 2.197038,
			-2.231999 0.324000 2.397038,
			-2.847999 0.324000 3.013038,
			-2.947999 0.324000 2.297038,
			-2.667199 0.324000 2.832238,
			-2.412799 0.324000 2.832238,
			-2.412799 0.324000 2.577838,
			-2.667199 0.324000 2.577838,
			-2.131999 0.324000 2.297038,
			-2.131999 0.324000 3.113038,
			-3.047999 0.424000 2.397038,
			-2.031999 0.424000 3.013038,
			-2.031999 1.000000 3.013038,
			-2.031999 1.000000 2.397038,
			-2.031999 0.424000 2.397038,
			-2.489812 0.324000 2.832238,
			-2.412799 0.324000 2.654852,
			-2.489812 0.324000 2.577838,
			-2.667199 0.324000 2.654852,
			-1.831999 1.100000 2.197038,
			-1.931999 1.100000 2.297038,
			-1.651199 1.100000 2.577838,
			-1.931999 1.100000 3.113038,
			-1.651199 1.100000 2.832238,
			-1.831999 1.100000 3.213038,
			-1.215999 1.100000 3.213038,
			-1.396799 1.100000 2.832238,
			-1.115999 1.100000 3.113038,
			-1.115999 1.100000 2.297038,
			-1.396799 1.100000 2.577838,
			-1.215999 1.100000 2.197038,
			-2.031999 1.000000 2.397038,
			-2.031999 1.000000 3.013038,
			-2.031999 0.424000 3.013038,
			-1.831999 0.324000 3.213038,
			-1.931999 0.324000 3.113038,
			-1.215999 0.324000 3.213038,
			-1.215999 0.324000 3.013038,
			-1.831999 0.324000 2.197038,
			-1.831999 0.324000 2.397038,
			-1.215999 0.324000 2.197038,
			-1.215999 0.324000 2.397038,
			-1.831999 0.324000 3.013038,
			-1.931999 0.324000 2.297038,
			-1.651199 0.324000 2.832238,
			-1.396799 0.324000 2.832238,
			-1.396799 0.324000 2.577838,
			-1.651199 0.324000 2.577838,
			-1.115999 0.324000 2.297038,
			-1.115999 0.324000 3.113038,
			-2.031999 0.424000 2.397038,
			-1.015999 0.424000 3.013038,
			-1.015999 1.000000 3.013038,
			-1.015999 1.000000 2.397038,
			-1.015999 0.424000 2.397038,
			-1.473812 0.324000 2.832238,
			-1.396799 0.324000 2.654852,
			-1.473812 0.324000 2.577838,
			-1.651199 0.324000 2.654852,
			-0.815999 1.100000 2.197038,
			-0.915999 1.100000 2.297038,
			-0.635199 1.100000 2.577838,
			-0.915999 1.100000 3.113038,
			-0.635199 1.100000 2.832238,
			-0.815999 1.100000 3.213038,
			-0.199999 1.100000 3.213038,
			-0.380799 1.100000 2.832238,
			-0.099999 1.100000 3.113038,
			-0.099999 1.100000 2.297038,
			-0.380799 1.100000 2.577838,
			-0.199999 1.100000 2.197038,
			-1.015999 1.000000 2.397038,
			-1.015999 1.000000 3.013038,
			-1.015999 0.424000 3.013038,
			-0.815999 0.324000 3.213038,
			-0.915999 0.324000 3.113038,
			-0.199999 0.324000 3.213038,
			-0.199999 0.324000 3.013038,
			-0.815999 0.324000 2.197038,
			-0.815999 0.324000 2.397038,
			-0.199999 0.324000 2.197038,
			-0.199999 0.324000 2.397038,
			-0.815999 0.324000 3.013038,
			-0.915999 0.324000 2.297038,
			-0.635199 0.324000 2.832238,
			-0.380799 0.324000 2.832238,
			-0.380799 0.324000 2.577838,
			-0.635199 0.324000 2.577838,
			-0.099999 0.324000 2.297038,
			-0.099999 0.324000 3.113038,
			-1.015999 0.424000 2.397038,
			0.000001 0.424000 3.013038,
			0.000001 1.000000 3.013038,
			0.000001 1.000000 2.397038,
			0.000001 0.424000 2.397038,
			-0.457812 0.324000 2.832238,
			-0.380799 0.324000 2.654852,
			-0.457812 0.324000 2.577838,
			-0.635199 0.324000 2.654852,
			0.200001 1.100000 2.197038,
			0.100001 1.100000 2.297038,
			0.380801 1.100000 2.577838,
			0.100001 1.100000 3.113038,
			0.380801 1.100000 2.832238,
			0.200001 1.100000 3.213038,
			0.816001 1.100000 3.213038,
			0.635201 1.100000 2.832238,
			0.916001 1.100000 3.113038,
			0.916001 1.100000 2.297038,
			0.635201 1.100000 2.577838,
			0.816001 1.100000 2.197038,
			0.000001 1.000000 2.397038,
			0.000001 1.000000 3.013038,
			0.000001 0.424000 3.013038,
			0.200001 0.324000 3.213038,
			0.100001 0.324000 3.113038,
			0.816001 0.324000 3.213038,
			0.816001 0.324000 3.013038,
			0.200001 0.324000 2.197038,
			0.200001 0.324000 2.397038,
			0.816001 0.324000 2.197038,
			0.816001 0.324000 2.397038,
			0.200001 0.324000 3.013038,
			0.100001 0.324000 2.297038,
			0.380801 0.324000 2.832238,
			0.635201 0.324000 2.832238,
			0.635201 0.324000 2.577838,
			0.380801 0.324000 2.577838,
			0.916001 0.324000 2.297038,
			0.916001 0.324000 3.113038,
			0.000001 0.424000 2.397038,
			1.016001 0.424000 3.013038,
			1.016001 1.000000 3.013038,
			1.016001 1.000000 2.397038,
			1.016001 0.424000 2.397038,
			0.558188 0.324000 2.832238,
			0.635201 0.324000 2.654852,
			0.558188 0.324000 2.577838,
			0.380801 0.324000 2.654852,
			1.216001 1.100000 2.197038,
			1.116001 1.100000 2.297038,
			1.396801 1.100000 2.577838,
			1.116001 1.100000 3.113038,
			1.396801 1.100000 2.832238,
			1.216001 1.100000 3.213038,
			1.832001 1.100000 3.213038,
			1.651201 1.100000 2.832238,
			1.932001 1.100000 3.113038,
			1.932001 1.100000 2.297038,
			1.651201 1.100000 2.577838,
			1.832001 1.100000 2.197038,
			1.016001 1.000000 2.397038,
			1.016001 1.000000 3.013038,
			1.016001 0.424000 3.013038,
			1.216001 0.324000 3.213038,
			1.116001 0.324000 3.113038,
			1.832001 0.324000 3.213038,
			1.832001 0.324000 3.013038,
			1.216001 0.324000 2.197038,
			1.216001 0.324000 2.397038,
			1.832001 0.324000 2.197038,
			1.832001 0.324000 2.397038,
			1.216001 0.324000 3.013038,
			1.116001 0.324000 2.297038,
			1.396801 0.324000 2.832238,
			1.651201 0.324000 2.832238,
			1.651201 0.324000 2.577838,
			1.396801 0.324000 2.577838,
			1.932001 0.324000 2.297038,
			1.932001 0.324000 3.113038,
			1.016001 0.424000 2.397038,
			2.032001 0.424000 3.013038,
			2.032001 1.000000 3.013038,
			2.032001 1.000000 2.397038,
			2.032001 0.424000 2.397038,
			1.574188 0.324000 2.832238,
			1.651201 0.324000 2.654852,
			1.574188 0.324000 2.577838,
			1.396801 0.324000 2.654852,
			2.232001 1.100000 2.197038,
			2.132001 1.100000 2.297038,
			2.412801 1.100000 2.577838,
			2.132001 1.100000 3.113038,
			2.412801 1.100000 2.832238,
			2.232001 1.100000 3.213038,
			2.848001 1.100000 3.213038,
			2.667201 1.100000 2.832238,
			2.948001 1.100000 3.113038,
			2.948001 1.100000 2.297038,
			2.667201 1.100000 2.577838,
			2.848001 1.100000 2.197038,
			2.032001 1.000000 2.397038,
			2.032001 1.000000 3.013038,
			2.032001 0.424000 3.013038,
			2.232001 0.324000 3.213038,
			2.132001 0.324000 3.113038,
			2.848001 0.324000 3.213038,
			2.848001 0.324000 3.013038,
			2.232001 0.324000 2.197038,
			2.232001 0.324000 2.397038,
			2.848001 0.324000 2.197038,
			2.848001 0.324000 2.397038,
			2.232001 0.324000 3.013038,
			2.132001 0.324000 2.297038,
			2.412801 0.324000 2.832238,
			2.667201 0.324000 2.832238,
			2.667201 0.324000 2.577838,
			2.412801 0.324000 2.577838,
			2.948001 0.324000 2.297038,
			2.948001 0.324000 3.113038,
			2.032001 0.424000 2.397038,
			3.048001 0.424000 3.013038,
			3.048001 1.000000 3.013038,
			3.048001 1.000000 2.397038,
			3.048001 0.424000 2.397038,
			2.590188 0.324000 2.832238,
			2.667201 0.324000 2.654852,
			2.590188 0.324000 2.577838,
			2.412801 0.324000 2.654852,
			3.248001 1.100000 2.197038,
			3.148001 1.100000 2.297038,
			3.428801 1.100000 2.577838,
			3.148001 1.100000 3.113038,
			3.428801 1.100000 2.832238,
			3.248001 1.100000 3.213038,
			3.864000 1.100000 3.213038,
			3.683200 1.100000 2.832238,
			3.964000 1.100000 3.113038,
			3.964000 1.100000 2.297038,
			3.683200 1.100000 2.577838,
			3.864000 1.100000 2.197038,
			3.048001 1.000000 2.397038,
			3.048001 1.000000 3.013038,
			3.048001 0.424000 3.013038,
			3.248001 0.324000 3.213038,
			3.148001 0.324000 3.113038,
			3.864000 0.324000 3.213038,
			3.864000 0.324000 3.013038,
			3.248001 0.324000 2.197038,
			3.248001 0.324000 2.397038,
			3.864000 0.324000 2.197038,
			3.864000 0.324000 2.397038,
			3.248001 0.324000 3.013038,
			3.148001 0.324000 2.297038,
			3.428801 0.324000 2.832238,
			3.683200 0.324000 2.832238,
			3.683200 0.324000 2.577838,
			3.428801 0.324000 2.577838,
			3.964000 0.324000 2.297038,
			3.964000 0.324000 3.113038,
			3.048001 0.424000 2.397038,
			4.064001 0.424000 3.013038,
			4.064001 1.000000 3.013038,
			4.064001 1.000000 2.397038,
			4.064001 0.424000 2.397038,
			3.606187 0.324000 2.832238,
			3.683200 0.324000 2.654852,
			3.606187 0.324000 2.577838,
			3.428801 0.324000 2.654852,
		] }
		coordIndex [
			0 1 2 -1,
			2 1 3 -1,
			4 3 5 -1,
			4 5 6 -1,
			8 7 6 -1,
			9 7 8 -1,
			11 10 9 -1,
			11 0 2 -1,
			12 13 1 -1,
			1 13 3 -1,
			3 13 5 -1,
			5 13 14 -1,
			5 14 15 -1,
			15 14 16 -1,
			17 6 15 -1,
			15 6 5 -1,
			21 19 11 -1,
			11 19 0 -1,
			15 16 23 -1,
			23 16 24 -1,
			23 24 20 -1,
			20 24 19 -1,
			18 36 26 -1,
			37 18 26 -1,
			22 18 27 -1,
			38 22 27 -1,
			22 28 20 -1,
			39 20 28 -1,
			25 23 20 -1,
			25 18 23 -1,
			21 29 22 -1,
			22 29 30 -1,
			22 30 18 -1,
			18 30 17 -1,
			14 31 16 -1,
			16 31 24 -1,
			31 13 12 -1,
			24 31 19 -1,
			19 31 12 -1,
			19 12 0 -1,
			0 12 1 -1,
			30 32 17 -1,
			17 32 33 -1,
			17 33 6 -1,
			6 33 8 -1,
			9 8 34 -1,
			34 8 33 -1,
			29 21 35 -1,
			35 21 11 -1,
			35 11 34 -1,
			34 11 9 -1,
			35 32 29 -1,
			29 32 30 -1,
			32 35 33 -1,
			33 35 34 -1,
			19 22 20 -1,
			17 23 18 -1,
			3 4 2 -1,
			6 7 4 -1,
			22 7 9 -1,
			11 2 10 -1,
			29 10 9 -1,
			9 10 7 -1,
			40 41 42 -1,
			42 41 43 -1,
			44 43 45 -1,
			44 45 46 -1,
			48 47 46 -1,
			49 47 48 -1,
			51 50 49 -1,
			51 40 42 -1,
			52 53 41 -1,
			41 53 43 -1,
			43 53 45 -1,
			45 53 54 -1,
			45 54 55 -1,
			55 54 56 -1,
			57 46 55 -1,
			55 46 45 -1,
			61 59 51 -1,
			51 59 40 -1,
			55 56 63 -1,
			63 56 64 -1,
			63 64 60 -1,
			60 64 59 -1,
			58 76 66 -1,
			77 58 66 -1,
			62 58 67 -1,
			78 62 67 -1,
			62 68 60 -1,
			79 60 68 -1,
			65 63 60 -1,
			65 58 63 -1,
			61 69 62 -1,
			62 69 70 -1,
			62 70 58 -1,
			58 70 57 -1,
			54 71 56 -1,
			56 71 64 -1,
			71 53 52 -1,
			64 71 59 -1,
			59 71 52 -1,
			59 52 40 -1,
			40 52 41 -1,
			70 72 57 -1,
			57 72 73 -1,
			57 73 46 -1,
			46 73 48 -1,
			49 48 74 -1,
			74 48 73 -1,
			69 61 75 -1,
			75 61 51 -1,
			75 51 74 -1,
			74 51 49 -1,
			75 72 69 -1,
			69 72 70 -1,
			72 75 73 -1,
			73 75 74 -1,
			59 62 60 -1,
			57 63 58 -1,
			43 44 42 -1,
			46 47 44 -1,
			62 49 47 -1,
			51 42 50 -1,
			69 50 49 -1,
			49 50 47 -1,
			80 81 82 -1,
			82 81 83 -1,
			84 83 85 -1,
			84 85 86 -1,
			88 87 86 -1,
			89 87 88 -1,
			91 90 89 -1,
			91 80 82 -1,
			92 93 81 -1,
			81 93 83 -1,
			83 93 85 -1,
			85 93 94 -1,
			85 94 95 -1,
			95 94 96 -1,
			97 86 95 -1,
			95 86 85 -1,
			101 99 91 -1,
			91 99 80 -1,
			95 96 103 -1,
			103 96 104 -1,
			103 104 100 -1,
			100 104 99 -1,
			98 116 106 -1,
			117 98 106 -1,
			102 98 107 -1,
			118 102 107 -1,
			102 108 100 -1,
			119 100 108 -1,
			105 103 100 -1,
			105 98 103 -1,
			101 109 102 -1,
			102 109 110 -1,
			102 110 98 -1,
			98 110 97 -1,
			94 111 96 -1,
			96 111 104 -1,
			111 93 92 -1,
			104 111 99 -1,
			99 111 92 -1,
			99 92 80 -1,
			80 92 81 -1,
			110 112 97 -1,
			97 112 113 -1,
			97 113 86 -1,
			86 113 88 -1,
			89 88 114 -1,
			114 88 113 -1,
			109 101 115 -1,
			115 101 91 -1,
			115 91 114 -1,
			114 91 89 -1,
			115 112 109 -1,
			109 112 110 -1,
			112 115 113 -1,
			113 115 114 -1,
			99 102 100 -1,
			97 103 98 -1,
			83 84 82 -1,
			86 87 84 -1,
			102 89 87 -1,
			91 82 90 -1,
			109 90 89 -1,
			89 90 87 -1,
			120 121 122 -1,
			122 121 123 -1,
			124 123 125 -1,
			124 125 126 -1,
			128 127 126 -1,
			129 127 128 -1,
			131 130 129 -1,
			131 120 122 -1,
			132 133 121 -1,
			121 133 123 -1,
			123 133 125 -1,
			125 133 134 -1,
			125 134 135 -1,
			135 134 136 -1,
			137 126 135 -1,
			135 126 125 -1,
			141 139 131 -1,
			131 139 120 -1,
			135 136 143 -1,
			143 136 144 -1,
			143 144 140 -1,
			140 144 139 -1,
			138 156 146 -1,
			157 138 146 -1,
			142 138 147 -1,
			158 142 147 -1,
			142 148 140 -1,
			159 140 148 -1,
			145 143 140 -1,
			145 138 143 -1,
			141 149 142 -1,
			142 149 150 -1,
			142 150 138 -1,
			138 150 137 -1,
			134 151 136 -1,
			136 151 144 -1,
			151 133 132 -1,
			144 151 139 -1,
			139 151 132 -1,
			139 132 120 -1,
			120 132 121 -1,
			150 152 137 -1,
			137 152 153 -1,
			137 153 126 -1,
			126 153 128 -1,
			129 128 154 -1,
			154 128 153 -1,
			149 141 155 -1,
			155 141 131 -1,
			155 131 154 -1,
			154 131 129 -1,
			155 152 149 -1,
			149 152 150 -1,
			152 155 153 -1,
			153 155 154 -1,
			139 142 140 -1,
			137 143 138 -1,
			123 124 122 -1,
			126 127 124 -1,
			142 127 129 -1,
			131 122 130 -1,
			149 130 129 -1,
			129 130 127 -1,
			160 161 162 -1,
			162 161 163 -1,
			164 163 165 -1,
			164 165 166 -1,
			168 167 166 -1,
			169 167 168 -1,
			171 170 169 -1,
			171 160 162 -1,
			172 173 161 -1,
			161 173 163 -1,
			163 173 165 -1,
			165 173 174 -1,
			165 174 175 -1,
			175 174 176 -1,
			177 166 175 -1,
			175 166 165 -1,
			181 179 171 -1,
			171 179 160 -1,
			175 176 183 -1,
			183 176 184 -1,
			183 184 180 -1,
			180 184 179 -1,
			178 196 186 -1,
			197 178 186 -1,
			182 178 187 -1,
			198 182 187 -1,
			182 188 180 -1,
			199 180 188 -1,
			185 183 180 -1,
			185 178 183 -1,
			181 189 182 -1,
			182 189 190 -1,
			182 190 178 -1,
			178 190 177 -1,
			174 191 176 -1,
			176 191 184 -1,
			191 173 172 -1,
			184 191 179 -1,
			179 191 172 -1,
			179 172 160 -1,
			160 172 161 -1,
			190 192 177 -1,
			177 192 193 -1,
			177 193 166 -1,
			166 193 168 -1,
			169 168 194 -1,
			194 168 193 -1,
			189 181 195 -1,
			195 181 171 -1,
			195 171 194 -1,
			194 171 169 -1,
			195 192 189 -1,
			189 192 190 -1,
			192 195 193 -1,
			193 195 194 -1,
			179 182 180 -1,
			177 183 178 -1,
			163 164 162 -1,
			166 167 164 -1,
			182 167 169 -1,
			171 162 170 -1,
			189 170 169 -1,
			169 170 167 -1,
			200 201 202 -1,
			202 201 203 -1,
			204 203 205 -1,
			204 205 206 -1,
			208 207 206 -1,
			209 207 208 -1,
			211 210 209 -1,
			211 200 202 -1,
			212 213 201 -1,
			201 213 203 -1,
			203 213 205 -1,
			205 213 214 -1,
			205 214 215 -1,
			215 214 216 -1,
			217 206 215 -1,
			215 206 205 -1,
			221 219 211 -1,
			211 219 200 -1,
			215 216 223 -1,
			223 216 224 -1,
			223 224 220 -1,
			220 224 219 -1,
			218 236 226 -1,
			237 218 226 -1,
			222 218 227 -1,
			238 222 227 -1,
			222 228 220 -1,
			239 220 228 -1,
			225 223 220 -1,
			225 218 223 -1,
			221 229 222 -1,
			222 229 230 -1,
			222 230 218 -1,
			218 230 217 -1,
			214 231 216 -1,
			216 231 224 -1,
			231 213 212 -1,
			224 231 219 -1,
			219 231 212 -1,
			219 212 200 -1,
			200 212 201 -1,
			230 232 217 -1,
			217 232 233 -1,
			217 233 206 -1,
			206 233 208 -1,
			209 208 234 -1,
			234 208 233 -1,
			229 221 235 -1,
			235 221 211 -1,
			235 211 234 -1,
			234 211 209 -1,
			235 232 229 -1,
			229 232 230 -1,
			232 235 233 -1,
			233 235 234 -1,
			219 222 220 -1,
			217 223 218 -1,
			203 204 202 -1,
			206 207 204 -1,
			222 209 207 -1,
			211 202 210 -1,
			229 210 209 -1,
			209 210 207 -1,
			240 241 242 -1,
			242 241 243 -1,
			244 243 245 -1,
			244 245 246 -1,
			248 247 246 -1,
			249 247 248 -1,
			251 250 249 -1,
			251 240 242 -1,
			252 253 241 -1,
			241 253 243 -1,
			243 253 245 -1,
			245 253 254 -1,
			245 254 255 -1,
			255 254 256 -1,
			257 246 255 -1,
			255 246 245 -1,
			261 259 251 -1,
			251 259 240 -1,
			255 256 263 -1,
			263 256 264 -1,
			263 264 260 -1,
			260 264 259 -1,
			258 276 266 -1,
			277 258 266 -1,
			262 258 267 -1,
			278 262 267 -1,
			262 268 260 -1,
			279 260 268 -1,
			265 263 260 -1,
			265 258 263 -1,
			261 269 262 -1,
			262 269 270 -1,
			262 270 258 -1,
			258 270 257 -1,
			254 271 256 -1,
			256 271 264 -1,
			271 253 252 -1,
			264 271 259 -1,
			259 271 252 -1,
			259 252 240 -1,
			240 252 241 -1,
			270 272 257 -1,
			257 272 273 -1,
			257 273 246 -1,
			246 273 248 -1,
			249 248 274 -1,
			274 248 273 -1,
			269 261 275 -1,
			275 261 251 -1,
			275 251 274 -1,
			274 251 249 -1,
			275 272 269 -1,
			269 272 270 -1,
			272 275 273 -1,
			273 275 274 -1,
			259 262 260 -1,
			257 263 258 -1,
			243 244 242 -1,
			246 247 244 -1,
			262 247 249 -1,
			251 242 250 -1,
			269 250 249 -1,
			249 250 247 -1,
			280 281 282 -1,
			282 281 283 -1,
			284 283 285 -1,
			284 285 286 -1,
			288 287 286 -1,
			289 287 288 -1,
			291 290 289 -1,
			291 280 282 -1,
			292 293 281 -1,
			281 293 283 -1,
			283 293 285 -1,
			285 293 294 -1,
			285 294 295 -1,
			295 294 296 -1,
			297 286 295 -1,
			295 286 285 -1,
			301 299 291 -1,
			291 299 280 -1,
			295 296 303 -1,
			303 296 304 -1,
			303 304 300 -1,
			300 304 299 -1,
			298 316 306 -1,
			317 298 306 -1,
			302 298 307 -1,
			318 302 307 -1,
			302 308 300 -1,
			319 300 308 -1,
			305 303 300 -1,
			305 298 303 -1,
			301 309 302 -1,
			302 309 310 -1,
			302 310 298 -1,
			298 310 297 -1,
			294 311 296 -1,
			296 311 304 -1,
			311 293 292 -1,
			304 311 299 -1,
			299 311 292 -1,
			299 292 280 -1,
			280 292 281 -1,
			310 312 297 -1,
			297 312 313 -1,
			297 313 286 -1,
			286 313 288 -1,
			289 288 314 -1,
			314 288 313 -1,
			309 301 315 -1,
			315 301 291 -1,
			315 291 314 -1,
			314 291 289 -1,
			315 312 309 -1,
			309 312 310 -1,
			312 315 313 -1,
			313 315 314 -1,
			299 302 300 -1,
			297 303 298 -1,
			283 284 282 -1,
			286 287 284 -1,
			302 287 289 -1,
			291 282 290 -1,
			309 290 289 -1,
			289 290 287 -1,
			18 25 36 -1,
			37 27 18 -1,
			38 28 22 -1,
			39 25 20 -1,
			31 14 13 -1,
			19 21 22 -1,
			17 15 23 -1,
			29 9 7 -1,
			58 65 76 -1,
			77 67 58 -1,
			78 68 62 -1,
			79 65 60 -1,
			71 54 53 -1,
			59 61 62 -1,
			57 55 63 -1,
			69 49 47 -1,
			98 105 116 -1,
			117 107 98 -1,
			118 108 102 -1,
			119 105 100 -1,
			111 94 93 -1,
			99 101 102 -1,
			97 95 103 -1,
			109 89 87 -1,
			138 145 156 -1,
			157 147 138 -1,
			158 148 142 -1,
			159 145 140 -1,
			151 134 133 -1,
			139 141 142 -1,
			137 135 143 -1,
			149 129 127 -1,
			178 185 196 -1,
			197 187 178 -1,
			198 188 182 -1,
			199 185 180 -1,
			191 174 173 -1,
			179 181 182 -1,
			177 175 183 -1,
			189 169 167 -1,
			218 225 236 -1,
			237 227 218 -1,
			238 228 222 -1,
			239 225 220 -1,
			231 214 213 -1,
			219 221 222 -1,
			217 215 223 -1,
			229 209 207 -1,
			258 265 276 -1,
			277 267 258 -1,
			278 268 262 -1,
			279 265 260 -1,
			271 254 253 -1,
			259 261 262 -1,
			257 255 263 -1,
			269 249 247 -1,
			298 305 316 -1,
			317 307 298 -1,
			318 308 302 -1,
			319 305 300 -1,
			311 294 293 -1,
			299 301 302 -1,
			297 295 303 -1,
			309 289 287 -1,
		]
		normal Normal { vector [
			-0.297102 0.630259 -0.717289,
			-0.573236 0.705972 -0.415937,
			0.000000 1.000000 -0.000000,
			-0.573246 0.705961 0.415943,
			0.000000 1.000000 -0.000000,
			-0.297109 0.630253 0.717292,
			0.297095 0.630260 0.717291,
			-0.021690 0.999700 -0.011380,
			0.573236 0.705972 0.415937,
			0.337813 0.697430 -0.632039,
			-0.160429 0.973923 -0.160429,
			0.297102 0.630254 -0.717294,
			-0.905411 0.300194 -0.300191,
			-0.905413 0.300189 0.300189,
			-0.905411 -0.300194 0.300191,
			-0.297092 -0.630272 0.717282,
			-0.573236 -0.705972 0.415937,
			0.297106 -0.630260 0.717286,
			0.000000 -1.000000 0.000000,
			-0.297103 -0.630253 -0.717295,
			0.000000 -1.000000 0.000000,
			0.297095 -0.630280 -0.717274,
			-0.100647 -0.993520 -0.052806,
			0.000000 -1.000000 0.000000,
			-0.573241 -0.705967 -0.415939,
			0.000000 -1.000000 0.000000,
			0.000000 -1.000000 0.000000,
			0.000000 -1.000000 0.000000,
			0.000000 -1.000000 0.000000,
			0.609130 -0.680630 -0.407068,
			0.573241 -0.705967 0.415939,
			-0.905413 -0.300189 -0.300189,
			0.905410 -0.300194 0.300194,
			0.905414 0.300190 0.300187,
			0.905410 0.300194 -0.300194,
			0.905414 -0.300190 -0.300187,
			0.000000 -1.000000 0.000000,
			0.000000 -1.000000 0.000000,
			0.000000 -1.000000 0.000000,
			0.000000 -1.000000 0.000000,
			-0.297102 0.630259 -0.717289,
			-0.573236 0.705972 -0.415937,
			0.000000 1.000000 -0.000000,
			-0.573246 0.705961 0.415943,
			0.000000 1.000000 -0.000000,
			-0.297109 0.630253 0.717292,
			0.297095 0.630260 0.717291,
			0.339795 0.923448 0.178278,
			0.573236 0.705972 0.415937,
			0.767528 0.570201 -0.292867,
			-0.160429 0.973922 -0.160429,
			0.297102 0.630254 -0.717294,
			-0.905411 0.300194 -0.300191,
			-0.905413 0.300189 0.300189,
			-0.905411 -0.300194 0.300191,
			-0.297092 -0.630272 0.717282,
			-0.573236 -0.705972 0.415937,
			0.297106 -0.630260 0.717286,
			0.000000 -1.000000 0.000000,
			-0.297103 -0.630253 -0.717295,
			0.000000 -1.000000 0.000000,
			0.297095 -0.630280 -0.717274,
			0.099429 -0.993676 0.052167,
			0.000000 -1.000000 0.000000,
			-0.573241 -0.705967 -0.415939,
			0.000000 -1.000000 0.000000,
			0.000000 -1.000000 0.000000,
			0.000000 -1.000000 0.000000,
			0.000000 -1.000000 0.000000,
			0.609130 -0.680630 -0.407068,
			0.573241 -0.705967 0.415939,
			-0.905413 -0.300189 -0.300189,
			0.905410 -0.300194 0.300194,
			0.905414 0.300190 0.300187,
			0.905410 0.300194 -0.300194,
			0.905414 -0.300190 -0.300187,
			0.000000 -1.000000 0.000000,
			0.000000 -1.000000 0.000000,
			0.000000 -1.000000 0.000000,
			0.000000 -1.000000 0.000000,
			-0.297102 0.630259 -0.717289,
			-0.573236 0.705972 -0.415937,
			0.000000 1.000000 -0.000000,
			-0.573246 0.705961 0.415943,
			0.000000 1.000000 -0.000000,
			-0.297109 0.630253 0.717292,
			0.297095 0.630260 0.717291,
			0.339795 0.923448 0.178278,
			0.573236 0.705972 0.415937,
			0.767528 0.570201 -0.292867,
			-0.160429 0.973922 -0.160429,
			0.297102 0.630254 -0.717294,
			-0.905411 0.300194 -0.300191,
			-0.905413 0.300189 0.300189,
			-0.905411 -0.300194 0.300191,
			-0.297092 -0.630272 0.717282,
			-0.573236 -0.705972 0.415937,
			0.297106 -0.630260 0.717286,
			0.000000 -1.000000 0.000000,
			-0.297103 -0.630253 -0.717295,
			0.000000 -1.000000 0.000000,
			0.297095 -0.630280 -0.717274,
			0.099429 -0.993676 0.052167,
			0.000000 -1.000000 0.000000,
			-0.573241 -0.705967 -0.415939,
			0.000000 -1.000000 0.000000,
			0.000000 -1.000000 0.000000,
			0.000000 -1.000000 0.000000,
			0.000000 -1.000000 0.000000,
			0.609130 -0.680630 -0.407068,
			0.573241 -0.705967 0.415939,
			-0.905413 -0.300189 -0.300189,
			0.905410 -0.300194 0.300194,
			0.905414 0.300190 0.300187,
			0.905410 0.300194 -0.300194,
			0.905414 -0.300190 -0.300187,
			0.000000 -1.000000 0.000000,
			0.000000 -1.000000 0.000000,
			0.000000 -1.000000 0.000000,
			0.000000 -1.000000 0.000000,
			-0.297102 0.630259 -0.717289,
			-0.573236 0.705972 -0.415937,
			0.000000 1.000000 -0.000000,
			-0.573246 0.705961 0.415943,
			0.000000 1.000000 -0.000000,
			-0.297109 0.630253 0.717292,
			0.297095 0.630260 0.717291,
			-0.021690 0.999700 -0.011380,
			0.573236 0.705972 0.415937,
			0.337813 0.697430 -0.632039,
			-0.160429 0.973923 -0.160429,
			0.297102 0.630254 -0.717294,
			-0.905411 0.300194 -0.300191,
			-0.905413 0.300189 0.300189,
			-0.905411 -0.300194 0.300191,
			-0.297092 -0.630272 0.717282,
			-0.573236 -0.705972 0.415937,
			0.297106 -0.630260 0.717286,
			0.000000 -1.000000 0.000000,
			-0.297103 -0.630253 -0.717295,
			0.000000 -1.000000 0.000000,
			0.297095 -0.630280 -0.717274,
			-0.100647 -0.993520 -0.052806,
			0.000000 -1.000000 0.000000,
			-0.573241 -0.705967 -0.415939,
			0.000000 -1.000000 0.000000,
			0.000000 -1.000000 0.000000,
			0.000000 -1.000000 0.000000,
			0.000000 -1.000000 0.000000,
			0.609130 -0.680630 -0.407068,
			0.573241 -0.705967 0.415939,
			-0.905413 -0.300189 -0.300189,
			0.905410 -0.300194 0.300194,
			0.905414 0.300190 0.300187,
			0.905410 0.300194 -0.300194,
			0.905414 -0.300190 -0.300187,
			0.000000 -1.000000 0.000000,
			0.000000 -1.000000 0.000000,
			0.000000 -1.000000 0.000000,
			0.000000 -1.000000 0.000000,
			-0.297102 0.630259 -0.717289,
			-0.573236 0.705973 -0.415935,
			0.000000 1.000000 -0.000000,
			-0.573246 0.705962 0.415941,
			0.000000 1.000000 -0.000000,
			-0.297109 0.630253 0.717292,
			0.297095 0.630260 0.717291,
			-0.021690 0.999700 -0.011380,
			0.573236 0.705972 0.415937,
			0.337813 0.697430 -0.632039,
			-0.160429 0.973922 -0.160429,
			0.297102 0.630254 -0.717294,
			-0.905411 0.300195 -0.300191,
			-0.905413 0.300189 0.300189,
			-0.905411 -0.300195 0.300191,
			-0.297092 -0.630272 0.717282,
			-0.573236 -0.705973 0.415935,
			0.297106 -0.630260 0.717286,
			0.000000 -1.000000 0.000000,
			-0.297103 -0.630252 -0.717295,
			0.000000 -1.000000 0.000000,
			0.297095 -0.630280 -0.717274,
			-0.100647 -0.993520 -0.052806,
			0.000000 -1.000000 0.000000,
			-0.573241 -0.705968 -0.415938,
			0.000000 -1.000000 0.000000,
			0.000000 -1.000000 0.000000,
			0.000000 -1.000000 0.000000,
			0.000000 -1.000000 0.000000,
			0.609130 -0.680630 -0.407067,
			0.573241 -0.705967 0.415939,
			-0.905413 -0.300189 -0.300189,
			0.905410 -0.300194 0.300194,
			0.905414 0.300190 0.300187,
			0.905410 0.300194 -0.300194,
			0.905414 -0.300190 -0.300187,
			0.000000 -1.000000 0.000000,
			0.000000 -1.000000 0.000000,
			0.000000 -1.000000 0.000000,
			0.000000 -1.000000 0.000000,
			-0.297102 0.630259 -0.717289,
			-0.573236 0.705972 -0.415937,
			0.000000 1.000000 -0.000000,
			-0.573246 0.705961 0.415943,
			0.000000 1.000000 -0.000000,
			-0.297109 0.630253 0.717292,
			0.297096 0.630260 0.717291,
			0.339795 0.923448 0.178278,
			0.573236 0.705972 0.415937,
			0.767528 0.570201 -0.292867,
			-0.160429 0.973923 -0.160429,
			0.297102 0.630254 -0.717294,
			-0.905411 0.300194 -0.300191,
			-0.905413 0.300189 0.300189,
			-0.905411 -0.300194 0.300191,
			-0.297092 -0.630272 0.717282,
			-0.573236 -0.705972 0.415937,
			0.297106 -0.630260 0.717286,
			0.000000 -1.000000 0.000000,
			-0.297103 -0.630253 -0.717295,
			0.000000 -1.000000 0.000000,
			0.297095 -0.630280 -0.717274,
			0.099429 -0.993676 0.052167,
			0.000000 -1.000000 0.000000,
			-0.573241 -0.705967 -0.415939,
			0.000000 -1.000000 0.000000,
			0.000000 -1.000000 0.000000,
			0.000000 -1.000000 0.000000,
			0.000000 -1.000000 0.000000,
			0.609130 -0.680630 -0.407068,
			0.573241 -0.705967 0.415939,
			-0.905413 -0.300189 -0.300189,
			0.905410 -0.300194 0.300194,
			0.905414 0.300190 0.300187,
			0.905410 0.300194 -0.300194,
			0.905414 -0.300190 -0.300187,
			0.000000 -1.000000 0.000000,
			0.000000 -1.000000 0.000000,
			0.000000 -1.000000 0.000000,
			0.000000 -1.000000 0.000000,
			-0.297102 0.630259 -0.717289,
			-0.573236 0.705973 -0.415935,
			0.000000 1.000000 -0.000000,
			-0.573246 0.705962 0.415941,
			0.000000 1.000000 -0.000000,
			-0.297109 0.630253 0.717292,
			0.297095 0.630260 0.717291,
			-0.021690 0.999700 -0.011380,
			0.573236 0.705972 0.415937,
			0.337813 0.697430 -0.632039,
			-0.160429 0.973922 -0.160429,
			0.297102 0.630254 -0.717294,
			-0.905411 0.300195 -0.300191,
			-0.905413 0.300189 0.300189,
			-0.905411 -0.300195 0.300191,
			-0.297092 -0.630272 0.717282,
			-0.573236 -0.705973 0.415935,
			0.297106 -0.630260 0.717286,
			0.000000 -1.000000 0.000000,
			-0.297103 -0.630252 -0.717295,
			0.000000 -1.000000 0.000000,
			0.297095 -0.630280 -0.717274,
			-0.100647 -0.993520 -0.052806,
			0.000000 -1.000000 0.000000,
			-0.573241 -0.705968 -0.415938,
			0.000000 -1.000000 0.000000,
			0.000000 -1.000000 0.000000,
			0.000000 -1.000000 0.000000,
			0.000000 -1.000000 0.000000,
			0.609130 -0.680630 -0.407067,
			0.573241 -0.705967 0.415939,
			-0.905413 -0.300189 -0.300189,
			0.905410 -0.300194 0.300194,
			0.905414 0.300190 0.300187,
			0.905410 0.300194 -0.300194,
			0.905414 -0.300190 -0.300187,
			0.000000 -1.000000 0.000000,
			0.000000 -1.000000 0.000000,
			0.000000 -1.000000 0.000000,
			0.000000 -1.000000 0.000000,
			-0.297102 0.630259 -0.717289,
			-0.573236 0.705972 -0.415937,
			0.000000 1.000000 -0.000000,
			-0.573246 0.705961 0.415943,
			0.000000 1.000000 -0.000000,
			-0.297109 0.630253 0.717292,
			0.297095 0.630260 0.717291,
			-0.021690 0.999700 -0.011380,
			0.573236 0.705972 0.415937,
			0.337813 0.697430 -0.632039,
			-0.160429 0.973922 -0.160429,
			0.297102 0.630254 -0.717294,
			-0.905411 0.300194 -0.300191,
			-0.905413 0.300189 0.300189,
			-0.905411 -0.300194 0.300191,
			-0.297092 -0.630272 0.717282,
			-0.573236 -0.705972 0.415937,
			0.297106 -0.630260 0.717286,
			0.000000 -1.000000 0.000000,
			-0.297103 -0.630253 -0.717295,
			0.000000 -1.000000 0.000000,
			0.297095 -0.630280 -0.717274,
			-0.100647 -0.993520 -0.052806,
			0.000000 -1.000000 0.000000,
			-0.573241 -0.705967 -0.415939,
			0.000000 -1.000000 0.000000,
			0.000000 -1.000000 0.000000,
			0.000000 -1.000000 0.000000,
			0.000000 -1.000000 0.000000,
			0.609130 -0.680630 -0.407067,
			0.573241 -0.705967 0.415939,
			-0.905413 -0.300189 -0.300189,
			0.905410 -0.300194 0.300194,
			0.905414 0.300190 0.300187,
			0.905410 0.300194 -0.300194,
			0.905414 -0.300190 -0.300187,
			0.000000 -1.000000 0.000000,
			0.000000 -1.000000 0.000000,
			0.000000 -1.000000 0.000000,
			0.000000 -1.000000 0.000000,
		] }
		normalPerVertex TRUE
		solid TRUE
	}
	appearance Appearance {
		material Material {
			diffuseColor 0.2980 0.2980 0.2980
			transparency 0.0000
			shininess 0.0000
		}
	}
}

Shape # Material: Gold.001
{
	geometry IndexedFaceSet {
		coord Coordinate { point [
			-3.621999 -1.132000 2.771038,
			-3.621999 -1.132000 2.639038,
			-3.683199 1.100000 2.577838,
			-3.489999 -1.132000 2.771038,
			-3.489999 -1.132000 2.639038,
			-3.683199 1.100000 2.832238,
			-3.683199 -1.026400 2.577838,
			-3.683199 -1.026400 2.832238,
			-3.428799 -1.026400 2.577838,
			-3.428799 1.100000 2.832238,
			-3.428799 -1.026400 2.832238,
			-3.683199 1.387172 4.352238,
			-3.428799 1.387172 4.352238,
			-3.428799 1.100000 2.577838,
			-3.683199 1.641572 4.352238,
			-3.428799 1.641572 4.352238,
			-3.489999 1.580372 4.457838,
			-3.489999 1.448372 4.457838,
			-3.621999 1.580372 4.457838,
			-3.621999 1.448372 4.457838,
			-3.683199 0.324000 2.832238,
			-3.428799 0.324000 2.832238,
			-3.428799 0.324000 2.577838,
			-3.683199 0.324000 2.577838,
			-3.505812 0.324000 2.832238,
			-3.428799 0.324000 2.654852,
			-3.505812 0.324000 2.577838,
			-3.683199 0.324000 2.654852,
			-3.683199 1.641572 2.577838,
			-3.683199 1.641572 2.832238,
			-3.428799 1.641572 2.832238,
			-3.428799 1.641572 2.577838,
			-3.683199 1.389572 2.832238,
			-3.683199 1.389572 2.577838,
			-3.428799 1.389572 2.832238,
			-3.428799 1.389572 2.577838,
			-2.605999 -1.132000 2.771038,
			-2.605999 -1.132000 2.639038,
			-2.667199 1.100000 2.577838,
			-2.473999 -1.132000 2.771038,
			-2.473999 -1.132000 2.639038,
			-2.667199 1.100000 2.832238,
			-2.667199 -1.026400 2.577838,
			-2.667199 -1.026400 2.832238,
			-2.412798 -1.026400 2.577838,
			-2.412799 1.100000 2.832238,
			-2.412798 -1.026400 2.832238,
			-2.667199 1.387172 4.352238,
			-2.412799 1.387172 4.352238,
			-2.412799 1.100000 2.577838,
			-2.667199 1.641572 4.352238,
			-2.412799 1.641572 4.352238,
			-2.473999 1.580372 4.457838,
			-2.473999 1.448372 4.457838,
			-2.605999 1.580372 4.457838,
			-2.605999 1.448372 4.457838,
			-2.667199 0.324000 2.832238,
			-2.412799 0.324000 2.832238,
			-2.412799 0.324000 2.577838,
			-2.667199 0.324000 2.577838,
			-2.489812 0.324000 2.832238,
			-2.412799 0.324000 2.654852,
			-2.489812 0.324000 2.577838,
			-2.667199 0.324000 2.654852,
			-2.667199 1.641572 2.577838,
			-2.667199 1.641572 2.832238,
			-2.412799 1.641572 2.832238,
			-2.412799 1.641572 2.577838,
			-2.667199 1.389572 2.832238,
			-2.667199 1.389572 2.577838,
			-2.412799 1.389572 2.832238,
			-2.412799 1.389572 2.577838,
			-1.589999 -1.132000 2.771038,
			-1.589999 -1.132000 2.639038,
			-1.651199 1.100000 2.577838,
			-1.457999 -1.132000 2.771038,
			-1.457999 -1.132000 2.639038,
			-1.651199 1.100000 2.832238,
			-1.651199 -1.026400 2.577838,
			-1.651199 -1.026400 2.832238,
			-1.396799 -1.026400 2.577838,
			-1.396799 1.100000 2.832238,
			-1.396799 -1.026400 2.832238,
			-1.651199 1.387172 4.352238,
			-1.396799 1.387172 4.352238,
			-1.396799 1.100000 2.577838,
			-1.651199 1.641572 4.352238,
			-1.396799 1.641572 4.352238,
			-1.457999 1.580372 4.457838,
			-1.457999 1.448372 4.457838,
			-1.589999 1.580372 4.457838,
			-1.589999 1.448372 4.457838,
			-1.651199 0.324000 2.832238,
			-1.396799 0.324000 2.832238,
			-1.396799 0.324000 2.577838,
			-1.651199 0.324000 2.577838,
			-1.473812 0.324000 2.832238,
			-1.396799 0.324000 2.654852,
			-1.473812 0.324000 2.577838,
			-1.651199 0.324000 2.654852,
			-1.651199 1.641572 2.577838,
			-1.651199 1.641572 2.832238,
			-1.396799 1.641572 2.832238,
			-1.396799 1.641572 2.577838,
			-1.651199 1.389572 2.832238,
			-1.651199 1.389572 2.577838,
			-1.396799 1.389572 2.832238,
			-1.396799 1.389572 2.577838,
			-0.573999 -1.132000 2.771038,
			-0.573999 -1.132000 2.639038,
			-0.635199 1.100000 2.577838,
			-0.441999 -1.132000 2.771038,
			-0.441999 -1.132000 2.639038,
			-0.635199 1.100000 2.832238,
			-0.635199 -1.026400 2.577838,
			-0.635199 -1.026400 2.832238,
			-0.380799 -1.026400 2.577838,
			-0.380799 1.100000 2.832238,
			-0.380799 -1.026400 2.832238,
			-0.635199 1.387172 4.352238,
			-0.380799 1.387172 4.352238,
			-0.380799 1.100000 2.577838,
			-0.635199 1.641572 4.352238,
			-0.380799 1.641572 4.352238,
			-0.441999 1.580372 4.457838,
			-0.441999 1.448372 4.457838,
			-0.573999 1.580372 4.457838,
			-0.573999 1.448372 4.457838,
			-0.635199 0.324000 2.832238,
			-0.380799 0.324000 2.832238,
			-0.380799 0.324000 2.577838,
			-0.635199 0.324000 2.577838,
			-0.457812 0.324000 2.832238,
			-0.380799 0.324000 2.654852,
			-0.457812 0.324000 2.577838,
			-0.635199 0.324000 2.654852,
			-0.635199 1.641572 2.577838,
			-0.635199 1.641572 2.832238,
			-0.380799 1.641572 2.832238,
			-0.380799 1.641572 2.577838,
			-0.635199 1.389572 2.832238,
			-0.635199 1.389572 2.577838,
			-0.380799 1.389572 2.832238,
			-0.380799 1.389572 2.577838,
			0.442001 -1.132000 2.771038,
			0.442001 -1.132000 2.639038,
			0.380801 1.100000 2.577838,
			0.574001 -1.132000 2.771038,
			0.574001 -1.132000 2.639038,
			0.380801 1.100000 2.832238,
			0.380801 -1.026400 2.577838,
			0.380801 -1.026400 2.832238,
			0.635201 -1.026400 2.577838,
			0.635201 1.100000 2.832238,
			0.635201 -1.026400 2.832238,
			0.380801 1.387172 4.352238,
			0.635201 1.387172 4.352238,
			0.635201 1.100000 2.577838,
			0.380801 1.641572 4.352238,
			0.635201 1.641572 4.352238,
			0.574001 1.580372 4.457838,
			0.574001 1.448372 4.457838,
			0.442001 1.580372 4.457838,
			0.442001 1.448372 4.457838,
			0.380801 0.324000 2.832238,
			0.635201 0.324000 2.832238,
			0.635201 0.324000 2.577838,
			0.380801 0.324000 2.577838,
			0.558188 0.324000 2.832238,
			0.635201 0.324000 2.654852,
			0.558188 0.324000 2.577838,
			0.380801 0.324000 2.654852,
			0.380801 1.641572 2.577838,
			0.380801 1.641572 2.832238,
			0.635201 1.641572 2.832238,
			0.635201 1.641572 2.577838,
			0.380801 1.389572 2.832238,
			0.380801 1.389572 2.577838,
			0.635201 1.389572 2.832238,
			0.635201 1.389572 2.577838,
			1.458002 -1.132000 2.771038,
			1.458002 -1.132000 2.639038,
			1.396801 1.100000 2.577838,
			1.590001 -1.132000 2.771038,
			1.590001 -1.132000 2.639038,
			1.396801 1.100000 2.832238,
			1.396801 -1.026400 2.577838,
			1.396801 -1.026400 2.832238,
			1.651201 -1.026400 2.577838,
			1.651201 1.100000 2.832238,
			1.651201 -1.026400 2.832238,
			1.396801 1.387172 4.352238,
			1.651201 1.387172 4.352238,
			1.651201 1.100000 2.577838,
			1.396801 1.641572 4.352238,
			1.651201 1.641572 4.352238,
			1.590001 1.580372 4.457838,
			1.590001 1.448372 4.457838,
			1.458001 1.580372 4.457838,
			1.458001 1.448372 4.457838,
			1.396801 0.324000 2.832238,
			1.651201 0.324000 2.832238,
			1.651201 0.324000 2.577838,
			1.396801 0.324000 2.577838,
			1.574188 0.324000 2.832238,
			1.651201 0.324000 2.654852,
			1.574188 0.324000 2.577838,
			1.396801 0.324000 2.654852,
			1.396801 1.641572 2.577838,
			1.396801 1.641572 2.832238,
			1.651201 1.641572 2.832238,
			1.651201 1.641572 2.577838,
			1.396801 1.389572 2.832238,
			1.396801 1.389572 2.577838,
			1.651201 1.389572 2.832238,
			1.651201 1.389572 2.577838,
			2.474001 -1.132000 2.771038,
			2.474001 -1.132000 2.639038,
			2.412801 1.100000 2.577838,
			2.606001 -1.132000 2.771038,
			2.606001 -1.132000 2.639038,
			2.412801 1.100000 2.832238,
			2.412801 -1.026400 2.577838,
			2.412801 -1.026400 2.832238,
			2.667202 -1.026400 2.577838,
			2.667201 1.100000 2.832238,
			2.667202 -1.026400 2.832238,
			2.412801 1.387172 4.352238,
			2.667201 1.387172 4.352238,
			2.667201 1.100000 2.577838,
			2.412801 1.641572 4.352238,
			2.667201 1.641572 4.352238,
			2.606001 1.580372 4.457838,
			2.606001 1.448372 4.457838,
			2.474001 1.580372 4.457838,
			2.474001 1.448372 4.457838,
			2.412801 0.324000 2.832238,
			2.667201 0.324000 2.832238,
			2.667201 0.324000 2.577838,
			2.412801 0.324000 2.577838,
			2.590188 0.324000 2.832238,
			2.667201 0.324000 2.654852,
			2.590188 0.324000 2.577838,
			2.412801 0.324000 2.654852,
			2.412801 1.641572 2.577838,
			2.412801 1.641572 2.832238,
			2.667201 1.641572 2.832238,
			2.667201 1.641572 2.577838,
			2.412801 1.389572 2.832238,
			2.412801 1.389572 2.577838,
			2.667201 1.389572 2.832238,
			2.667201 1.389572 2.577838,
			3.490001 -1.132000 2.771038,
			3.490001 -1.132000 2.639038,
			3.428801 1.100000 2.577838,
			3.622001 -1.132000 2.771038,
			3.622001 -1.132000 2.639038,
			3.428801 1.100000 2.832238,
			3.428801 -1.026400 2.577838,
			3.428801 -1.026400 2.832238,
			3.683201 -1.026400 2.577838,
			3.683200 1.100000 2.832238,
			3.683201 -1.026400 2.832238,
			3.428801 1.387172 4.352238,
			3.683200 1.387172 4.352238,
			3.683200 1.100000 2.577838,
			3.428801 1.641572 4.352238,
			3.683200 1.641572 4.352238,
			3.622001 1.580372 4.457838,
			3.622001 1.448372 4.457838,
			3.490001 1.580372 4.457838,
			3.490001 1.448372 4.457838,
			3.428801 0.324000 2.832238,
			3.683200 0.324000 2.832238,
			3.683200 0.324000 2.577838,
			3.428801 0.324000 2.577838,
			3.606187 0.324000 2.832238,
			3.683200 0.324000 2.654852,
			3.606187 0.324000 2.577838,
			3.428801 0.324000 2.654852,
			3.428801 1.641572 2.577838,
			3.428801 1.641572 2.832238,
			3.683200 1.641572 2.832238,
			3.683200 1.641572 2.577838,
			3.428801 1.389572 2.832238,
			3.428801 1.389572 2.577838,
			3.683200 1.389572 2.832238,
			3.683200 1.389572 2.577838,
		] }
		coordIndex [
			0 1 3 -1,
			3 1 4 -1,
			1 0 6 -1,
			6 0 7 -1,
			4 1 8 -1,
			8 1 6 -1,
			3 4 10 -1,
			10 4 8 -1,
			0 3 7 -1,
			7 3 10 -1,
			7 24 20 -1,
			21 24 10 -1,
			7 27 6 -1,
			27 23 6 -1,
			26 6 23 -1,
			22 8 26 -1,
			10 25 21 -1,
			25 8 22 -1,
			16 17 15 -1,
			15 17 12 -1,
			18 19 16 -1,
			16 19 17 -1,
			19 18 11 -1,
			11 18 14 -1,
			17 19 12 -1,
			12 19 11 -1,
			18 16 14 -1,
			14 16 15 -1,
			32 28 33 -1,
			34 15 12 -1,
			34 35 31 -1,
			33 31 35 -1,
			2 35 13 -1,
			9 13 35 -1,
			9 32 5 -1,
			5 33 2 -1,
			29 15 30 -1,
			32 14 29 -1,
			34 11 32 -1,
			29 30 31 -1,
			36 37 39 -1,
			39 37 40 -1,
			37 36 42 -1,
			42 36 43 -1,
			40 37 44 -1,
			44 37 42 -1,
			39 40 46 -1,
			46 40 44 -1,
			36 39 43 -1,
			43 39 46 -1,
			43 60 56 -1,
			57 60 46 -1,
			43 63 42 -1,
			63 59 42 -1,
			62 42 59 -1,
			58 44 62 -1,
			46 61 57 -1,
			61 44 58 -1,
			52 53 51 -1,
			51 53 48 -1,
			54 55 52 -1,
			52 55 53 -1,
			55 54 47 -1,
			47 54 50 -1,
			53 55 48 -1,
			48 55 47 -1,
			54 52 50 -1,
			50 52 51 -1,
			68 64 69 -1,
			70 51 48 -1,
			70 71 67 -1,
			69 67 71 -1,
			38 71 49 -1,
			45 49 71 -1,
			45 68 41 -1,
			41 69 38 -1,
			65 51 66 -1,
			68 50 65 -1,
			70 47 68 -1,
			65 66 67 -1,
			72 73 75 -1,
			75 73 76 -1,
			73 72 78 -1,
			78 72 79 -1,
			76 73 80 -1,
			80 73 78 -1,
			75 76 82 -1,
			82 76 80 -1,
			72 75 79 -1,
			79 75 82 -1,
			79 96 92 -1,
			93 96 82 -1,
			79 99 78 -1,
			99 95 78 -1,
			98 78 95 -1,
			94 80 98 -1,
			82 97 93 -1,
			97 80 94 -1,
			88 89 87 -1,
			87 89 84 -1,
			90 91 88 -1,
			88 91 89 -1,
			91 90 83 -1,
			83 90 86 -1,
			89 91 84 -1,
			84 91 83 -1,
			90 88 86 -1,
			86 88 87 -1,
			104 100 105 -1,
			106 87 84 -1,
			106 107 103 -1,
			105 103 107 -1,
			74 107 85 -1,
			81 85 107 -1,
			81 104 77 -1,
			77 105 74 -1,
			101 87 102 -1,
			104 86 101 -1,
			106 83 104 -1,
			101 102 103 -1,
			108 109 111 -1,
			111 109 112 -1,
			109 108 114 -1,
			114 108 115 -1,
			112 109 116 -1,
			116 109 114 -1,
			111 112 118 -1,
			118 112 116 -1,
			108 111 115 -1,
			115 111 118 -1,
			115 132 128 -1,
			129 132 118 -1,
			115 135 114 -1,
			135 131 114 -1,
			134 114 131 -1,
			130 116 134 -1,
			118 133 129 -1,
			133 116 130 -1,
			124 125 123 -1,
			123 125 120 -1,
			126 127 124 -1,
			124 127 125 -1,
			127 126 119 -1,
			119 126 122 -1,
			125 127 120 -1,
			120 127 119 -1,
			126 124 122 -1,
			122 124 123 -1,
			140 136 141 -1,
			142 123 120 -1,
			142 143 139 -1,
			141 139 143 -1,
			110 143 121 -1,
			117 121 143 -1,
			117 140 113 -1,
			113 141 110 -1,
			137 123 138 -1,
			140 122 137 -1,
			142 119 140 -1,
			137 138 139 -1,
			144 145 147 -1,
			147 145 148 -1,
			145 144 150 -1,
			150 144 151 -1,
			148 145 152 -1,
			152 145 150 -1,
			147 148 154 -1,
			154 148 152 -1,
			144 147 151 -1,
			151 147 154 -1,
			151 168 164 -1,
			165 168 154 -1,
			151 171 150 -1,
			171 167 150 -1,
			170 150 167 -1,
			166 152 170 -1,
			154 169 165 -1,
			169 152 166 -1,
			160 161 159 -1,
			159 161 156 -1,
			162 163 160 -1,
			160 163 161 -1,
			163 162 155 -1,
			155 162 158 -1,
			161 163 156 -1,
			156 163 155 -1,
			162 160 158 -1,
			158 160 159 -1,
			176 172 177 -1,
			178 159 156 -1,
			178 179 175 -1,
			177 175 179 -1,
			146 179 157 -1,
			153 157 179 -1,
			153 176 149 -1,
			149 177 146 -1,
			173 159 174 -1,
			176 158 173 -1,
			178 155 176 -1,
			173 174 175 -1,
			180 181 183 -1,
			183 181 184 -1,
			181 180 186 -1,
			186 180 187 -1,
			184 181 188 -1,
			188 181 186 -1,
			183 184 190 -1,
			190 184 188 -1,
			180 183 187 -1,
			187 183 190 -1,
			187 204 200 -1,
			201 204 190 -1,
			187 207 186 -1,
			207 203 186 -1,
			206 186 203 -1,
			202 188 206 -1,
			190 205 201 -1,
			205 188 202 -1,
			196 197 195 -1,
			195 197 192 -1,
			198 199 196 -1,
			196 199 197 -1,
			199 198 191 -1,
			191 198 194 -1,
			197 199 192 -1,
			192 199 191 -1,
			198 196 194 -1,
			194 196 195 -1,
			212 208 213 -1,
			214 195 192 -1,
			214 215 211 -1,
			213 211 215 -1,
			182 215 193 -1,
			189 193 215 -1,
			189 212 185 -1,
			185 213 182 -1,
			209 195 210 -1,
			212 194 209 -1,
			214 191 212 -1,
			209 210 211 -1,
			216 217 219 -1,
			219 217 220 -1,
			217 216 222 -1,
			222 216 223 -1,
			220 217 224 -1,
			224 217 222 -1,
			219 220 226 -1,
			226 220 224 -1,
			216 219 223 -1,
			223 219 226 -1,
			223 240 236 -1,
			237 240 226 -1,
			223 243 222 -1,
			243 239 222 -1,
			242 222 239 -1,
			238 224 242 -1,
			226 241 237 -1,
			241 224 238 -1,
			232 233 231 -1,
			231 233 228 -1,
			234 235 232 -1,
			232 235 233 -1,
			235 234 227 -1,
			227 234 230 -1,
			233 235 228 -1,
			228 235 227 -1,
			234 232 230 -1,
			230 232 231 -1,
			248 244 249 -1,
			250 231 228 -1,
			250 251 247 -1,
			249 247 251 -1,
			218 251 229 -1,
			225 229 251 -1,
			225 248 221 -1,
			221 249 218 -1,
			245 231 246 -1,
			248 230 245 -1,
			250 227 248 -1,
			245 246 247 -1,
			252 253 255 -1,
			255 253 256 -1,
			253 252 258 -1,
			258 252 259 -1,
			256 253 260 -1,
			260 253 258 -1,
			255 256 262 -1,
			262 256 260 -1,
			252 255 259 -1,
			259 255 262 -1,
			259 276 272 -1,
			273 276 262 -1,
			259 279 258 -1,
			279 275 258 -1,
			278 258 275 -1,
			274 260 278 -1,
			262 277 273 -1,
			277 260 274 -1,
			268 269 267 -1,
			267 269 264 -1,
			270 271 268 -1,
			268 271 269 -1,
			271 270 263 -1,
			263 270 266 -1,
			269 271 264 -1,
			264 271 263 -1,
			270 268 266 -1,
			266 268 267 -1,
			284 280 285 -1,
			286 267 264 -1,
			286 287 283 -1,
			285 283 287 -1,
			254 287 265 -1,
			261 265 287 -1,
			261 284 257 -1,
			257 285 254 -1,
			281 267 282 -1,
			284 266 281 -1,
			286 263 284 -1,
			281 282 283 -1,
			7 10 24 -1,
			7 20 27 -1,
			26 8 6 -1,
			10 8 25 -1,
			32 29 28 -1,
			34 30 15 -1,
			34 31 30 -1,
			33 28 31 -1,
			2 33 35 -1,
			9 35 34 -1,
			9 34 32 -1,
			5 32 33 -1,
			29 14 15 -1,
			32 11 14 -1,
			34 12 11 -1,
			29 31 28 -1,
			43 46 60 -1,
			43 56 63 -1,
			62 44 42 -1,
			46 44 61 -1,
			68 65 64 -1,
			70 66 51 -1,
			70 67 66 -1,
			69 64 67 -1,
			38 69 71 -1,
			45 71 70 -1,
			45 70 68 -1,
			41 68 69 -1,
			65 50 51 -1,
			68 47 50 -1,
			70 48 47 -1,
			65 67 64 -1,
			79 82 96 -1,
			79 92 99 -1,
			98 80 78 -1,
			82 80 97 -1,
			104 101 100 -1,
			106 102 87 -1,
			106 103 102 -1,
			105 100 103 -1,
			74 105 107 -1,
			81 107 106 -1,
			81 106 104 -1,
			77 104 105 -1,
			101 86 87 -1,
			104 83 86 -1,
			106 84 83 -1,
			101 103 100 -1,
			115 118 132 -1,
			115 128 135 -1,
			134 116 114 -1,
			118 116 133 -1,
			140 137 136 -1,
			142 138 123 -1,
			142 139 138 -1,
			141 136 139 -1,
			110 141 143 -1,
			117 143 142 -1,
			117 142 140 -1,
			113 140 141 -1,
			137 122 123 -1,
			140 119 122 -1,
			142 120 119 -1,
			137 139 136 -1,
			151 154 168 -1,
			151 164 171 -1,
			170 152 150 -1,
			154 152 169 -1,
			176 173 172 -1,
			178 174 159 -1,
			178 175 174 -1,
			177 172 175 -1,
			146 177 179 -1,
			153 179 178 -1,
			153 178 176 -1,
			149 176 177 -1,
			173 158 159 -1,
			176 155 158 -1,
			178 156 155 -1,
			173 175 172 -1,
			187 190 204 -1,
			187 200 207 -1,
			206 188 186 -1,
			190 188 205 -1,
			212 209 208 -1,
			214 210 195 -1,
			214 211 210 -1,
			213 208 211 -1,
			182 213 215 -1,
			189 215 214 -1,
			189 214 212 -1,
			185 212 213 -1,
			209 194 195 -1,
			212 191 194 -1,
			214 192 191 -1,
			209 211 208 -1,
			223 226 240 -1,
			223 236 243 -1,
			242 224 222 -1,
			226 224 241 -1,
			248 245 244 -1,
			250 246 231 -1,
			250 247 246 -1,
			249 244 247 -1,
			218 249 251 -1,
			225 251 250 -1,
			225 250 248 -1,
			221 248 249 -1,
			245 230 231 -1,
			248 227 230 -1,
			250 228 227 -1,
			245 247 244 -1,
			259 262 276 -1,
			259 272 279 -1,
			278 260 258 -1,
			262 260 277 -1,
			284 281 280 -1,
			286 282 267 -1,
			286 283 282 -1,
			285 280 283 -1,
			254 285 287 -1,
			261 287 286 -1,
			261 286 284 -1,
			257 284 285 -1,
			281 266 267 -1,
			284 263 266 -1,
			286 264 263 -1,
			281 283 280 -1,
		]
		normal Normal { vector [
			-0.401401 -0.823259 0.401399,
			-0.401390 -0.823266 -0.401396,
			-0.707089 -0.000000 -0.707125,
			0.401390 -0.823266 0.401396,
			0.401401 -0.823260 -0.401399,
			-0.707125 0.000000 0.707089,
			-0.675355 -0.296339 -0.675336,
			-0.675340 -0.296340 0.675351,
			0.675340 -0.296337 -0.675352,
			0.707107 0.000000 0.707107,
			0.675349 -0.296338 0.675342,
			-0.675257 -0.675661 0.295821,
			0.675243 -0.675676 0.295820,
			0.707107 -0.000000 -0.707107,
			-0.675337 0.675353 0.296341,
			0.675351 0.675339 0.296342,
			0.401391 0.401395 0.823266,
			0.401402 -0.401398 0.823260,
			-0.401402 0.401398 0.823260,
			-0.401391 -0.401395 0.823266,
			-0.707107 0.000000 0.707107,
			0.707107 0.000000 0.707107,
			0.707107 0.000000 -0.707107,
			-0.707107 -0.000000 -0.707107,
			0.000000 0.000000 1.000000,
			1.000000 0.000000 -0.000000,
			0.000000 -0.000000 -1.000000,
			-1.000000 0.000000 0.000000,
			-0.577372 0.577339 -0.577339,
			-0.707099 0.707115 -0.000000,
			0.707107 0.707107 -0.000000,
			0.577350 0.577350 -0.577350,
			-0.904717 -0.301466 0.301006,
			-0.707106 -0.000000 -0.707108,
			0.904722 -0.301465 0.300992,
			0.707107 -0.000000 -0.707107,
			-0.401401 -0.823260 0.401399,
			-0.401390 -0.823266 -0.401396,
			-0.707089 -0.000000 -0.707125,
			0.401390 -0.823266 0.401396,
			0.401401 -0.823260 -0.401398,
			-0.707125 0.000000 0.707089,
			-0.675355 -0.296339 -0.675336,
			-0.675340 -0.296340 0.675351,
			0.675340 -0.296337 -0.675352,
			0.707107 0.000000 0.707107,
			0.675349 -0.296338 0.675342,
			-0.675257 -0.675661 0.295821,
			0.675243 -0.675676 0.295820,
			0.707107 -0.000000 -0.707107,
			-0.675337 0.675353 0.296341,
			0.675351 0.675339 0.296342,
			0.401391 0.401395 0.823266,
			0.401402 -0.401398 0.823260,
			-0.401402 0.401398 0.823260,
			-0.401391 -0.401395 0.823266,
			-0.707107 0.000000 0.707107,
			0.707107 0.000000 0.707107,
			0.707107 0.000000 -0.707107,
			-0.707107 -0.000000 -0.707107,
			0.000000 0.000000 1.000000,
			1.000000 0.000000 -0.000000,
			0.000000 -0.000000 -1.000000,
			-1.000000 0.000000 0.000000,
			-0.577372 0.577339 -0.577339,
			-0.707099 0.707115 -0.000000,
			0.707107 0.707107 -0.000000,
			0.577350 0.577350 -0.577350,
			-0.904717 -0.301466 0.301006,
			-0.707106 -0.000000 -0.707108,
			0.904722 -0.301465 0.300993,
			0.707107 -0.000000 -0.707107,
			-0.401402 -0.823259 0.401398,
			-0.401391 -0.823266 -0.401396,
			-0.707089 -0.000000 -0.707125,
			0.401391 -0.823266 0.401396,
			0.401402 -0.823259 -0.401398,
			-0.707125 0.000000 0.707089,
			-0.675355 -0.296338 -0.675336,
			-0.675339 -0.296340 0.675351,
			0.675340 -0.296337 -0.675352,
			0.707107 0.000000 0.707107,
			0.675349 -0.296338 0.675343,
			-0.675257 -0.675661 0.295821,
			0.675243 -0.675676 0.295820,
			0.707107 -0.000000 -0.707107,
			-0.675337 0.675353 0.296341,
			0.675351 0.675339 0.296342,
			0.401391 0.401395 0.823266,
			0.401402 -0.401398 0.823260,
			-0.401402 0.401398 0.823259,
			-0.401391 -0.401395 0.823266,
			-0.707107 0.000000 0.707107,
			0.707107 0.000000 0.707107,
			0.707107 0.000000 -0.707107,
			-0.707107 -0.000000 -0.707107,
			0.000000 0.000000 1.000000,
			1.000000 0.000000 -0.000000,
			0.000000 -0.000000 -1.000000,
			-1.000000 0.000000 0.000000,
			-0.577372 0.577339 -0.577339,
			-0.707099 0.707115 -0.000000,
			0.707107 0.707107 -0.000000,
			0.577350 0.577350 -0.577350,
			-0.904717 -0.301466 0.301006,
			-0.707106 -0.000000 -0.707108,
			0.904722 -0.301465 0.300993,
			0.707107 -0.000000 -0.707107,
			-0.401402 -0.823259 0.401398,
			-0.401391 -0.823266 -0.401396,
			-0.707089 -0.000000 -0.707125,
			0.401391 -0.823266 0.401396,
			0.401402 -0.823259 -0.401398,
			-0.707125 0.000000 0.707089,
			-0.675355 -0.296338 -0.675336,
			-0.675339 -0.296340 0.675351,
			0.675340 -0.296337 -0.675352,
			0.707107 0.000000 0.707107,
			0.675349 -0.296338 0.675343,
			-0.675257 -0.675661 0.295821,
			0.675243 -0.675676 0.295820,
			0.707107 -0.000000 -0.707107,
			-0.675337 0.675353 0.296341,
			0.675351 0.675339 0.296342,
			0.401391 0.401395 0.823266,
			0.401402 -0.401398 0.823260,
			-0.401402 0.401398 0.823259,
			-0.401391 -0.401395 0.823266,
			-0.707107 0.000000 0.707107,
			0.707107 0.000000 0.707107,
			0.707107 0.000000 -0.707107,
			-0.707107 -0.000000 -0.707107,
			0.000000 0.000000 1.000000,
			1.000000 0.000000 -0.000000,
			0.000000 -0.000000 -1.000000,
			-1.000000 0.000000 0.000000,
			-0.577372 0.577339 -0.577339,
			-0.707099 0.707115 -0.000000,
			0.707107 0.707107 -0.000000,
			0.577350 0.577350 -0.577350,
			-0.904717 -0.301466 0.301006,
			-0.707106 -0.000000 -0.707108,
			0.904722 -0.301465 0.300993,
			0.707107 -0.000000 -0.707107,
			-0.401402 -0.823259 0.401398,
			-0.401391 -0.823266 -0.401396,
			-0.707089 -0.000000 -0.707125,
			0.401391 -0.823266 0.401396,
			0.401402 -0.823259 -0.401398,
			-0.707125 0.000000 0.707089,
			-0.675355 -0.296338 -0.675336,
			-0.675339 -0.296340 0.675351,
			0.675340 -0.296337 -0.675352,
			0.707107 0.000000 0.707107,
			0.675349 -0.296338 0.675343,
			-0.675257 -0.675661 0.295821,
			0.675243 -0.675676 0.295820,
			0.707107 -0.000000 -0.707107,
			-0.675337 0.675353 0.296341,
			0.675351 0.675339 0.296342,
			0.401391 0.401395 0.823266,
			0.401402 -0.401398 0.823260,
			-0.401402 0.401398 0.823259,
			-0.401391 -0.401395 0.823266,
			-0.707107 0.000000 0.707107,
			0.707107 0.000000 0.707107,
			0.707107 0.000000 -0.707107,
			-0.707107 -0.000000 -0.707107,
			0.000000 0.000000 1.000000,
			1.000000 0.000000 -0.000000,
			0.000000 -0.000000 -1.000000,
			-1.000000 0.000000 0.000000,
			-0.577372 0.577339 -0.577339,
			-0.707099 0.707115 -0.000000,
			0.707107 0.707107 -0.000000,
			0.577350 0.577350 -0.577350,
			-0.904717 -0.301466 0.301006,
			-0.707106 -0.000000 -0.707108,
			0.904722 -0.301465 0.300993,
			0.707107 -0.000000 -0.707107,
			-0.401402 -0.823259 0.401398,
			-0.401391 -0.823266 -0.401396,
			-0.707089 -0.000000 -0.707125,
			0.401391 -0.823266 0.401396,
			0.401402 -0.823259 -0.401398,
			-0.707125 0.000000 0.707089,
			-0.675355 -0.296338 -0.675336,
			-0.675339 -0.296340 0.675351,
			0.675340 -0.296337 -0.675352,
			0.707107 0.000000 0.707107,
			0.675349 -0.296338 0.675343,
			-0.675257 -0.675661 0.295821,
			0.675243 -0.675676 0.295820,
			0.707107 -0.000000 -0.707107,
			-0.675337 0.675353 0.296341,
			0.675351 0.675339 0.296342,
			0.401391 0.401395 0.823266,
			0.401402 -0.401398 0.823260,
			-0.401402 0.401398 0.823259,
			-0.401391 -0.401395 0.823266,
			-0.707107 0.000000 0.707107,
			0.707107 0.000000 0.707107,
			0.707107 0.000000 -0.707107,
			-0.707107 -0.000000 -0.707107,
			0.000000 0.000000 1.000000,
			1.000000 0.000000 -0.000000,
			0.000000 -0.000000 -1.000000,
			-1.000000 0.000000 0.000000,
			-0.577372 0.577339 -0.577339,
			-0.707099 0.707115 -0.000000,
			0.707107 0.707107 -0.000000,
			0.577350 0.577350 -0.577350,
			-0.904717 -0.301466 0.301006,
			-0.707106 -0.000000 -0.707108,
			0.904722 -0.301465 0.300993,
			0.707107 -0.000000 -0.707107,
			-0.401402 -0.823259 0.401398,
			-0.401391 -0.823266 -0.401396,
			-0.707089 -0.000000 -0.707125,
			0.401391 -0.823266 0.401396,
			0.401402 -0.823259 -0.401398,
			-0.707125 0.000000 0.707089,
			-0.675355 -0.296338 -0.675336,
			-0.675339 -0.296340 0.675351,
			0.675340 -0.296337 -0.675352,
			0.707107 0.000000 0.707107,
			0.675349 -0.296338 0.675343,
			-0.675257 -0.675661 0.295821,
			0.675243 -0.675676 0.295820,
			0.707107 -0.000000 -0.707107,
			-0.675337 0.675353 0.296341,
			0.675351 0.675339 0.296342,
			0.401391 0.401395 0.823266,
			0.401402 -0.401398 0.823260,
			-0.401402 0.401398 0.823259,
			-0.401391 -0.401395 0.823266,
			-0.707107 0.000000 0.707107,
			0.707107 0.000000 0.707107,
			0.707107 0.000000 -0.707107,
			-0.707107 -0.000000 -0.707107,
			0.000000 0.000000 1.000000,
			1.000000 0.000000 -0.000000,
			0.000000 -0.000000 -1.000000,
			-1.000000 0.000000 0.000000,
			-0.577372 0.577339 -0.577339,
			-0.707099 0.707115 -0.000000,
			0.707107 0.707107 -0.000000,
			0.577350 0.577350 -0.577350,
			-0.904717 -0.301466 0.301006,
			-0.707106 -0.000000 -0.707108,
			0.904722 -0.301465 0.300993,
			0.707107 -0.000000 -0.707107,
			-0.401403 -0.823259 0.401398,
			-0.401392 -0.823265 -0.401396,
			-0.707089 -0.000000 -0.707125,
			0.401389 -0.823266 0.401396,
			0.401400 -0.823260 -0.401399,
			-0.707125 0.000000 0.707089,
			-0.675355 -0.296338 -0.675337,
			-0.675339 -0.296339 0.675352,
			0.675340 -0.296338 -0.675352,
			0.707107 0.000000 0.707107,
			0.675349 -0.296339 0.675342,
			-0.675257 -0.675661 0.295821,
			0.675243 -0.675676 0.295820,
			0.707107 -0.000000 -0.707107,
			-0.675337 0.675353 0.296341,
			0.675351 0.675339 0.296342,
			0.401391 0.401395 0.823266,
			0.401402 -0.401398 0.823260,
			-0.401402 0.401398 0.823259,
			-0.401391 -0.401395 0.823266,
			-0.707107 0.000000 0.707107,
			0.707107 0.000000 0.707107,
			0.707107 0.000000 -0.707107,
			-0.707107 -0.000000 -0.707107,
			0.000000 0.000000 1.000000,
			1.000000 0.000001 -0.000000,
			0.000000 -0.000000 -1.000000,
			-1.000000 0.000000 0.000000,
			-0.577372 0.577339 -0.577339,
			-0.707099 0.707115 -0.000000,
			0.707107 0.707107 -0.000000,
			0.577350 0.577350 -0.577350,
			-0.904717 -0.301466 0.301006,
			-0.707106 -0.000000 -0.707108,
			0.904722 -0.301465 0.300993,
			0.707107 -0.000000 -0.707107,
		] }
		normalPerVertex TRUE
		solid TRUE
	}
	appearance Appearance {
		material Material {
			diffuseColor 0.9714 0.9167 0.4554
			transparency 0.0000
			shininess 0.5000
		}
	}
}

Shape # Material: Default
{
	geometry IndexedFaceSet {
		coord Coordinate { point [
			-0.601271 0.320000 0.283529,
			0.525618 0.320000 0.283529,
			-0.601271 0.320000 -1.418324,
			0.525618 0.320000 -1.418324,
			-0.601271 0.720000 0.283529,
			0.525618 0.720000 0.283529,
			-0.601271 0.720000 -1.418324,
			0.525618 0.720000 -1.418324,
		] }
		coordIndex [
			2 1 0 -1,
			5 6 4 -1,
			3 5 1 -1,
			0 6 2 -1,
			2 7 3 -1,
			1 4 0 -1,
			2 3 1 -1,
			5 7 6 -1,
			3 7 5 -1,
			0 4 6 -1,
			2 6 7 -1,
			1 5 4 -1,
		]
		normal Normal { vector [
			-0.577337 -0.577357 0.577357,
			0.577358 -0.577365 0.577328,
			-0.577358 -0.577365 -0.577327,
			0.577337 -0.577357 -0.577357,
			-0.577360 0.577360 0.577330,
			0.577334 0.577362 0.577354,
			-0.577334 0.577362 -0.577355,
			0.577360 0.577360 -0.577330,
		] }
		normalPerVertex TRUE
		solid TRUE
	}
	appearance Appearance {
		material Material {
			diffuseColor 0.8000 0.8000 0.8000
			transparency 0.0000
			shininess 0.5000
		}
	}
}

Shape # Material: Default
{
	geometry IndexedFaceSet {
		coord Coordinate { point [
			-1.985722 0.320000 -0.518393,
			-1.630493 0.320000 -0.518393,
			-1.985722 0.320000 -1.773893,
			-1.630493 0.320000 -1.773893,
			-1.985722 0.720000 -0.518393,
			-1.630493 0.720000 -0.518393,
			-1.985722 0.720000 -1.773893,
			-1.630493 0.720000 -1.773893,
		] }
		coordIndex [
			2 1 0 -1,
			5 6 4 -1,
			2 7 3 -1,
			1 4 0 -1,
			3 5 1 -1,
			0 6 2 -1,
			2 3 1 -1,
			5 7 6 -1,
			2 6 7 -1,
			1 5 4 -1,
			3 7 5 -1,
			0 4 6 -1,
		]
		normal Normal { vector [
			-0.577331 -0.577360 0.577360,
			0.577349 -0.577322 0.577379,
			-0.577349 -0.577322 -0.577379,
			0.577331 -0.577360 -0.577360,
			-0.577340 0.577340 0.577370,
			0.577340 0.577342 0.577369,
			-0.577340 0.577342 -0.577369,
			0.577340 0.577340 -0.577370,
		] }
		normalPerVertex TRUE
		solid TRUE
	}
	appearance Appearance {
		material Material {
			diffuseColor 0.8000 0.8000 0.8000
			transparency 0.0000
			shininess 0.5000
		}
	}
}

Shape # Material: Default
{
	geometry IndexedFaceSet {
		coord Coordinate { point [
			-3.960266 0.320000 -1.100922,
			-2.598852 0.320000 -1.100922,
			-3.960266 0.320000 -1.645283,
			-2.598852 0.320000 -1.645283,
			-3.960266 0.720000 -1.100922,
			-2.598852 0.720000 -1.100922,
			-3.960266 0.720000 -1.645283,
			-2.598852 0.720000 -1.645283,
		] }
		coordIndex [
			2 1 0 -1,
			5 6 4 -1,
			3 5 1 -1,
			0 6 2 -1,
			2 7 3 -1,
			1 4 0 -1,
			2 3 1 -1,
			5 7 6 -1,
			3 7 5 -1,
			0 4 6 -1,
			2 6 7 -1,
			1 5 4 -1,
		]
		normal Normal { vector [
			-0.577362 -0.577345 0.577345,
			0.577369 -0.577340 0.577341,
			-0.577369 -0.577340 -0.577341,
			0.577362 -0.577345 -0.577344,
			-0.577360 0.577360 0.577332,
			0.577371 0.577325 0.577354,
			-0.577371 0.577325 -0.577354,
			0.577360 0.577359 -0.577332,
		] }
		normalPerVertex TRUE
		solid TRUE
	}
	appearance Appearance {
		material Material {
			diffuseColor 0.8000 0.8000 0.8000
			transparency 0.0000
			shininess 0.5000
		}
	}
}

Shape # Material: Default
{
	geometry IndexedFaceSet {
		coord Coordinate { point [
			-3.930005 0.320000 0.366747,
			-2.515634 0.320000 0.328920,
			-3.937570 0.320000 -0.397008,
			-2.500503 0.320000 -0.419704,
			-3.930005 0.720000 0.366747,
			-2.515634 0.720000 0.328920,
			-3.937570 0.720000 -0.397008,
			-2.500503 0.720000 -0.419704,
		] }
		coordIndex [
			2 1 0 -1,
			5 6 4 -1,
			3 5 1 -1,
			0 6 2 -1,
			2 7 3 -1,
			1 4 0 -1,
			2 3 1 -1,
			5 7 6 -1,
			3 7 5 -1,
			0 4 6 -1,
			2 6 7 -1,
			1 5 4 -1,
		]
		normal Normal { vector [
			-0.567095 -0.576480 0.588281,
			0.577983 -0.579858 0.574196,
			-0.584577 -0.577660 -0.569719,
			0.579545 -0.575493 -0.577005,
			-0.567115 0.576484 0.588258,
			0.577966 0.579854 0.574217,
			-0.584558 0.577656 -0.569741,
			0.579564 0.575498 -0.576982,
		] }
		normalPerVertex TRUE
		solid TRUE
	}
	appearance Appearance {
		material Material {
			diffuseColor 0.8000 0.8000 0.8000
			transparency 0.0000
			shininess 0.5000
		}
	}
}

Shape # Material: Default
{
	geometry IndexedFaceSet {
		coord Coordinate { point [
			-3.930004 0.320000 1.531803,
			-2.530764 0.320000 1.531803,
			-3.930004 0.320000 0.821005,
			-2.530764 0.320000 0.821005,
			-3.930004 0.720000 1.531803,
			-2.530764 0.720000 1.531803,
			-3.930004 0.720000 0.821005,
			-2.530764 0.720000 0.821005,
		] }
		coordIndex [
			2 1 0 -1,
			5 6 4 -1,
			2 7 3 -1,
			1 4 0 -1,
			3 5 1 -1,
			0 6 2 -1,
			2 3 1 -1,
			5 7 6 -1,
			2 6 7 -1,
			1 5 4 -1,
			3 7 5 -1,
			0 4 6 -1,
		]
		normal Normal { vector [
			-0.577345 -0.577353 0.577353,
			0.577365 -0.577348 0.577338,
			-0.577365 -0.577348 -0.577338,
			0.577345 -0.577353 -0.577353,
			-0.577359 0.577359 0.577332,
			0.577350 0.577342 0.577359,
			-0.577350 0.577342 -0.577359,
			0.577359 0.577359 -0.577332,
		] }
		normalPerVertex TRUE
		solid TRUE
	}
	appearance Appearance {
		material Material {
			diffuseColor 0.8000 0.8000 0.8000
			transparency 0.0000
			shininess 0.5000
		}
	}
}

Shape # Material: Default
{
	geometry IndexedFaceSet {
		coord Coordinate { point [
			-1.849546 0.320000 1.327540,
			-1.282489 0.320000 1.327540,
			-1.849546 0.320000 0.442740,
			-1.282489 0.320000 0.442740,
			-1.849546 0.720000 1.327540,
			-1.282489 0.720000 1.327540,
			-1.849546 0.720000 0.442740,
			-1.282489 0.720000 0.442740,
		] }
		coordIndex [
			2 1 0 -1,
			5 6 4 -1,
			2 7 3 -1,
			1 4 0 -1,
			3 5 1 -1,
			0 6 2 -1,
			2 3 1 -1,
			5 7 6 -1,
			2 6 7 -1,
			1 5 4 -1,
			3 7 5 -1,
			0 4 6 -1,
		]
		normal Normal { vector [
			-0.577334 -0.577358 0.577358,
			0.577344 -0.577348 0.577358,
			-0.577344 -0.577349 -0.577358,
			0.577334 -0.577358 -0.577358,
			-0.577346 0.577346 0.577359,
			0.577333 0.577361 0.577357,
			-0.577333 0.577361 -0.577357,
			0.577346 0.577346 -0.577359,
		] }
		normalPerVertex TRUE
		solid TRUE
	}
	appearance Appearance {
		material Material {
			diffuseColor 0.8000 0.8000 0.8000
			transparency 0.0000
			shininess 0.5000
		}
	}
}

Shape # Material: Default
{
	geometry IndexedFaceSet {
		coord Coordinate { point [
			1.312750 0.320000 0.275963,
			1.713371 0.320000 0.275963,
			1.312750 0.320000 -0.608837,
			1.713371 0.320000 -0.608837,
			1.312750 0.720000 0.275963,
			1.713371 0.720000 0.275963,
			1.312750 0.720000 -0.608837,
			1.713371 0.720000 -0.608837,
		] }
		coordIndex [
			2 1 0 -1,
			5 6 4 -1,
			2 7 3 -1,
			1 4 0 -1,
			3 5 1 -1,
			0 6 2 -1,
			2 3 1 -1,
			5 7 6 -1,
			2 6 7 -1,
			1 5 4 -1,
			3 7 5 -1,
			0 4 6 -1,
		]
		normal Normal { vector [
			-0.577334 -0.577358 0.577358,
			0.577347 -0.577323 0.577380,
			-0.577347 -0.577323 -0.577380,
			0.577334 -0.577358 -0.577358,
			-0.577339 0.577339 0.577372,
			0.577342 0.577342 0.577366,
			-0.577342 0.577342 -0.577367,
			0.577339 0.577339 -0.577372,
		] }
		normalPerVertex TRUE
		solid TRUE
	}
	appearance Appearance {
		material Material {
			diffuseColor 0.8000 0.8000 0.8000
			transparency 0.0000
			shininess 0.5000
		}
	}
}

Shape # Material: Default
{
	geometry IndexedFaceSet {
		coord Coordinate { point [
			2.326501 0.320000 0.230572,
			2.689295 0.320000 0.230572,
			2.326501 0.320000 -1.304844,
			2.689295 0.320000 -1.304844,
			2.326501 0.720000 0.230572,
			2.689295 0.720000 0.230572,
			2.326501 0.720000 -1.304844,
			2.689295 0.720000 -1.304844,
		] }
		coordIndex [
			2 1 0 -1,
			5 6 4 -1,
			2 7 3 -1,
			1 4 0 -1,
			3 5 1 -1,
			0 6 2 -1,
			2 3 1 -1,
			5 7 6 -1,
			2 6 7 -1,
			1 5 4 -1,
			3 7 5 -1,
			0 4 6 -1,
		]
		normal Normal { vector [
			-0.577334 -0.577358 0.577358,
			0.577347 -0.577326 0.577378,
			-0.577347 -0.577326 -0.577378,
			0.577334 -0.577358 -0.577358,
			-0.577340 0.577340 0.577371,
			0.577341 0.577345 0.577365,
			-0.577341 0.577345 -0.577365,
			0.577340 0.577340 -0.577371,
		] }
		normalPerVertex TRUE
		solid TRUE
	}
	appearance Appearance {
		material Material {
			diffuseColor 0.8000 0.8000 0.8000
			transparency 0.0000
			shininess 0.5000
		}
	}
}

Shape # Material: Default
{
	geometry IndexedFaceSet {
		coord Coordinate { point [
			2.235717 0.320000 1.690675,
			2.795209 0.320000 1.690675,
			2.235717 0.320000 0.707526,
			2.795209 0.320000 0.707526,
			2.235717 0.720000 1.690675,
			2.795209 0.720000 1.690675,
			2.235717 0.720000 0.707526,
			2.795209 0.720000 0.707526,
		] }
		coordIndex [
			2 1 0 -1,
			5 6 4 -1,
			2 7 3 -1,
			1 4 0 -1,
			3 5 1 -1,
			0 6 2 -1,
			2 3 1 -1,
			5 7 6 -1,
			2 6 7 -1,
			1 5 4 -1,
			3 7 5 -1,
			0 4 6 -1,
		]
		normal Normal { vector [
			-0.577331 -0.577360 0.577360,
			0.577348 -0.577340 0.577363,
			-0.577348 -0.577340 -0.577363,
			0.577331 -0.577360 -0.577360,
			-0.577345 0.577345 0.577360,
			0.577334 0.577355 0.577362,
			-0.577334 0.577355 -0.577362,
			0.577345 0.577345 -0.577360,
		] }
		normalPerVertex TRUE
		solid TRUE
	}
	appearance Appearance {
		material Material {
			diffuseColor 0.8000 0.8000 0.8000
			transparency 0.0000
			shininess 0.5000
		}
	}
}

