#VRML V2.0 utf8
# Exportiert mit Blender-WRL-Export (The Smart Assistant)

Shape # Material: Material.001
{
	geometry IndexedFaceSet {
		coord Coordinate { point [
			-11.800000 -0.640001 7.809485,
			-11.800000 -0.000001 7.809485,
			-11.800000 -0.640002 -9.990516,
			-11.800000 -0.000002 -9.990516,
			11.800000 -0.640001 7.809485,
			11.800000 -0.000001 7.809485,
			11.800000 -0.640002 -9.990516,
			11.800000 -0.000002 -9.990516,
		] }
		coordIndex [
			1 2 0 -1,
			3 6 2 -1,
			7 4 6 -1,
			5 0 4 -1,
			3 5 7 -1,
			1 3 2 -1,
			3 7 6 -1,
			7 5 4 -1,
			5 1 0 -1,
			3 1 5 -1,
		]
		normal Normal { vector [
			-0.707103 0.000000 0.707111,
			-0.577356 0.577347 0.577347,
			-0.707112 -0.000000 -0.707101,
			-0.577341 0.577361 -0.577348,
			0.707112 0.000000 0.707101,
			0.577341 0.577361 0.577348,
			0.707103 -0.000000 -0.707111,
			0.577356 0.577347 -0.577347,
		] }
		normalPerVertex TRUE
		solid TRUE
	}
	appearance Appearance {
		material Material {
			diffuseColor 0.6376 0.3864 0.0976
			transparency 0.0000
			shininess 0.6000
		}
	}
}

Shape # Material: Material.006
{
	geometry IndexedFaceSet {
		coord Coordinate { point [
			-11.800000 -0.640001 7.809485,
			-11.800000 -0.640002 -9.990516,
			11.800000 -0.640001 7.809485,
			11.800000 -0.640002 -9.990516,
		] }
		coordIndex [
			3 0 1 -1,
			3 2 0 -1,
		]
		normal Normal { vector [
			0.000000 -1.000000 0.000000,
			0.000000 -1.000000 0.000000,
			0.000000 -1.000000 0.000000,
			0.000000 -1.000000 0.000000,
		] }
		normalPerVertex TRUE
		solid TRUE
	}
	appearance Appearance {
		material Material {
			diffuseColor 0.1301 0.2918 0.1095
			transparency 0.0000
			shininess 0.6000
		}
	}
}

Shape # Material: Material.002
{
	geometry IndexedFaceSet {
		coord Coordinate { point [
			-0.520000 -0.000000 -4.440000,
			-2.226400 0.730000 6.440000,
			1.840000 0.730000 6.440000,
			2.120000 0.810000 -7.000000,
			-2.226400 0.730000 4.813600,
			7.000000 0.810000 -7.000000,
			1.840000 0.730000 4.813600,
			6.800000 4.130001 1.200000,
			-1.440000 0.730000 3.160000,
			2.120000 0.810000 -8.440001,
			7.000000 0.810000 -8.440001,
			9.000000 4.130001 -0.160000,
			1.640000 -0.000000 -6.280000,
			5.773600 4.130001 -0.626400,
			2.280000 0.730000 3.200000,
			8.000000 4.130001 -1.920000,
			-0.480000 -0.000000 -6.280000,
			-1.440000 0.730000 1.240000,
			1.600000 -0.000000 -8.960000,
			1.920000 0.730000 -4.480000,
			7.560000 -0.000000 -8.960000,
			4.000000 0.730000 -4.480000,
			7.600000 -0.000000 -6.400000,
			4.240000 0.730000 -4.240000,
			11.360000 -0.000000 -6.400000,
			4.280000 0.730000 1.360000,
			11.360000 0.000000 0.000000,
			10.600000 0.000000 0.000000,
			3.400000 0.730000 2.400000,
			10.600000 0.000000 3.800000,
			11.360000 0.000000 3.800000,
			11.360000 0.000000 6.920001,
			-2.720000 0.000000 6.920000,
			-2.720000 -0.000000 -0.200000,
			-4.000000 -0.000000 -1.040000,
			-4.000000 -0.000000 -0.120000,
			-11.840000 -0.000000 -4.720000,
			-11.880000 -0.000000 -8.400001,
			-8.880000 -0.000000 -10.240001,
			-3.880000 -0.000000 -7.320001,
			-3.880000 -0.000000 -6.480000,
			-0.520000 6.000000 -4.440001,
			-0.480000 6.000000 -6.280001,
			1.640000 6.000000 -6.280001,
			1.600000 6.000000 -8.960000,
			7.560000 6.000000 -8.960000,
			7.600000 6.000000 -6.400001,
			11.360000 6.000000 -6.400001,
			11.360000 6.000000 -0.000000,
			10.600000 6.000000 -0.000000,
			10.600000 6.000000 3.800000,
			11.360000 6.000000 3.800000,
			11.360000 6.000000 6.920000,
			-2.720000 6.000000 6.919999,
			-2.720000 6.000000 -0.200000,
			-4.000000 6.000000 -1.040000,
			-4.000000 6.000000 -0.120000,
			-3.880000 6.000000 -7.320001,
			-3.880000 6.000000 -6.480001,
			-1.440000 6.000000 3.160000,
			-1.440000 6.000000 1.240000,
			2.280000 6.000000 3.200000,
			-1.080985 6.000000 0.628820,
			3.400000 6.000000 2.400000,
			4.280000 6.000000 1.360000,
			4.240000 6.000000 -4.240001,
			4.000000 6.000000 -4.480000,
			1.920000 6.000000 -4.480000,
			8.000000 6.000000 -1.920000,
			6.800000 6.000000 1.200000,
			6.608345 6.000000 0.858964,
			5.773600 6.000000 -0.626400,
			9.000000 6.000000 -0.160000,
			7.000000 6.000000 -7.000000,
			7.000000 6.000000 -8.440001,
			2.120000 6.000000 -7.000000,
			2.120000 6.000000 -8.440001,
			1.840000 6.000000 6.440000,
			-2.226400 6.000000 4.813600,
			-2.002928 6.000000 4.813600,
			1.840000 6.000000 4.813600,
			-2.226400 6.000000 6.440000,
		] }
		coordIndex [
			40 34 36 -1,
			55 35 34 -1,
			48 27 26 -1,
			41 16 0 -1,
			49 29 27 -1,
			42 12 16 -1,
			50 30 29 -1,
			43 18 12 -1,
			51 31 30 -1,
			44 20 18 -1,
			52 32 31 -1,
			45 22 20 -1,
			57 40 39 -1,
			53 33 32 -1,
			46 24 22 -1,
			58 0 40 -1,
			54 34 33 -1,
			47 26 24 -1,
			54 53 78 -1,
			77 50 63 -1,
			74 44 76 -1,
			71 68 65 -1,
			54 62 41 -1,
			23 21 19 -1,
			19 66 67 -1,
			8 60 59 -1,
			28 64 25 -1,
			21 65 66 -1,
			8 61 14 -1,
			14 63 28 -1,
			25 65 23 -1,
			19 67 62 -1,
			11 13 7 -1,
			11 68 15 -1,
			13 71 70 -1,
			13 68 71 -1,
			7 72 11 -1,
			5 9 3 -1,
			5 74 10 -1,
			3 76 75 -1,
			9 74 76 -1,
			3 73 5 -1,
			2 4 1 -1,
			1 78 81 -1,
			6 80 79 -1,
			1 77 2 -1,
			2 80 6 -1,
			0 16 12 -1,
			12 18 20 -1,
			22 24 27 -1,
			24 26 27 -1,
			12 20 22 -1,
			0 12 27 -1,
			12 22 27 -1,
			29 30 31 -1,
			27 29 33 -1,
			0 27 33 -1,
			29 31 32 -1,
			29 32 33 -1,
			40 0 34 -1,
			34 0 33 -1,
			38 39 40 -1,
			36 37 38 -1,
			34 35 36 -1,
			36 38 40 -1,
			55 56 35 -1,
			48 49 27 -1,
			41 42 16 -1,
			49 50 29 -1,
			42 43 12 -1,
			50 51 30 -1,
			43 44 18 -1,
			51 52 31 -1,
			44 45 20 -1,
			52 53 32 -1,
			45 46 22 -1,
			57 58 40 -1,
			53 54 33 -1,
			46 47 24 -1,
			58 41 0 -1,
			54 55 34 -1,
			47 48 26 -1,
			78 79 59 -1,
			60 62 54 -1,
			78 59 54 -1,
			59 60 54 -1,
			53 81 78 -1,
			77 81 53 -1,
			52 51 50 -1,
			50 49 72 -1,
			69 70 64 -1,
			50 72 69 -1,
			77 53 52 -1,
			59 79 80 -1,
			80 77 63 -1,
			77 52 50 -1,
			50 69 63 -1,
			69 64 63 -1,
			61 59 80 -1,
			63 61 80 -1,
			74 45 44 -1,
			75 76 44 -1,
			44 43 75 -1,
			43 67 66 -1,
			75 43 66 -1,
			45 74 73 -1,
			73 75 66 -1,
			46 45 73 -1,
			48 47 49 -1,
			47 46 68 -1,
			72 49 68 -1,
			68 49 47 -1,
			46 73 65 -1,
			68 46 65 -1,
			73 66 65 -1,
			64 70 71 -1,
			65 64 71 -1,
			62 67 41 -1,
			67 43 41 -1,
			43 42 41 -1,
			41 58 55 -1,
			55 54 41 -1,
			19 17 25 -1,
			17 8 14 -1,
			28 17 14 -1,
			28 25 17 -1,
			25 23 19 -1,
			19 21 66 -1,
			8 17 60 -1,
			28 63 64 -1,
			21 23 65 -1,
			8 59 61 -1,
			14 61 63 -1,
			25 64 65 -1,
			62 60 17 -1,
			17 19 62 -1,
			11 15 13 -1,
			11 72 68 -1,
			70 69 7 -1,
			7 13 70 -1,
			13 15 68 -1,
			7 69 72 -1,
			5 10 9 -1,
			5 73 74 -1,
			3 9 76 -1,
			9 10 74 -1,
			3 75 73 -1,
			2 6 4 -1,
			1 4 78 -1,
			79 78 4 -1,
			4 6 79 -1,
			1 81 77 -1,
			2 77 80 -1,
		]
		normal Normal { vector [
			-0.138149 -0.957851 -0.251865,
			0.577324 0.577353 -0.577374,
			-0.577341 0.577341 -0.577370,
			0.577322 0.577348 -0.577380,
			0.577357 0.577328 0.577366,
			-0.577342 0.577340 -0.577368,
			-0.577345 0.577345 0.577361,
			0.204386 0.575199 -0.792069,
			0.580138 0.577920 -0.573976,
			0.577349 0.577321 0.577381,
			-0.577350 0.577350 0.577350,
			-0.789720 0.579325 -0.201803,
			-0.301106 -0.906282 -0.296629,
			0.787218 0.578108 0.214662,
			-0.229672 0.643490 -0.730186,
			-0.213054 0.576847 0.788578,
			-0.570455 -0.578506 -0.583020,
			0.731217 0.652510 0.198877,
			-0.582016 -0.576582 -0.573420,
			0.393436 0.610533 0.687356,
			0.572410 -0.578149 -0.581456,
			-0.297114 0.630252 0.717290,
			0.301851 -0.902702 -0.306618,
			-0.715775 0.630853 0.299484,
			0.577348 -0.577352 -0.577350,
			-0.725060 0.636632 -0.262654,
			0.577372 -0.577340 0.577340,
			0.301514 -0.904532 0.301515,
			-0.496590 0.680286 -0.539083,
			0.301516 -0.904532 -0.301514,
			0.577350 -0.577350 -0.577352,
			0.577347 -0.577341 0.577363,
			-0.577366 -0.577346 0.577339,
			-0.489362 -0.831105 0.264176,
			0.128920 -0.962477 0.238785,
			0.833766 -0.552118 0.000000,
			0.000000 -1.000000 0.000000,
			0.000000 -1.000000 0.000000,
			0.000000 -1.000000 0.000000,
			0.599086 -0.800684 0.000000,
			0.478565 -0.835733 -0.269307,
			-0.138135 0.957854 -0.251861,
			-0.570484 0.578506 -0.582991,
			-0.301090 0.906282 -0.296643,
			-0.582028 0.576552 -0.573439,
			0.572394 0.578187 -0.581434,
			0.301860 0.902700 -0.306615,
			0.577372 0.577338 -0.577341,
			0.577350 0.577350 0.577352,
			0.301514 0.904533 0.301512,
			0.301513 0.904533 -0.301514,
			0.577340 0.577355 -0.577355,
			0.577370 0.577337 0.577343,
			-0.577371 0.577336 0.577344,
			-0.489348 0.831116 0.264169,
			0.272632 0.818919 0.505018,
			1.000000 0.000000 0.000000,
			1.000000 0.000000 0.000000,
			0.813978 0.357240 -0.458060,
			0.305029 0.903269 -0.301767,
			0.614252 0.771221 0.167069,
			-0.186241 0.784049 -0.592100,
			0.609709 0.707094 0.358151,
			-0.458624 0.736068 -0.497864,
			-0.571265 0.794249 -0.206943,
			-0.549507 0.803233 0.229911,
			-0.227457 0.804199 0.549115,
			0.271331 0.837641 0.474064,
			-0.110597 0.905657 0.409333,
			0.103948 0.909371 -0.402790,
			0.616439 0.707101 -0.346427,
			0.414813 0.902848 0.113119,
			-0.421980 0.900167 -0.107849,
			-0.301510 0.904529 -0.301527,
			-0.301503 0.904530 0.301533,
			0.301517 0.904530 -0.301517,
			0.301504 0.904535 0.301517,
			-0.301512 0.904530 -0.301524,
			0.301499 0.904537 0.301515,
			0.000000 0.707097 0.707117,
			-0.301501 0.904536 0.301516,
			0.301516 0.904531 -0.301516,
		] }
		normalPerVertex TRUE
		solid TRUE
	}
	appearance Appearance {
		material Material {
			diffuseColor 0.0529 0.0452 0.0513
			transparency 0.0000
			shininess 0.6000
		}
	}
}

Shape # Material: Material.007
{
	geometry IndexedFaceSet {
		coord Coordinate { point [
			-4.000000 -0.000000 -0.120000,
			-11.840000 -0.000000 -4.720000,
			-11.880000 -0.000000 -8.400001,
			-8.880000 -0.000000 -10.240001,
			-3.880000 -0.000000 -7.320001,
			-4.000000 6.000000 -1.040000,
			-4.000000 6.000000 -0.120000,
			-11.840000 6.000000 -4.720001,
			-11.880000 6.000000 -8.400001,
			-8.880000 6.000000 -10.240001,
			-3.880000 6.000000 -7.320001,
			-3.880000 6.000000 -6.480001,
		] }
		coordIndex [
			11 9 7 -1,
			6 1 0 -1,
			7 2 1 -1,
			8 3 2 -1,
			9 4 3 -1,
			11 10 9 -1,
			9 8 7 -1,
			7 6 5 -1,
			5 11 7 -1,
			6 7 1 -1,
			7 8 2 -1,
			8 9 3 -1,
			9 10 4 -1,
		]
		normal Normal { vector [
			-0.506058 0.000000 0.862499,
			-0.865057 0.000000 0.501673,
			-0.875232 -0.000000 -0.483703,
			-0.010795 -0.000000 -0.999942,
			0.504300 -0.000000 -0.863528,
			0.000000 1.000000 -0.000000,
			-0.421936 0.552111 0.719126,
			-0.684606 0.611301 0.397021,
			-0.692768 0.611138 -0.382861,
			-0.008561 0.607722 -0.794104,
			0.302119 0.800684 -0.517328,
			0.000000 1.000000 -0.000000,
		] }
		normalPerVertex TRUE
		solid TRUE
	}
	appearance Appearance {
		material Material {
			diffuseColor 0.6724 0.6795 0.6939
			transparency 0.0000
			shininess 0.6000
		}
	}
}

Shape # Material: Material.003
{
	geometry IndexedFaceSet {
		coord Coordinate { point [
			-6.595536 0.000003 3.564099,
			-6.595536 2.000003 3.564098,
			-6.595536 0.000003 0.764099,
			-6.595536 2.000003 0.764098,
			-3.795536 0.000003 3.564099,
			-3.795536 2.000003 3.564098,
			-3.795536 0.000003 0.764099,
			-3.795536 2.000003 0.764098,
		] }
		coordIndex [
			1 2 0 -1,
			3 6 2 -1,
			7 4 6 -1,
			5 0 4 -1,
			6 0 2 -1,
			3 5 7 -1,
			1 3 2 -1,
			3 7 6 -1,
			7 5 4 -1,
			5 1 0 -1,
			6 4 0 -1,
			3 1 5 -1,
		]
		normal Normal { vector [
			-0.502498 -0.703537 0.502526,
			-0.502540 0.703516 0.502512,
			-0.502540 -0.703516 -0.502512,
			-0.502498 0.703537 -0.502526,
			0.502540 -0.703516 0.502512,
			0.502498 0.703537 0.502526,
			0.502498 -0.703537 -0.502526,
			0.502540 0.703516 -0.502512,
		] }
		normalPerVertex TRUE
		solid TRUE
	}
	appearance Appearance {
		material Material {
			diffuseColor 0.0222 0.3613 0.7991
			transparency 0.0000
			shininess 0.6000
		}
	}
}

Shape # Material: Material.003
{
	geometry IndexedFaceSet {
		coord Coordinate { point [
			-10.447338 -0.000000 3.564099,
			-10.447338 2.000000 3.564098,
			-10.447338 -0.000000 0.764099,
			-10.447338 2.000000 0.764098,
			-7.647338 -0.000000 3.564099,
			-7.647338 2.000000 3.564098,
			-7.647338 -0.000000 0.764099,
			-7.647338 2.000000 0.764098,
		] }
		coordIndex [
			1 2 0 -1,
			3 6 2 -1,
			7 4 6 -1,
			5 0 4 -1,
			6 0 2 -1,
			3 5 7 -1,
			1 3 2 -1,
			3 7 6 -1,
			7 5 4 -1,
			5 1 0 -1,
			6 4 0 -1,
			3 1 5 -1,
		]
		normal Normal { vector [
			-0.502498 -0.703537 0.502526,
			-0.502540 0.703516 0.502512,
			-0.502540 -0.703516 -0.502512,
			-0.502498 0.703537 -0.502526,
			0.502540 -0.703516 0.502512,
			0.502498 0.703537 0.502526,
			0.502498 -0.703537 -0.502526,
			0.502540 0.703516 -0.502512,
		] }
		normalPerVertex TRUE
		solid TRUE
	}
	appearance Appearance {
		material Material {
			diffuseColor 0.0222 0.3613 0.7991
			transparency 0.0000
			shininess 0.6000
		}
	}
}

Shape # Material: Material.005
{
	geometry IndexedFaceSet {
		coord Coordinate { point [
			-9.664953 -0.000001 -2.812047,
			-9.664953 5.200000 -2.812047,
			-9.469863 -0.000001 -2.792832,
			-9.469863 5.200000 -2.792832,
			-9.282269 -0.000001 -2.735926,
			-9.282269 5.200000 -2.735926,
			-9.109383 -0.000001 -2.643516,
			-9.109383 5.200000 -2.643516,
			-8.957847 -0.000001 -2.519153,
			-8.957847 5.200000 -2.519153,
			-8.833484 -0.000001 -2.367617,
			-8.833484 5.200000 -2.367617,
			-8.741074 -0.000000 -2.194730,
			-8.741074 5.200000 -2.194730,
			-8.684168 -0.000000 -2.007137,
			-8.684168 5.200000 -2.007137,
			-8.664953 -0.000000 -1.812046,
			-8.664953 5.200000 -1.812047,
			-8.684168 -0.000000 -1.616956,
			-8.684168 5.200000 -1.616956,
			-8.741074 -0.000000 -1.429363,
			-8.741074 5.200000 -1.429363,
			-8.833484 -0.000000 -1.256476,
			-8.833484 5.200000 -1.256476,
			-8.957847 -0.000000 -1.104940,
			-8.957847 5.200000 -1.104940,
			-9.109383 -0.000000 -0.980577,
			-9.109383 5.200000 -0.980577,
			-9.282269 -0.000000 -0.888167,
			-9.282269 5.200000 -0.888167,
			-9.469863 -0.000000 -0.831261,
			-9.469863 5.200000 -0.831261,
			-9.664953 -0.000000 -0.812046,
			-9.664953 5.200000 -0.812047,
			-9.860044 -0.000000 -0.831261,
			-9.860044 5.200000 -0.831261,
			-10.047637 -0.000000 -0.888167,
			-10.047637 5.200000 -0.888167,
			-10.220524 -0.000000 -0.980577,
			-10.220524 5.200000 -0.980577,
			-10.372060 -0.000000 -1.104940,
			-10.372060 5.200000 -1.104940,
			-10.496423 -0.000000 -1.256476,
			-10.496423 5.200000 -1.256476,
			-10.588833 -0.000000 -1.429363,
			-10.588833 5.200000 -1.429363,
			-10.645739 -0.000000 -1.616956,
			-10.645739 5.200000 -1.616956,
			-10.664953 -0.000000 -1.812046,
			-10.664953 5.200000 -1.812047,
			-10.645739 -0.000000 -2.007137,
			-10.645739 5.200000 -2.007137,
			-10.588833 -0.000000 -2.194730,
			-10.588833 5.200000 -2.194730,
			-10.496423 -0.000001 -2.367617,
			-10.496423 5.200000 -2.367617,
			-10.372060 -0.000001 -2.519153,
			-10.372060 5.200000 -2.519153,
			-10.220524 -0.000001 -2.643516,
			-10.220524 5.200000 -2.643516,
			-10.047637 -0.000001 -2.735926,
			-10.047637 5.200000 -2.735926,
			-9.860044 -0.000001 -2.792832,
			-9.860044 5.200000 -2.792832,
		] }
		coordIndex [
			1 2 0 -1,
			3 4 2 -1,
			5 6 4 -1,
			7 8 6 -1,
			9 10 8 -1,
			11 12 10 -1,
			13 14 12 -1,
			15 16 14 -1,
			17 18 16 -1,
			19 20 18 -1,
			21 22 20 -1,
			23 24 22 -1,
			25 26 24 -1,
			27 28 26 -1,
			29 30 28 -1,
			31 32 30 -1,
			33 34 32 -1,
			35 36 34 -1,
			37 38 36 -1,
			39 40 38 -1,
			41 42 40 -1,
			43 44 42 -1,
			45 46 44 -1,
			47 48 46 -1,
			49 50 48 -1,
			51 52 50 -1,
			53 54 52 -1,
			55 56 54 -1,
			57 58 56 -1,
			59 60 58 -1,
			13 5 37 -1,
			61 62 60 -1,
			63 0 62 -1,
			46 54 62 -1,
			1 3 2 -1,
			3 5 4 -1,
			5 7 6 -1,
			7 9 8 -1,
			9 11 10 -1,
			11 13 12 -1,
			13 15 14 -1,
			15 17 16 -1,
			17 19 18 -1,
			19 21 20 -1,
			21 23 22 -1,
			23 25 24 -1,
			25 27 26 -1,
			27 29 28 -1,
			29 31 30 -1,
			31 33 32 -1,
			33 35 34 -1,
			35 37 36 -1,
			37 39 38 -1,
			39 41 40 -1,
			41 43 42 -1,
			43 45 44 -1,
			45 47 46 -1,
			47 49 48 -1,
			49 51 50 -1,
			51 53 52 -1,
			53 55 54 -1,
			55 57 56 -1,
			57 59 58 -1,
			59 61 60 -1,
			5 3 1 -1,
			1 63 61 -1,
			61 59 57 -1,
			57 55 61 -1,
			55 53 61 -1,
			53 51 45 -1,
			51 49 45 -1,
			49 47 45 -1,
			45 43 41 -1,
			41 39 45 -1,
			39 37 45 -1,
			37 35 33 -1,
			33 31 29 -1,
			29 27 25 -1,
			25 23 29 -1,
			23 21 29 -1,
			21 19 17 -1,
			17 15 21 -1,
			15 13 21 -1,
			13 11 9 -1,
			9 7 13 -1,
			7 5 13 -1,
			5 1 53 -1,
			1 61 53 -1,
			37 33 21 -1,
			33 29 21 -1,
			53 45 5 -1,
			45 37 5 -1,
			21 13 37 -1,
			61 63 62 -1,
			63 1 0 -1,
			62 0 2 -1,
			2 4 6 -1,
			6 8 14 -1,
			8 10 14 -1,
			10 12 14 -1,
			14 16 18 -1,
			18 20 22 -1,
			22 24 30 -1,
			24 26 30 -1,
			26 28 30 -1,
			30 32 34 -1,
			34 36 38 -1,
			38 40 46 -1,
			40 42 46 -1,
			42 44 46 -1,
			46 48 50 -1,
			50 52 54 -1,
			54 56 62 -1,
			56 58 62 -1,
			58 60 62 -1,
			62 2 6 -1,
			14 18 22 -1,
			30 34 38 -1,
			46 50 54 -1,
			62 6 30 -1,
			6 14 30 -1,
			14 22 30 -1,
			30 38 62 -1,
			38 46 62 -1,
		]
		normal Normal { vector [
			-0.000001 -0.685699 -0.727885,
			0.000001 0.685678 -0.727905,
			0.142004 -0.685692 -0.713906,
			0.142004 0.685699 -0.713899,
			0.278549 -0.685699 -0.672479,
			0.278559 0.685674 -0.672500,
			0.404398 -0.685686 -0.605225,
			0.404395 0.685692 -0.605219,
			0.514697 -0.685693 -0.514697,
			0.514695 0.685696 -0.514694,
			0.605216 -0.685696 -0.404393,
			0.605215 0.685699 -0.404391,
			0.672478 -0.685699 -0.278550,
			0.672491 0.685685 -0.278554,
			0.713918 -0.685678 -0.142008,
			0.713905 0.685693 -0.142004,
			0.727885 -0.685699 -0.000001,
			0.727888 0.685696 0.000001,
			0.713906 -0.685692 0.142004,
			0.713899 0.685699 0.142004,
			0.672479 -0.685699 0.278549,
			0.672500 0.685674 0.278559,
			0.605234 -0.685675 0.404404,
			0.605219 0.685693 0.404395,
			0.514697 -0.685693 0.514697,
			0.514694 0.685696 0.514695,
			0.404393 -0.685696 0.605216,
			0.404391 0.685699 0.605215,
			0.278550 -0.685699 0.672478,
			0.278556 0.685679 0.672496,
			0.142011 -0.685660 0.713935,
			0.142003 0.685699 0.713899,
			0.000001 -0.685699 0.727885,
			-0.000001 0.685679 0.727904,
			-0.142004 -0.685692 0.713906,
			-0.142004 0.685699 0.713899,
			-0.278549 -0.685699 0.672479,
			-0.278559 0.685674 0.672500,
			-0.404398 -0.685686 0.605225,
			-0.404395 0.685693 0.605219,
			-0.514696 -0.685693 0.514697,
			-0.514695 0.685696 0.514694,
			-0.605216 -0.685696 0.404393,
			-0.605215 0.685699 0.404391,
			-0.672478 -0.685699 0.278550,
			-0.672494 0.685681 0.278556,
			-0.713918 -0.685678 0.142008,
			-0.713899 0.685699 0.142003,
			-0.727885 -0.685699 0.000001,
			-0.727888 0.685696 -0.000001,
			-0.713906 -0.685692 -0.142004,
			-0.713905 0.685693 -0.142005,
			-0.672479 -0.685699 -0.278549,
			-0.672496 0.685678 -0.278558,
			-0.605234 -0.685675 -0.404404,
			-0.605219 0.685693 -0.404395,
			-0.514697 -0.685693 -0.514696,
			-0.514694 0.685696 -0.514695,
			-0.404393 -0.685696 -0.605216,
			-0.404391 0.685699 -0.605215,
			-0.278550 -0.685699 -0.672478,
			-0.278556 0.685679 -0.672496,
			-0.142011 -0.685660 -0.713935,
			-0.142003 0.685699 -0.713899,
		] }
		normalPerVertex TRUE
		solid TRUE
	}
	appearance Appearance {
		material Material {
			diffuseColor 0.0685 0.1170 0.1022
			transparency 0.0000
			shininess 0.6000
		}
	}
}

Shape # Material: mat0
{
	geometry IndexedFaceSet {
		coord Coordinate { point [
			-4.997709 1.676401 6.204206,
			-8.614772 1.133118 7.451965,
			-4.997709 1.869441 7.809485,
			-8.472311 1.133118 7.451965,
			-4.997709 1.869441 6.204206,
			-8.614772 1.245765 7.451965,
			-4.997709 1.676401 7.809485,
			-8.472310 1.245765 7.451965,
			-8.042428 1.676401 7.809485,
			-8.670008 1.289441 7.331965,
			-8.042428 1.676401 6.204206,
			-8.670009 1.089441 7.331965,
			-8.042428 1.869441 6.204206,
			-8.417074 1.089441 7.331965,
			-8.042428 1.869441 7.809485,
			-8.417074 1.289441 7.331965,
			-3.764200 1.676401 7.809485,
			-3.520068 1.869441 7.809485,
			-3.764200 1.412241 7.809485,
			-3.520068 1.412241 7.809485,
			-3.764200 1.676401 6.204206,
			-7.603036 1.133118 7.451965,
			-3.809172 1.676401 7.199885,
			-7.460574 1.133118 7.451965,
			-3.809172 1.676401 6.204206,
			-7.603035 1.245765 7.451965,
			-4.079002 1.676401 6.204206,
			-7.460574 1.245765 7.451965,
			-4.079002 1.676401 7.199885,
			-7.658272 1.289441 7.331965,
			-8.961135 1.676401 7.199885,
			-7.658272 1.089441 7.331965,
			-8.961135 1.676401 6.204206,
			-7.405338 1.089441 7.331965,
			-7.405338 1.289441 7.331965,
			-9.230966 1.676401 6.204206,
			-9.230966 1.676401 7.199885,
			-9.275937 1.676401 6.204206,
			-9.275937 1.676401 7.809485,
			-4.079002 1.869441 7.199885,
			-6.591300 1.133118 7.451965,
			-3.809172 1.869441 7.199885,
			-3.520068 1.869441 5.452365,
			-6.448838 1.133118 7.451965,
			-4.079002 1.869441 5.675885,
			-6.591300 1.245765 7.451965,
			-4.914190 1.869441 5.675885,
			-6.448838 1.245765 7.451965,
			-5.090738 1.869441 5.675885,
			-6.646536 1.289441 7.331965,
			-4.914190 1.869441 5.452365,
			-6.646536 1.089441 7.331965,
			-5.090738 1.869441 5.452365,
			-6.393601 1.089441 7.331965,
			-5.925926 1.869441 5.675885,
			-6.393601 1.289441 7.331965,
			-6.102474 1.869441 5.675885,
			-5.925926 1.869441 5.452365,
			-6.102474 1.869441 5.452365,
			-8.961135 1.869441 7.199885,
			-9.520069 1.869441 7.809485,
			-5.579563 1.133117 7.451965,
			-5.437102 1.133117 7.451965,
			-9.230966 1.869441 7.199885,
			-5.579563 1.245765 7.451965,
			-6.937663 1.869441 5.675885,
			-5.437101 1.245765 7.451965,
			-7.114211 1.869441 5.675885,
			-5.634799 1.289441 7.331965,
			-7.114211 1.869441 5.452365,
			-5.634799 1.089441 7.331965,
			-6.937663 1.869441 5.452365,
			-5.381866 1.089441 7.331965,
			-7.949399 1.869441 5.675885,
			-8.125947 1.869441 5.675885,
			-5.381866 1.289441 7.331965,
			-8.125947 1.869441 5.452365,
			-7.949399 1.869441 5.452365,
			-8.961135 1.869441 5.675885,
			-9.520069 1.869442 5.452365,
			-3.809172 1.869441 5.452365,
			-4.567827 1.133117 7.451965,
			-9.230966 1.869441 5.452365,
			-4.425365 1.133117 7.451965,
			-9.520069 1.412241 7.809485,
			-4.567827 1.245764 7.451965,
			-9.275937 1.412241 7.809485,
			-4.425365 1.245764 7.451965,
			-9.520069 1.412241 6.935726,
			-4.370129 1.289441 7.331965,
			-9.520069 0.000001 7.809485,
			-4.623063 1.289441 7.331965,
			-4.623063 1.089441 7.331965,
			-9.520069 0.904241 7.809485,
			-4.370129 1.089441 7.331965,
			-9.520069 0.904241 6.935725,
			-9.520069 0.000001 5.452365,
			-9.275937 1.412241 6.935726,
			-9.275937 0.193041 7.809485,
			-9.275937 0.904241 6.935725,
			-4.426249 1.245066 4.233165,
			-9.275937 0.904241 7.809485,
			-4.566943 1.133816 4.233165,
			-9.275937 0.193041 6.204206,
			-4.566943 1.245066 4.233165,
			-3.809172 1.676401 5.452365,
			-4.426249 1.133816 4.233165,
			-4.079002 1.289441 5.452365,
			-4.079002 1.676401 5.452365,
			-4.370129 1.089441 4.355085,
			-4.079002 1.089441 5.452365,
			-4.623063 1.089441 4.355085,
			-4.370129 1.089441 5.452365,
			-4.370129 1.289441 4.355085,
			-4.370129 1.289441 5.452365,
			-4.623063 1.289441 4.355085,
			-3.520068 0.000001 5.452365,
			-4.079002 0.000001 5.452365,
			-8.961136 0.000001 5.675885,
			-8.961136 0.000001 5.452365,
			-8.961136 1.089441 5.452365,
			-5.437985 1.245066 4.233165,
			-8.125947 0.000001 5.452365,
			-5.578680 1.133816 4.233165,
			-8.125947 0.000001 5.675885,
			-5.578679 1.245066 4.233165,
			-5.437985 1.133816 4.233165,
			-8.125947 1.089441 5.452365,
			-7.949399 1.289441 5.452365,
			-5.381866 1.089441 4.355085,
			-8.125947 1.289441 5.452365,
			-5.381866 1.289441 4.355085,
			-8.417074 1.089441 5.452365,
			-5.634799 1.289441 4.355085,
			-8.417074 1.289441 5.452365,
			-5.634799 1.089441 4.355085,
			-7.949399 1.089441 5.452365,
			-7.658272 1.089441 5.452365,
			-7.658272 1.289441 5.452365,
			-7.949399 0.000001 5.452365,
			-9.230966 1.676401 5.452365,
			-6.449722 1.245066 4.233165,
			-8.961135 1.289441 5.452365,
			-6.590415 1.133816 4.233165,
			-8.961135 1.676401 5.452365,
			-6.590415 1.245066 4.233165,
			-8.670009 1.089441 5.452365,
			-6.449722 1.133816 4.233165,
			-8.670008 1.289441 5.452365,
			-6.393601 1.089441 4.355085,
			-4.079002 0.000001 5.675885,
			-6.393601 1.289441 4.355085,
			-5.090738 0.000001 5.675885,
			-6.646536 1.289441 4.355085,
			-6.646536 1.089441 4.355085,
			-5.090738 0.000001 5.452365,
			-4.914190 0.000001 5.452365,
			-4.914190 0.000001 5.675885,
			-5.925927 0.000001 5.675885,
			-6.102475 0.000001 5.452365,
			-7.461458 1.245066 4.233165,
			-5.925927 0.000001 5.452365,
			-7.602152 1.133817 4.233165,
			-6.102475 0.000001 5.675885,
			-7.602152 1.245066 4.233165,
			-3.520068 0.000001 7.809485,
			-7.461458 1.133817 4.233165,
			-7.114211 0.000001 5.675885,
			-7.405338 1.089441 4.355085,
			-7.114211 0.000001 5.452365,
			-7.405338 1.289441 4.355085,
			-6.937663 0.000001 5.452365,
			-7.658272 1.289441 4.355085,
			-6.937663 0.000001 5.675885,
			-7.658272 1.089441 4.355085,
			-7.949399 0.000001 5.675885,
			-7.114211 1.089441 5.452365,
			-6.937663 1.289441 5.452365,
			-7.114211 1.289441 5.452365,
			-7.405338 1.089441 5.452365,
			-7.405338 1.289441 5.452365,
			-8.473194 1.245066 4.233165,
			-8.613889 1.133817 4.233165,
			-6.937663 1.089441 5.452365,
			-8.613888 1.245066 4.233165,
			-6.646536 1.089441 5.452365,
			-8.473194 1.133817 4.233165,
			-6.646536 1.289441 5.452365,
			-6.102475 1.089441 5.452365,
			-8.417074 1.089441 4.355085,
			-5.925926 1.289441 5.452365,
			-8.417074 1.289441 4.355085,
			-6.102475 1.289441 5.452365,
			-8.670008 1.289441 4.355085,
			-6.393601 1.089441 5.452365,
			-8.670009 1.089441 4.355085,
			-6.393601 1.289441 5.452365,
			-5.925927 1.089441 5.452365,
			-5.634799 1.089441 5.452365,
			-5.634799 1.289441 5.452365,
			-5.090738 1.089441 5.452365,
			-4.914190 1.289441 5.452365,
			-5.090738 1.289441 5.452365,
			-5.381866 1.089441 5.452365,
			-5.381866 1.289441 5.452365,
			-4.914190 1.089441 5.452365,
			-4.623063 1.089441 5.452365,
			-4.623063 1.289441 5.452365,
			-3.520068 1.412241 6.935726,
			-3.520068 0.904241 6.935725,
			-3.520068 0.904241 7.809485,
			-3.764200 0.193041 6.204206,
			-3.764200 0.904241 6.935725,
			-3.764200 1.412241 6.935726,
			-3.764200 0.193041 7.809485,
			-3.764200 0.904241 7.809485,
			-8.670008 1.289441 6.204206,
			-8.670009 1.089441 6.204206,
			-8.417074 1.289441 6.204206,
			-8.417074 1.089441 6.204206,
			-7.658272 1.289441 6.204206,
			-7.658272 1.089441 6.204206,
			-7.405338 1.289441 6.204206,
			-7.405338 1.089441 6.204206,
			-6.646536 1.289441 6.204206,
			-6.393601 1.289441 6.204206,
			-6.646536 1.089441 6.204206,
			-6.393601 1.089441 6.204206,
			-5.634799 1.289441 6.204206,
			-5.634799 1.089441 6.204206,
			-5.381866 1.289441 6.204206,
			-4.623063 1.289441 6.204206,
			-4.370129 1.289441 6.204206,
			-5.381866 1.089441 6.204206,
			-4.623063 1.089441 6.204206,
			-4.370129 1.089441 6.204206,
			-4.079002 1.676401 5.601492,
			-8.961135 1.676401 5.601492,
		] }
		coordIndex [
			0 2 4 -1,
			0 6 2 -1,
			8 10 12 -1,
			8 12 14 -1,
			2 16 17 -1,
			6 16 2 -1,
			18 19 16 -1,
			16 19 17 -1,
			20 22 24 -1,
			26 28 0 -1,
			22 16 28 -1,
			28 6 0 -1,
			16 6 28 -1,
			20 16 22 -1,
			10 30 32 -1,
			8 30 10 -1,
			35 36 37 -1,
			30 38 36 -1,
			8 38 30 -1,
			38 37 36 -1,
			39 17 41 -1,
			2 17 39 -1,
			42 41 17 -1,
			4 39 44 -1,
			4 2 39 -1,
			46 4 44 -1,
			48 4 46 -1,
			50 48 46 -1,
			52 48 50 -1,
			54 4 48 -1,
			56 4 54 -1,
			57 56 54 -1,
			58 56 57 -1,
			59 60 14 -1,
			63 60 59 -1,
			12 59 14 -1,
			12 65 67 -1,
			69 65 71 -1,
			69 67 65 -1,
			73 12 67 -1,
			74 12 73 -1,
			76 73 77 -1,
			76 74 73 -1,
			78 59 12 -1,
			78 12 74 -1,
			79 60 63 -1,
			12 4 56 -1,
			12 56 65 -1,
			80 41 42 -1,
			63 82 79 -1,
			60 84 38 -1,
			84 86 38 -1,
			38 14 60 -1,
			38 8 14 -1,
			88 84 60 -1,
			90 93 95 -1,
			79 95 88 -1,
			79 88 60 -1,
			96 90 95 -1,
			96 95 79 -1,
			86 97 38 -1,
			97 37 38 -1,
			98 99 101 -1,
			97 99 37 -1,
			98 103 99 -1,
			99 103 37 -1,
			42 105 80 -1,
			107 108 105 -1,
			110 112 114 -1,
			110 114 107 -1,
			110 105 42 -1,
			110 107 105 -1,
			116 117 110 -1,
			116 110 42 -1,
			118 119 120 -1,
			122 124 127 -1,
			128 130 76 -1,
			128 76 77 -1,
			127 132 134 -1,
			127 134 130 -1,
			136 127 130 -1,
			136 130 128 -1,
			137 128 138 -1,
			137 136 128 -1,
			139 122 127 -1,
			139 127 136 -1,
			140 79 82 -1,
			142 140 144 -1,
			120 79 140 -1,
			120 140 142 -1,
			146 142 148 -1,
			146 120 142 -1,
			96 79 120 -1,
			119 96 120 -1,
			150 117 116 -1,
			152 155 156 -1,
			152 156 157 -1,
			158 159 161 -1,
			163 159 158 -1,
			165 158 152 -1,
			165 157 150 -1,
			165 150 116 -1,
			165 152 157 -1,
			165 163 158 -1,
			167 169 171 -1,
			167 171 173 -1,
			175 122 139 -1,
			124 122 175 -1,
			96 119 118 -1,
			90 118 124 -1,
			90 175 167 -1,
			90 173 163 -1,
			90 163 165 -1,
			90 167 173 -1,
			90 124 175 -1,
			90 96 118 -1,
			175 139 136 -1,
			169 167 176 -1,
			177 178 69 -1,
			177 69 71 -1,
			176 179 180 -1,
			176 180 178 -1,
			183 176 178 -1,
			183 178 177 -1,
			185 177 187 -1,
			185 183 177 -1,
			171 169 176 -1,
			171 176 183 -1,
			173 171 183 -1,
			159 163 188 -1,
			190 192 58 -1,
			190 58 57 -1,
			188 194 196 -1,
			188 196 192 -1,
			197 188 192 -1,
			197 192 190 -1,
			198 190 199 -1,
			198 197 190 -1,
			161 159 188 -1,
			161 188 197 -1,
			158 161 197 -1,
			155 152 200 -1,
			201 202 52 -1,
			201 52 50 -1,
			200 203 204 -1,
			200 204 202 -1,
			205 200 202 -1,
			205 202 201 -1,
			206 201 207 -1,
			206 205 201 -1,
			156 155 200 -1,
			156 200 205 -1,
			157 156 205 -1,
			117 150 110 -1,
			17 208 42 -1,
			209 116 42 -1,
			209 42 208 -1,
			19 208 17 -1,
			165 209 210 -1,
			165 116 209 -1,
			211 212 20 -1,
			20 212 213 -1,
			213 16 20 -1,
			213 18 16 -1,
			212 214 215 -1,
			211 214 212 -1,
			98 214 103 -1,
			103 214 211 -1,
			93 98 101 -1,
			93 90 98 -1,
			215 214 210 -1,
			214 165 210 -1,
			90 165 98 -1,
			98 165 214 -1,
			216 35 37 -1,
			216 32 35 -1,
			217 216 37 -1,
			218 10 32 -1,
			216 218 32 -1,
			219 217 103 -1,
			217 37 103 -1,
			220 10 218 -1,
			221 218 219 -1,
			221 219 103 -1,
			221 220 218 -1,
			222 12 10 -1,
			220 222 10 -1,
			223 221 103 -1,
			222 224 12 -1,
			224 225 12 -1,
			226 222 223 -1,
			226 224 222 -1,
			226 223 103 -1,
			225 4 12 -1,
			228 225 227 -1,
			228 4 225 -1,
			0 4 228 -1,
			229 228 227 -1,
			230 0 228 -1,
			231 0 230 -1,
			231 26 0 -1,
			232 26 231 -1,
			234 230 233 -1,
			234 231 230 -1,
			24 26 232 -1,
			20 24 232 -1,
			20 232 235 -1,
			211 235 234 -1,
			211 233 229 -1,
			211 234 233 -1,
			211 229 227 -1,
			211 20 235 -1,
			211 226 103 -1,
			211 227 226 -1,
			18 208 19 -1,
			18 213 208 -1,
			213 209 208 -1,
			213 212 209 -1,
			212 210 209 -1,
			212 215 210 -1,
			201 50 46 -1,
			107 236 108 -1,
			150 112 110 -1,
			206 157 205 -1,
			112 157 206 -1,
			150 157 112 -1,
			46 44 236 -1,
			107 114 236 -1,
			207 46 236 -1,
			114 207 236 -1,
			207 201 46 -1,
			190 57 54 -1,
			202 48 52 -1,
			152 203 200 -1,
			198 158 197 -1,
			203 158 198 -1,
			152 158 203 -1,
			202 204 48 -1,
			199 54 48 -1,
			204 199 48 -1,
			199 190 54 -1,
			177 71 65 -1,
			192 56 58 -1,
			163 194 188 -1,
			185 173 183 -1,
			194 173 185 -1,
			163 173 194 -1,
			192 196 56 -1,
			187 65 56 -1,
			196 187 56 -1,
			187 177 65 -1,
			128 77 73 -1,
			178 67 69 -1,
			167 179 176 -1,
			137 175 136 -1,
			179 175 137 -1,
			167 175 179 -1,
			178 180 67 -1,
			138 73 67 -1,
			180 138 67 -1,
			138 128 73 -1,
			142 144 237 -1,
			130 74 76 -1,
			124 132 127 -1,
			146 118 120 -1,
			132 118 146 -1,
			124 118 132 -1,
			130 134 74 -1,
			237 78 74 -1,
			134 237 74 -1,
			148 237 134 -1,
			148 142 237 -1,
			28 26 39 -1,
			26 44 39 -1,
			26 236 44 -1,
			236 26 24 -1,
			236 24 105 -1,
			108 236 105 -1,
			22 28 41 -1,
			41 28 39 -1,
			105 24 80 -1,
			24 41 80 -1,
			24 22 41 -1,
			237 35 32 -1,
			140 237 144 -1,
			140 35 237 -1,
			237 32 78 -1,
			32 59 78 -1,
			32 30 59 -1,
			36 35 63 -1,
			35 82 63 -1,
			35 140 82 -1,
			30 36 59 -1,
			59 36 63 -1,
			84 88 97 -1,
			84 97 86 -1,
			95 93 101 -1,
			95 101 99 -1,
			88 95 99 -1,
			88 99 97 -1,
			1 3 5 -1,
			5 3 7 -1,
			1 5 9 -1,
			11 1 9 -1,
			11 13 3 -1,
			1 11 3 -1,
			13 15 7 -1,
			3 13 7 -1,
			5 7 15 -1,
			9 5 15 -1,
			9 216 217 -1,
			9 217 11 -1,
			13 11 217 -1,
			13 217 219 -1,
			218 13 219 -1,
			15 13 218 -1,
			15 218 9 -1,
			218 216 9 -1,
			21 23 25 -1,
			25 23 27 -1,
			21 25 29 -1,
			31 21 29 -1,
			31 33 23 -1,
			21 31 23 -1,
			33 34 27 -1,
			23 33 27 -1,
			25 27 34 -1,
			29 25 34 -1,
			29 220 221 -1,
			29 221 31 -1,
			33 31 221 -1,
			33 221 223 -1,
			222 33 223 -1,
			34 33 222 -1,
			34 222 29 -1,
			222 220 29 -1,
			40 43 45 -1,
			45 43 47 -1,
			40 45 49 -1,
			51 40 49 -1,
			51 53 43 -1,
			40 51 43 -1,
			53 55 47 -1,
			43 53 47 -1,
			45 47 55 -1,
			49 45 55 -1,
			49 224 226 -1,
			49 226 51 -1,
			53 51 226 -1,
			53 226 227 -1,
			225 53 227 -1,
			55 53 225 -1,
			55 225 49 -1,
			225 224 49 -1,
			61 62 64 -1,
			64 62 66 -1,
			61 64 68 -1,
			70 61 68 -1,
			70 72 62 -1,
			61 70 62 -1,
			72 75 66 -1,
			62 72 66 -1,
			64 66 75 -1,
			68 64 75 -1,
			68 228 229 -1,
			68 229 70 -1,
			72 70 229 -1,
			72 229 233 -1,
			230 72 233 -1,
			75 72 230 -1,
			75 230 68 -1,
			230 228 68 -1,
			81 83 85 -1,
			85 83 87 -1,
			85 87 89 -1,
			91 85 89 -1,
			81 85 91 -1,
			92 81 91 -1,
			92 94 83 -1,
			81 92 83 -1,
			94 89 87 -1,
			83 94 87 -1,
			89 232 91 -1,
			232 231 91 -1,
			91 231 234 -1,
			91 234 92 -1,
			94 92 234 -1,
			94 234 235 -1,
			232 94 235 -1,
			89 94 232 -1,
			100 102 104 -1,
			106 102 100 -1,
			102 106 109 -1,
			111 102 109 -1,
			109 106 100 -1,
			109 100 113 -1,
			115 113 100 -1,
			104 115 100 -1,
			111 115 104 -1,
			102 111 104 -1,
			207 111 206 -1,
			207 115 111 -1,
			114 113 207 -1,
			113 115 207 -1,
			113 112 109 -1,
			114 112 113 -1,
			112 206 111 -1,
			112 111 109 -1,
			121 123 125 -1,
			126 123 121 -1,
			129 126 121 -1,
			129 121 131 -1,
			133 131 121 -1,
			125 133 121 -1,
			135 133 125 -1,
			123 135 125 -1,
			123 126 129 -1,
			135 123 129 -1,
			203 198 135 -1,
			203 135 129 -1,
			199 135 198 -1,
			199 133 135 -1,
			204 131 199 -1,
			131 133 199 -1,
			131 203 129 -1,
			204 203 131 -1,
			141 143 145 -1,
			147 143 141 -1,
			149 147 141 -1,
			149 141 151 -1,
			153 151 141 -1,
			145 153 141 -1,
			154 153 145 -1,
			143 154 145 -1,
			143 147 149 -1,
			154 143 149 -1,
			194 185 154 -1,
			194 154 149 -1,
			187 154 185 -1,
			187 153 154 -1,
			196 151 187 -1,
			151 153 187 -1,
			151 194 149 -1,
			196 194 151 -1,
			160 162 164 -1,
			166 162 160 -1,
			168 166 160 -1,
			168 160 170 -1,
			172 170 160 -1,
			164 172 160 -1,
			174 172 164 -1,
			162 174 164 -1,
			162 166 168 -1,
			174 162 168 -1,
			179 137 174 -1,
			179 174 168 -1,
			138 174 137 -1,
			138 172 174 -1,
			180 170 138 -1,
			170 172 138 -1,
			170 179 168 -1,
			180 179 170 -1,
			181 182 184 -1,
			186 182 181 -1,
			189 186 181 -1,
			189 181 191 -1,
			193 191 181 -1,
			184 193 181 -1,
			195 193 184 -1,
			182 195 184 -1,
			182 186 189 -1,
			195 182 189 -1,
			132 146 195 -1,
			132 195 189 -1,
			148 195 146 -1,
			148 193 195 -1,
			134 191 148 -1,
			191 193 148 -1,
			191 132 189 -1,
			134 132 191 -1,
		]
		normal Normal { vector [
			-0.242583 -0.306794 0.920343,
			-0.385391 -0.487404 0.783525,
			-0.488018 0.617208 0.617165,
			0.385394 -0.487384 0.783536,
			-0.242577 0.920350 0.306779,
			-0.385394 0.487384 0.783536,
			-0.488012 -0.617203 0.617174,
			0.385391 0.487404 0.783525,
			0.488014 -0.617203 0.617173,
			-0.602674 0.762160 0.236425,
			0.242581 -0.306794 0.920343,
			-0.602651 -0.762179 0.236421,
			0.242583 0.920348 0.306778,
			0.602674 -0.762160 0.236425,
			0.488016 0.617209 0.617166,
			0.602651 0.762179 0.236421,
			-0.242571 -0.306768 0.920355,
			0.488009 0.617159 0.617221,
			-0.488027 -0.617174 0.617193,
			0.488015 -0.617179 0.617196,
			-0.488012 -0.617186 0.617191,
			-0.385391 -0.487404 0.783525,
			-0.242580 -0.920347 -0.306784,
			0.385394 -0.487384 0.783536,
			-0.620238 -0.000021 0.784413,
			-0.385394 0.487384 0.783536,
			0.620234 -0.000000 0.784417,
			0.385391 0.487404 0.783525,
			0.242582 -0.920340 -0.306803,
			-0.602674 0.762160 0.236425,
			-0.242583 -0.920345 -0.306788,
			-0.602651 -0.762179 0.236421,
			-0.620234 0.000000 0.784417,
			0.602674 -0.762160 0.236425,
			0.602651 0.762179 0.236421,
			0.620238 -0.000021 0.784413,
			0.242579 -0.920342 -0.306799,
			0.488012 -0.617186 0.617191,
			0.242571 -0.306768 0.920355,
			0.242573 0.920350 -0.306780,
			-0.385391 -0.487404 0.783525,
			-0.242572 0.920345 -0.306797,
			0.487999 0.617194 -0.617194,
			0.385394 -0.487384 0.783536,
			0.509284 0.709568 -0.486973,
			-0.385394 0.487384 0.783536,
			0.171105 0.949319 -0.263658,
			0.385391 0.487404 0.783525,
			-0.171105 0.949320 -0.263656,
			-0.602674 0.762160 0.236425,
			0.488020 0.617186 -0.617185,
			-0.602651 -0.762179 0.236421,
			-0.488027 0.617194 -0.617172,
			0.602674 -0.762160 0.236425,
			0.171106 0.949320 -0.263655,
			0.602651 0.762179 0.236421,
			-0.171107 0.949319 -0.263659,
			0.488020 0.617186 -0.617185,
			-0.488027 0.617194 -0.617172,
			-0.242571 0.920345 -0.306795,
			-0.488009 0.617160 0.617221,
			-0.385391 -0.487404 0.783525,
			0.385394 -0.487384 0.783536,
			0.242573 0.920349 -0.306782,
			-0.385394 0.487384 0.783536,
			0.171106 0.949320 -0.263655,
			0.385391 0.487404 0.783525,
			-0.171105 0.949320 -0.263656,
			-0.602674 0.762160 0.236425,
			-0.488027 0.617195 -0.617171,
			-0.602651 -0.762179 0.236421,
			0.488021 0.617185 -0.617185,
			0.602674 -0.762160 0.236425,
			0.171106 0.949320 -0.263655,
			-0.171105 0.949319 -0.263658,
			0.602651 0.762179 0.236421,
			-0.488027 0.617195 -0.617171,
			0.488021 0.617185 -0.617185,
			-0.509284 0.709568 -0.486973,
			-0.487999 0.617195 -0.617194,
			-0.488006 0.617191 -0.617191,
			-0.385391 -0.487404 0.783525,
			0.488006 0.617191 -0.617191,
			0.385394 -0.487384 0.783536,
			-0.488021 -0.617167 0.617204,
			-0.385394 0.487384 0.783536,
			0.488021 -0.617185 0.617185,
			0.385391 0.487404 0.783525,
			-0.858945 -0.362096 0.362077,
			0.602651 0.762179 0.236421,
			-0.488049 -0.617128 0.617221,
			-0.602674 0.762160 0.236425,
			-0.602651 -0.762179 0.236421,
			-0.488029 0.617196 0.617169,
			0.602674 -0.762160 0.236425,
			-0.858944 0.362082 0.362093,
			-0.488035 -0.617186 -0.617174,
			0.858942 -0.362084 0.362095,
			0.242592 0.306786 0.920343,
			0.858948 0.362093 0.362074,
			0.385387 0.487388 -0.783537,
			0.488027 0.617174 0.617193,
			-0.385394 -0.487384 -0.783536,
			0.488071 0.617182 0.617149,
			-0.385391 0.487404 -0.783525,
			-0.242580 0.306790 -0.920345,
			0.385398 -0.487401 -0.783524,
			-0.046827 0.090949 -0.994754,
			-0.488021 0.617185 -0.617185,
			0.602662 -0.762169 -0.236427,
			-0.025551 -0.050423 -0.998401,
			-0.602674 -0.762160 -0.236425,
			0.234730 -0.416182 -0.878461,
			0.602663 0.762170 -0.236419,
			0.230223 0.500556 -0.834531,
			-0.602651 0.762179 -0.236421,
			0.488035 -0.617186 -0.617174,
			-0.488021 -0.617185 -0.617185,
			0.201560 -0.936605 -0.286608,
			0.488021 -0.617185 -0.617185,
			0.025551 -0.050424 -0.998401,
			0.385387 0.487388 -0.783537,
			-0.488020 -0.617186 -0.617185,
			-0.385394 -0.487384 -0.783536,
			-0.201558 -0.936602 -0.286621,
			-0.385391 0.487404 -0.783525,
			0.385398 -0.487401 -0.783524,
			-0.025551 -0.050422 -0.998401,
			0.046827 0.090949 -0.994754,
			0.602662 -0.762169 -0.236427,
			-0.046827 0.090949 -0.994754,
			0.602663 0.762170 -0.236419,
			0.234730 -0.416182 -0.878461,
			-0.602651 0.762179 -0.236421,
			0.230225 0.500557 -0.834530,
			-0.602674 -0.762160 -0.236425,
			0.025551 -0.050422 -0.998401,
			-0.234729 -0.416180 -0.878463,
			-0.230224 0.500559 -0.834528,
			0.488020 -0.617185 -0.617187,
			0.242580 0.306790 -0.920345,
			0.385387 0.487388 -0.783537,
			0.046827 0.090948 -0.994754,
			-0.385394 -0.487384 -0.783536,
			0.488021 0.617185 -0.617185,
			-0.385391 0.487404 -0.783525,
			-0.234729 -0.416180 -0.878463,
			0.385398 -0.487401 -0.783523,
			-0.230223 0.500559 -0.834529,
			0.602662 -0.762169 -0.236427,
			-0.201559 -0.936602 -0.286621,
			0.602663 0.762170 -0.236420,
			-0.201558 -0.936602 -0.286620,
			-0.602651 0.762179 -0.236421,
			-0.602674 -0.762160 -0.236425,
			-0.488021 -0.617185 -0.617185,
			0.488020 -0.617186 -0.617186,
			0.201559 -0.936606 -0.286607,
			0.201559 -0.936606 -0.286607,
			-0.488020 -0.617186 -0.617185,
			0.385387 0.487388 -0.783537,
			0.488020 -0.617185 -0.617187,
			-0.385394 -0.487384 -0.783536,
			-0.201557 -0.936603 -0.286619,
			-0.385391 0.487404 -0.783525,
			0.488045 -0.617139 0.617212,
			0.385398 -0.487401 -0.783524,
			-0.201558 -0.936602 -0.286620,
			0.602662 -0.762169 -0.236427,
			-0.488021 -0.617185 -0.617185,
			0.602663 0.762170 -0.236419,
			0.488020 -0.617186 -0.617186,
			-0.602651 0.762179 -0.236421,
			0.201559 -0.936606 -0.286608,
			-0.602674 -0.762160 -0.236425,
			0.201559 -0.936606 -0.286607,
			-0.025551 -0.050422 -0.998401,
			0.046827 0.090949 -0.994754,
			-0.046827 0.090949 -0.994754,
			0.234730 -0.416182 -0.878461,
			0.230223 0.500556 -0.834531,
			0.385387 0.487388 -0.783537,
			-0.385394 -0.487384 -0.783536,
			0.025551 -0.050422 -0.998401,
			-0.385391 0.487404 -0.783525,
			-0.234729 -0.416180 -0.878463,
			0.385398 -0.487401 -0.783524,
			-0.230224 0.500559 -0.834528,
			-0.025551 -0.050422 -0.998401,
			0.602662 -0.762169 -0.236427,
			0.046827 0.090949 -0.994754,
			0.602663 0.762170 -0.236419,
			-0.046827 0.090949 -0.994754,
			-0.602651 0.762179 -0.236421,
			0.234730 -0.416182 -0.878461,
			-0.602674 -0.762160 -0.236425,
			0.230223 0.500556 -0.834531,
			0.025551 -0.050422 -0.998401,
			-0.234729 -0.416180 -0.878463,
			-0.230224 0.500559 -0.834528,
			-0.025551 -0.050422 -0.998401,
			0.046827 0.090949 -0.994754,
			-0.046827 0.090949 -0.994754,
			0.234730 -0.416182 -0.878461,
			0.230223 0.500556 -0.834531,
			0.025551 -0.050422 -0.998401,
			-0.234729 -0.416180 -0.878463,
			-0.230224 0.500560 -0.834528,
			0.858943 -0.362084 0.362095,
			0.858947 0.362094 0.362075,
			0.488035 0.617184 0.617176,
			-0.488063 0.617204 0.617134,
			-0.858945 0.362081 0.362092,
			-0.858945 -0.362096 0.362078,
			-0.242593 0.306771 0.920348,
			-0.488021 0.617185 0.617185,
			-0.242582 0.306786 0.920346,
			-0.242571 -0.306773 0.920353,
			0.242575 0.306777 0.920351,
			0.242579 -0.306783 0.920348,
			-0.242579 0.306783 0.920348,
			-0.242580 -0.306783 0.920347,
			0.242582 0.306786 0.920346,
			0.242579 -0.306783 0.920348,
			-0.242579 0.306783 0.920348,
			0.242579 0.306782 0.920348,
			-0.242584 -0.306789 0.920344,
			0.242583 -0.306787 0.920345,
			-0.242585 0.306790 0.920344,
			-0.242576 -0.306779 0.920350,
			0.242580 0.306783 0.920347,
			-0.242574 0.306776 0.920351,
			0.242579 0.306783 0.920348,
			0.242579 -0.306783 0.920348,
			-0.242580 -0.306783 0.920347,
			0.242574 -0.306777 0.920351,
			0.000000 0.824506 -0.565853,
			0.000000 0.824506 -0.565853,
		] }
		normalPerVertex TRUE
		solid TRUE
	}
	appearance Appearance {
		material Material {
			diffuseColor 1.0000 1.0000 1.0000
			transparency 0.0000
			shininess 0.7071
		}
	}
}

