#VRML V2.0 utf8
# Exportiert mit Blender-WRL-Export (The Smart Assistant)

Shape # Material: Material
{
	geometry IndexedFaceSet {
		coord Coordinate { point [
			4.000000 0.320000 -4.000000,
			4.000000 -0.320000 -4.000000,
			4.000000 0.320000 4.000000,
			4.000000 -0.320000 4.000000,
			-4.000000 0.320000 -4.000000,
			-4.000000 -0.320000 -4.000000,
			-4.000000 0.320000 4.000000,
			-4.000000 -0.320000 4.000000,
		] }
		coordIndex [
			4 2 0 -1,
			2 7 3 -1,
			6 5 7 -1,
			1 7 5 -1,
			0 3 1 -1,
			4 1 5 -1,
			4 6 2 -1,
			2 6 7 -1,
			6 4 5 -1,
			1 3 7 -1,
			0 2 3 -1,
			4 0 1 -1,
		]
		normal Normal { vector [
			0.079497 0.993660 -0.079493,
			0.079488 -0.993661 -0.079493,
			0.079488 0.993661 0.079493,
			0.079497 -0.993660 0.079493,
			-0.079488 0.993661 -0.079493,
			-0.079497 -0.993660 -0.079493,
			-0.079497 0.993660 0.079493,
			-0.079488 -0.993661 0.079493,
		] }
		normalPerVertex TRUE
		solid TRUE
	}
	appearance Appearance {
		material Material {
			diffuseColor 0.8000 0.8000 0.8000
			transparency 0.0000
			shininess 0.5000
		}
	}
}

Shape # Material: mat0
{
	geometry IndexedFaceSet {
		coord Coordinate { point [
			0.803760 1.096827 2.049554,
			-1.256324 2.344587 2.592838,
			0.803760 2.702107 1.856514,
			-1.143677 2.344587 2.592838,
			0.803760 1.096827 1.856514,
			-1.256324 2.344587 2.480191,
			0.803760 2.702107 2.049554,
			-1.143677 2.344587 2.480191,
			-0.803760 2.702107 2.049554,
			-1.300000 2.224587 2.436514,
			-0.803760 1.096827 2.049554,
			-1.300000 2.224587 2.636514,
			-0.803760 1.096827 1.856514,
			-1.100000 2.224587 2.636514,
			-0.803760 2.702107 1.856514,
			-1.100000 2.224587 2.436514,
			1.779120 2.702107 2.049554,
			1.972160 2.702107 1.856514,
			1.779120 2.702107 2.313714,
			1.972160 2.702107 2.313714,
			1.779120 1.096827 2.049554,
			-0.456324 2.344587 2.592838,
			1.743560 2.092507 2.049554,
			-0.343676 2.344587 2.592838,
			1.743560 1.096827 2.049554,
			-0.456324 2.344587 2.480191,
			1.530200 1.096827 2.049554,
			-0.343676 2.344587 2.480191,
			1.530200 2.092507 2.049554,
			-0.500000 2.224587 2.436514,
			-1.530200 2.092507 2.049554,
			-0.500000 2.224587 2.636514,
			-1.530200 1.096827 2.049554,
			-0.300000 2.224587 2.636514,
			-1.743560 1.096827 2.049554,
			-0.300000 2.224587 2.436514,
			-1.743560 2.092507 2.049554,
			-1.779120 1.096827 2.049554,
			-1.779120 2.702107 2.049554,
			1.530200 2.092507 1.856514,
			0.343676 2.344587 2.592838,
			1.743560 2.092507 1.856514,
			0.456324 2.344587 2.592838,
			1.972160 0.344987 1.856514,
			1.530200 0.568507 1.856514,
			0.343676 2.344587 2.480190,
			0.869800 0.568507 1.856514,
			0.456324 2.344587 2.480190,
			0.300000 2.224587 2.436514,
			0.730200 0.568507 1.856514,
			0.730200 0.344987 1.856514,
			0.300000 2.224587 2.636514,
			0.869800 0.344987 1.856514,
			0.500000 2.224587 2.636514,
			0.069800 0.568507 1.856514,
			0.500000 2.224587 2.436514,
			-1.530200 2.092507 1.856514,
			-1.972160 2.702107 1.856514,
			-0.069800 0.568507 1.856514,
			-1.743560 2.092507 1.856514,
			-0.069800 0.344987 1.856514,
			1.143677 2.344587 2.592837,
			1.256324 2.344587 2.592837,
			0.069800 0.344987 1.856514,
			-0.730200 0.568507 1.856514,
			1.143677 2.344587 2.480190,
			-0.869800 0.568507 1.856514,
			1.256324 2.344587 2.480190,
			-0.730200 0.344987 1.856514,
			1.300000 2.224587 2.436514,
			-0.869800 0.344987 1.856514,
			1.100000 2.224587 2.436514,
			1.100000 2.224587 2.636514,
			-1.530200 0.568507 1.856514,
			1.743560 0.344987 1.856514,
			1.300000 2.224587 2.636514,
			-1.743560 0.344987 1.856514,
			-1.972160 0.344987 1.856514,
			-1.972160 2.702107 2.313714,
			-1.779120 2.702107 2.313714,
			1.255625 -0.874213 2.480889,
			-1.972160 1.828347 2.313714,
			1.144375 -0.874213 2.592139,
			-1.972160 2.702107 3.725954,
			1.144375 -0.874213 2.480889,
			-1.972160 2.702107 2.821714,
			1.255625 -0.874213 2.592139,
			-1.972160 1.828347 2.821714,
			1.300000 -0.752293 2.636514,
			-1.972160 0.344987 3.725954,
			1.100000 -0.752293 2.636514,
			-1.779120 1.828347 2.313714,
			-1.779120 2.702107 3.532914,
			1.300000 -0.752293 2.436514,
			-1.779120 1.828347 2.821714,
			1.100000 -0.752293 2.436514,
			-1.779120 2.702107 2.821714,
			-1.779120 1.096827 3.532914,
			1.743560 0.344987 2.049554,
			1.530200 0.344987 2.436514,
			1.530200 0.344987 2.049554,
			0.455625 -0.874213 2.480889,
			1.530200 0.344987 2.636514,
			0.344375 -0.874213 2.592139,
			1.300000 0.344987 2.636514,
			0.344375 -0.874213 2.480889,
			1.300000 0.344987 2.436514,
			0.455625 -0.874213 2.592139,
			1.972160 0.344987 3.725954,
			0.500000 -0.752293 2.436514,
			0.500000 -0.752293 2.636514,
			1.530200 0.344987 3.725954,
			0.300000 -0.752293 2.436514,
			-1.530200 0.568507 3.725954,
			0.300000 -0.752293 2.636514,
			-1.530200 0.344987 3.725954,
			-1.530200 0.344987 2.636514,
			-0.869800 0.344987 3.725954,
			-0.869800 0.568507 3.725954,
			-0.869800 0.344987 2.636514,
			-0.344375 -0.874213 2.480889,
			-0.730200 0.344987 2.436514,
			-0.455625 -0.874213 2.592139,
			-0.869800 0.344987 2.436514,
			-1.100000 0.344987 2.636514,
			-0.455625 -0.874213 2.480889,
			-0.344375 -0.874213 2.592139,
			-1.100000 0.344987 2.436514,
			-0.300000 -0.752293 2.436514,
			-0.730200 0.344987 2.636514,
			-0.300000 -0.752293 2.636514,
			-0.500000 0.344987 2.636514,
			-0.500000 -0.752293 2.436514,
			-0.500000 0.344987 2.436514,
			-0.500000 -0.752293 2.636514,
			-0.730200 0.344987 3.725954,
			-1.743560 0.344987 2.049554,
			-1.530200 0.344987 2.436514,
			-1.530200 0.344987 2.049554,
			-1.300000 0.344987 2.636514,
			-1.144375 -0.874213 2.480890,
			-1.300000 0.344987 2.436514,
			-1.255625 -0.874213 2.592139,
			1.530200 0.568507 3.725954,
			0.730200 0.568507 3.725954,
			-1.255625 -0.874213 2.480890,
			0.730200 0.344987 3.725954,
			-1.144375 -0.874213 2.592139,
			0.869800 0.344987 3.725954,
			-1.100000 -0.752293 2.436514,
			0.869800 0.568507 3.725954,
			-1.100000 -0.752293 2.636514,
			0.069800 0.568507 3.725954,
			-1.300000 -0.752293 2.436514,
			-0.069800 0.344987 3.725954,
			-1.300000 -0.752293 2.636514,
			0.069800 0.344987 3.725954,
			-0.069800 0.568507 3.725954,
			1.972160 2.702107 3.725954,
			-0.730200 0.568507 3.725954,
			-0.069800 0.344987 2.636514,
			0.069800 0.344987 2.436514,
			-0.069800 0.344987 2.436514,
			-0.300000 0.344987 2.636514,
			-0.300000 0.344987 2.436514,
			0.069800 0.344987 2.636514,
			0.300000 0.344987 2.636514,
			0.300000 0.344987 2.436514,
			0.730200 0.344987 2.636514,
			0.869800 0.344987 2.436514,
			0.730200 0.344987 2.436514,
			0.500000 0.344987 2.636514,
			0.500000 0.344987 2.436514,
			0.869800 0.344987 2.636514,
			1.100000 0.344987 2.636514,
			1.100000 0.344987 2.436514,
			1.972160 1.828347 2.313714,
			1.972160 1.828347 2.821714,
			1.972160 2.702107 2.821714,
			1.779120 1.096827 3.532914,
			1.779120 1.828347 2.821714,
			1.779120 1.828347 2.313714,
			1.779120 2.702107 3.532914,
			1.779120 2.702107 2.821714,
			-1.300000 1.096827 2.436514,
			-1.100000 1.096827 2.436514,
			-1.300000 1.096827 2.636514,
			-1.100000 1.096827 2.636514,
			-0.500000 1.096827 2.436514,
			-0.500000 1.096827 2.636514,
			-0.300000 1.096827 2.436514,
			-0.300000 1.096827 2.636514,
			0.300000 1.096827 2.436514,
			0.300000 1.096827 2.636514,
			0.500000 1.096827 2.436514,
			0.500000 1.096827 2.636514,
			1.100000 1.096827 2.436514,
			1.300000 1.096827 2.436514,
			1.100000 1.096827 2.636514,
			1.300000 1.096827 2.636514,
			1.530200 0.494113 2.049554,
			-1.530200 0.494113 2.049554,
		] }
		coordIndex [
			0 2 4 -1,
			0 6 2 -1,
			8 10 12 -1,
			8 12 14 -1,
			2 16 17 -1,
			6 16 2 -1,
			18 19 16 -1,
			16 19 17 -1,
			20 22 24 -1,
			26 28 0 -1,
			22 16 28 -1,
			28 6 0 -1,
			16 6 28 -1,
			20 16 22 -1,
			10 30 32 -1,
			8 30 10 -1,
			34 36 37 -1,
			30 38 36 -1,
			8 38 30 -1,
			38 37 36 -1,
			39 17 41 -1,
			2 17 39 -1,
			43 41 17 -1,
			4 39 44 -1,
			4 2 39 -1,
			46 4 44 -1,
			49 4 46 -1,
			50 46 52 -1,
			50 49 46 -1,
			54 4 49 -1,
			56 57 14 -1,
			58 4 54 -1,
			59 57 56 -1,
			12 4 58 -1,
			12 56 14 -1,
			60 54 63 -1,
			60 58 54 -1,
			64 12 58 -1,
			66 12 64 -1,
			68 66 64 -1,
			70 66 68 -1,
			73 56 12 -1,
			73 12 66 -1,
			74 41 43 -1,
			59 76 77 -1,
			77 57 59 -1,
			57 78 38 -1,
			78 79 38 -1,
			38 14 57 -1,
			38 8 14 -1,
			81 78 57 -1,
			83 85 87 -1,
			77 87 81 -1,
			77 81 57 -1,
			89 83 87 -1,
			89 87 77 -1,
			79 91 38 -1,
			91 37 38 -1,
			92 94 96 -1,
			91 94 37 -1,
			92 97 94 -1,
			94 97 37 -1,
			43 98 74 -1,
			99 100 98 -1,
			102 104 106 -1,
			102 106 99 -1,
			102 98 43 -1,
			102 99 98 -1,
			108 111 102 -1,
			108 102 43 -1,
			113 115 116 -1,
			117 118 119 -1,
			121 123 70 -1,
			121 70 68 -1,
			119 124 127 -1,
			119 127 123 -1,
			129 119 123 -1,
			129 123 121 -1,
			131 121 133 -1,
			131 129 121 -1,
			135 117 119 -1,
			135 119 129 -1,
			136 77 76 -1,
			137 136 138 -1,
			116 77 136 -1,
			116 136 137 -1,
			139 137 141 -1,
			139 116 137 -1,
			89 77 116 -1,
			115 89 116 -1,
			143 111 108 -1,
			144 146 148 -1,
			144 148 150 -1,
			152 154 156 -1,
			157 154 152 -1,
			158 152 144 -1,
			158 150 143 -1,
			158 143 108 -1,
			158 144 150 -1,
			158 157 152 -1,
			118 117 135 -1,
			118 135 159 -1,
			89 115 113 -1,
			83 113 118 -1,
			83 159 157 -1,
			83 157 158 -1,
			83 118 159 -1,
			83 89 113 -1,
			159 135 129 -1,
			154 157 160 -1,
			161 162 60 -1,
			161 60 63 -1,
			160 163 164 -1,
			160 164 162 -1,
			165 160 162 -1,
			165 162 161 -1,
			166 161 167 -1,
			166 165 161 -1,
			156 154 160 -1,
			156 160 165 -1,
			152 156 165 -1,
			146 144 168 -1,
			169 170 50 -1,
			169 50 52 -1,
			168 171 172 -1,
			168 172 170 -1,
			173 168 170 -1,
			173 170 169 -1,
			174 169 175 -1,
			174 173 169 -1,
			148 146 168 -1,
			148 168 173 -1,
			150 148 173 -1,
			111 143 102 -1,
			17 176 43 -1,
			177 108 43 -1,
			177 43 176 -1,
			19 176 17 -1,
			158 177 178 -1,
			158 108 177 -1,
			179 180 20 -1,
			20 180 181 -1,
			181 16 20 -1,
			181 18 16 -1,
			180 182 183 -1,
			179 182 180 -1,
			92 182 97 -1,
			97 182 179 -1,
			85 92 96 -1,
			85 83 92 -1,
			183 182 178 -1,
			182 158 178 -1,
			83 158 92 -1,
			92 158 182 -1,
			184 34 37 -1,
			184 32 34 -1,
			185 10 32 -1,
			184 185 32 -1,
			186 184 37 -1,
			187 186 97 -1,
			186 37 97 -1,
			188 10 185 -1,
			189 185 187 -1,
			189 188 185 -1,
			189 187 97 -1,
			190 12 10 -1,
			188 190 10 -1,
			191 189 97 -1,
			192 4 12 -1,
			190 192 12 -1,
			0 4 192 -1,
			193 190 191 -1,
			193 192 190 -1,
			194 0 192 -1,
			196 194 195 -1,
			196 0 194 -1,
			196 26 0 -1,
			197 26 196 -1,
			198 196 195 -1,
			24 26 197 -1,
			20 24 197 -1,
			20 197 199 -1,
			179 199 198 -1,
			179 195 193 -1,
			179 191 97 -1,
			179 193 191 -1,
			179 198 195 -1,
			179 20 199 -1,
			18 176 19 -1,
			18 181 176 -1,
			181 177 176 -1,
			181 180 177 -1,
			180 178 177 -1,
			180 183 178 -1,
			169 52 46 -1,
			99 200 100 -1,
			143 104 102 -1,
			174 150 173 -1,
			104 150 174 -1,
			143 150 104 -1,
			46 44 200 -1,
			99 106 200 -1,
			175 46 200 -1,
			106 175 200 -1,
			175 169 46 -1,
			161 63 54 -1,
			170 49 50 -1,
			144 171 168 -1,
			166 152 165 -1,
			171 152 166 -1,
			144 152 171 -1,
			170 172 49 -1,
			167 54 49 -1,
			172 167 49 -1,
			167 161 54 -1,
			121 68 64 -1,
			162 58 60 -1,
			157 163 160 -1,
			131 159 129 -1,
			163 159 131 -1,
			157 159 163 -1,
			162 164 58 -1,
			133 64 58 -1,
			164 133 58 -1,
			133 121 64 -1,
			137 138 201 -1,
			123 66 70 -1,
			118 124 119 -1,
			139 113 116 -1,
			124 113 139 -1,
			118 113 124 -1,
			123 127 66 -1,
			201 73 66 -1,
			127 201 66 -1,
			141 201 127 -1,
			141 137 201 -1,
			28 26 39 -1,
			26 44 39 -1,
			26 200 44 -1,
			200 26 24 -1,
			200 24 98 -1,
			100 200 98 -1,
			22 28 41 -1,
			41 28 39 -1,
			98 24 74 -1,
			24 41 74 -1,
			24 22 41 -1,
			201 34 32 -1,
			136 201 138 -1,
			136 34 201 -1,
			201 32 73 -1,
			32 56 73 -1,
			32 30 56 -1,
			36 34 59 -1,
			34 76 59 -1,
			34 136 76 -1,
			30 36 56 -1,
			56 36 59 -1,
			78 81 91 -1,
			78 91 79 -1,
			87 85 96 -1,
			87 96 94 -1,
			81 87 94 -1,
			81 94 91 -1,
			1 3 5 -1,
			5 3 7 -1,
			1 5 9 -1,
			11 1 9 -1,
			11 13 3 -1,
			1 11 3 -1,
			13 15 7 -1,
			3 13 7 -1,
			5 7 15 -1,
			9 5 15 -1,
			9 184 186 -1,
			9 186 11 -1,
			13 11 186 -1,
			13 186 187 -1,
			15 13 187 -1,
			15 187 185 -1,
			15 185 9 -1,
			185 184 9 -1,
			21 23 25 -1,
			25 23 27 -1,
			21 25 29 -1,
			31 21 29 -1,
			31 33 23 -1,
			21 31 23 -1,
			33 35 27 -1,
			23 33 27 -1,
			25 27 35 -1,
			29 25 35 -1,
			29 188 189 -1,
			29 189 31 -1,
			33 31 189 -1,
			33 189 191 -1,
			35 33 191 -1,
			35 191 190 -1,
			35 190 29 -1,
			190 188 29 -1,
			40 42 45 -1,
			45 42 47 -1,
			40 45 48 -1,
			51 40 48 -1,
			51 53 42 -1,
			40 51 42 -1,
			53 55 47 -1,
			42 53 47 -1,
			45 47 55 -1,
			48 45 55 -1,
			48 192 193 -1,
			48 193 51 -1,
			53 51 193 -1,
			53 193 195 -1,
			55 53 195 -1,
			55 195 194 -1,
			55 194 48 -1,
			194 192 48 -1,
			61 62 65 -1,
			65 62 67 -1,
			65 67 69 -1,
			71 65 69 -1,
			61 65 71 -1,
			72 61 71 -1,
			72 75 62 -1,
			61 72 62 -1,
			75 69 67 -1,
			62 75 67 -1,
			69 197 71 -1,
			197 196 71 -1,
			71 196 198 -1,
			71 198 72 -1,
			75 72 198 -1,
			75 198 199 -1,
			69 75 199 -1,
			69 199 197 -1,
			80 82 84 -1,
			86 82 80 -1,
			82 86 88 -1,
			90 82 88 -1,
			86 80 93 -1,
			88 86 93 -1,
			95 93 80 -1,
			84 95 80 -1,
			90 95 84 -1,
			82 90 84 -1,
			175 90 174 -1,
			175 95 90 -1,
			106 93 175 -1,
			93 95 175 -1,
			106 104 88 -1,
			106 88 93 -1,
			104 174 90 -1,
			104 90 88 -1,
			101 103 105 -1,
			107 103 101 -1,
			107 101 109 -1,
			110 107 109 -1,
			112 109 101 -1,
			105 112 101 -1,
			114 112 105 -1,
			103 114 105 -1,
			103 107 110 -1,
			114 103 110 -1,
			171 166 114 -1,
			171 114 110 -1,
			167 114 166 -1,
			167 112 114 -1,
			172 109 167 -1,
			109 112 167 -1,
			172 171 110 -1,
			172 110 109 -1,
			120 122 125 -1,
			126 122 120 -1,
			126 120 128 -1,
			130 126 128 -1,
			132 128 120 -1,
			125 132 120 -1,
			134 132 125 -1,
			122 134 125 -1,
			122 126 130 -1,
			134 122 130 -1,
			163 131 134 -1,
			163 134 130 -1,
			133 134 131 -1,
			133 132 134 -1,
			164 128 133 -1,
			128 132 133 -1,
			164 163 130 -1,
			164 130 128 -1,
			140 142 145 -1,
			147 142 140 -1,
			147 140 149 -1,
			151 147 149 -1,
			153 149 140 -1,
			145 153 140 -1,
			155 153 145 -1,
			142 155 145 -1,
			142 147 151 -1,
			155 142 151 -1,
			124 139 155 -1,
			124 155 151 -1,
			141 155 139 -1,
			141 153 155 -1,
			127 149 141 -1,
			149 153 141 -1,
			127 124 151 -1,
			127 151 149 -1,
		]
		normal Normal { vector [
			-0.301516 0.904529 0.301522,
			-0.467046 0.750816 0.467058,
			-0.577348 0.577331 -0.577372,
			0.467049 0.750827 0.467038,
			-0.301507 0.301522 -0.904532,
			-0.467050 0.750826 -0.467038,
			-0.577341 0.577341 0.577368,
			0.467046 0.750816 -0.467058,
			0.577344 0.577340 0.577367,
			-0.690698 0.214250 -0.690676,
			0.301514 0.904529 0.301523,
			-0.690676 0.214248 0.690698,
			0.301508 0.301506 -0.904537,
			0.690701 0.214249 0.690673,
			0.577345 0.577333 -0.577373,
			0.690673 0.214249 -0.690701,
			-0.301502 0.904542 0.301497,
			0.577338 0.577385 -0.577328,
			-0.577356 0.577356 0.577339,
			0.577345 0.577361 0.577345,
			-0.577341 0.577357 0.577352,
			-0.467046 0.750816 0.467058,
			-0.301513 -0.301513 0.904533,
			0.467050 0.750826 0.467038,
			-0.707099 0.707114 0.000019,
			-0.467050 0.750826 -0.467038,
			0.707096 0.707118 -0.000000,
			0.467046 0.750816 -0.467058,
			0.301515 -0.301531 0.904526,
			-0.690698 0.214250 -0.690676,
			-0.301516 -0.301516 0.904531,
			-0.690676 0.214248 0.690698,
			-0.707096 0.707118 0.000000,
			0.690701 0.214249 0.690673,
			0.707099 0.707114 0.000019,
			0.690673 0.214249 -0.690701,
			0.301512 -0.301528 0.904529,
			0.577341 0.577357 0.577352,
			0.301502 0.904542 0.301497,
			0.301503 -0.301510 -0.904537,
			-0.467046 0.750816 0.467058,
			-0.301503 -0.301526 -0.904532,
			0.467050 0.750826 0.467038,
			0.577327 -0.577361 -0.577362,
			0.599182 -0.453030 -0.660109,
			-0.467050 0.750826 -0.467038,
			0.214517 -0.261375 -0.941098,
			0.467046 0.750816 -0.467058,
			-0.690698 0.214250 -0.690676,
			-0.214518 -0.261373 -0.941098,
			-0.577357 -0.577336 -0.577358,
			-0.690676 0.214248 0.690698,
			0.577350 -0.577350 -0.577350,
			0.690701 0.214249 0.690673,
			0.214518 -0.261372 -0.941099,
			0.690673 0.214249 -0.690701,
			-0.301502 -0.301524 -0.904533,
			-0.577338 0.577385 -0.577328,
			-0.214515 -0.261369 -0.941100,
			0.301504 -0.301511 -0.904537,
			-0.577357 -0.577336 -0.577358,
			-0.467046 0.750816 0.467058,
			0.467050 0.750826 0.467038,
			0.577350 -0.577350 -0.577350,
			0.214518 -0.261372 -0.941099,
			-0.467049 0.750826 -0.467038,
			-0.214518 -0.261375 -0.941098,
			0.467046 0.750816 -0.467058,
			0.577350 -0.577350 -0.577351,
			0.690673 0.214249 -0.690701,
			-0.577357 -0.577336 -0.577357,
			-0.690698 0.214250 -0.690676,
			-0.690676 0.214249 0.690698,
			-0.599182 -0.453030 -0.660109,
			-0.577335 -0.577358 -0.577358,
			0.690701 0.214249 0.690673,
			0.577335 -0.577358 -0.577358,
			-0.577328 -0.577361 -0.577362,
			-0.577350 0.577367 0.577333,
			0.577350 0.577350 0.577350,
			0.467049 -0.750826 -0.467038,
			-0.904538 0.301498 0.301514,
			-0.467049 -0.750827 0.467038,
			-0.577374 0.577374 0.577304,
			-0.467046 -0.750816 -0.467057,
			-0.577359 0.577333 -0.577359,
			0.467046 -0.750816 0.467057,
			-0.904537 0.301512 -0.301502,
			0.690673 -0.214249 0.690701,
			-0.577365 -0.577337 0.577349,
			-0.690697 -0.214251 0.690676,
			0.904535 0.301514 0.301505,
			0.301527 0.904528 -0.301514,
			0.690701 -0.214249 -0.690673,
			0.904539 0.301496 -0.301511,
			-0.690677 -0.214249 -0.690698,
			0.577356 0.577356 -0.577339,
			0.577392 0.577324 -0.577335,
			-0.301512 -0.904531 -0.301519,
			-0.059182 -0.994101 -0.090890,
			-0.577350 -0.577350 -0.577350,
			0.467049 -0.750826 -0.467038,
			-0.032307 -0.998206 0.050413,
			-0.467049 -0.750826 0.467038,
			0.292076 -0.864304 0.409475,
			-0.467046 -0.750816 -0.467057,
			0.286634 -0.821583 -0.492790,
			0.467046 -0.750816 0.467057,
			0.577365 -0.577337 0.577349,
			0.690701 -0.214249 -0.690673,
			0.690673 -0.214249 0.690701,
			-0.577350 -0.577350 0.577350,
			-0.690677 -0.214248 -0.690698,
			0.251859 -0.283181 0.925406,
			-0.690697 -0.214250 0.690676,
			0.577350 -0.577350 0.577350,
			0.032308 -0.998206 0.050414,
			-0.577350 -0.577350 0.577350,
			-0.251856 -0.283193 0.925403,
			-0.032307 -0.998206 0.050412,
			0.467049 -0.750826 -0.467038,
			0.059182 -0.994101 -0.090889,
			-0.467049 -0.750826 0.467038,
			-0.059182 -0.994101 -0.090889,
			0.292076 -0.864304 0.409475,
			-0.467046 -0.750816 -0.467057,
			0.467046 -0.750816 0.467057,
			0.286636 -0.821582 -0.492791,
			0.690701 -0.214249 -0.690673,
			0.032307 -0.998206 0.050413,
			0.690673 -0.214249 0.690701,
			-0.292071 -0.864307 0.409473,
			-0.690677 -0.214248 -0.690698,
			-0.286640 -0.821580 -0.492793,
			-0.690697 -0.214250 0.690676,
			0.577349 -0.577351 0.577351,
			0.301512 -0.904531 -0.301519,
			0.059181 -0.994101 -0.090888,
			0.577350 -0.577350 -0.577350,
			-0.292071 -0.864307 0.409473,
			0.467049 -0.750827 -0.467038,
			-0.286638 -0.821581 -0.492792,
			-0.467049 -0.750826 0.467038,
			-0.251857 -0.283194 0.925402,
			-0.251856 -0.283193 0.925403,
			-0.467046 -0.750816 -0.467057,
			-0.577350 -0.577350 0.577350,
			0.467046 -0.750816 0.467057,
			0.577349 -0.577351 0.577351,
			0.690701 -0.214250 -0.690673,
			0.251858 -0.283180 0.925406,
			0.690673 -0.214250 0.690701,
			0.251858 -0.283180 0.925406,
			-0.690677 -0.214248 -0.690698,
			-0.577350 -0.577350 0.577351,
			-0.690697 -0.214250 0.690676,
			0.577350 -0.577351 0.577350,
			-0.251851 -0.283187 0.925406,
			0.577376 0.577371 0.577304,
			0.251858 -0.283180 0.925406,
			-0.032307 -0.998206 0.050412,
			0.059182 -0.994101 -0.090889,
			-0.059182 -0.994101 -0.090889,
			0.292076 -0.864304 0.409475,
			0.286634 -0.821583 -0.492790,
			0.032307 -0.998206 0.050413,
			-0.292071 -0.864307 0.409473,
			-0.286640 -0.821580 -0.492793,
			-0.032307 -0.998206 0.050412,
			0.059182 -0.994101 -0.090889,
			-0.059182 -0.994101 -0.090889,
			0.292076 -0.864304 0.409475,
			0.286634 -0.821583 -0.492790,
			0.032307 -0.998206 0.050413,
			-0.292071 -0.864307 0.409473,
			-0.286640 -0.821579 -0.492793,
			0.904536 0.301513 0.301504,
			0.904539 0.301497 -0.301512,
			0.577365 0.577339 -0.577347,
			-0.577392 0.577299 -0.577359,
			-0.904538 0.301511 -0.301501,
			-0.904537 0.301499 0.301514,
			-0.301528 0.904532 -0.301502,
			-0.577350 0.577350 -0.577350,
			-0.301515 0.904532 -0.301515,
			0.301510 0.904536 -0.301506,
			-0.301502 0.904540 0.301502,
			0.301507 0.904535 0.301512,
			-0.301511 0.904534 -0.301511,
			-0.301512 0.904534 0.301512,
			0.301518 0.904531 -0.301514,
			0.301509 0.904534 0.301513,
			-0.301512 0.904534 -0.301512,
			-0.301512 0.904534 0.301512,
			0.301512 0.904535 -0.301507,
			0.301512 0.904532 0.301516,
			-0.301510 0.904535 -0.301510,
			0.301515 0.904533 -0.301511,
			-0.301508 0.904536 0.301508,
			0.301502 0.904539 0.301506,
			-0.000000 -0.565853 -0.824506,
			-0.000000 -0.565853 -0.824506,
		] }
		normalPerVertex TRUE
		solid TRUE
	}
	appearance Appearance {
		material Material {
			diffuseColor 1.0000 1.0000 1.0000
			transparency 0.0000
			shininess 0.7071
		}
	}
}

Shape # Material: Default
{
	geometry IndexedFaceSet {
		coord Coordinate { point [
			-0.783976 0.320000 0.454790,
			-0.783976 0.720001 0.454790,
			-0.783976 0.320000 -1.546010,
			-0.783976 0.720000 -1.546010,
			0.696824 0.320000 0.454790,
			0.696824 0.720001 0.454790,
			0.696824 0.320000 -1.546010,
			0.696824 0.720000 -1.546010,
		] }
		coordIndex [
			1 2 0 -1,
			3 6 2 -1,
			7 4 6 -1,
			5 0 4 -1,
			6 0 2 -1,
			3 5 7 -1,
			1 3 2 -1,
			3 7 6 -1,
			7 5 4 -1,
			5 1 0 -1,
			6 4 0 -1,
			3 1 5 -1,
		]
		normal Normal { vector [
			-0.256039 -0.947909 0.189506,
			-0.256066 0.947902 0.189505,
			-0.256066 -0.947902 -0.189505,
			-0.256039 0.947909 -0.189506,
			0.256066 -0.947902 0.189505,
			0.256039 0.947909 0.189506,
			0.256039 -0.947909 -0.189506,
			0.256066 0.947902 -0.189505,
		] }
		normalPerVertex TRUE
		solid TRUE
	}
	appearance Appearance {
		material Material {
			diffuseColor 0.8000 0.8000 0.8000
			transparency 0.0000
			shininess 0.5000
		}
	}
}

Shape # Material: Default
{
	geometry IndexedFaceSet {
		coord Coordinate { point [
			-2.895956 0.320000 -0.169347,
			-2.895956 0.720000 -0.169347,
			-2.895956 0.320000 -1.337964,
			-2.895956 0.720000 -1.337964,
			-2.373428 0.320000 -0.169347,
			-2.373428 0.720000 -0.169347,
			-2.373428 0.320000 -1.337964,
			-2.373428 0.720000 -1.337964,
		] }
		coordIndex [
			1 2 0 -1,
			3 6 2 -1,
			7 4 6 -1,
			5 0 4 -1,
			6 0 2 -1,
			3 5 7 -1,
			1 3 2 -1,
			3 7 6 -1,
			7 5 4 -1,
			5 1 0 -1,
			6 4 0 -1,
			3 1 5 -1,
		]
		normal Normal { vector [
			-0.256054 -0.947907 0.189496,
			-0.256050 0.947906 0.189505,
			-0.256050 -0.947906 -0.189505,
			-0.256054 0.947907 -0.189496,
			0.256050 -0.947906 0.189505,
			0.256054 0.947907 0.189496,
			0.256054 -0.947907 -0.189496,
			0.256050 0.947906 -0.189505,
		] }
		normalPerVertex TRUE
		solid TRUE
	}
	appearance Appearance {
		material Material {
			diffuseColor 0.8000 0.8000 0.8000
			transparency 0.0000
			shininess 0.5000
		}
	}
}

Shape # Material: Default
{
	geometry IndexedFaceSet {
		coord Coordinate { point [
			-2.290732 0.320000 -0.169347,
			-2.290732 0.720000 -0.169347,
			-2.290732 0.320000 -1.337964,
			-2.290732 0.720000 -1.337964,
			-1.768204 0.320000 -0.169347,
			-1.768204 0.720000 -0.169347,
			-1.768204 0.320000 -1.337964,
			-1.768204 0.720000 -1.337964,
		] }
		coordIndex [
			1 2 0 -1,
			3 6 2 -1,
			7 4 6 -1,
			5 0 4 -1,
			6 0 2 -1,
			3 5 7 -1,
			1 3 2 -1,
			3 7 6 -1,
			7 5 4 -1,
			5 1 0 -1,
			6 4 0 -1,
			3 1 5 -1,
		]
		normal Normal { vector [
			-0.256054 -0.947907 0.189496,
			-0.256050 0.947906 0.189505,
			-0.256050 -0.947906 -0.189505,
			-0.256054 0.947907 -0.189496,
			0.256050 -0.947906 0.189505,
			0.256054 0.947907 0.189496,
			0.256054 -0.947907 -0.189496,
			0.256050 0.947906 -0.189505,
		] }
		normalPerVertex TRUE
		solid TRUE
	}
	appearance Appearance {
		material Material {
			diffuseColor 0.8000 0.8000 0.8000
			transparency 0.0000
			shininess 0.5000
		}
	}
}

Shape # Material: Default
{
	geometry IndexedFaceSet {
		coord Coordinate { point [
			-1.747772 0.320000 0.566751,
			-1.747772 0.720000 0.566751,
			-2.916388 0.320000 0.566751,
			-2.916388 0.720000 0.566751,
			-1.747772 0.320000 0.044223,
			-1.747772 0.720000 0.044223,
			-2.916388 0.320000 0.044223,
			-2.916388 0.720000 0.044223,
		] }
		coordIndex [
			1 2 0 -1,
			3 6 2 -1,
			7 4 6 -1,
			5 0 4 -1,
			6 0 2 -1,
			3 5 7 -1,
			1 3 2 -1,
			3 7 6 -1,
			7 5 4 -1,
			5 1 0 -1,
			6 4 0 -1,
			3 1 5 -1,
		]
		normal Normal { vector [
			0.189496 -0.947907 0.256054,
			0.189505 0.947906 0.256050,
			-0.189505 -0.947906 0.256050,
			-0.189496 0.947907 0.256053,
			0.189505 -0.947906 -0.256050,
			0.189496 0.947907 -0.256054,
			-0.189496 -0.947907 -0.256053,
			-0.189505 0.947906 -0.256050,
		] }
		normalPerVertex TRUE
		solid TRUE
	}
	appearance Appearance {
		material Material {
			diffuseColor 0.8000 0.8000 0.8000
			transparency 0.0000
			shininess 0.5000
		}
	}
}

Shape # Material: Default
{
	geometry IndexedFaceSet {
		coord Coordinate { point [
			2.879672 0.320001 1.096322,
			2.879672 0.720001 1.096322,
			1.711055 0.320001 1.096322,
			1.711055 0.720001 1.096322,
			2.879672 0.320001 0.573794,
			2.879672 0.720001 0.573794,
			1.711055 0.320001 0.573794,
			1.711055 0.720001 0.573794,
		] }
		coordIndex [
			1 2 0 -1,
			3 6 2 -1,
			7 4 6 -1,
			5 0 4 -1,
			6 0 2 -1,
			3 5 7 -1,
			1 3 2 -1,
			3 7 6 -1,
			7 5 4 -1,
			5 1 0 -1,
			6 4 0 -1,
			3 1 5 -1,
		]
		normal Normal { vector [
			0.189496 -0.947907 0.256054,
			0.189505 0.947906 0.256050,
			-0.189505 -0.947906 0.256050,
			-0.189496 0.947907 0.256053,
			0.189505 -0.947906 -0.256050,
			0.189496 0.947907 -0.256054,
			-0.189496 -0.947907 -0.256053,
			-0.189505 0.947906 -0.256050,
		] }
		normalPerVertex TRUE
		solid TRUE
	}
	appearance Appearance {
		material Material {
			diffuseColor 0.8000 0.8000 0.8000
			transparency 0.0000
			shininess 0.5000
		}
	}
}

Shape # Material: Default
{
	geometry IndexedFaceSet {
		coord Coordinate { point [
			2.879672 0.320000 0.327183,
			2.879672 0.720000 0.327183,
			1.711055 0.320000 0.327183,
			1.711055 0.720000 0.327183,
			2.879672 0.320000 -0.195345,
			2.879672 0.720000 -0.195345,
			1.711055 0.320000 -0.195345,
			1.711055 0.720000 -0.195345,
		] }
		coordIndex [
			1 2 0 -1,
			3 6 2 -1,
			7 4 6 -1,
			5 0 4 -1,
			6 0 2 -1,
			3 5 7 -1,
			1 3 2 -1,
			3 7 6 -1,
			7 5 4 -1,
			5 1 0 -1,
			6 4 0 -1,
			3 1 5 -1,
		]
		normal Normal { vector [
			0.189496 -0.947907 0.256054,
			0.189505 0.947906 0.256050,
			-0.189505 -0.947906 0.256050,
			-0.189496 0.947907 0.256053,
			0.189505 -0.947906 -0.256050,
			0.189496 0.947907 -0.256054,
			-0.189496 -0.947907 -0.256053,
			-0.189505 0.947906 -0.256050,
		] }
		normalPerVertex TRUE
		solid TRUE
	}
	appearance Appearance {
		material Material {
			diffuseColor 0.8000 0.8000 0.8000
			transparency 0.0000
			shininess 0.5000
		}
	}
}

Shape # Material: Default
{
	geometry IndexedFaceSet {
		coord Coordinate { point [
			2.879672 0.320000 -1.236313,
			2.879672 0.720000 -1.236313,
			1.711055 0.320000 -1.236313,
			1.711055 0.720000 -1.236313,
			2.879672 0.320000 -1.758841,
			2.879672 0.720000 -1.758841,
			1.711055 0.320000 -1.758841,
			1.711055 0.720000 -1.758841,
		] }
		coordIndex [
			1 2 0 -1,
			3 6 2 -1,
			7 4 6 -1,
			5 0 4 -1,
			6 0 2 -1,
			3 5 7 -1,
			1 3 2 -1,
			3 7 6 -1,
			7 5 4 -1,
			5 1 0 -1,
			6 4 0 -1,
			3 1 5 -1,
		]
		normal Normal { vector [
			0.189496 -0.947907 0.256054,
			0.189505 0.947906 0.256050,
			-0.189505 -0.947906 0.256050,
			-0.189496 0.947907 0.256053,
			0.189505 -0.947906 -0.256050,
			0.189496 0.947907 -0.256054,
			-0.189496 -0.947907 -0.256053,
			-0.189505 0.947906 -0.256050,
		] }
		normalPerVertex TRUE
		solid TRUE
	}
	appearance Appearance {
		material Material {
			diffuseColor 0.8000 0.8000 0.8000
			transparency 0.0000
			shininess 0.5000
		}
	}
}

Shape # Material: Default
{
	geometry IndexedFaceSet {
		coord Coordinate { point [
			2.879672 0.320000 -0.467174,
			2.879672 0.720000 -0.467174,
			1.711055 0.320000 -0.467174,
			1.711055 0.720000 -0.467174,
			2.879672 0.320000 -0.989702,
			2.879672 0.720000 -0.989702,
			1.711055 0.320000 -0.989702,
			1.711055 0.720000 -0.989702,
		] }
		coordIndex [
			1 2 0 -1,
			3 6 2 -1,
			7 4 6 -1,
			5 0 4 -1,
			6 0 2 -1,
			3 5 7 -1,
			1 3 2 -1,
			3 7 6 -1,
			7 5 4 -1,
			5 1 0 -1,
			6 4 0 -1,
			3 1 5 -1,
		]
		normal Normal { vector [
			0.189496 -0.947907 0.256054,
			0.189505 0.947906 0.256050,
			-0.189505 -0.947906 0.256050,
			-0.189496 0.947907 0.256053,
			0.189505 -0.947906 -0.256050,
			0.189496 0.947907 -0.256054,
			-0.189496 -0.947907 -0.256053,
			-0.189505 0.947906 -0.256050,
		] }
		normalPerVertex TRUE
		solid TRUE
	}
	appearance Appearance {
		material Material {
			diffuseColor 0.8000 0.8000 0.8000
			transparency 0.0000
			shininess 0.5000
		}
	}
}

Shape # Material: Default
{
	geometry IndexedFaceSet {
		coord Coordinate { point [
			2.879672 0.320000 -1.999147,
			2.879672 0.720000 -1.999147,
			1.711055 0.320000 -1.999147,
			1.711055 0.720000 -1.999147,
			2.879672 0.320000 -2.521675,
			2.879672 0.720000 -2.521675,
			1.711055 0.320000 -2.521675,
			1.711055 0.720000 -2.521675,
		] }
		coordIndex [
			1 2 0 -1,
			3 6 2 -1,
			7 4 6 -1,
			5 0 4 -1,
			6 0 2 -1,
			3 5 7 -1,
			1 3 2 -1,
			3 7 6 -1,
			7 5 4 -1,
			5 1 0 -1,
			6 4 0 -1,
			3 1 5 -1,
		]
		normal Normal { vector [
			0.189496 -0.947907 0.256054,
			0.189505 0.947906 0.256050,
			-0.189505 -0.947906 0.256050,
			-0.189496 0.947907 0.256053,
			0.189505 -0.947906 -0.256050,
			0.189496 0.947907 -0.256054,
			-0.189496 -0.947907 -0.256053,
			-0.189505 0.947906 -0.256050,
		] }
		normalPerVertex TRUE
		solid TRUE
	}
	appearance Appearance {
		material Material {
			diffuseColor 0.8000 0.8000 0.8000
			transparency 0.0000
			shininess 0.5000
		}
	}
}

Shape # Material: Default
{
	geometry IndexedFaceSet {
		coord Coordinate { point [
			0.918997 0.320000 -1.759579,
			0.918997 0.720000 -1.759579,
			-0.835930 0.320000 -1.759579,
			-0.835930 0.720000 -1.759579,
			0.918997 0.320000 -2.906245,
			0.918997 0.720000 -2.906245,
			-0.835930 0.320000 -2.906245,
			-0.835930 0.720000 -2.906245,
		] }
		coordIndex [
			1 2 0 -1,
			3 6 2 -1,
			7 4 6 -1,
			5 0 4 -1,
			6 0 2 -1,
			7 1 5 -1,
			1 3 2 -1,
			3 7 6 -1,
			7 5 4 -1,
			5 1 0 -1,
			6 4 0 -1,
			7 3 1 -1,
		]
		normal Normal { vector [
			0.189503 -0.947909 0.256040,
			0.189496 0.947907 0.256053,
			-0.189505 -0.947902 0.256065,
			-0.189512 0.947904 0.256052,
			0.189505 -0.947902 -0.256065,
			0.189512 0.947904 -0.256052,
			-0.189503 -0.947909 -0.256040,
			-0.189496 0.947907 -0.256053,
		] }
		normalPerVertex TRUE
		solid TRUE
	}
	appearance Appearance {
		material Material {
			diffuseColor 0.8000 0.8000 0.8000
			transparency 0.0000
			shininess 0.5000
		}
	}
}

