#VRML V2.0 utf8
# Exportiert mit Blender-WRL-Export (The Smart Assistant)

Shape # Material: Material
{
	geometry IndexedFaceSet {
		coord Coordinate { point [
			3.984327 -0.320000 2.984327,
			-4.054535 -0.320000 -4.449223,
			-4.054535 -0.320000 3.589640,
			3.984327 0.320000 2.984327,
			4.179418 -0.320000 3.003542,
			-4.054535 0.320000 3.589640,
			8.000000 0.320000 -4.000000,
			4.179418 0.320000 3.003542,
			-4.054520 -0.320000 3.389640,
			4.367011 -0.320000 3.060448,
			4.367011 0.320000 3.060448,
			-3.956990 -0.320000 3.599247,
			4.539897 -0.320000 3.152858,
			-3.956990 0.320000 3.599247,
			-4.054535 0.320000 -4.449223,
			4.539897 0.320000 3.152858,
			4.691434 -0.320000 3.277220,
			-3.956990 -0.320000 -4.439615,
			4.947560 -0.320000 -3.806788,
			-3.863194 -0.320000 3.627700,
			4.947560 0.320000 -3.806788,
			4.691434 0.320000 3.277220,
			4.890654 -0.320000 -3.619195,
			-3.863194 0.320000 3.627700,
			4.890654 0.320000 -3.619195,
			4.815797 -0.320000 3.428757,
			-4.054520 0.320000 3.389640,
			4.798244 -0.320000 -3.446308,
			4.815797 0.320000 3.428757,
			4.798244 0.320000 -3.446308,
			-3.776750 -0.320000 3.673905,
			4.673882 -0.320000 -3.294771,
			4.908206 -0.320000 3.601644,
			4.673882 0.320000 -3.294771,
			-3.956990 0.320000 -4.439615,
			4.522345 -0.320000 -3.170409,
			4.908206 0.320000 3.601644,
			4.522345 0.320000 -3.170409,
			-3.776750 0.320000 3.673905,
			4.349458 -0.320000 -3.077999,
			4.965112 -0.320000 3.789237,
			4.349458 0.320000 -3.077999,
			4.161865 -0.320000 -3.021093,
			-4.054520 -0.320000 -4.701880,
			4.161865 0.320000 -3.021093,
			4.965112 0.320000 3.789237,
			3.966775 -0.320000 -3.001878,
			-3.700982 -0.320000 3.736086,
			3.966775 0.320000 -3.001878,
			4.984327 -0.320000 3.984327,
			3.771684 -0.320000 -3.021093,
			4.984327 0.320000 3.984327,
			3.771684 0.320000 -3.021093,
			8.000000 -0.320000 -4.000000,
			3.584091 -0.320000 -3.077999,
			-3.863194 -0.320000 -4.411162,
			-3.700982 0.320000 3.736086,
			3.584091 0.320000 -3.077999,
			-3.917957 -0.320000 3.403090,
			3.411204 -0.320000 -3.170409,
			-3.638801 -0.320000 3.811855,
			3.411204 0.320000 -3.170409,
			-3.863194 0.320000 -4.411162,
			3.259668 -0.320000 -3.294771,
			3.259668 0.320000 -3.294771,
			-3.638801 0.320000 3.811855,
			3.135305 -0.320000 -3.446308,
			-3.776750 -0.320000 -4.364957,
			3.135305 0.320000 -3.446308,
			-3.592596 -0.320000 3.898298,
			-3.592596 0.320000 3.898298,
			3.042895 -0.320000 -3.619195,
			3.042895 0.320000 -3.619195,
			-3.917957 0.320000 3.403090,
			-3.564143 -0.320000 3.992095,
			2.985990 -0.320000 -3.806788,
			2.985990 0.320000 -3.806788,
			-3.776750 0.320000 -4.364957,
			-3.564143 0.320000 3.992095,
			-4.054520 0.320000 -4.701880,
			-3.554535 -0.320000 4.089640,
			-3.700982 -0.320000 -4.302776,
			-3.554535 0.320000 4.089640,
			8.000000 0.320000 4.000000,
			-3.564143 -0.320000 4.187185,
			-3.786642 -0.320000 3.442924,
			-3.564143 0.320000 4.187185,
			-3.700982 0.320000 -4.302776,
			-3.638801 -0.320000 -4.227007,
			-3.592596 -0.320000 4.280982,
			-3.592596 0.320000 4.280982,
			-3.917957 -0.320000 -4.688430,
			-3.786642 0.320000 3.442924,
			-3.638801 -0.320000 4.367425,
			-3.638801 0.320000 4.367425,
			-3.638801 0.320000 -4.227007,
			-3.592596 -0.320000 -4.140564,
			2.984327 -0.320000 3.984327,
			-3.700982 -0.320000 4.443193,
			2.984327 0.320000 3.984327,
			-3.700982 0.320000 4.443193,
			3.003542 -0.320000 3.789237,
			-3.917957 0.320000 -4.688430,
			3.003542 0.320000 3.789237,
			3.060448 -0.320000 3.601644,
			-3.665621 -0.320000 3.507612,
			-3.776750 -0.320000 4.505374,
			3.060448 0.320000 3.601644,
			3.152858 -0.320000 3.428757,
			-3.592596 0.320000 -4.140564,
			-3.776750 0.320000 4.505374,
			3.152858 0.320000 3.428757,
			3.277220 -0.320000 3.277220,
			8.000000 -0.320000 4.000000,
			-3.863194 -0.320000 4.551579,
			3.277220 0.320000 3.277220,
			-3.564143 -0.320000 -4.046768,
			3.428757 -0.320000 3.152858,
			-3.863194 0.320000 4.551579,
			3.428757 0.320000 3.152858,
			3.601644 -0.320000 3.060448,
			-3.665621 0.320000 3.507612,
			-3.956990 -0.320000 4.580032,
			3.601644 0.320000 3.060448,
			-3.956990 0.320000 4.580032,
			3.789237 -0.320000 3.003542,
			-3.564143 0.320000 -4.046768,
			3.789237 0.320000 3.003542,
			-8.000000 0.320000 -4.000000,
			-4.054535 -0.320000 4.589640,
			-4.054535 0.320000 4.589640,
			-3.554535 -0.320000 -3.949222,
			-3.554535 0.320000 -3.949222,
			-4.152081 -0.320000 4.580032,
			-3.559546 -0.320000 3.594666,
			-4.152081 0.320000 4.580032,
			-3.564143 -0.320000 -3.851677,
			-4.245877 -0.320000 4.551579,
			-3.786642 -0.320000 -4.648596,
			-4.245877 0.320000 4.551579,
			-3.564143 0.320000 -3.851677,
			-4.332321 -0.320000 4.505374,
			-4.332321 0.320000 4.505374,
			-3.559546 0.320000 3.594666,
			-3.786642 0.320000 -4.648596,
			-4.408089 -0.320000 4.443193,
			-3.592596 -0.320000 -3.757881,
			-4.408089 0.320000 4.443193,
			-4.470270 -0.320000 4.367425,
			-3.592596 0.320000 -3.757881,
			-4.470270 0.320000 4.367425,
			-3.472492 -0.320000 3.700741,
			-4.516475 -0.320000 4.280982,
			-8.000000 -0.320000 -4.000000,
			-4.516475 0.320000 4.280982,
			-3.638801 -0.320000 -3.671437,
			-3.638801 0.320000 -3.671437,
			-4.544928 -0.320000 4.187185,
			-3.472492 0.320000 3.700741,
			-4.544928 0.320000 4.187185,
			-8.000000 0.320000 4.000000,
			-4.554535 -0.320000 4.089640,
			-4.554535 0.320000 4.089640,
			-3.700982 -0.320000 -3.595669,
			-3.700982 0.320000 -3.595669,
			-4.544928 -0.320000 3.992095,
			-3.407804 -0.320000 3.821762,
			-4.544928 0.320000 3.992095,
			-4.516475 -0.320000 3.898298,
			-3.665621 -0.320000 -4.583909,
			-3.776750 -0.320000 -3.533488,
			-4.516475 0.320000 3.898298,
			-4.470270 -0.320000 3.811855,
			-3.776750 0.320000 -3.533488,
			-4.470270 0.320000 3.811855,
			-3.407804 0.320000 3.821762,
			-4.408089 -0.320000 3.736086,
			-3.665621 0.320000 -4.583909,
			-4.408089 0.320000 3.736086,
			-3.863194 -0.320000 -3.487283,
			-3.863194 0.320000 -3.487283,
			-4.332321 -0.320000 3.673905,
			-4.332321 0.320000 3.673905,
			-3.367970 -0.320000 3.953077,
			-4.245877 -0.320000 3.627700,
			-3.956990 -0.320000 -3.458830,
			-4.245877 0.320000 3.627700,
			-8.000000 -0.320000 4.000000,
			-4.152081 -0.320000 3.599247,
			-3.367970 0.320000 3.953077,
			-4.152081 0.320000 3.599247,
			-3.956990 0.320000 -3.458830,
			-4.054535 -0.320000 -3.449222,
			-3.354520 -0.320000 4.089640,
			-3.559546 -0.320000 -4.496855,
			-4.054535 0.320000 -3.449222,
			-3.559546 0.320000 -4.496855,
			-4.152081 -0.320000 -3.458830,
			-4.152081 0.320000 -3.458830,
			-3.354520 0.320000 4.089640,
			-4.245877 -0.320000 -3.487283,
			-3.367970 -0.320000 4.226203,
			-3.472492 -0.320000 -4.390779,
			-4.245877 0.320000 -3.487283,
			-3.367970 0.320000 4.226203,
			-4.332321 -0.320000 -3.533488,
			-4.332321 0.320000 -3.533488,
			-3.472492 0.320000 -4.390779,
			-4.408089 -0.320000 -3.595669,
			-3.407804 -0.320000 4.357519,
			-3.407804 -0.320000 -4.269759,
			-4.408089 0.320000 -3.595669,
			-4.470270 -0.320000 -3.671437,
			-3.407804 0.320000 4.357519,
			-4.470270 0.320000 -3.671437,
			-3.407804 0.320000 -4.269759,
			-4.516475 -0.320000 -3.757881,
			-3.367970 -0.320000 -4.138443,
			-4.516475 0.320000 -3.757881,
			-3.472492 -0.320000 4.478539,
			-3.367970 0.320000 -4.138443,
			-4.544928 -0.320000 -3.851677,
			-4.544928 0.320000 -3.851677,
			-3.472492 0.320000 4.478539,
			-3.354520 -0.320000 -4.001880,
			-4.554535 -0.320000 -3.949222,
			-4.554535 0.320000 -3.949222,
			-3.559546 -0.320000 4.584615,
			-4.544928 -0.320000 -4.046768,
			-3.354520 0.320000 -4.001880,
			-4.544928 0.320000 -4.046768,
			-3.559546 0.320000 4.584615,
			-4.516475 -0.320000 -4.140564,
			-3.665621 -0.320000 4.671669,
			-4.516475 0.320000 -4.140564,
			-3.367970 -0.320000 -3.865317,
			-3.367970 0.320000 -3.865317,
			-4.470270 -0.320000 -4.227007,
			-4.470270 0.320000 -4.227007,
			-3.665621 0.320000 4.671669,
			-4.408089 -0.320000 -4.302776,
			-3.407804 -0.320000 -3.734002,
			-4.408089 0.320000 -4.302776,
			-3.786642 -0.320000 4.736356,
			-4.332321 -0.320000 -4.364957,
			-3.407804 0.320000 -3.734002,
			-4.332321 0.320000 -4.364957,
			-3.786642 0.320000 4.736356,
			-3.472492 -0.320000 -3.612981,
			-4.245877 -0.320000 -4.411162,
			-4.245877 0.320000 -4.411162,
			-3.917957 -0.320000 4.776190,
			-3.472492 0.320000 -3.612981,
			-4.152081 -0.320000 -4.439615,
			-4.152081 0.320000 -4.439615,
			-3.917957 0.320000 4.776190,
			-3.559546 -0.320000 -3.506906,
			-4.054520 -0.320000 4.789640,
			-3.559546 0.320000 -3.506906,
			-4.054520 0.320000 4.789640,
			-3.665621 -0.320000 -3.419852,
			-4.191083 -0.320000 4.776190,
			-3.665621 0.320000 -3.419852,
			-4.191083 0.320000 4.776190,
			-3.786642 -0.320000 -3.355165,
			-4.322399 -0.320000 4.736356,
			-4.322399 0.320000 4.736356,
			-3.786642 0.320000 -3.355165,
			-3.917957 -0.320000 -3.315331,
			-4.443419 -0.320000 4.671669,
			-3.917957 0.320000 -3.315331,
			-4.443419 0.320000 4.671669,
			-4.054520 -0.320000 -3.301880,
			-4.549495 -0.320000 4.584615,
			-4.054520 0.320000 -3.301880,
			-4.549495 0.320000 4.584615,
			-4.191083 -0.320000 -3.315331,
			-4.636549 -0.320000 4.478539,
			-4.191083 0.320000 -3.315331,
			-4.636549 0.320000 4.478539,
			-4.322399 -0.320000 -3.355165,
			-4.701236 -0.320000 4.357519,
			-4.322399 0.320000 -3.355165,
			-4.701236 0.320000 4.357519,
			-4.443419 -0.320000 -3.419852,
			-4.741070 -0.320000 4.226203,
			-4.443419 0.320000 -3.419852,
			-4.741070 0.320000 4.226203,
			-4.754520 -0.320000 4.089640,
			-4.549495 -0.320000 -3.506906,
			-4.549495 0.320000 -3.506906,
			-4.754520 0.320000 4.089640,
			-4.636549 -0.320000 -3.612981,
			-4.741070 -0.320000 3.953077,
			-4.636549 0.320000 -3.612981,
			-4.741070 0.320000 3.953077,
			-4.701236 -0.320000 -3.734002,
			-4.701236 -0.320000 3.821762,
			-4.701236 0.320000 -3.734002,
			-4.701236 0.320000 3.821762,
			-4.741070 -0.320000 -3.865317,
			-4.636549 -0.320000 3.700741,
			-4.741070 0.320000 -3.865317,
			-4.636549 0.320000 3.700741,
			-4.549495 -0.320000 3.594666,
			-4.754520 -0.320000 -4.001880,
			-4.754520 0.320000 -4.001880,
			-4.549495 0.320000 3.594666,
			-4.443419 -0.320000 3.507612,
			-4.741070 -0.320000 -4.138443,
			-4.443419 0.320000 3.507612,
			-4.741070 0.320000 -4.138443,
			-4.701236 -0.320000 -4.269759,
			-4.322399 -0.320000 3.442924,
			-4.701236 0.320000 -4.269759,
			-4.322399 0.320000 3.442924,
			-4.636549 -0.320000 -4.390779,
			-4.191083 -0.320000 3.403090,
			-4.636549 0.320000 -4.390779,
			-4.191083 0.320000 3.403090,
			-4.549495 -0.320000 -4.496855,
			-4.549495 0.320000 -4.496855,
			-4.443419 -0.320000 -4.583909,
			-4.443419 0.320000 -4.583909,
			-4.322399 -0.320000 -4.648596,
			-4.322399 0.320000 -4.648596,
			-4.191083 -0.320000 -4.688430,
			-4.191083 0.320000 -4.688430,
			-4.754335 0.320000 -4.000000,
			-3.354705 0.320000 -4.000000,
			-4.754335 -0.320000 -4.000000,
			-3.354705 -0.320000 -4.000000,
			-4.745691 0.320000 4.000000,
			-3.363349 0.320000 4.000000,
			-3.363349 -0.320000 4.000000,
			-4.745691 -0.320000 4.000000,
			-3.559536 0.320000 -4.000000,
			-3.559536 -0.320000 -4.000000,
			-4.549534 0.320000 -4.000000,
			-4.549534 -0.320000 -4.000000,
			-3.563364 0.320000 4.000000,
			-3.563364 -0.320000 4.000000,
			-4.545707 0.320000 4.000000,
			-4.545707 -0.320000 4.000000,
			2.985871 -0.320000 4.000000,
			4.982784 -0.320000 4.000000,
			2.985871 0.320000 4.000000,
			4.982784 0.320000 4.000000,
			2.966960 -0.320000 -4.000000,
			4.966590 -0.320000 -4.000000,
			2.966960 0.320000 -4.000000,
			4.966590 0.320000 -4.000000,
		] }
		coordIndex [
			45 51 83 -1,
			13 73 5 -1,
			270 191 195 -1,
			187 332 160 -1,
			83 345 113 -1,
			333 344 346 -1,
			160 153 187 -1,
			297 293 187 -1,
			188 317 2 -1,
			276 197 192 -1,
			6 113 53 -1,
			329 348 331 -1,
			53 351 6 -1,
			128 330 153 -1,
			79 91 43 -1,
			102 138 91 -1,
			144 169 138 -1,
			177 194 169 -1,
			196 202 194 -1,
			207 210 202 -1,
			215 217 210 -1,
			220 224 217 -1,
			224 329 331 -1,
			306 330 328 -1,
			306 309 305 -1,
			311 312 309 -1,
			314 316 312 -1,
			318 320 316 -1,
			321 322 320 -1,
			323 324 322 -1,
			321 246 250 -1,
			325 326 324 -1,
			327 43 326 -1,
			194 67 55 -1,
			193 333 199 -1,
			199 201 193 -1,
			204 209 201 -1,
			213 219 209 -1,
			223 227 219 -1,
			231 233 227 -1,
			239 243 233 -1,
			247 251 243 -1,
			255 257 251 -1,
			259 261 257 -1,
			263 265 261 -1,
			266 269 265 -1,
			271 273 269 -1,
			275 277 273 -1,
			279 281 277 -1,
			283 285 281 -1,
			287 288 285 -1,
			291 335 288 -1,
			139 271 135 -1,
			114 233 122 -1,
			1 34 14 -1,
			17 62 34 -1,
			62 67 77 -1,
			77 81 87 -1,
			87 88 95 -1,
			95 96 109 -1,
			116 109 96 -1,
			337 336 116 -1,
			132 136 140 -1,
			140 146 149 -1,
			149 155 156 -1,
			163 156 155 -1,
			164 170 173 -1,
			173 179 180 -1,
			180 185 191 -1,
			191 192 195 -1,
			197 195 192 -1,
			198 200 203 -1,
			200 206 203 -1,
			211 205 208 -1,
			208 214 211 -1,
			212 218 214 -1,
			216 222 218 -1,
			226 221 225 -1,
			339 338 225 -1,
			234 228 232 -1,
			238 232 237 -1,
			237 242 238 -1,
			240 246 242 -1,
			244 250 246 -1,
			249 254 250 -1,
			1 254 253 -1,
			2 13 5 -1,
			11 23 13 -1,
			23 30 38 -1,
			38 47 56 -1,
			56 60 65 -1,
			69 65 60 -1,
			70 74 78 -1,
			341 340 74 -1,
			82 84 86 -1,
			86 89 90 -1,
			90 93 94 -1,
			94 98 100 -1,
			100 106 110 -1,
			110 114 118 -1,
			118 122 124 -1,
			124 129 130 -1,
			130 133 135 -1,
			135 137 139 -1,
			137 142 139 -1,
			141 147 142 -1,
			145 150 147 -1,
			148 154 150 -1,
			152 159 154 -1,
			162 157 161 -1,
			343 342 161 -1,
			165 171 167 -1,
			168 174 171 -1,
			178 172 176 -1,
			176 182 178 -1,
			181 186 182 -1,
			184 190 186 -1,
			2 190 188 -1,
			0 7 3 -1,
			4 10 7 -1,
			10 12 15 -1,
			15 16 21 -1,
			21 25 28 -1,
			28 32 36 -1,
			36 40 45 -1,
			45 49 51 -1,
			347 49 345 -1,
			97 346 344 -1,
			97 103 99 -1,
			101 107 103 -1,
			104 111 107 -1,
			108 115 111 -1,
			112 119 115 -1,
			117 123 119 -1,
			120 127 123 -1,
			0 127 125 -1,
			20 349 18 -1,
			20 22 24 -1,
			24 27 29 -1,
			29 31 33 -1,
			33 35 37 -1,
			37 39 41 -1,
			41 42 44 -1,
			44 46 48 -1,
			48 50 52 -1,
			52 54 57 -1,
			54 61 57 -1,
			59 64 61 -1,
			63 68 64 -1,
			66 72 68 -1,
			71 76 72 -1,
			76 348 350 -1,
			302 328 128 -1,
			128 160 282 -1,
			160 332 295 -1,
			160 295 299 -1,
			298 302 128 -1,
			294 298 128 -1,
			160 299 303 -1,
			160 303 307 -1,
			290 294 128 -1,
			286 290 128 -1,
			160 307 310 -1,
			160 310 315 -1,
			282 286 128 -1,
			278 282 319 -1,
			319 282 315 -1,
			160 315 282 -1,
			278 319 26 -1,
			274 278 26 -1,
			274 26 73 -1,
			270 274 73 -1,
			270 73 123 -1,
			73 92 123 -1,
			270 57 267 -1,
			57 270 123 -1,
			267 57 61 -1,
			92 121 119 -1,
			262 267 61 -1,
			121 143 115 -1,
			258 262 64 -1,
			262 61 64 -1,
			143 158 111 -1,
			123 92 119 -1,
			252 258 68 -1,
			158 175 107 -1,
			245 252 72 -1,
			189 333 99 -1,
			333 346 99 -1,
			258 64 68 -1,
			175 189 103 -1,
			350 329 236 -1,
			236 245 76 -1,
			119 121 115 -1,
			72 252 68 -1,
			189 99 103 -1,
			350 236 76 -1,
			76 245 72 -1,
			103 107 175 -1,
			107 111 158 -1,
			111 115 143 -1,
			123 127 52 -1,
			52 57 123 -1,
			48 52 127 -1,
			48 127 3 -1,
			44 48 3 -1,
			44 3 7 -1,
			41 44 7 -1,
			41 7 10 -1,
			37 41 6 -1,
			41 10 6 -1,
			10 15 83 -1,
			6 10 83 -1,
			33 37 6 -1,
			15 21 83 -1,
			29 33 6 -1,
			21 28 83 -1,
			24 29 6 -1,
			28 36 83 -1,
			6 351 20 -1,
			20 24 6 -1,
			36 45 83 -1,
			51 347 83 -1,
			299 295 171 -1,
			295 332 167 -1,
			171 295 167 -1,
			332 342 167 -1,
			303 299 174 -1,
			310 307 186 -1,
			307 303 178 -1,
			319 315 190 -1,
			315 310 190 -1,
			190 310 186 -1,
			73 26 5 -1,
			26 319 5 -1,
			121 92 13 -1,
			92 73 13 -1,
			121 13 23 -1,
			158 143 56 -1,
			143 121 23 -1,
			56 143 38 -1,
			189 175 70 -1,
			175 158 65 -1,
			70 175 65 -1,
			340 333 78 -1,
			333 189 78 -1,
			307 178 182 -1,
			299 171 174 -1,
			78 189 70 -1,
			65 158 56 -1,
			307 182 186 -1,
			303 174 178 -1,
			38 143 23 -1,
			319 190 5 -1,
			236 329 132 -1,
			329 336 132 -1,
			252 245 156 -1,
			245 236 140 -1,
			262 258 173 -1,
			258 252 164 -1,
			270 267 191 -1,
			267 262 180 -1,
			278 274 195 -1,
			274 270 195 -1,
			286 282 203 -1,
			282 278 198 -1,
			294 290 211 -1,
			290 286 206 -1,
			211 290 206 -1,
			302 298 222 -1,
			298 294 214 -1,
			218 298 214 -1,
			338 328 226 -1,
			328 302 226 -1,
			298 218 222 -1,
			282 198 203 -1,
			267 180 191 -1,
			258 164 173 -1,
			245 140 149 -1,
			236 132 140 -1,
			222 226 302 -1,
			245 149 156 -1,
			214 294 211 -1,
			252 156 164 -1,
			262 173 180 -1,
			203 206 286 -1,
			195 198 278 -1,
			187 335 332 -1,
			83 347 345 -1,
			333 334 344 -1,
			160 128 153 -1,
			53 113 9 -1,
			113 345 49 -1,
			113 49 40 -1,
			18 349 53 -1,
			22 18 53 -1,
			113 40 32 -1,
			113 32 25 -1,
			27 22 53 -1,
			31 27 53 -1,
			113 25 16 -1,
			113 16 12 -1,
			35 31 53 -1,
			39 35 53 -1,
			113 12 9 -1,
			42 39 9 -1,
			39 53 9 -1,
			42 9 4 -1,
			46 42 0 -1,
			42 4 0 -1,
			50 46 125 -1,
			46 0 125 -1,
			54 50 120 -1,
			50 125 120 -1,
			59 54 264 -1,
			54 120 268 -1,
			260 63 59 -1,
			63 260 256 -1,
			120 117 85 -1,
			260 59 264 -1,
			63 256 66 -1,
			117 112 105 -1,
			66 256 248 -1,
			112 108 134 -1,
			71 66 248 -1,
			264 54 268 -1,
			108 104 151 -1,
			331 348 235 -1,
			348 75 235 -1,
			75 71 241 -1,
			71 248 241 -1,
			104 101 166 -1,
			268 120 58 -1,
			241 235 75 -1,
			101 97 183 -1,
			97 344 334 -1,
			97 334 183 -1,
			58 120 85 -1,
			183 166 101 -1,
			166 151 104 -1,
			85 117 105 -1,
			151 134 108 -1,
			134 105 112 -1,
			272 268 58 -1,
			276 272 8 -1,
			58 8 272 -1,
			280 276 317 -1,
			276 8 317 -1,
			284 280 153 -1,
			280 317 313 -1,
			280 313 187 -1,
			289 284 153 -1,
			280 187 153 -1,
			313 308 187 -1,
			292 289 153 -1,
			308 304 187 -1,
			296 292 153 -1,
			304 301 187 -1,
			153 330 300 -1,
			300 296 153 -1,
			301 297 187 -1,
			293 335 187 -1,
			166 183 69 -1,
			183 334 74 -1,
			69 183 74 -1,
			334 341 74 -1,
			151 166 60 -1,
			105 134 19 -1,
			134 151 47 -1,
			58 85 11 -1,
			85 105 11 -1,
			11 105 19 -1,
			317 8 2 -1,
			8 58 2 -1,
			308 313 188 -1,
			313 317 188 -1,
			308 188 184 -1,
			301 304 176 -1,
			304 308 184 -1,
			176 304 181 -1,
			293 297 168 -1,
			297 301 172 -1,
			168 297 172 -1,
			343 335 165 -1,
			335 293 165 -1,
			134 47 30 -1,
			166 69 60 -1,
			165 293 168 -1,
			172 301 176 -1,
			134 30 19 -1,
			151 60 47 -1,
			181 304 184 -1,
			58 11 2 -1,
			300 330 225 -1,
			330 339 225 -1,
			292 296 212 -1,
			296 300 221 -1,
			284 289 205 -1,
			289 292 208 -1,
			276 280 197 -1,
			280 284 200 -1,
			268 272 192 -1,
			272 276 192 -1,
			260 264 179 -1,
			264 268 185 -1,
			248 256 163 -1,
			256 260 170 -1,
			163 256 170 -1,
			235 241 136 -1,
			241 248 155 -1,
			146 241 155 -1,
			337 331 131 -1,
			331 235 131 -1,
			241 146 136 -1,
			264 185 179 -1,
			280 200 197 -1,
			289 208 205 -1,
			296 221 216 -1,
			300 225 221 -1,
			136 131 235 -1,
			296 216 212 -1,
			155 248 163 -1,
			292 212 208 -1,
			284 205 200 -1,
			179 170 260 -1,
			192 185 268 -1,
			6 83 113 -1,
			329 350 348 -1,
			53 349 351 -1,
			128 328 330 -1,
			79 102 91 -1,
			102 144 138 -1,
			144 177 169 -1,
			177 196 194 -1,
			196 207 202 -1,
			207 215 210 -1,
			215 220 217 -1,
			220 229 224 -1,
			224 229 329 -1,
			306 305 330 -1,
			306 311 309 -1,
			311 314 312 -1,
			314 318 316 -1,
			318 321 320 -1,
			321 323 322 -1,
			323 325 324 -1,
			306 328 338 -1,
			306 338 230 -1,
			314 311 234 -1,
			311 306 230 -1,
			314 234 238 -1,
			321 318 246 -1,
			318 314 242 -1,
			325 323 254 -1,
			323 321 250 -1,
			79 327 14 -1,
			327 325 14 -1,
			14 325 254 -1,
			144 102 14 -1,
			102 79 14 -1,
			144 14 34 -1,
			196 177 62 -1,
			177 144 34 -1,
			62 177 34 -1,
			215 207 87 -1,
			207 196 77 -1,
			87 207 77 -1,
			229 220 126 -1,
			220 215 109 -1,
			109 215 95 -1,
			336 329 229 -1,
			126 336 229 -1,
			323 250 254 -1,
			318 242 246 -1,
			242 314 238 -1,
			230 234 311 -1,
			215 87 95 -1,
			109 126 220 -1,
			77 196 62 -1,
			325 327 326 -1,
			327 79 43 -1,
			224 331 337 -1,
			224 337 116 -1,
			210 217 96 -1,
			217 224 116 -1,
			210 96 88 -1,
			194 202 67 -1,
			202 210 81 -1,
			138 169 17 -1,
			169 194 55 -1,
			43 91 1 -1,
			91 138 1 -1,
			1 138 17 -1,
			324 326 1 -1,
			326 43 1 -1,
			324 1 253 -1,
			320 322 249 -1,
			322 324 253 -1,
			249 322 253 -1,
			312 316 240 -1,
			316 320 244 -1,
			240 316 244 -1,
			305 309 228 -1,
			309 312 232 -1,
			232 312 237 -1,
			339 330 305 -1,
			228 339 305 -1,
			169 55 17 -1,
			202 81 67 -1,
			81 210 88 -1,
			116 96 217 -1,
			312 240 237 -1,
			232 228 309 -1,
			244 320 249 -1,
			193 334 333 -1,
			199 204 201 -1,
			204 213 209 -1,
			213 223 219 -1,
			223 231 227 -1,
			231 239 233 -1,
			239 247 243 -1,
			247 255 251 -1,
			255 259 257 -1,
			259 263 261 -1,
			263 266 265 -1,
			266 271 269 -1,
			271 275 273 -1,
			275 279 277 -1,
			279 283 281 -1,
			283 287 285 -1,
			287 291 288 -1,
			291 332 335 -1,
			199 333 82 -1,
			333 340 82 -1,
			213 204 90 -1,
			204 199 86 -1,
			90 204 86 -1,
			231 223 100 -1,
			223 213 94 -1,
			247 239 124 -1,
			239 231 118 -1,
			118 231 110 -1,
			259 255 130 -1,
			255 247 124 -1,
			266 263 135 -1,
			263 259 130 -1,
			135 263 130 -1,
			275 271 139 -1,
			271 266 135 -1,
			275 139 142 -1,
			283 279 150 -1,
			279 275 147 -1,
			150 279 147 -1,
			291 287 159 -1,
			287 283 154 -1,
			159 287 154 -1,
			342 332 162 -1,
			332 291 162 -1,
			255 124 130 -1,
			223 94 100 -1,
			199 82 86 -1,
			162 291 159 -1,
			154 283 150 -1,
			213 90 94 -1,
			231 100 110 -1,
			142 147 275 -1,
			239 118 124 -1,
			285 288 157 -1,
			288 335 161 -1,
			157 288 161 -1,
			335 343 161 -1,
			281 285 152 -1,
			152 285 157 -1,
			273 277 145 -1,
			277 281 148 -1,
			265 269 133 -1,
			269 273 137 -1,
			137 273 141 -1,
			257 261 129 -1,
			261 265 133 -1,
			243 251 122 -1,
			251 257 129 -1,
			122 251 129 -1,
			227 233 114 -1,
			233 243 122 -1,
			227 114 106 -1,
			209 219 93 -1,
			219 227 98 -1,
			93 219 98 -1,
			193 201 84 -1,
			201 209 89 -1,
			84 201 89 -1,
			341 334 80 -1,
			334 193 80 -1,
			261 133 129 -1,
			277 148 145 -1,
			148 281 152 -1,
			80 193 84 -1,
			89 209 93 -1,
			269 137 133 -1,
			273 145 141 -1,
			106 98 227 -1,
			1 17 34 -1,
			17 55 62 -1,
			62 55 67 -1,
			77 67 81 -1,
			87 81 88 -1,
			95 88 96 -1,
			116 126 109 -1,
			337 131 132 -1,
			336 126 116 -1,
			337 132 336 -1,
			132 131 136 -1,
			140 136 146 -1,
			149 146 155 -1,
			163 164 156 -1,
			164 163 170 -1,
			173 170 179 -1,
			180 179 185 -1,
			191 185 192 -1,
			197 198 195 -1,
			198 197 200 -1,
			200 205 206 -1,
			211 206 205 -1,
			208 212 214 -1,
			212 216 218 -1,
			216 221 222 -1,
			226 222 221 -1,
			339 228 230 -1,
			338 226 225 -1,
			339 230 338 -1,
			234 230 228 -1,
			238 234 232 -1,
			237 240 242 -1,
			240 244 246 -1,
			244 249 250 -1,
			249 253 254 -1,
			1 14 254 -1,
			2 11 13 -1,
			11 19 23 -1,
			23 19 30 -1,
			38 30 47 -1,
			56 47 60 -1,
			69 70 65 -1,
			70 69 74 -1,
			341 80 82 -1,
			340 78 74 -1,
			341 82 340 -1,
			82 80 84 -1,
			86 84 89 -1,
			90 89 93 -1,
			94 93 98 -1,
			100 98 106 -1,
			110 106 114 -1,
			118 114 122 -1,
			124 122 129 -1,
			130 129 133 -1,
			135 133 137 -1,
			137 141 142 -1,
			141 145 147 -1,
			145 148 150 -1,
			148 152 154 -1,
			152 157 159 -1,
			162 159 157 -1,
			343 165 167 -1,
			342 162 161 -1,
			343 167 342 -1,
			165 168 171 -1,
			168 172 174 -1,
			178 174 172 -1,
			176 181 182 -1,
			181 184 186 -1,
			184 188 190 -1,
			2 5 190 -1,
			0 4 7 -1,
			4 9 10 -1,
			10 9 12 -1,
			15 12 16 -1,
			21 16 25 -1,
			28 25 32 -1,
			36 32 40 -1,
			45 40 49 -1,
			347 51 49 -1,
			97 99 346 -1,
			97 101 103 -1,
			101 104 107 -1,
			104 108 111 -1,
			108 112 115 -1,
			112 117 119 -1,
			117 120 123 -1,
			120 125 127 -1,
			0 3 127 -1,
			20 351 349 -1,
			20 18 22 -1,
			24 22 27 -1,
			29 27 31 -1,
			33 31 35 -1,
			37 35 39 -1,
			41 39 42 -1,
			44 42 46 -1,
			48 46 50 -1,
			52 50 54 -1,
			54 59 61 -1,
			59 63 64 -1,
			63 66 68 -1,
			66 71 72 -1,
			71 75 76 -1,
			76 75 348 -1,
		]
		normal Normal { vector [
			0.000000 -0.997570 0.069675,
			0.000000 -0.997570 0.069679,
			0.000000 -0.997570 0.069675,
			0.000000 0.997570 0.069675,
			-0.012780 -0.997743 0.065917,
			0.000000 0.997570 0.069675,
			0.039847 0.996023 -0.079689,
			-0.012780 0.997743 0.065917,
			0.000000 -1.000000 0.000000,
			-0.022938 -0.998139 0.056494,
			-0.022938 0.998139 0.056495,
			-0.012780 -0.997743 0.065918,
			-0.029702 -0.998540 0.045124,
			-0.012780 0.997743 0.065918,
			0.000000 0.997570 0.069679,
			-0.029702 0.998540 0.045124,
			-0.033841 -0.998841 0.034235,
			-0.012780 -0.997743 0.065918,
			-0.038478 -0.999230 -0.007711,
			-0.022937 -0.998140 0.056493,
			-0.038478 0.999230 -0.007711,
			-0.033841 0.998841 0.034235,
			-0.037735 -0.999164 -0.015758,
			-0.022937 0.998140 0.056493,
			-0.037735 0.999164 -0.015758,
			-0.036307 -0.999041 0.024489,
			0.000000 1.000000 -0.000000,
			-0.036307 -0.999041 -0.024489,
			-0.036307 0.999041 0.024489,
			-0.036307 0.999041 -0.024489,
			-0.029703 -0.998540 0.045126,
			-0.033841 -0.998841 -0.034235,
			-0.037735 -0.999164 0.015758,
			-0.033841 0.998841 -0.034235,
			-0.012780 0.997743 0.065918,
			-0.029702 -0.998540 -0.045124,
			-0.037735 0.999164 0.015758,
			-0.029702 0.998540 -0.045124,
			-0.029703 0.998540 0.045126,
			-0.022937 -0.998139 -0.056493,
			-0.038478 -0.999230 0.007711,
			-0.022937 0.998139 -0.056493,
			-0.012780 -0.997743 -0.065917,
			-0.000000 -0.996011 -0.089226,
			-0.012780 0.997743 -0.065917,
			-0.038478 0.999230 0.007711,
			-0.000000 -0.997570 -0.069675,
			-0.033841 -0.998841 0.034234,
			0.000000 0.997570 -0.069675,
			-0.038710 -0.999250 0.000000,
			0.012780 -0.997743 -0.065917,
			-0.038710 0.999251 0.000000,
			0.012780 0.997743 -0.065917,
			0.039844 -0.996023 -0.079687,
			0.022937 -0.998139 -0.056493,
			-0.022937 -0.998140 0.056493,
			-0.033841 0.998841 0.034234,
			0.022937 0.998140 -0.056493,
			0.000000 -1.000000 0.000000,
			0.029703 -0.998540 -0.045125,
			-0.036307 -0.999041 0.024489,
			0.029703 0.998540 -0.045125,
			-0.022937 0.998140 0.056493,
			0.033842 -0.998841 -0.034236,
			0.033842 0.998841 -0.034236,
			-0.036307 0.999041 0.024489,
			0.036307 -0.999041 -0.024489,
			-0.029702 -0.998540 0.045124,
			0.036307 0.999041 -0.024489,
			-0.037735 -0.999164 0.015758,
			-0.037735 0.999164 0.015758,
			0.037734 -0.999164 -0.015757,
			0.037734 0.999164 -0.015758,
			0.000000 1.000000 -0.000000,
			-0.038478 -0.999230 0.007711,
			0.038478 -0.999230 -0.007711,
			0.038479 0.999230 -0.007711,
			-0.029702 0.998540 0.045124,
			-0.038478 0.999230 0.007711,
			0.000000 0.996011 -0.089226,
			-0.038709 -0.999251 0.000000,
			-0.033841 -0.998841 0.034234,
			-0.038709 0.999251 -0.000000,
			0.039845 0.996023 0.079689,
			-0.038478 -0.999230 -0.007711,
			0.000000 -1.000000 0.000000,
			-0.038478 0.999230 -0.007711,
			-0.033841 0.998841 0.034234,
			-0.036307 -0.999041 0.024489,
			-0.037735 -0.999164 -0.015758,
			-0.037735 0.999164 -0.015758,
			0.015973 -0.996473 -0.082385,
			0.000000 1.000000 -0.000000,
			-0.036307 -0.999041 -0.024489,
			-0.036307 0.999041 -0.024489,
			-0.036307 0.999041 0.024489,
			-0.037734 -0.999164 0.015757,
			0.038710 -0.999251 0.000000,
			-0.033841 -0.998841 -0.034234,
			0.038710 0.999251 0.000000,
			-0.033841 0.998841 -0.034235,
			0.038478 -0.999230 0.007711,
			0.015973 0.996473 -0.082385,
			0.038478 0.999230 0.007711,
			0.037734 -0.999164 0.015758,
			0.000000 -1.000000 0.000000,
			-0.029703 -0.998540 -0.045126,
			0.037734 0.999164 0.015757,
			0.036307 -0.999041 0.024489,
			-0.037734 0.999164 0.015757,
			-0.029703 0.998540 -0.045126,
			0.036307 0.999041 0.024489,
			0.033842 -0.998841 0.034236,
			0.039847 -0.996023 0.079690,
			-0.022937 -0.998140 -0.056493,
			0.033842 0.998841 0.034236,
			-0.038479 -0.999230 0.007711,
			0.029703 -0.998540 0.045125,
			-0.022937 0.998140 -0.056493,
			0.029703 0.998540 0.045125,
			0.022937 -0.998139 0.056493,
			0.000000 1.000000 -0.000000,
			-0.012780 -0.997743 -0.065918,
			0.022937 0.998140 0.056493,
			-0.012780 0.997743 -0.065918,
			0.012780 -0.997743 0.065917,
			-0.038479 0.999230 0.007711,
			0.012780 0.997743 0.065918,
			-0.039844 0.996023 -0.079687,
			-0.000000 -0.997570 -0.069675,
			0.000000 0.997570 -0.069675,
			-0.038710 -0.999251 0.000000,
			-0.038710 0.999251 -0.000000,
			0.012780 -0.997743 -0.065918,
			0.000000 -1.000000 0.000000,
			0.012780 0.997743 -0.065918,
			-0.038478 -0.999230 -0.007711,
			0.022937 -0.998140 -0.056493,
			0.027289 -0.997365 -0.067212,
			0.022937 0.998140 -0.056493,
			-0.038478 0.999230 -0.007711,
			0.029703 -0.998540 -0.045125,
			0.029703 0.998540 -0.045126,
			0.000000 1.000000 -0.000000,
			0.027289 0.997365 -0.067213,
			0.033841 -0.998841 -0.034234,
			-0.037735 -0.999164 -0.015758,
			0.033841 0.998841 -0.034234,
			0.036307 -0.999041 -0.024489,
			-0.037735 0.999164 -0.015758,
			0.036307 0.999041 -0.024489,
			0.000000 -1.000000 0.000000,
			0.037735 -0.999164 -0.015758,
			-0.039847 -0.996023 -0.079689,
			0.037735 0.999164 -0.015758,
			-0.036306 -0.999041 -0.024489,
			-0.036306 0.999041 -0.024489,
			0.038478 -0.999230 -0.007711,
			0.000000 1.000000 -0.000000,
			0.038478 0.999230 -0.007711,
			-0.039847 0.996023 0.079688,
			0.038709 -0.999251 0.000000,
			0.038709 0.999251 -0.000000,
			-0.033842 -0.998841 -0.034236,
			-0.033842 0.998841 -0.034236,
			0.038478 -0.999230 0.007711,
			0.000000 -1.000000 0.000000,
			0.038478 0.999230 0.007711,
			0.037735 -0.999164 0.015758,
			0.033833 -0.998105 -0.051399,
			-0.029703 -0.998540 -0.045125,
			0.037735 0.999164 0.015758,
			0.036307 -0.999041 0.024489,
			-0.029703 0.998540 -0.045125,
			0.036307 0.999041 0.024489,
			0.000000 1.000000 -0.000000,
			0.033841 -0.998841 0.034234,
			0.033833 0.998105 -0.051399,
			0.033841 0.998841 0.034234,
			-0.022937 -0.998140 -0.056492,
			-0.022937 0.998140 -0.056492,
			0.029703 -0.998540 0.045126,
			0.029703 0.998540 0.045125,
			0.000000 -1.000000 0.000000,
			0.022937 -0.998140 0.056493,
			-0.012780 -0.997743 -0.065916,
			0.022937 0.998140 0.056493,
			-0.039844 -0.996023 0.079687,
			0.012780 -0.997743 0.065918,
			0.000000 1.000000 -0.000000,
			0.012780 0.997743 0.065918,
			-0.012780 0.997743 -0.065916,
			-0.000000 -0.997570 -0.069676,
			0.041207 -0.999151 0.000000,
			0.037412 -0.998583 -0.037847,
			0.000000 0.997570 -0.069676,
			0.037412 0.998583 -0.037847,
			0.012780 -0.997743 -0.065916,
			0.012780 0.997743 -0.065916,
			0.041207 0.999151 -0.000000,
			0.022937 -0.998140 -0.056492,
			0.041038 -0.999124 0.008224,
			0.039391 -0.998871 -0.026569,
			0.022937 0.998140 -0.056492,
			0.041038 0.999124 0.008224,
			0.029703 -0.998540 -0.045125,
			0.029703 0.998540 -0.045125,
			0.039391 0.998871 -0.026569,
			0.033842 -0.998841 -0.034236,
			0.040484 -0.999037 0.016906,
			0.040483 -0.999037 -0.016905,
			0.033842 0.998841 -0.034236,
			0.036306 -0.999041 -0.024489,
			0.040484 0.999037 0.016906,
			0.036306 0.999041 -0.024489,
			0.040483 0.999037 -0.016905,
			0.037735 -0.999164 -0.015758,
			0.041037 -0.999124 -0.008224,
			0.037735 0.999164 -0.015758,
			0.039389 -0.998871 0.026568,
			0.041037 0.999124 -0.008224,
			0.038478 -0.999230 -0.007711,
			0.038478 0.999230 -0.007711,
			0.039389 0.998871 0.026568,
			0.041206 -0.999151 0.000000,
			0.038710 -0.999250 0.000000,
			0.038710 0.999250 -0.000000,
			0.037412 -0.998583 0.037847,
			0.038479 -0.999230 0.007711,
			0.041209 0.999151 0.000001,
			0.038479 0.999230 0.007711,
			0.037412 0.998583 0.037847,
			0.037734 -0.999164 0.015757,
			0.033833 -0.998105 0.051399,
			0.037734 0.999164 0.015757,
			0.000000 -1.000000 0.000000,
			0.000000 1.000000 -0.000000,
			0.036307 -0.999041 0.024489,
			0.036307 0.999041 0.024489,
			0.033833 0.998105 0.051399,
			0.033841 -0.998841 0.034234,
			0.000000 -1.000000 0.000000,
			0.033841 0.998841 0.034234,
			0.027290 -0.997365 0.067213,
			0.029702 -0.998540 0.045124,
			0.000000 1.000000 -0.000000,
			0.029702 0.998540 0.045124,
			0.027290 0.997365 0.067213,
			0.000000 -1.000000 0.000000,
			0.022937 -0.998140 0.056493,
			0.022937 0.998140 0.056493,
			0.015973 -0.996472 0.082387,
			0.000000 1.000000 -0.000000,
			0.012780 -0.997743 0.065918,
			0.012780 0.997743 0.065919,
			0.015973 0.996472 0.082387,
			0.000000 -1.000000 0.000000,
			0.000000 -0.996011 0.089226,
			0.000000 1.000000 -0.000000,
			-0.000000 0.996011 0.089226,
			0.000000 -1.000000 0.000000,
			-0.015973 -0.996472 0.082387,
			0.000000 1.000000 -0.000000,
			-0.015973 0.996472 0.082387,
			0.000000 -1.000000 0.000000,
			-0.027290 -0.997365 0.067213,
			-0.027290 0.997365 0.067213,
			0.000000 1.000000 -0.000000,
			0.000000 -1.000000 0.000000,
			-0.033833 -0.998105 0.051399,
			0.000000 1.000000 -0.000000,
			-0.033833 0.998105 0.051399,
			0.000000 -1.000000 0.000000,
			-0.037412 -0.998583 0.037847,
			0.000000 1.000000 -0.000000,
			-0.037412 0.998583 0.037847,
			0.000000 -1.000000 0.000000,
			-0.039389 -0.998871 0.026568,
			0.000000 1.000000 -0.000000,
			-0.039389 0.998871 0.026568,
			0.000000 -1.000000 0.000000,
			-0.040484 -0.999037 0.016906,
			0.000000 1.000000 -0.000000,
			-0.040484 0.999037 0.016906,
			0.000000 -1.000000 0.000000,
			-0.041038 -0.999124 0.008224,
			0.000000 1.000000 -0.000000,
			-0.041038 0.999124 0.008224,
			-0.041207 -0.999151 0.000000,
			0.000000 -1.000000 0.000000,
			0.000000 1.000000 -0.000000,
			-0.041207 0.999151 -0.000000,
			0.000000 -1.000000 0.000000,
			0.000000 -1.000000 0.000000,
			0.000000 1.000000 -0.000000,
			0.000000 1.000000 -0.000000,
			0.000000 -1.000000 0.000000,
			0.000000 -1.000000 0.000000,
			0.000000 1.000000 -0.000000,
			0.000000 1.000000 -0.000000,
			0.000000 -1.000000 0.000000,
			0.000000 -1.000000 0.000000,
			0.000000 1.000000 -0.000000,
			0.000000 1.000000 -0.000000,
			0.000000 -1.000000 0.000000,
			-0.041208 -0.999151 -0.000002,
			-0.041205 0.999151 -0.000002,
			0.000000 1.000000 -0.000000,
			0.000000 -1.000000 0.000000,
			-0.041037 -0.999124 -0.008224,
			0.000000 1.000000 -0.000000,
			-0.041037 0.999124 -0.008224,
			-0.040483 -0.999037 -0.016905,
			0.000000 -1.000000 0.000000,
			-0.040483 0.999037 -0.016905,
			0.000000 1.000000 -0.000000,
			-0.039391 -0.998871 -0.026569,
			0.000000 -1.000000 0.000000,
			-0.039391 0.998871 -0.026569,
			0.000000 1.000000 -0.000000,
			-0.037412 -0.998583 -0.037847,
			-0.037412 0.998583 -0.037847,
			-0.033833 -0.998105 -0.051399,
			-0.033833 0.998105 -0.051399,
			-0.027289 -0.997365 -0.067212,
			-0.027289 0.997365 -0.067212,
			-0.015973 -0.996473 -0.082385,
			-0.015973 0.996473 -0.082385,
			-0.013175 0.999599 -0.025085,
			0.013173 0.999599 -0.025082,
			-0.013173 -0.999599 -0.025084,
			0.013175 -0.999599 -0.025083,
			-0.013174 0.999599 0.025082,
			0.013174 0.999599 0.025081,
			0.013174 -0.999599 0.025083,
			-0.013174 -0.999599 0.025083,
			-0.039919 0.999195 0.003932,
			-0.039919 -0.999195 0.003932,
			0.039919 0.999195 0.003932,
			0.039919 -0.999195 0.003932,
			-0.039919 0.999195 0.003932,
			-0.039920 -0.999195 0.003932,
			0.039920 0.999195 0.003932,
			0.039919 -0.999195 0.003932,
			0.041081 -0.996090 0.078212,
			-0.041081 -0.996090 0.078214,
			0.041081 0.996090 0.078216,
			-0.041081 0.996090 0.078216,
			0.038583 -0.995963 -0.081054,
			-0.038583 -0.995962 -0.081059,
			0.038582 0.995962 -0.081058,
			-0.038583 0.995962 -0.081057,
		] }
		normalPerVertex TRUE
		solid TRUE
	}
	appearance Appearance {
		material Material {
			diffuseColor 0.1157 0.0257 0.8002
			transparency 0.0000
			shininess 0.5000
		}
	}
}

Shape # Material: Material.001
{
	geometry IndexedFaceSet {
		coord Coordinate { point [
			0.843274 0.320000 -1.219065,
			0.843274 0.720000 -1.219065,
			0.843274 0.320000 -1.731035,
			0.843274 0.720000 -1.731035,
			1.998785 0.320000 -1.219065,
			1.998785 0.720000 -1.219065,
			1.998785 0.320000 -1.731035,
			1.998785 0.720000 -1.731035,
		] }
		coordIndex [
			1 2 0 -1,
			3 6 2 -1,
			7 4 6 -1,
			5 0 4 -1,
			6 0 2 -1,
			3 5 7 -1,
			1 3 2 -1,
			3 7 6 -1,
			7 5 4 -1,
			5 1 0 -1,
			6 4 0 -1,
			3 1 5 -1,
		]
		normal Normal { vector [
			-0.577369 -0.577343 0.577339,
			-0.577365 0.577343 0.577343,
			-0.577365 -0.577343 -0.577343,
			-0.577369 0.577343 -0.577339,
			0.577365 -0.577343 0.577343,
			0.577369 0.577344 0.577338,
			0.577369 -0.577344 -0.577338,
			0.577365 0.577343 -0.577343,
		] }
		normalPerVertex TRUE
		solid TRUE
	}
	appearance Appearance {
		material Material {
			diffuseColor 0.0573 0.0627 0.0659
			transparency 0.0000
			shininess 0.6000
		}
	}
}

Shape # Material: mat0
{
	geometry IndexedFaceSet {
		coord Coordinate { point [
			-5.312340 0.513040 -0.803760,
			-6.560100 1.056324 1.256324,
			-6.917620 0.320001 -0.803760,
			-6.560100 1.056324 1.143676,
			-5.312340 0.320000 -0.803760,
			-6.560100 0.943677 1.256324,
			-6.917620 0.513041 -0.803760,
			-6.560100 0.943677 1.143676,
			-6.917620 0.513041 0.803760,
			-6.440100 0.900001 1.300000,
			-5.312340 0.513041 0.803760,
			-6.440100 1.100001 1.300000,
			-5.312340 0.320001 0.803760,
			-6.440100 1.100001 1.100000,
			-6.917620 0.320001 0.803760,
			-6.440100 0.900001 1.100000,
			-6.917620 0.513041 -1.779120,
			-6.917620 0.320001 -1.972160,
			-6.917620 0.777201 -1.779120,
			-6.917620 0.777201 -1.972160,
			-5.312340 0.513040 -1.779120,
			-6.560100 1.056324 0.456323,
			-6.308020 0.513041 -1.743560,
			-6.560100 1.056324 0.343676,
			-5.312340 0.513040 -1.743560,
			-6.560100 0.943677 0.456323,
			-5.312340 0.513040 -1.530200,
			-6.560100 0.943677 0.343676,
			-6.308020 0.513041 -1.530200,
			-6.440100 0.900001 0.500000,
			-6.308020 0.513041 1.530200,
			-6.440100 1.100001 0.500000,
			-5.312340 0.513041 1.530200,
			-6.440100 1.100001 0.300000,
			-5.312340 0.513041 1.743560,
			-6.440100 0.900001 0.300000,
			-6.308020 0.513041 1.743560,
			-5.312340 0.513041 1.779120,
			-6.917620 0.513041 1.779120,
			-6.308020 0.320001 -1.530200,
			-6.560100 1.056324 -0.343677,
			-6.308020 0.320001 -1.743560,
			-6.560100 1.056324 -0.456324,
			-4.560500 0.320000 -1.972160,
			-4.784019 0.320000 -1.530200,
			-6.560100 0.943677 -0.343677,
			-4.784019 0.320000 -0.869800,
			-6.560100 0.943677 -0.456324,
			-6.440100 0.900001 -0.300000,
			-4.784019 0.320000 -0.730200,
			-4.560500 0.320000 -0.730200,
			-6.440100 1.100001 -0.300000,
			-4.560500 0.320000 -0.869800,
			-6.440100 1.100001 -0.500000,
			-4.784020 0.320000 -0.069800,
			-6.440100 0.900001 -0.500000,
			-6.308020 0.320001 1.530200,
			-6.917620 0.320001 1.972160,
			-4.784020 0.320000 0.069800,
			-6.308020 0.320001 1.743560,
			-4.560500 0.320000 0.069800,
			-6.560100 1.056324 -1.143677,
			-6.560100 1.056324 -1.256324,
			-4.560500 0.320000 -0.069800,
			-4.784020 0.320001 0.730200,
			-6.560100 0.943677 -1.143677,
			-4.784020 0.320001 0.869800,
			-6.560100 0.943677 -1.256324,
			-4.560500 0.320000 0.730200,
			-6.440100 0.900001 -1.300000,
			-4.560500 0.320000 0.869800,
			-6.440100 0.900001 -1.100000,
			-6.440100 1.100001 -1.100000,
			-4.784020 0.320001 1.530200,
			-4.560500 0.320000 -1.743560,
			-6.440100 1.100001 -1.300000,
			-4.560500 0.320001 1.743560,
			-4.560500 0.320001 1.972160,
			-6.917620 0.777201 1.972160,
			-6.917620 0.777201 1.779120,
			-3.341300 0.944376 -1.255625,
			-6.043860 0.777201 1.972160,
			-3.341300 1.055625 -1.144375,
			-6.917620 2.189441 1.972160,
			-3.341300 0.944376 -1.144375,
			-6.917620 1.285201 1.972160,
			-3.341300 1.055625 -1.255625,
			-6.043860 1.285201 1.972160,
			-3.463220 1.100000 -1.300000,
			-4.560500 2.189440 1.972160,
			-3.463220 1.100000 -1.100000,
			-6.043860 0.777201 1.779120,
			-6.917620 1.996401 1.779120,
			-3.463220 0.900000 -1.300000,
			-6.043860 1.285201 1.779120,
			-3.463220 0.900000 -1.100000,
			-6.917620 1.285201 1.779120,
			-5.312340 1.996401 1.779120,
			-4.560500 0.513040 -1.743560,
			-4.560500 0.900000 -1.530200,
			-4.560500 0.513040 -1.530200,
			-3.341300 0.944376 -0.455625,
			-4.560500 1.100000 -1.530200,
			-3.341300 1.055625 -0.344375,
			-4.560500 1.100000 -1.300000,
			-3.341300 0.944376 -0.344375,
			-4.560500 0.900000 -1.300000,
			-3.341300 1.055625 -0.455625,
			-4.560500 2.189440 -1.972160,
			-3.463220 0.900000 -0.500000,
			-3.463220 1.100000 -0.500000,
			-4.560500 2.189440 -1.530200,
			-3.463220 0.900000 -0.300000,
			-4.784019 2.189440 1.530200,
			-3.463220 1.100000 -0.300000,
			-4.560500 2.189440 1.530200,
			-4.560500 1.100001 1.530200,
			-4.560500 2.189440 0.869800,
			-4.784019 2.189440 0.869800,
			-4.560500 1.100001 0.869800,
			-3.341300 0.944376 0.344375,
			-4.560500 0.900001 0.730200,
			-3.341300 1.055625 0.455625,
			-4.560500 0.900001 0.869800,
			-4.560500 1.100001 1.100000,
			-3.341300 0.944376 0.455625,
			-3.341300 1.055625 0.344375,
			-4.560500 0.900001 1.100000,
			-3.463220 0.900000 0.300000,
			-4.560500 1.100001 0.730200,
			-3.463220 1.100000 0.300000,
			-4.560500 1.100001 0.500000,
			-3.463220 0.900000 0.500000,
			-4.560500 0.900001 0.500000,
			-3.463220 1.100000 0.500000,
			-4.560500 2.189440 0.730200,
			-4.560500 0.513041 1.743560,
			-4.560500 0.900001 1.530200,
			-4.560500 0.513041 1.530200,
			-4.560500 1.100001 1.300000,
			-3.341300 0.944376 1.144375,
			-4.560500 0.900001 1.300000,
			-3.341300 1.055625 1.255625,
			-4.784019 2.189440 -1.530200,
			-4.784019 2.189440 -0.730200,
			-3.341300 0.944376 1.255625,
			-4.560500 2.189440 -0.730200,
			-3.341300 1.055625 1.144375,
			-4.560500 2.189440 -0.869800,
			-3.463220 0.900000 1.100000,
			-4.784019 2.189440 -0.869800,
			-3.463220 1.100001 1.100000,
			-4.784019 2.189440 -0.069800,
			-3.463220 0.900000 1.300000,
			-4.560500 2.189440 0.069800,
			-3.463220 1.100001 1.300000,
			-4.560500 2.189440 -0.069800,
			-4.784019 2.189440 0.069800,
			-6.917620 2.189440 -1.972160,
			-4.784019 2.189440 0.730200,
			-4.560500 1.100001 0.069800,
			-4.560500 0.900000 -0.069800,
			-4.560500 0.900000 0.069800,
			-4.560500 1.100001 0.300000,
			-4.560500 0.900001 0.300000,
			-4.560500 1.100001 -0.069800,
			-4.560500 1.100001 -0.300000,
			-4.560500 0.900000 -0.300000,
			-4.560500 1.100001 -0.730200,
			-4.560500 0.900000 -0.869800,
			-4.560500 0.900000 -0.730200,
			-4.560500 1.100001 -0.500000,
			-4.560500 0.900000 -0.500000,
			-4.560500 1.100000 -0.869800,
			-4.560500 1.100000 -1.100000,
			-4.560500 0.900000 -1.100000,
			-6.043859 0.777201 -1.972160,
			-6.043859 1.285200 -1.972160,
			-6.917620 1.285201 -1.972160,
			-5.312340 1.996400 -1.779120,
			-6.043859 1.285200 -1.779120,
			-6.043859 0.777201 -1.779120,
			-6.917620 1.996401 -1.779120,
			-6.917620 1.285201 -1.779120,
			-5.312340 0.900001 1.300000,
			-5.312340 0.900001 1.100000,
			-5.312340 1.100001 1.300000,
			-5.312340 1.100001 1.100000,
			-5.312340 0.900001 0.500000,
			-5.312340 1.100001 0.500000,
			-5.312340 0.900001 0.300000,
			-5.312340 1.100001 0.300000,
			-5.312340 0.900001 -0.300000,
			-5.312340 1.100001 -0.300000,
			-5.312340 0.900001 -0.500000,
			-5.312340 1.100001 -0.500000,
			-5.312340 0.900001 -1.100000,
			-5.312340 0.900000 -1.300000,
			-5.312340 1.100001 -1.100000,
			-5.312340 1.100001 -1.300000,
			-4.709626 0.513040 -1.530200,
			-4.709626 0.513041 1.530200,
		] }
		coordIndex [
			0 2 4 -1,
			0 6 2 -1,
			8 10 12 -1,
			8 12 14 -1,
			2 16 17 -1,
			6 16 2 -1,
			18 19 16 -1,
			16 19 17 -1,
			20 22 24 -1,
			26 28 0 -1,
			22 16 28 -1,
			28 6 0 -1,
			16 6 28 -1,
			20 16 22 -1,
			10 30 32 -1,
			8 30 10 -1,
			34 36 37 -1,
			30 38 36 -1,
			8 38 30 -1,
			38 37 36 -1,
			39 17 41 -1,
			2 17 39 -1,
			43 41 17 -1,
			4 39 44 -1,
			4 2 39 -1,
			46 4 44 -1,
			49 4 46 -1,
			50 46 52 -1,
			50 49 46 -1,
			54 4 49 -1,
			56 57 14 -1,
			58 4 54 -1,
			59 57 56 -1,
			12 4 58 -1,
			12 56 14 -1,
			60 54 63 -1,
			60 58 54 -1,
			64 12 58 -1,
			66 12 64 -1,
			68 66 64 -1,
			70 66 68 -1,
			73 56 12 -1,
			73 12 66 -1,
			74 41 43 -1,
			59 76 77 -1,
			77 57 59 -1,
			57 78 38 -1,
			78 79 38 -1,
			38 14 57 -1,
			38 8 14 -1,
			81 78 57 -1,
			83 85 87 -1,
			77 87 81 -1,
			77 81 57 -1,
			89 83 87 -1,
			89 87 77 -1,
			79 91 38 -1,
			91 37 38 -1,
			92 94 96 -1,
			91 94 37 -1,
			92 97 94 -1,
			94 97 37 -1,
			43 98 74 -1,
			99 100 98 -1,
			102 104 106 -1,
			102 106 99 -1,
			102 98 43 -1,
			102 99 98 -1,
			108 111 102 -1,
			108 102 43 -1,
			113 115 116 -1,
			117 118 119 -1,
			121 123 70 -1,
			121 70 68 -1,
			119 124 127 -1,
			119 127 123 -1,
			129 119 123 -1,
			129 123 121 -1,
			131 121 133 -1,
			131 129 121 -1,
			135 117 119 -1,
			135 119 129 -1,
			136 77 76 -1,
			137 136 138 -1,
			116 77 136 -1,
			116 136 137 -1,
			139 137 141 -1,
			139 116 137 -1,
			89 77 116 -1,
			115 89 116 -1,
			143 111 108 -1,
			144 146 148 -1,
			144 148 150 -1,
			152 154 156 -1,
			157 154 152 -1,
			158 152 144 -1,
			158 150 143 -1,
			158 143 108 -1,
			158 144 150 -1,
			158 157 152 -1,
			118 117 135 -1,
			118 135 159 -1,
			89 115 113 -1,
			83 113 118 -1,
			83 159 157 -1,
			83 157 158 -1,
			83 118 159 -1,
			83 89 113 -1,
			159 135 129 -1,
			154 157 160 -1,
			161 162 60 -1,
			161 60 63 -1,
			160 163 164 -1,
			160 164 162 -1,
			165 160 162 -1,
			165 162 161 -1,
			166 161 167 -1,
			166 165 161 -1,
			156 154 160 -1,
			156 160 165 -1,
			152 156 165 -1,
			146 144 168 -1,
			169 170 50 -1,
			169 50 52 -1,
			168 171 172 -1,
			168 172 170 -1,
			173 168 170 -1,
			173 170 169 -1,
			174 169 175 -1,
			174 173 169 -1,
			148 146 168 -1,
			148 168 173 -1,
			150 148 173 -1,
			111 143 102 -1,
			17 176 43 -1,
			177 108 43 -1,
			177 43 176 -1,
			19 176 17 -1,
			158 177 178 -1,
			158 108 177 -1,
			179 180 20 -1,
			20 180 181 -1,
			181 16 20 -1,
			181 18 16 -1,
			180 182 183 -1,
			179 182 180 -1,
			92 182 97 -1,
			97 182 179 -1,
			85 92 96 -1,
			85 83 92 -1,
			183 182 178 -1,
			182 158 178 -1,
			83 158 92 -1,
			92 158 182 -1,
			184 34 37 -1,
			184 32 34 -1,
			185 10 32 -1,
			184 185 32 -1,
			186 184 37 -1,
			187 186 97 -1,
			186 37 97 -1,
			188 10 185 -1,
			189 185 187 -1,
			189 188 185 -1,
			189 187 97 -1,
			190 12 10 -1,
			188 190 10 -1,
			191 189 97 -1,
			192 4 12 -1,
			190 192 12 -1,
			0 4 192 -1,
			193 190 191 -1,
			193 192 190 -1,
			194 0 192 -1,
			196 194 195 -1,
			196 0 194 -1,
			196 26 0 -1,
			197 26 196 -1,
			198 196 195 -1,
			24 26 197 -1,
			20 24 197 -1,
			20 197 199 -1,
			179 199 198 -1,
			179 195 193 -1,
			179 191 97 -1,
			179 193 191 -1,
			179 198 195 -1,
			179 20 199 -1,
			18 176 19 -1,
			18 181 176 -1,
			181 177 176 -1,
			181 180 177 -1,
			180 178 177 -1,
			180 183 178 -1,
			169 52 46 -1,
			99 200 100 -1,
			143 104 102 -1,
			174 150 173 -1,
			104 150 174 -1,
			143 150 104 -1,
			46 44 200 -1,
			99 106 200 -1,
			175 46 200 -1,
			106 175 200 -1,
			175 169 46 -1,
			161 63 54 -1,
			170 49 50 -1,
			144 171 168 -1,
			166 152 165 -1,
			171 152 166 -1,
			144 152 171 -1,
			170 172 49 -1,
			167 54 49 -1,
			172 167 49 -1,
			167 161 54 -1,
			121 68 64 -1,
			162 58 60 -1,
			157 163 160 -1,
			131 159 129 -1,
			163 159 131 -1,
			157 159 163 -1,
			162 164 58 -1,
			133 64 58 -1,
			164 133 58 -1,
			133 121 64 -1,
			137 138 201 -1,
			123 66 70 -1,
			118 124 119 -1,
			139 113 116 -1,
			124 113 139 -1,
			118 113 124 -1,
			123 127 66 -1,
			201 73 66 -1,
			127 201 66 -1,
			141 201 127 -1,
			141 137 201 -1,
			28 26 39 -1,
			26 44 39 -1,
			26 200 44 -1,
			200 26 24 -1,
			200 24 98 -1,
			100 200 98 -1,
			22 28 41 -1,
			41 28 39 -1,
			98 24 74 -1,
			24 41 74 -1,
			24 22 41 -1,
			201 34 32 -1,
			136 201 138 -1,
			136 34 201 -1,
			201 32 73 -1,
			32 56 73 -1,
			32 30 56 -1,
			36 34 59 -1,
			34 76 59 -1,
			34 136 76 -1,
			30 36 56 -1,
			56 36 59 -1,
			78 81 91 -1,
			78 91 79 -1,
			87 85 96 -1,
			87 96 94 -1,
			81 87 94 -1,
			81 94 91 -1,
			1 3 5 -1,
			5 3 7 -1,
			1 5 9 -1,
			11 1 9 -1,
			11 13 3 -1,
			1 11 3 -1,
			13 15 7 -1,
			3 13 7 -1,
			5 7 15 -1,
			9 5 15 -1,
			9 184 186 -1,
			9 186 11 -1,
			13 11 186 -1,
			13 186 187 -1,
			15 13 187 -1,
			15 187 185 -1,
			15 185 9 -1,
			185 184 9 -1,
			21 23 25 -1,
			25 23 27 -1,
			21 25 29 -1,
			31 21 29 -1,
			31 33 23 -1,
			21 31 23 -1,
			33 35 27 -1,
			23 33 27 -1,
			25 27 35 -1,
			29 25 35 -1,
			29 188 189 -1,
			29 189 31 -1,
			33 31 189 -1,
			33 189 191 -1,
			35 33 191 -1,
			35 191 190 -1,
			35 190 29 -1,
			190 188 29 -1,
			40 42 45 -1,
			45 42 47 -1,
			40 45 48 -1,
			51 40 48 -1,
			51 53 42 -1,
			40 51 42 -1,
			53 55 47 -1,
			42 53 47 -1,
			45 47 55 -1,
			48 45 55 -1,
			48 192 193 -1,
			48 193 51 -1,
			53 51 193 -1,
			53 193 195 -1,
			55 53 195 -1,
			55 195 194 -1,
			55 194 48 -1,
			194 192 48 -1,
			61 62 65 -1,
			65 62 67 -1,
			65 67 69 -1,
			71 65 69 -1,
			61 65 71 -1,
			72 61 71 -1,
			72 75 62 -1,
			61 72 62 -1,
			75 69 67 -1,
			62 75 67 -1,
			69 197 71 -1,
			197 196 71 -1,
			71 196 198 -1,
			71 198 72 -1,
			75 72 198 -1,
			75 198 199 -1,
			69 75 199 -1,
			69 199 197 -1,
			80 82 84 -1,
			86 82 80 -1,
			82 86 88 -1,
			90 82 88 -1,
			86 80 93 -1,
			88 86 93 -1,
			95 93 80 -1,
			84 95 80 -1,
			90 95 84 -1,
			82 90 84 -1,
			175 90 174 -1,
			175 95 90 -1,
			106 93 175 -1,
			93 95 175 -1,
			106 104 88 -1,
			106 88 93 -1,
			104 174 90 -1,
			104 90 88 -1,
			101 103 105 -1,
			107 103 101 -1,
			107 101 109 -1,
			110 107 109 -1,
			112 109 101 -1,
			105 112 101 -1,
			114 112 105 -1,
			103 114 105 -1,
			103 107 110 -1,
			114 103 110 -1,
			171 166 114 -1,
			171 114 110 -1,
			167 114 166 -1,
			167 112 114 -1,
			172 109 167 -1,
			109 112 167 -1,
			172 171 110 -1,
			172 110 109 -1,
			120 122 125 -1,
			126 122 120 -1,
			126 120 128 -1,
			130 126 128 -1,
			132 128 120 -1,
			125 132 120 -1,
			134 132 125 -1,
			122 134 125 -1,
			122 126 130 -1,
			134 122 130 -1,
			163 131 134 -1,
			163 134 130 -1,
			133 134 131 -1,
			133 132 134 -1,
			164 128 133 -1,
			128 132 133 -1,
			164 163 130 -1,
			164 130 128 -1,
			140 142 145 -1,
			147 142 140 -1,
			147 140 149 -1,
			151 147 149 -1,
			153 149 140 -1,
			145 153 140 -1,
			155 153 145 -1,
			142 155 145 -1,
			142 147 151 -1,
			155 142 151 -1,
			124 139 155 -1,
			124 155 151 -1,
			141 155 139 -1,
			141 153 155 -1,
			127 149 141 -1,
			149 153 141 -1,
			127 124 151 -1,
			127 151 149 -1,
		]
		normal Normal { vector [
			-0.904529 0.301522 0.301516,
			-0.750816 0.467058 0.467046,
			-0.577332 -0.577372 0.577348,
			-0.750826 0.467038 -0.467049,
			-0.301522 -0.904532 0.301507,
			-0.750826 -0.467038 0.467050,
			-0.577341 0.577368 0.577341,
			-0.750816 -0.467058 -0.467046,
			-0.577340 0.577367 -0.577344,
			-0.214250 -0.690676 0.690698,
			-0.904529 0.301523 -0.301514,
			-0.214248 0.690698 0.690676,
			-0.301506 -0.904537 -0.301508,
			-0.214249 0.690673 -0.690701,
			-0.577333 -0.577373 -0.577346,
			-0.214249 -0.690701 -0.690673,
			-0.904542 0.301497 0.301502,
			-0.577385 -0.577328 -0.577338,
			-0.577356 0.577339 0.577356,
			-0.577361 0.577345 -0.577345,
			-0.577357 0.577352 0.577341,
			-0.750816 0.467058 0.467046,
			0.301513 0.904533 0.301513,
			-0.750826 0.467038 -0.467050,
			-0.707114 0.000019 0.707099,
			-0.750826 -0.467038 0.467049,
			-0.707118 0.000000 -0.707096,
			-0.750816 -0.467058 -0.467046,
			0.301531 0.904526 -0.301515,
			-0.214250 -0.690676 0.690698,
			0.301517 0.904531 0.301516,
			-0.214248 0.690698 0.690676,
			-0.707118 0.000000 0.707096,
			-0.214249 0.690673 -0.690701,
			-0.707114 0.000019 -0.707099,
			-0.214249 -0.690701 -0.690673,
			0.301528 0.904529 -0.301511,
			-0.577357 0.577352 -0.577341,
			-0.904542 0.301497 -0.301502,
			0.301510 -0.904537 -0.301503,
			-0.750816 0.467058 0.467046,
			0.301525 -0.904532 0.301503,
			-0.750826 0.467038 -0.467050,
			0.577361 -0.577362 -0.577327,
			0.453030 -0.660109 -0.599182,
			-0.750826 -0.467038 0.467049,
			0.261375 -0.941098 -0.214517,
			-0.750816 -0.467058 -0.467046,
			-0.214250 -0.690676 0.690698,
			0.261373 -0.941098 0.214518,
			0.577336 -0.577358 0.577357,
			-0.214248 0.690698 0.690676,
			0.577350 -0.577350 -0.577350,
			-0.214249 0.690673 -0.690701,
			0.261371 -0.941099 -0.214518,
			-0.214249 -0.690701 -0.690673,
			0.301524 -0.904533 0.301502,
			-0.577385 -0.577328 0.577338,
			0.261369 -0.941100 0.214515,
			0.301511 -0.904537 -0.301504,
			0.577336 -0.577358 0.577357,
			-0.750816 0.467058 0.467046,
			-0.750826 0.467038 -0.467050,
			0.577350 -0.577350 -0.577350,
			0.261372 -0.941099 -0.214518,
			-0.750827 -0.467038 0.467049,
			0.261375 -0.941098 0.214518,
			-0.750816 -0.467058 -0.467046,
			0.577350 -0.577351 -0.577350,
			-0.214249 -0.690701 -0.690673,
			0.577336 -0.577357 0.577357,
			-0.214250 -0.690676 0.690698,
			-0.214248 0.690698 0.690676,
			0.453030 -0.660109 0.599182,
			0.577358 -0.577358 0.577335,
			-0.214249 0.690673 -0.690701,
			0.577358 -0.577358 -0.577335,
			0.577361 -0.577362 0.577328,
			-0.577367 0.577333 0.577350,
			-0.577350 0.577350 -0.577350,
			0.750826 -0.467038 -0.467049,
			-0.301498 0.301514 0.904538,
			0.750827 0.467038 0.467049,
			-0.577374 0.577304 0.577374,
			0.750816 -0.467058 0.467046,
			-0.577333 -0.577359 0.577359,
			0.750816 0.467057 -0.467046,
			-0.301512 -0.301502 0.904537,
			0.214249 0.690701 -0.690673,
			0.577337 0.577349 0.577365,
			0.214251 0.690676 0.690697,
			-0.301514 0.301505 -0.904535,
			-0.904528 -0.301514 -0.301528,
			0.214249 -0.690673 -0.690701,
			-0.301496 -0.301511 -0.904539,
			0.214249 -0.690698 0.690677,
			-0.577356 -0.577339 -0.577356,
			-0.577324 -0.577335 -0.577392,
			0.904531 -0.301519 0.301512,
			0.994101 -0.090890 0.059182,
			0.577350 -0.577350 0.577350,
			0.750826 -0.467038 -0.467049,
			0.998206 0.050413 0.032307,
			0.750826 0.467038 0.467049,
			0.864304 0.409475 -0.292076,
			0.750816 -0.467057 0.467046,
			0.821583 -0.492790 -0.286634,
			0.750816 0.467057 -0.467046,
			0.577337 0.577348 -0.577365,
			0.214249 -0.690673 -0.690701,
			0.214249 0.690701 -0.690673,
			0.577350 0.577350 0.577350,
			0.214248 -0.690698 0.690677,
			0.283181 0.925406 -0.251859,
			0.214250 0.690676 0.690697,
			0.577350 0.577350 -0.577350,
			0.998206 0.050414 -0.032308,
			0.577350 0.577350 0.577350,
			0.283193 0.925403 0.251856,
			0.998206 0.050412 0.032307,
			0.750826 -0.467038 -0.467049,
			0.994101 -0.090889 -0.059182,
			0.750826 0.467038 0.467049,
			0.994101 -0.090889 0.059182,
			0.864304 0.409475 -0.292076,
			0.750816 -0.467057 0.467046,
			0.750816 0.467057 -0.467046,
			0.821582 -0.492791 -0.286636,
			0.214249 -0.690673 -0.690701,
			0.998206 0.050412 -0.032307,
			0.214249 0.690701 -0.690673,
			0.864307 0.409473 0.292071,
			0.214248 -0.690698 0.690677,
			0.821580 -0.492793 0.286640,
			0.214250 0.690676 0.690697,
			0.577351 0.577351 -0.577349,
			0.904531 -0.301519 -0.301512,
			0.994101 -0.090889 -0.059181,
			0.577350 -0.577350 -0.577350,
			0.864307 0.409473 0.292071,
			0.750827 -0.467038 -0.467049,
			0.821580 -0.492792 0.286638,
			0.750826 0.467038 0.467049,
			0.283194 0.925402 0.251857,
			0.283193 0.925403 0.251856,
			0.750816 -0.467057 0.467046,
			0.577350 0.577350 0.577350,
			0.750817 0.467057 -0.467046,
			0.577351 0.577351 -0.577349,
			0.214250 -0.690673 -0.690701,
			0.283180 0.925406 -0.251858,
			0.214250 0.690701 -0.690673,
			0.283180 0.925406 -0.251858,
			0.214248 -0.690698 0.690677,
			0.577350 0.577351 0.577350,
			0.214250 0.690676 0.690697,
			0.577351 0.577350 -0.577350,
			0.283187 0.925406 0.251851,
			-0.577371 0.577304 -0.577376,
			0.283180 0.925406 -0.251858,
			0.998206 0.050412 0.032307,
			0.994101 -0.090889 -0.059182,
			0.994101 -0.090889 0.059182,
			0.864304 0.409475 -0.292076,
			0.821583 -0.492790 -0.286634,
			0.998206 0.050412 -0.032307,
			0.864307 0.409473 0.292071,
			0.821580 -0.492793 0.286640,
			0.998206 0.050412 0.032307,
			0.994101 -0.090889 -0.059182,
			0.994101 -0.090889 0.059182,
			0.864304 0.409475 -0.292076,
			0.821583 -0.492790 -0.286634,
			0.998206 0.050412 -0.032307,
			0.864307 0.409473 0.292071,
			0.821579 -0.492793 0.286640,
			-0.301513 0.301504 -0.904536,
			-0.301497 -0.301512 -0.904539,
			-0.577339 -0.577347 -0.577365,
			-0.577299 -0.577359 0.577392,
			-0.301511 -0.301501 0.904538,
			-0.301499 0.301514 0.904537,
			-0.904532 -0.301502 0.301528,
			-0.577350 -0.577350 0.577350,
			-0.904532 -0.301515 0.301515,
			-0.904536 -0.301506 -0.301510,
			-0.904540 0.301502 0.301502,
			-0.904535 0.301512 -0.301507,
			-0.904534 -0.301511 0.301511,
			-0.904534 0.301512 0.301512,
			-0.904531 -0.301514 -0.301518,
			-0.904534 0.301514 -0.301509,
			-0.904534 -0.301512 0.301512,
			-0.904534 0.301512 0.301512,
			-0.904535 -0.301507 -0.301512,
			-0.904532 0.301516 -0.301512,
			-0.904535 -0.301510 0.301510,
			-0.904533 -0.301511 -0.301515,
			-0.904536 0.301508 0.301508,
			-0.904539 0.301506 -0.301502,
			0.565853 -0.824506 0.000000,
			0.565853 -0.824506 0.000000,
		] }
		normalPerVertex TRUE
		solid TRUE
	}
	appearance Appearance {
		material Material {
			diffuseColor 1.0000 1.0000 1.0000
			transparency 0.0000
			shininess 0.7071
		}
	}
}

Shape # Material: Material.001
{
	geometry IndexedFaceSet {
		coord Coordinate { point [
			0.843274 0.320000 -0.567294,
			0.843274 0.720000 -0.567294,
			0.843274 0.320000 -1.079264,
			0.843274 0.720000 -1.079264,
			1.998785 0.320000 -0.567294,
			1.998785 0.720000 -0.567294,
			1.998785 0.320000 -1.079264,
			1.998785 0.720000 -1.079264,
		] }
		coordIndex [
			1 2 0 -1,
			3 6 2 -1,
			7 4 6 -1,
			5 0 4 -1,
			6 0 2 -1,
			3 5 7 -1,
			1 3 2 -1,
			3 7 6 -1,
			7 5 4 -1,
			5 1 0 -1,
			6 4 0 -1,
			3 1 5 -1,
		]
		normal Normal { vector [
			-0.577369 -0.577343 0.577339,
			-0.577365 0.577343 0.577343,
			-0.577365 -0.577343 -0.577343,
			-0.577369 0.577343 -0.577339,
			0.577365 -0.577343 0.577343,
			0.577369 0.577344 0.577338,
			0.577369 -0.577344 -0.577338,
			0.577365 0.577343 -0.577343,
		] }
		normalPerVertex TRUE
		solid TRUE
	}
	appearance Appearance {
		material Material {
			diffuseColor 0.0573 0.0627 0.0659
			transparency 0.0000
			shininess 0.6000
		}
	}
}

Shape # Material: Material.001
{
	geometry IndexedFaceSet {
		coord Coordinate { point [
			0.843274 0.320000 0.059083,
			0.843274 0.720000 0.059083,
			0.843274 0.320000 -0.452887,
			0.843274 0.720000 -0.452887,
			1.998785 0.320000 0.059083,
			1.998785 0.720000 0.059083,
			1.998785 0.320000 -0.452887,
			1.998785 0.720000 -0.452887,
		] }
		coordIndex [
			1 2 0 -1,
			3 6 2 -1,
			7 4 6 -1,
			5 0 4 -1,
			6 0 2 -1,
			3 5 7 -1,
			1 3 2 -1,
			3 7 6 -1,
			7 5 4 -1,
			5 1 0 -1,
			6 4 0 -1,
			3 1 5 -1,
		]
		normal Normal { vector [
			-0.577369 -0.577343 0.577339,
			-0.577365 0.577343 0.577343,
			-0.577365 -0.577343 -0.577343,
			-0.577369 0.577343 -0.577339,
			0.577365 -0.577343 0.577343,
			0.577369 0.577344 0.577338,
			0.577369 -0.577344 -0.577338,
			0.577365 0.577343 -0.577343,
		] }
		normalPerVertex TRUE
		solid TRUE
	}
	appearance Appearance {
		material Material {
			diffuseColor 0.0573 0.0627 0.0659
			transparency 0.0000
			shininess 0.6000
		}
	}
}

Shape # Material: Material.001
{
	geometry IndexedFaceSet {
		coord Coordinate { point [
			0.843274 0.320000 0.727784,
			0.843274 0.720000 0.727784,
			0.843274 0.320000 0.215813,
			0.843274 0.720000 0.215813,
			1.998785 0.320000 0.727784,
			1.998785 0.720000 0.727784,
			1.998785 0.320000 0.215813,
			1.998785 0.720000 0.215813,
		] }
		coordIndex [
			1 2 0 -1,
			3 6 2 -1,
			7 4 6 -1,
			5 0 4 -1,
			6 0 2 -1,
			3 5 7 -1,
			1 3 2 -1,
			3 7 6 -1,
			7 5 4 -1,
			5 1 0 -1,
			6 4 0 -1,
			3 1 5 -1,
		]
		normal Normal { vector [
			-0.577369 -0.577343 0.577339,
			-0.577365 0.577343 0.577343,
			-0.577365 -0.577343 -0.577343,
			-0.577369 0.577343 -0.577339,
			0.577365 -0.577343 0.577343,
			0.577369 0.577344 0.577338,
			0.577369 -0.577344 -0.577338,
			0.577365 0.577343 -0.577343,
		] }
		normalPerVertex TRUE
		solid TRUE
	}
	appearance Appearance {
		material Material {
			diffuseColor 0.0573 0.0627 0.0659
			transparency 0.0000
			shininess 0.6000
		}
	}
}

Shape # Material: Material.001
{
	geometry IndexedFaceSet {
		coord Coordinate { point [
			0.843274 0.320000 1.455735,
			0.843274 0.720000 1.455735,
			0.843274 0.320000 0.943765,
			0.843274 0.720000 0.943765,
			1.998785 0.320000 1.455735,
			1.998785 0.720000 1.455735,
			1.998785 0.320000 0.943765,
			1.998785 0.720000 0.943765,
		] }
		coordIndex [
			1 2 0 -1,
			3 6 2 -1,
			7 4 6 -1,
			5 0 4 -1,
			6 0 2 -1,
			3 5 7 -1,
			1 3 2 -1,
			3 7 6 -1,
			7 5 4 -1,
			5 1 0 -1,
			6 4 0 -1,
			3 1 5 -1,
		]
		normal Normal { vector [
			-0.577369 -0.577343 0.577339,
			-0.577365 0.577343 0.577343,
			-0.577365 -0.577343 -0.577343,
			-0.577369 0.577343 -0.577339,
			0.577365 -0.577343 0.577343,
			0.577369 0.577344 0.577338,
			0.577369 -0.577344 -0.577338,
			0.577365 0.577343 -0.577343,
		] }
		normalPerVertex TRUE
		solid TRUE
	}
	appearance Appearance {
		material Material {
			diffuseColor 0.0573 0.0627 0.0659
			transparency 0.0000
			shininess 0.6000
		}
	}
}

Shape # Material: Material.001
{
	geometry IndexedFaceSet {
		coord Coordinate { point [
			3.535003 0.320000 0.355343,
			3.535003 0.720000 0.355343,
			3.535003 0.320000 -0.681430,
			3.535003 0.720000 -0.681430,
			4.335003 0.320000 0.355343,
			4.335003 0.720000 0.355343,
			4.335003 0.320000 -0.681430,
			4.335003 0.720000 -0.681430,
		] }
		coordIndex [
			1 2 0 -1,
			3 6 2 -1,
			7 4 6 -1,
			5 0 4 -1,
			6 0 2 -1,
			3 5 7 -1,
			1 3 2 -1,
			3 7 6 -1,
			7 5 4 -1,
			5 1 0 -1,
			6 4 0 -1,
			3 1 5 -1,
		]
		normal Normal { vector [
			-0.577349 -0.577371 0.577331,
			-0.577330 0.577360 0.577360,
			-0.577330 -0.577360 -0.577360,
			-0.577349 0.577371 -0.577331,
			0.577330 -0.577360 0.577360,
			0.577349 0.577371 0.577331,
			0.577349 -0.577371 -0.577331,
			0.577330 0.577360 -0.577360,
		] }
		normalPerVertex TRUE
		solid TRUE
	}
	appearance Appearance {
		material Material {
			diffuseColor 0.0573 0.0627 0.0659
			transparency 0.0000
			shininess 0.6000
		}
	}
}

