#VRML V2.0 utf8
# Exportiert mit Blender-WRL-Export (The Smart Assistant)

Shape # Material: Platine
{
	geometry IndexedFaceSet {
		coord Coordinate { point [
			-8.000000 -0.320000 4.000000,
			-3.991575 -0.320000 -4.658892,
			-8.000000 0.320000 4.000000,
			-3.991575 0.320000 -4.658892,
			-8.000000 -0.320000 -4.000000,
			-3.855012 -0.320000 -4.645442,
			-8.000000 0.320000 -4.000000,
			-3.855012 0.320000 -4.645442,
			8.000000 -0.320000 4.000000,
			-3.723696 -0.320000 -4.605608,
			8.000000 0.320000 4.000000,
			-3.723696 0.320000 -4.605608,
			8.000000 -0.320000 -4.000000,
			-3.602676 -0.320000 -4.540921,
			8.000000 0.320000 -4.000000,
			-3.602676 0.320000 -4.540921,
			5.016391 0.320000 -4.000000,
			-3.496600 -0.320000 -4.453867,
			3.025604 0.320000 -4.000000,
			-3.496600 0.320000 -4.453867,
			-3.409546 -0.320000 -4.347791,
			3.025604 -0.320000 -4.000000,
			5.016391 -0.320000 -4.000000,
			-3.409546 0.320000 -4.347791,
			-3.344859 -0.320000 -4.226771,
			3.020998 -0.320000 -3.953228,
			-3.344859 0.320000 -4.226771,
			3.189528 -0.320000 -3.397658,
			-3.305025 -0.320000 -4.095455,
			3.097118 -0.320000 -3.570545,
			-3.305025 0.320000 -4.095455,
			3.040212 -0.320000 -3.758138,
			3.465428 -0.320000 -3.121758,
			-3.291575 -0.320000 4.070011,
			3.825907 -0.320000 -2.972443,
			-3.291575 0.320000 4.070011,
			3.638314 -0.320000 -3.029349,
			-3.305025 -0.320000 4.206573,
			3.313891 -0.320000 -3.246121,
			-3.305025 0.320000 4.206573,
			4.216088 -0.320000 -2.972443,
			-3.344859 -0.320000 4.337889,
			-3.344859 0.320000 4.337889,
			4.576568 -0.320000 -3.121758,
			-3.409546 -0.320000 4.458910,
			4.403681 -0.320000 -3.029349,
			5.020998 -0.320000 -3.953228,
			-3.409546 0.320000 4.458910,
			-3.496600 -0.320000 4.564985,
			4.852467 -0.320000 -3.397658,
			-3.496600 0.320000 4.564985,
			4.944877 -0.320000 -3.570545,
			-3.602676 -0.320000 4.652039,
			5.001783 -0.320000 -3.758138,
			-3.602676 0.320000 4.652039,
			4.728105 -0.320000 -3.246121,
			4.020998 -0.320000 -2.953228,
			-3.723696 -0.320000 4.716726,
			-3.723696 0.320000 4.716726,
			3.020998 0.320000 -3.953228,
			-3.855012 -0.320000 4.756560,
			3.097118 0.320000 -3.570545,
			-3.855012 0.320000 4.756560,
			3.040212 0.320000 -3.758138,
			-3.991575 -0.320000 4.770011,
			3.825907 0.320000 -2.972443,
			-3.991575 0.320000 4.770011,
			-4.678124 -0.320000 -4.095455,
			3.638314 0.320000 -3.029349,
			-4.678124 0.320000 -4.095455,
			-4.128138 -0.320000 4.756560,
			-4.638290 -0.320000 -4.226771,
			3.465428 0.320000 -3.121758,
			-4.638290 0.320000 -4.226771,
			-4.128138 0.320000 4.756560,
			-4.573604 -0.320000 -4.347791,
			3.313891 0.320000 -3.246121,
			-4.573604 0.320000 -4.347791,
			3.189528 0.320000 -3.397658,
			-4.486550 -0.320000 -4.453867,
			-4.259454 -0.320000 4.716726,
			-4.486550 0.320000 -4.453867,
			4.216088 0.320000 -2.972443,
			-4.380475 -0.320000 -4.540921,
			-4.259454 0.320000 4.716726,
			-4.380475 0.320000 -4.540921,
			4.576568 0.320000 -3.121758,
			-4.259454 -0.320000 -4.605608,
			-4.380475 -0.320000 4.652039,
			-4.259454 0.320000 -4.605608,
			-4.380475 0.320000 4.652039,
			-4.128138 -0.320000 -4.645442,
			4.403681 0.320000 -3.029349,
			-4.128138 0.320000 -4.645442,
			5.020998 0.320000 -3.953228,
			-4.486550 -0.320000 4.564985,
			5.001783 0.320000 -3.758138,
			-4.486550 0.320000 4.564985,
			4.852467 0.320000 -3.397658,
			-4.573604 -0.320000 4.458910,
			-4.573604 0.320000 4.458910,
			4.944877 0.320000 -3.570545,
			4.728105 0.320000 -3.246121,
			-4.638290 -0.320000 4.337889,
			4.020998 0.320000 -2.953228,
			-4.638290 0.320000 4.337889,
			3.029524 0.320000 4.000000,
			-4.678124 -0.320000 4.206573,
			-4.678124 0.320000 4.206573,
			5.012472 0.320000 4.000000,
			3.029524 -0.320000 4.000000,
			-4.691575 -0.320000 4.070011,
			5.012472 -0.320000 4.000000,
			-4.691575 0.320000 4.070011,
			3.040212 -0.320000 3.891480,
			3.097118 -0.320000 3.703887,
			3.189528 -0.320000 3.531000,
			3.465428 -0.320000 3.255101,
			3.825907 -0.320000 3.105785,
			3.638314 -0.320000 3.162691,
			3.313891 -0.320000 3.379463,
			4.216088 -0.320000 3.105785,
			4.576568 -0.320000 3.255101,
			4.403681 -0.320000 3.162691,
			5.001783 -0.320000 3.891480,
			4.944877 -0.320000 3.703887,
			4.852467 -0.320000 3.531000,
			4.728105 -0.320000 3.379463,
			4.020998 -0.320000 3.086570,
			3.040212 0.320000 3.891480,
			3.097118 0.320000 3.703887,
			3.638314 0.320000 3.162691,
			3.465428 0.320000 3.255101,
			3.189528 0.320000 3.531000,
			3.313891 0.320000 3.379463,
			3.825907 0.320000 3.105785,
			4.020998 0.320000 3.086570,
			4.576568 0.320000 3.255101,
			4.403681 0.320000 3.162691,
			4.216088 0.320000 3.105785,
			5.001783 0.320000 3.891480,
			4.944877 0.320000 3.703887,
			4.852467 0.320000 3.531000,
			4.728105 0.320000 3.379463,
			-4.684680 -0.320000 4.000000,
			-3.298470 -0.320000 4.000000,
			-4.684680 0.320000 4.000000,
			-3.298470 0.320000 4.000000,
			-4.687526 0.320000 -4.000000,
			-3.295624 0.320000 -4.000000,
			-4.687526 -0.320000 -4.000000,
			-3.295624 -0.320000 -4.000000,
			-4.487526 -0.320000 -4.000000,
			-3.495624 -0.320000 -4.000000,
			-3.495624 -0.320000 -4.000000,
			-4.487526 -0.320000 -4.000000,
			-3.495624 0.320000 -4.000000,
			-4.487526 0.320000 -4.000000,
			-4.487526 0.320000 -4.000000,
			-3.495624 0.320000 -4.000000,
			-4.491575 -0.320000 -3.958893,
			-4.407310 -0.320000 -3.681108,
			-4.453515 -0.320000 -3.767551,
			-4.481967 -0.320000 -3.861348,
			-4.269360 -0.320000 -3.543158,
			-4.089120 -0.320000 -3.468500,
			-4.182917 -0.320000 -3.496953,
			-4.345129 -0.320000 -3.605340,
			-3.894030 -0.320000 -3.468500,
			-3.713790 -0.320000 -3.543158,
			-3.800233 -0.320000 -3.496953,
			-3.491575 -0.320000 -3.958893,
			-3.575840 -0.320000 -3.681108,
			-3.529635 -0.320000 -3.767551,
			-3.501182 -0.320000 -3.861348,
			-3.638022 -0.320000 -3.605340,
			-3.991575 -0.320000 -3.458893,
			-4.491575 0.320000 -3.958893,
			-4.407310 0.320000 -3.681108,
			-4.453515 0.320000 -3.767551,
			-4.481967 0.320000 -3.861348,
			-4.269360 0.320000 -3.543158,
			-4.089120 0.320000 -3.468500,
			-4.182917 0.320000 -3.496953,
			-4.345129 0.320000 -3.605340,
			-3.894030 0.320000 -3.468500,
			-3.713790 0.320000 -3.543158,
			-3.800233 0.320000 -3.496953,
			-3.491575 0.320000 -3.958893,
			-3.575840 0.320000 -3.681108,
			-3.529635 0.320000 -3.767551,
			-3.501182 0.320000 -3.861348,
			-3.638022 0.320000 -3.605340,
			-3.991575 0.320000 -3.458893,
			-3.501182 0.320000 -4.056438,
			-4.481967 0.320000 -4.056438,
			-4.453515 0.320000 -4.150235,
			-4.407310 0.320000 -4.236678,
			-3.713790 0.320000 -4.374628,
			-4.345129 0.320000 -4.312446,
			-4.269360 0.320000 -4.374628,
			-4.182917 0.320000 -4.420833,
			-3.991575 0.320000 -4.458893,
			-4.089120 0.320000 -4.449286,
			-3.800233 0.320000 -4.420833,
			-3.529635 0.320000 -4.150235,
			-3.575840 0.320000 -4.236678,
			-3.638022 0.320000 -4.312446,
			-3.894030 0.320000 -4.449286,
			-4.481967 -0.320000 -4.056438,
			-3.501182 -0.320000 -4.056438,
			-3.529635 -0.320000 -4.150235,
			-3.575840 -0.320000 -4.236678,
			-4.269360 -0.320000 -4.374628,
			-4.453515 -0.320000 -4.150235,
			-4.407310 -0.320000 -4.236678,
			-4.182917 -0.320000 -4.420833,
			-4.345129 -0.320000 -4.312446,
			-3.991575 -0.320000 -4.458893,
			-3.894030 -0.320000 -4.449286,
			-3.638022 -0.320000 -4.312446,
			-3.713790 -0.320000 -4.374628,
			-3.800233 -0.320000 -4.420833,
			-4.089120 -0.320000 -4.449286,
			-4.484680 -0.320000 4.000000,
			-3.498470 -0.320000 4.000000,
			-3.498470 -0.320000 4.000000,
			-4.484680 -0.320000 4.000000,
			-3.498470 0.320000 4.000000,
			-4.484680 0.320000 4.000000,
			-4.484680 0.320000 4.000000,
			-3.498470 0.320000 4.000000,
			-4.481967 -0.320000 3.972465,
			-3.501182 -0.320000 3.972465,
			-4.453515 -0.320000 3.878669,
			-4.407310 -0.320000 3.792225,
			-4.269360 -0.320000 3.654276,
			-4.089120 -0.320000 3.579618,
			-4.182917 -0.320000 3.608071,
			-4.345129 -0.320000 3.716457,
			-3.894030 -0.320000 3.579618,
			-3.713790 -0.320000 3.654276,
			-3.800233 -0.320000 3.608071,
			-3.529635 -0.320000 3.878669,
			-3.575840 -0.320000 3.792225,
			-3.638022 -0.320000 3.716457,
			-3.991575 -0.320000 3.570010,
			-4.481967 0.320000 3.972465,
			-3.501182 0.320000 3.972465,
			-4.453515 0.320000 3.878669,
			-4.407310 0.320000 3.792225,
			-4.269360 0.320000 3.654276,
			-4.089120 0.320000 3.579618,
			-4.182917 0.320000 3.608071,
			-4.345129 0.320000 3.716457,
			-3.894030 0.320000 3.579618,
			-3.713790 0.320000 3.654276,
			-3.800233 0.320000 3.608071,
			-3.529635 0.320000 3.878669,
			-3.575840 0.320000 3.792225,
			-3.638022 0.320000 3.716457,
			-3.991575 0.320000 3.570010,
			-4.491575 0.320000 4.070011,
			-4.481967 0.320000 4.167556,
			-3.491575 0.320000 4.070011,
			-4.453515 0.320000 4.261352,
			-3.713790 0.320000 4.485745,
			-3.638022 0.320000 4.423564,
			-3.501182 0.320000 4.167556,
			-3.575840 0.320000 4.347795,
			-3.529635 0.320000 4.261352,
			-4.407310 0.320000 4.347795,
			-4.345129 0.320000 4.423564,
			-4.182917 0.320000 4.531950,
			-4.269360 0.320000 4.485745,
			-3.991575 0.320000 4.570011,
			-4.089120 0.320000 4.560403,
			-3.894030 0.320000 4.560403,
			-3.800233 0.320000 4.531950,
			-4.491575 -0.320000 4.070011,
			-4.481967 -0.320000 4.167556,
			-3.575840 -0.320000 4.347795,
			-3.491575 -0.320000 4.070011,
			-3.529635 -0.320000 4.261352,
			-3.501182 -0.320000 4.167556,
			-3.894030 -0.320000 4.560403,
			-4.453515 -0.320000 4.261352,
			-4.407310 -0.320000 4.347795,
			-4.182917 -0.320000 4.531950,
			-4.269360 -0.320000 4.485745,
			-4.345129 -0.320000 4.423564,
			-3.991575 -0.320000 4.570011,
			-3.638022 -0.320000 4.423564,
			-3.800233 -0.320000 4.531950,
			-3.713790 -0.320000 4.485745,
			-4.089120 -0.320000 4.560403,
		] }
		coordIndex [
			2 4 0 -1,
			12 16 14 -1,
			4 155 152 -1,
			149 18 21 -1,
			148 158 157 -1,
			4 148 150 -1,
			14 8 12 -1,
			144 224 227 -1,
			145 110 106 -1,
			2 229 230 -1,
			0 146 2 -1,
			10 112 8 -1,
			4 162 161 -1,
			178 179 6 -1,
			46 16 22 -1,
			53 94 46 -1,
			51 96 53 -1,
			49 101 51 -1,
			55 98 49 -1,
			43 102 55 -1,
			45 86 43 -1,
			40 92 45 -1,
			56 82 40 -1,
			34 104 56 -1,
			36 65 34 -1,
			36 72 68 -1,
			32 76 72 -1,
			38 78 76 -1,
			27 61 78 -1,
			29 63 61 -1,
			31 59 63 -1,
			18 25 21 -1,
			128 139 136 -1,
			121 138 139 -1,
			122 138 123 -1,
			127 137 122 -1,
			126 143 127 -1,
			125 142 126 -1,
			124 141 125 -1,
			109 124 112 -1,
			110 129 106 -1,
			114 130 129 -1,
			115 133 130 -1,
			116 134 133 -1,
			120 132 134 -1,
			117 131 132 -1,
			119 135 131 -1,
			118 136 135 -1,
			33 147 35 -1,
			35 37 33 -1,
			39 41 37 -1,
			42 44 41 -1,
			47 48 44 -1,
			50 52 48 -1,
			54 57 52 -1,
			58 60 57 -1,
			62 64 60 -1,
			66 70 64 -1,
			74 80 70 -1,
			84 88 80 -1,
			90 95 88 -1,
			97 99 95 -1,
			100 103 99 -1,
			105 107 103 -1,
			108 111 107 -1,
			113 144 111 -1,
			66 277 275 -1,
			285 60 291 -1,
			3 5 1 -1,
			7 9 5 -1,
			11 13 9 -1,
			15 17 13 -1,
			19 20 17 -1,
			23 24 20 -1,
			26 28 24 -1,
			30 151 28 -1,
			69 150 148 -1,
			69 71 67 -1,
			73 75 71 -1,
			77 79 75 -1,
			81 83 79 -1,
			85 87 83 -1,
			3 202 208 -1,
			89 91 87 -1,
			93 1 91 -1,
			1 218 223 -1,
			208 218 219 -1,
			204 219 222 -1,
			204 221 198 -1,
			198 220 207 -1,
			207 212 206 -1,
			206 211 205 -1,
			211 194 205 -1,
			171 188 156 -1,
			174 188 171 -1,
			173 191 174 -1,
			172 190 173 -1,
			175 189 172 -1,
			169 192 175 -1,
			170 186 169 -1,
			168 187 170 -1,
			176 185 168 -1,
			165 193 176 -1,
			166 182 165 -1,
			166 181 183 -1,
			164 184 181 -1,
			167 178 184 -1,
			161 179 178 -1,
			162 180 179 -1,
			163 177 180 -1,
			155 157 177 -1,
			196 209 214 -1,
			197 214 215 -1,
			199 215 217 -1,
			200 217 213 -1,
			201 213 216 -1,
			203 216 223 -1,
			202 223 218 -1,
			246 255 261 -1,
			240 257 255 -1,
			241 257 242 -1,
			245 256 241 -1,
			244 260 245 -1,
			243 259 244 -1,
			233 258 243 -1,
			226 228 233 -1,
			264 284 268 -1,
			268 283 270 -1,
			270 281 269 -1,
			269 292 267 -1,
			267 294 266 -1,
			266 293 278 -1,
			278 285 277 -1,
			277 291 275 -1,
			275 295 276 -1,
			276 288 273 -1,
			274 288 289 -1,
			272 289 290 -1,
			271 290 287 -1,
			265 287 286 -1,
			263 286 280 -1,
			262 280 279 -1,
			229 227 232 -1,
			232 249 247 -1,
			234 250 249 -1,
			235 254 250 -1,
			239 251 254 -1,
			236 253 251 -1,
			238 252 253 -1,
			237 261 252 -1,
			2 6 4 -1,
			12 22 16 -1,
			4 150 155 -1,
			153 154 151 -1,
			149 156 159 -1,
			21 153 151 -1,
			149 159 18 -1,
			21 151 149 -1,
			148 6 158 -1,
			4 6 148 -1,
			14 10 8 -1,
			144 0 224 -1,
			145 226 225 -1,
			106 231 228 -1,
			106 228 147 -1,
			145 225 110 -1,
			106 147 145 -1,
			2 146 229 -1,
			0 144 146 -1,
			10 109 112 -1,
			46 22 12 -1,
			12 8 123 -1,
			8 112 124 -1,
			8 124 125 -1,
			53 46 12 -1,
			51 53 12 -1,
			8 125 126 -1,
			8 126 127 -1,
			49 51 12 -1,
			55 49 12 -1,
			8 127 122 -1,
			8 122 123 -1,
			43 55 12 -1,
			45 43 12 -1,
			12 123 121 -1,
			40 45 121 -1,
			45 12 121 -1,
			40 121 128 -1,
			56 40 128 -1,
			56 128 118 -1,
			34 56 118 -1,
			34 118 36 -1,
			118 119 36 -1,
			36 119 243 -1,
			119 117 243 -1,
			32 36 243 -1,
			117 120 243 -1,
			38 32 243 -1,
			120 116 243 -1,
			27 38 243 -1,
			116 115 243 -1,
			29 27 243 -1,
			114 110 233 -1,
			110 225 233 -1,
			115 114 243 -1,
			31 29 243 -1,
			114 233 243 -1,
			25 31 243 -1,
			153 21 171 -1,
			21 25 171 -1,
			25 243 244 -1,
			174 171 25 -1,
			173 174 25 -1,
			25 244 245 -1,
			25 245 241 -1,
			172 173 25 -1,
			175 172 25 -1,
			25 241 242 -1,
			25 242 240 -1,
			169 175 25 -1,
			170 169 25 -1,
			25 240 246 -1,
			25 246 168 -1,
			246 237 168 -1,
			168 170 25 -1,
			176 168 237 -1,
			237 238 176 -1,
			238 236 176 -1,
			176 236 165 -1,
			236 239 165 -1,
			165 239 166 -1,
			239 235 166 -1,
			166 235 164 -1,
			235 234 0 -1,
			164 235 0 -1,
			232 224 0 -1,
			234 232 0 -1,
			167 164 4 -1,
			0 4 164 -1,
			4 152 160 -1,
			4 160 163 -1,
			161 167 4 -1,
			4 163 162 -1,
			140 109 10 -1,
			10 14 92 -1,
			14 16 94 -1,
			14 94 96 -1,
			141 140 10 -1,
			142 141 10 -1,
			14 96 101 -1,
			14 101 98 -1,
			143 142 10 -1,
			137 143 10 -1,
			14 98 102 -1,
			14 102 86 -1,
			138 137 10 -1,
			139 138 92 -1,
			138 10 92 -1,
			14 86 92 -1,
			139 92 82 -1,
			136 139 82 -1,
			136 82 104 -1,
			135 136 104 -1,
			135 104 65 -1,
			131 135 65 -1,
			131 65 68 -1,
			132 131 258 -1,
			131 68 258 -1,
			68 72 258 -1,
			134 132 258 -1,
			72 76 258 -1,
			133 134 258 -1,
			76 78 258 -1,
			130 133 258 -1,
			78 61 258 -1,
			231 106 248 -1,
			106 129 248 -1,
			129 130 258 -1,
			61 63 258 -1,
			258 248 129 -1,
			63 59 258 -1,
			59 18 188 -1,
			18 159 188 -1,
			259 258 59 -1,
			59 188 191 -1,
			59 191 190 -1,
			260 259 59 -1,
			256 260 59 -1,
			59 190 189 -1,
			59 189 192 -1,
			257 256 59 -1,
			255 257 59 -1,
			59 192 186 -1,
			59 186 187 -1,
			261 255 59 -1,
			252 261 185 -1,
			261 59 185 -1,
			59 187 185 -1,
			185 193 252 -1,
			253 252 193 -1,
			251 253 193 -1,
			254 251 182 -1,
			251 193 182 -1,
			250 254 183 -1,
			254 182 183 -1,
			249 250 2 -1,
			250 183 181 -1,
			250 181 2 -1,
			2 230 247 -1,
			247 249 2 -1,
			181 184 6 -1,
			2 181 6 -1,
			177 158 6 -1,
			180 177 6 -1,
			6 184 178 -1,
			179 180 6 -1,
			46 94 16 -1,
			53 96 94 -1,
			51 101 96 -1,
			49 98 101 -1,
			55 102 98 -1,
			43 86 102 -1,
			45 92 86 -1,
			40 82 92 -1,
			56 104 82 -1,
			34 65 104 -1,
			36 68 65 -1,
			36 32 72 -1,
			32 38 76 -1,
			38 27 78 -1,
			27 29 61 -1,
			29 31 63 -1,
			31 25 59 -1,
			18 59 25 -1,
			128 121 139 -1,
			121 123 138 -1,
			122 137 138 -1,
			127 143 137 -1,
			126 142 143 -1,
			125 141 142 -1,
			124 140 141 -1,
			109 140 124 -1,
			110 114 129 -1,
			114 115 130 -1,
			115 116 133 -1,
			116 120 134 -1,
			120 117 132 -1,
			117 119 131 -1,
			119 118 135 -1,
			118 128 136 -1,
			33 145 147 -1,
			35 39 37 -1,
			39 42 41 -1,
			42 47 44 -1,
			47 50 48 -1,
			50 54 52 -1,
			54 58 57 -1,
			58 62 60 -1,
			62 66 64 -1,
			66 74 70 -1,
			74 84 80 -1,
			84 90 88 -1,
			90 97 95 -1,
			97 100 99 -1,
			100 105 103 -1,
			105 108 107 -1,
			108 113 111 -1,
			113 146 144 -1,
			229 146 262 -1,
			146 113 262 -1,
			113 108 263 -1,
			108 105 265 -1,
			263 108 265 -1,
			105 100 271 -1,
			100 97 272 -1,
			271 100 272 -1,
			97 90 274 -1,
			90 84 273 -1,
			274 90 273 -1,
			84 74 276 -1,
			74 66 276 -1,
			66 62 277 -1,
			62 58 277 -1,
			58 54 278 -1,
			54 50 266 -1,
			50 47 267 -1,
			47 42 269 -1,
			42 39 270 -1,
			39 35 268 -1,
			35 147 264 -1,
			147 228 264 -1,
			47 269 267 -1,
			39 268 270 -1,
			54 266 278 -1,
			263 262 113 -1,
			35 264 268 -1,
			265 105 271 -1,
			42 270 269 -1,
			50 267 266 -1,
			272 97 274 -1,
			273 84 276 -1,
			58 278 277 -1,
			275 276 66 -1,
			282 226 145 -1,
			145 33 282 -1,
			33 37 282 -1,
			37 41 283 -1,
			41 44 281 -1,
			283 41 281 -1,
			44 48 292 -1,
			48 52 294 -1,
			292 48 294 -1,
			52 57 293 -1,
			57 60 285 -1,
			293 57 285 -1,
			60 64 70 -1,
			70 80 295 -1,
			80 88 288 -1,
			88 95 289 -1,
			95 99 290 -1,
			99 103 287 -1,
			103 107 286 -1,
			287 103 286 -1,
			107 111 280 -1,
			111 144 279 -1,
			280 111 279 -1,
			144 227 279 -1,
			80 288 295 -1,
			95 290 289 -1,
			60 70 291 -1,
			284 282 37 -1,
			280 286 107 -1,
			284 37 283 -1,
			281 44 292 -1,
			99 287 290 -1,
			88 289 288 -1,
			293 294 52 -1,
			70 295 291 -1,
			3 7 5 -1,
			7 11 9 -1,
			11 15 13 -1,
			15 19 17 -1,
			19 23 20 -1,
			23 26 24 -1,
			26 30 28 -1,
			30 149 151 -1,
			69 67 150 -1,
			69 73 71 -1,
			73 77 75 -1,
			77 81 79 -1,
			81 85 83 -1,
			85 89 87 -1,
			194 156 149 -1,
			149 30 194 -1,
			30 26 205 -1,
			26 23 206 -1,
			23 19 207 -1,
			19 15 198 -1,
			15 11 204 -1,
			198 15 204 -1,
			11 7 208 -1,
			7 3 208 -1,
			3 93 203 -1,
			93 89 203 -1,
			89 85 201 -1,
			85 81 200 -1,
			81 77 199 -1,
			77 73 197 -1,
			199 77 197 -1,
			73 69 196 -1,
			69 148 195 -1,
			196 69 195 -1,
			148 157 195 -1,
			85 200 201 -1,
			30 205 194 -1,
			23 207 206 -1,
			206 205 26 -1,
			207 19 198 -1,
			196 197 73 -1,
			81 199 200 -1,
			204 11 208 -1,
			89 201 203 -1,
			3 203 202 -1,
			89 93 91 -1,
			93 3 1 -1,
			209 155 150 -1,
			150 67 209 -1,
			67 71 214 -1,
			71 75 215 -1,
			75 79 217 -1,
			79 83 213 -1,
			83 87 216 -1,
			213 83 216 -1,
			87 91 223 -1,
			91 1 223 -1,
			1 5 219 -1,
			5 9 219 -1,
			9 13 222 -1,
			13 17 221 -1,
			17 20 220 -1,
			20 24 212 -1,
			220 20 212 -1,
			24 28 211 -1,
			28 151 210 -1,
			211 28 210 -1,
			151 154 210 -1,
			13 221 222 -1,
			67 214 209 -1,
			75 217 215 -1,
			215 214 71 -1,
			217 79 213 -1,
			211 212 24 -1,
			17 220 221 -1,
			216 87 223 -1,
			9 222 219 -1,
			1 219 218 -1,
			208 202 218 -1,
			204 208 219 -1,
			204 222 221 -1,
			198 221 220 -1,
			207 220 212 -1,
			206 212 211 -1,
			211 210 194 -1,
			156 194 210 -1,
			154 153 171 -1,
			156 210 154 -1,
			188 159 156 -1,
			154 171 156 -1,
			174 191 188 -1,
			173 190 191 -1,
			172 189 190 -1,
			175 192 189 -1,
			169 186 192 -1,
			170 187 186 -1,
			168 185 187 -1,
			176 193 185 -1,
			165 182 193 -1,
			166 183 182 -1,
			166 164 181 -1,
			164 167 184 -1,
			167 161 178 -1,
			161 162 179 -1,
			162 163 180 -1,
			163 160 177 -1,
			160 152 155 -1,
			155 209 195 -1,
			157 158 177 -1,
			155 195 157 -1,
			177 160 155 -1,
			196 195 209 -1,
			197 196 214 -1,
			199 197 215 -1,
			200 199 217 -1,
			201 200 213 -1,
			203 201 216 -1,
			202 203 223 -1,
			246 240 255 -1,
			240 242 257 -1,
			241 256 257 -1,
			245 260 256 -1,
			244 259 260 -1,
			243 258 259 -1,
			233 248 258 -1,
			226 282 264 -1,
			228 231 248 -1,
			226 264 228 -1,
			233 225 226 -1,
			228 248 233 -1,
			264 282 284 -1,
			268 284 283 -1,
			270 283 281 -1,
			269 281 292 -1,
			267 292 294 -1,
			266 294 293 -1,
			278 293 285 -1,
			277 285 291 -1,
			275 291 295 -1,
			276 295 288 -1,
			274 273 288 -1,
			272 274 289 -1,
			271 272 290 -1,
			265 271 287 -1,
			263 265 286 -1,
			262 263 280 -1,
			247 230 229 -1,
			229 262 279 -1,
			227 224 232 -1,
			229 279 227 -1,
			232 247 229 -1,
			232 234 249 -1,
			234 235 250 -1,
			235 239 254 -1,
			239 236 251 -1,
			236 238 253 -1,
			238 237 252 -1,
			237 246 261 -1,
		]
		normal Normal { vector [
			-0.039844 -0.996023 0.079686,
			-0.000000 -0.996011 -0.089232,
			-0.039846 0.996023 0.079688,
			0.000000 0.996011 -0.089232,
			-0.039845 -0.996020 -0.079725,
			0.015973 -0.996472 -0.082388,
			-0.039843 0.996022 -0.079703,
			0.015973 0.996472 -0.082388,
			0.039847 -0.996023 0.079690,
			0.027290 -0.997365 -0.067213,
			0.039844 0.996023 0.079687,
			0.027290 0.997365 -0.067213,
			0.039844 -0.996023 -0.079687,
			0.033832 -0.998105 -0.051398,
			0.039847 0.996023 -0.079690,
			0.033832 0.998105 -0.051398,
			-0.041081 0.996090 -0.078214,
			0.037412 -0.998583 -0.037847,
			0.041081 0.996088 -0.078234,
			0.037412 0.998583 -0.037847,
			0.039389 -0.998871 -0.026568,
			0.041081 -0.996089 -0.078229,
			-0.041081 -0.996090 -0.078216,
			0.039389 0.998871 -0.026568,
			0.040484 -0.999037 -0.016906,
			0.038711 -0.999250 0.000000,
			0.040484 0.999037 -0.016906,
			0.036307 -0.999041 -0.024489,
			0.041038 -0.999124 -0.008224,
			0.037734 -0.999164 -0.015757,
			0.041038 0.999124 -0.008224,
			0.038478 -0.999230 -0.007711,
			0.029703 -0.998540 -0.045125,
			0.041208 -0.999151 0.000000,
			0.012780 -0.997743 -0.065917,
			0.041207 0.999151 -0.000000,
			0.022937 -0.998140 -0.056493,
			0.041037 -0.999124 0.008224,
			0.033842 -0.998841 -0.034236,
			0.041038 0.999124 0.008224,
			-0.012780 -0.997743 -0.065917,
			0.040484 -0.999037 0.016906,
			0.040484 0.999037 0.016906,
			-0.029702 -0.998540 -0.045124,
			0.039389 -0.998871 0.026568,
			-0.022937 -0.998139 -0.056493,
			-0.038710 -0.999250 0.000000,
			0.039389 0.998871 0.026568,
			0.037412 -0.998583 0.037847,
			-0.036307 -0.999041 -0.024489,
			0.037412 0.998583 0.037847,
			-0.037735 -0.999164 -0.015758,
			0.033832 -0.998105 0.051398,
			-0.038478 -0.999230 -0.007711,
			0.033832 0.998105 0.051398,
			-0.033841 -0.998841 -0.034235,
			-0.000000 -0.997570 -0.069675,
			0.027290 -0.997365 0.067213,
			0.027290 0.997365 0.067213,
			0.038712 0.999250 -0.000000,
			0.015974 -0.996472 0.082390,
			0.037734 0.999164 -0.015758,
			0.015973 0.996472 0.082388,
			0.038478 0.999230 -0.007711,
			0.000000 -0.996011 0.089226,
			0.012780 0.997743 -0.065917,
			-0.000000 0.996011 0.089232,
			-0.041038 -0.999124 -0.008224,
			0.022937 0.998140 -0.056492,
			-0.041039 0.999124 -0.008224,
			-0.015974 -0.996472 0.082390,
			-0.040484 -0.999037 -0.016906,
			0.029703 0.998540 -0.045125,
			-0.040484 0.999037 -0.016906,
			-0.015973 0.996472 0.082388,
			-0.039389 -0.998871 -0.026568,
			0.033842 0.998841 -0.034236,
			-0.039389 0.998871 -0.026568,
			0.036307 0.999041 -0.024489,
			-0.037412 -0.998583 -0.037847,
			-0.027290 -0.997365 0.067213,
			-0.037412 0.998583 -0.037847,
			-0.012780 0.997743 -0.065917,
			-0.033832 -0.998105 -0.051398,
			-0.027290 0.997365 0.067213,
			-0.033832 0.998105 -0.051398,
			-0.029702 0.998540 -0.045124,
			-0.027290 -0.997365 -0.067213,
			-0.033832 -0.998105 0.051398,
			-0.027290 0.997365 -0.067213,
			-0.033832 0.998105 0.051398,
			-0.015973 -0.996472 -0.082388,
			-0.022938 0.998139 -0.056494,
			-0.015973 0.996472 -0.082388,
			-0.038710 0.999250 0.000000,
			-0.037412 -0.998583 0.037847,
			-0.038478 0.999230 -0.007711,
			-0.037412 0.998583 0.037847,
			-0.036307 0.999041 -0.024489,
			-0.039389 -0.998871 0.026568,
			-0.039389 0.998871 0.026568,
			-0.037735 0.999164 -0.015758,
			-0.033841 0.998841 -0.034235,
			-0.040484 -0.999037 0.016906,
			0.000000 0.997570 -0.069675,
			-0.040484 0.999037 0.016906,
			0.038583 0.995963 0.081055,
			-0.041038 -0.999124 0.008224,
			-0.041038 0.999124 0.008224,
			-0.038583 0.995962 0.081059,
			0.038583 -0.995962 0.081059,
			-0.041207 -0.999151 0.000000,
			-0.038583 -0.995962 0.081057,
			-0.041207 0.999151 -0.000000,
			0.038478 -0.999230 0.007711,
			0.037734 -0.999164 0.015758,
			0.036307 -0.999041 0.024489,
			0.029703 -0.998540 0.045125,
			0.012780 -0.997743 0.065917,
			0.022937 -0.998139 0.056493,
			0.033842 -0.998841 0.034236,
			-0.012780 -0.997743 0.065918,
			-0.029702 -0.998540 0.045124,
			-0.022938 -0.998139 0.056494,
			-0.038478 -0.999230 0.007711,
			-0.037735 -0.999164 0.015758,
			-0.036307 -0.999041 0.024489,
			-0.033841 -0.998841 0.034235,
			-0.000000 -0.997570 0.069675,
			0.038478 0.999230 0.007711,
			0.037734 0.999164 0.015757,
			0.022937 0.998140 0.056493,
			0.029702 0.998540 0.045125,
			0.036307 0.999041 0.024489,
			0.033842 0.998841 0.034236,
			0.012780 0.997743 0.065917,
			0.000000 0.997570 0.069675,
			-0.029702 0.998540 0.045124,
			-0.022937 0.998139 0.056493,
			-0.012780 0.997743 0.065917,
			-0.038478 0.999230 0.007711,
			-0.037735 0.999164 0.015758,
			-0.036307 0.999041 0.024489,
			-0.033842 0.998841 0.034235,
			-0.037734 -0.974097 0.222962,
			0.037734 -0.974096 0.222965,
			-0.037734 0.974097 0.222960,
			0.037734 0.974100 0.222946,
			-0.039963 0.968950 -0.244005,
			0.039963 0.968949 -0.244009,
			-0.039964 -0.968950 -0.244007,
			0.039963 -0.968948 -0.244013,
			0.041081 -0.996090 -0.078216,
			-0.041081 -0.996088 -0.078241,
			-0.115192 -0.991179 -0.065542,
			0.115192 -0.991177 -0.065559,
			-0.115192 0.991179 -0.065542,
			0.115192 0.991179 -0.065542,
			0.041081 0.996088 -0.078234,
			-0.041081 0.996088 -0.078241,
			0.038716 -0.999250 0.000001,
			0.036307 -0.999041 -0.024489,
			0.037734 -0.999164 -0.015757,
			0.038478 -0.999230 -0.007711,
			0.029702 -0.998540 -0.045124,
			0.012780 -0.997743 -0.065917,
			0.022938 -0.998139 -0.056494,
			0.033842 -0.998841 -0.034236,
			-0.012780 -0.997743 -0.065918,
			-0.029703 -0.998540 -0.045125,
			-0.022937 -0.998140 -0.056492,
			-0.038714 -0.999250 0.000000,
			-0.036307 -0.999041 -0.024489,
			-0.037734 -0.999164 -0.015757,
			-0.038478 -0.999230 -0.007711,
			-0.033842 -0.998841 -0.034236,
			-0.000000 -0.997570 -0.069674,
			0.038716 0.999250 0.000001,
			0.036307 0.999041 -0.024489,
			0.037734 0.999164 -0.015758,
			0.038478 0.999230 -0.007711,
			0.029702 0.998540 -0.045124,
			0.012780 0.997743 -0.065917,
			0.022937 0.998139 -0.056494,
			0.033842 0.998841 -0.034236,
			-0.012780 0.997743 -0.065919,
			-0.029703 0.998540 -0.045125,
			-0.022937 0.998140 -0.056492,
			-0.038714 0.999250 0.000000,
			-0.036307 0.999041 -0.024489,
			-0.037734 0.999164 -0.015757,
			-0.038478 0.999230 -0.007711,
			-0.033842 0.998841 -0.034236,
			0.000000 0.997570 -0.069674,
			-0.038478 0.999230 0.007711,
			0.038478 0.999230 0.007711,
			0.037735 0.999163 0.015758,
			0.036307 0.999041 0.024489,
			-0.029703 0.998540 0.045125,
			0.033841 0.998841 0.034234,
			0.029703 0.998540 0.045125,
			0.022938 0.998139 0.056494,
			0.000000 0.997570 0.069674,
			0.012781 0.997743 0.065920,
			-0.022938 0.998139 0.056494,
			-0.037735 0.999164 0.015758,
			-0.036307 0.999041 0.024489,
			-0.033841 0.998841 0.034234,
			-0.012781 0.997743 0.065920,
			0.038478 -0.999230 0.007711,
			-0.038478 -0.999230 0.007711,
			-0.037735 -0.999163 0.015758,
			-0.036307 -0.999041 0.024489,
			0.029703 -0.998540 0.045125,
			0.037735 -0.999163 0.015758,
			0.036307 -0.999041 0.024489,
			0.022938 -0.998139 0.056494,
			0.033841 -0.998841 0.034235,
			-0.000000 -0.997570 0.069674,
			-0.012781 -0.997743 0.065920,
			-0.033841 -0.998841 0.034235,
			-0.029703 -0.998540 0.045125,
			-0.022938 -0.998139 0.056494,
			0.012781 -0.997743 0.065920,
			0.038583 -0.995962 0.081059,
			-0.038583 -0.995961 0.081076,
			-0.122252 -0.988072 0.093641,
			0.122252 -0.988072 0.093641,
			-0.122251 0.988070 0.093659,
			0.122252 0.988072 0.093641,
			0.038583 0.995962 0.081059,
			-0.038583 0.995962 0.081059,
			0.038478 -0.999230 0.007711,
			-0.038478 -0.999230 0.007711,
			0.037734 -0.999164 0.015757,
			0.036308 -0.999041 0.024490,
			0.029702 -0.998540 0.045124,
			0.012780 -0.997743 0.065917,
			0.022937 -0.998139 0.056494,
			0.033841 -0.998841 0.034235,
			-0.012780 -0.997743 0.065918,
			-0.029703 -0.998540 0.045125,
			-0.022936 -0.998140 0.056491,
			-0.037734 -0.999164 0.015758,
			-0.036306 -0.999041 0.024489,
			-0.033842 -0.998841 0.034236,
			-0.000000 -0.997570 0.069675,
			0.038478 0.999230 0.007711,
			-0.038478 0.999230 0.007711,
			0.037734 0.999164 0.015757,
			0.036308 0.999041 0.024490,
			0.029702 0.998540 0.045124,
			0.012780 0.997743 0.065917,
			0.022937 0.998139 0.056494,
			0.033841 0.998841 0.034235,
			-0.012780 0.997743 0.065918,
			-0.029703 0.998540 0.045125,
			-0.022937 0.998140 0.056492,
			-0.037734 0.999164 0.015757,
			-0.036306 0.999041 0.024488,
			-0.033842 0.998841 0.034236,
			0.000000 0.997570 0.069675,
			0.038709 0.999250 -0.000000,
			0.038478 0.999230 -0.007711,
			-0.038709 0.999250 -0.000000,
			0.037735 0.999163 -0.015758,
			-0.029703 0.998540 -0.045125,
			-0.033841 0.998841 -0.034235,
			-0.038478 0.999230 -0.007711,
			-0.036307 0.999041 -0.024489,
			-0.037735 0.999163 -0.015758,
			0.036307 0.999041 -0.024489,
			0.033841 0.998841 -0.034235,
			0.022938 0.998139 -0.056494,
			0.029703 0.998540 -0.045125,
			0.000000 0.997570 -0.069674,
			0.012781 0.997743 -0.065920,
			-0.012781 0.997743 -0.065920,
			-0.022938 0.998139 -0.056494,
			0.038709 -0.999250 0.000000,
			0.038478 -0.999230 -0.007711,
			-0.036307 -0.999041 -0.024489,
			-0.038708 -0.999251 0.000000,
			-0.037735 -0.999163 -0.015758,
			-0.038478 -0.999230 -0.007711,
			-0.012780 -0.997743 -0.065918,
			0.037735 -0.999163 -0.015758,
			0.036307 -0.999041 -0.024489,
			0.022938 -0.998139 -0.056494,
			0.029703 -0.998540 -0.045125,
			0.033841 -0.998841 -0.034234,
			-0.000000 -0.997570 -0.069672,
			-0.033841 -0.998841 -0.034234,
			-0.022938 -0.998139 -0.056494,
			-0.029703 -0.998540 -0.045125,
			0.012780 -0.997743 -0.065918,
		] }
		normalPerVertex TRUE
		solid TRUE
	}
	appearance Appearance {
		material Material {
			diffuseColor 0.0538 0.1358 0.8007
			transparency 0.0000
			shininess 0.6000
		}
	}
}

Shape # Material: Material
{
	geometry IndexedFaceSet {
		coord Coordinate { point [
			-2.209166 0.319999 -1.320502,
			-1.581959 0.319999 -1.320502,
			-2.209166 0.319999 -2.614424,
			-1.581959 0.319999 -2.614424,
			-2.209166 0.719999 -1.320502,
			-1.581959 0.719999 -1.320502,
			-2.209166 0.719999 -2.614424,
			-1.581959 0.719999 -2.614424,
		] }
		coordIndex [
			2 1 0 -1,
			5 6 4 -1,
			3 5 1 -1,
			0 6 2 -1,
			2 7 3 -1,
			1 4 0 -1,
			2 3 1 -1,
			5 7 6 -1,
			3 7 5 -1,
			0 4 6 -1,
			2 6 7 -1,
			1 5 4 -1,
		]
		normal Normal { vector [
			-0.000200 -1.000000 0.000200,
			0.000200 -1.000000 0.000200,
			-0.000200 -1.000000 -0.000200,
			0.000200 -1.000000 -0.000200,
			-0.000200 1.000000 0.000200,
			0.000200 1.000000 0.000200,
			-0.000200 1.000000 -0.000200,
			0.000200 1.000000 -0.000200,
		] }
		normalPerVertex TRUE
		solid TRUE
	}
	appearance Appearance {
		material Material {
			diffuseColor 0.0221 0.0231 0.0211
			transparency 0.0000
			shininess 0.5000
		}
	}
}

Shape # Material: Material
{
	geometry IndexedFaceSet {
		coord Coordinate { point [
			-1.000000 0.320000 1.000000,
			1.000000 0.320000 1.000000,
			-1.000000 0.319999 -1.000000,
			1.000000 0.319999 -1.000000,
			-1.000000 0.720000 1.000000,
			1.000000 0.720000 1.000000,
			-1.000000 0.719999 -1.000000,
			1.000000 0.719999 -1.000000,
		] }
		coordIndex [
			2 1 0 -1,
			5 6 4 -1,
			3 5 1 -1,
			0 6 2 -1,
			2 7 3 -1,
			1 4 0 -1,
			2 3 1 -1,
			5 7 6 -1,
			3 7 5 -1,
			0 4 6 -1,
			2 6 7 -1,
			1 5 4 -1,
		]
		normal Normal { vector [
			-0.577341 -0.577355 0.577355,
			0.577344 -0.577376 0.577330,
			-0.577344 -0.577377 -0.577330,
			0.577341 -0.577355 -0.577355,
			-0.577355 0.577355 0.577341,
			0.577330 0.577377 0.577344,
			-0.577330 0.577376 -0.577344,
			0.577355 0.577355 -0.577341,
		] }
		normalPerVertex TRUE
		solid TRUE
	}
	appearance Appearance {
		material Material {
			diffuseColor 0.0221 0.0231 0.0211
			transparency 0.0000
			shininess 0.5000
		}
	}
}

Shape # Material: Material.002
{
	geometry IndexedFaceSet {
		coord Coordinate { point [
			-1.043576 0.319999 -1.647250,
			-0.699469 0.319999 -1.647250,
			-1.043576 0.319999 -2.307284,
			-0.699469 0.319999 -2.307284,
			-1.043576 0.559999 -1.647250,
			-0.699469 0.559999 -1.647250,
			-1.043576 0.559999 -2.307284,
			-0.699469 0.559999 -2.307284,
		] }
		coordIndex [
			2 1 0 -1,
			5 6 4 -1,
			3 5 1 -1,
			0 6 2 -1,
			2 7 3 -1,
			1 4 0 -1,
			2 3 1 -1,
			5 7 6 -1,
			3 7 5 -1,
			0 4 6 -1,
			2 6 7 -1,
			1 5 4 -1,
		]
		normal Normal { vector [
			-0.577330 -0.577360 0.577360,
			0.577351 -0.577336 0.577364,
			-0.577351 -0.577336 -0.577363,
			0.577330 -0.577360 -0.577360,
			-0.577346 0.577346 0.577358,
			0.577335 0.577350 0.577365,
			-0.577335 0.577350 -0.577365,
			0.577346 0.577346 -0.577359,
		] }
		normalPerVertex TRUE
		solid TRUE
	}
	appearance Appearance {
		material Material {
			diffuseColor 0.8002 0.6438 0.0701
			transparency 0.0000
			shininess 0.6000
		}
	}
}

Shape # Material: Material.002
{
	geometry IndexedFaceSet {
		coord Coordinate { point [
			-0.514005 0.319999 -1.647250,
			-0.169898 0.319999 -1.647250,
			-0.514005 0.319999 -2.307284,
			-0.169898 0.319999 -2.307284,
			-0.514005 0.559999 -1.647250,
			-0.169898 0.559999 -1.647250,
			-0.514005 0.559999 -2.307284,
			-0.169898 0.559999 -2.307284,
		] }
		coordIndex [
			2 1 0 -1,
			5 6 4 -1,
			0 6 2 -1,
			2 7 3 -1,
			1 4 0 -1,
			3 5 1 -1,
			2 3 1 -1,
			5 7 6 -1,
			0 4 6 -1,
			2 6 7 -1,
			1 5 4 -1,
			3 7 5 -1,
		]
		normal Normal { vector [
			-0.577330 -0.577360 0.577360,
			0.577351 -0.577336 0.577364,
			-0.577351 -0.577336 -0.577363,
			0.577330 -0.577360 -0.577360,
			-0.577346 0.577346 0.577358,
			0.577335 0.577350 0.577365,
			-0.577335 0.577350 -0.577365,
			0.577346 0.577346 -0.577359,
		] }
		normalPerVertex TRUE
		solid TRUE
	}
	appearance Appearance {
		material Material {
			diffuseColor 0.8002 0.6438 0.0701
			transparency 0.0000
			shininess 0.6000
		}
	}
}

Shape # Material: Material.002
{
	geometry IndexedFaceSet {
		coord Coordinate { point [
			1.460539 0.320000 0.516426,
			2.054301 0.320000 0.516426,
			1.460539 0.320000 -0.431089,
			2.054301 0.320000 -0.431089,
			1.460539 0.720000 0.516426,
			2.054301 0.720000 0.516426,
			1.460539 0.719999 -0.431089,
			2.054301 0.719999 -0.431089,
		] }
		coordIndex [
			2 1 0 -1,
			5 6 4 -1,
			2 7 3 -1,
			1 4 0 -1,
			3 5 1 -1,
			0 6 2 -1,
			2 3 1 -1,
			5 7 6 -1,
			2 6 7 -1,
			1 5 4 -1,
			3 7 5 -1,
			0 4 6 -1,
		]
		normal Normal { vector [
			-0.577332 -0.577359 0.577359,
			0.577347 -0.577348 0.577356,
			-0.577347 -0.577348 -0.577356,
			0.577332 -0.577359 -0.577359,
			-0.577347 0.577347 0.577356,
			0.577331 0.577361 0.577359,
			-0.577331 0.577361 -0.577359,
			0.577347 0.577347 -0.577356,
		] }
		normalPerVertex TRUE
		solid TRUE
	}
	appearance Appearance {
		material Material {
			diffuseColor 0.8002 0.6438 0.0701
			transparency 0.0000
			shininess 0.6000
		}
	}
}

Shape # Material: Material
{
	geometry IndexedFaceSet {
		coord Coordinate { point [
			2.716379 0.320000 0.660167,
			3.204227 0.320000 0.660167,
			2.716379 0.320000 -0.468916,
			3.204227 0.320000 -0.468916,
			2.716379 0.720000 0.660167,
			3.204227 0.720000 0.660167,
			2.716379 0.719999 -0.468916,
			3.204227 0.719999 -0.468916,
		] }
		coordIndex [
			2 1 0 -1,
			5 6 4 -1,
			2 7 3 -1,
			1 4 0 -1,
			3 5 1 -1,
			0 6 2 -1,
			2 3 1 -1,
			5 7 6 -1,
			2 6 7 -1,
			1 5 4 -1,
			3 7 5 -1,
			0 4 6 -1,
		]
		normal Normal { vector [
			-0.577330 -0.577360 0.577361,
			0.577351 -0.577324 0.577376,
			-0.577351 -0.577324 -0.577376,
			0.577330 -0.577360 -0.577360,
			-0.577342 0.577342 0.577367,
			0.577339 0.577343 0.577369,
			-0.577339 0.577343 -0.577369,
			0.577342 0.577342 -0.577368,
		] }
		normalPerVertex TRUE
		solid TRUE
	}
	appearance Appearance {
		material Material {
			diffuseColor 0.0221 0.0231 0.0211
			transparency 0.0000
			shininess 0.5000
		}
	}
}

Shape # Material: mat1
{
	geometry IndexedFaceSet {
		coord Coordinate { point [
			3.140036 0.320000 1.598264,
			3.484143 0.320000 1.598264,
			3.140036 0.320000 0.938230,
			3.484143 0.320000 0.938230,
			3.140036 0.560000 1.598264,
			3.484143 0.560000 1.598264,
			3.140036 0.560000 0.938230,
			3.484143 0.560000 0.938230,
		] }
		coordIndex [
			2 1 0 -1,
			5 6 4 -1,
			2 7 3 -1,
			1 4 0 -1,
			3 5 1 -1,
			0 6 2 -1,
			2 3 1 -1,
			5 7 6 -1,
			2 6 7 -1,
			1 5 4 -1,
			3 7 5 -1,
			0 4 6 -1,
		]
		normal Normal { vector [
			-0.577330 -0.577360 0.577360,
			0.577351 -0.577336 0.577364,
			-0.577351 -0.577336 -0.577363,
			0.577330 -0.577360 -0.577360,
			-0.577346 0.577346 0.577358,
			0.577335 0.577350 0.577365,
			-0.577335 0.577350 -0.577365,
			0.577346 0.577346 -0.577359,
		] }
		normalPerVertex TRUE
		solid TRUE
	}
	appearance Appearance {
		material Material {
			diffuseColor 0.2025 0.2025 0.2025
			transparency 0.0000
			shininess 0.7071
		}
	}
}

Shape # Material: mat1
{
	geometry IndexedFaceSet {
		coord Coordinate { point [
			-2.859249 0.320000 2.430447,
			-2.515142 0.320000 2.430447,
			-2.859249 0.320000 1.770414,
			-2.515142 0.320000 1.770414,
			-2.859249 0.560000 2.430447,
			-2.515142 0.560000 2.430447,
			-2.859249 0.560000 1.770414,
			-2.515142 0.560000 1.770414,
		] }
		coordIndex [
			2 1 0 -1,
			5 6 4 -1,
			2 7 3 -1,
			1 4 0 -1,
			3 5 1 -1,
			0 6 2 -1,
			2 3 1 -1,
			5 7 6 -1,
			2 6 7 -1,
			1 5 4 -1,
			3 7 5 -1,
			0 4 6 -1,
		]
		normal Normal { vector [
			-0.577330 -0.577360 0.577360,
			0.577351 -0.577336 0.577364,
			-0.577351 -0.577336 -0.577363,
			0.577330 -0.577360 -0.577360,
			-0.577346 0.577346 0.577358,
			0.577335 0.577350 0.577365,
			-0.577335 0.577350 -0.577365,
			0.577346 0.577346 -0.577359,
		] }
		normalPerVertex TRUE
		solid TRUE
	}
	appearance Appearance {
		material Material {
			diffuseColor 0.2025 0.2025 0.2025
			transparency 0.0000
			shininess 0.7071
		}
	}
}

Shape # Material: mat1
{
	geometry IndexedFaceSet {
		coord Coordinate { point [
			-2.291851 0.320000 2.430447,
			-1.947744 0.320000 2.430447,
			-2.291851 0.320000 1.770414,
			-1.947744 0.320000 1.770414,
			-2.291851 0.560000 2.430447,
			-1.947744 0.560000 2.430447,
			-2.291851 0.560000 1.770414,
			-1.947744 0.560000 1.770414,
		] }
		coordIndex [
			2 1 0 -1,
			5 6 4 -1,
			0 6 2 -1,
			2 7 3 -1,
			1 4 0 -1,
			3 5 1 -1,
			2 3 1 -1,
			5 7 6 -1,
			0 4 6 -1,
			2 6 7 -1,
			1 5 4 -1,
			3 7 5 -1,
		]
		normal Normal { vector [
			-0.577330 -0.577360 0.577360,
			0.577351 -0.577336 0.577364,
			-0.577351 -0.577336 -0.577363,
			0.577330 -0.577360 -0.577360,
			-0.577346 0.577346 0.577358,
			0.577335 0.577350 0.577365,
			-0.577335 0.577350 -0.577365,
			0.577346 0.577346 -0.577359,
		] }
		normalPerVertex TRUE
		solid TRUE
	}
	appearance Appearance {
		material Material {
			diffuseColor 0.2025 0.2025 0.2025
			transparency 0.0000
			shininess 0.7071
		}
	}
}

Shape # Material: mat1
{
	geometry IndexedFaceSet {
		coord Coordinate { point [
			-1.198986 0.320000 2.430447,
			-0.854879 0.320000 2.430447,
			-1.198986 0.320000 1.770414,
			-0.854879 0.320000 1.770414,
			-1.198986 0.560000 2.430447,
			-0.854879 0.560000 2.430447,
			-1.198986 0.560000 1.770414,
			-0.854879 0.560000 1.770414,
		] }
		coordIndex [
			2 1 0 -1,
			5 6 4 -1,
			3 5 1 -1,
			0 6 2 -1,
			2 7 3 -1,
			1 4 0 -1,
			2 3 1 -1,
			5 7 6 -1,
			3 7 5 -1,
			0 4 6 -1,
			2 6 7 -1,
			1 5 4 -1,
		]
		normal Normal { vector [
			-0.577330 -0.577360 0.577360,
			0.577351 -0.577336 0.577364,
			-0.577351 -0.577336 -0.577363,
			0.577330 -0.577360 -0.577360,
			-0.577346 0.577346 0.577358,
			0.577335 0.577350 0.577365,
			-0.577335 0.577350 -0.577365,
			0.577346 0.577346 -0.577359,
		] }
		normalPerVertex TRUE
		solid TRUE
	}
	appearance Appearance {
		material Material {
			diffuseColor 0.2025 0.2025 0.2025
			transparency 0.0000
			shininess 0.7071
		}
	}
}

Shape # Material: mat1
{
	geometry IndexedFaceSet {
		coord Coordinate { point [
			-1.766384 0.320000 2.430447,
			-1.422277 0.320000 2.430447,
			-1.766384 0.320000 1.770414,
			-1.422277 0.320000 1.770414,
			-1.766384 0.560000 2.430447,
			-1.422277 0.560000 2.430447,
			-1.766384 0.560000 1.770414,
			-1.422277 0.560000 1.770414,
		] }
		coordIndex [
			2 1 0 -1,
			5 6 4 -1,
			3 5 1 -1,
			0 6 2 -1,
			2 7 3 -1,
			1 4 0 -1,
			2 3 1 -1,
			5 7 6 -1,
			3 7 5 -1,
			0 4 6 -1,
			2 6 7 -1,
			1 5 4 -1,
		]
		normal Normal { vector [
			-0.577330 -0.577360 0.577360,
			0.577351 -0.577336 0.577364,
			-0.577351 -0.577336 -0.577363,
			0.577330 -0.577360 -0.577360,
			-0.577346 0.577346 0.577358,
			0.577335 0.577350 0.577365,
			-0.577335 0.577350 -0.577365,
			0.577346 0.577346 -0.577359,
		] }
		normalPerVertex TRUE
		solid TRUE
	}
	appearance Appearance {
		material Material {
			diffuseColor 0.2025 0.2025 0.2025
			transparency 0.0000
			shininess 0.7071
		}
	}
}

Shape # Material: mat1
{
	geometry IndexedFaceSet {
		coord Coordinate { point [
			-0.571066 0.320000 2.430447,
			-0.226959 0.320000 2.430447,
			-0.571066 0.320000 1.770414,
			-0.226959 0.320000 1.770414,
			-0.571066 0.560000 2.430447,
			-0.226959 0.560000 2.430447,
			-0.571066 0.560000 1.770414,
			-0.226959 0.560000 1.770414,
		] }
		coordIndex [
			2 1 0 -1,
			5 6 4 -1,
			3 5 1 -1,
			0 6 2 -1,
			2 7 3 -1,
			1 4 0 -1,
			2 3 1 -1,
			5 7 6 -1,
			3 7 5 -1,
			0 4 6 -1,
			2 6 7 -1,
			1 5 4 -1,
		]
		normal Normal { vector [
			-0.577330 -0.577360 0.577360,
			0.577351 -0.577336 0.577364,
			-0.577351 -0.577336 -0.577363,
			0.577330 -0.577360 -0.577360,
			-0.577346 0.577346 0.577358,
			0.577335 0.577350 0.577365,
			-0.577335 0.577350 -0.577365,
			0.577346 0.577346 -0.577359,
		] }
		normalPerVertex TRUE
		solid TRUE
	}
	appearance Appearance {
		material Material {
			diffuseColor 0.2025 0.2025 0.2025
			transparency 0.0000
			shininess 0.7071
		}
	}
}

Shape # Material: mat1
{
	geometry IndexedFaceSet {
		coord Coordinate { point [
			1.131127 0.320000 2.430447,
			1.475234 0.320000 2.430447,
			1.131127 0.320000 1.770414,
			1.475234 0.320000 1.770414,
			1.131127 0.560000 2.430447,
			1.475234 0.560000 2.430447,
			1.131127 0.560000 1.770414,
			1.475234 0.560000 1.770414,
		] }
		coordIndex [
			2 1 0 -1,
			5 6 4 -1,
			3 5 1 -1,
			0 6 2 -1,
			2 7 3 -1,
			1 4 0 -1,
			2 3 1 -1,
			5 7 6 -1,
			3 7 5 -1,
			0 4 6 -1,
			2 6 7 -1,
			1 5 4 -1,
		]
		normal Normal { vector [
			-0.577330 -0.577360 0.577360,
			0.577351 -0.577336 0.577364,
			-0.577351 -0.577336 -0.577363,
			0.577330 -0.577360 -0.577360,
			-0.577346 0.577346 0.577358,
			0.577335 0.577350 0.577365,
			-0.577335 0.577350 -0.577365,
			0.577346 0.577346 -0.577359,
		] }
		normalPerVertex TRUE
		solid TRUE
	}
	appearance Appearance {
		material Material {
			diffuseColor 0.2025 0.2025 0.2025
			transparency 0.0000
			shininess 0.7071
		}
	}
}

Shape # Material: mat1
{
	geometry IndexedFaceSet {
		coord Coordinate { point [
			1.131127 0.320000 3.482024,
			1.475234 0.320000 3.482024,
			1.131127 0.320000 2.821991,
			1.475234 0.320000 2.821991,
			1.131127 0.560000 3.482024,
			1.475234 0.560000 3.482024,
			1.131127 0.560000 2.821991,
			1.475234 0.560000 2.821991,
		] }
		coordIndex [
			2 1 0 -1,
			5 6 4 -1,
			3 5 1 -1,
			0 6 2 -1,
			2 7 3 -1,
			1 4 0 -1,
			2 3 1 -1,
			5 7 6 -1,
			3 7 5 -1,
			0 4 6 -1,
			2 6 7 -1,
			1 5 4 -1,
		]
		normal Normal { vector [
			-0.577330 -0.577360 0.577360,
			0.577351 -0.577336 0.577364,
			-0.577351 -0.577336 -0.577363,
			0.577330 -0.577360 -0.577360,
			-0.577346 0.577346 0.577358,
			0.577335 0.577350 0.577365,
			-0.577335 0.577350 -0.577365,
			0.577346 0.577346 -0.577359,
		] }
		normalPerVertex TRUE
		solid TRUE
	}
	appearance Appearance {
		material Material {
			diffuseColor 0.2025 0.2025 0.2025
			transparency 0.0000
			shininess 0.7071
		}
	}
}

Shape # Material: mat1
{
	geometry IndexedFaceSet {
		coord Coordinate { point [
			-0.586196 0.320000 3.482024,
			-0.242090 0.320000 3.482024,
			-0.586196 0.320000 2.821991,
			-0.242090 0.320000 2.821991,
			-0.586196 0.560000 3.482024,
			-0.242090 0.560000 3.482024,
			-0.586196 0.560000 2.821991,
			-0.242090 0.560000 2.821991,
		] }
		coordIndex [
			2 1 0 -1,
			5 6 4 -1,
			1 4 0 -1,
			3 5 1 -1,
			0 6 2 -1,
			2 7 3 -1,
			2 3 1 -1,
			5 7 6 -1,
			1 5 4 -1,
			3 7 5 -1,
			0 4 6 -1,
			2 6 7 -1,
		]
		normal Normal { vector [
			-0.577330 -0.577360 0.577360,
			0.577351 -0.577336 0.577364,
			-0.577351 -0.577336 -0.577363,
			0.577330 -0.577360 -0.577360,
			-0.577346 0.577346 0.577358,
			0.577335 0.577350 0.577365,
			-0.577335 0.577350 -0.577365,
			0.577346 0.577346 -0.577359,
		] }
		normalPerVertex TRUE
		solid TRUE
	}
	appearance Appearance {
		material Material {
			diffuseColor 0.2025 0.2025 0.2025
			transparency 0.0000
			shininess 0.7071
		}
	}
}

Shape # Material: mat1
{
	geometry IndexedFaceSet {
		coord Coordinate { point [
			-1.183855 0.320000 3.482024,
			-0.839749 0.320000 3.482024,
			-1.183855 0.320000 2.821991,
			-0.839749 0.320000 2.821991,
			-1.183855 0.560000 3.482024,
			-0.839749 0.560000 3.482024,
			-1.183855 0.560000 2.821991,
			-0.839749 0.560000 2.821991,
		] }
		coordIndex [
			2 1 0 -1,
			5 6 4 -1,
			2 7 3 -1,
			1 4 0 -1,
			3 5 1 -1,
			0 6 2 -1,
			2 3 1 -1,
			5 7 6 -1,
			2 6 7 -1,
			1 5 4 -1,
			3 7 5 -1,
			0 4 6 -1,
		]
		normal Normal { vector [
			-0.577330 -0.577360 0.577360,
			0.577351 -0.577336 0.577364,
			-0.577351 -0.577336 -0.577363,
			0.577330 -0.577360 -0.577360,
			-0.577346 0.577346 0.577358,
			0.577335 0.577350 0.577365,
			-0.577335 0.577350 -0.577365,
			0.577346 0.577346 -0.577359,
		] }
		normalPerVertex TRUE
		solid TRUE
	}
	appearance Appearance {
		material Material {
			diffuseColor 0.2025 0.2025 0.2025
			transparency 0.0000
			shininess 0.7071
		}
	}
}

Shape # Material: Material.002
{
	geometry IndexedFaceSet {
		coord Coordinate { point [
			0.034933 0.319999 -2.104800,
			0.718571 0.319999 -2.104800,
			0.034933 0.319999 -2.425303,
			0.718571 0.319999 -2.425303,
			0.034933 0.559999 -2.104800,
			0.718571 0.559999 -2.104800,
			0.034933 0.559999 -2.425303,
			0.718571 0.559999 -2.425303,
		] }
		coordIndex [
			2 1 0 -1,
			5 6 4 -1,
			3 5 1 -1,
			0 6 2 -1,
			2 7 3 -1,
			1 4 0 -1,
			2 3 1 -1,
			5 7 6 -1,
			3 7 5 -1,
			0 4 6 -1,
			2 6 7 -1,
			1 5 4 -1,
		]
		normal Normal { vector [
			-0.577363 -0.577344 0.577344,
			0.577368 -0.577345 0.577338,
			-0.577368 -0.577346 -0.577337,
			0.577363 -0.577344 -0.577344,
			-0.577360 0.577360 0.577330,
			0.577370 0.577329 0.577351,
			-0.577370 0.577329 -0.577351,
			0.577360 0.577360 -0.577330,
		] }
		normalPerVertex TRUE
		solid TRUE
	}
	appearance Appearance {
		material Material {
			diffuseColor 0.8002 0.6438 0.0701
			transparency 0.0000
			shininess 0.6000
		}
	}
}

Shape # Material: Material.002
{
	geometry IndexedFaceSet {
		coord Coordinate { point [
			0.034933 0.319999 -1.551020,
			0.718571 0.319999 -1.551020,
			0.034933 0.319999 -1.871523,
			0.718571 0.319999 -1.871523,
			0.034933 0.559999 -1.551020,
			0.718571 0.559999 -1.551020,
			0.034933 0.559999 -1.871523,
			0.718571 0.559999 -1.871523,
		] }
		coordIndex [
			2 1 0 -1,
			5 6 4 -1,
			3 5 1 -1,
			0 6 2 -1,
			2 7 3 -1,
			1 4 0 -1,
			2 3 1 -1,
			5 7 6 -1,
			3 7 5 -1,
			0 4 6 -1,
			2 6 7 -1,
			1 5 4 -1,
		]
		normal Normal { vector [
			-0.577363 -0.577344 0.577344,
			0.577368 -0.577345 0.577338,
			-0.577368 -0.577346 -0.577337,
			0.577363 -0.577344 -0.577344,
			-0.577360 0.577360 0.577330,
			0.577370 0.577329 0.577351,
			-0.577370 0.577329 -0.577351,
			0.577360 0.577360 -0.577330,
		] }
		normalPerVertex TRUE
		solid TRUE
	}
	appearance Appearance {
		material Material {
			diffuseColor 0.8002 0.6438 0.0701
			transparency 0.0000
			shininess 0.6000
		}
	}
}

Shape # Material: mat1
{
	geometry IndexedFaceSet {
		coord Coordinate { point [
			3.144576 0.319999 -0.775728,
			3.488682 0.319999 -0.775728,
			3.144576 0.319999 -1.435761,
			3.488682 0.319999 -1.435761,
			3.144576 0.559999 -0.775728,
			3.488682 0.559999 -0.775728,
			3.144576 0.559999 -1.435761,
			3.488682 0.559999 -1.435761,
		] }
		coordIndex [
			2 1 0 -1,
			5 6 4 -1,
			0 6 2 -1,
			2 7 3 -1,
			1 4 0 -1,
			3 5 1 -1,
			2 3 1 -1,
			5 7 6 -1,
			0 4 6 -1,
			2 6 7 -1,
			1 5 4 -1,
			3 7 5 -1,
		]
		normal Normal { vector [
			-0.577330 -0.577360 0.577360,
			0.577351 -0.577336 0.577364,
			-0.577351 -0.577336 -0.577363,
			0.577330 -0.577360 -0.577360,
			-0.577346 0.577346 0.577358,
			0.577335 0.577350 0.577365,
			-0.577335 0.577350 -0.577365,
			0.577346 0.577346 -0.577359,
		] }
		normalPerVertex TRUE
		solid TRUE
	}
	appearance Appearance {
		material Material {
			diffuseColor 0.2025 0.2025 0.2025
			transparency 0.0000
			shininess 0.7071
		}
	}
}

Shape # Material: Material
{
	geometry IndexedFaceSet {
		coord Coordinate { point [
			0.230856 0.320000 3.609122,
			0.738374 0.320000 3.609122,
			0.230856 0.320000 2.740286,
			0.738374 0.320000 2.740286,
			0.230856 0.720000 3.609122,
			0.738374 0.720000 3.609122,
			0.230856 0.720000 2.740286,
			0.738374 0.720000 2.740286,
		] }
		coordIndex [
			2 1 0 -1,
			5 6 4 -1,
			3 5 1 -1,
			0 6 2 -1,
			2 7 3 -1,
			1 4 0 -1,
			2 3 1 -1,
			5 7 6 -1,
			3 7 5 -1,
			0 4 6 -1,
			2 6 7 -1,
			1 5 4 -1,
		]
		normal Normal { vector [
			-0.577335 -0.577358 0.577358,
			0.577344 -0.577339 0.577367,
			-0.577344 -0.577339 -0.577367,
			0.577335 -0.577358 -0.577358,
			-0.577343 0.577343 0.577366,
			0.577336 0.577355 0.577360,
			-0.577336 0.577355 -0.577360,
			0.577343 0.577343 -0.577366,
		] }
		normalPerVertex TRUE
		solid TRUE
	}
	appearance Appearance {
		material Material {
			diffuseColor 0.0221 0.0231 0.0211
			transparency 0.0000
			shininess 0.5000
		}
	}
}

Shape # Material: Material
{
	geometry IndexedFaceSet {
		coord Coordinate { point [
			0.230856 0.320000 2.565110,
			0.738374 0.320000 2.565110,
			0.230856 0.320000 1.696274,
			0.738374 0.320000 1.696274,
			0.230856 0.720000 2.565110,
			0.738374 0.720000 2.565110,
			0.230856 0.720000 1.696274,
			0.738374 0.720000 1.696274,
		] }
		coordIndex [
			2 1 0 -1,
			5 6 4 -1,
			1 4 0 -1,
			3 5 1 -1,
			0 6 2 -1,
			2 7 3 -1,
			2 3 1 -1,
			5 7 6 -1,
			1 5 4 -1,
			3 7 5 -1,
			0 4 6 -1,
			2 6 7 -1,
		]
		normal Normal { vector [
			-0.577335 -0.577358 0.577358,
			0.577344 -0.577339 0.577367,
			-0.577344 -0.577339 -0.577367,
			0.577335 -0.577358 -0.577358,
			-0.577343 0.577343 0.577366,
			0.577336 0.577355 0.577360,
			-0.577336 0.577355 -0.577360,
			0.577343 0.577343 -0.577366,
		] }
		normalPerVertex TRUE
		solid TRUE
	}
	appearance Appearance {
		material Material {
			diffuseColor 0.0221 0.0231 0.0211
			transparency 0.0000
			shininess 0.5000
		}
	}
}

Shape # Material: Material.002
{
	geometry IndexedFaceSet {
		coord Coordinate { point [
			-1.585518 0.319999 -0.833829,
			-1.585518 0.319999 -1.177936,
			-2.245552 0.319999 -0.833829,
			-2.245552 0.319999 -1.177936,
			-1.585518 0.560000 -0.833829,
			-1.585518 0.559999 -1.177936,
			-2.245552 0.560000 -0.833829,
			-2.245552 0.559999 -1.177936,
		] }
		coordIndex [
			2 1 0 -1,
			5 6 4 -1,
			2 7 3 -1,
			1 4 0 -1,
			3 5 1 -1,
			0 6 2 -1,
			2 3 1 -1,
			5 7 6 -1,
			2 6 7 -1,
			1 5 4 -1,
			3 7 5 -1,
			0 4 6 -1,
		]
		normal Normal { vector [
			0.577360 -0.577360 0.577330,
			0.577363 -0.577336 -0.577351,
			-0.577363 -0.577336 0.577351,
			-0.577360 -0.577360 -0.577330,
			0.577358 0.577346 0.577346,
			0.577365 0.577350 -0.577335,
			-0.577365 0.577350 0.577335,
			-0.577359 0.577346 -0.577346,
		] }
		normalPerVertex TRUE
		solid TRUE
	}
	appearance Appearance {
		material Material {
			diffuseColor 0.8002 0.6438 0.0701
			transparency 0.0000
			shininess 0.6000
		}
	}
}

Shape # Material: Material.002
{
	geometry IndexedFaceSet {
		coord Coordinate { point [
			-1.585518 0.319999 -0.276890,
			-1.585518 0.319999 -0.620997,
			-2.245552 0.319999 -0.276890,
			-2.245552 0.319999 -0.620997,
			-1.585518 0.560000 -0.276890,
			-1.585518 0.559999 -0.620997,
			-2.245552 0.560000 -0.276890,
			-2.245552 0.559999 -0.620997,
		] }
		coordIndex [
			2 1 0 -1,
			5 6 4 -1,
			3 5 1 -1,
			0 6 2 -1,
			2 7 3 -1,
			1 4 0 -1,
			2 3 1 -1,
			5 7 6 -1,
			3 7 5 -1,
			0 4 6 -1,
			2 6 7 -1,
			1 5 4 -1,
		]
		normal Normal { vector [
			0.577360 -0.577360 0.577330,
			0.577363 -0.577336 -0.577351,
			-0.577363 -0.577336 0.577351,
			-0.577360 -0.577360 -0.577330,
			0.577358 0.577346 0.577346,
			0.577365 0.577350 -0.577335,
			-0.577365 0.577350 0.577335,
			-0.577359 0.577346 -0.577346,
		] }
		normalPerVertex TRUE
		solid TRUE
	}
	appearance Appearance {
		material Material {
			diffuseColor 0.8002 0.6438 0.0701
			transparency 0.0000
			shininess 0.6000
		}
	}
}

Shape # Material: Material.001
{
	geometry IndexedFaceSet {
		coord Coordinate { point [
			4.202992 0.320000 2.281139,
			7.954753 0.320000 2.281139,
			4.202992 0.319999 -2.006609,
			7.954753 0.319999 -2.006609,
			4.202992 6.320000 2.281138,
			7.954753 6.320000 2.281138,
			4.202992 6.319999 -2.006609,
			7.954753 6.319999 -2.006609,
		] }
		coordIndex [
			2 1 0 -1,
			5 6 4 -1,
			2 7 3 -1,
			1 4 0 -1,
			3 5 1 -1,
			0 6 2 -1,
			2 3 1 -1,
			5 7 6 -1,
			2 6 7 -1,
			1 5 4 -1,
			3 7 5 -1,
			0 4 6 -1,
		]
		normal Normal { vector [
			-0.577360 -0.577345 0.577345,
			0.577340 -0.577369 0.577342,
			-0.577340 -0.577369 -0.577341,
			0.577360 -0.577345 -0.577345,
			-0.577350 0.577350 0.577351,
			0.577350 0.577365 0.577336,
			-0.577350 0.577365 -0.577336,
			0.577350 0.577350 -0.577351,
		] }
		normalPerVertex TRUE
		solid TRUE
	}
	appearance Appearance {
		material Material {
			diffuseColor 0.0175 0.4416 0.8006
			transparency 0.0000
			shininess 0.6000
		}
	}
}

Shape # Material: mat0
{
	geometry IndexedFaceSet {
		coord Coordinate { point [
			-6.394719 0.513040 -0.803760,
			-7.642479 1.056324 1.256324,
			-7.999999 0.320001 -0.803760,
			-7.642479 1.056324 1.143676,
			-6.394719 0.320000 -0.803760,
			-7.642479 0.943677 1.256324,
			-7.999999 0.513041 -0.803760,
			-7.642479 0.943677 1.143676,
			-7.999999 0.513041 0.803760,
			-7.522479 0.900001 1.300000,
			-6.394719 0.513041 0.803760,
			-7.522479 1.100001 1.300000,
			-6.394719 0.320001 0.803760,
			-7.522479 1.100001 1.100000,
			-7.999999 0.320001 0.803760,
			-7.522479 0.900001 1.100000,
			-7.999999 0.513041 -1.779120,
			-7.999999 0.320001 -1.972160,
			-7.999999 0.777201 -1.779120,
			-7.999999 0.777201 -1.972160,
			-6.394719 0.513040 -1.779120,
			-7.642479 1.056324 0.456323,
			-7.390399 0.513041 -1.743560,
			-7.642479 1.056324 0.343676,
			-6.394719 0.513040 -1.743560,
			-7.642479 0.943677 0.456323,
			-6.394719 0.513040 -1.530200,
			-7.642479 0.943677 0.343676,
			-7.390399 0.513041 -1.530200,
			-7.522479 0.900001 0.500000,
			-7.390399 0.513041 1.530200,
			-7.522479 1.100001 0.500000,
			-6.394719 0.513041 1.530200,
			-7.522479 1.100001 0.300000,
			-6.394719 0.513041 1.743560,
			-7.522479 0.900001 0.300000,
			-7.390399 0.513041 1.743560,
			-6.394719 0.513041 1.779120,
			-7.999999 0.513041 1.779120,
			-7.390399 0.320001 -1.530200,
			-7.642479 1.056324 -0.343677,
			-7.390399 0.320001 -1.743560,
			-7.642479 1.056324 -0.456324,
			-5.642879 0.320000 -1.972160,
			-5.866399 0.320000 -1.530200,
			-7.642479 0.943677 -0.343677,
			-5.866399 0.320000 -0.869800,
			-7.642479 0.943677 -0.456324,
			-7.522479 0.900001 -0.300000,
			-5.866399 0.320000 -0.730200,
			-5.642879 0.320000 -0.730200,
			-7.522479 1.100001 -0.300000,
			-5.642879 0.320000 -0.869800,
			-7.522479 1.100001 -0.500000,
			-5.866399 0.320000 -0.069800,
			-7.522479 0.900001 -0.500000,
			-7.390399 0.320001 1.530200,
			-7.999999 0.320001 1.972160,
			-5.866399 0.320000 0.069800,
			-7.390399 0.320001 1.743560,
			-5.642879 0.320000 0.069800,
			-7.642479 1.056324 -1.143677,
			-7.642479 1.056324 -1.256324,
			-5.642879 0.320000 -0.069800,
			-5.866399 0.320001 0.730200,
			-7.642479 0.943677 -1.143677,
			-5.866399 0.320001 0.869800,
			-7.642479 0.943677 -1.256324,
			-5.642879 0.320000 0.730200,
			-7.522479 0.900001 -1.300000,
			-5.642879 0.320000 0.869800,
			-7.522479 0.900001 -1.100000,
			-7.522479 1.100001 -1.100000,
			-5.866399 0.320001 1.530200,
			-5.642879 0.320000 -1.743560,
			-7.522479 1.100001 -1.300000,
			-5.642879 0.320001 1.743560,
			-5.642879 0.320001 1.972160,
			-7.999999 0.777201 1.972160,
			-7.999999 0.777201 1.779120,
			-4.423679 0.944376 -1.255625,
			-7.126239 0.777201 1.972160,
			-4.423679 1.055625 -1.144375,
			-7.999999 2.189441 1.972160,
			-4.423679 0.944376 -1.144375,
			-7.999999 1.285201 1.972160,
			-4.423679 1.055625 -1.255625,
			-7.126239 1.285201 1.972160,
			-4.545599 1.100000 -1.300000,
			-5.642879 2.189440 1.972160,
			-4.545599 1.100000 -1.100000,
			-7.126239 0.777201 1.779120,
			-7.999999 1.996401 1.779120,
			-4.545599 0.900000 -1.300000,
			-7.126239 1.285201 1.779120,
			-4.545599 0.900000 -1.100000,
			-7.999999 1.285201 1.779120,
			-6.394719 1.996401 1.779120,
			-5.642879 0.513040 -1.743560,
			-5.642879 0.900000 -1.530200,
			-5.642879 0.513040 -1.530200,
			-4.423679 0.944376 -0.455625,
			-5.642879 1.100000 -1.530200,
			-4.423679 1.055625 -0.344375,
			-5.642879 1.100000 -1.300000,
			-4.423679 0.944376 -0.344375,
			-5.642879 0.900000 -1.300000,
			-4.423679 1.055625 -0.455625,
			-5.642879 2.189440 -1.972160,
			-4.545599 0.900000 -0.500000,
			-4.545599 1.100000 -0.500000,
			-5.642879 2.189440 -1.530200,
			-4.545599 0.900000 -0.300000,
			-5.866399 2.189440 1.530200,
			-4.545599 1.100000 -0.300000,
			-5.642879 2.189440 1.530200,
			-5.642879 1.100001 1.530200,
			-5.642879 2.189440 0.869800,
			-5.866399 2.189440 0.869800,
			-5.642879 1.100001 0.869800,
			-4.423679 0.944376 0.344375,
			-5.642879 0.900001 0.730200,
			-4.423679 1.055625 0.455625,
			-5.642879 0.900001 0.869800,
			-5.642879 1.100001 1.100000,
			-4.423679 0.944376 0.455625,
			-4.423679 1.055625 0.344375,
			-5.642879 0.900001 1.100000,
			-4.545599 0.900000 0.300000,
			-5.642879 1.100001 0.730200,
			-4.545599 1.100000 0.300000,
			-5.642879 1.100001 0.500000,
			-4.545599 0.900000 0.500000,
			-5.642879 0.900001 0.500000,
			-4.545599 1.100000 0.500000,
			-5.642879 2.189440 0.730200,
			-5.642879 0.513041 1.743560,
			-5.642879 0.900001 1.530200,
			-5.642879 0.513041 1.530200,
			-5.642879 1.100001 1.300000,
			-4.423679 0.944376 1.144375,
			-5.642879 0.900001 1.300000,
			-4.423679 1.055625 1.255625,
			-5.866399 2.189440 -1.530200,
			-5.866399 2.189440 -0.730200,
			-4.423679 0.944376 1.255625,
			-5.642879 2.189440 -0.730200,
			-4.423679 1.055625 1.144375,
			-5.642879 2.189440 -0.869800,
			-4.545599 0.900000 1.100000,
			-5.866399 2.189440 -0.869800,
			-4.545599 1.100001 1.100000,
			-5.866399 2.189440 -0.069800,
			-4.545599 0.900000 1.300000,
			-5.642879 2.189440 0.069800,
			-4.545599 1.100001 1.300000,
			-5.642879 2.189440 -0.069800,
			-5.866399 2.189440 0.069800,
			-7.999999 2.189440 -1.972160,
			-5.866399 2.189440 0.730200,
			-5.642879 1.100001 0.069800,
			-5.642879 0.900000 -0.069800,
			-5.642879 0.900000 0.069800,
			-5.642879 1.100001 0.300000,
			-5.642879 0.900001 0.300000,
			-5.642879 1.100001 -0.069800,
			-5.642879 1.100001 -0.300000,
			-5.642879 0.900000 -0.300000,
			-5.642879 1.100001 -0.730200,
			-5.642879 0.900000 -0.869800,
			-5.642879 0.900000 -0.730200,
			-5.642879 1.100001 -0.500000,
			-5.642879 0.900000 -0.500000,
			-5.642879 1.100000 -0.869800,
			-5.642879 1.100000 -1.100000,
			-5.642879 0.900000 -1.100000,
			-7.126239 0.777201 -1.972160,
			-7.126239 1.285200 -1.972160,
			-7.999999 1.285201 -1.972160,
			-6.394719 1.996400 -1.779120,
			-7.126239 1.285200 -1.779120,
			-7.126239 0.777201 -1.779120,
			-7.999999 1.996401 -1.779120,
			-7.999999 1.285201 -1.779120,
			-6.394719 0.900001 1.300000,
			-6.394719 0.900001 1.100000,
			-6.394719 1.100001 1.300000,
			-6.394719 1.100001 1.100000,
			-6.394719 0.900001 0.500000,
			-6.394719 1.100001 0.500000,
			-6.394719 0.900001 0.300000,
			-6.394719 1.100001 0.300000,
			-6.394719 0.900001 -0.300000,
			-6.394719 1.100001 -0.300000,
			-6.394719 0.900001 -0.500000,
			-6.394719 1.100001 -0.500000,
			-6.394719 0.900001 -1.100000,
			-6.394719 0.900000 -1.300000,
			-6.394719 1.100001 -1.100000,
			-6.394719 1.100001 -1.300000,
			-5.792006 0.513040 -1.530200,
			-5.792006 0.513041 1.530200,
		] }
		coordIndex [
			0 2 4 -1,
			0 6 2 -1,
			8 10 12 -1,
			8 12 14 -1,
			2 16 17 -1,
			6 16 2 -1,
			18 19 16 -1,
			16 19 17 -1,
			20 22 24 -1,
			26 28 0 -1,
			22 16 28 -1,
			28 6 0 -1,
			16 6 28 -1,
			20 16 22 -1,
			10 30 32 -1,
			8 30 10 -1,
			34 36 37 -1,
			30 38 36 -1,
			8 38 30 -1,
			38 37 36 -1,
			39 17 41 -1,
			2 17 39 -1,
			43 41 17 -1,
			4 39 44 -1,
			4 2 39 -1,
			46 4 44 -1,
			49 4 46 -1,
			50 46 52 -1,
			50 49 46 -1,
			54 4 49 -1,
			56 57 14 -1,
			58 4 54 -1,
			59 57 56 -1,
			12 4 58 -1,
			12 56 14 -1,
			60 54 63 -1,
			60 58 54 -1,
			64 12 58 -1,
			66 12 64 -1,
			68 66 64 -1,
			70 66 68 -1,
			73 56 12 -1,
			73 12 66 -1,
			74 41 43 -1,
			59 76 77 -1,
			77 57 59 -1,
			57 78 38 -1,
			78 79 38 -1,
			38 14 57 -1,
			38 8 14 -1,
			81 78 57 -1,
			83 85 87 -1,
			77 87 81 -1,
			77 81 57 -1,
			89 83 87 -1,
			89 87 77 -1,
			79 91 38 -1,
			91 37 38 -1,
			92 94 96 -1,
			91 94 37 -1,
			92 97 94 -1,
			94 97 37 -1,
			43 98 74 -1,
			99 100 98 -1,
			102 104 106 -1,
			102 106 99 -1,
			102 98 43 -1,
			102 99 98 -1,
			108 111 102 -1,
			108 102 43 -1,
			113 115 116 -1,
			117 118 119 -1,
			121 123 70 -1,
			121 70 68 -1,
			119 124 127 -1,
			119 127 123 -1,
			129 119 123 -1,
			129 123 121 -1,
			131 121 133 -1,
			131 129 121 -1,
			135 117 119 -1,
			135 119 129 -1,
			136 77 76 -1,
			137 136 138 -1,
			116 77 136 -1,
			116 136 137 -1,
			139 137 141 -1,
			139 116 137 -1,
			89 77 116 -1,
			115 89 116 -1,
			143 111 108 -1,
			144 146 148 -1,
			144 148 150 -1,
			152 154 156 -1,
			157 154 152 -1,
			158 152 144 -1,
			158 150 143 -1,
			158 143 108 -1,
			158 144 150 -1,
			158 157 152 -1,
			118 117 135 -1,
			118 135 159 -1,
			89 115 113 -1,
			83 113 118 -1,
			83 159 157 -1,
			83 157 158 -1,
			83 118 159 -1,
			83 89 113 -1,
			159 135 129 -1,
			154 157 160 -1,
			161 162 60 -1,
			161 60 63 -1,
			160 163 164 -1,
			160 164 162 -1,
			165 160 162 -1,
			165 162 161 -1,
			166 161 167 -1,
			166 165 161 -1,
			156 154 160 -1,
			156 160 165 -1,
			152 156 165 -1,
			146 144 168 -1,
			169 170 50 -1,
			169 50 52 -1,
			168 171 172 -1,
			168 172 170 -1,
			173 168 170 -1,
			173 170 169 -1,
			174 169 175 -1,
			174 173 169 -1,
			148 146 168 -1,
			148 168 173 -1,
			150 148 173 -1,
			111 143 102 -1,
			17 176 43 -1,
			177 108 43 -1,
			177 43 176 -1,
			19 176 17 -1,
			158 177 178 -1,
			158 108 177 -1,
			179 180 20 -1,
			20 180 181 -1,
			181 16 20 -1,
			181 18 16 -1,
			180 182 183 -1,
			179 182 180 -1,
			92 182 97 -1,
			97 182 179 -1,
			85 92 96 -1,
			85 83 92 -1,
			183 182 178 -1,
			182 158 178 -1,
			83 158 92 -1,
			92 158 182 -1,
			184 34 37 -1,
			184 32 34 -1,
			185 10 32 -1,
			184 185 32 -1,
			186 184 37 -1,
			187 186 97 -1,
			186 37 97 -1,
			188 10 185 -1,
			189 185 187 -1,
			189 188 185 -1,
			189 187 97 -1,
			190 12 10 -1,
			188 190 10 -1,
			191 189 97 -1,
			192 4 12 -1,
			190 192 12 -1,
			0 4 192 -1,
			193 190 191 -1,
			193 192 190 -1,
			194 0 192 -1,
			196 194 195 -1,
			196 0 194 -1,
			196 26 0 -1,
			197 26 196 -1,
			198 196 195 -1,
			24 26 197 -1,
			20 24 197 -1,
			20 197 199 -1,
			179 199 198 -1,
			179 195 193 -1,
			179 191 97 -1,
			179 193 191 -1,
			179 198 195 -1,
			179 20 199 -1,
			18 176 19 -1,
			18 181 176 -1,
			181 177 176 -1,
			181 180 177 -1,
			180 178 177 -1,
			180 183 178 -1,
			169 52 46 -1,
			99 200 100 -1,
			143 104 102 -1,
			174 150 173 -1,
			104 150 174 -1,
			143 150 104 -1,
			46 44 200 -1,
			99 106 200 -1,
			175 46 200 -1,
			106 175 200 -1,
			175 169 46 -1,
			161 63 54 -1,
			170 49 50 -1,
			144 171 168 -1,
			166 152 165 -1,
			171 152 166 -1,
			144 152 171 -1,
			170 172 49 -1,
			167 54 49 -1,
			172 167 49 -1,
			167 161 54 -1,
			121 68 64 -1,
			162 58 60 -1,
			157 163 160 -1,
			131 159 129 -1,
			163 159 131 -1,
			157 159 163 -1,
			162 164 58 -1,
			133 64 58 -1,
			164 133 58 -1,
			133 121 64 -1,
			137 138 201 -1,
			123 66 70 -1,
			118 124 119 -1,
			139 113 116 -1,
			124 113 139 -1,
			118 113 124 -1,
			123 127 66 -1,
			201 73 66 -1,
			127 201 66 -1,
			141 201 127 -1,
			141 137 201 -1,
			28 26 39 -1,
			26 44 39 -1,
			26 200 44 -1,
			200 26 24 -1,
			200 24 98 -1,
			100 200 98 -1,
			22 28 41 -1,
			41 28 39 -1,
			98 24 74 -1,
			24 41 74 -1,
			24 22 41 -1,
			201 34 32 -1,
			136 201 138 -1,
			136 34 201 -1,
			201 32 73 -1,
			32 56 73 -1,
			32 30 56 -1,
			36 34 59 -1,
			34 76 59 -1,
			34 136 76 -1,
			30 36 56 -1,
			56 36 59 -1,
			78 81 91 -1,
			78 91 79 -1,
			87 85 96 -1,
			87 96 94 -1,
			81 87 94 -1,
			81 94 91 -1,
			1 3 5 -1,
			5 3 7 -1,
			1 5 9 -1,
			11 1 9 -1,
			11 13 3 -1,
			1 11 3 -1,
			13 15 7 -1,
			3 13 7 -1,
			5 7 15 -1,
			9 5 15 -1,
			9 184 186 -1,
			9 186 11 -1,
			13 11 186 -1,
			13 186 187 -1,
			15 13 187 -1,
			15 187 185 -1,
			15 185 9 -1,
			185 184 9 -1,
			21 23 25 -1,
			25 23 27 -1,
			21 25 29 -1,
			31 21 29 -1,
			31 33 23 -1,
			21 31 23 -1,
			33 35 27 -1,
			23 33 27 -1,
			25 27 35 -1,
			29 25 35 -1,
			29 188 189 -1,
			29 189 31 -1,
			33 31 189 -1,
			33 189 191 -1,
			35 33 191 -1,
			35 191 190 -1,
			35 190 29 -1,
			190 188 29 -1,
			40 42 45 -1,
			45 42 47 -1,
			40 45 48 -1,
			51 40 48 -1,
			51 53 42 -1,
			40 51 42 -1,
			53 55 47 -1,
			42 53 47 -1,
			45 47 55 -1,
			48 45 55 -1,
			48 192 193 -1,
			48 193 51 -1,
			53 51 193 -1,
			53 193 195 -1,
			55 53 195 -1,
			55 195 194 -1,
			55 194 48 -1,
			194 192 48 -1,
			61 62 65 -1,
			65 62 67 -1,
			65 67 69 -1,
			71 65 69 -1,
			61 65 71 -1,
			72 61 71 -1,
			72 75 62 -1,
			61 72 62 -1,
			75 69 67 -1,
			62 75 67 -1,
			69 197 71 -1,
			197 196 71 -1,
			71 196 198 -1,
			71 198 72 -1,
			75 72 198 -1,
			75 198 199 -1,
			69 75 199 -1,
			69 199 197 -1,
			80 82 84 -1,
			86 82 80 -1,
			82 86 88 -1,
			90 82 88 -1,
			86 80 93 -1,
			88 86 93 -1,
			95 93 80 -1,
			84 95 80 -1,
			90 95 84 -1,
			82 90 84 -1,
			175 90 174 -1,
			175 95 90 -1,
			106 93 175 -1,
			93 95 175 -1,
			106 104 88 -1,
			106 88 93 -1,
			104 174 90 -1,
			104 90 88 -1,
			101 103 105 -1,
			107 103 101 -1,
			107 101 109 -1,
			110 107 109 -1,
			112 109 101 -1,
			105 112 101 -1,
			114 112 105 -1,
			103 114 105 -1,
			103 107 110 -1,
			114 103 110 -1,
			171 166 114 -1,
			171 114 110 -1,
			167 114 166 -1,
			167 112 114 -1,
			172 109 167 -1,
			109 112 167 -1,
			172 171 110 -1,
			172 110 109 -1,
			120 122 125 -1,
			126 122 120 -1,
			126 120 128 -1,
			130 126 128 -1,
			132 128 120 -1,
			125 132 120 -1,
			134 132 125 -1,
			122 134 125 -1,
			122 126 130 -1,
			134 122 130 -1,
			163 131 134 -1,
			163 134 130 -1,
			133 134 131 -1,
			133 132 134 -1,
			164 128 133 -1,
			128 132 133 -1,
			164 163 130 -1,
			164 130 128 -1,
			140 142 145 -1,
			147 142 140 -1,
			147 140 149 -1,
			151 147 149 -1,
			153 149 140 -1,
			145 153 140 -1,
			155 153 145 -1,
			142 155 145 -1,
			142 147 151 -1,
			155 142 151 -1,
			124 139 155 -1,
			124 155 151 -1,
			141 155 139 -1,
			141 153 155 -1,
			127 149 141 -1,
			149 153 141 -1,
			127 124 151 -1,
			127 151 149 -1,
		]
		normal Normal { vector [
			-0.904529 0.301522 0.301516,
			-0.750816 0.467058 0.467046,
			-0.577332 -0.577372 0.577348,
			-0.750826 0.467038 -0.467049,
			-0.301522 -0.904532 0.301507,
			-0.750826 -0.467038 0.467050,
			-0.577341 0.577368 0.577341,
			-0.750816 -0.467058 -0.467046,
			-0.577340 0.577367 -0.577344,
			-0.214250 -0.690676 0.690698,
			-0.904529 0.301523 -0.301514,
			-0.214248 0.690698 0.690676,
			-0.301506 -0.904537 -0.301508,
			-0.214249 0.690673 -0.690701,
			-0.577333 -0.577373 -0.577346,
			-0.214249 -0.690701 -0.690673,
			-0.904542 0.301497 0.301502,
			-0.577385 -0.577328 -0.577338,
			-0.577356 0.577339 0.577356,
			-0.577361 0.577345 -0.577345,
			-0.577357 0.577352 0.577341,
			-0.750816 0.467058 0.467046,
			0.301513 0.904533 0.301513,
			-0.750826 0.467038 -0.467050,
			-0.707114 0.000019 0.707099,
			-0.750826 -0.467038 0.467049,
			-0.707118 0.000000 -0.707096,
			-0.750816 -0.467058 -0.467046,
			0.301531 0.904526 -0.301515,
			-0.214250 -0.690676 0.690698,
			0.301517 0.904531 0.301516,
			-0.214248 0.690698 0.690676,
			-0.707118 0.000000 0.707096,
			-0.214249 0.690673 -0.690701,
			-0.707114 0.000019 -0.707099,
			-0.214249 -0.690701 -0.690673,
			0.301528 0.904529 -0.301511,
			-0.577357 0.577352 -0.577341,
			-0.904542 0.301497 -0.301502,
			0.301510 -0.904537 -0.301503,
			-0.750816 0.467058 0.467046,
			0.301525 -0.904532 0.301503,
			-0.750826 0.467038 -0.467050,
			0.577361 -0.577362 -0.577327,
			0.453030 -0.660109 -0.599182,
			-0.750826 -0.467038 0.467049,
			0.261375 -0.941098 -0.214517,
			-0.750816 -0.467058 -0.467046,
			-0.214250 -0.690676 0.690698,
			0.261373 -0.941098 0.214518,
			0.577336 -0.577358 0.577357,
			-0.214248 0.690698 0.690676,
			0.577350 -0.577350 -0.577350,
			-0.214249 0.690673 -0.690701,
			0.261371 -0.941099 -0.214518,
			-0.214249 -0.690701 -0.690673,
			0.301524 -0.904533 0.301502,
			-0.577385 -0.577328 0.577338,
			0.261369 -0.941100 0.214515,
			0.301511 -0.904537 -0.301504,
			0.577336 -0.577358 0.577357,
			-0.750816 0.467058 0.467046,
			-0.750826 0.467038 -0.467050,
			0.577350 -0.577350 -0.577350,
			0.261372 -0.941099 -0.214518,
			-0.750827 -0.467038 0.467049,
			0.261375 -0.941098 0.214518,
			-0.750816 -0.467058 -0.467046,
			0.577350 -0.577351 -0.577350,
			-0.214249 -0.690701 -0.690673,
			0.577336 -0.577357 0.577357,
			-0.214250 -0.690676 0.690698,
			-0.214248 0.690698 0.690676,
			0.453030 -0.660109 0.599182,
			0.577358 -0.577358 0.577335,
			-0.214249 0.690673 -0.690701,
			0.577358 -0.577358 -0.577335,
			0.577361 -0.577362 0.577328,
			-0.577367 0.577333 0.577350,
			-0.577350 0.577350 -0.577350,
			0.750826 -0.467038 -0.467049,
			-0.301498 0.301514 0.904538,
			0.750827 0.467038 0.467049,
			-0.577374 0.577304 0.577374,
			0.750816 -0.467058 0.467046,
			-0.577333 -0.577359 0.577359,
			0.750816 0.467057 -0.467046,
			-0.301512 -0.301502 0.904537,
			0.214249 0.690701 -0.690673,
			0.577337 0.577349 0.577365,
			0.214251 0.690676 0.690697,
			-0.301514 0.301505 -0.904535,
			-0.904528 -0.301514 -0.301528,
			0.214249 -0.690673 -0.690701,
			-0.301496 -0.301511 -0.904539,
			0.214249 -0.690698 0.690677,
			-0.577356 -0.577339 -0.577356,
			-0.577324 -0.577335 -0.577392,
			0.904531 -0.301519 0.301512,
			0.994101 -0.090890 0.059182,
			0.577350 -0.577350 0.577350,
			0.750826 -0.467038 -0.467049,
			0.998206 0.050413 0.032307,
			0.750826 0.467038 0.467049,
			0.864304 0.409475 -0.292076,
			0.750816 -0.467057 0.467046,
			0.821583 -0.492790 -0.286634,
			0.750816 0.467057 -0.467046,
			0.577337 0.577348 -0.577365,
			0.214249 -0.690673 -0.690701,
			0.214249 0.690701 -0.690673,
			0.577350 0.577350 0.577350,
			0.214248 -0.690698 0.690677,
			0.283181 0.925406 -0.251859,
			0.214250 0.690676 0.690697,
			0.577350 0.577350 -0.577350,
			0.998206 0.050414 -0.032308,
			0.577350 0.577350 0.577350,
			0.283193 0.925403 0.251856,
			0.998206 0.050412 0.032307,
			0.750826 -0.467038 -0.467049,
			0.994101 -0.090889 -0.059182,
			0.750826 0.467038 0.467049,
			0.994101 -0.090889 0.059182,
			0.864304 0.409475 -0.292076,
			0.750816 -0.467057 0.467046,
			0.750816 0.467057 -0.467046,
			0.821582 -0.492791 -0.286636,
			0.214249 -0.690673 -0.690701,
			0.998206 0.050412 -0.032307,
			0.214249 0.690701 -0.690673,
			0.864307 0.409473 0.292071,
			0.214248 -0.690698 0.690677,
			0.821580 -0.492793 0.286640,
			0.214250 0.690676 0.690697,
			0.577351 0.577351 -0.577349,
			0.904531 -0.301519 -0.301512,
			0.994101 -0.090889 -0.059181,
			0.577350 -0.577350 -0.577350,
			0.864307 0.409473 0.292071,
			0.750827 -0.467038 -0.467049,
			0.821580 -0.492792 0.286638,
			0.750826 0.467038 0.467049,
			0.283194 0.925402 0.251857,
			0.283193 0.925403 0.251856,
			0.750816 -0.467057 0.467046,
			0.577350 0.577350 0.577350,
			0.750817 0.467057 -0.467046,
			0.577351 0.577351 -0.577349,
			0.214250 -0.690673 -0.690701,
			0.283180 0.925406 -0.251858,
			0.214250 0.690701 -0.690673,
			0.283180 0.925406 -0.251858,
			0.214248 -0.690698 0.690677,
			0.577350 0.577351 0.577350,
			0.214250 0.690676 0.690697,
			0.577351 0.577350 -0.577350,
			0.283187 0.925406 0.251851,
			-0.577371 0.577304 -0.577376,
			0.283180 0.925406 -0.251858,
			0.998206 0.050412 0.032307,
			0.994101 -0.090889 -0.059182,
			0.994101 -0.090889 0.059182,
			0.864304 0.409475 -0.292076,
			0.821583 -0.492790 -0.286634,
			0.998206 0.050412 -0.032307,
			0.864307 0.409473 0.292071,
			0.821580 -0.492793 0.286640,
			0.998206 0.050412 0.032307,
			0.994101 -0.090889 -0.059182,
			0.994101 -0.090889 0.059182,
			0.864304 0.409475 -0.292076,
			0.821583 -0.492790 -0.286634,
			0.998206 0.050412 -0.032307,
			0.864307 0.409473 0.292071,
			0.821579 -0.492793 0.286640,
			-0.301513 0.301504 -0.904536,
			-0.301497 -0.301512 -0.904539,
			-0.577339 -0.577347 -0.577365,
			-0.577299 -0.577359 0.577392,
			-0.301511 -0.301501 0.904538,
			-0.301499 0.301514 0.904537,
			-0.904532 -0.301502 0.301528,
			-0.577350 -0.577350 0.577350,
			-0.904532 -0.301515 0.301515,
			-0.904536 -0.301506 -0.301510,
			-0.904540 0.301502 0.301502,
			-0.904535 0.301512 -0.301507,
			-0.904534 -0.301511 0.301511,
			-0.904534 0.301512 0.301512,
			-0.904531 -0.301514 -0.301518,
			-0.904534 0.301514 -0.301509,
			-0.904534 -0.301512 0.301512,
			-0.904534 0.301512 0.301512,
			-0.904535 -0.301507 -0.301512,
			-0.904532 0.301516 -0.301512,
			-0.904535 -0.301510 0.301510,
			-0.904533 -0.301511 -0.301515,
			-0.904536 0.301508 0.301508,
			-0.904539 0.301506 -0.301502,
			0.565853 -0.824506 0.000000,
			0.565853 -0.824506 0.000000,
		] }
		normalPerVertex TRUE
		solid TRUE
	}
	appearance Appearance {
		material Material {
			diffuseColor 1.0000 1.0000 1.0000
			transparency 0.0000
			shininess 0.7071
		}
	}
}

