#VRML V2.0 utf8
# Exportiert mit Blender-WRL-Export (The Real API Fix)

Shape # Material: Weis
{
	geometry IndexedFaceSet {
		coord Coordinate { point [
			-0.880000 1.720000 -5.180000,
			3.920000 1.720000 -5.180000,
			3.920000 1.720000 -1.980000,
			-0.880000 1.720000 -1.980000,
			3.400000 1.720000 -5.180000,
			3.400000 1.720000 -1.980000,
		] }
		coordIndex [
			0 5 4 -1,
			4 2 1 -1,
			0 3 5 -1,
			4 5 2 -1,
		]
		normal Normal { vector [
			0.000000 1.000000 -0.000000,
			0.000000 1.000000 -0.000000,
			0.000000 1.000000 -0.000000,
			0.000000 1.000000 -0.000000,
			0.000000 1.000000 -0.000000,
			0.000000 1.000000 -0.000000,
		] }
		normalPerVertex TRUE
		solid TRUE
	}
	appearance Appearance {
		material Material {
			diffuseColor 0.8000 0.8000 0.8000
			transparency 0.0000
			shininess 0.5000
		}
	}
}

Shape # Material: Gold
{
	geometry IndexedFaceSet {
		coord Coordinate { point [
			3.920000 1.720000 -5.180000,
			3.920000 -1.760000 -5.180000,
			3.920000 1.720000 5.180000,
			3.920000 -1.760000 5.180000,
			-3.920000 -1.760000 -5.180000,
			-3.920000 1.720000 5.180000,
			-3.920000 -1.760000 5.180000,
			-0.880000 -1.760000 -5.180000,
			-0.880000 1.720000 5.180000,
			-0.880000 -1.760000 5.180000,
			-0.880000 1.720000 -5.180000,
			-3.920000 -1.760000 -1.980000,
			3.920000 1.720000 -1.980000,
			-3.920000 1.720000 -1.980000,
			3.920000 -1.760000 -1.980000,
			-0.880000 1.720000 -1.980000,
			-0.880000 1.720000 -5.180000,
			3.920000 1.720000 -5.180000,
			3.920000 1.720000 -1.980000,
			-0.880000 1.720000 -1.980000,
			-0.880000 1.760000 5.180000,
			-3.920000 1.760000 5.180000,
			3.920000 1.760000 -1.980000,
			3.920000 1.760000 5.180000,
			-3.920000 1.760000 -1.980000,
			-3.320000 0.524000 -1.980000,
			-0.880000 1.760000 -5.180000,
			-0.880000 1.760000 -1.980000,
			-3.920000 -1.760000 -1.380000,
			3.920000 1.720000 -1.380000,
			-3.920000 1.720000 -1.380000,
			3.920000 -1.760000 -1.379999,
			3.920000 1.760000 -1.380000,
			-0.880000 1.760000 -1.380000,
			-3.920000 1.760000 -1.380000,
			3.920000 0.524000 -5.180000,
			-3.920000 0.524000 5.180000,
			3.920000 0.524000 5.180000,
			-3.920000 0.524000 -5.180000,
			-0.880000 0.524000 -5.180000,
			-0.880000 0.524000 5.180000,
			3.920000 0.524000 -1.980000,
			-3.920000 0.524000 -1.980000,
			-3.920000 0.524000 -1.380000,
			3.920000 0.524000 -1.380000,
			-3.320000 -1.760000 -5.180000,
			-3.320000 1.720000 5.180000,
			-3.320000 -1.760000 5.180000,
			-3.320000 1.720000 -5.180000,
			-3.320000 1.760000 5.180000,
			-3.320000 1.760000 -5.180000,
			-3.320000 1.760000 -1.980000,
			-3.320000 1.760000 -1.380000,
			-3.320000 0.524000 -5.180000,
			-3.320000 0.524000 5.180000,
			-3.320000 1.720000 -1.980000,
			-3.920000 -1.760000 1.220000,
			3.920000 1.720000 1.220000,
			3.920000 1.760000 1.220000,
			-0.880000 1.760000 1.220000,
			-3.920000 1.720000 1.220000,
			3.920000 -1.760000 1.220001,
			-3.920000 1.760000 1.220000,
			-3.920000 0.524000 1.220001,
			3.920000 0.524000 1.220000,
			-3.320000 1.760000 1.220000,
			3.400000 -1.760000 5.180000,
			3.400000 1.720000 -5.180000,
			3.400000 -1.760000 -5.180000,
			3.400000 1.720000 5.180000,
			3.400000 1.720000 -1.980000,
			3.400000 1.720000 -5.180000,
			3.400000 1.720000 -1.980000,
			3.400000 1.760000 5.180000,
			3.400000 1.760000 -1.980000,
			3.400000 1.760000 -1.380000,
			3.400000 0.524000 5.180000,
			3.400000 0.524000 -5.180000,
			3.400000 1.760000 1.220000,
			3.400000 0.524000 -1.380000,
			3.400000 0.524000 1.220000,
			3.400000 1.720000 -1.380000,
			3.400000 1.720000 1.220000,
			-3.920000 -1.760000 1.220000,
			-3.920000 -1.760000 5.180000,
			-2.640000 -1.760000 -5.180000,
			-3.920000 -1.760000 -5.180000,
			2.640000 -1.760000 5.180000,
			3.920000 -1.760000 5.180000,
			3.920000 -1.760000 -1.980000,
			3.920000 -1.760000 -5.180000,
			2.640000 -1.760000 -5.180000,
			-0.880000 -1.760000 -5.180000,
			-2.640000 -1.760000 5.180000,
			-0.880000 -1.760000 5.180000,
			-3.920000 -1.760000 -1.980000,
			3.920000 -1.760000 -1.379999,
			-3.920000 -1.760000 -1.380000,
			3.920000 -1.760000 1.220001,
		] }
		coordIndex [
			12 32 29 -1,
			46 36 54 -1,
			28 95 97 -1,
			57 37 64 -1,
			67 35 77 -1,
			48 39 53 -1,
			47 84 93 -1,
			69 40 76 -1,
			10 19 16 -1,
			61 88 98 -1,
			0 41 35 -1,
			4 85 86 -1,
			30 42 43 -1,
			5 62 60 -1,
			67 16 71 -1,
			12 17 18 -1,
			70 18 72 -1,
			62 49 65 -1,
			59 73 78 -1,
			38 25 53 -1,
			10 27 15 -1,
			8 49 46 -1,
			15 74 70 -1,
			2 73 69 -1,
			27 75 74 -1,
			24 52 51 -1,
			30 24 13 -1,
			60 43 63 -1,
			3 87 88 -1,
			12 44 41 -1,
			45 92 85 -1,
			41 31 14 -1,
			56 43 28 -1,
			28 42 11 -1,
			35 14 1 -1,
			76 9 66 -1,
			53 7 45 -1,
			77 1 68 -1,
			64 3 61 -1,
			42 4 11 -1,
			54 6 47 -1,
			40 47 9 -1,
			38 45 4 -1,
			6 83 84 -1,
			51 33 27 -1,
			48 26 10 -1,
			46 21 5 -1,
			50 27 26 -1,
			65 20 59 -1,
			14 96 89 -1,
			68 90 91 -1,
			8 54 40 -1,
			25 13 55 -1,
			24 55 13 -1,
			55 53 25 -1,
			55 50 48 -1,
			31 98 96 -1,
			52 59 33 -1,
			31 64 61 -1,
			36 56 6 -1,
			57 23 2 -1,
			5 63 36 -1,
			33 78 75 -1,
			34 65 52 -1,
			60 34 30 -1,
			9 93 94 -1,
			56 97 83 -1,
			66 94 87 -1,
			44 80 64 -1,
			39 68 7 -1,
			37 66 3 -1,
			11 86 95 -1,
			74 32 22 -1,
			69 20 8 -1,
			70 22 12 -1,
			78 23 58 -1,
			15 72 19 -1,
			0 71 17 -1,
			7 91 92 -1,
			2 76 37 -1,
			10 77 39 -1,
			1 89 90 -1,
			82 75 78 -1,
			82 58 57 -1,
			81 32 75 -1,
			81 44 29 -1,
			64 82 57 -1,
			79 82 80 -1,
			12 22 32 -1,
			46 5 36 -1,
			28 11 95 -1,
			57 2 37 -1,
			67 0 35 -1,
			48 10 39 -1,
			47 6 84 -1,
			69 8 40 -1,
			10 15 19 -1,
			61 3 88 -1,
			0 12 41 -1,
			4 45 85 -1,
			30 13 42 -1,
			5 21 62 -1,
			67 10 16 -1,
			12 0 17 -1,
			70 12 18 -1,
			62 21 49 -1,
			59 20 73 -1,
			38 42 25 -1,
			10 26 27 -1,
			8 20 49 -1,
			15 27 74 -1,
			2 23 73 -1,
			27 33 75 -1,
			24 34 52 -1,
			30 34 24 -1,
			60 30 43 -1,
			3 66 87 -1,
			12 29 44 -1,
			45 7 92 -1,
			41 44 31 -1,
			56 63 43 -1,
			28 43 42 -1,
			35 41 14 -1,
			76 40 9 -1,
			53 39 7 -1,
			77 35 1 -1,
			64 37 3 -1,
			42 38 4 -1,
			54 36 6 -1,
			40 54 47 -1,
			38 53 45 -1,
			6 56 83 -1,
			51 52 33 -1,
			48 50 26 -1,
			46 49 21 -1,
			50 51 27 -1,
			65 49 20 -1,
			14 31 96 -1,
			68 1 90 -1,
			8 46 54 -1,
			25 42 13 -1,
			24 51 55 -1,
			55 48 53 -1,
			55 51 50 -1,
			31 61 98 -1,
			52 65 59 -1,
			31 44 64 -1,
			36 63 56 -1,
			57 58 23 -1,
			5 60 63 -1,
			33 59 78 -1,
			34 62 65 -1,
			60 62 34 -1,
			9 47 93 -1,
			56 28 97 -1,
			66 9 94 -1,
			44 79 80 -1,
			39 77 68 -1,
			37 76 66 -1,
			11 4 86 -1,
			74 75 32 -1,
			69 73 20 -1,
			70 74 22 -1,
			78 73 23 -1,
			15 70 72 -1,
			0 67 71 -1,
			7 68 91 -1,
			2 69 76 -1,
			10 67 77 -1,
			1 14 89 -1,
			82 81 75 -1,
			82 78 58 -1,
			81 29 32 -1,
			81 79 44 -1,
			64 80 82 -1,
			79 81 82 -1,
		]
		normal Normal { vector [
			0.707088 -0.000000 -0.707125,
			0.707118 -0.000000 -0.707095,
			0.707112 0.000000 0.707102,
			0.707103 0.000000 0.707111,
			-0.707116 -0.000000 -0.707098,
			-0.707099 0.000000 0.707114,
			-0.707122 0.000000 0.707092,
			0.000000 -0.000000 -1.000000,
			0.000000 0.000000 1.000000,
			0.000000 0.000000 1.000000,
			0.316234 -0.000000 -0.948681,
			-1.000000 0.000000 0.000000,
			0.948683 -0.000000 -0.316229,
			-0.707112 -0.000000 -0.707101,
			1.000000 0.000000 0.000000,
			0.707104 -0.000000 -0.707109,
			-0.159173 0.311111 -0.936949,
			0.583341 0.255956 -0.770844,
			0.831128 0.364679 -0.419804,
			-0.318098 0.621737 -0.715721,
			0.000000 0.707106 0.707108,
			-0.577347 0.577347 0.577357,
			0.577347 0.577347 -0.577356,
			0.577352 0.577350 0.577349,
			-0.577342 0.577366 -0.577343,
			-0.577360 0.577349 -0.577342,
			0.577349 0.577348 -0.577354,
			0.301510 0.904535 -0.301508,
			-1.000000 0.000000 0.000000,
			0.707107 0.000000 0.707107,
			-1.000000 0.000000 0.000000,
			1.000000 0.000000 0.000000,
			0.577344 0.577363 0.577343,
			0.000000 1.000000 -0.000000,
			-0.707114 0.707099 -0.000000,
			0.707119 -0.000000 -0.707094,
			-0.707110 0.000000 0.707103,
			0.707104 0.000000 0.707110,
			-0.577362 0.577351 -0.577338,
			0.000000 -0.000000 -1.000000,
			0.000000 0.000000 1.000000,
			1.000000 0.000000 0.000000,
			-0.904531 0.301515 -0.301515,
			-1.000000 0.000000 0.000000,
			0.904538 0.301509 0.301502,
			0.000000 -0.000000 -1.000000,
			0.000000 0.000000 1.000000,
			0.000000 0.000000 1.000000,
			-0.707111 -0.000000 -0.707102,
			0.000000 0.707104 0.707109,
			-0.577346 0.577363 -0.577343,
			-0.301514 0.904532 -0.301514,
			0.000000 1.000000 -0.000000,
			-0.301493 0.301508 -0.904541,
			0.000000 0.000000 1.000000,
			-0.707096 -0.000000 -0.707118,
			-1.000000 0.000000 0.000000,
			0.707099 -0.000000 -0.707114,
			0.577347 0.577347 -0.577356,
			0.000000 1.000000 -0.000000,
			-1.000000 0.000000 0.000000,
			1.000000 0.000000 0.000000,
			-0.707109 0.707105 -0.000000,
			-1.000000 0.000000 0.000000,
			0.904540 0.301509 -0.301496,
			0.000000 1.000000 -0.000000,
			0.000000 0.000000 1.000000,
			0.000000 -0.000000 -1.000000,
			0.000000 -0.000000 -1.000000,
			0.000000 0.000000 1.000000,
			0.000000 -0.000000 -1.000000,
			0.528734 0.267477 -0.805541,
			0.791795 0.400555 -0.461104,
			0.000000 0.707114 0.707100,
			0.000000 0.707114 -0.707099,
			0.301514 0.904533 0.301511,
			0.000000 0.000000 1.000000,
			0.000000 -0.000000 -1.000000,
			0.301511 0.904534 -0.301511,
			0.577335 0.577358 0.577358,
			0.577355 0.577341 -0.577355,
			0.707112 0.000000 0.707102,
			0.707106 -0.000000 -0.707107,
			-0.877584 -0.394017 0.273126,
			-0.582444 -0.261505 0.769658,
			-0.434603 -0.289736 -0.852745,
			-0.582444 -0.261506 -0.769658,
			0.434603 -0.289736 0.852745,
			0.582444 -0.261505 0.769658,
			0.828540 -0.371997 -0.418497,
			0.582444 -0.261506 -0.769658,
			0.434603 -0.289736 -0.852745,
			-0.158812 -0.317623 -0.934823,
			-0.434603 -0.289736 0.852745,
			-0.158812 -0.317623 0.934823,
			-0.828540 -0.371997 -0.418497,
			0.868576 -0.389973 -0.305774,
			-0.868576 -0.389973 -0.305774,
			0.877584 -0.394017 0.273126,
		] }
		normalPerVertex TRUE
		solid TRUE
	}
	appearance Appearance {
		material Material {
			diffuseColor 0.9714 0.9167 0.4554
			transparency 0.0000
			shininess 0.0000
		}
	}
}

Shape # Material: PCB
{
	geometry IndexedFaceSet {
		coord Coordinate { point [
			2.640000 -2.240000 -5.180000,
			3.920000 -2.240000 -5.180000,
			3.920000 -2.240000 -1.980000,
			3.920000 -2.240000 5.180000,
			2.640000 -2.240000 5.180000,
			-3.920000 -2.240000 -5.180000,
			-2.640000 -2.240000 -5.180000,
			-3.920000 -2.240000 5.180000,
			-3.920000 -2.240000 1.220000,
			-3.920000 -1.760000 1.220000,
			-3.920000 -1.760000 5.180000,
			-2.640000 -1.760000 -5.180000,
			-3.920000 -1.760000 -5.180000,
			2.640000 -1.760000 5.180000,
			3.920000 -1.760000 5.180000,
			3.920000 -1.760000 -1.980000,
			3.920000 -1.760000 -5.180000,
			2.640000 -1.760000 -5.180000,
			-0.880000 -1.760000 -5.180000,
			-2.640000 -1.760000 5.180000,
			-0.880000 -1.760000 5.180000,
			-3.920000 -1.760000 -1.980000,
			3.920000 -1.760000 -1.379999,
			-3.920000 -1.760000 -1.380000,
			3.920000 -1.760000 1.220001,
			-0.880000 -2.240000 -5.180000,
			-2.640000 -2.240000 5.180000,
			-0.880000 -2.240000 5.180000,
			-0.880000 -2.240000 1.220000,
			-3.920000 -2.240000 -1.980000,
			3.920000 -2.240000 -1.379999,
			-0.880000 -2.240000 -1.980000,
			-3.320000 -2.240000 -1.980000,
			3.400000 -2.240000 -1.980000,
			-3.920000 -2.240000 -1.380000,
			-0.880000 -2.240000 -1.380000,
			3.920000 -2.240000 1.220001,
			-3.320000 -2.240000 -1.380000,
			3.400000 -2.240000 -1.379999,
			-3.320000 -2.240000 1.220000,
			3.400000 -2.240000 1.220001,
			2.640000 -2.240000 -6.660000,
			-0.880000 -2.240000 -6.660000,
			2.640000 -1.760000 -6.660000,
			-0.880000 -1.760000 -6.660000,
			-2.640000 -1.760000 -6.660000,
			-2.640000 -2.240000 -6.660000,
			-2.640000 -2.240000 6.660000,
			-0.880000 -2.240000 6.660000,
			-2.640000 -1.760000 6.660000,
			-0.880000 -1.760000 6.660000,
			2.640000 -2.240000 6.660000,
			2.640000 -1.760000 6.660000,
		] }
		coordIndex [
			12 29 21 -1,
			24 30 22 -1,
			27 47 26 -1,
			21 34 23 -1,
			0 43 17 -1,
			14 36 24 -1,
			10 26 19 -1,
			15 1 16 -1,
			16 0 17 -1,
			17 44 18 -1,
			13 3 14 -1,
			23 8 9 -1,
			4 48 27 -1,
			11 5 12 -1,
			22 2 15 -1,
			9 7 10 -1,
			40 3 4 -1,
			28 26 39 -1,
			6 31 32 -1,
			1 33 0 -1,
			31 37 32 -1,
			2 38 33 -1,
			32 34 29 -1,
			5 32 29 -1,
			39 7 8 -1,
			37 8 34 -1,
			35 39 37 -1,
			30 40 38 -1,
			38 28 35 -1,
			33 35 31 -1,
			0 31 25 -1,
			28 4 27 -1,
			43 42 44 -1,
			44 46 45 -1,
			25 41 0 -1,
			11 46 6 -1,
			18 45 11 -1,
			6 42 25 -1,
			49 48 50 -1,
			50 51 52 -1,
			13 51 4 -1,
			19 50 20 -1,
			26 49 19 -1,
			20 52 13 -1,
			12 5 29 -1,
			24 36 30 -1,
			27 48 47 -1,
			21 29 34 -1,
			0 41 43 -1,
			14 3 36 -1,
			10 7 26 -1,
			15 2 1 -1,
			16 1 0 -1,
			17 43 44 -1,
			13 4 3 -1,
			23 34 8 -1,
			4 51 48 -1,
			11 6 5 -1,
			22 30 2 -1,
			9 8 7 -1,
			40 36 3 -1,
			28 27 26 -1,
			6 25 31 -1,
			1 2 33 -1,
			31 35 37 -1,
			2 30 38 -1,
			32 37 34 -1,
			5 6 32 -1,
			39 26 7 -1,
			37 39 8 -1,
			35 28 39 -1,
			30 36 40 -1,
			38 40 28 -1,
			33 38 35 -1,
			0 33 31 -1,
			28 40 4 -1,
			43 41 42 -1,
			44 42 46 -1,
			25 42 41 -1,
			11 45 46 -1,
			18 44 45 -1,
			6 46 42 -1,
			49 47 48 -1,
			50 48 51 -1,
			13 52 51 -1,
			19 49 50 -1,
			26 47 49 -1,
			20 50 52 -1,
		]
		normal Normal { vector [
			0.301498 -0.904543 -0.301498,
			0.577350 -0.577348 -0.577353,
			0.707105 -0.707108 0.000000,
			0.577360 -0.577361 0.577330,
			0.301512 -0.904534 0.301512,
			-0.577364 -0.577353 -0.577334,
			-0.301507 -0.904537 -0.301506,
			-0.577353 -0.577347 0.577350,
			-0.707110 -0.707104 0.000000,
			-1.000000 0.000000 0.000000,
			-0.707125 0.000000 0.707088,
			-0.577340 0.577370 -0.577340,
			-0.707105 -0.000000 -0.707108,
			0.577340 0.577370 0.577340,
			0.707109 0.000000 0.707105,
			1.000000 0.000000 0.000000,
			0.707125 -0.000000 -0.707088,
			0.577359 0.577332 -0.577360,
			0.000000 1.000000 -0.000000,
			-0.577341 0.577369 0.577341,
			0.000000 1.000000 -0.000000,
			-1.000000 0.000000 0.000000,
			1.000000 0.000000 0.000000,
			-1.000000 0.000000 0.000000,
			1.000000 0.000000 0.000000,
			0.000000 -1.000000 0.000000,
			-0.301499 -0.904542 0.301499,
			0.000000 -1.000000 0.000000,
			0.000000 -1.000000 0.000000,
			-0.707106 -0.707108 0.000000,
			0.707108 -0.707106 0.000000,
			0.000000 -1.000000 0.000000,
			0.000000 -1.000000 0.000000,
			0.000000 -1.000000 0.000000,
			-0.707104 -0.707109 0.000000,
			0.000000 -1.000000 0.000000,
			0.707108 -0.707106 0.000000,
			0.000000 -1.000000 0.000000,
			0.000000 -1.000000 0.000000,
			0.000000 -1.000000 0.000000,
			0.000000 -1.000000 0.000000,
			0.577359 -0.577332 -0.577359,
			0.000000 -0.707115 -0.707098,
			0.577330 0.577360 -0.577360,
			0.000000 0.707106 -0.707107,
			-0.577341 0.577368 -0.577341,
			-0.577339 -0.577369 -0.577343,
			-0.577341 -0.577368 0.577341,
			0.000000 -0.707106 0.707107,
			-0.577339 0.577369 0.577343,
			0.000000 0.707115 0.707098,
			0.577330 -0.577360 0.577360,
			0.577359 0.577332 0.577359,
		] }
		normalPerVertex TRUE
		solid TRUE
	}
	appearance Appearance {
		material Material {
			diffuseColor 0.0000 0.4792 0.0053
			transparency 0.0000
			shininess 0.6000
		}
	}
}

Shape # Material: m20-9990345_color_1
{
	geometry IndexedFaceSet {
		coord Coordinate { point [
			-2.319999 -3.016001 -5.244000,
			-2.419999 -3.016001 -5.344000,
			-2.139199 -3.016001 -5.624800,
			-2.419999 -3.016001 -6.160000,
			-2.139199 -3.016001 -5.879200,
			-2.319999 -3.016001 -6.260000,
			-1.703999 -3.016001 -6.260000,
			-1.884799 -3.016001 -5.879200,
			-1.603999 -3.016001 -6.160000,
			-1.603999 -3.016001 -5.344000,
			-1.884799 -3.016001 -5.624800,
			-1.703999 -3.016001 -5.244000,
			-2.519999 -2.916001 -5.444000,
			-2.519999 -2.916001 -6.060000,
			-2.519999 -2.340001 -6.060000,
			-2.319999 -2.240001 -6.260000,
			-2.419999 -2.240001 -6.160000,
			-1.703999 -2.240001 -6.260000,
			-1.703999 -2.240001 -6.060000,
			-2.319999 -2.240001 -5.244000,
			-2.319999 -2.240001 -5.444000,
			-1.703999 -2.240001 -5.244000,
			-1.703999 -2.240001 -5.444000,
			-2.319999 -2.240001 -6.060000,
			-2.419999 -2.240001 -5.344000,
			-2.139199 -2.240001 -5.879200,
			-1.884799 -2.240001 -5.879200,
			-1.884799 -2.240001 -5.624800,
			-2.139199 -2.240001 -5.624800,
			-1.603999 -2.240001 -5.344000,
			-1.603999 -2.240001 -6.160000,
			-2.519999 -2.340001 -5.444000,
			-1.503999 -2.340001 -6.060000,
			-1.503999 -2.916001 -6.060000,
			-1.503999 -2.916001 -5.444000,
			-1.503999 -2.340001 -5.444000,
			-2.139199 -3.016001 -5.746069,
			-2.006068 -3.016001 -5.879200,
			-1.884799 -3.016001 -5.746069,
			-2.006068 -3.016001 -5.624800,
			-1.961813 -2.240001 -5.879200,
			-1.884799 -2.240001 -5.701814,
			-1.961813 -2.240001 -5.624800,
			-2.139199 -2.240001 -5.701814,
		] }
		coordIndex [
			0 1 2 -1,
			2 1 3 -1,
			3 36 2 -1,
			4 3 5 -1,
			4 5 6 -1,
			6 37 4 -1,
			8 7 6 -1,
			9 7 8 -1,
			9 38 7 -1,
			11 10 9 -1,
			11 39 10 -1,
			11 0 2 -1,
			12 13 1 -1,
			1 13 3 -1,
			3 13 5 -1,
			5 13 14 -1,
			5 14 15 -1,
			15 14 16 -1,
			17 6 15 -1,
			15 6 5 -1,
			21 19 11 -1,
			11 19 0 -1,
			15 16 23 -1,
			23 16 24 -1,
			23 24 20 -1,
			20 24 19 -1,
			18 40 26 -1,
			41 18 26 -1,
			22 18 27 -1,
			42 22 27 -1,
			22 28 20 -1,
			43 20 28 -1,
			25 23 20 -1,
			25 18 23 -1,
			21 29 22 -1,
			22 29 30 -1,
			22 30 18 -1,
			18 30 17 -1,
			14 31 16 -1,
			16 31 24 -1,
			31 13 12 -1,
			24 31 19 -1,
			19 31 12 -1,
			19 12 0 -1,
			0 12 1 -1,
			30 32 17 -1,
			17 32 33 -1,
			17 33 6 -1,
			6 33 8 -1,
			9 8 34 -1,
			34 8 33 -1,
			29 21 35 -1,
			35 21 11 -1,
			35 11 34 -1,
			34 11 9 -1,
			35 32 29 -1,
			29 32 30 -1,
			32 35 33 -1,
			33 35 34 -1,
			19 22 20 -1,
			17 23 18 -1,
			3 4 36 -1,
			6 7 37 -1,
			9 10 38 -1,
			11 2 39 -1,
			18 25 40 -1,
			41 27 18 -1,
			42 28 22 -1,
			43 25 20 -1,
			31 14 13 -1,
			19 21 22 -1,
			17 15 23 -1,
		]
		normal Normal { vector [
			-0.297102 -0.630259 0.717289,
			-0.573236 -0.705972 0.415937,
			-0.000000 -1.000000 -0.000000,
			-0.573248 -0.705958 -0.415944,
			-0.000000 -1.000000 -0.000000,
			-0.297109 -0.630253 -0.717292,
			0.297098 -0.630251 -0.717298,
			-0.000000 -1.000000 -0.000000,
			0.573236 -0.705972 -0.415937,
			0.573249 -0.705958 0.415945,
			-0.000000 -1.000000 -0.000000,
			0.297105 -0.630245 0.717300,
			-0.905411 -0.300194 0.300191,
			-0.905413 -0.300189 -0.300189,
			-0.905411 0.300195 -0.300191,
			-0.297092 0.630272 -0.717282,
			-0.573236 0.705972 -0.415937,
			0.297106 0.630260 -0.717286,
			0.000000 1.000000 0.000000,
			-0.297103 0.630253 0.717295,
			0.000000 1.000000 0.000000,
			0.297096 0.630280 0.717274,
			0.000000 1.000000 0.000000,
			0.000000 1.000000 0.000000,
			-0.573241 0.705967 0.415939,
			0.000000 1.000000 0.000000,
			0.000000 1.000000 0.000000,
			0.000000 1.000000 0.000000,
			0.000000 1.000000 0.000000,
			0.573236 0.705972 0.415937,
			0.573241 0.705967 -0.415939,
			-0.905413 0.300190 0.300189,
			0.905410 0.300194 -0.300194,
			0.905414 -0.300190 -0.300187,
			0.905410 -0.300194 0.300194,
			0.905414 0.300190 0.300187,
			-0.000000 -1.000000 -0.000000,
			-0.000000 -1.000000 -0.000000,
			-0.000000 -1.000000 -0.000000,
			-0.000000 -1.000000 -0.000000,
			0.000000 1.000000 0.000000,
			0.000000 1.000000 0.000000,
			0.000000 1.000000 0.000000,
			0.000000 1.000000 0.000000,
		] }
		normalPerVertex TRUE
		solid TRUE
	}
	appearance Appearance {
		material Material {
			diffuseColor 0.2980 0.2980 0.2980
			transparency 0.0000
			shininess 0.0000
		}
	}
}

Shape # Material: Gold
{
	geometry IndexedFaceSet {
		coord Coordinate { point [
			-2.077999 -0.784001 -5.818000,
			-2.077999 -0.784001 -5.686000,
			-2.139199 -3.016001 -5.624800,
			-1.945999 -0.784001 -5.818000,
			-1.945999 -0.784001 -5.686000,
			-2.139199 -3.016001 -5.879200,
			-2.139199 -0.889601 -5.624800,
			-2.139199 -0.889601 -5.879200,
			-1.884799 -0.889601 -5.624800,
			-1.884799 -3.016001 -5.879200,
			-1.884799 -0.889601 -5.879200,
			-2.139199 -5.350400 -5.879200,
			-1.884799 -5.350401 -5.879200,
			-1.884799 -3.016001 -5.624800,
			-2.139199 -5.350400 -5.624800,
			-1.884799 -5.350401 -5.624800,
			-1.946000 -5.456001 -5.686000,
			-1.946000 -5.456001 -5.818000,
			-2.078000 -5.456001 -5.686000,
			-2.078000 -5.456001 -5.818000,
			-2.139199 -2.240001 -5.879200,
			-1.884799 -2.240001 -5.879200,
			-1.884799 -2.240001 -5.624800,
			-2.139199 -2.240001 -5.624800,
			-2.139199 -3.016001 -5.746069,
			-2.006068 -3.016001 -5.879200,
			-1.884799 -3.016001 -5.746069,
			-2.006068 -3.016001 -5.624800,
			-1.961813 -2.240001 -5.879200,
			-1.884799 -2.240001 -5.701814,
			-1.961813 -2.240001 -5.624800,
			-2.139199 -2.240001 -5.701814,
		] }
		coordIndex [
			0 1 3 -1,
			3 1 4 -1,
			1 0 6 -1,
			6 0 7 -1,
			4 1 8 -1,
			8 1 6 -1,
			3 4 10 -1,
			10 4 8 -1,
			0 3 7 -1,
			7 3 10 -1,
			5 25 11 -1,
			7 28 20 -1,
			21 28 10 -1,
			12 25 9 -1,
			7 31 6 -1,
			24 5 11 -1,
			31 23 6 -1,
			14 24 11 -1,
			2 14 27 -1,
			30 6 23 -1,
			22 8 30 -1,
			27 15 13 -1,
			10 29 21 -1,
			26 12 9 -1,
			29 8 22 -1,
			15 26 13 -1,
			16 17 15 -1,
			15 17 12 -1,
			18 19 16 -1,
			16 19 17 -1,
			19 18 11 -1,
			11 18 14 -1,
			17 19 12 -1,
			12 19 11 -1,
			18 16 14 -1,
			14 16 15 -1,
			7 10 28 -1,
			12 11 25 -1,
			7 20 31 -1,
			14 2 24 -1,
			30 8 6 -1,
			27 14 15 -1,
			10 8 29 -1,
			15 12 26 -1,
		]
		normal Normal { vector [
			-0.401402 0.823259 -0.401398,
			-0.401391 0.823266 0.401396,
			-0.707107 0.000000 0.707107,
			0.401392 0.823266 -0.401396,
			0.401403 0.823259 0.401398,
			-0.707107 0.000000 -0.707107,
			-0.675355 0.296338 0.675337,
			-0.675339 0.296339 -0.675352,
			0.675340 0.296337 0.675352,
			0.707107 -0.000000 -0.707107,
			0.675349 0.296338 -0.675343,
			-0.675352 -0.296337 -0.675340,
			0.675340 -0.296337 -0.675352,
			0.707107 -0.000000 0.707107,
			-0.675340 -0.296337 0.675352,
			0.675352 -0.296337 0.675340,
			0.401391 -0.823266 0.401396,
			0.401402 -0.823259 -0.401398,
			-0.401403 -0.823259 0.401398,
			-0.401392 -0.823265 -0.401396,
			-0.707107 0.000000 -0.707107,
			0.707107 -0.000000 -0.707107,
			0.707107 -0.000000 0.707107,
			-0.707107 0.000000 0.707107,
			-1.000000 0.000000 -0.000000,
			0.000000 0.000000 -1.000000,
			1.000000 -0.000000 0.000000,
			-0.000000 -0.000000 1.000000,
			0.000000 0.000000 -1.000000,
			1.000000 -0.000000 0.000000,
			-0.000000 -0.000000 1.000000,
			-1.000000 0.000000 -0.000000,
		] }
		normalPerVertex TRUE
		solid TRUE
	}
	appearance Appearance {
		material Material {
			diffuseColor 0.9714 0.9167 0.4554
			transparency 0.0000
			shininess 0.0000
		}
	}
}

Shape # Material: m20-9990345_color_1.009
{
	geometry IndexedFaceSet {
		coord Coordinate { point [
			-1.303999 -3.016001 -5.244000,
			-1.403999 -3.016001 -5.344000,
			-1.123199 -3.016001 -5.624800,
			-1.403999 -3.016001 -6.160000,
			-1.123199 -3.016001 -5.879200,
			-1.303999 -3.016001 -6.260000,
			-0.687999 -3.016001 -6.260000,
			-0.868799 -3.016001 -5.879200,
			-0.587999 -3.016001 -6.160000,
			-0.587999 -3.016001 -5.344000,
			-0.868799 -3.016001 -5.624800,
			-0.687999 -3.016001 -5.244000,
			-1.503999 -2.916001 -5.444000,
			-1.503999 -2.916001 -6.060000,
			-1.503999 -2.340001 -6.060000,
			-1.303999 -2.240001 -6.260000,
			-1.403999 -2.240001 -6.160000,
			-0.687999 -2.240001 -6.260000,
			-0.687999 -2.240001 -6.060000,
			-1.303999 -2.240001 -5.244000,
			-1.303999 -2.240001 -5.444000,
			-0.687999 -2.240001 -5.244000,
			-0.687999 -2.240001 -5.444000,
			-1.303999 -2.240001 -6.060000,
			-1.403999 -2.240001 -5.344000,
			-1.123199 -2.240001 -5.879200,
			-0.868799 -2.240001 -5.879200,
			-0.868799 -2.240001 -5.624800,
			-1.123199 -2.240001 -5.624800,
			-0.587999 -2.240001 -5.344000,
			-0.587999 -2.240001 -6.160000,
			-1.503999 -2.340001 -5.444000,
			-0.487999 -2.340001 -6.060000,
			-0.487999 -2.916001 -6.060000,
			-0.487999 -2.916001 -5.444000,
			-0.487999 -2.340001 -5.444000,
			-1.123199 -3.016001 -5.746069,
			-0.990068 -3.016001 -5.879200,
			-0.868799 -3.016001 -5.746069,
			-0.990068 -3.016001 -5.624800,
			-0.945813 -2.240001 -5.879200,
			-0.868799 -2.240001 -5.701814,
			-0.945813 -2.240001 -5.624800,
			-1.123199 -2.240001 -5.701814,
		] }
		coordIndex [
			0 1 2 -1,
			2 1 3 -1,
			3 36 2 -1,
			4 3 5 -1,
			4 5 6 -1,
			6 37 4 -1,
			8 7 6 -1,
			9 7 8 -1,
			9 38 7 -1,
			11 10 9 -1,
			11 39 10 -1,
			11 0 2 -1,
			12 13 1 -1,
			1 13 3 -1,
			3 13 5 -1,
			5 13 14 -1,
			5 14 15 -1,
			15 14 16 -1,
			17 6 15 -1,
			15 6 5 -1,
			21 19 11 -1,
			11 19 0 -1,
			15 16 23 -1,
			23 16 24 -1,
			23 24 20 -1,
			20 24 19 -1,
			18 40 26 -1,
			41 18 26 -1,
			22 18 27 -1,
			42 22 27 -1,
			22 28 20 -1,
			43 20 28 -1,
			25 23 20 -1,
			25 18 23 -1,
			21 29 22 -1,
			22 29 30 -1,
			22 30 18 -1,
			18 30 17 -1,
			14 31 16 -1,
			16 31 24 -1,
			31 13 12 -1,
			24 31 19 -1,
			19 31 12 -1,
			19 12 0 -1,
			0 12 1 -1,
			30 32 17 -1,
			17 32 33 -1,
			17 33 6 -1,
			6 33 8 -1,
			9 8 34 -1,
			34 8 33 -1,
			29 21 35 -1,
			35 21 11 -1,
			35 11 34 -1,
			34 11 9 -1,
			35 32 29 -1,
			29 32 30 -1,
			32 35 33 -1,
			33 35 34 -1,
			19 22 20 -1,
			17 23 18 -1,
			3 4 36 -1,
			6 7 37 -1,
			9 10 38 -1,
			11 2 39 -1,
			18 25 40 -1,
			41 27 18 -1,
			42 28 22 -1,
			43 25 20 -1,
			31 14 13 -1,
			19 21 22 -1,
			17 15 23 -1,
		]
		normal Normal { vector [
			-0.297102 -0.630259 0.717289,
			-0.573236 -0.705972 0.415937,
			-0.000000 -1.000000 -0.000000,
			-0.573248 -0.705958 -0.415944,
			-0.000000 -1.000000 -0.000000,
			-0.297109 -0.630253 -0.717292,
			0.297098 -0.630251 -0.717298,
			-0.000000 -1.000000 -0.000000,
			0.573236 -0.705972 -0.415937,
			0.573249 -0.705958 0.415945,
			-0.000000 -1.000000 -0.000000,
			0.297105 -0.630245 0.717300,
			-0.905411 -0.300194 0.300191,
			-0.905413 -0.300189 -0.300189,
			-0.905411 0.300195 -0.300191,
			-0.297092 0.630272 -0.717282,
			-0.573236 0.705972 -0.415937,
			0.297106 0.630260 -0.717286,
			0.000000 1.000000 0.000000,
			-0.297103 0.630253 0.717295,
			0.000000 1.000000 0.000000,
			0.297096 0.630280 0.717274,
			0.000000 1.000000 0.000000,
			0.000000 1.000000 0.000000,
			-0.573241 0.705967 0.415939,
			0.000000 1.000000 0.000000,
			0.000000 1.000000 0.000000,
			0.000000 1.000000 0.000000,
			0.000000 1.000000 0.000000,
			0.573236 0.705972 0.415937,
			0.573241 0.705967 -0.415939,
			-0.905413 0.300190 0.300189,
			0.905410 0.300194 -0.300194,
			0.905414 -0.300190 -0.300187,
			0.905410 -0.300194 0.300194,
			0.905414 0.300190 0.300187,
			-0.000000 -1.000000 -0.000000,
			-0.000000 -1.000000 -0.000000,
			-0.000000 -1.000000 -0.000000,
			-0.000000 -1.000000 -0.000000,
			0.000000 1.000000 0.000000,
			0.000000 1.000000 0.000000,
			0.000000 1.000000 0.000000,
			0.000000 1.000000 0.000000,
		] }
		normalPerVertex TRUE
		solid TRUE
	}
	appearance Appearance {
		material Material {
			diffuseColor 0.2980 0.2980 0.2980
			transparency 0.0000
			shininess 0.0000
		}
	}
}

Shape # Material: Gold.001
{
	geometry IndexedFaceSet {
		coord Coordinate { point [
			-1.061999 -0.784001 -5.818000,
			-1.061999 -0.784001 -5.686000,
			-1.123199 -3.016001 -5.624800,
			-0.929999 -0.784001 -5.818000,
			-0.929999 -0.784001 -5.686000,
			-1.123199 -3.016001 -5.879200,
			-1.123199 -0.889601 -5.624800,
			-1.123199 -0.889601 -5.879200,
			-0.868799 -0.889601 -5.624800,
			-0.868799 -3.016001 -5.879200,
			-0.868799 -0.889601 -5.879200,
			-1.123200 -5.350400 -5.879200,
			-0.868800 -5.350401 -5.879200,
			-0.868799 -3.016001 -5.624800,
			-1.123200 -5.350400 -5.624800,
			-0.868800 -5.350401 -5.624800,
			-0.930000 -5.456001 -5.686000,
			-0.930000 -5.456001 -5.818000,
			-1.062000 -5.456001 -5.686000,
			-1.062000 -5.456001 -5.818000,
			-1.123199 -2.240001 -5.879200,
			-0.868799 -2.240001 -5.879200,
			-0.868799 -2.240001 -5.624800,
			-1.123199 -2.240001 -5.624800,
			-1.123199 -3.016001 -5.746069,
			-0.990068 -3.016001 -5.879200,
			-0.868799 -3.016001 -5.746069,
			-0.990068 -3.016001 -5.624800,
			-0.945813 -2.240001 -5.879200,
			-0.868799 -2.240001 -5.701814,
			-0.945813 -2.240001 -5.624800,
			-1.123199 -2.240001 -5.701814,
		] }
		coordIndex [
			0 1 3 -1,
			3 1 4 -1,
			1 0 6 -1,
			6 0 7 -1,
			4 1 8 -1,
			8 1 6 -1,
			3 4 10 -1,
			10 4 8 -1,
			0 3 7 -1,
			7 3 10 -1,
			5 25 11 -1,
			7 28 20 -1,
			21 28 10 -1,
			12 25 9 -1,
			7 31 6 -1,
			24 5 11 -1,
			31 23 6 -1,
			14 24 11 -1,
			2 14 27 -1,
			30 6 23 -1,
			22 8 30 -1,
			27 15 13 -1,
			10 29 21 -1,
			26 12 9 -1,
			29 8 22 -1,
			15 26 13 -1,
			16 17 15 -1,
			15 17 12 -1,
			18 19 16 -1,
			16 19 17 -1,
			19 18 11 -1,
			11 18 14 -1,
			17 19 12 -1,
			12 19 11 -1,
			18 16 14 -1,
			14 16 15 -1,
			7 10 28 -1,
			12 11 25 -1,
			7 20 31 -1,
			14 2 24 -1,
			30 8 6 -1,
			27 14 15 -1,
			10 8 29 -1,
			15 12 26 -1,
		]
		normal Normal { vector [
			-0.401402 0.823259 -0.401398,
			-0.401391 0.823266 0.401396,
			-0.707107 0.000000 0.707107,
			0.401392 0.823266 -0.401396,
			0.401403 0.823259 0.401398,
			-0.707107 0.000000 -0.707107,
			-0.675355 0.296338 0.675337,
			-0.675339 0.296339 -0.675352,
			0.675340 0.296337 0.675352,
			0.707107 -0.000000 -0.707107,
			0.675349 0.296338 -0.675343,
			-0.675352 -0.296337 -0.675340,
			0.675340 -0.296337 -0.675352,
			0.707107 -0.000000 0.707107,
			-0.675340 -0.296337 0.675352,
			0.675352 -0.296337 0.675340,
			0.401391 -0.823266 0.401396,
			0.401402 -0.823259 -0.401398,
			-0.401403 -0.823259 0.401398,
			-0.401392 -0.823265 -0.401396,
			-0.707107 0.000000 -0.707107,
			0.707107 -0.000000 -0.707107,
			0.707107 -0.000000 0.707107,
			-0.707107 0.000000 0.707107,
			-1.000000 0.000000 -0.000000,
			0.000000 0.000000 -1.000000,
			1.000000 -0.000000 0.000000,
			-0.000000 -0.000000 1.000000,
			0.000000 0.000000 -1.000000,
			1.000000 -0.000000 0.000000,
			-0.000000 -0.000000 1.000000,
			-1.000000 0.000000 -0.000000,
		] }
		normalPerVertex TRUE
		solid TRUE
	}
	appearance Appearance {
		material Material {
			diffuseColor 0.8550 0.8070 0.4020
			transparency 0.0000
			shininess 0.6000
		}
	}
}

Shape # Material: m20-9990345_color_1.010
{
	geometry IndexedFaceSet {
		coord Coordinate { point [
			-0.287999 -3.016001 -5.244000,
			-0.387999 -3.016001 -5.344000,
			-0.107199 -3.016001 -5.624800,
			-0.387999 -3.016001 -6.160000,
			-0.107199 -3.016001 -5.879200,
			-0.287999 -3.016001 -6.260000,
			0.328001 -3.016001 -6.260000,
			0.147201 -3.016001 -5.879200,
			0.428001 -3.016001 -6.160000,
			0.428001 -3.016001 -5.344000,
			0.147201 -3.016001 -5.624800,
			0.328001 -3.016001 -5.244000,
			-0.487999 -2.916001 -5.444000,
			-0.487999 -2.916001 -6.060000,
			-0.487999 -2.340001 -6.060000,
			-0.287999 -2.240001 -6.260000,
			-0.387999 -2.240001 -6.160000,
			0.328001 -2.240001 -6.260000,
			0.328001 -2.240001 -6.060000,
			-0.287999 -2.240001 -5.244000,
			-0.287999 -2.240001 -5.444000,
			0.328001 -2.240001 -5.244000,
			0.328001 -2.240001 -5.444000,
			-0.287999 -2.240001 -6.060000,
			-0.387999 -2.240001 -5.344000,
			-0.107199 -2.240001 -5.879200,
			0.147201 -2.240001 -5.879200,
			0.147201 -2.240001 -5.624800,
			-0.107199 -2.240001 -5.624800,
			0.428001 -2.240001 -5.344000,
			0.428001 -2.240001 -6.160000,
			-0.487999 -2.340001 -5.444000,
			0.528001 -2.340001 -6.060000,
			0.528001 -2.916001 -6.060000,
			0.528001 -2.916001 -5.444000,
			0.528001 -2.340001 -5.444000,
			-0.107199 -3.016001 -5.746069,
			0.025932 -3.016001 -5.879200,
			0.147201 -3.016001 -5.746069,
			0.025932 -3.016001 -5.624800,
			0.070187 -2.240001 -5.879200,
			0.147201 -2.240001 -5.701814,
			0.070187 -2.240001 -5.624800,
			-0.107199 -2.240001 -5.701814,
		] }
		coordIndex [
			0 1 2 -1,
			2 1 3 -1,
			3 36 2 -1,
			4 3 5 -1,
			4 5 6 -1,
			6 37 4 -1,
			8 7 6 -1,
			9 7 8 -1,
			9 38 7 -1,
			11 10 9 -1,
			11 39 10 -1,
			11 0 2 -1,
			12 13 1 -1,
			1 13 3 -1,
			3 13 5 -1,
			5 13 14 -1,
			5 14 15 -1,
			15 14 16 -1,
			17 6 15 -1,
			15 6 5 -1,
			21 19 11 -1,
			11 19 0 -1,
			15 16 23 -1,
			23 16 24 -1,
			23 24 20 -1,
			20 24 19 -1,
			18 40 26 -1,
			41 18 26 -1,
			22 18 27 -1,
			42 22 27 -1,
			22 28 20 -1,
			43 20 28 -1,
			25 23 20 -1,
			25 18 23 -1,
			21 29 22 -1,
			22 29 30 -1,
			22 30 18 -1,
			18 30 17 -1,
			14 31 16 -1,
			16 31 24 -1,
			31 13 12 -1,
			24 31 19 -1,
			19 31 12 -1,
			19 12 0 -1,
			0 12 1 -1,
			30 32 17 -1,
			17 32 33 -1,
			17 33 6 -1,
			6 33 8 -1,
			9 8 34 -1,
			34 8 33 -1,
			29 21 35 -1,
			35 21 11 -1,
			35 11 34 -1,
			34 11 9 -1,
			35 32 29 -1,
			29 32 30 -1,
			32 35 33 -1,
			33 35 34 -1,
			19 22 20 -1,
			17 23 18 -1,
			3 4 36 -1,
			6 7 37 -1,
			9 10 38 -1,
			11 2 39 -1,
			18 25 40 -1,
			41 27 18 -1,
			42 28 22 -1,
			43 25 20 -1,
			31 14 13 -1,
			19 21 22 -1,
			17 15 23 -1,
		]
		normal Normal { vector [
			-0.297102 -0.630259 0.717289,
			-0.573236 -0.705972 0.415937,
			-0.000000 -1.000000 -0.000000,
			-0.573248 -0.705958 -0.415944,
			-0.000000 -1.000000 -0.000000,
			-0.297109 -0.630253 -0.717292,
			0.297098 -0.630251 -0.717298,
			-0.000000 -1.000000 -0.000000,
			0.573236 -0.705972 -0.415937,
			0.573249 -0.705958 0.415945,
			-0.000000 -1.000000 -0.000000,
			0.297105 -0.630245 0.717300,
			-0.905411 -0.300194 0.300191,
			-0.905413 -0.300189 -0.300189,
			-0.905411 0.300195 -0.300191,
			-0.297092 0.630272 -0.717282,
			-0.573236 0.705972 -0.415937,
			0.297106 0.630260 -0.717286,
			0.000000 1.000000 0.000000,
			-0.297103 0.630253 0.717295,
			0.000000 1.000000 0.000000,
			0.297096 0.630280 0.717274,
			0.000000 1.000000 0.000000,
			0.000000 1.000000 0.000000,
			-0.573241 0.705967 0.415939,
			0.000000 1.000000 0.000000,
			0.000000 1.000000 0.000000,
			0.000000 1.000000 0.000000,
			0.000000 1.000000 0.000000,
			0.573236 0.705972 0.415937,
			0.573241 0.705967 -0.415939,
			-0.905413 0.300190 0.300189,
			0.905410 0.300194 -0.300194,
			0.905414 -0.300190 -0.300187,
			0.905410 -0.300194 0.300194,
			0.905414 0.300190 0.300187,
			-0.000000 -1.000000 -0.000000,
			-0.000000 -1.000000 -0.000000,
			-0.000000 -1.000000 -0.000000,
			-0.000000 -1.000000 -0.000000,
			0.000000 1.000000 0.000000,
			0.000000 1.000000 0.000000,
			0.000000 1.000000 0.000000,
			0.000000 1.000000 0.000000,
		] }
		normalPerVertex TRUE
		solid TRUE
	}
	appearance Appearance {
		material Material {
			diffuseColor 0.2980 0.2980 0.2980
			transparency 0.0000
			shininess 0.0000
		}
	}
}

Shape # Material: Gold.002
{
	geometry IndexedFaceSet {
		coord Coordinate { point [
			-0.045999 -0.784001 -5.818000,
			-0.045999 -0.784001 -5.686000,
			-0.107199 -3.016001 -5.624800,
			0.086001 -0.784001 -5.818000,
			0.086001 -0.784001 -5.686000,
			-0.107199 -3.016001 -5.879200,
			-0.107199 -0.889601 -5.624800,
			-0.107199 -0.889601 -5.879200,
			0.147201 -0.889601 -5.624800,
			0.147201 -3.016001 -5.879200,
			0.147201 -0.889601 -5.879200,
			-0.107200 -5.350400 -5.879200,
			0.147200 -5.350401 -5.879200,
			0.147201 -3.016001 -5.624800,
			-0.107200 -5.350400 -5.624800,
			0.147200 -5.350401 -5.624800,
			0.086000 -5.456001 -5.686000,
			0.086000 -5.456001 -5.818000,
			-0.046000 -5.456001 -5.686000,
			-0.046000 -5.456001 -5.818000,
			-0.107199 -2.240001 -5.879200,
			0.147201 -2.240001 -5.879200,
			0.147201 -2.240001 -5.624800,
			-0.107199 -2.240001 -5.624800,
			-0.107199 -3.016001 -5.746069,
			0.025932 -3.016001 -5.879200,
			0.147201 -3.016001 -5.746069,
			0.025932 -3.016001 -5.624800,
			0.070187 -2.240001 -5.879200,
			0.147201 -2.240001 -5.701814,
			0.070187 -2.240001 -5.624800,
			-0.107199 -2.240001 -5.701814,
		] }
		coordIndex [
			0 1 3 -1,
			3 1 4 -1,
			1 0 6 -1,
			6 0 7 -1,
			4 1 8 -1,
			8 1 6 -1,
			3 4 10 -1,
			10 4 8 -1,
			0 3 7 -1,
			7 3 10 -1,
			5 25 11 -1,
			7 28 20 -1,
			21 28 10 -1,
			12 25 9 -1,
			7 31 6 -1,
			24 5 11 -1,
			31 23 6 -1,
			14 24 11 -1,
			2 14 27 -1,
			30 6 23 -1,
			22 8 30 -1,
			27 15 13 -1,
			10 29 21 -1,
			26 12 9 -1,
			29 8 22 -1,
			15 26 13 -1,
			16 17 15 -1,
			15 17 12 -1,
			18 19 16 -1,
			16 19 17 -1,
			19 18 11 -1,
			11 18 14 -1,
			17 19 12 -1,
			12 19 11 -1,
			18 16 14 -1,
			14 16 15 -1,
			7 10 28 -1,
			12 11 25 -1,
			7 20 31 -1,
			14 2 24 -1,
			30 8 6 -1,
			27 14 15 -1,
			10 8 29 -1,
			15 12 26 -1,
		]
		normal Normal { vector [
			-0.401402 0.823259 -0.401398,
			-0.401391 0.823266 0.401396,
			-0.707107 0.000000 0.707107,
			0.401392 0.823266 -0.401396,
			0.401403 0.823259 0.401398,
			-0.707107 0.000000 -0.707107,
			-0.675355 0.296338 0.675337,
			-0.675339 0.296339 -0.675352,
			0.675340 0.296337 0.675352,
			0.707107 -0.000000 -0.707107,
			0.675349 0.296338 -0.675343,
			-0.675352 -0.296337 -0.675340,
			0.675340 -0.296337 -0.675352,
			0.707107 -0.000000 0.707107,
			-0.675340 -0.296337 0.675352,
			0.675352 -0.296337 0.675340,
			0.401391 -0.823266 0.401396,
			0.401402 -0.823259 -0.401398,
			-0.401403 -0.823259 0.401398,
			-0.401392 -0.823265 -0.401396,
			-0.707107 0.000000 -0.707107,
			0.707107 -0.000000 -0.707107,
			0.707107 -0.000000 0.707107,
			-0.707107 0.000000 0.707107,
			-1.000000 0.000000 -0.000000,
			0.000000 0.000000 -1.000000,
			1.000000 -0.000000 0.000000,
			-0.000000 -0.000000 1.000000,
			0.000000 0.000000 -1.000000,
			1.000000 -0.000000 0.000000,
			-0.000000 -0.000000 1.000000,
			-1.000000 0.000000 -0.000000,
		] }
		normalPerVertex TRUE
		solid TRUE
	}
	appearance Appearance {
		material Material {
			diffuseColor 0.8550 0.8070 0.4020
			transparency 0.0000
			shininess 0.6000
		}
	}
}

Shape # Material: m20-9990345_color_1.011
{
	geometry IndexedFaceSet {
		coord Coordinate { point [
			0.728001 -3.016001 -5.244000,
			0.628001 -3.016001 -5.344000,
			0.908801 -3.016001 -5.624800,
			0.628001 -3.016001 -6.160000,
			0.908801 -3.016001 -5.879200,
			0.728001 -3.016001 -6.260000,
			1.344001 -3.016001 -6.260000,
			1.163201 -3.016001 -5.879200,
			1.444001 -3.016001 -6.160000,
			1.444001 -3.016001 -5.344000,
			1.163201 -3.016001 -5.624800,
			1.344001 -3.016001 -5.244000,
			0.528001 -2.916001 -5.444000,
			0.528001 -2.916001 -6.060000,
			0.528001 -2.340001 -6.060000,
			0.728001 -2.240001 -6.260000,
			0.628001 -2.240001 -6.160000,
			1.344001 -2.240001 -6.260000,
			1.344001 -2.240001 -6.060000,
			0.728001 -2.240001 -5.244000,
			0.728001 -2.240001 -5.444000,
			1.344001 -2.240001 -5.244000,
			1.344001 -2.240001 -5.444000,
			0.728001 -2.240001 -6.060000,
			0.628001 -2.240001 -5.344000,
			0.908801 -2.240001 -5.879200,
			1.163201 -2.240001 -5.879200,
			1.163201 -2.240001 -5.624800,
			0.908801 -2.240001 -5.624800,
			1.444001 -2.240001 -5.344000,
			1.444001 -2.240001 -6.160000,
			0.528001 -2.340001 -5.444000,
			1.544001 -2.340001 -6.060000,
			1.544001 -2.916001 -6.060000,
			1.544001 -2.916001 -5.444000,
			1.544001 -2.340001 -5.444000,
			0.908801 -3.016001 -5.746069,
			1.041932 -3.016001 -5.879200,
			1.163201 -3.016001 -5.746069,
			1.041932 -3.016001 -5.624800,
			1.086187 -2.240001 -5.879200,
			1.163201 -2.240001 -5.701814,
			1.086187 -2.240001 -5.624800,
			0.908801 -2.240001 -5.701814,
		] }
		coordIndex [
			0 1 2 -1,
			2 1 3 -1,
			3 36 2 -1,
			4 3 5 -1,
			4 5 6 -1,
			6 37 4 -1,
			8 7 6 -1,
			9 7 8 -1,
			9 38 7 -1,
			11 10 9 -1,
			11 39 10 -1,
			11 0 2 -1,
			12 13 1 -1,
			1 13 3 -1,
			3 13 5 -1,
			5 13 14 -1,
			5 14 15 -1,
			15 14 16 -1,
			17 6 15 -1,
			15 6 5 -1,
			21 19 11 -1,
			11 19 0 -1,
			15 16 23 -1,
			23 16 24 -1,
			23 24 20 -1,
			20 24 19 -1,
			18 40 26 -1,
			41 18 26 -1,
			22 18 27 -1,
			42 22 27 -1,
			22 28 20 -1,
			43 20 28 -1,
			25 23 20 -1,
			25 18 23 -1,
			21 29 22 -1,
			22 29 30 -1,
			22 30 18 -1,
			18 30 17 -1,
			14 31 16 -1,
			16 31 24 -1,
			31 13 12 -1,
			24 31 19 -1,
			19 31 12 -1,
			19 12 0 -1,
			0 12 1 -1,
			30 32 17 -1,
			17 32 33 -1,
			17 33 6 -1,
			6 33 8 -1,
			9 8 34 -1,
			34 8 33 -1,
			29 21 35 -1,
			35 21 11 -1,
			35 11 34 -1,
			34 11 9 -1,
			35 32 29 -1,
			29 32 30 -1,
			32 35 33 -1,
			33 35 34 -1,
			19 22 20 -1,
			17 23 18 -1,
			3 4 36 -1,
			6 7 37 -1,
			9 10 38 -1,
			11 2 39 -1,
			18 25 40 -1,
			41 27 18 -1,
			42 28 22 -1,
			43 25 20 -1,
			31 14 13 -1,
			19 21 22 -1,
			17 15 23 -1,
		]
		normal Normal { vector [
			-0.297102 -0.630259 0.717289,
			-0.573236 -0.705972 0.415937,
			-0.000000 -1.000000 -0.000000,
			-0.573248 -0.705958 -0.415944,
			-0.000000 -1.000000 -0.000000,
			-0.297109 -0.630253 -0.717292,
			0.297098 -0.630251 -0.717298,
			-0.000000 -1.000000 -0.000000,
			0.573236 -0.705972 -0.415937,
			0.573249 -0.705958 0.415945,
			-0.000000 -1.000000 -0.000000,
			0.297105 -0.630245 0.717300,
			-0.905411 -0.300194 0.300191,
			-0.905413 -0.300189 -0.300189,
			-0.905411 0.300195 -0.300191,
			-0.297092 0.630272 -0.717282,
			-0.573236 0.705972 -0.415937,
			0.297106 0.630260 -0.717286,
			0.000000 1.000000 0.000000,
			-0.297103 0.630253 0.717295,
			0.000000 1.000000 0.000000,
			0.297096 0.630280 0.717274,
			0.000000 1.000000 0.000000,
			0.000000 1.000000 0.000000,
			-0.573241 0.705967 0.415939,
			0.000000 1.000000 0.000000,
			0.000000 1.000000 0.000000,
			0.000000 1.000000 0.000000,
			0.000000 1.000000 0.000000,
			0.573236 0.705972 0.415937,
			0.573241 0.705967 -0.415939,
			-0.905413 0.300190 0.300189,
			0.905410 0.300194 -0.300194,
			0.905414 -0.300190 -0.300187,
			0.905410 -0.300194 0.300194,
			0.905414 0.300190 0.300187,
			-0.000000 -1.000000 -0.000000,
			-0.000000 -1.000000 -0.000000,
			-0.000000 -1.000000 -0.000000,
			-0.000000 -1.000000 -0.000000,
			0.000000 1.000000 0.000000,
			0.000000 1.000000 0.000000,
			0.000000 1.000000 0.000000,
			0.000000 1.000000 0.000000,
		] }
		normalPerVertex TRUE
		solid TRUE
	}
	appearance Appearance {
		material Material {
			diffuseColor 0.2980 0.2980 0.2980
			transparency 0.0000
			shininess 0.0000
		}
	}
}

Shape # Material: Gold.003
{
	geometry IndexedFaceSet {
		coord Coordinate { point [
			0.970001 -0.784001 -5.818000,
			0.970001 -0.784001 -5.686000,
			0.908801 -3.016001 -5.624800,
			1.102001 -0.784001 -5.818000,
			1.102001 -0.784001 -5.686000,
			0.908801 -3.016001 -5.879200,
			0.908801 -0.889601 -5.624800,
			0.908801 -0.889601 -5.879200,
			1.163201 -0.889601 -5.624800,
			1.163201 -3.016001 -5.879200,
			1.163201 -0.889601 -5.879200,
			0.908800 -5.350400 -5.879200,
			1.163200 -5.350401 -5.879200,
			1.163201 -3.016001 -5.624800,
			0.908800 -5.350400 -5.624800,
			1.163200 -5.350401 -5.624800,
			1.102000 -5.456001 -5.686000,
			1.102000 -5.456001 -5.818000,
			0.970000 -5.456001 -5.686000,
			0.970000 -5.456001 -5.818000,
			0.908801 -2.240001 -5.879200,
			1.163201 -2.240001 -5.879200,
			1.163201 -2.240001 -5.624800,
			0.908801 -2.240001 -5.624800,
			0.908801 -3.016001 -5.746069,
			1.041932 -3.016001 -5.879200,
			1.163201 -3.016001 -5.746069,
			1.041932 -3.016001 -5.624800,
			1.086187 -2.240001 -5.879200,
			1.163201 -2.240001 -5.701814,
			1.086187 -2.240001 -5.624800,
			0.908801 -2.240001 -5.701814,
		] }
		coordIndex [
			0 1 3 -1,
			3 1 4 -1,
			1 0 6 -1,
			6 0 7 -1,
			4 1 8 -1,
			8 1 6 -1,
			3 4 10 -1,
			10 4 8 -1,
			0 3 7 -1,
			7 3 10 -1,
			5 25 11 -1,
			7 28 20 -1,
			21 28 10 -1,
			12 25 9 -1,
			7 31 6 -1,
			24 5 11 -1,
			31 23 6 -1,
			14 24 11 -1,
			2 14 27 -1,
			30 6 23 -1,
			22 8 30 -1,
			27 15 13 -1,
			10 29 21 -1,
			26 12 9 -1,
			29 8 22 -1,
			15 26 13 -1,
			16 17 15 -1,
			15 17 12 -1,
			18 19 16 -1,
			16 19 17 -1,
			19 18 11 -1,
			11 18 14 -1,
			17 19 12 -1,
			12 19 11 -1,
			18 16 14 -1,
			14 16 15 -1,
			7 10 28 -1,
			12 11 25 -1,
			7 20 31 -1,
			14 2 24 -1,
			30 8 6 -1,
			27 14 15 -1,
			10 8 29 -1,
			15 12 26 -1,
		]
		normal Normal { vector [
			-0.401402 0.823259 -0.401398,
			-0.401391 0.823266 0.401396,
			-0.707107 0.000000 0.707107,
			0.401392 0.823266 -0.401396,
			0.401403 0.823259 0.401398,
			-0.707107 0.000000 -0.707107,
			-0.675355 0.296338 0.675337,
			-0.675339 0.296339 -0.675352,
			0.675340 0.296337 0.675352,
			0.707107 -0.000000 -0.707107,
			0.675349 0.296338 -0.675343,
			-0.675352 -0.296337 -0.675340,
			0.675340 -0.296337 -0.675352,
			0.707107 -0.000000 0.707107,
			-0.675340 -0.296337 0.675352,
			0.675352 -0.296337 0.675340,
			0.401391 -0.823266 0.401396,
			0.401402 -0.823259 -0.401398,
			-0.401403 -0.823259 0.401398,
			-0.401392 -0.823265 -0.401396,
			-0.707107 0.000000 -0.707107,
			0.707107 -0.000000 -0.707107,
			0.707107 -0.000000 0.707107,
			-0.707107 0.000000 0.707107,
			-1.000000 0.000000 -0.000000,
			0.000000 0.000000 -1.000000,
			1.000000 -0.000000 0.000000,
			-0.000000 -0.000000 1.000000,
			0.000000 0.000000 -1.000000,
			1.000000 -0.000000 0.000000,
			-0.000000 -0.000000 1.000000,
			-1.000000 0.000000 -0.000000,
		] }
		normalPerVertex TRUE
		solid TRUE
	}
	appearance Appearance {
		material Material {
			diffuseColor 0.8550 0.8070 0.4020
			transparency 0.0000
			shininess 0.6000
		}
	}
}

Shape # Material: m20-9990345_color_1.004
{
	geometry IndexedFaceSet {
		coord Coordinate { point [
			-2.319999 -3.016000 6.259999,
			-2.419999 -3.016000 6.159999,
			-2.139199 -3.016000 5.879200,
			-2.419999 -3.016000 5.343999,
			-2.139199 -3.016000 5.624799,
			-2.319999 -3.016000 5.243999,
			-1.703999 -3.016000 5.243999,
			-1.884799 -3.016000 5.624799,
			-1.603999 -3.016000 5.343999,
			-1.603999 -3.016000 6.159999,
			-1.884799 -3.016000 5.879200,
			-1.703999 -3.016000 6.259999,
			-2.519999 -2.916000 6.059999,
			-2.519999 -2.916000 5.443999,
			-2.519999 -2.340000 5.443999,
			-2.319999 -2.240000 5.243999,
			-2.419999 -2.240000 5.343999,
			-1.703999 -2.240000 5.243999,
			-1.703999 -2.240000 5.443999,
			-2.319999 -2.240000 6.259999,
			-2.319999 -2.240000 6.059999,
			-1.703999 -2.240000 6.259999,
			-1.703999 -2.240000 6.059999,
			-2.319999 -2.240000 5.443999,
			-2.419999 -2.240000 6.159999,
			-2.139199 -2.240000 5.624799,
			-1.884799 -2.240000 5.624799,
			-1.884799 -2.240000 5.879200,
			-2.139199 -2.240000 5.879200,
			-1.603999 -2.240000 6.159999,
			-1.603999 -2.240000 5.343999,
			-2.519999 -2.340000 6.059999,
			-1.503999 -2.340000 5.443999,
			-1.503999 -2.916000 5.443999,
			-1.503999 -2.916000 6.059999,
			-1.503999 -2.340000 6.059999,
			-2.139199 -3.016000 5.757930,
			-2.006068 -3.016000 5.624799,
			-1.884799 -3.016000 5.757930,
			-2.006068 -3.016000 5.879200,
			-1.961813 -2.240000 5.624799,
			-1.884799 -2.240000 5.802186,
			-1.961813 -2.240000 5.879200,
			-2.139199 -2.240000 5.802186,
		] }
		coordIndex [
			0 1 2 -1,
			2 1 3 -1,
			3 36 2 -1,
			4 3 5 -1,
			4 5 6 -1,
			6 37 4 -1,
			8 7 6 -1,
			9 7 8 -1,
			9 38 7 -1,
			11 10 9 -1,
			11 39 10 -1,
			11 0 2 -1,
			12 13 1 -1,
			1 13 3 -1,
			3 13 5 -1,
			5 13 14 -1,
			5 14 15 -1,
			15 14 16 -1,
			17 6 15 -1,
			15 6 5 -1,
			21 19 11 -1,
			11 19 0 -1,
			15 16 23 -1,
			23 16 24 -1,
			23 24 20 -1,
			20 24 19 -1,
			18 40 26 -1,
			41 18 26 -1,
			22 18 27 -1,
			42 22 27 -1,
			22 28 20 -1,
			43 20 28 -1,
			25 23 20 -1,
			25 18 23 -1,
			21 29 22 -1,
			22 29 30 -1,
			22 30 18 -1,
			18 30 17 -1,
			14 31 16 -1,
			16 31 24 -1,
			31 13 12 -1,
			24 31 19 -1,
			19 31 12 -1,
			19 12 0 -1,
			0 12 1 -1,
			30 32 17 -1,
			17 32 33 -1,
			17 33 6 -1,
			6 33 8 -1,
			9 8 34 -1,
			34 8 33 -1,
			29 21 35 -1,
			35 21 11 -1,
			35 11 34 -1,
			34 11 9 -1,
			35 32 29 -1,
			29 32 30 -1,
			32 35 33 -1,
			33 35 34 -1,
			19 22 20 -1,
			17 23 18 -1,
			3 4 36 -1,
			6 7 37 -1,
			9 10 38 -1,
			11 2 39 -1,
			18 25 40 -1,
			41 27 18 -1,
			42 28 22 -1,
			43 25 20 -1,
			31 14 13 -1,
			19 21 22 -1,
			17 15 23 -1,
		]
		normal Normal { vector [
			-0.297102 -0.630259 0.717289,
			-0.573236 -0.705972 0.415937,
			-0.000000 -1.000000 -0.000000,
			-0.573248 -0.705958 -0.415944,
			-0.000000 -1.000000 -0.000000,
			-0.297109 -0.630253 -0.717292,
			0.297098 -0.630251 -0.717298,
			-0.000000 -1.000000 -0.000000,
			0.573236 -0.705972 -0.415937,
			0.573249 -0.705958 0.415945,
			-0.000000 -1.000000 -0.000000,
			0.297105 -0.630245 0.717300,
			-0.905411 -0.300194 0.300191,
			-0.905413 -0.300189 -0.300189,
			-0.905411 0.300195 -0.300191,
			-0.297092 0.630272 -0.717282,
			-0.573236 0.705972 -0.415937,
			0.297106 0.630260 -0.717286,
			0.000000 1.000000 0.000000,
			-0.297103 0.630253 0.717295,
			0.000000 1.000000 0.000000,
			0.297096 0.630280 0.717274,
			0.000000 1.000000 0.000000,
			0.000000 1.000000 0.000000,
			-0.573241 0.705967 0.415939,
			0.000000 1.000000 0.000000,
			0.000000 1.000000 0.000000,
			0.000000 1.000000 0.000000,
			0.000000 1.000000 0.000000,
			0.573236 0.705972 0.415937,
			0.573241 0.705967 -0.415939,
			-0.905413 0.300190 0.300189,
			0.905410 0.300194 -0.300194,
			0.905414 -0.300190 -0.300187,
			0.905410 -0.300194 0.300194,
			0.905414 0.300190 0.300187,
			-0.000000 -1.000000 -0.000000,
			-0.000000 -1.000000 -0.000000,
			-0.000000 -1.000000 -0.000000,
			-0.000000 -1.000000 -0.000000,
			0.000000 1.000000 0.000000,
			0.000000 1.000000 0.000000,
			0.000000 1.000000 0.000000,
			0.000000 1.000000 0.000000,
		] }
		normalPerVertex TRUE
		solid TRUE
	}
	appearance Appearance {
		material Material {
			diffuseColor 0.2980 0.2980 0.2980
			transparency 0.0000
			shininess 0.0000
		}
	}
}

Shape # Material: Gold
{
	geometry IndexedFaceSet {
		coord Coordinate { point [
			-2.077999 -0.784000 5.685999,
			-2.077999 -0.784000 5.817999,
			-2.139199 -3.016000 5.879200,
			-1.945999 -0.784000 5.685999,
			-1.945999 -0.784000 5.817999,
			-2.139199 -3.016000 5.624799,
			-2.139199 -0.889600 5.879200,
			-2.139199 -0.889600 5.624799,
			-1.884799 -0.889600 5.879200,
			-1.884799 -3.016000 5.624799,
			-1.884799 -0.889600 5.624799,
			-2.139199 -5.350400 5.624799,
			-1.884799 -5.350400 5.624799,
			-1.884799 -3.016000 5.879200,
			-2.139199 -5.350400 5.879200,
			-1.884799 -5.350400 5.879200,
			-1.946000 -5.456000 5.817999,
			-1.946000 -5.456000 5.685999,
			-2.078000 -5.456000 5.817999,
			-2.078000 -5.456000 5.685999,
			-2.139199 -2.240000 5.624799,
			-1.884799 -2.240000 5.624799,
			-1.884799 -2.240000 5.879200,
			-2.139199 -2.240000 5.879200,
			-2.139199 -3.016000 5.757930,
			-2.006068 -3.016000 5.624799,
			-1.884799 -3.016000 5.757930,
			-2.006068 -3.016000 5.879200,
			-1.961813 -2.240000 5.624799,
			-1.884799 -2.240000 5.802186,
			-1.961813 -2.240000 5.879200,
			-2.139199 -2.240000 5.802186,
		] }
		coordIndex [
			0 1 3 -1,
			3 1 4 -1,
			1 0 6 -1,
			6 0 7 -1,
			4 1 8 -1,
			8 1 6 -1,
			3 4 10 -1,
			10 4 8 -1,
			0 3 7 -1,
			7 3 10 -1,
			5 25 11 -1,
			7 28 20 -1,
			21 28 10 -1,
			12 25 9 -1,
			7 31 6 -1,
			24 5 11 -1,
			31 23 6 -1,
			14 24 11 -1,
			2 14 27 -1,
			30 6 23 -1,
			22 8 30 -1,
			27 15 13 -1,
			10 29 21 -1,
			26 12 9 -1,
			29 8 22 -1,
			15 26 13 -1,
			16 17 15 -1,
			15 17 12 -1,
			18 19 16 -1,
			16 19 17 -1,
			19 18 11 -1,
			11 18 14 -1,
			17 19 12 -1,
			12 19 11 -1,
			18 16 14 -1,
			14 16 15 -1,
			7 10 28 -1,
			12 11 25 -1,
			7 20 31 -1,
			14 2 24 -1,
			30 8 6 -1,
			27 14 15 -1,
			10 8 29 -1,
			15 12 26 -1,
		]
		normal Normal { vector [
			-0.401402 0.823259 -0.401398,
			-0.401391 0.823266 0.401396,
			-0.707107 0.000000 0.707107,
			0.401392 0.823266 -0.401396,
			0.401403 0.823259 0.401398,
			-0.707107 0.000000 -0.707107,
			-0.675355 0.296338 0.675337,
			-0.675339 0.296339 -0.675352,
			0.675340 0.296337 0.675352,
			0.707107 -0.000000 -0.707107,
			0.675349 0.296338 -0.675343,
			-0.675352 -0.296337 -0.675340,
			0.675340 -0.296337 -0.675352,
			0.707107 -0.000000 0.707107,
			-0.675340 -0.296337 0.675352,
			0.675352 -0.296337 0.675340,
			0.401391 -0.823266 0.401396,
			0.401402 -0.823259 -0.401398,
			-0.401403 -0.823259 0.401398,
			-0.401392 -0.823265 -0.401396,
			-0.707107 0.000000 -0.707107,
			0.707107 -0.000000 -0.707107,
			0.707107 -0.000000 0.707107,
			-0.707107 0.000000 0.707107,
			-1.000000 0.000000 -0.000000,
			0.000000 0.000000 -1.000000,
			1.000000 -0.000000 0.000000,
			-0.000000 -0.000000 1.000000,
			0.000000 0.000000 -1.000000,
			1.000000 -0.000000 0.000000,
			-0.000000 -0.000000 1.000000,
			-1.000000 0.000000 -0.000000,
		] }
		normalPerVertex TRUE
		solid TRUE
	}
	appearance Appearance {
		material Material {
			diffuseColor 0.9714 0.9167 0.4554
			transparency 0.0000
			shininess 0.0000
		}
	}
}

Shape # Material: m20-9990345_color_1.012
{
	geometry IndexedFaceSet {
		coord Coordinate { point [
			-1.303999 -3.016000 6.259999,
			-1.403999 -3.016000 6.159999,
			-1.123199 -3.016000 5.879200,
			-1.403999 -3.016000 5.343999,
			-1.123199 -3.016000 5.624799,
			-1.303999 -3.016000 5.243999,
			-0.687999 -3.016000 5.243999,
			-0.868799 -3.016000 5.624799,
			-0.587999 -3.016000 5.343999,
			-0.587999 -3.016000 6.159999,
			-0.868799 -3.016000 5.879200,
			-0.687999 -3.016000 6.259999,
			-1.503999 -2.916000 6.059999,
			-1.503999 -2.916000 5.443999,
			-1.503999 -2.340000 5.443999,
			-1.303999 -2.240000 5.243999,
			-1.403999 -2.240000 5.343999,
			-0.687999 -2.240000 5.243999,
			-0.687999 -2.240000 5.443999,
			-1.303999 -2.240000 6.259999,
			-1.303999 -2.240000 6.059999,
			-0.687999 -2.240000 6.259999,
			-0.687999 -2.240000 6.059999,
			-1.303999 -2.240000 5.443999,
			-1.403999 -2.240000 6.159999,
			-1.123199 -2.240000 5.624799,
			-0.868799 -2.240000 5.624799,
			-0.868799 -2.240000 5.879200,
			-1.123199 -2.240000 5.879200,
			-0.587999 -2.240000 6.159999,
			-0.587999 -2.240000 5.343999,
			-1.503999 -2.340000 6.059999,
			-0.487999 -2.340000 5.443999,
			-0.487999 -2.916000 5.443999,
			-0.487999 -2.916000 6.059999,
			-0.487999 -2.340000 6.059999,
			-1.123199 -3.016000 5.757930,
			-0.990068 -3.016000 5.624799,
			-0.868799 -3.016000 5.757930,
			-0.990068 -3.016000 5.879200,
			-0.945813 -2.240000 5.624799,
			-0.868799 -2.240000 5.802186,
			-0.945813 -2.240000 5.879200,
			-1.123199 -2.240000 5.802186,
		] }
		coordIndex [
			0 1 2 -1,
			2 1 3 -1,
			3 36 2 -1,
			4 3 5 -1,
			4 5 6 -1,
			6 37 4 -1,
			8 7 6 -1,
			9 7 8 -1,
			9 38 7 -1,
			11 10 9 -1,
			11 39 10 -1,
			11 0 2 -1,
			12 13 1 -1,
			1 13 3 -1,
			3 13 5 -1,
			5 13 14 -1,
			5 14 15 -1,
			15 14 16 -1,
			17 6 15 -1,
			15 6 5 -1,
			21 19 11 -1,
			11 19 0 -1,
			15 16 23 -1,
			23 16 24 -1,
			23 24 20 -1,
			20 24 19 -1,
			18 40 26 -1,
			41 18 26 -1,
			22 18 27 -1,
			42 22 27 -1,
			22 28 20 -1,
			43 20 28 -1,
			25 23 20 -1,
			25 18 23 -1,
			21 29 22 -1,
			22 29 30 -1,
			22 30 18 -1,
			18 30 17 -1,
			14 31 16 -1,
			16 31 24 -1,
			31 13 12 -1,
			24 31 19 -1,
			19 31 12 -1,
			19 12 0 -1,
			0 12 1 -1,
			30 32 17 -1,
			17 32 33 -1,
			17 33 6 -1,
			6 33 8 -1,
			9 8 34 -1,
			34 8 33 -1,
			29 21 35 -1,
			35 21 11 -1,
			35 11 34 -1,
			34 11 9 -1,
			35 32 29 -1,
			29 32 30 -1,
			32 35 33 -1,
			33 35 34 -1,
			19 22 20 -1,
			17 23 18 -1,
			3 4 36 -1,
			6 7 37 -1,
			9 10 38 -1,
			11 2 39 -1,
			18 25 40 -1,
			41 27 18 -1,
			42 28 22 -1,
			43 25 20 -1,
			31 14 13 -1,
			19 21 22 -1,
			17 15 23 -1,
		]
		normal Normal { vector [
			-0.297102 -0.630259 0.717289,
			-0.573236 -0.705972 0.415937,
			-0.000000 -1.000000 -0.000000,
			-0.573248 -0.705958 -0.415944,
			-0.000000 -1.000000 -0.000000,
			-0.297109 -0.630253 -0.717292,
			0.297098 -0.630251 -0.717298,
			-0.000000 -1.000000 -0.000000,
			0.573236 -0.705972 -0.415937,
			0.573249 -0.705958 0.415945,
			-0.000000 -1.000000 -0.000000,
			0.297105 -0.630245 0.717300,
			-0.905411 -0.300194 0.300191,
			-0.905413 -0.300189 -0.300189,
			-0.905411 0.300195 -0.300191,
			-0.297092 0.630272 -0.717282,
			-0.573236 0.705972 -0.415937,
			0.297106 0.630260 -0.717286,
			0.000000 1.000000 0.000000,
			-0.297103 0.630253 0.717295,
			0.000000 1.000000 0.000000,
			0.297096 0.630280 0.717274,
			0.000000 1.000000 0.000000,
			0.000000 1.000000 0.000000,
			-0.573241 0.705967 0.415939,
			0.000000 1.000000 0.000000,
			0.000000 1.000000 0.000000,
			0.000000 1.000000 0.000000,
			0.000000 1.000000 0.000000,
			0.573236 0.705972 0.415937,
			0.573241 0.705967 -0.415939,
			-0.905413 0.300190 0.300189,
			0.905410 0.300194 -0.300194,
			0.905414 -0.300190 -0.300187,
			0.905410 -0.300194 0.300194,
			0.905414 0.300190 0.300187,
			-0.000000 -1.000000 -0.000000,
			-0.000000 -1.000000 -0.000000,
			-0.000000 -1.000000 -0.000000,
			-0.000000 -1.000000 -0.000000,
			0.000000 1.000000 0.000000,
			0.000000 1.000000 0.000000,
			0.000000 1.000000 0.000000,
			0.000000 1.000000 0.000000,
		] }
		normalPerVertex TRUE
		solid TRUE
	}
	appearance Appearance {
		material Material {
			diffuseColor 0.2980 0.2980 0.2980
			transparency 0.0000
			shininess 0.0000
		}
	}
}

Shape # Material: Gold.004
{
	geometry IndexedFaceSet {
		coord Coordinate { point [
			-1.061999 -0.784000 5.685999,
			-1.061999 -0.784000 5.817999,
			-1.123199 -3.016000 5.879200,
			-0.929999 -0.784000 5.685999,
			-0.929999 -0.784000 5.817999,
			-1.123199 -3.016000 5.624799,
			-1.123199 -0.889600 5.879200,
			-1.123199 -0.889600 5.624799,
			-0.868799 -0.889600 5.879200,
			-0.868799 -3.016000 5.624799,
			-0.868799 -0.889600 5.624799,
			-1.123200 -5.350400 5.624799,
			-0.868800 -5.350400 5.624799,
			-0.868799 -3.016000 5.879200,
			-1.123200 -5.350400 5.879200,
			-0.868800 -5.350400 5.879200,
			-0.930000 -5.456000 5.817999,
			-0.930000 -5.456000 5.685999,
			-1.062000 -5.456000 5.817999,
			-1.062000 -5.456000 5.685999,
			-1.123199 -2.240000 5.624799,
			-0.868799 -2.240000 5.624799,
			-0.868799 -2.240000 5.879200,
			-1.123199 -2.240000 5.879200,
			-1.123199 -3.016000 5.757930,
			-0.990068 -3.016000 5.624799,
			-0.868799 -3.016000 5.757930,
			-0.990068 -3.016000 5.879200,
			-0.945813 -2.240000 5.624799,
			-0.868799 -2.240000 5.802186,
			-0.945813 -2.240000 5.879200,
			-1.123199 -2.240000 5.802186,
		] }
		coordIndex [
			0 1 3 -1,
			3 1 4 -1,
			1 0 6 -1,
			6 0 7 -1,
			4 1 8 -1,
			8 1 6 -1,
			3 4 10 -1,
			10 4 8 -1,
			0 3 7 -1,
			7 3 10 -1,
			5 25 11 -1,
			7 28 20 -1,
			21 28 10 -1,
			12 25 9 -1,
			7 31 6 -1,
			24 5 11 -1,
			31 23 6 -1,
			14 24 11 -1,
			2 14 27 -1,
			30 6 23 -1,
			22 8 30 -1,
			27 15 13 -1,
			10 29 21 -1,
			26 12 9 -1,
			29 8 22 -1,
			15 26 13 -1,
			16 17 15 -1,
			15 17 12 -1,
			18 19 16 -1,
			16 19 17 -1,
			19 18 11 -1,
			11 18 14 -1,
			17 19 12 -1,
			12 19 11 -1,
			18 16 14 -1,
			14 16 15 -1,
			7 10 28 -1,
			12 11 25 -1,
			7 20 31 -1,
			14 2 24 -1,
			30 8 6 -1,
			27 14 15 -1,
			10 8 29 -1,
			15 12 26 -1,
		]
		normal Normal { vector [
			-0.401402 0.823259 -0.401398,
			-0.401391 0.823266 0.401396,
			-0.707107 0.000000 0.707107,
			0.401392 0.823266 -0.401396,
			0.401403 0.823259 0.401398,
			-0.707107 0.000000 -0.707107,
			-0.675355 0.296338 0.675337,
			-0.675339 0.296339 -0.675352,
			0.675340 0.296337 0.675352,
			0.707107 -0.000000 -0.707107,
			0.675349 0.296338 -0.675343,
			-0.675352 -0.296337 -0.675340,
			0.675340 -0.296337 -0.675352,
			0.707107 -0.000000 0.707107,
			-0.675340 -0.296337 0.675352,
			0.675352 -0.296337 0.675340,
			0.401391 -0.823266 0.401396,
			0.401402 -0.823259 -0.401398,
			-0.401403 -0.823259 0.401398,
			-0.401392 -0.823265 -0.401396,
			-0.707107 0.000000 -0.707107,
			0.707107 -0.000000 -0.707107,
			0.707107 -0.000000 0.707107,
			-0.707107 0.000000 0.707107,
			-1.000000 0.000000 -0.000000,
			0.000000 0.000000 -1.000000,
			1.000000 -0.000000 0.000000,
			-0.000000 -0.000000 1.000000,
			0.000000 0.000000 -1.000000,
			1.000000 -0.000000 0.000000,
			-0.000000 -0.000000 1.000000,
			-1.000000 0.000000 -0.000000,
		] }
		normalPerVertex TRUE
		solid TRUE
	}
	appearance Appearance {
		material Material {
			diffuseColor 0.8550 0.8070 0.4020
			transparency 0.0000
			shininess 0.6000
		}
	}
}

Shape # Material: m20-9990345_color_1.013
{
	geometry IndexedFaceSet {
		coord Coordinate { point [
			-0.287999 -3.016000 6.259999,
			-0.387999 -3.016000 6.159999,
			-0.107199 -3.016000 5.879200,
			-0.387999 -3.016000 5.343999,
			-0.107199 -3.016000 5.624799,
			-0.287999 -3.016000 5.243999,
			0.328001 -3.016000 5.243999,
			0.147201 -3.016000 5.624799,
			0.428001 -3.016000 5.343999,
			0.428001 -3.016000 6.159999,
			0.147201 -3.016000 5.879200,
			0.328001 -3.016000 6.259999,
			-0.487999 -2.916000 6.059999,
			-0.487999 -2.916000 5.443999,
			-0.487999 -2.340000 5.443999,
			-0.287999 -2.240000 5.243999,
			-0.387999 -2.240000 5.343999,
			0.328001 -2.240000 5.243999,
			0.328001 -2.240000 5.443999,
			-0.287999 -2.240000 6.259999,
			-0.287999 -2.240000 6.059999,
			0.328001 -2.240000 6.259999,
			0.328001 -2.240000 6.059999,
			-0.287999 -2.240000 5.443999,
			-0.387999 -2.240000 6.159999,
			-0.107199 -2.240000 5.624799,
			0.147201 -2.240000 5.624799,
			0.147201 -2.240000 5.879200,
			-0.107199 -2.240000 5.879200,
			0.428001 -2.240000 6.159999,
			0.428001 -2.240000 5.343999,
			-0.487999 -2.340000 6.059999,
			0.528001 -2.340000 5.443999,
			0.528001 -2.916000 5.443999,
			0.528001 -2.916000 6.059999,
			0.528001 -2.340000 6.059999,
			-0.107199 -3.016000 5.757930,
			0.025932 -3.016000 5.624799,
			0.147201 -3.016000 5.757930,
			0.025932 -3.016000 5.879200,
			0.070187 -2.240000 5.624799,
			0.147201 -2.240000 5.802186,
			0.070187 -2.240000 5.879200,
			-0.107199 -2.240000 5.802186,
		] }
		coordIndex [
			0 1 2 -1,
			2 1 3 -1,
			3 36 2 -1,
			4 3 5 -1,
			4 5 6 -1,
			6 37 4 -1,
			8 7 6 -1,
			9 7 8 -1,
			9 38 7 -1,
			11 10 9 -1,
			11 39 10 -1,
			11 0 2 -1,
			12 13 1 -1,
			1 13 3 -1,
			3 13 5 -1,
			5 13 14 -1,
			5 14 15 -1,
			15 14 16 -1,
			17 6 15 -1,
			15 6 5 -1,
			21 19 11 -1,
			11 19 0 -1,
			15 16 23 -1,
			23 16 24 -1,
			23 24 20 -1,
			20 24 19 -1,
			18 40 26 -1,
			41 18 26 -1,
			22 18 27 -1,
			42 22 27 -1,
			22 28 20 -1,
			43 20 28 -1,
			25 23 20 -1,
			25 18 23 -1,
			21 29 22 -1,
			22 29 30 -1,
			22 30 18 -1,
			18 30 17 -1,
			14 31 16 -1,
			16 31 24 -1,
			31 13 12 -1,
			24 31 19 -1,
			19 31 12 -1,
			19 12 0 -1,
			0 12 1 -1,
			30 32 17 -1,
			17 32 33 -1,
			17 33 6 -1,
			6 33 8 -1,
			9 8 34 -1,
			34 8 33 -1,
			29 21 35 -1,
			35 21 11 -1,
			35 11 34 -1,
			34 11 9 -1,
			35 32 29 -1,
			29 32 30 -1,
			32 35 33 -1,
			33 35 34 -1,
			19 22 20 -1,
			17 23 18 -1,
			3 4 36 -1,
			6 7 37 -1,
			9 10 38 -1,
			11 2 39 -1,
			18 25 40 -1,
			41 27 18 -1,
			42 28 22 -1,
			43 25 20 -1,
			31 14 13 -1,
			19 21 22 -1,
			17 15 23 -1,
		]
		normal Normal { vector [
			-0.297102 -0.630259 0.717289,
			-0.573236 -0.705972 0.415937,
			-0.000000 -1.000000 -0.000000,
			-0.573248 -0.705958 -0.415944,
			-0.000000 -1.000000 -0.000000,
			-0.297109 -0.630253 -0.717292,
			0.297098 -0.630251 -0.717298,
			-0.000000 -1.000000 -0.000000,
			0.573236 -0.705972 -0.415937,
			0.573249 -0.705958 0.415945,
			-0.000000 -1.000000 -0.000000,
			0.297105 -0.630245 0.717300,
			-0.905411 -0.300194 0.300191,
			-0.905413 -0.300189 -0.300189,
			-0.905411 0.300195 -0.300191,
			-0.297092 0.630272 -0.717282,
			-0.573236 0.705972 -0.415937,
			0.297106 0.630260 -0.717286,
			0.000000 1.000000 0.000000,
			-0.297103 0.630253 0.717295,
			0.000000 1.000000 0.000000,
			0.297096 0.630280 0.717274,
			0.000000 1.000000 0.000000,
			0.000000 1.000000 0.000000,
			-0.573241 0.705967 0.415939,
			0.000000 1.000000 0.000000,
			0.000000 1.000000 0.000000,
			0.000000 1.000000 0.000000,
			0.000000 1.000000 0.000000,
			0.573236 0.705972 0.415937,
			0.573241 0.705967 -0.415939,
			-0.905413 0.300190 0.300189,
			0.905410 0.300194 -0.300194,
			0.905414 -0.300190 -0.300187,
			0.905410 -0.300194 0.300194,
			0.905414 0.300190 0.300187,
			-0.000000 -1.000000 -0.000000,
			-0.000000 -1.000000 -0.000000,
			-0.000000 -1.000000 -0.000000,
			-0.000000 -1.000000 -0.000000,
			0.000000 1.000000 0.000000,
			0.000000 1.000000 0.000000,
			0.000000 1.000000 0.000000,
			0.000000 1.000000 0.000000,
		] }
		normalPerVertex TRUE
		solid TRUE
	}
	appearance Appearance {
		material Material {
			diffuseColor 0.2980 0.2980 0.2980
			transparency 0.0000
			shininess 0.0000
		}
	}
}

Shape # Material: Gold.005
{
	geometry IndexedFaceSet {
		coord Coordinate { point [
			-0.045999 -0.784000 5.685999,
			-0.045999 -0.784000 5.817999,
			-0.107199 -3.016000 5.879200,
			0.086001 -0.784000 5.685999,
			0.086001 -0.784000 5.817999,
			-0.107199 -3.016000 5.624799,
			-0.107199 -0.889600 5.879200,
			-0.107199 -0.889600 5.624799,
			0.147201 -0.889600 5.879200,
			0.147201 -3.016000 5.624799,
			0.147201 -0.889600 5.624799,
			-0.107200 -5.350400 5.624799,
			0.147200 -5.350400 5.624799,
			0.147201 -3.016000 5.879200,
			-0.107200 -5.350400 5.879200,
			0.147200 -5.350400 5.879200,
			0.086000 -5.456000 5.817999,
			0.086000 -5.456000 5.685999,
			-0.046000 -5.456000 5.817999,
			-0.046000 -5.456000 5.685999,
			-0.107199 -2.240000 5.624799,
			0.147201 -2.240000 5.624799,
			0.147201 -2.240000 5.879200,
			-0.107199 -2.240000 5.879200,
			-0.107199 -3.016000 5.757930,
			0.025932 -3.016000 5.624799,
			0.147201 -3.016000 5.757930,
			0.025932 -3.016000 5.879200,
			0.070187 -2.240000 5.624799,
			0.147201 -2.240000 5.802186,
			0.070187 -2.240000 5.879200,
			-0.107199 -2.240000 5.802186,
		] }
		coordIndex [
			0 1 3 -1,
			3 1 4 -1,
			1 0 6 -1,
			6 0 7 -1,
			4 1 8 -1,
			8 1 6 -1,
			3 4 10 -1,
			10 4 8 -1,
			0 3 7 -1,
			7 3 10 -1,
			5 25 11 -1,
			7 28 20 -1,
			21 28 10 -1,
			12 25 9 -1,
			7 31 6 -1,
			24 5 11 -1,
			31 23 6 -1,
			14 24 11 -1,
			2 14 27 -1,
			30 6 23 -1,
			22 8 30 -1,
			27 15 13 -1,
			10 29 21 -1,
			26 12 9 -1,
			29 8 22 -1,
			15 26 13 -1,
			16 17 15 -1,
			15 17 12 -1,
			18 19 16 -1,
			16 19 17 -1,
			19 18 11 -1,
			11 18 14 -1,
			17 19 12 -1,
			12 19 11 -1,
			18 16 14 -1,
			14 16 15 -1,
			7 10 28 -1,
			12 11 25 -1,
			7 20 31 -1,
			14 2 24 -1,
			30 8 6 -1,
			27 14 15 -1,
			10 8 29 -1,
			15 12 26 -1,
		]
		normal Normal { vector [
			-0.401402 0.823259 -0.401398,
			-0.401391 0.823266 0.401396,
			-0.707107 0.000000 0.707107,
			0.401392 0.823266 -0.401396,
			0.401403 0.823259 0.401398,
			-0.707107 0.000000 -0.707107,
			-0.675355 0.296338 0.675337,
			-0.675339 0.296339 -0.675352,
			0.675340 0.296337 0.675352,
			0.707107 -0.000000 -0.707107,
			0.675349 0.296338 -0.675343,
			-0.675352 -0.296337 -0.675340,
			0.675340 -0.296337 -0.675352,
			0.707107 -0.000000 0.707107,
			-0.675340 -0.296337 0.675352,
			0.675352 -0.296337 0.675340,
			0.401391 -0.823266 0.401396,
			0.401402 -0.823259 -0.401398,
			-0.401403 -0.823259 0.401398,
			-0.401392 -0.823265 -0.401396,
			-0.707107 0.000000 -0.707107,
			0.707107 -0.000000 -0.707107,
			0.707107 -0.000000 0.707107,
			-0.707107 0.000000 0.707107,
			-1.000000 0.000000 -0.000000,
			0.000000 0.000000 -1.000000,
			1.000000 -0.000000 0.000000,
			-0.000000 -0.000000 1.000000,
			0.000000 0.000000 -1.000000,
			1.000000 -0.000000 0.000000,
			-0.000000 -0.000000 1.000000,
			-1.000000 0.000000 -0.000000,
		] }
		normalPerVertex TRUE
		solid TRUE
	}
	appearance Appearance {
		material Material {
			diffuseColor 0.8550 0.8070 0.4020
			transparency 0.0000
			shininess 0.6000
		}
	}
}

Shape # Material: m20-9990345_color_1.014
{
	geometry IndexedFaceSet {
		coord Coordinate { point [
			0.728001 -3.016000 6.259999,
			0.628001 -3.016000 6.159999,
			0.908801 -3.016000 5.879200,
			0.628001 -3.016000 5.343999,
			0.908801 -3.016000 5.624799,
			0.728001 -3.016000 5.243999,
			1.344001 -3.016000 5.243999,
			1.163201 -3.016000 5.624799,
			1.444001 -3.016000 5.343999,
			1.444001 -3.016000 6.159999,
			1.163201 -3.016000 5.879200,
			1.344001 -3.016000 6.259999,
			0.528001 -2.916000 6.059999,
			0.528001 -2.916000 5.443999,
			0.528001 -2.340000 5.443999,
			0.728001 -2.240000 5.243999,
			0.628001 -2.240000 5.343999,
			1.344001 -2.240000 5.243999,
			1.344001 -2.240000 5.443999,
			0.728001 -2.240000 6.259999,
			0.728001 -2.240000 6.059999,
			1.344001 -2.240000 6.259999,
			1.344001 -2.240000 6.059999,
			0.728001 -2.240000 5.443999,
			0.628001 -2.240000 6.159999,
			0.908801 -2.240000 5.624799,
			1.163201 -2.240000 5.624799,
			1.163201 -2.240000 5.879200,
			0.908801 -2.240000 5.879200,
			1.444001 -2.240000 6.159999,
			1.444001 -2.240000 5.343999,
			0.528001 -2.340000 6.059999,
			1.544001 -2.340000 5.443999,
			1.544001 -2.916000 5.443999,
			1.544001 -2.916000 6.059999,
			1.544001 -2.340000 6.059999,
			0.908801 -3.016000 5.757930,
			1.041932 -3.016000 5.624799,
			1.163201 -3.016000 5.757930,
			1.041932 -3.016000 5.879200,
			1.086187 -2.240000 5.624799,
			1.163201 -2.240000 5.802186,
			1.086187 -2.240000 5.879200,
			0.908801 -2.240000 5.802186,
		] }
		coordIndex [
			0 1 2 -1,
			2 1 3 -1,
			3 36 2 -1,
			4 3 5 -1,
			4 5 6 -1,
			6 37 4 -1,
			8 7 6 -1,
			9 7 8 -1,
			9 38 7 -1,
			11 10 9 -1,
			11 39 10 -1,
			11 0 2 -1,
			12 13 1 -1,
			1 13 3 -1,
			3 13 5 -1,
			5 13 14 -1,
			5 14 15 -1,
			15 14 16 -1,
			17 6 15 -1,
			15 6 5 -1,
			21 19 11 -1,
			11 19 0 -1,
			15 16 23 -1,
			23 16 24 -1,
			23 24 20 -1,
			20 24 19 -1,
			18 40 26 -1,
			41 18 26 -1,
			22 18 27 -1,
			42 22 27 -1,
			22 28 20 -1,
			43 20 28 -1,
			25 23 20 -1,
			25 18 23 -1,
			21 29 22 -1,
			22 29 30 -1,
			22 30 18 -1,
			18 30 17 -1,
			14 31 16 -1,
			16 31 24 -1,
			31 13 12 -1,
			24 31 19 -1,
			19 31 12 -1,
			19 12 0 -1,
			0 12 1 -1,
			30 32 17 -1,
			17 32 33 -1,
			17 33 6 -1,
			6 33 8 -1,
			9 8 34 -1,
			34 8 33 -1,
			29 21 35 -1,
			35 21 11 -1,
			35 11 34 -1,
			34 11 9 -1,
			35 32 29 -1,
			29 32 30 -1,
			32 35 33 -1,
			33 35 34 -1,
			19 22 20 -1,
			17 23 18 -1,
			3 4 36 -1,
			6 7 37 -1,
			9 10 38 -1,
			11 2 39 -1,
			18 25 40 -1,
			41 27 18 -1,
			42 28 22 -1,
			43 25 20 -1,
			31 14 13 -1,
			19 21 22 -1,
			17 15 23 -1,
		]
		normal Normal { vector [
			-0.297102 -0.630259 0.717289,
			-0.573236 -0.705972 0.415937,
			-0.000000 -1.000000 -0.000000,
			-0.573248 -0.705958 -0.415944,
			-0.000000 -1.000000 -0.000000,
			-0.297109 -0.630253 -0.717292,
			0.297098 -0.630251 -0.717298,
			-0.000000 -1.000000 -0.000000,
			0.573236 -0.705972 -0.415937,
			0.573249 -0.705958 0.415945,
			-0.000000 -1.000000 -0.000000,
			0.297105 -0.630245 0.717300,
			-0.905411 -0.300194 0.300191,
			-0.905413 -0.300189 -0.300189,
			-0.905411 0.300195 -0.300191,
			-0.297092 0.630272 -0.717282,
			-0.573236 0.705972 -0.415937,
			0.297106 0.630260 -0.717286,
			0.000000 1.000000 0.000000,
			-0.297103 0.630253 0.717295,
			0.000000 1.000000 0.000000,
			0.297096 0.630280 0.717274,
			0.000000 1.000000 0.000000,
			0.000000 1.000000 0.000000,
			-0.573241 0.705967 0.415939,
			0.000000 1.000000 0.000000,
			0.000000 1.000000 0.000000,
			0.000000 1.000000 0.000000,
			0.000000 1.000000 0.000000,
			0.573236 0.705972 0.415937,
			0.573241 0.705967 -0.415939,
			-0.905413 0.300190 0.300189,
			0.905410 0.300194 -0.300194,
			0.905414 -0.300190 -0.300187,
			0.905410 -0.300194 0.300194,
			0.905414 0.300190 0.300187,
			-0.000000 -1.000000 -0.000000,
			-0.000000 -1.000000 -0.000000,
			-0.000000 -1.000000 -0.000000,
			-0.000000 -1.000000 -0.000000,
			0.000000 1.000000 0.000000,
			0.000000 1.000000 0.000000,
			0.000000 1.000000 0.000000,
			0.000000 1.000000 0.000000,
		] }
		normalPerVertex TRUE
		solid TRUE
	}
	appearance Appearance {
		material Material {
			diffuseColor 0.2980 0.2980 0.2980
			transparency 0.0000
			shininess 0.0000
		}
	}
}

Shape # Material: Gold.006
{
	geometry IndexedFaceSet {
		coord Coordinate { point [
			0.970001 -0.784000 5.685999,
			0.970001 -0.784000 5.817999,
			0.908801 -3.016000 5.879200,
			1.102001 -0.784000 5.685999,
			1.102001 -0.784000 5.817999,
			0.908801 -3.016000 5.624799,
			0.908801 -0.889600 5.879200,
			0.908801 -0.889600 5.624799,
			1.163201 -0.889600 5.879200,
			1.163201 -3.016000 5.624799,
			1.163201 -0.889600 5.624799,
			0.908800 -5.350400 5.624799,
			1.163200 -5.350400 5.624799,
			1.163201 -3.016000 5.879200,
			0.908800 -5.350400 5.879200,
			1.163200 -5.350400 5.879200,
			1.102000 -5.456000 5.817999,
			1.102000 -5.456000 5.685999,
			0.970000 -5.456000 5.817999,
			0.970000 -5.456000 5.685999,
			0.908801 -2.240000 5.624799,
			1.163201 -2.240000 5.624799,
			1.163201 -2.240000 5.879200,
			0.908801 -2.240000 5.879200,
			0.908801 -3.016000 5.757930,
			1.041932 -3.016000 5.624799,
			1.163201 -3.016000 5.757930,
			1.041932 -3.016000 5.879200,
			1.086187 -2.240000 5.624799,
			1.163201 -2.240000 5.802186,
			1.086187 -2.240000 5.879200,
			0.908801 -2.240000 5.802186,
		] }
		coordIndex [
			0 1 3 -1,
			3 1 4 -1,
			1 0 6 -1,
			6 0 7 -1,
			4 1 8 -1,
			8 1 6 -1,
			3 4 10 -1,
			10 4 8 -1,
			0 3 7 -1,
			7 3 10 -1,
			5 25 11 -1,
			7 28 20 -1,
			21 28 10 -1,
			12 25 9 -1,
			7 31 6 -1,
			24 5 11 -1,
			31 23 6 -1,
			14 24 11 -1,
			2 14 27 -1,
			30 6 23 -1,
			22 8 30 -1,
			27 15 13 -1,
			10 29 21 -1,
			26 12 9 -1,
			29 8 22 -1,
			15 26 13 -1,
			16 17 15 -1,
			15 17 12 -1,
			18 19 16 -1,
			16 19 17 -1,
			19 18 11 -1,
			11 18 14 -1,
			17 19 12 -1,
			12 19 11 -1,
			18 16 14 -1,
			14 16 15 -1,
			7 10 28 -1,
			12 11 25 -1,
			7 20 31 -1,
			14 2 24 -1,
			30 8 6 -1,
			27 14 15 -1,
			10 8 29 -1,
			15 12 26 -1,
		]
		normal Normal { vector [
			-0.401402 0.823259 -0.401398,
			-0.401391 0.823266 0.401396,
			-0.707107 0.000000 0.707107,
			0.401392 0.823266 -0.401396,
			0.401403 0.823259 0.401398,
			-0.707107 0.000000 -0.707107,
			-0.675355 0.296338 0.675337,
			-0.675339 0.296339 -0.675352,
			0.675340 0.296337 0.675352,
			0.707107 -0.000000 -0.707107,
			0.675349 0.296338 -0.675343,
			-0.675352 -0.296337 -0.675340,
			0.675340 -0.296337 -0.675352,
			0.707107 -0.000000 0.707107,
			-0.675340 -0.296337 0.675352,
			0.675352 -0.296337 0.675340,
			0.401391 -0.823266 0.401396,
			0.401402 -0.823259 -0.401398,
			-0.401403 -0.823259 0.401398,
			-0.401392 -0.823265 -0.401396,
			-0.707107 0.000000 -0.707107,
			0.707107 -0.000000 -0.707107,
			0.707107 -0.000000 0.707107,
			-0.707107 0.000000 0.707107,
			-1.000000 0.000000 -0.000000,
			0.000000 0.000000 -1.000000,
			1.000000 -0.000000 0.000000,
			-0.000000 -0.000000 1.000000,
			0.000000 0.000000 -1.000000,
			1.000000 -0.000000 0.000000,
			-0.000000 -0.000000 1.000000,
			-1.000000 0.000000 -0.000000,
		] }
		normalPerVertex TRUE
		solid TRUE
	}
	appearance Appearance {
		material Material {
			diffuseColor 0.8550 0.8070 0.4020
			transparency 0.0000
			shininess 0.6000
		}
	}
}

Shape # Material: m20-9990345_color_1.015
{
	geometry IndexedFaceSet {
		coord Coordinate { point [
			1.744001 -3.016000 6.259999,
			1.644001 -3.016000 6.159999,
			1.924801 -3.016000 5.879200,
			1.644001 -3.016000 5.343999,
			1.924801 -3.016000 5.624799,
			1.744001 -3.016000 5.243999,
			2.360001 -3.016000 5.243999,
			2.179201 -3.016000 5.624799,
			2.460001 -3.016000 5.343999,
			2.460001 -3.016000 6.159999,
			2.179201 -3.016000 5.879200,
			2.360001 -3.016000 6.259999,
			1.544001 -2.916000 6.059999,
			1.544001 -2.916000 5.443999,
			1.544001 -2.340000 5.443999,
			1.744001 -2.240000 5.243999,
			1.644001 -2.240000 5.343999,
			2.360001 -2.240000 5.243999,
			2.360001 -2.240000 5.443999,
			1.744001 -2.240000 6.259999,
			1.744001 -2.240000 6.059999,
			2.360001 -2.240000 6.259999,
			2.360001 -2.240000 6.059999,
			1.744001 -2.240000 5.443999,
			1.644001 -2.240000 6.159999,
			1.924801 -2.240000 5.624799,
			2.179201 -2.240000 5.624799,
			2.179201 -2.240000 5.879200,
			1.924801 -2.240000 5.879200,
			2.460001 -2.240000 6.159999,
			2.460001 -2.240000 5.343999,
			1.544001 -2.340000 6.059999,
			2.560001 -2.340000 5.443999,
			2.560001 -2.916000 5.443999,
			2.560001 -2.916000 6.059999,
			2.560001 -2.340000 6.059999,
			1.924801 -3.016000 5.757930,
			2.057932 -3.016000 5.624799,
			2.179201 -3.016000 5.757930,
			2.057932 -3.016000 5.879200,
			2.102187 -2.240000 5.624799,
			2.179201 -2.240000 5.802186,
			2.102187 -2.240000 5.879200,
			1.924801 -2.240000 5.802186,
		] }
		coordIndex [
			0 1 2 -1,
			2 1 3 -1,
			3 36 2 -1,
			4 3 5 -1,
			4 5 6 -1,
			6 37 4 -1,
			8 7 6 -1,
			9 7 8 -1,
			9 38 7 -1,
			11 10 9 -1,
			11 39 10 -1,
			11 0 2 -1,
			12 13 1 -1,
			1 13 3 -1,
			3 13 5 -1,
			5 13 14 -1,
			5 14 15 -1,
			15 14 16 -1,
			17 6 15 -1,
			15 6 5 -1,
			21 19 11 -1,
			11 19 0 -1,
			15 16 23 -1,
			23 16 24 -1,
			23 24 20 -1,
			20 24 19 -1,
			18 40 26 -1,
			41 18 26 -1,
			22 18 27 -1,
			42 22 27 -1,
			22 28 20 -1,
			43 20 28 -1,
			25 23 20 -1,
			25 18 23 -1,
			21 29 22 -1,
			22 29 30 -1,
			22 30 18 -1,
			18 30 17 -1,
			14 31 16 -1,
			16 31 24 -1,
			31 13 12 -1,
			24 31 19 -1,
			19 31 12 -1,
			19 12 0 -1,
			0 12 1 -1,
			30 32 17 -1,
			17 32 33 -1,
			17 33 6 -1,
			6 33 8 -1,
			9 8 34 -1,
			34 8 33 -1,
			29 21 35 -1,
			35 21 11 -1,
			35 11 34 -1,
			34 11 9 -1,
			35 32 29 -1,
			29 32 30 -1,
			32 35 33 -1,
			33 35 34 -1,
			19 22 20 -1,
			17 23 18 -1,
			3 4 36 -1,
			6 7 37 -1,
			9 10 38 -1,
			11 2 39 -1,
			18 25 40 -1,
			41 27 18 -1,
			42 28 22 -1,
			43 25 20 -1,
			31 14 13 -1,
			19 21 22 -1,
			17 15 23 -1,
		]
		normal Normal { vector [
			-0.297102 -0.630259 0.717289,
			-0.573236 -0.705972 0.415937,
			-0.000000 -1.000000 -0.000000,
			-0.573248 -0.705958 -0.415944,
			-0.000000 -1.000000 -0.000000,
			-0.297109 -0.630253 -0.717292,
			0.297098 -0.630251 -0.717298,
			-0.000000 -1.000000 -0.000000,
			0.573236 -0.705972 -0.415937,
			0.573249 -0.705958 0.415945,
			-0.000000 -1.000000 -0.000000,
			0.297105 -0.630245 0.717300,
			-0.905411 -0.300194 0.300191,
			-0.905413 -0.300189 -0.300189,
			-0.905411 0.300195 -0.300191,
			-0.297092 0.630272 -0.717282,
			-0.573236 0.705972 -0.415937,
			0.297106 0.630260 -0.717286,
			0.000000 1.000000 0.000000,
			-0.297103 0.630253 0.717295,
			0.000000 1.000000 0.000000,
			0.297096 0.630280 0.717274,
			0.000000 1.000000 0.000000,
			0.000000 1.000000 0.000000,
			-0.573241 0.705967 0.415939,
			0.000000 1.000000 0.000000,
			0.000000 1.000000 0.000000,
			0.000000 1.000000 0.000000,
			0.000000 1.000000 0.000000,
			0.573236 0.705972 0.415937,
			0.573241 0.705967 -0.415939,
			-0.905413 0.300190 0.300189,
			0.905410 0.300194 -0.300194,
			0.905414 -0.300190 -0.300187,
			0.905410 -0.300194 0.300194,
			0.905414 0.300190 0.300187,
			-0.000000 -1.000000 -0.000000,
			-0.000000 -1.000000 -0.000000,
			-0.000000 -1.000000 -0.000000,
			-0.000000 -1.000000 -0.000000,
			0.000000 1.000000 0.000000,
			0.000000 1.000000 0.000000,
			0.000000 1.000000 0.000000,
			0.000000 1.000000 0.000000,
		] }
		normalPerVertex TRUE
		solid TRUE
	}
	appearance Appearance {
		material Material {
			diffuseColor 0.2980 0.2980 0.2980
			transparency 0.0000
			shininess 0.0000
		}
	}
}

Shape # Material: Gold.007
{
	geometry IndexedFaceSet {
		coord Coordinate { point [
			1.986001 -0.784000 5.685999,
			1.986001 -0.784000 5.817999,
			1.924801 -3.016000 5.879200,
			2.118001 -0.784000 5.685999,
			2.118001 -0.784000 5.817999,
			1.924801 -3.016000 5.624799,
			1.924801 -0.889600 5.879200,
			1.924801 -0.889600 5.624799,
			2.179201 -0.889600 5.879200,
			2.179201 -3.016000 5.624799,
			2.179201 -0.889600 5.624799,
			1.924800 -5.350400 5.624799,
			2.179200 -5.350400 5.624799,
			2.179201 -3.016000 5.879200,
			1.924800 -5.350400 5.879200,
			2.179200 -5.350400 5.879200,
			2.118000 -5.456000 5.817999,
			2.118000 -5.456000 5.685999,
			1.986000 -5.456000 5.817999,
			1.986000 -5.456000 5.685999,
			1.924801 -2.240000 5.624799,
			2.179201 -2.240000 5.624799,
			2.179201 -2.240000 5.879200,
			1.924801 -2.240000 5.879200,
			1.924801 -3.016000 5.757930,
			2.057932 -3.016000 5.624799,
			2.179201 -3.016000 5.757930,
			2.057932 -3.016000 5.879200,
			2.102187 -2.240000 5.624799,
			2.179201 -2.240000 5.802186,
			2.102187 -2.240000 5.879200,
			1.924801 -2.240000 5.802186,
		] }
		coordIndex [
			0 1 3 -1,
			3 1 4 -1,
			1 0 6 -1,
			6 0 7 -1,
			4 1 8 -1,
			8 1 6 -1,
			3 4 10 -1,
			10 4 8 -1,
			0 3 7 -1,
			7 3 10 -1,
			5 25 11 -1,
			7 28 20 -1,
			21 28 10 -1,
			12 25 9 -1,
			7 31 6 -1,
			24 5 11 -1,
			31 23 6 -1,
			14 24 11 -1,
			2 14 27 -1,
			30 6 23 -1,
			22 8 30 -1,
			27 15 13 -1,
			10 29 21 -1,
			26 12 9 -1,
			29 8 22 -1,
			15 26 13 -1,
			16 17 15 -1,
			15 17 12 -1,
			18 19 16 -1,
			16 19 17 -1,
			19 18 11 -1,
			11 18 14 -1,
			17 19 12 -1,
			12 19 11 -1,
			18 16 14 -1,
			14 16 15 -1,
			7 10 28 -1,
			12 11 25 -1,
			7 20 31 -1,
			14 2 24 -1,
			30 8 6 -1,
			27 14 15 -1,
			10 8 29 -1,
			15 12 26 -1,
		]
		normal Normal { vector [
			-0.401402 0.823259 -0.401398,
			-0.401391 0.823266 0.401396,
			-0.707107 0.000000 0.707107,
			0.401392 0.823266 -0.401396,
			0.401403 0.823259 0.401398,
			-0.707107 0.000000 -0.707107,
			-0.675355 0.296338 0.675337,
			-0.675339 0.296339 -0.675352,
			0.675340 0.296337 0.675352,
			0.707107 -0.000000 -0.707107,
			0.675349 0.296338 -0.675343,
			-0.675352 -0.296337 -0.675340,
			0.675340 -0.296337 -0.675352,
			0.707107 -0.000000 0.707107,
			-0.675340 -0.296337 0.675352,
			0.675352 -0.296337 0.675340,
			0.401391 -0.823266 0.401396,
			0.401402 -0.823259 -0.401398,
			-0.401403 -0.823259 0.401398,
			-0.401392 -0.823265 -0.401396,
			-0.707107 0.000000 -0.707107,
			0.707107 -0.000000 -0.707107,
			0.707107 -0.000000 0.707107,
			-0.707107 0.000000 0.707107,
			-1.000000 0.000000 -0.000000,
			0.000000 0.000000 -1.000000,
			1.000000 -0.000000 0.000000,
			-0.000000 -0.000000 1.000000,
			0.000000 0.000000 -1.000000,
			1.000000 -0.000000 0.000000,
			-0.000000 -0.000000 1.000000,
			-1.000000 0.000000 -0.000000,
		] }
		normalPerVertex TRUE
		solid TRUE
	}
	appearance Appearance {
		material Material {
			diffuseColor 0.8550 0.8070 0.4020
			transparency 0.0000
			shininess 0.6000
		}
	}
}

