#VRML V2.0 utf8
# Exportiert mit Blender-WRL-Export (The Smart Assistant)

Shape # Material: Material
{
	geometry IndexedFaceSet {
		coord Coordinate { point [
			7.100000 0.320000 -6.740000,
			7.100000 -0.320000 -6.740000,
			7.100000 0.320000 6.740000,
			7.100000 -0.320000 6.740000,
			-7.100000 0.320000 -6.740000,
			-7.100000 -0.320000 -6.740000,
			-7.100000 0.320000 6.740000,
			-7.100000 -0.320000 6.740000,
		] }
		coordIndex [
			4 2 0 -1,
			2 7 3 -1,
			6 5 7 -1,
			1 7 5 -1,
			0 3 1 -1,
			4 1 5 -1,
			4 6 2 -1,
			2 6 7 -1,
			6 4 5 -1,
			1 3 7 -1,
			0 2 3 -1,
			4 0 1 -1,
		]
		normal Normal { vector [
			0.044977 0.997864 -0.047376,
			0.044972 -0.997864 -0.047376,
			0.044972 0.997864 0.047376,
			0.044977 -0.997864 0.047376,
			-0.044972 0.997864 -0.047376,
			-0.044977 -0.997864 -0.047376,
			-0.044977 0.997864 0.047376,
			-0.044972 -0.997864 0.047376,
		] }
		normalPerVertex TRUE
		solid TRUE
	}
	appearance Appearance {
		material Material {
			diffuseColor 0.8000 0.8000 0.8000
			transparency 0.0000
			shininess 0.5000
		}
	}
}

Shape # Material: m20-9990345_color_1.004
{
	geometry IndexedFaceSet {
		coord Coordinate { point [
			-3.396223 -1.100000 -5.726806,
			-3.496223 -1.100000 -5.826806,
			-3.215423 -1.100000 -6.107605,
			-3.496223 -1.100000 -6.642806,
			-3.215423 -1.100000 -6.362006,
			-3.396223 -1.100000 -6.742805,
			-2.780223 -1.100000 -6.742805,
			-2.961023 -1.100000 -6.362006,
			-2.680223 -1.100000 -6.642806,
			-2.680223 -1.100000 -5.826806,
			-2.961023 -1.100000 -6.107605,
			-2.780223 -1.100000 -5.726806,
			-3.596223 -1.000000 -5.926805,
			-3.596223 -1.000000 -6.542806,
			-3.596223 -0.424000 -6.542806,
			-3.396223 -0.324000 -6.742805,
			-3.496223 -0.324000 -6.642806,
			-2.780223 -0.324000 -6.742805,
			-2.780223 -0.324000 -6.542806,
			-3.396223 -0.324000 -5.726806,
			-3.396223 -0.324000 -5.926805,
			-2.780223 -0.324000 -5.726806,
			-2.780223 -0.324000 -5.926805,
			-3.396223 -0.324000 -6.542806,
			-3.496223 -0.324000 -5.826806,
			-3.215423 -0.324000 -6.362006,
			-2.961023 -0.324000 -6.362006,
			-2.961023 -0.324000 -6.107605,
			-3.215423 -0.324000 -6.107605,
			-2.680223 -0.324000 -5.826806,
			-2.680223 -0.324000 -6.642806,
			-3.596223 -0.424000 -5.926805,
			-2.580223 -0.424000 -6.542806,
			-2.580223 -1.000000 -6.542806,
			-2.580223 -1.000000 -5.926805,
			-2.580223 -0.424000 -5.926805,
			-3.215423 -1.100000 -6.228874,
			-3.082292 -1.100000 -6.362006,
			-2.961023 -1.100000 -6.228874,
			-3.082292 -1.100000 -6.107605,
			-3.038036 -0.324000 -6.362006,
			-2.961023 -0.324000 -6.184619,
			-3.038036 -0.324000 -6.107605,
			-3.215423 -0.324000 -6.184619,
			-2.380223 -1.100000 -5.726806,
			-2.480223 -1.100000 -5.826806,
			-2.199423 -1.100000 -6.107605,
			-2.480223 -1.100000 -6.642806,
			-2.199423 -1.100000 -6.362006,
			-2.380223 -1.100000 -6.742805,
			-1.764223 -1.100000 -6.742805,
			-1.945023 -1.100000 -6.362006,
			-1.664223 -1.100000 -6.642806,
			-1.664223 -1.100000 -5.826806,
			-1.945023 -1.100000 -6.107605,
			-1.764223 -1.100000 -5.726806,
			-2.580223 -1.000000 -5.926805,
			-2.580223 -1.000000 -6.542806,
			-2.580223 -0.424000 -6.542806,
			-2.380223 -0.324000 -6.742805,
			-2.480223 -0.324000 -6.642806,
			-1.764223 -0.324000 -6.742805,
			-1.764223 -0.324000 -6.542806,
			-2.380223 -0.324000 -5.726806,
			-2.380223 -0.324000 -5.926805,
			-1.764223 -0.324000 -5.726806,
			-1.764223 -0.324000 -5.926805,
			-2.380223 -0.324000 -6.542806,
			-2.480223 -0.324000 -5.826806,
			-2.199423 -0.324000 -6.362006,
			-1.945023 -0.324000 -6.362006,
			-1.945023 -0.324000 -6.107605,
			-2.199423 -0.324000 -6.107605,
			-1.664223 -0.324000 -5.826806,
			-1.664223 -0.324000 -6.642806,
			-2.580223 -0.424000 -5.926805,
			-1.564223 -0.424000 -6.542806,
			-1.564223 -1.000000 -6.542806,
			-1.564223 -1.000000 -5.926805,
			-1.564223 -0.424000 -5.926805,
			-2.199423 -1.100000 -6.228874,
			-2.066292 -1.100000 -6.362006,
			-1.945023 -1.100000 -6.228874,
			-2.066292 -1.100000 -6.107605,
			-2.022036 -0.324000 -6.362006,
			-1.945023 -0.324000 -6.184619,
			-2.022036 -0.324000 -6.107605,
			-2.199423 -0.324000 -6.184619,
			-1.364223 -1.100000 -5.726806,
			-1.464223 -1.100000 -5.826806,
			-1.183423 -1.100000 -6.107605,
			-1.464223 -1.100000 -6.642806,
			-1.183423 -1.100000 -6.362006,
			-1.364223 -1.100000 -6.742805,
			-0.748223 -1.100000 -6.742805,
			-0.929023 -1.100000 -6.362006,
			-0.648223 -1.100000 -6.642806,
			-0.648223 -1.100000 -5.826806,
			-0.929023 -1.100000 -6.107605,
			-0.748223 -1.100000 -5.726806,
			-1.564223 -1.000000 -5.926805,
			-1.564223 -1.000000 -6.542806,
			-1.564223 -0.424000 -6.542806,
			-1.364223 -0.324000 -6.742805,
			-1.464223 -0.324000 -6.642806,
			-0.748223 -0.324000 -6.742805,
			-0.748223 -0.324000 -6.542806,
			-1.364223 -0.324000 -5.726806,
			-1.364223 -0.324000 -5.926805,
			-0.748223 -0.324000 -5.726806,
			-0.748223 -0.324000 -5.926805,
			-1.364223 -0.324000 -6.542806,
			-1.464223 -0.324000 -5.826806,
			-1.183423 -0.324000 -6.362006,
			-0.929023 -0.324000 -6.362006,
			-0.929023 -0.324000 -6.107605,
			-1.183423 -0.324000 -6.107605,
			-0.648223 -0.324000 -5.826806,
			-0.648223 -0.324000 -6.642806,
			-1.564223 -0.424000 -5.926805,
			-0.548223 -0.424000 -6.542806,
			-0.548223 -1.000000 -6.542806,
			-0.548223 -1.000000 -5.926805,
			-0.548223 -0.424000 -5.926805,
			-1.183423 -1.100000 -6.228874,
			-1.050292 -1.100000 -6.362006,
			-0.929023 -1.100000 -6.228874,
			-1.050292 -1.100000 -6.107605,
			-1.006036 -0.324000 -6.362006,
			-0.929023 -0.324000 -6.184619,
			-1.006036 -0.324000 -6.107605,
			-1.183423 -0.324000 -6.184619,
			-0.348223 -1.100000 -5.726806,
			-0.448223 -1.100000 -5.826806,
			-0.167423 -1.100000 -6.107605,
			-0.448223 -1.100000 -6.642806,
			-0.167423 -1.100000 -6.362006,
			-0.348223 -1.100000 -6.742805,
			0.267777 -1.100000 -6.742805,
			0.086977 -1.100000 -6.362006,
			0.367777 -1.100000 -6.642806,
			0.367777 -1.100000 -5.826806,
			0.086977 -1.100000 -6.107605,
			0.267777 -1.100000 -5.726806,
			-0.548223 -1.000000 -5.926805,
			-0.548223 -1.000000 -6.542806,
			-0.548223 -0.424000 -6.542806,
			-0.348223 -0.324000 -6.742805,
			-0.448223 -0.324000 -6.642806,
			0.267777 -0.324000 -6.742805,
			0.267777 -0.324000 -6.542806,
			-0.348223 -0.324000 -5.726806,
			-0.348223 -0.324000 -5.926805,
			0.267777 -0.324000 -5.726806,
			0.267777 -0.324000 -5.926805,
			-0.348223 -0.324000 -6.542806,
			-0.448223 -0.324000 -5.826806,
			-0.167423 -0.324000 -6.362006,
			0.086977 -0.324000 -6.362006,
			0.086977 -0.324000 -6.107605,
			-0.167423 -0.324000 -6.107605,
			0.367777 -0.324000 -5.826806,
			0.367777 -0.324000 -6.642806,
			-0.548223 -0.424000 -5.926805,
			0.467777 -0.424000 -6.542806,
			0.467777 -1.000000 -6.542806,
			0.467777 -1.000000 -5.926805,
			0.467777 -0.424000 -5.926805,
			-0.167423 -1.100000 -6.228874,
			-0.034292 -1.100000 -6.362006,
			0.086977 -1.100000 -6.228874,
			-0.034292 -1.100000 -6.107605,
			0.009964 -0.324000 -6.362006,
			0.086977 -0.324000 -6.184619,
			0.009964 -0.324000 -6.107605,
			-0.167423 -0.324000 -6.184619,
			0.667777 -1.100000 -5.726806,
			0.567777 -1.100000 -5.826806,
			0.848577 -1.100000 -6.107605,
			0.567777 -1.100000 -6.642806,
			0.848577 -1.100000 -6.362006,
			0.667777 -1.100000 -6.742805,
			1.283777 -1.100000 -6.742805,
			1.102977 -1.100000 -6.362006,
			1.383777 -1.100000 -6.642806,
			1.383777 -1.100000 -5.826806,
			1.102977 -1.100000 -6.107605,
			1.283777 -1.100000 -5.726806,
			0.467777 -1.000000 -5.926805,
			0.467777 -1.000000 -6.542806,
			0.467777 -0.424000 -6.542806,
			0.667777 -0.324000 -6.742805,
			0.567777 -0.324000 -6.642806,
			1.283777 -0.324000 -6.742805,
			1.283777 -0.324000 -6.542806,
			0.667777 -0.324000 -5.726806,
			0.667777 -0.324000 -5.926805,
			1.283777 -0.324000 -5.726806,
			1.283777 -0.324000 -5.926805,
			0.667777 -0.324000 -6.542806,
			0.567777 -0.324000 -5.826806,
			0.848577 -0.324000 -6.362006,
			1.102977 -0.324000 -6.362006,
			1.102977 -0.324000 -6.107605,
			0.848577 -0.324000 -6.107605,
			1.383777 -0.324000 -5.826806,
			1.383777 -0.324000 -6.642806,
			0.467777 -0.424000 -5.926805,
			1.483777 -0.424000 -6.542806,
			1.483777 -1.000000 -6.542806,
			1.483777 -1.000000 -5.926805,
			1.483777 -0.424000 -5.926805,
			0.848577 -1.100000 -6.228874,
			0.981708 -1.100000 -6.362006,
			1.102977 -1.100000 -6.228874,
			0.981708 -1.100000 -6.107605,
			1.025964 -0.324000 -6.362006,
			1.102977 -0.324000 -6.184619,
			1.025964 -0.324000 -6.107605,
			0.848577 -0.324000 -6.184619,
			1.683777 -1.100000 -5.726806,
			1.583777 -1.100000 -5.826806,
			1.864577 -1.100000 -6.107605,
			1.583777 -1.100000 -6.642806,
			1.864577 -1.100000 -6.362006,
			1.683777 -1.100000 -6.742805,
			2.299777 -1.100000 -6.742805,
			2.118977 -1.100000 -6.362006,
			2.399777 -1.100000 -6.642806,
			2.399777 -1.100000 -5.826806,
			2.118977 -1.100000 -6.107605,
			2.299777 -1.100000 -5.726806,
			1.483777 -1.000000 -5.926805,
			1.483777 -1.000000 -6.542806,
			1.483777 -0.424000 -6.542806,
			1.683777 -0.324000 -6.742805,
			1.583777 -0.324000 -6.642806,
			2.299777 -0.324000 -6.742805,
			2.299777 -0.324000 -6.542806,
			1.683777 -0.324000 -5.726806,
			1.683777 -0.324000 -5.926805,
			2.299777 -0.324000 -5.726806,
			2.299777 -0.324000 -5.926805,
			1.683777 -0.324000 -6.542806,
			1.583777 -0.324000 -5.826806,
			1.864577 -0.324000 -6.362006,
			2.118977 -0.324000 -6.362006,
			2.118977 -0.324000 -6.107605,
			1.864577 -0.324000 -6.107605,
			2.399777 -0.324000 -5.826806,
			2.399777 -0.324000 -6.642806,
			1.483777 -0.424000 -5.926805,
			2.499777 -0.424000 -6.542806,
			2.499777 -1.000000 -6.542806,
			2.499777 -1.000000 -5.926805,
			2.499777 -0.424000 -5.926805,
			1.864577 -1.100000 -6.228874,
			1.997708 -1.100000 -6.362006,
			2.118977 -1.100000 -6.228874,
			1.997708 -1.100000 -6.107605,
			2.041964 -0.324000 -6.362006,
			2.118977 -0.324000 -6.184619,
			2.041964 -0.324000 -6.107605,
			1.864577 -0.324000 -6.184619,
			2.699777 -1.100000 -5.726806,
			2.599777 -1.100000 -5.826806,
			2.880577 -1.100000 -6.107605,
			2.599777 -1.100000 -6.642806,
			2.880577 -1.100000 -6.362006,
			2.699777 -1.100000 -6.742805,
			3.315777 -1.100000 -6.742805,
			3.134977 -1.100000 -6.362006,
			3.415777 -1.100000 -6.642806,
			3.415777 -1.100000 -5.826806,
			3.134977 -1.100000 -6.107605,
			3.315777 -1.100000 -5.726806,
			2.499777 -1.000000 -5.926805,
			2.499777 -1.000000 -6.542806,
			2.499777 -0.424000 -6.542806,
			2.699777 -0.324000 -6.742805,
			2.599777 -0.324000 -6.642806,
			3.315777 -0.324000 -6.742805,
			3.315777 -0.324000 -6.542806,
			2.699777 -0.324000 -5.726806,
			2.699777 -0.324000 -5.926805,
			3.315777 -0.324000 -5.726806,
			3.315777 -0.324000 -5.926805,
			2.699777 -0.324000 -6.542806,
			2.599777 -0.324000 -5.826806,
			2.880577 -0.324000 -6.362006,
			3.134977 -0.324000 -6.362006,
			3.134977 -0.324000 -6.107605,
			2.880577 -0.324000 -6.107605,
			3.415777 -0.324000 -5.826806,
			3.415777 -0.324000 -6.642806,
			2.499777 -0.424000 -5.926805,
			3.515777 -0.424000 -6.542806,
			3.515777 -1.000000 -6.542806,
			3.515777 -1.000000 -5.926805,
			3.515777 -0.424000 -5.926805,
			2.880577 -1.100000 -6.228874,
			3.013708 -1.100000 -6.362006,
			3.134977 -1.100000 -6.228874,
			3.013708 -1.100000 -6.107605,
			3.057964 -0.324000 -6.362006,
			3.134977 -0.324000 -6.184619,
			3.057964 -0.324000 -6.107605,
			2.880577 -0.324000 -6.184619,
		] }
		coordIndex [
			0 1 2 -1,
			2 1 3 -1,
			3 36 2 -1,
			4 3 5 -1,
			4 5 6 -1,
			6 37 4 -1,
			8 7 6 -1,
			9 7 8 -1,
			9 38 7 -1,
			11 10 9 -1,
			11 39 10 -1,
			11 0 2 -1,
			12 13 1 -1,
			1 13 3 -1,
			3 13 5 -1,
			5 13 14 -1,
			5 14 15 -1,
			15 14 16 -1,
			17 6 15 -1,
			15 6 5 -1,
			21 19 11 -1,
			11 19 0 -1,
			15 16 23 -1,
			23 16 24 -1,
			23 24 20 -1,
			20 24 19 -1,
			18 40 26 -1,
			41 18 26 -1,
			22 18 27 -1,
			42 22 27 -1,
			22 28 20 -1,
			43 20 28 -1,
			25 23 20 -1,
			25 18 23 -1,
			21 29 22 -1,
			22 29 30 -1,
			22 30 18 -1,
			18 30 17 -1,
			14 31 16 -1,
			16 31 24 -1,
			31 13 12 -1,
			24 31 19 -1,
			19 31 12 -1,
			19 12 0 -1,
			0 12 1 -1,
			30 32 17 -1,
			17 32 33 -1,
			17 33 6 -1,
			6 33 8 -1,
			9 8 34 -1,
			34 8 33 -1,
			29 21 35 -1,
			35 21 11 -1,
			35 11 34 -1,
			34 11 9 -1,
			35 32 29 -1,
			29 32 30 -1,
			32 35 33 -1,
			33 35 34 -1,
			19 22 20 -1,
			17 23 18 -1,
			44 45 46 -1,
			46 45 47 -1,
			47 80 46 -1,
			48 47 49 -1,
			48 49 50 -1,
			50 81 48 -1,
			52 51 50 -1,
			53 51 52 -1,
			53 82 51 -1,
			55 54 53 -1,
			55 83 54 -1,
			55 44 46 -1,
			56 57 45 -1,
			45 57 47 -1,
			47 57 49 -1,
			49 57 58 -1,
			49 58 59 -1,
			59 58 60 -1,
			61 50 59 -1,
			59 50 49 -1,
			65 63 55 -1,
			55 63 44 -1,
			59 60 67 -1,
			67 60 68 -1,
			67 68 64 -1,
			64 68 63 -1,
			62 84 70 -1,
			85 62 70 -1,
			66 62 71 -1,
			86 66 71 -1,
			66 72 64 -1,
			87 64 72 -1,
			69 67 64 -1,
			69 62 67 -1,
			65 73 66 -1,
			66 73 74 -1,
			66 74 62 -1,
			62 74 61 -1,
			58 75 60 -1,
			60 75 68 -1,
			75 57 56 -1,
			68 75 63 -1,
			63 75 56 -1,
			63 56 44 -1,
			44 56 45 -1,
			74 76 61 -1,
			61 76 77 -1,
			61 77 50 -1,
			50 77 52 -1,
			53 52 78 -1,
			78 52 77 -1,
			73 65 79 -1,
			79 65 55 -1,
			79 55 78 -1,
			78 55 53 -1,
			79 76 73 -1,
			73 76 74 -1,
			76 79 77 -1,
			77 79 78 -1,
			63 66 64 -1,
			61 67 62 -1,
			88 89 90 -1,
			90 89 91 -1,
			91 124 90 -1,
			92 91 93 -1,
			92 93 94 -1,
			94 125 92 -1,
			96 95 94 -1,
			97 95 96 -1,
			97 126 95 -1,
			99 98 97 -1,
			99 127 98 -1,
			99 88 90 -1,
			100 101 89 -1,
			89 101 91 -1,
			91 101 93 -1,
			93 101 102 -1,
			93 102 103 -1,
			103 102 104 -1,
			105 94 103 -1,
			103 94 93 -1,
			109 107 99 -1,
			99 107 88 -1,
			103 104 111 -1,
			111 104 112 -1,
			111 112 108 -1,
			108 112 107 -1,
			106 128 114 -1,
			129 106 114 -1,
			110 106 115 -1,
			130 110 115 -1,
			110 116 108 -1,
			131 108 116 -1,
			113 111 108 -1,
			113 106 111 -1,
			109 117 110 -1,
			110 117 118 -1,
			110 118 106 -1,
			106 118 105 -1,
			102 119 104 -1,
			104 119 112 -1,
			119 101 100 -1,
			112 119 107 -1,
			107 119 100 -1,
			107 100 88 -1,
			88 100 89 -1,
			118 120 105 -1,
			105 120 121 -1,
			105 121 94 -1,
			94 121 96 -1,
			97 96 122 -1,
			122 96 121 -1,
			117 109 123 -1,
			123 109 99 -1,
			123 99 122 -1,
			122 99 97 -1,
			123 120 117 -1,
			117 120 118 -1,
			120 123 121 -1,
			121 123 122 -1,
			107 110 108 -1,
			105 111 106 -1,
			132 133 134 -1,
			134 133 135 -1,
			135 168 134 -1,
			136 135 137 -1,
			136 137 138 -1,
			138 169 136 -1,
			140 139 138 -1,
			141 139 140 -1,
			141 170 139 -1,
			143 142 141 -1,
			143 171 142 -1,
			143 132 134 -1,
			144 145 133 -1,
			133 145 135 -1,
			135 145 137 -1,
			137 145 146 -1,
			137 146 147 -1,
			147 146 148 -1,
			149 138 147 -1,
			147 138 137 -1,
			153 151 143 -1,
			143 151 132 -1,
			147 148 155 -1,
			155 148 156 -1,
			155 156 152 -1,
			152 156 151 -1,
			150 172 158 -1,
			173 150 158 -1,
			154 150 159 -1,
			174 154 159 -1,
			154 160 152 -1,
			175 152 160 -1,
			157 155 152 -1,
			157 150 155 -1,
			153 161 154 -1,
			154 161 162 -1,
			154 162 150 -1,
			150 162 149 -1,
			146 163 148 -1,
			148 163 156 -1,
			163 145 144 -1,
			156 163 151 -1,
			151 163 144 -1,
			151 144 132 -1,
			132 144 133 -1,
			162 164 149 -1,
			149 164 165 -1,
			149 165 138 -1,
			138 165 140 -1,
			141 140 166 -1,
			166 140 165 -1,
			161 153 167 -1,
			167 153 143 -1,
			167 143 166 -1,
			166 143 141 -1,
			167 164 161 -1,
			161 164 162 -1,
			164 167 165 -1,
			165 167 166 -1,
			151 154 152 -1,
			149 155 150 -1,
			176 177 178 -1,
			178 177 179 -1,
			179 212 178 -1,
			180 179 181 -1,
			180 181 182 -1,
			182 213 180 -1,
			184 183 182 -1,
			185 183 184 -1,
			185 214 183 -1,
			187 186 185 -1,
			187 215 186 -1,
			187 176 178 -1,
			188 189 177 -1,
			177 189 179 -1,
			179 189 181 -1,
			181 189 190 -1,
			181 190 191 -1,
			191 190 192 -1,
			193 182 191 -1,
			191 182 181 -1,
			197 195 187 -1,
			187 195 176 -1,
			191 192 199 -1,
			199 192 200 -1,
			199 200 196 -1,
			196 200 195 -1,
			194 216 202 -1,
			217 194 202 -1,
			198 194 203 -1,
			218 198 203 -1,
			198 204 196 -1,
			219 196 204 -1,
			201 199 196 -1,
			201 194 199 -1,
			197 205 198 -1,
			198 205 206 -1,
			198 206 194 -1,
			194 206 193 -1,
			190 207 192 -1,
			192 207 200 -1,
			207 189 188 -1,
			200 207 195 -1,
			195 207 188 -1,
			195 188 176 -1,
			176 188 177 -1,
			206 208 193 -1,
			193 208 209 -1,
			193 209 182 -1,
			182 209 184 -1,
			185 184 210 -1,
			210 184 209 -1,
			205 197 211 -1,
			211 197 187 -1,
			211 187 210 -1,
			210 187 185 -1,
			211 208 205 -1,
			205 208 206 -1,
			208 211 209 -1,
			209 211 210 -1,
			195 198 196 -1,
			193 199 194 -1,
			220 221 222 -1,
			222 221 223 -1,
			223 256 222 -1,
			224 223 225 -1,
			224 225 226 -1,
			226 257 224 -1,
			228 227 226 -1,
			229 227 228 -1,
			229 258 227 -1,
			231 230 229 -1,
			231 259 230 -1,
			231 220 222 -1,
			232 233 221 -1,
			221 233 223 -1,
			223 233 225 -1,
			225 233 234 -1,
			225 234 235 -1,
			235 234 236 -1,
			237 226 235 -1,
			235 226 225 -1,
			241 239 231 -1,
			231 239 220 -1,
			235 236 243 -1,
			243 236 244 -1,
			243 244 240 -1,
			240 244 239 -1,
			238 260 246 -1,
			261 238 246 -1,
			242 238 247 -1,
			262 242 247 -1,
			242 248 240 -1,
			263 240 248 -1,
			245 243 240 -1,
			245 238 243 -1,
			241 249 242 -1,
			242 249 250 -1,
			242 250 238 -1,
			238 250 237 -1,
			234 251 236 -1,
			236 251 244 -1,
			251 233 232 -1,
			244 251 239 -1,
			239 251 232 -1,
			239 232 220 -1,
			220 232 221 -1,
			250 252 237 -1,
			237 252 253 -1,
			237 253 226 -1,
			226 253 228 -1,
			229 228 254 -1,
			254 228 253 -1,
			249 241 255 -1,
			255 241 231 -1,
			255 231 254 -1,
			254 231 229 -1,
			255 252 249 -1,
			249 252 250 -1,
			252 255 253 -1,
			253 255 254 -1,
			239 242 240 -1,
			237 243 238 -1,
			264 265 266 -1,
			266 265 267 -1,
			267 300 266 -1,
			268 267 269 -1,
			268 269 270 -1,
			270 301 268 -1,
			272 271 270 -1,
			273 271 272 -1,
			273 302 271 -1,
			275 274 273 -1,
			275 303 274 -1,
			275 264 266 -1,
			276 277 265 -1,
			265 277 267 -1,
			267 277 269 -1,
			269 277 278 -1,
			269 278 279 -1,
			279 278 280 -1,
			281 270 279 -1,
			279 270 269 -1,
			285 283 275 -1,
			275 283 264 -1,
			279 280 287 -1,
			287 280 288 -1,
			287 288 284 -1,
			284 288 283 -1,
			282 304 290 -1,
			305 282 290 -1,
			286 282 291 -1,
			306 286 291 -1,
			286 292 284 -1,
			307 284 292 -1,
			289 287 284 -1,
			289 282 287 -1,
			285 293 286 -1,
			286 293 294 -1,
			286 294 282 -1,
			282 294 281 -1,
			278 295 280 -1,
			280 295 288 -1,
			295 277 276 -1,
			288 295 283 -1,
			283 295 276 -1,
			283 276 264 -1,
			264 276 265 -1,
			294 296 281 -1,
			281 296 297 -1,
			281 297 270 -1,
			270 297 272 -1,
			273 272 298 -1,
			298 272 297 -1,
			293 285 299 -1,
			299 285 275 -1,
			299 275 298 -1,
			298 275 273 -1,
			299 296 293 -1,
			293 296 294 -1,
			296 299 297 -1,
			297 299 298 -1,
			283 286 284 -1,
			281 287 282 -1,
			3 4 36 -1,
			6 7 37 -1,
			9 10 38 -1,
			11 2 39 -1,
			18 25 40 -1,
			41 27 18 -1,
			42 28 22 -1,
			43 25 20 -1,
			31 14 13 -1,
			19 21 22 -1,
			17 15 23 -1,
			47 48 80 -1,
			50 51 81 -1,
			53 54 82 -1,
			55 46 83 -1,
			62 69 84 -1,
			85 71 62 -1,
			86 72 66 -1,
			87 69 64 -1,
			75 58 57 -1,
			63 65 66 -1,
			61 59 67 -1,
			91 92 124 -1,
			94 95 125 -1,
			97 98 126 -1,
			99 90 127 -1,
			106 113 128 -1,
			129 115 106 -1,
			130 116 110 -1,
			131 113 108 -1,
			119 102 101 -1,
			107 109 110 -1,
			105 103 111 -1,
			135 136 168 -1,
			138 139 169 -1,
			141 142 170 -1,
			143 134 171 -1,
			150 157 172 -1,
			173 159 150 -1,
			174 160 154 -1,
			175 157 152 -1,
			163 146 145 -1,
			151 153 154 -1,
			149 147 155 -1,
			179 180 212 -1,
			182 183 213 -1,
			185 186 214 -1,
			187 178 215 -1,
			194 201 216 -1,
			217 203 194 -1,
			218 204 198 -1,
			219 201 196 -1,
			207 190 189 -1,
			195 197 198 -1,
			193 191 199 -1,
			223 224 256 -1,
			226 227 257 -1,
			229 230 258 -1,
			231 222 259 -1,
			238 245 260 -1,
			261 247 238 -1,
			262 248 242 -1,
			263 245 240 -1,
			251 234 233 -1,
			239 241 242 -1,
			237 235 243 -1,
			267 268 300 -1,
			270 271 301 -1,
			273 274 302 -1,
			275 266 303 -1,
			282 289 304 -1,
			305 291 282 -1,
			306 292 286 -1,
			307 289 284 -1,
			295 278 277 -1,
			283 285 286 -1,
			281 279 287 -1,
		]
		normal Normal { vector [
			-0.297102 -0.630259 0.717289,
			-0.573236 -0.705972 0.415937,
			0.000000 -1.000000 0.000000,
			-0.573248 -0.705958 -0.415944,
			0.000000 -1.000000 0.000000,
			-0.297109 -0.630253 -0.717292,
			0.297098 -0.630251 -0.717298,
			0.000000 -1.000000 0.000000,
			0.573236 -0.705972 -0.415937,
			0.573248 -0.705958 0.415945,
			0.000000 -1.000000 0.000000,
			0.297105 -0.630245 0.717300,
			-0.905411 -0.300194 0.300191,
			-0.905413 -0.300189 -0.300189,
			-0.905411 0.300194 -0.300191,
			-0.297092 0.630272 -0.717282,
			-0.573236 0.705972 -0.415937,
			0.297106 0.630260 -0.717287,
			0.000000 1.000000 -0.000000,
			-0.297103 0.630253 0.717295,
			0.000000 1.000000 -0.000000,
			0.297095 0.630280 0.717274,
			0.000000 1.000000 -0.000000,
			0.000000 1.000000 -0.000000,
			-0.573241 0.705967 0.415939,
			0.000000 1.000000 -0.000000,
			0.000000 1.000000 -0.000000,
			0.000000 1.000000 -0.000000,
			0.000000 1.000000 -0.000000,
			0.573236 0.705972 0.415937,
			0.573241 0.705967 -0.415939,
			-0.905413 0.300189 0.300189,
			0.905410 0.300194 -0.300194,
			0.905414 -0.300190 -0.300187,
			0.905410 -0.300194 0.300194,
			0.905414 0.300190 0.300187,
			0.000000 -1.000000 0.000000,
			0.000000 -1.000000 0.000000,
			0.000000 -1.000000 0.000000,
			0.000000 -1.000000 0.000000,
			0.000000 1.000000 -0.000000,
			0.000000 1.000000 -0.000000,
			0.000000 1.000000 -0.000000,
			0.000000 1.000000 -0.000000,
			-0.297102 -0.630259 0.717289,
			-0.573236 -0.705972 0.415937,
			0.000000 -1.000000 0.000000,
			-0.573248 -0.705958 -0.415944,
			0.000000 -1.000000 0.000000,
			-0.297109 -0.630253 -0.717292,
			0.297098 -0.630251 -0.717298,
			0.000000 -1.000000 0.000000,
			0.573236 -0.705972 -0.415937,
			0.573249 -0.705958 0.415945,
			0.000000 -1.000000 0.000000,
			0.297105 -0.630245 0.717300,
			-0.905411 -0.300194 0.300191,
			-0.905413 -0.300189 -0.300189,
			-0.905411 0.300194 -0.300191,
			-0.297092 0.630272 -0.717282,
			-0.573236 0.705972 -0.415937,
			0.297106 0.630260 -0.717287,
			0.000000 1.000000 -0.000000,
			-0.297103 0.630253 0.717295,
			0.000000 1.000000 -0.000000,
			0.297095 0.630280 0.717274,
			0.000000 1.000000 -0.000000,
			0.000000 1.000000 -0.000000,
			-0.573241 0.705967 0.415939,
			0.000000 1.000000 -0.000000,
			0.000000 1.000000 -0.000000,
			0.000000 1.000000 -0.000000,
			0.000000 1.000000 -0.000000,
			0.573236 0.705972 0.415937,
			0.573241 0.705967 -0.415939,
			-0.905413 0.300189 0.300189,
			0.905410 0.300194 -0.300194,
			0.905414 -0.300190 -0.300187,
			0.905410 -0.300194 0.300194,
			0.905414 0.300190 0.300187,
			0.000000 -1.000000 0.000000,
			0.000000 -1.000000 0.000000,
			0.000000 -1.000000 0.000000,
			0.000000 -1.000000 0.000000,
			0.000000 1.000000 -0.000000,
			0.000000 1.000000 -0.000000,
			0.000000 1.000000 -0.000000,
			0.000000 1.000000 -0.000000,
			-0.297102 -0.630259 0.717289,
			-0.573236 -0.705972 0.415937,
			0.000000 -1.000000 0.000000,
			-0.573248 -0.705958 -0.415944,
			0.000000 -1.000000 0.000000,
			-0.297109 -0.630253 -0.717292,
			0.297098 -0.630251 -0.717298,
			0.000000 -1.000000 0.000000,
			0.573236 -0.705972 -0.415937,
			0.573249 -0.705958 0.415945,
			0.000000 -1.000000 0.000000,
			0.297105 -0.630245 0.717300,
			-0.905411 -0.300194 0.300191,
			-0.905413 -0.300189 -0.300189,
			-0.905411 0.300194 -0.300191,
			-0.297092 0.630272 -0.717282,
			-0.573236 0.705972 -0.415937,
			0.297106 0.630260 -0.717287,
			0.000000 1.000000 -0.000000,
			-0.297103 0.630253 0.717295,
			0.000000 1.000000 -0.000000,
			0.297095 0.630280 0.717274,
			0.000000 1.000000 -0.000000,
			0.000000 1.000000 -0.000000,
			-0.573241 0.705967 0.415939,
			0.000000 1.000000 -0.000000,
			0.000000 1.000000 -0.000000,
			0.000000 1.000000 -0.000000,
			0.000000 1.000000 -0.000000,
			0.573236 0.705972 0.415937,
			0.573241 0.705967 -0.415939,
			-0.905413 0.300189 0.300189,
			0.905410 0.300194 -0.300194,
			0.905414 -0.300190 -0.300187,
			0.905410 -0.300194 0.300194,
			0.905414 0.300190 0.300187,
			0.000000 -1.000000 0.000000,
			0.000000 -1.000000 0.000000,
			0.000000 -1.000000 0.000000,
			0.000000 -1.000000 0.000000,
			0.000000 1.000000 -0.000000,
			0.000000 1.000000 -0.000000,
			0.000000 1.000000 -0.000000,
			0.000000 1.000000 -0.000000,
			-0.297102 -0.630259 0.717289,
			-0.573236 -0.705972 0.415937,
			0.000000 -1.000000 0.000000,
			-0.573248 -0.705958 -0.415944,
			0.000000 -1.000000 0.000000,
			-0.297109 -0.630253 -0.717292,
			0.297098 -0.630251 -0.717298,
			0.000000 -1.000000 0.000000,
			0.573236 -0.705972 -0.415937,
			0.573248 -0.705958 0.415945,
			0.000000 -1.000000 0.000000,
			0.297105 -0.630245 0.717301,
			-0.905411 -0.300194 0.300191,
			-0.905413 -0.300189 -0.300189,
			-0.905411 0.300194 -0.300191,
			-0.297092 0.630272 -0.717282,
			-0.573236 0.705972 -0.415937,
			0.297106 0.630260 -0.717287,
			0.000000 1.000000 -0.000000,
			-0.297103 0.630253 0.717295,
			0.000000 1.000000 -0.000000,
			0.297095 0.630280 0.717274,
			0.000000 1.000000 -0.000000,
			0.000000 1.000000 -0.000000,
			-0.573241 0.705967 0.415939,
			0.000000 1.000000 -0.000000,
			0.000000 1.000000 -0.000000,
			0.000000 1.000000 -0.000000,
			0.000000 1.000000 -0.000000,
			0.573236 0.705972 0.415937,
			0.573241 0.705967 -0.415939,
			-0.905413 0.300189 0.300189,
			0.905410 0.300194 -0.300194,
			0.905414 -0.300190 -0.300187,
			0.905410 -0.300194 0.300194,
			0.905414 0.300190 0.300187,
			0.000000 -1.000000 0.000000,
			0.000000 -1.000000 0.000000,
			0.000000 -1.000000 0.000000,
			0.000000 -1.000000 0.000000,
			0.000000 1.000000 -0.000000,
			0.000000 1.000000 -0.000000,
			0.000000 1.000000 -0.000000,
			0.000000 1.000000 -0.000000,
			-0.297102 -0.630259 0.717289,
			-0.573236 -0.705973 0.415935,
			0.000000 -1.000000 0.000000,
			-0.573248 -0.705959 -0.415943,
			0.000000 -1.000000 0.000000,
			-0.297109 -0.630253 -0.717292,
			0.297098 -0.630251 -0.717298,
			0.000000 -1.000000 0.000000,
			0.573236 -0.705972 -0.415937,
			0.573248 -0.705958 0.415945,
			0.000000 -1.000000 0.000000,
			0.297105 -0.630245 0.717301,
			-0.905411 -0.300194 0.300191,
			-0.905413 -0.300190 -0.300189,
			-0.905411 0.300194 -0.300191,
			-0.297092 0.630272 -0.717282,
			-0.573236 0.705973 -0.415935,
			0.297106 0.630260 -0.717287,
			0.000000 1.000000 -0.000000,
			-0.297103 0.630253 0.717295,
			0.000000 1.000000 -0.000000,
			0.297095 0.630280 0.717274,
			0.000000 1.000000 -0.000000,
			0.000000 1.000000 -0.000000,
			-0.573241 0.705968 0.415937,
			0.000000 1.000000 -0.000000,
			0.000000 1.000000 -0.000000,
			0.000000 1.000000 -0.000000,
			0.000000 1.000000 -0.000000,
			0.573236 0.705972 0.415937,
			0.573241 0.705967 -0.415939,
			-0.905413 0.300190 0.300189,
			0.905410 0.300194 -0.300194,
			0.905414 -0.300190 -0.300187,
			0.905410 -0.300194 0.300194,
			0.905414 0.300190 0.300187,
			0.000000 -1.000000 0.000000,
			0.000000 -1.000000 0.000000,
			0.000000 -1.000000 0.000000,
			0.000000 -1.000000 0.000000,
			0.000000 1.000000 -0.000000,
			0.000000 1.000000 -0.000000,
			0.000000 1.000000 -0.000000,
			0.000000 1.000000 -0.000000,
			-0.297102 -0.630259 0.717289,
			-0.573236 -0.705972 0.415937,
			0.000000 -1.000000 0.000000,
			-0.573248 -0.705958 -0.415944,
			0.000000 -1.000000 0.000000,
			-0.297109 -0.630253 -0.717292,
			0.297098 -0.630251 -0.717298,
			0.000000 -1.000000 0.000000,
			0.573236 -0.705972 -0.415937,
			0.573248 -0.705958 0.415945,
			0.000000 -1.000000 0.000000,
			0.297105 -0.630245 0.717301,
			-0.905411 -0.300194 0.300191,
			-0.905413 -0.300189 -0.300189,
			-0.905411 0.300194 -0.300191,
			-0.297092 0.630272 -0.717282,
			-0.573236 0.705972 -0.415937,
			0.297106 0.630260 -0.717287,
			0.000000 1.000000 -0.000000,
			-0.297103 0.630253 0.717295,
			0.000000 1.000000 -0.000000,
			0.297095 0.630280 0.717274,
			0.000000 1.000000 -0.000000,
			0.000000 1.000000 -0.000000,
			-0.573241 0.705967 0.415939,
			0.000000 1.000000 -0.000000,
			0.000000 1.000000 -0.000000,
			0.000000 1.000000 -0.000000,
			0.000000 1.000000 -0.000000,
			0.573236 0.705972 0.415937,
			0.573241 0.705967 -0.415939,
			-0.905413 0.300189 0.300189,
			0.905410 0.300194 -0.300194,
			0.905414 -0.300190 -0.300187,
			0.905410 -0.300194 0.300194,
			0.905414 0.300190 0.300187,
			0.000000 -1.000000 0.000000,
			0.000000 -1.000000 0.000000,
			0.000000 -1.000000 0.000000,
			0.000000 -1.000000 0.000000,
			0.000000 1.000000 -0.000000,
			0.000000 1.000000 -0.000000,
			0.000000 1.000000 -0.000000,
			0.000000 1.000000 -0.000000,
			-0.297102 -0.630259 0.717289,
			-0.573236 -0.705973 0.415935,
			0.000000 -1.000000 0.000000,
			-0.573248 -0.705959 -0.415943,
			0.000000 -1.000000 0.000000,
			-0.297109 -0.630253 -0.717292,
			0.297098 -0.630251 -0.717298,
			0.000000 -1.000000 0.000000,
			0.573236 -0.705972 -0.415937,
			0.573248 -0.705958 0.415945,
			0.000000 -1.000000 0.000000,
			0.297105 -0.630245 0.717301,
			-0.905411 -0.300194 0.300191,
			-0.905413 -0.300190 -0.300189,
			-0.905411 0.300194 -0.300191,
			-0.297092 0.630272 -0.717282,
			-0.573236 0.705973 -0.415935,
			0.297106 0.630260 -0.717287,
			0.000000 1.000000 -0.000000,
			-0.297103 0.630253 0.717295,
			0.000000 1.000000 -0.000000,
			0.297095 0.630280 0.717274,
			0.000000 1.000000 -0.000000,
			0.000000 1.000000 -0.000000,
			-0.573241 0.705968 0.415937,
			0.000000 1.000000 -0.000000,
			0.000000 1.000000 -0.000000,
			0.000000 1.000000 -0.000000,
			0.000000 1.000000 -0.000000,
			0.573236 0.705972 0.415937,
			0.573241 0.705967 -0.415939,
			-0.905413 0.300190 0.300189,
			0.905410 0.300194 -0.300194,
			0.905414 -0.300190 -0.300187,
			0.905410 -0.300194 0.300194,
			0.905414 0.300190 0.300187,
			0.000000 -1.000000 0.000000,
			0.000000 -1.000000 0.000000,
			0.000000 -1.000000 0.000000,
			0.000000 -1.000000 0.000000,
			0.000000 1.000000 -0.000000,
			0.000000 1.000000 -0.000000,
			0.000000 1.000000 -0.000000,
			0.000000 1.000000 -0.000000,
		] }
		normalPerVertex TRUE
		solid TRUE
	}
	appearance Appearance {
		material Material {
			diffuseColor 0.2980 0.2980 0.2980
			transparency 0.0000
			shininess 0.0000
		}
	}
}

Shape # Material: Gold
{
	geometry IndexedFaceSet {
		coord Coordinate { point [
			-3.154222 1.132000 -6.300806,
			-3.154222 1.132000 -6.168806,
			-3.215423 -1.100000 -6.107605,
			-3.022223 1.132000 -6.300806,
			-3.022223 1.132000 -6.168806,
			-3.215423 -1.100000 -6.362006,
			-3.215423 1.026400 -6.107606,
			-3.215423 1.026400 -6.362006,
			-2.961023 1.026400 -6.107606,
			-2.961023 -1.100000 -6.362006,
			-2.961023 1.026400 -6.362006,
			-3.215423 -3.434400 -6.362005,
			-2.961023 -3.434400 -6.362005,
			-2.961023 -1.100000 -6.107605,
			-3.215423 -3.434400 -6.107605,
			-2.961023 -3.434400 -6.107605,
			-3.022223 -3.540000 -6.168805,
			-3.022223 -3.540000 -6.300805,
			-3.154223 -3.540000 -6.168805,
			-3.154223 -3.540000 -6.300805,
			-3.215423 -0.324000 -6.362006,
			-2.961023 -0.324000 -6.362006,
			-2.961023 -0.324000 -6.107605,
			-3.215423 -0.324000 -6.107605,
			-3.215423 -1.100000 -6.228874,
			-3.082292 -1.100000 -6.362006,
			-2.961023 -1.100000 -6.228874,
			-3.082292 -1.100000 -6.107605,
			-3.038036 -0.324000 -6.362006,
			-2.961023 -0.324000 -6.184619,
			-3.038036 -0.324000 -6.107605,
			-3.215423 -0.324000 -6.184619,
			-2.138222 1.132000 -6.300806,
			-2.138222 1.132000 -6.168806,
			-2.199423 -1.100000 -6.107605,
			-2.006223 1.132000 -6.300806,
			-2.006223 1.132000 -6.168806,
			-2.199423 -1.100000 -6.362006,
			-2.199423 1.026400 -6.107606,
			-2.199423 1.026400 -6.362006,
			-1.945022 1.026400 -6.107606,
			-1.945023 -1.100000 -6.362006,
			-1.945022 1.026400 -6.362006,
			-2.199423 -3.434400 -6.362005,
			-1.945023 -3.434400 -6.362005,
			-1.945023 -1.100000 -6.107605,
			-2.199423 -3.434400 -6.107605,
			-1.945023 -3.434400 -6.107605,
			-2.006223 -3.540000 -6.168805,
			-2.006223 -3.540000 -6.300805,
			-2.138223 -3.540000 -6.168805,
			-2.138223 -3.540000 -6.300805,
			-2.199423 -0.324000 -6.362006,
			-1.945023 -0.324000 -6.362006,
			-1.945023 -0.324000 -6.107605,
			-2.199423 -0.324000 -6.107605,
			-2.199423 -1.100000 -6.228874,
			-2.066292 -1.100000 -6.362006,
			-1.945023 -1.100000 -6.228874,
			-2.066292 -1.100000 -6.107605,
			-2.022036 -0.324000 -6.362006,
			-1.945023 -0.324000 -6.184619,
			-2.022036 -0.324000 -6.107605,
			-2.199423 -0.324000 -6.184619,
			-1.122223 1.132000 -6.300806,
			-1.122223 1.132000 -6.168806,
			-1.183423 -1.100000 -6.107605,
			-0.990223 1.132000 -6.300806,
			-0.990223 1.132000 -6.168806,
			-1.183423 -1.100000 -6.362006,
			-1.183423 1.026400 -6.107606,
			-1.183423 1.026400 -6.362006,
			-0.929023 1.026400 -6.107606,
			-0.929023 -1.100000 -6.362006,
			-0.929023 1.026400 -6.362006,
			-1.183423 -3.434400 -6.362005,
			-0.929023 -3.434400 -6.362005,
			-0.929023 -1.100000 -6.107605,
			-1.183423 -3.434400 -6.107605,
			-0.929023 -3.434400 -6.107605,
			-0.990223 -3.540000 -6.168805,
			-0.990223 -3.540000 -6.300805,
			-1.122223 -3.540000 -6.168805,
			-1.122223 -3.540000 -6.300805,
			-1.183423 -0.324000 -6.362006,
			-0.929023 -0.324000 -6.362006,
			-0.929023 -0.324000 -6.107605,
			-1.183423 -0.324000 -6.107605,
			-1.183423 -1.100000 -6.228874,
			-1.050292 -1.100000 -6.362006,
			-0.929023 -1.100000 -6.228874,
			-1.050292 -1.100000 -6.107605,
			-1.006036 -0.324000 -6.362006,
			-0.929023 -0.324000 -6.184619,
			-1.006036 -0.324000 -6.107605,
			-1.183423 -0.324000 -6.184619,
			-0.106223 1.132000 -6.300806,
			-0.106223 1.132000 -6.168806,
			-0.167423 -1.100000 -6.107605,
			0.025777 1.132000 -6.300806,
			0.025777 1.132000 -6.168806,
			-0.167423 -1.100000 -6.362006,
			-0.167423 1.026400 -6.107606,
			-0.167423 1.026400 -6.362006,
			0.086977 1.026400 -6.107606,
			0.086977 -1.100000 -6.362006,
			0.086977 1.026400 -6.362006,
			-0.167423 -3.434400 -6.362005,
			0.086977 -3.434400 -6.362005,
			0.086977 -1.100000 -6.107605,
			-0.167423 -3.434400 -6.107605,
			0.086977 -3.434400 -6.107605,
			0.025777 -3.540000 -6.168805,
			0.025777 -3.540000 -6.300805,
			-0.106223 -3.540000 -6.168805,
			-0.106223 -3.540000 -6.300805,
			-0.167423 -0.324000 -6.362006,
			0.086977 -0.324000 -6.362006,
			0.086977 -0.324000 -6.107605,
			-0.167423 -0.324000 -6.107605,
			-0.167423 -1.100000 -6.228874,
			-0.034292 -1.100000 -6.362006,
			0.086977 -1.100000 -6.228874,
			-0.034292 -1.100000 -6.107605,
			0.009964 -0.324000 -6.362006,
			0.086977 -0.324000 -6.184619,
			0.009964 -0.324000 -6.107605,
			-0.167423 -0.324000 -6.184619,
			0.909777 1.132000 -6.300806,
			0.909777 1.132000 -6.168806,
			0.848577 -1.100000 -6.107605,
			1.041777 1.132000 -6.300806,
			1.041777 1.132000 -6.168806,
			0.848577 -1.100000 -6.362006,
			0.848577 1.026400 -6.107606,
			0.848577 1.026400 -6.362006,
			1.102978 1.026400 -6.107606,
			1.102977 -1.100000 -6.362006,
			1.102978 1.026400 -6.362006,
			0.848577 -3.434400 -6.362005,
			1.102977 -3.434400 -6.362005,
			1.102977 -1.100000 -6.107605,
			0.848577 -3.434400 -6.107605,
			1.102977 -3.434400 -6.107605,
			1.041777 -3.540000 -6.168805,
			1.041777 -3.540000 -6.300805,
			0.909777 -3.540000 -6.168805,
			0.909777 -3.540000 -6.300805,
			0.848577 -0.324000 -6.362006,
			1.102977 -0.324000 -6.362006,
			1.102977 -0.324000 -6.107605,
			0.848577 -0.324000 -6.107605,
			0.848577 -1.100000 -6.228874,
			0.981708 -1.100000 -6.362006,
			1.102977 -1.100000 -6.228874,
			0.981708 -1.100000 -6.107605,
			1.025964 -0.324000 -6.362006,
			1.102977 -0.324000 -6.184619,
			1.025964 -0.324000 -6.107605,
			0.848577 -0.324000 -6.184619,
			1.925778 1.132000 -6.300806,
			1.925778 1.132000 -6.168806,
			1.864577 -1.100000 -6.107605,
			2.057777 1.132000 -6.300806,
			2.057777 1.132000 -6.168806,
			1.864577 -1.100000 -6.362006,
			1.864577 1.026400 -6.107606,
			1.864577 1.026400 -6.362006,
			2.118977 1.026400 -6.107606,
			2.118977 -1.100000 -6.362006,
			2.118977 1.026400 -6.362006,
			1.864577 -3.434400 -6.362005,
			2.118977 -3.434400 -6.362005,
			2.118977 -1.100000 -6.107605,
			1.864577 -3.434400 -6.107605,
			2.118977 -3.434400 -6.107605,
			2.057777 -3.540000 -6.168805,
			2.057777 -3.540000 -6.300805,
			1.925777 -3.540000 -6.168805,
			1.925777 -3.540000 -6.300805,
			1.864577 -0.324000 -6.362006,
			2.118977 -0.324000 -6.362006,
			2.118977 -0.324000 -6.107605,
			1.864577 -0.324000 -6.107605,
			1.864577 -1.100000 -6.228874,
			1.997708 -1.100000 -6.362006,
			2.118977 -1.100000 -6.228874,
			1.997708 -1.100000 -6.107605,
			2.041964 -0.324000 -6.362006,
			2.118977 -0.324000 -6.184619,
			2.041964 -0.324000 -6.107605,
			1.864577 -0.324000 -6.184619,
			2.941777 1.132000 -6.300806,
			2.941777 1.132000 -6.168806,
			2.880577 -1.100000 -6.107605,
			3.073777 1.132000 -6.300806,
			3.073777 1.132000 -6.168806,
			2.880577 -1.100000 -6.362006,
			2.880577 1.026400 -6.107606,
			2.880577 1.026400 -6.362006,
			3.134978 1.026400 -6.107606,
			3.134977 -1.100000 -6.362006,
			3.134978 1.026400 -6.362006,
			2.880577 -3.434400 -6.362005,
			3.134977 -3.434400 -6.362005,
			3.134977 -1.100000 -6.107605,
			2.880577 -3.434400 -6.107605,
			3.134977 -3.434400 -6.107605,
			3.073776 -3.540000 -6.168805,
			3.073776 -3.540000 -6.300805,
			2.941777 -3.540000 -6.168805,
			2.941777 -3.540000 -6.300805,
			2.880577 -0.324000 -6.362006,
			3.134977 -0.324000 -6.362006,
			3.134977 -0.324000 -6.107605,
			2.880577 -0.324000 -6.107605,
			2.880577 -1.100000 -6.228874,
			3.013708 -1.100000 -6.362006,
			3.134977 -1.100000 -6.228874,
			3.013708 -1.100000 -6.107605,
			3.057964 -0.324000 -6.362006,
			3.134977 -0.324000 -6.184619,
			3.057964 -0.324000 -6.107605,
			2.880577 -0.324000 -6.184619,
		] }
		coordIndex [
			0 1 3 -1,
			3 1 4 -1,
			1 0 6 -1,
			6 0 7 -1,
			4 1 8 -1,
			8 1 6 -1,
			3 4 10 -1,
			10 4 8 -1,
			0 3 7 -1,
			7 3 10 -1,
			5 25 11 -1,
			7 28 20 -1,
			21 28 10 -1,
			12 25 9 -1,
			7 31 6 -1,
			24 5 11 -1,
			31 23 6 -1,
			14 24 11 -1,
			2 14 27 -1,
			30 6 23 -1,
			22 8 30 -1,
			27 15 13 -1,
			10 29 21 -1,
			26 12 9 -1,
			29 8 22 -1,
			15 26 13 -1,
			16 17 15 -1,
			15 17 12 -1,
			18 19 16 -1,
			16 19 17 -1,
			19 18 11 -1,
			11 18 14 -1,
			17 19 12 -1,
			12 19 11 -1,
			18 16 14 -1,
			14 16 15 -1,
			32 33 35 -1,
			35 33 36 -1,
			33 32 38 -1,
			38 32 39 -1,
			36 33 40 -1,
			40 33 38 -1,
			35 36 42 -1,
			42 36 40 -1,
			32 35 39 -1,
			39 35 42 -1,
			37 57 43 -1,
			39 60 52 -1,
			53 60 42 -1,
			44 57 41 -1,
			39 63 38 -1,
			56 37 43 -1,
			63 55 38 -1,
			46 56 43 -1,
			34 46 59 -1,
			62 38 55 -1,
			54 40 62 -1,
			59 47 45 -1,
			42 61 53 -1,
			58 44 41 -1,
			61 40 54 -1,
			47 58 45 -1,
			48 49 47 -1,
			47 49 44 -1,
			50 51 48 -1,
			48 51 49 -1,
			51 50 43 -1,
			43 50 46 -1,
			49 51 44 -1,
			44 51 43 -1,
			50 48 46 -1,
			46 48 47 -1,
			64 65 67 -1,
			67 65 68 -1,
			65 64 70 -1,
			70 64 71 -1,
			68 65 72 -1,
			72 65 70 -1,
			67 68 74 -1,
			74 68 72 -1,
			64 67 71 -1,
			71 67 74 -1,
			69 89 75 -1,
			71 92 84 -1,
			85 92 74 -1,
			76 89 73 -1,
			71 95 70 -1,
			88 69 75 -1,
			95 87 70 -1,
			78 88 75 -1,
			66 78 91 -1,
			94 70 87 -1,
			86 72 94 -1,
			91 79 77 -1,
			74 93 85 -1,
			90 76 73 -1,
			93 72 86 -1,
			79 90 77 -1,
			80 81 79 -1,
			79 81 76 -1,
			82 83 80 -1,
			80 83 81 -1,
			83 82 75 -1,
			75 82 78 -1,
			81 83 76 -1,
			76 83 75 -1,
			82 80 78 -1,
			78 80 79 -1,
			96 97 99 -1,
			99 97 100 -1,
			97 96 102 -1,
			102 96 103 -1,
			100 97 104 -1,
			104 97 102 -1,
			99 100 106 -1,
			106 100 104 -1,
			96 99 103 -1,
			103 99 106 -1,
			101 121 107 -1,
			103 124 116 -1,
			117 124 106 -1,
			108 121 105 -1,
			103 127 102 -1,
			120 101 107 -1,
			127 119 102 -1,
			110 120 107 -1,
			98 110 123 -1,
			126 102 119 -1,
			118 104 126 -1,
			123 111 109 -1,
			106 125 117 -1,
			122 108 105 -1,
			125 104 118 -1,
			111 122 109 -1,
			112 113 111 -1,
			111 113 108 -1,
			114 115 112 -1,
			112 115 113 -1,
			115 114 107 -1,
			107 114 110 -1,
			113 115 108 -1,
			108 115 107 -1,
			114 112 110 -1,
			110 112 111 -1,
			128 129 131 -1,
			131 129 132 -1,
			129 128 134 -1,
			134 128 135 -1,
			132 129 136 -1,
			136 129 134 -1,
			131 132 138 -1,
			138 132 136 -1,
			128 131 135 -1,
			135 131 138 -1,
			133 153 139 -1,
			135 156 148 -1,
			149 156 138 -1,
			140 153 137 -1,
			135 159 134 -1,
			152 133 139 -1,
			159 151 134 -1,
			142 152 139 -1,
			130 142 155 -1,
			158 134 151 -1,
			150 136 158 -1,
			155 143 141 -1,
			138 157 149 -1,
			154 140 137 -1,
			157 136 150 -1,
			143 154 141 -1,
			144 145 143 -1,
			143 145 140 -1,
			146 147 144 -1,
			144 147 145 -1,
			147 146 139 -1,
			139 146 142 -1,
			145 147 140 -1,
			140 147 139 -1,
			146 144 142 -1,
			142 144 143 -1,
			160 161 163 -1,
			163 161 164 -1,
			161 160 166 -1,
			166 160 167 -1,
			164 161 168 -1,
			168 161 166 -1,
			163 164 170 -1,
			170 164 168 -1,
			160 163 167 -1,
			167 163 170 -1,
			165 185 171 -1,
			167 188 180 -1,
			181 188 170 -1,
			172 185 169 -1,
			167 191 166 -1,
			184 165 171 -1,
			191 183 166 -1,
			174 184 171 -1,
			162 174 187 -1,
			190 166 183 -1,
			182 168 190 -1,
			187 175 173 -1,
			170 189 181 -1,
			186 172 169 -1,
			189 168 182 -1,
			175 186 173 -1,
			176 177 175 -1,
			175 177 172 -1,
			178 179 176 -1,
			176 179 177 -1,
			179 178 171 -1,
			171 178 174 -1,
			177 179 172 -1,
			172 179 171 -1,
			178 176 174 -1,
			174 176 175 -1,
			192 193 195 -1,
			195 193 196 -1,
			193 192 198 -1,
			198 192 199 -1,
			196 193 200 -1,
			200 193 198 -1,
			195 196 202 -1,
			202 196 200 -1,
			192 195 199 -1,
			199 195 202 -1,
			197 217 203 -1,
			199 220 212 -1,
			213 220 202 -1,
			204 217 201 -1,
			199 223 198 -1,
			216 197 203 -1,
			223 215 198 -1,
			206 216 203 -1,
			194 206 219 -1,
			222 198 215 -1,
			214 200 222 -1,
			219 207 205 -1,
			202 221 213 -1,
			218 204 201 -1,
			221 200 214 -1,
			207 218 205 -1,
			208 209 207 -1,
			207 209 204 -1,
			210 211 208 -1,
			208 211 209 -1,
			211 210 203 -1,
			203 210 206 -1,
			209 211 204 -1,
			204 211 203 -1,
			210 208 206 -1,
			206 208 207 -1,
			7 10 28 -1,
			12 11 25 -1,
			7 20 31 -1,
			14 2 24 -1,
			30 8 6 -1,
			27 14 15 -1,
			10 8 29 -1,
			15 12 26 -1,
			39 42 60 -1,
			44 43 57 -1,
			39 52 63 -1,
			46 34 56 -1,
			62 40 38 -1,
			59 46 47 -1,
			42 40 61 -1,
			47 44 58 -1,
			71 74 92 -1,
			76 75 89 -1,
			71 84 95 -1,
			78 66 88 -1,
			94 72 70 -1,
			91 78 79 -1,
			74 72 93 -1,
			79 76 90 -1,
			103 106 124 -1,
			108 107 121 -1,
			103 116 127 -1,
			110 98 120 -1,
			126 104 102 -1,
			123 110 111 -1,
			106 104 125 -1,
			111 108 122 -1,
			135 138 156 -1,
			140 139 153 -1,
			135 148 159 -1,
			142 130 152 -1,
			158 136 134 -1,
			155 142 143 -1,
			138 136 157 -1,
			143 140 154 -1,
			167 170 188 -1,
			172 171 185 -1,
			167 180 191 -1,
			174 162 184 -1,
			190 168 166 -1,
			187 174 175 -1,
			170 168 189 -1,
			175 172 186 -1,
			199 202 220 -1,
			204 203 217 -1,
			199 212 223 -1,
			206 194 216 -1,
			222 200 198 -1,
			219 206 207 -1,
			202 200 221 -1,
			207 204 218 -1,
		]
		normal Normal { vector [
			-0.401401 0.823259 -0.401399,
			-0.401390 0.823266 0.401396,
			-0.707107 0.000000 0.707107,
			0.401390 0.823266 -0.401396,
			0.401401 0.823260 0.401398,
			-0.707107 0.000000 -0.707107,
			-0.675355 0.296339 0.675336,
			-0.675340 0.296340 -0.675351,
			0.675340 0.296337 0.675352,
			0.707107 -0.000000 -0.707107,
			0.675349 0.296338 -0.675343,
			-0.675352 -0.296337 -0.675340,
			0.675340 -0.296337 -0.675352,
			0.707107 0.000000 0.707107,
			-0.675340 -0.296337 0.675352,
			0.675352 -0.296337 0.675340,
			0.401390 -0.823266 0.401396,
			0.401401 -0.823260 -0.401398,
			-0.401401 -0.823259 0.401399,
			-0.401390 -0.823266 -0.401396,
			-0.707107 -0.000000 -0.707107,
			0.707107 -0.000000 -0.707107,
			0.707107 -0.000000 0.707107,
			-0.707107 0.000000 0.707107,
			-1.000000 0.000000 -0.000000,
			0.000000 -0.000000 -1.000000,
			1.000000 0.000000 0.000000,
			0.000000 0.000000 1.000000,
			0.000000 -0.000000 -1.000000,
			1.000000 -0.000000 0.000000,
			0.000000 0.000000 1.000000,
			-1.000000 0.000000 0.000000,
			-0.401401 0.823259 -0.401399,
			-0.401390 0.823266 0.401396,
			-0.707107 0.000000 0.707107,
			0.401390 0.823266 -0.401396,
			0.401401 0.823260 0.401398,
			-0.707107 0.000000 -0.707107,
			-0.675355 0.296339 0.675336,
			-0.675340 0.296340 -0.675351,
			0.675340 0.296337 0.675352,
			0.707107 -0.000000 -0.707107,
			0.675349 0.296338 -0.675343,
			-0.675352 -0.296337 -0.675340,
			0.675340 -0.296337 -0.675352,
			0.707107 0.000000 0.707107,
			-0.675340 -0.296337 0.675352,
			0.675353 -0.296337 0.675339,
			0.401391 -0.823266 0.401396,
			0.401402 -0.823259 -0.401398,
			-0.401401 -0.823259 0.401399,
			-0.401390 -0.823266 -0.401396,
			-0.707107 -0.000000 -0.707107,
			0.707107 -0.000000 -0.707107,
			0.707107 -0.000000 0.707107,
			-0.707107 0.000000 0.707107,
			-1.000000 0.000000 -0.000000,
			0.000000 -0.000000 -1.000000,
			1.000000 0.000000 0.000000,
			0.000000 0.000000 1.000000,
			0.000000 -0.000000 -1.000000,
			1.000000 -0.000000 0.000000,
			0.000000 0.000000 1.000000,
			-1.000000 0.000000 0.000000,
			-0.401402 0.823259 -0.401399,
			-0.401391 0.823266 0.401396,
			-0.707107 0.000000 0.707107,
			0.401391 0.823266 -0.401396,
			0.401402 0.823259 0.401398,
			-0.707107 0.000000 -0.707107,
			-0.675355 0.296339 0.675336,
			-0.675339 0.296340 -0.675351,
			0.675340 0.296337 0.675352,
			0.707107 -0.000000 -0.707107,
			0.675349 0.296338 -0.675343,
			-0.675352 -0.296337 -0.675340,
			0.675340 -0.296337 -0.675352,
			0.707107 0.000000 0.707107,
			-0.675340 -0.296337 0.675352,
			0.675352 -0.296337 0.675340,
			0.401391 -0.823266 0.401396,
			0.401402 -0.823259 -0.401398,
			-0.401402 -0.823259 0.401399,
			-0.401391 -0.823266 -0.401396,
			-0.707107 -0.000000 -0.707107,
			0.707107 -0.000000 -0.707107,
			0.707107 -0.000000 0.707107,
			-0.707107 0.000000 0.707107,
			-1.000000 0.000000 -0.000000,
			0.000000 -0.000000 -1.000000,
			1.000000 0.000000 0.000000,
			0.000000 0.000000 1.000000,
			0.000000 -0.000000 -1.000000,
			1.000000 -0.000000 0.000000,
			0.000000 0.000000 1.000000,
			-1.000000 0.000000 0.000000,
			-0.401402 0.823259 -0.401399,
			-0.401391 0.823266 0.401396,
			-0.707107 0.000000 0.707107,
			0.401391 0.823266 -0.401396,
			0.401402 0.823259 0.401398,
			-0.707107 0.000000 -0.707107,
			-0.675355 0.296339 0.675336,
			-0.675339 0.296340 -0.675351,
			0.675340 0.296337 0.675352,
			0.707107 -0.000000 -0.707107,
			0.675349 0.296338 -0.675343,
			-0.675352 -0.296337 -0.675340,
			0.675340 -0.296337 -0.675352,
			0.707107 0.000000 0.707107,
			-0.675340 -0.296337 0.675352,
			0.675352 -0.296337 0.675340,
			0.401391 -0.823266 0.401396,
			0.401402 -0.823259 -0.401398,
			-0.401402 -0.823259 0.401399,
			-0.401391 -0.823266 -0.401396,
			-0.707107 -0.000000 -0.707107,
			0.707107 -0.000000 -0.707107,
			0.707107 -0.000000 0.707107,
			-0.707107 0.000000 0.707107,
			-1.000000 0.000000 -0.000000,
			0.000000 -0.000000 -1.000000,
			1.000000 0.000000 0.000000,
			0.000000 0.000000 1.000000,
			0.000000 -0.000000 -1.000000,
			1.000000 -0.000000 0.000000,
			0.000000 0.000000 1.000000,
			-1.000000 0.000000 0.000000,
			-0.401402 0.823259 -0.401399,
			-0.401391 0.823266 0.401396,
			-0.707107 0.000000 0.707107,
			0.401391 0.823266 -0.401396,
			0.401402 0.823259 0.401398,
			-0.707107 0.000000 -0.707107,
			-0.675355 0.296339 0.675336,
			-0.675339 0.296340 -0.675351,
			0.675340 0.296337 0.675352,
			0.707107 -0.000000 -0.707107,
			0.675349 0.296338 -0.675343,
			-0.675352 -0.296337 -0.675340,
			0.675340 -0.296337 -0.675352,
			0.707107 0.000000 0.707107,
			-0.675340 -0.296337 0.675352,
			0.675352 -0.296337 0.675340,
			0.401391 -0.823266 0.401396,
			0.401402 -0.823259 -0.401398,
			-0.401402 -0.823259 0.401399,
			-0.401391 -0.823266 -0.401396,
			-0.707107 -0.000000 -0.707107,
			0.707107 -0.000000 -0.707107,
			0.707107 -0.000000 0.707107,
			-0.707107 0.000000 0.707107,
			-1.000000 0.000000 -0.000000,
			0.000000 -0.000000 -1.000000,
			1.000000 0.000000 0.000000,
			0.000000 0.000000 1.000000,
			0.000000 -0.000000 -1.000000,
			1.000000 -0.000000 0.000000,
			0.000000 0.000000 1.000000,
			-1.000000 0.000000 0.000000,
			-0.401402 0.823259 -0.401399,
			-0.401391 0.823266 0.401396,
			-0.707107 0.000000 0.707107,
			0.401391 0.823266 -0.401396,
			0.401402 0.823259 0.401398,
			-0.707107 0.000000 -0.707107,
			-0.675355 0.296339 0.675336,
			-0.675339 0.296340 -0.675351,
			0.675340 0.296337 0.675352,
			0.707107 -0.000000 -0.707107,
			0.675349 0.296338 -0.675343,
			-0.675352 -0.296337 -0.675340,
			0.675340 -0.296337 -0.675352,
			0.707107 0.000000 0.707107,
			-0.675340 -0.296337 0.675352,
			0.675352 -0.296337 0.675340,
			0.401391 -0.823266 0.401396,
			0.401402 -0.823259 -0.401398,
			-0.401402 -0.823259 0.401399,
			-0.401391 -0.823266 -0.401396,
			-0.707107 -0.000000 -0.707107,
			0.707107 -0.000000 -0.707107,
			0.707107 -0.000000 0.707107,
			-0.707107 0.000000 0.707107,
			-1.000000 0.000000 -0.000000,
			0.000000 -0.000000 -1.000000,
			1.000000 0.000000 0.000000,
			0.000000 0.000000 1.000000,
			0.000000 -0.000000 -1.000000,
			1.000000 -0.000000 0.000000,
			0.000000 0.000000 1.000000,
			-1.000000 0.000000 0.000000,
			-0.401402 0.823259 -0.401399,
			-0.401391 0.823266 0.401396,
			-0.707107 0.000000 0.707107,
			0.401391 0.823266 -0.401396,
			0.401402 0.823259 0.401398,
			-0.707107 0.000000 -0.707107,
			-0.675355 0.296339 0.675336,
			-0.675339 0.296340 -0.675351,
			0.675340 0.296337 0.675352,
			0.707107 -0.000000 -0.707107,
			0.675349 0.296338 -0.675343,
			-0.675352 -0.296337 -0.675340,
			0.675340 -0.296337 -0.675352,
			0.707107 0.000000 0.707107,
			-0.675340 -0.296337 0.675352,
			0.675352 -0.296337 0.675340,
			0.401391 -0.823266 0.401396,
			0.401402 -0.823259 -0.401398,
			-0.401402 -0.823259 0.401399,
			-0.401391 -0.823266 -0.401396,
			-0.707107 -0.000000 -0.707107,
			0.707107 -0.000000 -0.707107,
			0.707107 -0.000000 0.707107,
			-0.707107 0.000000 0.707107,
			-1.000000 0.000000 -0.000000,
			0.000000 -0.000000 -1.000000,
			1.000000 0.000000 0.000000,
			0.000000 0.000000 1.000000,
			0.000000 -0.000000 -1.000000,
			1.000000 -0.000000 0.000000,
			0.000000 0.000000 1.000000,
			-1.000000 0.000000 0.000000,
		] }
		normalPerVertex TRUE
		solid TRUE
	}
	appearance Appearance {
		material Material {
			diffuseColor 0.9714 0.9167 0.4554
			transparency 0.0000
			shininess 0.5000
		}
	}
}

Shape # Material: Default
{
	geometry IndexedFaceSet {
		coord Coordinate { point [
			-7.100000 0.319999 4.175972,
			-7.100000 0.719999 4.175972,
			-7.100000 0.319999 -4.944028,
			-7.100000 0.719999 -4.944028,
			7.100000 0.319999 4.175972,
			7.100000 0.719999 4.175972,
			7.100000 0.319999 -4.944028,
			7.100000 0.719999 -4.944028,
		] }
		coordIndex [
			1 2 0 -1,
			3 6 2 -1,
			7 4 6 -1,
			5 0 4 -1,
			6 0 2 -1,
			3 5 7 -1,
			1 3 2 -1,
			3 7 6 -1,
			7 5 4 -1,
			5 1 0 -1,
			6 4 0 -1,
			3 1 5 -1,
		]
		normal Normal { vector [
			-0.028129 -0.998644 0.043800,
			-0.028132 0.998644 0.043800,
			-0.028132 -0.998644 -0.043800,
			-0.028129 0.998644 -0.043800,
			0.028132 -0.998644 0.043800,
			0.028129 0.998644 0.043800,
			0.028129 -0.998644 -0.043800,
			0.028132 0.998644 -0.043800,
		] }
		normalPerVertex TRUE
		solid TRUE
	}
	appearance Appearance {
		material Material {
			diffuseColor 0.8000 0.8000 0.8000
			transparency 0.0000
			shininess 0.5000
		}
	}
}

