#VRML V2.0 utf8
# Exportiert mit Blender-WRL-Export (The Smart Assistant)

Shape # Material: Material
{
	geometry IndexedFaceSet {
		coord Coordinate { point [
			3.359999 0.330000 -2.550000,
			3.359999 -0.330000 -2.550000,
			3.359999 0.330000 2.550000,
			3.359999 -0.330000 2.550000,
			-3.359999 0.330000 -2.550000,
			-3.359999 -0.330000 -2.550000,
			-3.359999 0.330000 2.550000,
			-3.359999 -0.330000 2.550000,
			1.759999 0.330000 -1.569999,
			1.769606 0.330000 -1.472454,
			1.769606 0.330000 -1.667544,
			1.844264 0.330000 -1.847784,
			1.798059 0.330000 -1.761341,
			1.798059 0.330000 -1.378657,
			1.906446 0.330000 -1.923553,
			1.982214 0.330000 -1.985734,
			2.162454 0.330000 -2.060392,
			2.068657 0.330000 -2.031939,
			2.357544 0.330000 -2.060392,
			2.537784 0.330000 -1.985734,
			2.451341 0.330000 -2.031939,
			2.259999 0.330000 -2.069999,
			1.844264 0.330000 -1.292214,
			1.982214 0.330000 -1.154264,
			2.068657 0.330000 -1.108060,
			1.906446 0.330000 -1.216446,
			2.259999 0.330000 -1.069999,
			2.162454 0.330000 -1.079607,
			2.537784 0.330000 -1.154264,
			2.451341 0.330000 -1.108060,
			2.357544 0.330000 -1.079607,
			2.675734 0.330000 -1.847784,
			2.675734 0.330000 -1.292214,
			2.613553 0.330000 -1.923553,
			2.759999 0.330000 -1.569999,
			2.750392 0.330000 -1.667544,
			2.721939 0.330000 -1.378657,
			2.750392 0.330000 -1.472454,
			2.721939 0.330000 -1.761341,
			2.613553 0.330000 -1.216446,
			1.759999 -0.330000 -1.569999,
			1.769606 -0.330000 -1.472454,
			1.769606 -0.330000 -1.667544,
			1.844264 -0.330000 -1.292214,
			1.844264 -0.330000 -1.847784,
			1.798059 -0.330000 -1.378657,
			1.798059 -0.330000 -1.761341,
			1.982214 -0.330000 -1.154264,
			1.982214 -0.330000 -1.985734,
			2.162454 -0.330000 -1.079607,
			2.162454 -0.330000 -2.060392,
			2.068657 -0.330000 -1.108060,
			2.068657 -0.330000 -2.031939,
			1.906446 -0.330000 -1.216446,
			1.906446 -0.330000 -1.923553,
			2.357544 -0.330000 -1.079607,
			2.357544 -0.330000 -2.060392,
			2.537784 -0.330000 -1.154264,
			2.537784 -0.330000 -1.985734,
			2.451341 -0.330000 -1.108060,
			2.451341 -0.330000 -2.031939,
			2.675734 -0.330000 -1.292214,
			2.675734 -0.330000 -1.847784,
			2.759999 -0.330000 -1.569999,
			2.750392 -0.330000 -1.472454,
			2.750392 -0.330000 -1.667544,
			2.721939 -0.330000 -1.378657,
			2.721939 -0.330000 -1.761341,
			2.613553 -0.330000 -1.216446,
			2.613553 -0.330000 -1.923553,
			2.259999 -0.330000 -2.069999,
			2.259999 -0.330000 -1.069999,
			-2.760000 0.330000 -1.569999,
			-2.721939 0.330000 -1.378657,
			-2.750392 0.330000 -1.472454,
			-2.750392 0.330000 -1.667544,
			-2.613553 0.330000 -1.216446,
			-2.675735 0.330000 -1.292214,
			-2.675735 0.330000 -1.847784,
			-2.721939 0.330000 -1.761341,
			-2.613553 0.330000 -1.923553,
			-2.451341 0.330000 -1.108060,
			-2.260000 0.330000 -1.069999,
			-2.357545 0.330000 -1.079607,
			-1.982215 0.330000 -1.154264,
			-2.068658 0.330000 -1.108060,
			-1.906446 0.330000 -1.216446,
			-1.844265 0.330000 -1.292214,
			-2.162455 0.330000 -1.079607,
			-2.537785 0.330000 -1.154264,
			-2.537785 0.330000 -1.985734,
			-2.451341 0.330000 -2.031939,
			-2.357545 0.330000 -2.060392,
			-2.260000 0.330000 -2.069999,
			-2.068658 0.330000 -2.031939,
			-2.162455 0.330000 -2.060392,
			-1.906446 0.330000 -1.923553,
			-1.844265 0.330000 -1.847784,
			-1.760000 0.330000 -1.569999,
			-1.769607 0.330000 -1.472454,
			-1.769607 0.330000 -1.667544,
			-1.798060 0.330000 -1.378657,
			-1.798060 0.330000 -1.761341,
			-1.982215 0.330000 -1.985734,
			-2.760000 -0.330000 -1.569999,
			-2.721939 -0.330000 -1.378657,
			-2.750392 -0.330000 -1.472454,
			-2.750392 -0.330000 -1.667544,
			-2.613553 -0.330000 -1.923553,
			-2.675735 -0.330000 -1.292214,
			-2.675735 -0.330000 -1.847784,
			-2.613553 -0.330000 -1.216446,
			-2.721939 -0.330000 -1.761341,
			-2.451341 -0.330000 -1.108060,
			-2.537785 -0.330000 -1.154264,
			-2.260000 -0.330000 -1.069999,
			-2.357545 -0.330000 -1.079607,
			-1.982215 -0.330000 -1.154264,
			-2.068658 -0.330000 -1.108060,
			-1.906446 -0.330000 -1.216446,
			-1.844265 -0.330000 -1.292214,
			-2.162455 -0.330000 -1.079607,
			-2.537785 -0.330000 -1.985734,
			-2.357545 -0.330000 -2.060392,
			-2.451341 -0.330000 -2.031939,
			-2.162455 -0.330000 -2.060392,
			-1.982215 -0.330000 -1.985734,
			-2.068658 -0.330000 -2.031939,
			-2.260000 -0.330000 -2.069999,
			-1.844265 -0.330000 -1.847784,
			-1.798060 -0.330000 -1.761341,
			-1.760000 -0.330000 -1.569999,
			-1.769607 -0.330000 -1.472454,
			-1.769607 -0.330000 -1.667544,
			-1.798060 -0.330000 -1.378657,
			-1.906446 -0.330000 -1.923553,
		] }
		coordIndex [
			22 13 99 -1,
			6 83 81 -1,
			37 36 0 -1,
			2 7 3 -1,
			6 5 7 -1,
			41 45 132 -1,
			7 109 111 -1,
			1 66 64 -1,
			0 3 1 -1,
			4 1 5 -1,
			18 70 56 -1,
			20 56 60 -1,
			19 60 58 -1,
			19 69 33 -1,
			33 62 31 -1,
			31 67 38 -1,
			38 65 35 -1,
			35 63 34 -1,
			34 64 37 -1,
			37 66 36 -1,
			36 61 32 -1,
			32 68 39 -1,
			39 57 28 -1,
			28 59 29 -1,
			29 55 30 -1,
			30 71 26 -1,
			26 49 27 -1,
			27 51 24 -1,
			24 47 23 -1,
			25 47 53 -1,
			22 53 43 -1,
			13 43 45 -1,
			9 45 41 -1,
			8 41 40 -1,
			10 40 42 -1,
			12 42 46 -1,
			11 46 44 -1,
			14 44 54 -1,
			15 54 48 -1,
			17 48 52 -1,
			16 52 50 -1,
			21 50 70 -1,
			95 128 125 -1,
			94 125 127 -1,
			103 127 126 -1,
			103 135 96 -1,
			96 129 97 -1,
			97 130 102 -1,
			102 133 100 -1,
			100 131 98 -1,
			98 132 99 -1,
			99 134 101 -1,
			101 120 87 -1,
			87 119 86 -1,
			86 117 84 -1,
			84 118 85 -1,
			85 121 88 -1,
			88 115 82 -1,
			82 116 83 -1,
			83 113 81 -1,
			81 114 89 -1,
			76 114 111 -1,
			77 111 109 -1,
			73 109 105 -1,
			74 105 106 -1,
			72 106 104 -1,
			75 104 107 -1,
			79 107 112 -1,
			78 112 110 -1,
			80 110 108 -1,
			90 108 122 -1,
			91 122 124 -1,
			92 124 123 -1,
			93 123 128 -1,
			20 19 0 -1,
			4 90 91 -1,
			4 91 92 -1,
			18 20 0 -1,
			21 18 0 -1,
			4 92 93 -1,
			4 93 95 -1,
			21 0 16 -1,
			0 4 16 -1,
			4 95 16 -1,
			95 94 16 -1,
			17 16 94 -1,
			17 94 103 -1,
			15 17 103 -1,
			15 103 14 -1,
			103 96 14 -1,
			14 96 97 -1,
			11 14 97 -1,
			11 97 102 -1,
			12 11 102 -1,
			12 102 100 -1,
			10 12 100 -1,
			98 99 9 -1,
			99 27 24 -1,
			10 100 98 -1,
			8 10 98 -1,
			99 24 23 -1,
			99 23 25 -1,
			9 8 98 -1,
			13 9 99 -1,
			99 25 22 -1,
			80 90 4 -1,
			6 2 85 -1,
			2 30 26 -1,
			2 26 27 -1,
			78 80 4 -1,
			79 78 4 -1,
			2 27 85 -1,
			85 27 84 -1,
			27 99 101 -1,
			27 101 87 -1,
			75 79 4 -1,
			72 75 4 -1,
			27 87 86 -1,
			27 86 84 -1,
			72 4 74 -1,
			4 6 73 -1,
			74 4 73 -1,
			77 73 6 -1,
			6 85 88 -1,
			6 88 82 -1,
			76 77 6 -1,
			89 76 6 -1,
			6 82 83 -1,
			81 89 6 -1,
			29 30 2 -1,
			0 19 33 -1,
			0 33 31 -1,
			28 29 2 -1,
			39 28 2 -1,
			0 31 38 -1,
			0 38 35 -1,
			32 39 2 -1,
			36 32 2 -1,
			2 0 36 -1,
			0 35 34 -1,
			0 34 37 -1,
			2 6 7 -1,
			6 4 5 -1,
			124 122 5 -1,
			1 58 60 -1,
			1 60 56 -1,
			123 124 5 -1,
			128 123 5 -1,
			1 56 70 -1,
			1 70 50 -1,
			128 5 125 -1,
			5 1 125 -1,
			1 50 125 -1,
			50 52 125 -1,
			127 125 52 -1,
			127 52 48 -1,
			126 127 48 -1,
			126 48 54 -1,
			135 126 54 -1,
			135 54 44 -1,
			129 135 44 -1,
			129 44 46 -1,
			130 129 46 -1,
			130 46 42 -1,
			133 130 42 -1,
			133 42 40 -1,
			51 132 47 -1,
			132 131 41 -1,
			47 132 53 -1,
			131 133 40 -1,
			131 40 41 -1,
			53 132 43 -1,
			43 132 45 -1,
			134 132 51 -1,
			134 51 120 -1,
			51 49 3 -1,
			120 51 119 -1,
			119 51 117 -1,
			71 55 3 -1,
			49 71 3 -1,
			117 51 118 -1,
			3 7 118 -1,
			5 122 108 -1,
			5 108 110 -1,
			118 51 3 -1,
			5 110 112 -1,
			5 112 107 -1,
			121 118 7 -1,
			7 5 105 -1,
			5 107 104 -1,
			5 104 106 -1,
			115 121 7 -1,
			116 115 7 -1,
			5 106 105 -1,
			113 116 7 -1,
			114 113 7 -1,
			7 105 109 -1,
			111 114 7 -1,
			69 58 1 -1,
			3 55 59 -1,
			3 59 57 -1,
			62 69 1 -1,
			67 62 1 -1,
			3 57 68 -1,
			3 68 61 -1,
			65 67 1 -1,
			63 65 1 -1,
			1 3 66 -1,
			3 61 66 -1,
			64 63 1 -1,
			0 2 3 -1,
			4 0 1 -1,
			18 21 70 -1,
			20 18 56 -1,
			19 20 60 -1,
			19 58 69 -1,
			33 69 62 -1,
			31 62 67 -1,
			38 67 65 -1,
			35 65 63 -1,
			34 63 64 -1,
			37 64 66 -1,
			36 66 61 -1,
			32 61 68 -1,
			39 68 57 -1,
			28 57 59 -1,
			29 59 55 -1,
			30 55 71 -1,
			26 71 49 -1,
			27 49 51 -1,
			24 51 47 -1,
			25 23 47 -1,
			22 25 53 -1,
			13 22 43 -1,
			9 13 45 -1,
			8 9 41 -1,
			10 8 40 -1,
			12 10 42 -1,
			11 12 46 -1,
			14 11 44 -1,
			15 14 54 -1,
			17 15 48 -1,
			16 17 52 -1,
			21 16 50 -1,
			95 93 128 -1,
			94 95 125 -1,
			103 94 127 -1,
			103 126 135 -1,
			96 135 129 -1,
			97 129 130 -1,
			102 130 133 -1,
			100 133 131 -1,
			98 131 132 -1,
			99 132 134 -1,
			101 134 120 -1,
			87 120 119 -1,
			86 119 117 -1,
			84 117 118 -1,
			85 118 121 -1,
			88 121 115 -1,
			82 115 116 -1,
			83 116 113 -1,
			81 113 114 -1,
			76 89 114 -1,
			77 76 111 -1,
			73 77 109 -1,
			74 73 105 -1,
			72 74 106 -1,
			75 72 104 -1,
			79 75 107 -1,
			78 79 112 -1,
			80 78 110 -1,
			90 80 108 -1,
			91 90 122 -1,
			92 91 124 -1,
			93 92 123 -1,
		]
		normal Normal { vector [
			0.096962 0.987055 -0.127754,
			0.096959 -0.987054 -0.127765,
			0.096942 0.987058 0.127742,
			0.096948 -0.987059 0.127736,
			-0.096959 0.987054 -0.127766,
			-0.096962 -0.987055 -0.127754,
			-0.096954 0.987057 0.127744,
			-0.096949 -0.987056 0.127752,
			0.093097 0.995657 -0.000000,
			0.091959 0.995593 -0.018368,
			0.091959 0.995593 0.018368,
			0.082266 0.995079 0.055227,
			0.088452 0.995400 0.036798,
			0.088452 0.995400 -0.036798,
			0.072928 0.994640 0.073306,
			0.059930 0.994118 0.090209,
			0.022575 0.993193 0.114274,
			0.043010 0.993594 0.104499,
			-0.022574 0.993193 0.114271,
			-0.059930 0.994118 0.090210,
			-0.043011 0.993594 0.104501,
			0.000000 0.993042 0.117765,
			0.082266 0.995079 -0.055227,
			0.059929 0.994118 -0.090208,
			0.043010 0.993594 -0.104500,
			0.072927 0.994640 -0.073306,
			0.000000 0.993042 -0.117764,
			0.022575 0.993193 -0.114273,
			-0.059931 0.994118 -0.090212,
			-0.043010 0.993594 -0.104499,
			-0.022575 0.993193 -0.114272,
			-0.082266 0.995079 0.055227,
			-0.082264 0.995079 -0.055226,
			-0.072925 0.994640 0.073304,
			-0.093093 0.995657 -0.000000,
			-0.091959 0.995593 0.018368,
			-0.088454 0.995400 -0.036799,
			-0.091960 0.995593 -0.018368,
			-0.088453 0.995400 0.036798,
			-0.072927 0.994640 -0.073305,
			0.093097 -0.995657 0.000000,
			0.091959 -0.995593 -0.018368,
			0.091959 -0.995593 0.018368,
			0.082266 -0.995079 -0.055227,
			0.082266 -0.995079 0.055227,
			0.088452 -0.995400 -0.036798,
			0.088452 -0.995400 0.036798,
			0.059929 -0.994118 -0.090209,
			0.059930 -0.994118 0.090210,
			0.022575 -0.993193 -0.114272,
			0.022575 -0.993193 0.114272,
			0.043011 -0.993594 -0.104501,
			0.043010 -0.993595 0.104499,
			0.072927 -0.994640 -0.073306,
			0.072928 -0.994640 0.073306,
			-0.022575 -0.993193 -0.114272,
			-0.022575 -0.993193 0.114271,
			-0.059931 -0.994118 -0.090211,
			-0.059929 -0.994118 0.090209,
			-0.043010 -0.993594 -0.104499,
			-0.043011 -0.993594 0.104502,
			-0.082264 -0.995079 -0.055225,
			-0.082266 -0.995079 0.055227,
			-0.093093 -0.995657 0.000000,
			-0.091960 -0.995593 -0.018368,
			-0.091959 -0.995593 0.018368,
			-0.088454 -0.995400 -0.036798,
			-0.088453 -0.995400 0.036798,
			-0.072927 -0.994640 -0.073305,
			-0.072925 -0.994640 0.073304,
			-0.000000 -0.993042 0.117765,
			-0.000000 -0.993042 -0.117764,
			0.093093 0.995657 -0.000000,
			0.088454 0.995400 -0.036799,
			0.091960 0.995593 -0.018368,
			0.091959 0.995593 0.018368,
			0.072927 0.994640 -0.073305,
			0.082264 0.995079 -0.055226,
			0.082266 0.995079 0.055227,
			0.088453 0.995400 0.036798,
			0.072925 0.994640 0.073304,
			0.043010 0.993594 -0.104499,
			0.000000 0.993042 -0.117764,
			0.022575 0.993193 -0.114272,
			-0.059930 0.994118 -0.090210,
			-0.043010 0.993595 -0.104499,
			-0.072928 0.994640 -0.073306,
			-0.082265 0.995079 -0.055227,
			-0.022575 0.993193 -0.114272,
			0.059931 0.994118 -0.090211,
			0.059930 0.994118 0.090209,
			0.043011 0.993594 0.104501,
			0.022575 0.993193 0.114271,
			0.000000 0.993042 0.117765,
			-0.043010 0.993595 0.104499,
			-0.022575 0.993193 0.114272,
			-0.072928 0.994640 0.073306,
			-0.082266 0.995079 0.055227,
			-0.093097 0.995657 -0.000000,
			-0.091961 0.995593 -0.018368,
			-0.091959 0.995593 0.018368,
			-0.088451 0.995401 -0.036797,
			-0.088452 0.995400 0.036798,
			-0.059930 0.994118 0.090210,
			0.093093 -0.995657 0.000000,
			0.088454 -0.995400 -0.036798,
			0.091960 -0.995593 -0.018368,
			0.091959 -0.995593 0.018368,
			0.072925 -0.994640 0.073304,
			0.082264 -0.995079 -0.055225,
			0.082266 -0.995079 0.055227,
			0.072927 -0.994640 -0.073305,
			0.088453 -0.995400 0.036798,
			0.043010 -0.993595 -0.104499,
			0.059931 -0.994118 -0.090212,
			-0.000000 -0.993042 -0.117764,
			0.022575 -0.993193 -0.114272,
			-0.059930 -0.994118 -0.090209,
			-0.043010 -0.993595 -0.104499,
			-0.072928 -0.994640 -0.073306,
			-0.082265 -0.995079 -0.055226,
			-0.022575 -0.993193 -0.114272,
			0.059930 -0.994118 0.090209,
			0.022574 -0.993193 0.114271,
			0.043011 -0.993594 0.104502,
			-0.022575 -0.993193 0.114274,
			-0.059929 -0.994118 0.090209,
			-0.043010 -0.993594 0.104499,
			-0.000000 -0.993042 0.117765,
			-0.082266 -0.995079 0.055227,
			-0.088452 -0.995400 0.036798,
			-0.093097 -0.995657 0.000000,
			-0.091961 -0.995593 -0.018368,
			-0.091959 -0.995593 0.018368,
			-0.088451 -0.995401 -0.036797,
			-0.072928 -0.994640 0.073306,
		] }
		normalPerVertex TRUE
		solid TRUE
	}
	appearance Appearance {
		material Material {
			diffuseColor 0.1494 0.4869 0.8004
			transparency 0.0000
			shininess 0.5000
		}
	}
}

Shape # Material: m20-9990345_color_1.004
{
	geometry IndexedFaceSet {
		coord Coordinate { point [
			-2.860000 -1.100000 1.990000,
			-2.960000 -1.100000 1.890000,
			-2.679200 -1.100000 1.609200,
			-2.960000 -1.100000 1.074000,
			-2.679200 -1.100000 1.354800,
			-2.860000 -1.100000 0.974000,
			-2.244000 -1.100000 0.974000,
			-2.424800 -1.100000 1.354800,
			-2.144000 -1.100000 1.074000,
			-2.144000 -1.100000 1.890000,
			-2.424800 -1.100000 1.609200,
			-2.244000 -1.100000 1.990000,
			-3.060000 -1.000000 1.790000,
			-3.060000 -1.000000 1.174000,
			-3.060000 -0.424000 1.174000,
			-2.860000 -0.324000 0.974000,
			-2.960000 -0.324000 1.074000,
			-2.244000 -0.324000 0.974000,
			-2.244000 -0.324000 1.174000,
			-2.860000 -0.324000 1.990000,
			-2.860000 -0.324000 1.789999,
			-2.244000 -0.324000 1.990000,
			-2.244000 -0.324000 1.789999,
			-2.860000 -0.324000 1.174000,
			-2.960000 -0.324000 1.890000,
			-2.679200 -0.324000 1.354800,
			-2.424800 -0.324000 1.354800,
			-2.424800 -0.324000 1.609200,
			-2.679200 -0.324000 1.609200,
			-2.144000 -0.324000 1.890000,
			-2.144000 -0.324000 1.074000,
			-3.060000 -0.424000 1.790000,
			-2.044000 -0.424000 1.174000,
			-2.044000 -1.000000 1.174000,
			-2.044000 -1.000000 1.790000,
			-2.044000 -0.424000 1.790000,
			-2.679200 -1.100000 1.487931,
			-2.546069 -1.100000 1.354800,
			-2.424800 -1.100000 1.487931,
			-2.546069 -1.100000 1.609200,
			-2.501813 -0.324000 1.354800,
			-2.424800 -0.324000 1.532186,
			-2.501813 -0.324000 1.609200,
			-2.679200 -0.324000 1.532186,
			-1.844000 -1.100000 1.990000,
			-1.944000 -1.100000 1.890000,
			-1.663200 -1.100000 1.609200,
			-1.944000 -1.100000 1.074000,
			-1.663200 -1.100000 1.354800,
			-1.844000 -1.100000 0.974000,
			-1.228000 -1.100000 0.974000,
			-1.408800 -1.100000 1.354800,
			-1.128000 -1.100000 1.074000,
			-1.128000 -1.100000 1.890000,
			-1.408800 -1.100000 1.609200,
			-1.228000 -1.100000 1.990000,
			-2.044000 -1.000000 1.790000,
			-2.044000 -1.000000 1.174000,
			-2.044000 -0.424000 1.174000,
			-1.844000 -0.324000 0.974000,
			-1.944000 -0.324000 1.074000,
			-1.228000 -0.324000 0.974000,
			-1.228000 -0.324000 1.174000,
			-1.844000 -0.324000 1.990000,
			-1.844000 -0.324000 1.789999,
			-1.228000 -0.324000 1.990000,
			-1.228000 -0.324000 1.789999,
			-1.844000 -0.324000 1.174000,
			-1.944000 -0.324000 1.890000,
			-1.663200 -0.324000 1.354800,
			-1.408800 -0.324000 1.354800,
			-1.408800 -0.324000 1.609200,
			-1.663200 -0.324000 1.609200,
			-1.128000 -0.324000 1.890000,
			-1.128000 -0.324000 1.074000,
			-2.044000 -0.424000 1.790000,
			-1.028000 -0.424000 1.174000,
			-1.028000 -1.000000 1.174000,
			-1.028000 -1.000000 1.790000,
			-1.028000 -0.424000 1.790000,
			-1.663200 -1.100000 1.487931,
			-1.530069 -1.100000 1.354800,
			-1.408800 -1.100000 1.487931,
			-1.530069 -1.100000 1.609200,
			-1.485813 -0.324000 1.354800,
			-1.408800 -0.324000 1.532186,
			-1.485813 -0.324000 1.609200,
			-1.663200 -0.324000 1.532186,
			-0.828000 -1.100000 1.990000,
			-0.928000 -1.100000 1.890000,
			-0.647200 -1.100000 1.609200,
			-0.928000 -1.100000 1.074000,
			-0.647200 -1.100000 1.354800,
			-0.828000 -1.100000 0.974000,
			-0.212000 -1.100000 0.974000,
			-0.392800 -1.100000 1.354800,
			-0.112000 -1.100000 1.074000,
			-0.112000 -1.100000 1.890000,
			-0.392800 -1.100000 1.609200,
			-0.212000 -1.100000 1.990000,
			-1.028000 -1.000000 1.790000,
			-1.028000 -1.000000 1.174000,
			-1.028000 -0.424000 1.174000,
			-0.828000 -0.324000 0.974000,
			-0.928000 -0.324000 1.074000,
			-0.212000 -0.324000 0.974000,
			-0.212000 -0.324000 1.174000,
			-0.828000 -0.324000 1.990000,
			-0.828000 -0.324000 1.789999,
			-0.212000 -0.324000 1.990000,
			-0.212000 -0.324000 1.789999,
			-0.828000 -0.324000 1.174000,
			-0.928000 -0.324000 1.890000,
			-0.647200 -0.324000 1.354800,
			-0.392800 -0.324000 1.354800,
			-0.392800 -0.324000 1.609200,
			-0.647200 -0.324000 1.609200,
			-0.112000 -0.324000 1.890000,
			-0.112000 -0.324000 1.074000,
			-1.028000 -0.424000 1.790000,
			-0.012000 -0.424000 1.174000,
			-0.012000 -1.000000 1.174000,
			-0.012000 -1.000000 1.790000,
			-0.012000 -0.424000 1.790000,
			-0.647200 -1.100000 1.487931,
			-0.514069 -1.100000 1.354800,
			-0.392800 -1.100000 1.487931,
			-0.514069 -1.100000 1.609200,
			-0.469813 -0.324000 1.354800,
			-0.392800 -0.324000 1.532186,
			-0.469813 -0.324000 1.609200,
			-0.647200 -0.324000 1.532186,
			0.188000 -1.100000 1.990000,
			0.088000 -1.100000 1.890000,
			0.368800 -1.100000 1.609200,
			0.088000 -1.100000 1.074000,
			0.368800 -1.100000 1.354800,
			0.188000 -1.100000 0.974000,
			0.804000 -1.100000 0.974000,
			0.623200 -1.100000 1.354800,
			0.904000 -1.100000 1.074000,
			0.904000 -1.100000 1.890000,
			0.623200 -1.100000 1.609200,
			0.804000 -1.100000 1.990000,
			-0.012000 -1.000000 1.790000,
			-0.012000 -1.000000 1.174000,
			-0.012000 -0.424000 1.174000,
			0.188000 -0.324000 0.974000,
			0.088000 -0.324000 1.074000,
			0.804000 -0.324000 0.974000,
			0.804000 -0.324000 1.174000,
			0.188000 -0.324000 1.990000,
			0.188000 -0.324000 1.789999,
			0.804000 -0.324000 1.990000,
			0.804000 -0.324000 1.789999,
			0.188000 -0.324000 1.174000,
			0.088000 -0.324000 1.890000,
			0.368800 -0.324000 1.354800,
			0.623200 -0.324000 1.354800,
			0.623200 -0.324000 1.609200,
			0.368800 -0.324000 1.609200,
			0.904000 -0.324000 1.890000,
			0.904000 -0.324000 1.074000,
			-0.012000 -0.424000 1.790000,
			1.004000 -0.424000 1.174000,
			1.004000 -1.000000 1.174000,
			1.004000 -1.000000 1.790000,
			1.004000 -0.424000 1.790000,
			0.368800 -1.100000 1.487931,
			0.501931 -1.100000 1.354800,
			0.623200 -1.100000 1.487931,
			0.501931 -1.100000 1.609200,
			0.546187 -0.324000 1.354800,
			0.623200 -0.324000 1.532186,
			0.546187 -0.324000 1.609200,
			0.368800 -0.324000 1.532186,
			1.204000 -1.100000 1.990000,
			1.104000 -1.100000 1.890000,
			1.384800 -1.100000 1.609200,
			1.104000 -1.100000 1.074000,
			1.384800 -1.100000 1.354800,
			1.204000 -1.100000 0.974000,
			1.820000 -1.100000 0.974000,
			1.639200 -1.100000 1.354800,
			1.920000 -1.100000 1.074000,
			1.920000 -1.100000 1.890000,
			1.639200 -1.100000 1.609200,
			1.820000 -1.100000 1.990000,
			1.004000 -1.000000 1.790000,
			1.004000 -1.000000 1.174000,
			1.004000 -0.424000 1.174000,
			1.204000 -0.324000 0.974000,
			1.104000 -0.324000 1.074000,
			1.820000 -0.324000 0.974000,
			1.820000 -0.324000 1.174000,
			1.204000 -0.324000 1.990000,
			1.204000 -0.324000 1.789999,
			1.820000 -0.324000 1.990000,
			1.820000 -0.324000 1.789999,
			1.204000 -0.324000 1.174000,
			1.104000 -0.324000 1.890000,
			1.384800 -0.324000 1.354800,
			1.639200 -0.324000 1.354800,
			1.639200 -0.324000 1.609200,
			1.384800 -0.324000 1.609200,
			1.920000 -0.324000 1.890000,
			1.920000 -0.324000 1.074000,
			1.004000 -0.424000 1.790000,
			2.020000 -0.424000 1.174000,
			2.020000 -1.000000 1.174000,
			2.020000 -1.000000 1.790000,
			2.020000 -0.424000 1.790000,
			1.384800 -1.100000 1.487931,
			1.517931 -1.100000 1.354800,
			1.639200 -1.100000 1.487931,
			1.517931 -1.100000 1.609200,
			1.562187 -0.324000 1.354800,
			1.639200 -0.324000 1.532186,
			1.562187 -0.324000 1.609200,
			1.384800 -0.324000 1.532186,
			2.220000 -1.100000 1.990000,
			2.120000 -1.100000 1.890000,
			2.400800 -1.100000 1.609200,
			2.120000 -1.100000 1.074000,
			2.400800 -1.100000 1.354800,
			2.220000 -1.100000 0.974000,
			2.836000 -1.100000 0.974000,
			2.655200 -1.100000 1.354800,
			2.936000 -1.100000 1.074000,
			2.936000 -1.100000 1.890000,
			2.655200 -1.100000 1.609200,
			2.836000 -1.100000 1.990000,
			2.020000 -1.000000 1.790000,
			2.020000 -1.000000 1.174000,
			2.020000 -0.424000 1.174000,
			2.220000 -0.324000 0.974000,
			2.120000 -0.324000 1.074000,
			2.836000 -0.324000 0.974000,
			2.836000 -0.324000 1.174000,
			2.220000 -0.324000 1.990000,
			2.220000 -0.324000 1.789999,
			2.836000 -0.324000 1.990000,
			2.836000 -0.324000 1.789999,
			2.220000 -0.324000 1.174000,
			2.120000 -0.324000 1.890000,
			2.400800 -0.324000 1.354800,
			2.655200 -0.324000 1.354800,
			2.655200 -0.324000 1.609200,
			2.400800 -0.324000 1.609200,
			2.936000 -0.324000 1.890000,
			2.936000 -0.324000 1.074000,
			2.020000 -0.424000 1.790000,
			3.036000 -0.424000 1.174000,
			3.036000 -1.000000 1.174000,
			3.036000 -1.000000 1.790000,
			3.036000 -0.424000 1.790000,
			2.400800 -1.100000 1.487931,
			2.533931 -1.100000 1.354800,
			2.655200 -1.100000 1.487931,
			2.533931 -1.100000 1.609200,
			2.578187 -0.324000 1.354800,
			2.655200 -0.324000 1.532186,
			2.578187 -0.324000 1.609200,
			2.400800 -0.324000 1.532186,
		] }
		coordIndex [
			0 1 2 -1,
			2 1 3 -1,
			3 36 2 -1,
			4 3 5 -1,
			4 5 6 -1,
			6 37 4 -1,
			8 7 6 -1,
			9 7 8 -1,
			9 38 7 -1,
			11 10 9 -1,
			11 39 10 -1,
			11 0 2 -1,
			12 13 1 -1,
			1 13 3 -1,
			3 13 5 -1,
			5 13 14 -1,
			5 14 15 -1,
			15 14 16 -1,
			17 6 15 -1,
			15 6 5 -1,
			21 19 11 -1,
			11 19 0 -1,
			15 16 23 -1,
			23 16 24 -1,
			23 24 20 -1,
			20 24 19 -1,
			18 40 26 -1,
			41 18 26 -1,
			22 18 27 -1,
			42 22 27 -1,
			22 28 20 -1,
			43 20 28 -1,
			25 23 20 -1,
			25 18 23 -1,
			21 29 22 -1,
			22 29 30 -1,
			22 30 18 -1,
			18 30 17 -1,
			14 31 16 -1,
			16 31 24 -1,
			31 13 12 -1,
			24 31 19 -1,
			19 31 12 -1,
			19 12 0 -1,
			0 12 1 -1,
			30 32 17 -1,
			17 32 33 -1,
			17 33 6 -1,
			6 33 8 -1,
			9 8 34 -1,
			34 8 33 -1,
			29 21 35 -1,
			35 21 11 -1,
			35 11 34 -1,
			34 11 9 -1,
			35 32 29 -1,
			29 32 30 -1,
			32 35 33 -1,
			33 35 34 -1,
			19 22 20 -1,
			17 23 18 -1,
			44 45 46 -1,
			46 45 47 -1,
			47 80 46 -1,
			48 47 49 -1,
			48 49 50 -1,
			50 81 48 -1,
			52 51 50 -1,
			53 51 52 -1,
			53 82 51 -1,
			55 54 53 -1,
			55 83 54 -1,
			55 44 46 -1,
			56 57 45 -1,
			45 57 47 -1,
			47 57 49 -1,
			49 57 58 -1,
			49 58 59 -1,
			59 58 60 -1,
			61 50 59 -1,
			59 50 49 -1,
			65 63 55 -1,
			55 63 44 -1,
			59 60 67 -1,
			67 60 68 -1,
			67 68 64 -1,
			64 68 63 -1,
			62 84 70 -1,
			85 62 70 -1,
			66 62 71 -1,
			86 66 71 -1,
			66 72 64 -1,
			87 64 72 -1,
			69 67 64 -1,
			69 62 67 -1,
			65 73 66 -1,
			66 73 74 -1,
			66 74 62 -1,
			62 74 61 -1,
			58 75 60 -1,
			60 75 68 -1,
			75 57 56 -1,
			68 75 63 -1,
			63 75 56 -1,
			63 56 44 -1,
			44 56 45 -1,
			74 76 61 -1,
			61 76 77 -1,
			61 77 50 -1,
			50 77 52 -1,
			53 52 78 -1,
			78 52 77 -1,
			73 65 79 -1,
			79 65 55 -1,
			79 55 78 -1,
			78 55 53 -1,
			79 76 73 -1,
			73 76 74 -1,
			76 79 77 -1,
			77 79 78 -1,
			63 66 64 -1,
			61 67 62 -1,
			88 89 90 -1,
			90 89 91 -1,
			91 124 90 -1,
			92 91 93 -1,
			92 93 94 -1,
			94 125 92 -1,
			96 95 94 -1,
			97 95 96 -1,
			97 126 95 -1,
			99 98 97 -1,
			99 127 98 -1,
			99 88 90 -1,
			100 101 89 -1,
			89 101 91 -1,
			91 101 93 -1,
			93 101 102 -1,
			93 102 103 -1,
			103 102 104 -1,
			105 94 103 -1,
			103 94 93 -1,
			109 107 99 -1,
			99 107 88 -1,
			103 104 111 -1,
			111 104 112 -1,
			111 112 108 -1,
			108 112 107 -1,
			106 128 114 -1,
			129 106 114 -1,
			110 106 115 -1,
			130 110 115 -1,
			110 116 108 -1,
			131 108 116 -1,
			113 111 108 -1,
			113 106 111 -1,
			109 117 110 -1,
			110 117 118 -1,
			110 118 106 -1,
			106 118 105 -1,
			102 119 104 -1,
			104 119 112 -1,
			119 101 100 -1,
			112 119 107 -1,
			107 119 100 -1,
			107 100 88 -1,
			88 100 89 -1,
			118 120 105 -1,
			105 120 121 -1,
			105 121 94 -1,
			94 121 96 -1,
			97 96 122 -1,
			122 96 121 -1,
			117 109 123 -1,
			123 109 99 -1,
			123 99 122 -1,
			122 99 97 -1,
			123 120 117 -1,
			117 120 118 -1,
			120 123 121 -1,
			121 123 122 -1,
			107 110 108 -1,
			105 111 106 -1,
			132 133 134 -1,
			134 133 135 -1,
			135 168 134 -1,
			136 135 137 -1,
			136 137 138 -1,
			138 169 136 -1,
			140 139 138 -1,
			141 139 140 -1,
			141 170 139 -1,
			143 142 141 -1,
			143 171 142 -1,
			143 132 134 -1,
			144 145 133 -1,
			133 145 135 -1,
			135 145 137 -1,
			137 145 146 -1,
			137 146 147 -1,
			147 146 148 -1,
			149 138 147 -1,
			147 138 137 -1,
			153 151 143 -1,
			143 151 132 -1,
			147 148 155 -1,
			155 148 156 -1,
			155 156 152 -1,
			152 156 151 -1,
			150 172 158 -1,
			173 150 158 -1,
			154 150 159 -1,
			174 154 159 -1,
			154 160 152 -1,
			175 152 160 -1,
			157 155 152 -1,
			157 150 155 -1,
			153 161 154 -1,
			154 161 162 -1,
			154 162 150 -1,
			150 162 149 -1,
			146 163 148 -1,
			148 163 156 -1,
			163 145 144 -1,
			156 163 151 -1,
			151 163 144 -1,
			151 144 132 -1,
			132 144 133 -1,
			162 164 149 -1,
			149 164 165 -1,
			149 165 138 -1,
			138 165 140 -1,
			141 140 166 -1,
			166 140 165 -1,
			161 153 167 -1,
			167 153 143 -1,
			167 143 166 -1,
			166 143 141 -1,
			167 164 161 -1,
			161 164 162 -1,
			164 167 165 -1,
			165 167 166 -1,
			151 154 152 -1,
			149 155 150 -1,
			176 177 178 -1,
			178 177 179 -1,
			179 212 178 -1,
			180 179 181 -1,
			180 181 182 -1,
			182 213 180 -1,
			184 183 182 -1,
			185 183 184 -1,
			185 214 183 -1,
			187 186 185 -1,
			187 215 186 -1,
			187 176 178 -1,
			188 189 177 -1,
			177 189 179 -1,
			179 189 181 -1,
			181 189 190 -1,
			181 190 191 -1,
			191 190 192 -1,
			193 182 191 -1,
			191 182 181 -1,
			197 195 187 -1,
			187 195 176 -1,
			191 192 199 -1,
			199 192 200 -1,
			199 200 196 -1,
			196 200 195 -1,
			194 216 202 -1,
			217 194 202 -1,
			198 194 203 -1,
			218 198 203 -1,
			198 204 196 -1,
			219 196 204 -1,
			201 199 196 -1,
			201 194 199 -1,
			197 205 198 -1,
			198 205 206 -1,
			198 206 194 -1,
			194 206 193 -1,
			190 207 192 -1,
			192 207 200 -1,
			207 189 188 -1,
			200 207 195 -1,
			195 207 188 -1,
			195 188 176 -1,
			176 188 177 -1,
			206 208 193 -1,
			193 208 209 -1,
			193 209 182 -1,
			182 209 184 -1,
			185 184 210 -1,
			210 184 209 -1,
			205 197 211 -1,
			211 197 187 -1,
			211 187 210 -1,
			210 187 185 -1,
			211 208 205 -1,
			205 208 206 -1,
			208 211 209 -1,
			209 211 210 -1,
			195 198 196 -1,
			193 199 194 -1,
			220 221 222 -1,
			222 221 223 -1,
			223 256 222 -1,
			224 223 225 -1,
			224 225 226 -1,
			226 257 224 -1,
			228 227 226 -1,
			229 227 228 -1,
			229 258 227 -1,
			231 230 229 -1,
			231 259 230 -1,
			231 220 222 -1,
			232 233 221 -1,
			221 233 223 -1,
			223 233 225 -1,
			225 233 234 -1,
			225 234 235 -1,
			235 234 236 -1,
			237 226 235 -1,
			235 226 225 -1,
			241 239 231 -1,
			231 239 220 -1,
			235 236 243 -1,
			243 236 244 -1,
			243 244 240 -1,
			240 244 239 -1,
			238 260 246 -1,
			261 238 246 -1,
			242 238 247 -1,
			262 242 247 -1,
			242 248 240 -1,
			263 240 248 -1,
			245 243 240 -1,
			245 238 243 -1,
			241 249 242 -1,
			242 249 250 -1,
			242 250 238 -1,
			238 250 237 -1,
			234 251 236 -1,
			236 251 244 -1,
			251 233 232 -1,
			244 251 239 -1,
			239 251 232 -1,
			239 232 220 -1,
			220 232 221 -1,
			250 252 237 -1,
			237 252 253 -1,
			237 253 226 -1,
			226 253 228 -1,
			229 228 254 -1,
			254 228 253 -1,
			249 241 255 -1,
			255 241 231 -1,
			255 231 254 -1,
			254 231 229 -1,
			255 252 249 -1,
			249 252 250 -1,
			252 255 253 -1,
			253 255 254 -1,
			239 242 240 -1,
			237 243 238 -1,
			3 4 36 -1,
			6 7 37 -1,
			9 10 38 -1,
			11 2 39 -1,
			18 25 40 -1,
			41 27 18 -1,
			42 28 22 -1,
			43 25 20 -1,
			31 14 13 -1,
			19 21 22 -1,
			17 15 23 -1,
			47 48 80 -1,
			50 51 81 -1,
			53 54 82 -1,
			55 46 83 -1,
			62 69 84 -1,
			85 71 62 -1,
			86 72 66 -1,
			87 69 64 -1,
			75 58 57 -1,
			63 65 66 -1,
			61 59 67 -1,
			91 92 124 -1,
			94 95 125 -1,
			97 98 126 -1,
			99 90 127 -1,
			106 113 128 -1,
			129 115 106 -1,
			130 116 110 -1,
			131 113 108 -1,
			119 102 101 -1,
			107 109 110 -1,
			105 103 111 -1,
			135 136 168 -1,
			138 139 169 -1,
			141 142 170 -1,
			143 134 171 -1,
			150 157 172 -1,
			173 159 150 -1,
			174 160 154 -1,
			175 157 152 -1,
			163 146 145 -1,
			151 153 154 -1,
			149 147 155 -1,
			179 180 212 -1,
			182 183 213 -1,
			185 186 214 -1,
			187 178 215 -1,
			194 201 216 -1,
			217 203 194 -1,
			218 204 198 -1,
			219 201 196 -1,
			207 190 189 -1,
			195 197 198 -1,
			193 191 199 -1,
			223 224 256 -1,
			226 227 257 -1,
			229 230 258 -1,
			231 222 259 -1,
			238 245 260 -1,
			261 247 238 -1,
			262 248 242 -1,
			263 245 240 -1,
			251 234 233 -1,
			239 241 242 -1,
			237 235 243 -1,
		]
		normal Normal { vector [
			-0.297102 -0.630259 0.717289,
			-0.573236 -0.705972 0.415937,
			0.000000 -1.000000 0.000000,
			-0.573248 -0.705958 -0.415944,
			-0.000000 -1.000000 0.000000,
			-0.297109 -0.630253 -0.717292,
			0.297098 -0.630251 -0.717298,
			0.000000 -1.000000 0.000000,
			0.573236 -0.705972 -0.415937,
			0.573248 -0.705958 0.415944,
			-0.000000 -1.000000 0.000000,
			0.297105 -0.630245 0.717300,
			-0.905411 -0.300194 0.300191,
			-0.905413 -0.300190 -0.300189,
			-0.905411 0.300195 -0.300191,
			-0.297092 0.630272 -0.717282,
			-0.573236 0.705972 -0.415937,
			0.297106 0.630260 -0.717287,
			0.000000 1.000000 -0.000000,
			-0.297103 0.630253 0.717295,
			0.000000 1.000000 -0.000000,
			0.297095 0.630280 0.717274,
			-0.000000 1.000000 -0.000000,
			-0.000000 1.000000 -0.000000,
			-0.573241 0.705967 0.415939,
			0.000000 1.000000 -0.000000,
			0.000000 1.000000 -0.000000,
			0.000000 1.000000 -0.000000,
			0.000000 1.000000 -0.000000,
			0.573236 0.705972 0.415937,
			0.573241 0.705967 -0.415939,
			-0.905413 0.300189 0.300189,
			0.905410 0.300194 -0.300194,
			0.905414 -0.300190 -0.300187,
			0.905410 -0.300194 0.300194,
			0.905414 0.300190 0.300187,
			-0.000000 -1.000000 0.000000,
			0.000000 -1.000000 0.000000,
			-0.000000 -1.000000 0.000000,
			0.000000 -1.000000 0.000000,
			0.000000 1.000000 -0.000000,
			0.000000 1.000000 -0.000000,
			0.000000 1.000000 -0.000000,
			0.000000 1.000000 -0.000000,
			-0.297102 -0.630259 0.717289,
			-0.573236 -0.705972 0.415937,
			0.000000 -1.000000 0.000000,
			-0.573248 -0.705958 -0.415944,
			-0.000000 -1.000000 0.000000,
			-0.297109 -0.630253 -0.717292,
			0.297098 -0.630251 -0.717298,
			0.000000 -1.000000 0.000000,
			0.573236 -0.705972 -0.415937,
			0.573248 -0.705958 0.415945,
			-0.000000 -1.000000 0.000000,
			0.297105 -0.630245 0.717300,
			-0.905411 -0.300194 0.300192,
			-0.905413 -0.300189 -0.300189,
			-0.905411 0.300195 -0.300191,
			-0.297092 0.630272 -0.717282,
			-0.573236 0.705972 -0.415937,
			0.297106 0.630260 -0.717287,
			0.000000 1.000000 -0.000000,
			-0.297103 0.630253 0.717295,
			0.000000 1.000000 -0.000000,
			0.297095 0.630280 0.717274,
			-0.000000 1.000000 -0.000000,
			-0.000000 1.000000 -0.000000,
			-0.573241 0.705967 0.415939,
			0.000000 1.000000 -0.000000,
			0.000000 1.000000 -0.000000,
			0.000000 1.000000 -0.000000,
			0.000000 1.000000 -0.000000,
			0.573236 0.705972 0.415937,
			0.573241 0.705967 -0.415939,
			-0.905413 0.300189 0.300189,
			0.905410 0.300194 -0.300194,
			0.905414 -0.300190 -0.300187,
			0.905410 -0.300194 0.300194,
			0.905414 0.300190 0.300187,
			-0.000000 -1.000000 0.000000,
			0.000000 -1.000000 0.000000,
			-0.000000 -1.000000 0.000000,
			0.000000 -1.000000 0.000000,
			0.000000 1.000000 -0.000000,
			0.000000 1.000000 -0.000000,
			0.000000 1.000000 -0.000000,
			0.000000 1.000000 -0.000000,
			-0.297102 -0.630259 0.717289,
			-0.573236 -0.705972 0.415937,
			0.000000 -1.000000 0.000000,
			-0.573248 -0.705958 -0.415944,
			-0.000000 -1.000000 0.000000,
			-0.297109 -0.630253 -0.717292,
			0.297098 -0.630251 -0.717298,
			0.000000 -1.000000 0.000000,
			0.573236 -0.705972 -0.415937,
			0.573248 -0.705958 0.415945,
			-0.000000 -1.000000 0.000000,
			0.297105 -0.630245 0.717300,
			-0.905411 -0.300194 0.300192,
			-0.905413 -0.300189 -0.300189,
			-0.905411 0.300195 -0.300191,
			-0.297092 0.630272 -0.717282,
			-0.573236 0.705972 -0.415937,
			0.297106 0.630260 -0.717287,
			0.000000 1.000000 -0.000000,
			-0.297103 0.630253 0.717295,
			0.000000 1.000000 -0.000000,
			0.297095 0.630280 0.717274,
			-0.000000 1.000000 -0.000000,
			-0.000000 1.000000 -0.000000,
			-0.573241 0.705967 0.415939,
			0.000000 1.000000 -0.000000,
			0.000000 1.000000 -0.000000,
			0.000000 1.000000 -0.000000,
			0.000000 1.000000 -0.000000,
			0.573236 0.705972 0.415937,
			0.573241 0.705967 -0.415939,
			-0.905413 0.300189 0.300189,
			0.905410 0.300194 -0.300194,
			0.905414 -0.300190 -0.300187,
			0.905410 -0.300194 0.300194,
			0.905414 0.300190 0.300187,
			-0.000000 -1.000000 0.000000,
			0.000000 -1.000000 0.000000,
			-0.000000 -1.000000 0.000000,
			0.000000 -1.000000 0.000000,
			0.000000 1.000000 -0.000000,
			0.000000 1.000000 -0.000000,
			0.000000 1.000000 -0.000000,
			0.000000 1.000000 -0.000000,
			-0.297102 -0.630259 0.717289,
			-0.573236 -0.705972 0.415937,
			0.000000 -1.000000 0.000000,
			-0.573248 -0.705958 -0.415944,
			-0.000000 -1.000000 0.000000,
			-0.297109 -0.630253 -0.717292,
			0.297098 -0.630251 -0.717298,
			0.000000 -1.000000 0.000000,
			0.573236 -0.705972 -0.415937,
			0.573248 -0.705958 0.415945,
			-0.000000 -1.000000 0.000000,
			0.297105 -0.630245 0.717301,
			-0.905411 -0.300194 0.300192,
			-0.905413 -0.300189 -0.300189,
			-0.905411 0.300195 -0.300191,
			-0.297092 0.630272 -0.717282,
			-0.573236 0.705972 -0.415937,
			0.297106 0.630260 -0.717287,
			0.000000 1.000000 -0.000000,
			-0.297103 0.630253 0.717295,
			0.000000 1.000000 -0.000000,
			0.297095 0.630280 0.717274,
			-0.000000 1.000000 -0.000000,
			-0.000000 1.000000 -0.000000,
			-0.573241 0.705967 0.415939,
			0.000000 1.000000 -0.000000,
			0.000000 1.000000 -0.000000,
			0.000000 1.000000 -0.000000,
			0.000000 1.000000 -0.000000,
			0.573236 0.705972 0.415937,
			0.573241 0.705967 -0.415939,
			-0.905413 0.300189 0.300189,
			0.905410 0.300194 -0.300194,
			0.905414 -0.300190 -0.300187,
			0.905410 -0.300194 0.300194,
			0.905414 0.300190 0.300187,
			-0.000000 -1.000000 0.000000,
			0.000000 -1.000000 0.000000,
			-0.000000 -1.000000 0.000000,
			0.000000 -1.000000 0.000000,
			0.000000 1.000000 -0.000000,
			0.000000 1.000000 -0.000000,
			0.000000 1.000000 -0.000000,
			0.000000 1.000000 -0.000000,
			-0.297102 -0.630259 0.717289,
			-0.573236 -0.705973 0.415935,
			0.000000 -1.000000 0.000000,
			-0.573248 -0.705959 -0.415943,
			-0.000000 -1.000000 0.000000,
			-0.297109 -0.630253 -0.717292,
			0.297098 -0.630251 -0.717298,
			0.000000 -1.000000 0.000000,
			0.573236 -0.705972 -0.415937,
			0.573248 -0.705958 0.415944,
			-0.000000 -1.000000 0.000000,
			0.297105 -0.630245 0.717300,
			-0.905411 -0.300194 0.300191,
			-0.905413 -0.300190 -0.300189,
			-0.905411 0.300195 -0.300191,
			-0.297092 0.630272 -0.717282,
			-0.573236 0.705973 -0.415935,
			0.297106 0.630260 -0.717287,
			0.000000 1.000000 -0.000000,
			-0.297103 0.630253 0.717295,
			0.000000 1.000000 -0.000000,
			0.297095 0.630280 0.717274,
			-0.000000 1.000000 -0.000000,
			-0.000000 1.000000 -0.000000,
			-0.573241 0.705968 0.415937,
			0.000000 1.000000 -0.000000,
			0.000000 1.000000 -0.000000,
			0.000000 1.000000 -0.000000,
			0.000000 1.000000 -0.000000,
			0.573236 0.705972 0.415937,
			0.573241 0.705967 -0.415939,
			-0.905413 0.300189 0.300189,
			0.905410 0.300194 -0.300194,
			0.905414 -0.300190 -0.300187,
			0.905410 -0.300194 0.300194,
			0.905414 0.300190 0.300187,
			-0.000000 -1.000000 0.000000,
			0.000000 -1.000000 0.000000,
			-0.000000 -1.000000 0.000000,
			0.000000 -1.000000 0.000000,
			0.000000 1.000000 -0.000000,
			0.000000 1.000000 -0.000000,
			0.000000 1.000000 -0.000000,
			0.000000 1.000000 -0.000000,
			-0.297102 -0.630259 0.717289,
			-0.573236 -0.705972 0.415937,
			0.000000 -1.000000 0.000000,
			-0.573248 -0.705958 -0.415944,
			-0.000000 -1.000000 0.000000,
			-0.297109 -0.630253 -0.717292,
			0.297098 -0.630251 -0.717298,
			0.000000 -1.000000 0.000000,
			0.573236 -0.705972 -0.415937,
			0.573248 -0.705958 0.415945,
			-0.000000 -1.000000 0.000000,
			0.297105 -0.630245 0.717301,
			-0.905411 -0.300194 0.300192,
			-0.905413 -0.300189 -0.300189,
			-0.905411 0.300195 -0.300191,
			-0.297092 0.630272 -0.717282,
			-0.573236 0.705972 -0.415937,
			0.297106 0.630260 -0.717286,
			0.000000 1.000000 -0.000000,
			-0.297103 0.630253 0.717295,
			0.000000 1.000000 -0.000000,
			0.297095 0.630280 0.717274,
			-0.000000 1.000000 -0.000000,
			-0.000000 1.000000 -0.000000,
			-0.573241 0.705967 0.415939,
			0.000000 1.000000 -0.000000,
			0.000000 1.000000 -0.000000,
			0.000000 1.000000 -0.000000,
			0.000000 1.000000 -0.000000,
			0.573236 0.705972 0.415937,
			0.573241 0.705967 -0.415939,
			-0.905413 0.300189 0.300189,
			0.905410 0.300194 -0.300194,
			0.905414 -0.300190 -0.300187,
			0.905410 -0.300194 0.300194,
			0.905414 0.300190 0.300187,
			-0.000000 -1.000000 0.000000,
			0.000000 -1.000000 0.000000,
			-0.000000 -1.000000 0.000000,
			0.000000 -1.000000 0.000000,
			0.000000 1.000000 -0.000000,
			0.000000 1.000000 -0.000000,
			0.000000 1.000000 -0.000000,
			0.000000 1.000000 -0.000000,
		] }
		normalPerVertex TRUE
		solid TRUE
	}
	appearance Appearance {
		material Material {
			diffuseColor 0.2980 0.2980 0.2980
			transparency 0.0000
			shininess 0.0000
		}
	}
}

Shape # Material: Gold
{
	geometry IndexedFaceSet {
		coord Coordinate { point [
			-2.618000 1.132000 1.415999,
			-2.618000 1.132000 1.547999,
			-2.679200 -1.100000 1.609200,
			-2.486000 1.132000 1.415999,
			-2.486000 1.132000 1.547999,
			-2.679200 -1.100000 1.354800,
			-2.679200 1.026400 1.609199,
			-2.679200 1.026400 1.354799,
			-2.424800 1.026400 1.609199,
			-2.424800 -1.100000 1.354800,
			-2.424800 1.026400 1.354799,
			-2.679200 -3.434400 1.354800,
			-2.424800 -3.434400 1.354800,
			-2.424800 -1.100000 1.609200,
			-2.679200 -3.434400 1.609200,
			-2.424800 -3.434400 1.609200,
			-2.486000 -3.540000 1.548000,
			-2.486000 -3.540000 1.416000,
			-2.618000 -3.540000 1.548000,
			-2.618000 -3.540000 1.416000,
			-2.679200 -0.324000 1.354800,
			-2.424800 -0.324000 1.354800,
			-2.424800 -0.324000 1.609200,
			-2.679200 -0.324000 1.609200,
			-2.679200 -1.100000 1.487931,
			-2.546069 -1.100000 1.354800,
			-2.424800 -1.100000 1.487931,
			-2.546069 -1.100000 1.609200,
			-2.501813 -0.324000 1.354800,
			-2.424800 -0.324000 1.532186,
			-2.501813 -0.324000 1.609200,
			-2.679200 -0.324000 1.532186,
			-1.602000 1.132000 1.415999,
			-1.602000 1.132000 1.547999,
			-1.663200 -1.100000 1.609200,
			-1.470000 1.132000 1.415999,
			-1.470000 1.132000 1.547999,
			-1.663200 -1.100000 1.354800,
			-1.663200 1.026400 1.609199,
			-1.663200 1.026400 1.354799,
			-1.408800 1.026400 1.609199,
			-1.408800 -1.100000 1.354800,
			-1.408800 1.026400 1.354799,
			-1.663200 -3.434400 1.354800,
			-1.408800 -3.434400 1.354800,
			-1.408800 -1.100000 1.609200,
			-1.663200 -3.434400 1.609200,
			-1.408800 -3.434400 1.609200,
			-1.470000 -3.540000 1.548000,
			-1.470000 -3.540000 1.416000,
			-1.602000 -3.540000 1.548000,
			-1.602000 -3.540000 1.416000,
			-1.663200 -0.324000 1.354800,
			-1.408800 -0.324000 1.354800,
			-1.408800 -0.324000 1.609200,
			-1.663200 -0.324000 1.609200,
			-1.663200 -1.100000 1.487931,
			-1.530069 -1.100000 1.354800,
			-1.408800 -1.100000 1.487931,
			-1.530069 -1.100000 1.609200,
			-1.485813 -0.324000 1.354800,
			-1.408800 -0.324000 1.532186,
			-1.485813 -0.324000 1.609200,
			-1.663200 -0.324000 1.532186,
			-0.586000 1.132000 1.415999,
			-0.586000 1.132000 1.547999,
			-0.647200 -1.100000 1.609200,
			-0.454000 1.132000 1.415999,
			-0.454000 1.132000 1.547999,
			-0.647200 -1.100000 1.354800,
			-0.647200 1.026400 1.609199,
			-0.647200 1.026400 1.354799,
			-0.392800 1.026400 1.609199,
			-0.392800 -1.100000 1.354800,
			-0.392800 1.026400 1.354799,
			-0.647200 -3.434400 1.354800,
			-0.392800 -3.434400 1.354800,
			-0.392800 -1.100000 1.609200,
			-0.647200 -3.434400 1.609200,
			-0.392800 -3.434400 1.609200,
			-0.454000 -3.540000 1.548000,
			-0.454000 -3.540000 1.416000,
			-0.586000 -3.540000 1.548000,
			-0.586000 -3.540000 1.416000,
			-0.647200 -0.324000 1.354800,
			-0.392800 -0.324000 1.354800,
			-0.392800 -0.324000 1.609200,
			-0.647200 -0.324000 1.609200,
			-0.647200 -1.100000 1.487931,
			-0.514069 -1.100000 1.354800,
			-0.392800 -1.100000 1.487931,
			-0.514069 -1.100000 1.609200,
			-0.469813 -0.324000 1.354800,
			-0.392800 -0.324000 1.532186,
			-0.469813 -0.324000 1.609200,
			-0.647200 -0.324000 1.532186,
			0.430000 1.132000 1.415999,
			0.430000 1.132000 1.547999,
			0.368800 -1.100000 1.609200,
			0.562000 1.132000 1.415999,
			0.562000 1.132000 1.547999,
			0.368800 -1.100000 1.354800,
			0.368800 1.026400 1.609199,
			0.368800 1.026400 1.354799,
			0.623200 1.026400 1.609199,
			0.623200 -1.100000 1.354800,
			0.623200 1.026400 1.354799,
			0.368800 -3.434400 1.354800,
			0.623200 -3.434400 1.354800,
			0.623200 -1.100000 1.609200,
			0.368800 -3.434400 1.609200,
			0.623200 -3.434400 1.609200,
			0.562000 -3.540000 1.548000,
			0.562000 -3.540000 1.416000,
			0.430000 -3.540000 1.548000,
			0.430000 -3.540000 1.416000,
			0.368800 -0.324000 1.354800,
			0.623200 -0.324000 1.354800,
			0.623200 -0.324000 1.609200,
			0.368800 -0.324000 1.609200,
			0.368800 -1.100000 1.487931,
			0.501931 -1.100000 1.354800,
			0.623200 -1.100000 1.487931,
			0.501931 -1.100000 1.609200,
			0.546187 -0.324000 1.354800,
			0.623200 -0.324000 1.532186,
			0.546187 -0.324000 1.609200,
			0.368800 -0.324000 1.532186,
			1.446000 1.132000 1.415999,
			1.446000 1.132000 1.547999,
			1.384800 -1.100000 1.609200,
			1.578000 1.132000 1.415999,
			1.578000 1.132000 1.547999,
			1.384800 -1.100000 1.354800,
			1.384800 1.026400 1.609199,
			1.384800 1.026400 1.354799,
			1.639200 1.026400 1.609199,
			1.639200 -1.100000 1.354800,
			1.639200 1.026400 1.354799,
			1.384800 -3.434400 1.354800,
			1.639200 -3.434400 1.354800,
			1.639200 -1.100000 1.609200,
			1.384800 -3.434400 1.609200,
			1.639200 -3.434400 1.609200,
			1.578000 -3.540000 1.548000,
			1.578000 -3.540000 1.416000,
			1.446000 -3.540000 1.548000,
			1.446000 -3.540000 1.416000,
			1.384800 -0.324000 1.354800,
			1.639200 -0.324000 1.354800,
			1.639200 -0.324000 1.609200,
			1.384800 -0.324000 1.609200,
			1.384800 -1.100000 1.487931,
			1.517931 -1.100000 1.354800,
			1.639200 -1.100000 1.487931,
			1.517931 -1.100000 1.609200,
			1.562187 -0.324000 1.354800,
			1.639200 -0.324000 1.532186,
			1.562187 -0.324000 1.609200,
			1.384800 -0.324000 1.532186,
			2.462001 1.132000 1.415999,
			2.462001 1.132000 1.547999,
			2.400800 -1.100000 1.609200,
			2.594000 1.132000 1.415999,
			2.594000 1.132000 1.547999,
			2.400800 -1.100000 1.354800,
			2.400800 1.026400 1.609199,
			2.400800 1.026400 1.354799,
			2.655200 1.026400 1.609199,
			2.655200 -1.100000 1.354800,
			2.655200 1.026400 1.354799,
			2.400800 -3.434400 1.354800,
			2.655200 -3.434400 1.354800,
			2.655200 -1.100000 1.609200,
			2.400800 -3.434400 1.609200,
			2.655200 -3.434400 1.609200,
			2.594000 -3.540000 1.548000,
			2.594000 -3.540000 1.416000,
			2.462000 -3.540000 1.548000,
			2.462000 -3.540000 1.416000,
			2.400800 -0.324000 1.354800,
			2.655200 -0.324000 1.354800,
			2.655200 -0.324000 1.609200,
			2.400800 -0.324000 1.609200,
			2.400800 -1.100000 1.487931,
			2.533931 -1.100000 1.354800,
			2.655200 -1.100000 1.487931,
			2.533931 -1.100000 1.609200,
			2.578187 -0.324000 1.354800,
			2.655200 -0.324000 1.532186,
			2.578187 -0.324000 1.609200,
			2.400800 -0.324000 1.532186,
		] }
		coordIndex [
			0 1 3 -1,
			3 1 4 -1,
			1 0 6 -1,
			6 0 7 -1,
			4 1 8 -1,
			8 1 6 -1,
			3 4 10 -1,
			10 4 8 -1,
			0 3 7 -1,
			7 3 10 -1,
			5 25 11 -1,
			7 28 20 -1,
			21 28 10 -1,
			12 25 9 -1,
			7 31 6 -1,
			24 5 11 -1,
			31 23 6 -1,
			14 24 11 -1,
			2 14 27 -1,
			30 6 23 -1,
			22 8 30 -1,
			27 15 13 -1,
			10 29 21 -1,
			26 12 9 -1,
			29 8 22 -1,
			15 26 13 -1,
			16 17 15 -1,
			15 17 12 -1,
			18 19 16 -1,
			16 19 17 -1,
			19 18 11 -1,
			11 18 14 -1,
			17 19 12 -1,
			12 19 11 -1,
			18 16 14 -1,
			14 16 15 -1,
			32 33 35 -1,
			35 33 36 -1,
			33 32 38 -1,
			38 32 39 -1,
			36 33 40 -1,
			40 33 38 -1,
			35 36 42 -1,
			42 36 40 -1,
			32 35 39 -1,
			39 35 42 -1,
			37 57 43 -1,
			39 60 52 -1,
			53 60 42 -1,
			44 57 41 -1,
			39 63 38 -1,
			56 37 43 -1,
			63 55 38 -1,
			46 56 43 -1,
			34 46 59 -1,
			62 38 55 -1,
			54 40 62 -1,
			59 47 45 -1,
			42 61 53 -1,
			58 44 41 -1,
			61 40 54 -1,
			47 58 45 -1,
			48 49 47 -1,
			47 49 44 -1,
			50 51 48 -1,
			48 51 49 -1,
			51 50 43 -1,
			43 50 46 -1,
			49 51 44 -1,
			44 51 43 -1,
			50 48 46 -1,
			46 48 47 -1,
			64 65 67 -1,
			67 65 68 -1,
			65 64 70 -1,
			70 64 71 -1,
			68 65 72 -1,
			72 65 70 -1,
			67 68 74 -1,
			74 68 72 -1,
			64 67 71 -1,
			71 67 74 -1,
			69 89 75 -1,
			71 92 84 -1,
			85 92 74 -1,
			76 89 73 -1,
			71 95 70 -1,
			88 69 75 -1,
			95 87 70 -1,
			78 88 75 -1,
			66 78 91 -1,
			94 70 87 -1,
			86 72 94 -1,
			91 79 77 -1,
			74 93 85 -1,
			90 76 73 -1,
			93 72 86 -1,
			79 90 77 -1,
			80 81 79 -1,
			79 81 76 -1,
			82 83 80 -1,
			80 83 81 -1,
			83 82 75 -1,
			75 82 78 -1,
			81 83 76 -1,
			76 83 75 -1,
			82 80 78 -1,
			78 80 79 -1,
			96 97 99 -1,
			99 97 100 -1,
			97 96 102 -1,
			102 96 103 -1,
			100 97 104 -1,
			104 97 102 -1,
			99 100 106 -1,
			106 100 104 -1,
			96 99 103 -1,
			103 99 106 -1,
			101 121 107 -1,
			103 124 116 -1,
			117 124 106 -1,
			108 121 105 -1,
			103 127 102 -1,
			120 101 107 -1,
			127 119 102 -1,
			110 120 107 -1,
			98 110 123 -1,
			126 102 119 -1,
			118 104 126 -1,
			123 111 109 -1,
			106 125 117 -1,
			122 108 105 -1,
			125 104 118 -1,
			111 122 109 -1,
			112 113 111 -1,
			111 113 108 -1,
			114 115 112 -1,
			112 115 113 -1,
			115 114 107 -1,
			107 114 110 -1,
			113 115 108 -1,
			108 115 107 -1,
			114 112 110 -1,
			110 112 111 -1,
			128 129 131 -1,
			131 129 132 -1,
			129 128 134 -1,
			134 128 135 -1,
			132 129 136 -1,
			136 129 134 -1,
			131 132 138 -1,
			138 132 136 -1,
			128 131 135 -1,
			135 131 138 -1,
			133 153 139 -1,
			135 156 148 -1,
			149 156 138 -1,
			140 153 137 -1,
			135 159 134 -1,
			152 133 139 -1,
			159 151 134 -1,
			142 152 139 -1,
			130 142 155 -1,
			158 134 151 -1,
			150 136 158 -1,
			155 143 141 -1,
			138 157 149 -1,
			154 140 137 -1,
			157 136 150 -1,
			143 154 141 -1,
			144 145 143 -1,
			143 145 140 -1,
			146 147 144 -1,
			144 147 145 -1,
			147 146 139 -1,
			139 146 142 -1,
			145 147 140 -1,
			140 147 139 -1,
			146 144 142 -1,
			142 144 143 -1,
			160 161 163 -1,
			163 161 164 -1,
			161 160 166 -1,
			166 160 167 -1,
			164 161 168 -1,
			168 161 166 -1,
			163 164 170 -1,
			170 164 168 -1,
			160 163 167 -1,
			167 163 170 -1,
			165 185 171 -1,
			167 188 180 -1,
			181 188 170 -1,
			172 185 169 -1,
			167 191 166 -1,
			184 165 171 -1,
			191 183 166 -1,
			174 184 171 -1,
			162 174 187 -1,
			190 166 183 -1,
			182 168 190 -1,
			187 175 173 -1,
			170 189 181 -1,
			186 172 169 -1,
			189 168 182 -1,
			175 186 173 -1,
			176 177 175 -1,
			175 177 172 -1,
			178 179 176 -1,
			176 179 177 -1,
			179 178 171 -1,
			171 178 174 -1,
			177 179 172 -1,
			172 179 171 -1,
			178 176 174 -1,
			174 176 175 -1,
			7 10 28 -1,
			12 11 25 -1,
			7 20 31 -1,
			14 2 24 -1,
			30 8 6 -1,
			27 14 15 -1,
			10 8 29 -1,
			15 12 26 -1,
			39 42 60 -1,
			44 43 57 -1,
			39 52 63 -1,
			46 34 56 -1,
			62 40 38 -1,
			59 46 47 -1,
			42 40 61 -1,
			47 44 58 -1,
			71 74 92 -1,
			76 75 89 -1,
			71 84 95 -1,
			78 66 88 -1,
			94 72 70 -1,
			91 78 79 -1,
			74 72 93 -1,
			79 76 90 -1,
			103 106 124 -1,
			108 107 121 -1,
			103 116 127 -1,
			110 98 120 -1,
			126 104 102 -1,
			123 110 111 -1,
			106 104 125 -1,
			111 108 122 -1,
			135 138 156 -1,
			140 139 153 -1,
			135 148 159 -1,
			142 130 152 -1,
			158 136 134 -1,
			155 142 143 -1,
			138 136 157 -1,
			143 140 154 -1,
			167 170 188 -1,
			172 171 185 -1,
			167 180 191 -1,
			174 162 184 -1,
			190 168 166 -1,
			187 174 175 -1,
			170 168 189 -1,
			175 172 186 -1,
		]
		normal Normal { vector [
			-0.401401 0.823259 -0.401399,
			-0.401390 0.823266 0.401396,
			-0.707107 0.000000 0.707107,
			0.401390 0.823266 -0.401396,
			0.401401 0.823260 0.401398,
			-0.707107 0.000000 -0.707107,
			-0.675355 0.296339 0.675336,
			-0.675340 0.296340 -0.675351,
			0.675340 0.296337 0.675352,
			0.707107 -0.000000 -0.707107,
			0.675349 0.296338 -0.675343,
			-0.675352 -0.296337 -0.675340,
			0.675340 -0.296337 -0.675352,
			0.707107 0.000000 0.707107,
			-0.675340 -0.296337 0.675352,
			0.675352 -0.296337 0.675340,
			0.401390 -0.823266 0.401396,
			0.401401 -0.823260 -0.401398,
			-0.401401 -0.823259 0.401399,
			-0.401390 -0.823266 -0.401396,
			-0.707107 -0.000000 -0.707107,
			0.707107 -0.000000 -0.707107,
			0.707107 -0.000000 0.707107,
			-0.707107 0.000000 0.707107,
			-1.000000 0.000000 -0.000000,
			0.000000 -0.000000 -1.000000,
			1.000000 0.000000 0.000000,
			0.000000 0.000000 1.000000,
			0.000000 -0.000000 -1.000000,
			1.000000 -0.000000 0.000000,
			0.000000 0.000000 1.000000,
			-1.000000 0.000000 0.000000,
			-0.401401 0.823259 -0.401399,
			-0.401390 0.823266 0.401396,
			-0.707107 0.000000 0.707107,
			0.401390 0.823266 -0.401396,
			0.401401 0.823260 0.401398,
			-0.707107 0.000000 -0.707107,
			-0.675355 0.296339 0.675336,
			-0.675340 0.296340 -0.675351,
			0.675340 0.296337 0.675352,
			0.707107 -0.000000 -0.707107,
			0.675349 0.296338 -0.675342,
			-0.675352 -0.296337 -0.675340,
			0.675340 -0.296337 -0.675352,
			0.707107 0.000000 0.707107,
			-0.675340 -0.296337 0.675352,
			0.675353 -0.296337 0.675339,
			0.401391 -0.823266 0.401396,
			0.401402 -0.823259 -0.401398,
			-0.401401 -0.823260 0.401399,
			-0.401390 -0.823266 -0.401396,
			-0.707107 -0.000000 -0.707107,
			0.707107 -0.000000 -0.707107,
			0.707107 -0.000000 0.707107,
			-0.707107 0.000000 0.707107,
			-1.000000 0.000000 -0.000000,
			0.000000 -0.000000 -1.000000,
			1.000000 0.000000 0.000000,
			0.000000 0.000000 1.000000,
			0.000000 -0.000000 -1.000000,
			1.000000 -0.000000 0.000000,
			0.000000 0.000000 1.000000,
			-1.000000 0.000000 0.000000,
			-0.401402 0.823259 -0.401399,
			-0.401391 0.823266 0.401396,
			-0.707107 0.000000 0.707107,
			0.401391 0.823266 -0.401396,
			0.401402 0.823259 0.401398,
			-0.707107 0.000000 -0.707107,
			-0.675355 0.296339 0.675336,
			-0.675340 0.296340 -0.675351,
			0.675340 0.296337 0.675352,
			0.707107 -0.000000 -0.707107,
			0.675349 0.296338 -0.675343,
			-0.675352 -0.296337 -0.675340,
			0.675340 -0.296337 -0.675352,
			0.707107 0.000000 0.707107,
			-0.675340 -0.296337 0.675352,
			0.675352 -0.296337 0.675340,
			0.401391 -0.823266 0.401396,
			0.401402 -0.823259 -0.401398,
			-0.401402 -0.823259 0.401398,
			-0.401391 -0.823266 -0.401396,
			-0.707107 -0.000000 -0.707107,
			0.707107 -0.000000 -0.707107,
			0.707107 -0.000000 0.707107,
			-0.707107 0.000000 0.707107,
			-1.000000 0.000000 -0.000000,
			0.000000 -0.000000 -1.000000,
			1.000000 0.000000 0.000000,
			0.000000 0.000000 1.000000,
			0.000000 -0.000000 -1.000000,
			1.000000 -0.000000 0.000000,
			0.000000 0.000000 1.000000,
			-1.000000 0.000000 0.000000,
			-0.401402 0.823259 -0.401399,
			-0.401391 0.823266 0.401396,
			-0.707107 0.000000 0.707107,
			0.401391 0.823266 -0.401396,
			0.401402 0.823259 0.401398,
			-0.707107 0.000000 -0.707107,
			-0.675355 0.296339 0.675336,
			-0.675340 0.296340 -0.675351,
			0.675340 0.296337 0.675352,
			0.707107 -0.000000 -0.707107,
			0.675349 0.296338 -0.675343,
			-0.675352 -0.296337 -0.675340,
			0.675340 -0.296337 -0.675352,
			0.707107 0.000000 0.707107,
			-0.675340 -0.296337 0.675352,
			0.675352 -0.296337 0.675340,
			0.401391 -0.823266 0.401396,
			0.401402 -0.823259 -0.401398,
			-0.401402 -0.823259 0.401398,
			-0.401391 -0.823266 -0.401396,
			-0.707107 -0.000000 -0.707107,
			0.707107 -0.000000 -0.707107,
			0.707107 -0.000000 0.707107,
			-0.707107 0.000000 0.707107,
			-1.000000 0.000000 -0.000000,
			0.000000 -0.000000 -1.000000,
			1.000000 0.000000 0.000000,
			0.000000 0.000000 1.000000,
			0.000000 -0.000000 -1.000000,
			1.000000 -0.000000 0.000000,
			0.000000 0.000000 1.000000,
			-1.000000 0.000000 0.000000,
			-0.401402 0.823259 -0.401399,
			-0.401391 0.823266 0.401396,
			-0.707107 0.000000 0.707107,
			0.401391 0.823266 -0.401396,
			0.401402 0.823259 0.401398,
			-0.707107 0.000000 -0.707107,
			-0.675355 0.296339 0.675336,
			-0.675340 0.296340 -0.675351,
			0.675340 0.296337 0.675352,
			0.707107 -0.000000 -0.707107,
			0.675349 0.296338 -0.675343,
			-0.675352 -0.296337 -0.675340,
			0.675340 -0.296337 -0.675352,
			0.707107 0.000000 0.707107,
			-0.675340 -0.296337 0.675352,
			0.675352 -0.296337 0.675340,
			0.401391 -0.823266 0.401396,
			0.401402 -0.823259 -0.401398,
			-0.401402 -0.823259 0.401398,
			-0.401391 -0.823266 -0.401396,
			-0.707107 -0.000000 -0.707107,
			0.707107 -0.000000 -0.707107,
			0.707107 -0.000000 0.707107,
			-0.707107 0.000000 0.707107,
			-1.000000 0.000000 -0.000000,
			0.000000 -0.000000 -1.000000,
			1.000000 0.000000 0.000000,
			0.000000 0.000000 1.000000,
			0.000000 -0.000000 -1.000000,
			1.000000 -0.000000 0.000000,
			0.000000 0.000000 1.000000,
			-1.000000 0.000000 0.000000,
			-0.401402 0.823259 -0.401399,
			-0.401391 0.823266 0.401396,
			-0.707107 0.000000 0.707107,
			0.401391 0.823266 -0.401396,
			0.401402 0.823259 0.401398,
			-0.707107 0.000000 -0.707107,
			-0.675355 0.296339 0.675336,
			-0.675340 0.296340 -0.675351,
			0.675340 0.296337 0.675352,
			0.707107 -0.000000 -0.707107,
			0.675349 0.296338 -0.675343,
			-0.675352 -0.296337 -0.675340,
			0.675340 -0.296337 -0.675352,
			0.707107 0.000000 0.707107,
			-0.675340 -0.296337 0.675352,
			0.675352 -0.296337 0.675340,
			0.401391 -0.823266 0.401396,
			0.401402 -0.823259 -0.401398,
			-0.401402 -0.823259 0.401398,
			-0.401391 -0.823266 -0.401396,
			-0.707107 -0.000000 -0.707107,
			0.707107 -0.000000 -0.707107,
			0.707107 -0.000000 0.707107,
			-0.707107 0.000000 0.707107,
			-1.000000 0.000000 -0.000000,
			0.000000 -0.000000 -1.000000,
			1.000000 0.000000 0.000000,
			0.000000 0.000000 1.000000,
			0.000000 -0.000000 -1.000000,
			1.000000 -0.000000 0.000000,
			0.000000 0.000000 1.000000,
			-1.000000 0.000000 0.000000,
		] }
		normalPerVertex TRUE
		solid TRUE
	}
	appearance Appearance {
		material Material {
			diffuseColor 0.9714 0.9167 0.4554
			transparency 0.0000
			shininess 0.5000
		}
	}
}

Shape # Material: Silber
{
	geometry IndexedFaceSet {
		coord Coordinate { point [
			-0.500000 0.330000 0.250000,
			-0.500000 0.730000 0.250000,
			-0.500000 0.330000 -1.030000,
			-0.500000 0.730000 -1.030000,
			0.500000 0.330000 0.250000,
			0.500000 0.730000 0.250000,
			0.500000 0.330000 -1.030000,
			0.500000 0.730000 -1.030000,
		] }
		coordIndex [
			1 2 0 -1,
			3 6 2 -1,
			7 4 6 -1,
			5 0 4 -1,
			6 0 2 -1,
			3 5 7 -1,
			1 3 2 -1,
			3 7 6 -1,
			7 5 4 -1,
			5 1 0 -1,
			6 4 0 -1,
			3 1 5 -1,
		]
		normal Normal { vector [
			-0.356663 -0.891707 0.278658,
			-0.356698 0.891694 0.278654,
			-0.356698 -0.891694 -0.278654,
			-0.356663 0.891707 -0.278658,
			0.356698 -0.891694 0.278654,
			0.356663 0.891707 0.278658,
			0.356663 -0.891707 -0.278658,
			0.356698 0.891694 -0.278654,
		] }
		normalPerVertex TRUE
		solid TRUE
	}
	appearance Appearance {
		material Material {
			diffuseColor 0.2445 0.2445 0.2445
			transparency 0.0000
			shininess 0.6000
		}
	}
}

Shape # Material: Silber
{
	geometry IndexedFaceSet {
		coord Coordinate { point [
			-2.220000 0.489999 0.650000,
			-2.220000 0.689999 0.650000,
			-2.220000 0.489999 -0.150000,
			-2.220000 0.689999 -0.150000,
			-1.820000 0.489999 0.650000,
			-1.820000 0.689999 0.650000,
			-1.820000 0.489999 -0.150000,
			-1.820000 0.689999 -0.150000,
		] }
		coordIndex [
			1 2 0 -1,
			3 6 2 -1,
			7 4 6 -1,
			5 0 4 -1,
			6 0 2 -1,
			3 5 7 -1,
			1 3 2 -1,
			3 7 6 -1,
			7 5 4 -1,
			5 1 0 -1,
			6 4 0 -1,
			3 1 5 -1,
		]
		normal Normal { vector [
			-0.436416 -0.872881 0.218220,
			-0.436456 0.872862 0.218216,
			-0.436456 -0.872862 -0.218216,
			-0.436416 0.872881 -0.218220,
			0.436456 -0.872862 0.218216,
			0.436416 0.872881 0.218220,
			0.436416 -0.872881 -0.218220,
			0.436456 0.872862 -0.218216,
		] }
		normalPerVertex TRUE
		solid TRUE
	}
	appearance Appearance {
		material Material {
			diffuseColor 0.2445 0.2445 0.2445
			transparency 0.0000
			shininess 0.6000
		}
	}
}

Shape # Material: Silber
{
	geometry IndexedFaceSet {
		coord Coordinate { point [
			-2.960000 0.329999 0.650000,
			-2.960000 0.849999 0.650000,
			-2.960000 0.329999 -0.150000,
			-2.960000 0.849999 -0.150000,
			-2.440000 0.329999 0.650000,
			-2.440000 0.849999 0.650000,
			-2.440000 0.329999 -0.150000,
			-2.440000 0.849999 -0.150000,
		] }
		coordIndex [
			1 2 0 -1,
			3 6 2 -1,
			7 4 6 -1,
			5 0 4 -1,
			6 0 2 -1,
			3 5 7 -1,
			1 3 2 -1,
			3 7 6 -1,
			7 5 4 -1,
			5 1 0 -1,
			6 4 0 -1,
			3 1 5 -1,
		]
		normal Normal { vector [
			-0.642471 -0.642508 0.417630,
			-0.642514 0.642478 0.417610,
			-0.642514 -0.642478 -0.417610,
			-0.642471 0.642508 -0.417630,
			0.642514 -0.642478 0.417610,
			0.642471 0.642508 0.417630,
			0.642471 -0.642508 -0.417630,
			0.642514 0.642478 -0.417610,
		] }
		normalPerVertex TRUE
		solid TRUE
	}
	appearance Appearance {
		material Material {
			diffuseColor 0.2445 0.2445 0.2445
			transparency 0.0000
			shininess 0.6000
		}
	}
}

